G04*
G04 #@! TF.GenerationSoftware,Altium Limited,Altium Designer,19.0.14 (431)*
G04*
G04 Layer_Color=8421504*
%FSLAX25Y25*%
%MOIN*%
G70*
G01*
G75*
%ADD18R,0.06000X0.08000*%
%ADD19R,0.04000X0.06000*%
%ADD20R,0.03543X0.03740*%
%ADD21R,0.04528X0.08032*%
%ADD22R,0.02165X0.02165*%
%ADD23R,0.09000X0.02400*%
%ADD24R,0.02165X0.02165*%
%ADD25R,0.06000X0.04000*%
%ADD26R,0.03347X0.03347*%
%ADD27R,0.03740X0.03543*%
%ADD28O,0.02362X0.06890*%
D18*
X320750Y555917D02*
D03*
X309750D02*
D03*
X310000Y540669D02*
D03*
X321000D02*
D03*
D19*
X125500Y369500D02*
D03*
X117500D02*
D03*
X125425Y383556D02*
D03*
X117425D02*
D03*
X125425Y393555D02*
D03*
X117425D02*
D03*
X408000Y522000D02*
D03*
X400000D02*
D03*
Y568000D02*
D03*
X408000D02*
D03*
D20*
X103374Y393555D02*
D03*
X109476D02*
D03*
X102976Y383055D02*
D03*
X109079D02*
D03*
X376948Y545417D02*
D03*
X383050D02*
D03*
X376948Y526417D02*
D03*
X383050D02*
D03*
D21*
X96500Y356839D02*
D03*
X106500D02*
D03*
X116500D02*
D03*
X126500D02*
D03*
X96500Y315343D02*
D03*
X106500D02*
D03*
X116500D02*
D03*
X126500D02*
D03*
D22*
X106500Y370888D02*
D03*
Y366288D02*
D03*
X96500Y366200D02*
D03*
Y370800D02*
D03*
X419000Y371200D02*
D03*
Y375800D02*
D03*
X412500Y371200D02*
D03*
Y375800D02*
D03*
X406000Y371200D02*
D03*
Y375800D02*
D03*
X419000Y362200D02*
D03*
Y366800D02*
D03*
X412500Y362200D02*
D03*
Y366800D02*
D03*
X406000Y362200D02*
D03*
Y366800D02*
D03*
X437388Y540300D02*
D03*
Y535700D02*
D03*
X437388Y531107D02*
D03*
Y526507D02*
D03*
X429500Y531107D02*
D03*
Y526507D02*
D03*
X429508Y535354D02*
D03*
Y539954D02*
D03*
D23*
X380500Y462500D02*
D03*
Y457500D02*
D03*
Y452500D02*
D03*
Y447500D02*
D03*
Y442500D02*
D03*
Y437500D02*
D03*
Y432500D02*
D03*
Y427500D02*
D03*
Y422500D02*
D03*
Y417500D02*
D03*
Y412500D02*
D03*
Y407500D02*
D03*
Y402500D02*
D03*
Y397500D02*
D03*
X416500D02*
D03*
Y402500D02*
D03*
Y407500D02*
D03*
Y412500D02*
D03*
Y417500D02*
D03*
Y422500D02*
D03*
Y427500D02*
D03*
Y432500D02*
D03*
Y437500D02*
D03*
Y442500D02*
D03*
Y447500D02*
D03*
Y452500D02*
D03*
Y457500D02*
D03*
Y462500D02*
D03*
D24*
X366200Y402000D02*
D03*
X370800D02*
D03*
X366200Y408000D02*
D03*
X370800D02*
D03*
X357700Y457025D02*
D03*
X362300D02*
D03*
Y463315D02*
D03*
X357700D02*
D03*
X297300Y485315D02*
D03*
X292700D02*
D03*
X282800Y485458D02*
D03*
X278200D02*
D03*
X297300Y473315D02*
D03*
X292700D02*
D03*
X282800Y473601D02*
D03*
X278200D02*
D03*
X278100Y461743D02*
D03*
X282700D02*
D03*
X292700Y497315D02*
D03*
X297300D02*
D03*
X292900Y461743D02*
D03*
X297500D02*
D03*
X278200Y438029D02*
D03*
X282800D02*
D03*
X292700Y438029D02*
D03*
X297300D02*
D03*
X292700Y449886D02*
D03*
X297300D02*
D03*
X292900Y426172D02*
D03*
X297500D02*
D03*
X292900Y414315D02*
D03*
X297500D02*
D03*
X278200Y497315D02*
D03*
X282800D02*
D03*
X278200Y449886D02*
D03*
X282800D02*
D03*
X278100Y426172D02*
D03*
X282700D02*
D03*
X278100Y414315D02*
D03*
X282700D02*
D03*
X385800Y539000D02*
D03*
X381200D02*
D03*
X385800Y533000D02*
D03*
X381200D02*
D03*
D25*
X396700Y363837D02*
D03*
Y371837D02*
D03*
X388700Y363837D02*
D03*
Y371837D02*
D03*
X380700Y363837D02*
D03*
Y371837D02*
D03*
X372700Y363837D02*
D03*
Y371837D02*
D03*
X420500Y535107D02*
D03*
Y527107D02*
D03*
D26*
X369000Y416949D02*
D03*
Y423051D02*
D03*
D27*
X396700Y384889D02*
D03*
Y378786D02*
D03*
X388700Y384889D02*
D03*
Y378786D02*
D03*
X380700Y384889D02*
D03*
Y378786D02*
D03*
X372700Y384889D02*
D03*
Y378786D02*
D03*
D28*
X411500Y556319D02*
D03*
X406500D02*
D03*
X401500D02*
D03*
X396500D02*
D03*
X411500Y533681D02*
D03*
X406500D02*
D03*
X401500D02*
D03*
X396500D02*
D03*
M02*
