G04*
G04 #@! TF.GenerationSoftware,Altium Limited,Altium Designer,19.0.14 (431)*
G04*
G04 Layer_Physical_Order=1*
G04 Layer_Color=255*
%FSLAX25Y25*%
%MOIN*%
G70*
G01*
G75*
%ADD10C,0.01000*%
%ADD15C,0.00800*%
%ADD18R,0.06000X0.08000*%
%ADD19R,0.04000X0.06000*%
%ADD20R,0.03543X0.03740*%
%ADD21R,0.04528X0.08032*%
%ADD22R,0.02165X0.02165*%
%ADD23R,0.09000X0.02400*%
%ADD24R,0.02165X0.02165*%
%ADD25R,0.06000X0.04000*%
%ADD26R,0.03347X0.03347*%
%ADD27R,0.03740X0.03543*%
%ADD28O,0.02362X0.06890*%
%ADD53C,0.00700*%
%ADD54C,0.05000*%
%ADD55C,0.02000*%
%ADD56C,0.02500*%
%ADD57C,0.01200*%
%ADD58C,0.10000*%
%ADD59C,0.01500*%
%ADD60C,0.16929*%
%ADD61C,0.13800*%
%ADD62C,0.06500*%
%ADD63C,0.05906*%
%ADD64R,0.05906X0.05906*%
%ADD65C,0.07087*%
%ADD66C,0.18740*%
%ADD67R,0.06653X0.06653*%
%ADD68C,0.06653*%
%ADD69R,0.06653X0.06653*%
%ADD70C,0.06653*%
%ADD71C,0.18898*%
%ADD72C,0.03000*%
%ADD73C,0.05000*%
G36*
X491500Y611270D02*
X491500Y516230D01*
X490428Y515158D01*
X490000Y515243D01*
X489142Y515072D01*
X488414Y514586D01*
X487928Y513858D01*
X487757Y513000D01*
X487928Y512142D01*
X488414Y511414D01*
X489142Y510928D01*
X490000Y510757D01*
X490858Y510928D01*
X491059Y511062D01*
X491500Y510826D01*
X491500Y326000D01*
X475501Y310001D01*
X452000Y310000D01*
X147500D01*
X140500Y317000D01*
Y383500D01*
X135000Y389000D01*
X99844Y389000D01*
X97073Y391770D01*
Y429142D01*
X106548Y438617D01*
X106700Y438554D01*
X107808Y438408D01*
X108916Y438554D01*
X109948Y438981D01*
X110834Y439662D01*
X111514Y440548D01*
X111942Y441580D01*
X112088Y442688D01*
X111942Y443796D01*
X111514Y444828D01*
X110834Y445714D01*
X109948Y446394D01*
X108916Y446822D01*
X107808Y446968D01*
X106700Y446822D01*
X105668Y446394D01*
X104782Y445714D01*
X104101Y444828D01*
X103674Y443796D01*
X103528Y442688D01*
X103674Y441580D01*
X103737Y441428D01*
X94000Y431692D01*
X93500Y431899D01*
X93500Y497116D01*
X93962Y497308D01*
X98899Y492371D01*
X99296Y492106D01*
X99764Y492013D01*
X125965D01*
Y489209D01*
X134019D01*
Y497263D01*
X125965D01*
Y494460D01*
X120430D01*
X120330Y494960D01*
X120842Y495172D01*
X121683Y495817D01*
X122328Y496658D01*
X122734Y497638D01*
X122873Y498689D01*
X122734Y499740D01*
X122328Y500720D01*
X121683Y501561D01*
X120842Y502206D01*
X119862Y502612D01*
X118811Y502750D01*
X117760Y502612D01*
X116780Y502206D01*
X115939Y501561D01*
X115294Y500720D01*
X114888Y499740D01*
X114750Y498689D01*
X114888Y497638D01*
X115294Y496658D01*
X115939Y495817D01*
X116780Y495172D01*
X117292Y494960D01*
X117192Y494460D01*
X100271D01*
X93500Y501230D01*
Y519472D01*
X94000Y519812D01*
X94608Y519691D01*
X95466Y519862D01*
X96194Y520348D01*
X96680Y521075D01*
X96709Y521224D01*
X104903Y529417D01*
X115276D01*
X115294Y529375D01*
X115939Y528534D01*
X116780Y527888D01*
X117760Y527482D01*
X118811Y527344D01*
X119862Y527482D01*
X120842Y527888D01*
X121683Y528534D01*
X122328Y529375D01*
X122734Y530354D01*
X122873Y531405D01*
X122734Y532457D01*
X122328Y533436D01*
X121683Y534277D01*
X120842Y534923D01*
X119862Y535329D01*
X118811Y535467D01*
X117760Y535329D01*
X116780Y534923D01*
X115939Y534277D01*
X115294Y533436D01*
X115276Y533394D01*
X104079D01*
X103318Y533242D01*
X102673Y532811D01*
X94000Y524138D01*
X93683Y524230D01*
X93500Y524395D01*
X93500Y559270D01*
X104324Y570094D01*
X125614Y570046D01*
X125943Y569670D01*
X125931Y569575D01*
X126069Y568524D01*
X126475Y567544D01*
X127120Y566703D01*
X127961Y566057D01*
X128941Y565652D01*
X129992Y565513D01*
X131043Y565652D01*
X132023Y566057D01*
X132864Y566703D01*
X133510Y567544D01*
X133915Y568524D01*
X134054Y569575D01*
X134044Y569651D01*
X134374Y570026D01*
X195792Y569888D01*
X195983Y569426D01*
X167993Y541436D01*
X156289D01*
X156189Y541936D01*
X156842Y542207D01*
X157605Y542793D01*
X158191Y543555D01*
X158559Y544444D01*
X158684Y545398D01*
X158559Y546351D01*
X158191Y547240D01*
X157605Y548003D01*
X156842Y548588D01*
X155954Y548956D01*
X155000Y549082D01*
X154046Y548956D01*
X153158Y548588D01*
X152395Y548003D01*
X151809Y547240D01*
X151441Y546351D01*
X151316Y545398D01*
X151441Y544444D01*
X151809Y543555D01*
X152395Y542793D01*
X153158Y542207D01*
X153811Y541936D01*
X153711Y541436D01*
X149447D01*
X149447Y541436D01*
X149018Y541351D01*
X148654Y541108D01*
X148654Y541108D01*
X146342Y538796D01*
X145954Y538956D01*
X145000Y539082D01*
X144046Y538956D01*
X143158Y538588D01*
X142395Y538003D01*
X141809Y537240D01*
X141441Y536351D01*
X141316Y535398D01*
X141441Y534444D01*
X141809Y533556D01*
X142395Y532793D01*
X143158Y532207D01*
X144046Y531839D01*
X145000Y531713D01*
X145954Y531839D01*
X146842Y532207D01*
X147605Y532793D01*
X148191Y533556D01*
X148559Y534444D01*
X148684Y535398D01*
X148559Y536351D01*
X148191Y537240D01*
X148090Y537371D01*
X149912Y539193D01*
X153312D01*
X153411Y538693D01*
X153158Y538588D01*
X152395Y538003D01*
X151809Y537240D01*
X151441Y536351D01*
X151316Y535398D01*
X151441Y534444D01*
X151809Y533556D01*
X152395Y532793D01*
X153158Y532207D01*
X153811Y531937D01*
X153711Y531436D01*
X149917D01*
X149917Y531436D01*
X149488Y531351D01*
X149124Y531108D01*
X149124Y531108D01*
X146674Y528658D01*
X145954Y528956D01*
X145000Y529082D01*
X144046Y528956D01*
X143158Y528588D01*
X142395Y528003D01*
X141809Y527240D01*
X141441Y526351D01*
X141316Y525398D01*
X141441Y524444D01*
X141809Y523556D01*
X142395Y522792D01*
X143158Y522207D01*
X144046Y521839D01*
X145000Y521713D01*
X145954Y521839D01*
X146842Y522207D01*
X147605Y522792D01*
X148191Y523556D01*
X148559Y524444D01*
X148684Y525398D01*
X148559Y526351D01*
X148260Y527072D01*
X150382Y529193D01*
X153312D01*
X153411Y528693D01*
X153158Y528588D01*
X152395Y528003D01*
X151809Y527240D01*
X151441Y526351D01*
X151316Y525398D01*
X151441Y524444D01*
X151809Y523556D01*
X152395Y522792D01*
X153158Y522207D01*
X153811Y521937D01*
X153711Y521437D01*
X149917D01*
X149917Y521437D01*
X149488Y521351D01*
X149124Y521108D01*
X149124Y521108D01*
X146674Y518658D01*
X145954Y518956D01*
X145000Y519082D01*
X144046Y518956D01*
X143158Y518588D01*
X142395Y518003D01*
X141809Y517240D01*
X141441Y516351D01*
X141316Y515398D01*
X141441Y514444D01*
X141809Y513555D01*
X142395Y512792D01*
X143158Y512207D01*
X144046Y511839D01*
X145000Y511713D01*
X145954Y511839D01*
X146842Y512207D01*
X147605Y512792D01*
X148191Y513555D01*
X148559Y514444D01*
X148684Y515398D01*
X148559Y516351D01*
X148260Y517072D01*
X150382Y519193D01*
X153312D01*
X153411Y518693D01*
X153158Y518588D01*
X152395Y518003D01*
X151809Y517240D01*
X151441Y516351D01*
X151316Y515398D01*
X151441Y514444D01*
X151809Y513555D01*
X152395Y512792D01*
X153158Y512207D01*
X154046Y511839D01*
X155000Y511713D01*
X155954Y511839D01*
X156842Y512207D01*
X157605Y512792D01*
X158191Y513555D01*
X158559Y514444D01*
X158684Y515398D01*
X158559Y516351D01*
X158191Y517240D01*
X157605Y518003D01*
X156842Y518588D01*
X156588Y518693D01*
X156688Y519193D01*
X164815D01*
X164815Y519193D01*
X165244Y519279D01*
X165608Y519522D01*
X215929Y569843D01*
X245653Y569776D01*
X255000Y560428D01*
X255000Y385286D01*
X271620Y368666D01*
X332438D01*
X332608Y368166D01*
X332395Y368003D01*
X331809Y367240D01*
X331441Y366351D01*
X331316Y365398D01*
X331441Y364444D01*
X331809Y363556D01*
X332395Y362792D01*
X333158Y362207D01*
X334046Y361839D01*
X335000Y361713D01*
X335954Y361839D01*
X336842Y362207D01*
X337605Y362792D01*
X338191Y363556D01*
X338559Y364444D01*
X338684Y365398D01*
X338559Y366351D01*
X338191Y367240D01*
X337605Y368003D01*
X337392Y368166D01*
X337562Y368666D01*
X342438D01*
X342608Y368166D01*
X342395Y368003D01*
X341809Y367240D01*
X341441Y366351D01*
X341316Y365398D01*
X341441Y364444D01*
X341809Y363556D01*
X342395Y362792D01*
X343158Y362207D01*
X344046Y361839D01*
X345000Y361713D01*
X345954Y361839D01*
X346842Y362207D01*
X347605Y362792D01*
X348191Y363556D01*
X348559Y364444D01*
X348684Y365398D01*
X348559Y366351D01*
X348191Y367240D01*
X347605Y368003D01*
X347392Y368166D01*
X347562Y368666D01*
X403752D01*
X404217Y368583D01*
Y365017D01*
X407783D01*
Y368583D01*
X408248Y368666D01*
X410252D01*
X410717Y368583D01*
Y365017D01*
X414283D01*
Y368583D01*
X414748Y368666D01*
X416752D01*
X417217Y368583D01*
Y365017D01*
X420783D01*
Y368583D01*
X421248Y368666D01*
X427398D01*
X427685Y368666D01*
X427685Y368666D01*
X427836Y368817D01*
X427836Y369104D01*
Y387894D01*
X427685Y388331D01*
Y397797D01*
X428147Y397988D01*
X440524Y385612D01*
X441192Y385099D01*
X441971Y384776D01*
X442806Y384666D01*
X446218D01*
X446508Y384443D01*
X447469Y384045D01*
X448500Y383910D01*
X449531Y384045D01*
X450492Y384443D01*
X451317Y385076D01*
X451950Y385902D01*
X452348Y386862D01*
X452484Y387894D01*
X452348Y388925D01*
X451950Y389886D01*
X451317Y390711D01*
X450492Y391344D01*
X449531Y391742D01*
X448500Y391878D01*
X447469Y391742D01*
X446508Y391344D01*
X446218Y391121D01*
X444143D01*
X428728Y406537D01*
Y428975D01*
X434924Y435172D01*
X435437Y435840D01*
X435759Y436619D01*
X435869Y437454D01*
Y473460D01*
X436348Y474085D01*
X436776Y475117D01*
X436922Y476225D01*
X436776Y477332D01*
X436348Y478365D01*
X435869Y478989D01*
Y485162D01*
X436348Y485786D01*
X436776Y486819D01*
X436922Y487926D01*
X436776Y489034D01*
X436348Y490066D01*
X435668Y490953D01*
X434782Y491633D01*
X434435Y491777D01*
X434534Y492276D01*
X435808D01*
X437950Y490135D01*
X438347Y489870D01*
X438815Y489777D01*
X446740D01*
X446839Y489277D01*
X446508Y489139D01*
X445683Y488506D01*
X445050Y487681D01*
X444652Y486720D01*
X444516Y485689D01*
X444652Y484658D01*
X445050Y483697D01*
X445683Y482872D01*
X446508Y482239D01*
X447469Y481841D01*
X448500Y481705D01*
X449531Y481841D01*
X450492Y482239D01*
X451317Y482872D01*
X451950Y483697D01*
X452348Y484658D01*
X452484Y485689D01*
X452348Y486720D01*
X451950Y487681D01*
X451317Y488506D01*
X450492Y489139D01*
X450161Y489277D01*
X450260Y489777D01*
X451185D01*
X451653Y489870D01*
X452050Y490135D01*
X454175Y492260D01*
X454632Y492009D01*
X454516Y491130D01*
X454652Y490099D01*
X455050Y489138D01*
X455683Y488313D01*
X456508Y487680D01*
X457469Y487282D01*
X458500Y487146D01*
X459531Y487282D01*
X460492Y487680D01*
X461317Y488313D01*
X461950Y489138D01*
X462348Y490099D01*
X462484Y491130D01*
X462348Y492161D01*
X461950Y493122D01*
X461317Y493947D01*
X460492Y494580D01*
X459531Y494978D01*
X458500Y495114D01*
X457469Y494978D01*
X456783Y494694D01*
X456595Y494780D01*
X456316Y495042D01*
Y498079D01*
X456700Y498463D01*
X457469Y498145D01*
X458500Y498009D01*
X459531Y498145D01*
X460492Y498543D01*
X461317Y499176D01*
X461950Y500001D01*
X462348Y500962D01*
X462484Y501993D01*
X462348Y503025D01*
X461950Y503986D01*
X461317Y504811D01*
X460492Y505444D01*
X459531Y505842D01*
X458500Y505977D01*
X457469Y505842D01*
X456508Y505444D01*
X455683Y504811D01*
X455050Y503986D01*
X454652Y503025D01*
X454516Y501993D01*
X454652Y500962D01*
X454970Y500194D01*
X454227Y499451D01*
X453962Y499054D01*
X453869Y498586D01*
Y495414D01*
X450678Y492224D01*
X449618D01*
X449531Y492707D01*
X450492Y493105D01*
X451317Y493738D01*
X451950Y494563D01*
X452348Y495524D01*
X452484Y496555D01*
X452348Y497586D01*
X451950Y498547D01*
X451317Y499372D01*
X450492Y500005D01*
X449531Y500403D01*
X448500Y500539D01*
X447469Y500403D01*
X446508Y500005D01*
X445683Y499372D01*
X445050Y498547D01*
X444652Y497586D01*
X444516Y496555D01*
X444652Y495524D01*
X445050Y494563D01*
X445683Y493738D01*
X446508Y493105D01*
X447469Y492707D01*
X447382Y492224D01*
X439322D01*
X438027Y493519D01*
X437180Y494365D01*
X436783Y494630D01*
X436315Y494724D01*
X419830D01*
X419362Y494630D01*
X418965Y494365D01*
X416635Y492035D01*
X416370Y491638D01*
X416277Y491170D01*
Y473507D01*
X414993Y472224D01*
X407007D01*
X405032Y474199D01*
X405410Y475111D01*
X405555Y476219D01*
X405410Y477326D01*
X404982Y478358D01*
X404302Y479245D01*
X403415Y479925D01*
X402383Y480353D01*
X401275Y480498D01*
X400168Y480353D01*
X399135Y479925D01*
X398249Y479245D01*
X397569Y478358D01*
X397141Y477326D01*
X396996Y476219D01*
X397141Y475111D01*
X397569Y474079D01*
X397967Y473560D01*
X393167Y468760D01*
X369740D01*
X367000Y471500D01*
Y472570D01*
X367526Y472974D01*
X368207Y473860D01*
X368634Y474892D01*
X368780Y476000D01*
X368634Y477108D01*
X368212Y478126D01*
X370293Y480207D01*
X370293Y480207D01*
X370536Y480571D01*
X370622Y481000D01*
X370621Y481000D01*
Y505306D01*
X435987D01*
X436586Y504707D01*
X436586Y504707D01*
X436949Y504464D01*
X437379Y504378D01*
X437379Y504378D01*
X442548D01*
X442548Y504378D01*
X442977Y504464D01*
X443341Y504707D01*
X444443Y505808D01*
X444933Y505711D01*
X445050Y505429D01*
X445683Y504604D01*
X446508Y503971D01*
X447469Y503573D01*
X448500Y503437D01*
X449531Y503573D01*
X450492Y503971D01*
X451317Y504604D01*
X451950Y505429D01*
X452348Y506390D01*
X452484Y507421D01*
X452348Y508452D01*
X451950Y509413D01*
X451317Y510238D01*
X450492Y510872D01*
X449531Y511270D01*
X448704Y511378D01*
X448737Y511878D01*
X454645D01*
X454652Y511826D01*
X455050Y510865D01*
X455683Y510040D01*
X456508Y509407D01*
X457469Y509009D01*
X458500Y508873D01*
X459531Y509009D01*
X460492Y509407D01*
X461317Y510040D01*
X461950Y510865D01*
X462348Y511826D01*
X462484Y512857D01*
X462348Y513888D01*
X461950Y514849D01*
X461317Y515674D01*
X460492Y516307D01*
X459531Y516705D01*
X458500Y516841D01*
X457469Y516705D01*
X456508Y516307D01*
X455683Y515674D01*
X455050Y514849D01*
X454748Y514122D01*
X450071D01*
X449972Y514622D01*
X450492Y514837D01*
X451317Y515470D01*
X451950Y516295D01*
X452348Y517256D01*
X452484Y518287D01*
X452348Y519318D01*
X451950Y520279D01*
X451317Y521104D01*
X450492Y521738D01*
X450152Y521878D01*
X450252Y522378D01*
X454780D01*
X455050Y521728D01*
X455683Y520903D01*
X456508Y520270D01*
X457469Y519872D01*
X458500Y519736D01*
X459531Y519872D01*
X460492Y520270D01*
X461317Y520903D01*
X461950Y521728D01*
X462348Y522689D01*
X462484Y523720D01*
X462348Y524752D01*
X461950Y525712D01*
X461317Y526538D01*
X460492Y527171D01*
X459531Y527569D01*
X458500Y527704D01*
X457469Y527569D01*
X456508Y527171D01*
X455683Y526538D01*
X455050Y525712D01*
X454652Y524752D01*
X454635Y524622D01*
X446207D01*
X446016Y525083D01*
X446598Y525666D01*
X447469Y525305D01*
X448500Y525169D01*
X449531Y525305D01*
X450492Y525703D01*
X451317Y526336D01*
X451950Y527162D01*
X452348Y528122D01*
X452484Y529153D01*
X452348Y530185D01*
X451950Y531145D01*
X451317Y531971D01*
X450492Y532604D01*
X449531Y533002D01*
X448611Y533123D01*
X448359Y533578D01*
X449057Y534276D01*
X461791D01*
X465012Y531055D01*
X464652Y530185D01*
X464516Y529153D01*
X464652Y528122D01*
X465050Y527162D01*
X465683Y526336D01*
X466508Y525703D01*
X467469Y525305D01*
X468500Y525169D01*
X469531Y525305D01*
X470492Y525703D01*
X471317Y526336D01*
X471950Y527162D01*
X472348Y528122D01*
X472484Y529153D01*
X472348Y530185D01*
X471950Y531145D01*
X471317Y531971D01*
X470492Y532604D01*
X469531Y533002D01*
X468500Y533138D01*
X467469Y533002D01*
X466598Y532641D01*
X463049Y536191D01*
X462685Y536434D01*
X462256Y536519D01*
X462256Y536519D01*
X448592D01*
X448592Y536519D01*
X448163Y536434D01*
X447799Y536191D01*
X447799Y536191D01*
X443357Y531748D01*
X443114Y531385D01*
X443028Y530955D01*
X443028Y530955D01*
Y528402D01*
X431422Y516796D01*
X427836D01*
X427836Y529324D01*
X431283D01*
Y531304D01*
X432793Y532814D01*
X432793Y532814D01*
X433036Y533178D01*
X433038Y533187D01*
X433563Y533265D01*
X433707Y533050D01*
X435605Y531152D01*
Y529324D01*
X439170D01*
Y532890D01*
X437039D01*
X436474Y533455D01*
X436665Y533917D01*
X439171D01*
Y535897D01*
X444293Y541019D01*
X444293Y541019D01*
X444536Y541383D01*
X444622Y541812D01*
X444622Y541812D01*
Y559500D01*
X444622Y559500D01*
X444536Y559929D01*
X444293Y560293D01*
X442793Y561793D01*
X442429Y562036D01*
X442000Y562122D01*
X442000Y562122D01*
X439628D01*
X439207Y563140D01*
X438526Y564026D01*
X437640Y564707D01*
X436608Y565134D01*
X435500Y565280D01*
X434392Y565134D01*
X433360Y564707D01*
X432474Y564026D01*
X431982Y563385D01*
X431482Y563555D01*
Y568376D01*
X431396Y568805D01*
X431153Y569169D01*
X431153Y569169D01*
X429212Y571110D01*
X429634Y572129D01*
X429780Y573236D01*
X429634Y574344D01*
X429207Y575376D01*
X428526Y576263D01*
X427836Y576792D01*
Y584722D01*
X428284Y584943D01*
X428469Y584801D01*
X429449Y584396D01*
X430500Y584257D01*
X431551Y584396D01*
X432531Y584801D01*
X433372Y585447D01*
X434017Y586288D01*
X434423Y587268D01*
X434561Y588319D01*
X434423Y589370D01*
X434017Y590350D01*
X433372Y591191D01*
X432531Y591836D01*
X431551Y592242D01*
X430500Y592380D01*
X429449Y592242D01*
X428469Y591836D01*
X428284Y591694D01*
X427836Y591916D01*
Y596564D01*
X427919Y596628D01*
X428565Y597469D01*
X428970Y598449D01*
X429109Y599500D01*
X428970Y600551D01*
X428565Y601531D01*
X427919Y602372D01*
X427836Y602436D01*
Y612500D01*
X490270Y612500D01*
X491500Y611270D01*
D02*
G37*
G36*
X442378Y559035D02*
Y542277D01*
X439633Y539531D01*
X439171Y539722D01*
Y542083D01*
X435605D01*
Y541422D01*
X434165D01*
X431482Y544104D01*
Y558445D01*
X431982Y558615D01*
X432474Y557974D01*
X433360Y557294D01*
X434392Y556866D01*
X435500Y556720D01*
X436608Y556866D01*
X437640Y557294D01*
X438526Y557974D01*
X439207Y558860D01*
X439628Y559878D01*
X441535D01*
X442378Y559035D01*
D02*
G37*
G36*
X313181Y546819D02*
X313181Y534181D01*
X312500Y533500D01*
X299000D01*
Y547500D01*
X312500D01*
X313181Y546819D01*
D02*
G37*
%LPC*%
G36*
X446858Y603561D02*
X445807Y603423D01*
X444828Y603017D01*
X443986Y602372D01*
X443341Y601531D01*
X442935Y600551D01*
X442797Y599500D01*
X442935Y598449D01*
X443341Y597469D01*
X443986Y596628D01*
X444828Y595983D01*
X445807Y595577D01*
X446858Y595438D01*
X447909Y595577D01*
X448889Y595983D01*
X449730Y596628D01*
X450376Y597469D01*
X450781Y598449D01*
X450920Y599500D01*
X450781Y600551D01*
X450376Y601531D01*
X449730Y602372D01*
X448889Y603017D01*
X447909Y603423D01*
X446858Y603561D01*
D02*
G37*
G36*
X435953D02*
X434902Y603423D01*
X433922Y603017D01*
X433081Y602372D01*
X432435Y601531D01*
X432030Y600551D01*
X431891Y599500D01*
X432030Y598449D01*
X432435Y597469D01*
X433081Y596628D01*
X433922Y595983D01*
X434902Y595577D01*
X435953Y595438D01*
X437004Y595577D01*
X437984Y595983D01*
X438825Y596628D01*
X439470Y597469D01*
X439876Y598449D01*
X440014Y599500D01*
X439876Y600551D01*
X439470Y601531D01*
X438825Y602372D01*
X437984Y603017D01*
X437004Y603423D01*
X435953Y603561D01*
D02*
G37*
G36*
X441405Y592380D02*
X440354Y592242D01*
X439375Y591836D01*
X438534Y591191D01*
X437888Y590350D01*
X437482Y589370D01*
X437344Y588319D01*
X437482Y587268D01*
X437888Y586288D01*
X438534Y585447D01*
X439375Y584801D01*
X440354Y584396D01*
X441405Y584257D01*
X442457Y584396D01*
X443436Y584801D01*
X444277Y585447D01*
X444923Y586288D01*
X445329Y587268D01*
X445467Y588319D01*
X445329Y589370D01*
X444923Y590350D01*
X444277Y591191D01*
X443436Y591836D01*
X442457Y592242D01*
X441405Y592380D01*
D02*
G37*
G36*
X155000Y559082D02*
X154046Y558956D01*
X153158Y558588D01*
X152395Y558003D01*
X151809Y557240D01*
X151441Y556351D01*
X151316Y555398D01*
X151441Y554444D01*
X151809Y553555D01*
X152395Y552793D01*
X153158Y552207D01*
X154046Y551839D01*
X155000Y551713D01*
X155954Y551839D01*
X156842Y552207D01*
X157605Y552793D01*
X158191Y553555D01*
X158559Y554444D01*
X158684Y555398D01*
X158559Y556351D01*
X158191Y557240D01*
X157605Y558003D01*
X156842Y558588D01*
X155954Y558956D01*
X155000Y559082D01*
D02*
G37*
G36*
X145000D02*
X144046Y558956D01*
X143158Y558588D01*
X142395Y558003D01*
X141809Y557240D01*
X141441Y556351D01*
X141316Y555398D01*
X141441Y554444D01*
X141809Y553555D01*
X142395Y552793D01*
X143158Y552207D01*
X144046Y551839D01*
X145000Y551713D01*
X145954Y551839D01*
X146842Y552207D01*
X147605Y552793D01*
X148191Y553555D01*
X148559Y554444D01*
X148684Y555398D01*
X148559Y556351D01*
X148191Y557240D01*
X147605Y558003D01*
X146842Y558588D01*
X145954Y558956D01*
X145000Y559082D01*
D02*
G37*
G36*
X118811Y557278D02*
X117760Y557140D01*
X116780Y556734D01*
X115939Y556088D01*
X115294Y555247D01*
X114888Y554268D01*
X114750Y553217D01*
X114888Y552165D01*
X115294Y551186D01*
X115939Y550345D01*
X116780Y549699D01*
X117760Y549293D01*
X118811Y549155D01*
X119862Y549293D01*
X120842Y549699D01*
X121683Y550345D01*
X122328Y551186D01*
X122734Y552165D01*
X122873Y553217D01*
X122734Y554268D01*
X122328Y555247D01*
X121683Y556088D01*
X120842Y556734D01*
X119862Y557140D01*
X118811Y557278D01*
D02*
G37*
G36*
X129992Y551825D02*
X128941Y551687D01*
X127961Y551281D01*
X127120Y550636D01*
X126475Y549794D01*
X126069Y548815D01*
X125931Y547764D01*
X126069Y546713D01*
X126475Y545733D01*
X127120Y544892D01*
X127961Y544246D01*
X128941Y543841D01*
X129992Y543702D01*
X131043Y543841D01*
X132023Y544246D01*
X132864Y544892D01*
X133510Y545733D01*
X133915Y546713D01*
X134054Y547764D01*
X133915Y548815D01*
X133510Y549794D01*
X132864Y550636D01*
X132023Y551281D01*
X131043Y551687D01*
X129992Y551825D01*
D02*
G37*
G36*
X145000Y549082D02*
X144046Y548956D01*
X143158Y548588D01*
X142395Y548003D01*
X141809Y547240D01*
X141441Y546351D01*
X141316Y545398D01*
X141441Y544444D01*
X141809Y543555D01*
X142395Y542793D01*
X143158Y542207D01*
X144046Y541839D01*
X145000Y541713D01*
X145954Y541839D01*
X146842Y542207D01*
X147605Y542793D01*
X148191Y543555D01*
X148559Y544444D01*
X148684Y545398D01*
X148559Y546351D01*
X148191Y547240D01*
X147605Y548003D01*
X146842Y548588D01*
X145954Y548956D01*
X145000Y549082D01*
D02*
G37*
G36*
X118811Y546373D02*
X117760Y546234D01*
X116780Y545828D01*
X115939Y545183D01*
X115294Y544342D01*
X114888Y543362D01*
X114750Y542311D01*
X114888Y541260D01*
X115294Y540280D01*
X115939Y539439D01*
X116780Y538794D01*
X117760Y538388D01*
X118811Y538249D01*
X119862Y538388D01*
X120842Y538794D01*
X121683Y539439D01*
X122328Y540280D01*
X122734Y541260D01*
X122873Y542311D01*
X122734Y543362D01*
X122328Y544342D01*
X121683Y545183D01*
X120842Y545828D01*
X119862Y546234D01*
X118811Y546373D01*
D02*
G37*
G36*
X129992Y540920D02*
X128941Y540781D01*
X127961Y540376D01*
X127120Y539730D01*
X126475Y538889D01*
X126069Y537910D01*
X125931Y536858D01*
X126069Y535807D01*
X126475Y534828D01*
X127120Y533986D01*
X127961Y533341D01*
X128941Y532935D01*
X129992Y532797D01*
X131043Y532935D01*
X132023Y533341D01*
X132864Y533986D01*
X133510Y534828D01*
X133915Y535807D01*
X134054Y536858D01*
X133915Y537910D01*
X133510Y538889D01*
X132864Y539730D01*
X132023Y540376D01*
X131043Y540781D01*
X129992Y540920D01*
D02*
G37*
G36*
Y530014D02*
X128941Y529876D01*
X127961Y529470D01*
X127120Y528825D01*
X126475Y527983D01*
X126069Y527004D01*
X125931Y525953D01*
X126069Y524901D01*
X126475Y523922D01*
X127120Y523081D01*
X127961Y522435D01*
X128941Y522030D01*
X129992Y521891D01*
X131043Y522030D01*
X132023Y522435D01*
X132864Y523081D01*
X133510Y523922D01*
X133915Y524901D01*
X134054Y525953D01*
X133915Y527004D01*
X133510Y527983D01*
X132864Y528825D01*
X132023Y529470D01*
X131043Y529876D01*
X129992Y530014D01*
D02*
G37*
G36*
X118811Y524562D02*
X117760Y524423D01*
X116780Y524017D01*
X115939Y523372D01*
X115294Y522531D01*
X114888Y521551D01*
X114750Y520500D01*
X114888Y519449D01*
X115294Y518469D01*
X115939Y517628D01*
X116780Y516983D01*
X117760Y516577D01*
X118811Y516438D01*
X119862Y516577D01*
X120842Y516983D01*
X121683Y517628D01*
X122328Y518469D01*
X122734Y519449D01*
X122873Y520500D01*
X122734Y521551D01*
X122328Y522531D01*
X121683Y523372D01*
X120842Y524017D01*
X119862Y524423D01*
X118811Y524562D01*
D02*
G37*
G36*
X468500Y522271D02*
X467469Y522136D01*
X466508Y521738D01*
X465683Y521104D01*
X465050Y520279D01*
X464652Y519318D01*
X464516Y518287D01*
X464652Y517256D01*
X465050Y516295D01*
X465683Y515470D01*
X466508Y514837D01*
X467469Y514439D01*
X468500Y514303D01*
X469531Y514439D01*
X470492Y514837D01*
X471317Y515470D01*
X471950Y516295D01*
X472348Y517256D01*
X472484Y518287D01*
X472348Y519318D01*
X471950Y520279D01*
X471317Y521104D01*
X470492Y521738D01*
X469531Y522136D01*
X468500Y522271D01*
D02*
G37*
G36*
X129992Y519109D02*
X128941Y518970D01*
X127961Y518565D01*
X127120Y517919D01*
X126475Y517078D01*
X126069Y516098D01*
X125931Y515047D01*
X126069Y513996D01*
X126475Y513016D01*
X127120Y512175D01*
X127961Y511530D01*
X128941Y511124D01*
X129992Y510986D01*
X131043Y511124D01*
X132023Y511530D01*
X132864Y512175D01*
X133510Y513016D01*
X133915Y513996D01*
X134054Y515047D01*
X133915Y516098D01*
X133510Y517078D01*
X132864Y517919D01*
X132023Y518565D01*
X131043Y518970D01*
X129992Y519109D01*
D02*
G37*
G36*
X118811Y513656D02*
X117760Y513518D01*
X116780Y513112D01*
X115939Y512466D01*
X115294Y511625D01*
X114888Y510646D01*
X114750Y509594D01*
X114888Y508543D01*
X115294Y507564D01*
X115939Y506723D01*
X116780Y506077D01*
X117760Y505671D01*
X118811Y505533D01*
X119862Y505671D01*
X120842Y506077D01*
X121683Y506723D01*
X122328Y507564D01*
X122734Y508543D01*
X122873Y509594D01*
X122734Y510646D01*
X122328Y511625D01*
X121683Y512466D01*
X120842Y513112D01*
X119862Y513518D01*
X118811Y513656D01*
D02*
G37*
G36*
X468500Y511405D02*
X467469Y511270D01*
X466508Y510872D01*
X465683Y510238D01*
X465050Y509413D01*
X464652Y508452D01*
X464516Y507421D01*
X464652Y506390D01*
X465050Y505429D01*
X465683Y504604D01*
X466508Y503971D01*
X467469Y503573D01*
X468500Y503437D01*
X469531Y503573D01*
X470492Y503971D01*
X471317Y504604D01*
X471950Y505429D01*
X472348Y506390D01*
X472484Y507421D01*
X472348Y508452D01*
X471950Y509413D01*
X471317Y510238D01*
X470492Y510872D01*
X469531Y511270D01*
X468500Y511405D01*
D02*
G37*
G36*
X155000Y509082D02*
X154046Y508956D01*
X153158Y508588D01*
X152395Y508003D01*
X151809Y507240D01*
X151441Y506351D01*
X151316Y505398D01*
X151441Y504444D01*
X151809Y503555D01*
X152395Y502793D01*
X153158Y502207D01*
X154046Y501839D01*
X155000Y501713D01*
X155954Y501839D01*
X156842Y502207D01*
X157605Y502793D01*
X158191Y503555D01*
X158559Y504444D01*
X158684Y505398D01*
X158559Y506351D01*
X158191Y507240D01*
X157605Y508003D01*
X156842Y508588D01*
X155954Y508956D01*
X155000Y509082D01*
D02*
G37*
G36*
X145000D02*
X144046Y508956D01*
X143158Y508588D01*
X142395Y508003D01*
X141809Y507240D01*
X141441Y506351D01*
X141316Y505398D01*
X141441Y504444D01*
X141809Y503555D01*
X142395Y502793D01*
X143158Y502207D01*
X144046Y501839D01*
X145000Y501713D01*
X145954Y501839D01*
X146842Y502207D01*
X147605Y502793D01*
X148191Y503555D01*
X148559Y504444D01*
X148684Y505398D01*
X148559Y506351D01*
X148191Y507240D01*
X147605Y508003D01*
X146842Y508588D01*
X145954Y508956D01*
X145000Y509082D01*
D02*
G37*
G36*
X430142Y501671D02*
X429283Y501500D01*
X428555Y501014D01*
X428336Y500685D01*
D01*
X428211Y500498D01*
X416322D01*
X415978Y501014D01*
X415250Y501500D01*
X414392Y501671D01*
X413533Y501500D01*
X412806Y501014D01*
X412319Y500286D01*
X412149Y499428D01*
X412319Y498569D01*
X412806Y497842D01*
X413533Y497355D01*
X414392Y497185D01*
X415250Y497355D01*
X415978Y497842D01*
X416322Y498357D01*
X428211D01*
X428555Y497842D01*
X429283Y497355D01*
X430142Y497185D01*
X431000Y497355D01*
X431728Y497842D01*
X432214Y498569D01*
X432385Y499428D01*
X432214Y500286D01*
X431728Y501014D01*
X431000Y501500D01*
X430142Y501671D01*
D02*
G37*
G36*
X129992Y508203D02*
X128941Y508065D01*
X127961Y507659D01*
X127120Y507014D01*
X126475Y506173D01*
X126069Y505193D01*
X125931Y504142D01*
X126069Y503090D01*
X126475Y502111D01*
X127120Y501270D01*
X127961Y500624D01*
X128941Y500219D01*
X129992Y500080D01*
X131043Y500219D01*
X132023Y500624D01*
X132864Y501270D01*
X133510Y502111D01*
X133915Y503090D01*
X134054Y504142D01*
X133915Y505193D01*
X133510Y506173D01*
X132864Y507014D01*
X132023Y507659D01*
X131043Y508065D01*
X129992Y508203D01*
D02*
G37*
G36*
X468500Y500539D02*
X467469Y500403D01*
X466508Y500005D01*
X465683Y499372D01*
X465050Y498547D01*
X464652Y497586D01*
X464516Y496555D01*
X464652Y495524D01*
X465050Y494563D01*
X465683Y493738D01*
X466508Y493105D01*
X467469Y492707D01*
X468500Y492571D01*
X469531Y492707D01*
X470492Y493105D01*
X471317Y493738D01*
X471950Y494563D01*
X472348Y495524D01*
X472484Y496555D01*
X472348Y497586D01*
X471950Y498547D01*
X471317Y499372D01*
X470492Y500005D01*
X469531Y500403D01*
X468500Y500539D01*
D02*
G37*
G36*
X155000Y499082D02*
X154046Y498956D01*
X153158Y498588D01*
X152395Y498003D01*
X151809Y497240D01*
X151441Y496351D01*
X151316Y495398D01*
X151441Y494444D01*
X151809Y493555D01*
X152395Y492793D01*
X153158Y492207D01*
X154046Y491839D01*
X155000Y491713D01*
X155954Y491839D01*
X156842Y492207D01*
X157605Y492793D01*
X158191Y493555D01*
X158559Y494444D01*
X158684Y495398D01*
X158559Y496351D01*
X158191Y497240D01*
X157605Y498003D01*
X156842Y498588D01*
X155954Y498956D01*
X155000Y499082D01*
D02*
G37*
G36*
X145000D02*
X144046Y498956D01*
X143158Y498588D01*
X142395Y498003D01*
X141809Y497240D01*
X141441Y496351D01*
X141316Y495398D01*
X141441Y494444D01*
X141809Y493555D01*
X142395Y492793D01*
X143158Y492207D01*
X144046Y491839D01*
X145000Y491713D01*
X145954Y491839D01*
X146842Y492207D01*
X147605Y492793D01*
X148191Y493555D01*
X148559Y494444D01*
X148684Y495398D01*
X148559Y496351D01*
X148191Y497240D01*
X147605Y498003D01*
X146842Y498588D01*
X145954Y498956D01*
X145000Y499082D01*
D02*
G37*
G36*
X401275Y492358D02*
X400168Y492212D01*
X399135Y491784D01*
X398249Y491104D01*
X397569Y490218D01*
X397141Y489185D01*
X396996Y488078D01*
X397141Y486970D01*
X397569Y485938D01*
X398249Y485051D01*
X399135Y484371D01*
X400168Y483944D01*
X401275Y483798D01*
X402383Y483944D01*
X403415Y484371D01*
X404302Y485051D01*
X404982Y485938D01*
X405410Y486970D01*
X405555Y488078D01*
X405410Y489185D01*
X404982Y490218D01*
X404302Y491104D01*
X403415Y491784D01*
X402383Y492212D01*
X401275Y492358D01*
D02*
G37*
G36*
X155000Y489082D02*
X154046Y488956D01*
X153158Y488588D01*
X152395Y488003D01*
X151809Y487240D01*
X151441Y486351D01*
X151316Y485398D01*
X151441Y484444D01*
X151809Y483556D01*
X152395Y482793D01*
X153158Y482207D01*
X154046Y481839D01*
X155000Y481713D01*
X155954Y481839D01*
X156842Y482207D01*
X157605Y482793D01*
X158191Y483556D01*
X158559Y484444D01*
X158684Y485398D01*
X158559Y486351D01*
X158191Y487240D01*
X157605Y488003D01*
X156842Y488588D01*
X155954Y488956D01*
X155000Y489082D01*
D02*
G37*
G36*
X145000D02*
X144046Y488956D01*
X143158Y488588D01*
X142395Y488003D01*
X141809Y487240D01*
X141441Y486351D01*
X141316Y485398D01*
X141441Y484444D01*
X141809Y483556D01*
X142395Y482793D01*
X143158Y482207D01*
X144046Y481839D01*
X145000Y481713D01*
X145954Y481839D01*
X146842Y482207D01*
X147605Y482793D01*
X148191Y483556D01*
X148559Y484444D01*
X148684Y485398D01*
X148559Y486351D01*
X148191Y487240D01*
X147605Y488003D01*
X146842Y488588D01*
X145954Y488956D01*
X145000Y489082D01*
D02*
G37*
G36*
X468500Y489673D02*
X467469Y489537D01*
X466508Y489139D01*
X465683Y488506D01*
X465050Y487681D01*
X464652Y486720D01*
X464516Y485689D01*
X464652Y484658D01*
X465050Y483697D01*
X465683Y482872D01*
X466508Y482239D01*
X467469Y481841D01*
X468500Y481705D01*
X469531Y481841D01*
X470492Y482239D01*
X471317Y482872D01*
X471950Y483697D01*
X472348Y484658D01*
X472484Y485689D01*
X472348Y486720D01*
X471950Y487681D01*
X471317Y488506D01*
X470492Y489139D01*
X469531Y489537D01*
X468500Y489673D01*
D02*
G37*
G36*
X458500Y484250D02*
X457469Y484115D01*
X456508Y483717D01*
X455683Y483084D01*
X455050Y482258D01*
X454652Y481297D01*
X454516Y480266D01*
X454652Y479235D01*
X455050Y478274D01*
X455683Y477449D01*
X456508Y476816D01*
X457469Y476418D01*
X458500Y476282D01*
X459531Y476418D01*
X460492Y476816D01*
X461317Y477449D01*
X461950Y478274D01*
X462348Y479235D01*
X462484Y480266D01*
X462348Y481297D01*
X461950Y482258D01*
X461317Y483084D01*
X460492Y483717D01*
X459531Y484115D01*
X458500Y484250D01*
D02*
G37*
G36*
X155000Y479082D02*
X154046Y478956D01*
X153158Y478588D01*
X152395Y478003D01*
X151809Y477240D01*
X151441Y476351D01*
X151316Y475398D01*
X151441Y474444D01*
X151809Y473556D01*
X152395Y472792D01*
X153158Y472207D01*
X154046Y471839D01*
X155000Y471713D01*
X155954Y471839D01*
X156842Y472207D01*
X157605Y472792D01*
X158191Y473556D01*
X158559Y474444D01*
X158684Y475398D01*
X158559Y476351D01*
X158191Y477240D01*
X157605Y478003D01*
X156842Y478588D01*
X155954Y478956D01*
X155000Y479082D01*
D02*
G37*
G36*
X145000D02*
X144046Y478956D01*
X143158Y478588D01*
X142395Y478003D01*
X141809Y477240D01*
X141441Y476351D01*
X141316Y475398D01*
X141441Y474444D01*
X141809Y473556D01*
X142395Y472792D01*
X143158Y472207D01*
X144046Y471839D01*
X145000Y471713D01*
X145954Y471839D01*
X146842Y472207D01*
X147605Y472792D01*
X148191Y473556D01*
X148559Y474444D01*
X148684Y475398D01*
X148559Y476351D01*
X148191Y477240D01*
X147605Y478003D01*
X146842Y478588D01*
X145954Y478956D01*
X145000Y479082D01*
D02*
G37*
G36*
X468500Y478807D02*
X467469Y478671D01*
X466508Y478273D01*
X465683Y477640D01*
X465050Y476815D01*
X464652Y475854D01*
X464516Y474823D01*
X464652Y473792D01*
X465050Y472831D01*
X465683Y472006D01*
X466508Y471373D01*
X467469Y470974D01*
X468500Y470839D01*
X469531Y470974D01*
X470492Y471373D01*
X471317Y472006D01*
X471950Y472831D01*
X472348Y473792D01*
X472484Y474823D01*
X472348Y475854D01*
X471950Y476815D01*
X471317Y477640D01*
X470492Y478273D01*
X469531Y478671D01*
X468500Y478807D01*
D02*
G37*
G36*
X448500D02*
X447469Y478671D01*
X446508Y478273D01*
X445683Y477640D01*
X445050Y476815D01*
X444652Y475854D01*
X444516Y474823D01*
X444652Y473792D01*
X445050Y472831D01*
X445683Y472006D01*
X446508Y471373D01*
X447469Y470974D01*
X448500Y470839D01*
X449531Y470974D01*
X450492Y471373D01*
X451317Y472006D01*
X451950Y472831D01*
X452348Y473792D01*
X452484Y474823D01*
X452348Y475854D01*
X451950Y476815D01*
X451317Y477640D01*
X450492Y478273D01*
X449531Y478671D01*
X448500Y478807D01*
D02*
G37*
G36*
X458500Y473387D02*
X457469Y473251D01*
X456508Y472853D01*
X455683Y472220D01*
X455050Y471395D01*
X454652Y470434D01*
X454516Y469403D01*
X454652Y468372D01*
X455050Y467411D01*
X455683Y466586D01*
X456508Y465953D01*
X457469Y465555D01*
X458500Y465419D01*
X459531Y465555D01*
X460492Y465953D01*
X461317Y466586D01*
X461950Y467411D01*
X462348Y468372D01*
X462484Y469403D01*
X462348Y470434D01*
X461950Y471395D01*
X461317Y472220D01*
X460492Y472853D01*
X459531Y473251D01*
X458500Y473387D01*
D02*
G37*
G36*
X155000Y469082D02*
X154046Y468956D01*
X153158Y468588D01*
X152395Y468003D01*
X151809Y467240D01*
X151441Y466351D01*
X151316Y465398D01*
X151441Y464444D01*
X151809Y463555D01*
X152395Y462792D01*
X153158Y462207D01*
X154046Y461839D01*
X155000Y461713D01*
X155954Y461839D01*
X156842Y462207D01*
X157605Y462792D01*
X158191Y463555D01*
X158559Y464444D01*
X158684Y465398D01*
X158559Y466351D01*
X158191Y467240D01*
X157605Y468003D01*
X156842Y468588D01*
X155954Y468956D01*
X155000Y469082D01*
D02*
G37*
G36*
X145000D02*
X144046Y468956D01*
X143158Y468588D01*
X142395Y468003D01*
X141809Y467240D01*
X141441Y466351D01*
X141316Y465398D01*
X141441Y464444D01*
X141809Y463555D01*
X142395Y462792D01*
X143158Y462207D01*
X144046Y461839D01*
X145000Y461713D01*
X145954Y461839D01*
X146842Y462207D01*
X147605Y462792D01*
X148191Y463555D01*
X148559Y464444D01*
X148684Y465398D01*
X148559Y466351D01*
X148191Y467240D01*
X147605Y468003D01*
X146842Y468588D01*
X145954Y468956D01*
X145000Y469082D01*
D02*
G37*
G36*
X468500Y467941D02*
X467469Y467805D01*
X466508Y467407D01*
X465683Y466774D01*
X465050Y465949D01*
X464652Y464988D01*
X464516Y463957D01*
X464652Y462925D01*
X465050Y461965D01*
X465683Y461139D01*
X466508Y460506D01*
X467469Y460108D01*
X468500Y459973D01*
X469531Y460108D01*
X470492Y460506D01*
X471317Y461139D01*
X471950Y461965D01*
X472348Y462925D01*
X472484Y463957D01*
X472348Y464988D01*
X471950Y465949D01*
X471317Y466774D01*
X470492Y467407D01*
X469531Y467805D01*
X468500Y467941D01*
D02*
G37*
G36*
X448500D02*
X447469Y467805D01*
X446508Y467407D01*
X445683Y466774D01*
X445050Y465949D01*
X444652Y464988D01*
X444516Y463957D01*
X444652Y462925D01*
X445050Y461965D01*
X445683Y461139D01*
X446508Y460506D01*
X447469Y460108D01*
X448500Y459973D01*
X449531Y460108D01*
X450492Y460506D01*
X451317Y461139D01*
X451950Y461965D01*
X452348Y462925D01*
X452484Y463957D01*
X452348Y464988D01*
X451950Y465949D01*
X451317Y466774D01*
X450492Y467407D01*
X449531Y467805D01*
X448500Y467941D01*
D02*
G37*
G36*
X155000Y459082D02*
X154046Y458956D01*
X153158Y458588D01*
X152395Y458003D01*
X151809Y457240D01*
X151441Y456351D01*
X151316Y455398D01*
X151441Y454444D01*
X151809Y453555D01*
X152395Y452793D01*
X153158Y452207D01*
X154046Y451839D01*
X155000Y451713D01*
X155954Y451839D01*
X156842Y452207D01*
X157605Y452793D01*
X158191Y453555D01*
X158559Y454444D01*
X158684Y455398D01*
X158559Y456351D01*
X158191Y457240D01*
X157605Y458003D01*
X156842Y458588D01*
X155954Y458956D01*
X155000Y459082D01*
D02*
G37*
G36*
X145000D02*
X144046Y458956D01*
X143158Y458588D01*
X142395Y458003D01*
X141809Y457240D01*
X141441Y456351D01*
X141316Y455398D01*
X141441Y454444D01*
X141809Y453555D01*
X142395Y452793D01*
X143158Y452207D01*
X144046Y451839D01*
X145000Y451713D01*
X145954Y451839D01*
X146842Y452207D01*
X147605Y452793D01*
X148191Y453555D01*
X148559Y454444D01*
X148684Y455398D01*
X148559Y456351D01*
X148191Y457240D01*
X147605Y458003D01*
X146842Y458588D01*
X145954Y458956D01*
X145000Y459082D01*
D02*
G37*
G36*
X155000Y449082D02*
X154046Y448956D01*
X153158Y448588D01*
X152395Y448003D01*
X151809Y447240D01*
X151441Y446351D01*
X151316Y445398D01*
X151441Y444444D01*
X151809Y443555D01*
X152395Y442793D01*
X153158Y442207D01*
X154046Y441839D01*
X155000Y441713D01*
X155954Y441839D01*
X156842Y442207D01*
X157605Y442793D01*
X158191Y443555D01*
X158559Y444444D01*
X158684Y445398D01*
X158559Y446351D01*
X158191Y447240D01*
X157605Y448003D01*
X156842Y448588D01*
X155954Y448956D01*
X155000Y449082D01*
D02*
G37*
G36*
X145000D02*
X144046Y448956D01*
X143158Y448588D01*
X142395Y448003D01*
X141809Y447240D01*
X141441Y446351D01*
X141316Y445398D01*
X141441Y444444D01*
X141809Y443555D01*
X142395Y442793D01*
X143158Y442207D01*
X144046Y441839D01*
X145000Y441713D01*
X145954Y441839D01*
X146842Y442207D01*
X147605Y442793D01*
X148191Y443555D01*
X148559Y444444D01*
X148684Y445398D01*
X148559Y446351D01*
X148191Y447240D01*
X147605Y448003D01*
X146842Y448588D01*
X145954Y448956D01*
X145000Y449082D01*
D02*
G37*
G36*
X119466Y446968D02*
X118358Y446822D01*
X117326Y446394D01*
X116439Y445714D01*
X115759Y444828D01*
X115332Y443796D01*
X115186Y442688D01*
X115332Y441580D01*
X115759Y440548D01*
X116439Y439662D01*
X117326Y438981D01*
X118358Y438554D01*
X119466Y438408D01*
X120574Y438554D01*
X121606Y438981D01*
X122492Y439662D01*
X123172Y440548D01*
X123600Y441580D01*
X123746Y442688D01*
X123600Y443796D01*
X123172Y444828D01*
X122492Y445714D01*
X121606Y446394D01*
X120574Y446822D01*
X119466Y446968D01*
D02*
G37*
G36*
X155000Y439082D02*
X154046Y438956D01*
X153158Y438588D01*
X152395Y438003D01*
X151809Y437240D01*
X151441Y436351D01*
X151316Y435398D01*
X151441Y434444D01*
X151809Y433556D01*
X152395Y432793D01*
X153158Y432207D01*
X154046Y431839D01*
X155000Y431713D01*
X155954Y431839D01*
X156842Y432207D01*
X157605Y432793D01*
X158191Y433556D01*
X158559Y434444D01*
X158684Y435398D01*
X158559Y436351D01*
X158191Y437240D01*
X157605Y438003D01*
X156842Y438588D01*
X155954Y438956D01*
X155000Y439082D01*
D02*
G37*
G36*
X145000D02*
X144046Y438956D01*
X143158Y438588D01*
X142395Y438003D01*
X141809Y437240D01*
X141441Y436351D01*
X141316Y435398D01*
X141441Y434444D01*
X141809Y433556D01*
X142395Y432793D01*
X143158Y432207D01*
X144046Y431839D01*
X145000Y431713D01*
X145954Y431839D01*
X146842Y432207D01*
X147605Y432793D01*
X148191Y433556D01*
X148559Y434444D01*
X148684Y435398D01*
X148559Y436351D01*
X148191Y437240D01*
X147605Y438003D01*
X146842Y438588D01*
X145954Y438956D01*
X145000Y439082D01*
D02*
G37*
G36*
X155000Y429082D02*
X154046Y428956D01*
X153158Y428588D01*
X152395Y428003D01*
X151809Y427240D01*
X151441Y426351D01*
X151316Y425398D01*
X151441Y424444D01*
X151809Y423556D01*
X152395Y422792D01*
X153158Y422207D01*
X154046Y421839D01*
X155000Y421713D01*
X155954Y421839D01*
X156842Y422207D01*
X157605Y422792D01*
X158191Y423556D01*
X158559Y424444D01*
X158684Y425398D01*
X158559Y426351D01*
X158191Y427240D01*
X157605Y428003D01*
X156842Y428588D01*
X155954Y428956D01*
X155000Y429082D01*
D02*
G37*
G36*
X145000D02*
X144046Y428956D01*
X143158Y428588D01*
X142395Y428003D01*
X141809Y427240D01*
X141441Y426351D01*
X141316Y425398D01*
X141441Y424444D01*
X141809Y423556D01*
X142395Y422792D01*
X143158Y422207D01*
X144046Y421839D01*
X145000Y421713D01*
X145954Y421839D01*
X146842Y422207D01*
X147605Y422792D01*
X148191Y423556D01*
X148559Y424444D01*
X148684Y425398D01*
X148559Y426351D01*
X148191Y427240D01*
X147605Y428003D01*
X146842Y428588D01*
X145954Y428956D01*
X145000Y429082D01*
D02*
G37*
G36*
X155000Y419082D02*
X154046Y418956D01*
X153158Y418588D01*
X152395Y418003D01*
X151809Y417240D01*
X151441Y416351D01*
X151316Y415398D01*
X151441Y414444D01*
X151809Y413555D01*
X152395Y412792D01*
X153158Y412207D01*
X154046Y411839D01*
X155000Y411713D01*
X155954Y411839D01*
X156842Y412207D01*
X157605Y412792D01*
X158191Y413555D01*
X158559Y414444D01*
X158684Y415398D01*
X158559Y416351D01*
X158191Y417240D01*
X157605Y418003D01*
X156842Y418588D01*
X155954Y418956D01*
X155000Y419082D01*
D02*
G37*
G36*
X145000D02*
X144046Y418956D01*
X143158Y418588D01*
X142395Y418003D01*
X141809Y417240D01*
X141441Y416351D01*
X141316Y415398D01*
X141441Y414444D01*
X141809Y413555D01*
X142395Y412792D01*
X143158Y412207D01*
X144046Y411839D01*
X145000Y411713D01*
X145954Y411839D01*
X146842Y412207D01*
X147605Y412792D01*
X148191Y413555D01*
X148559Y414444D01*
X148684Y415398D01*
X148559Y416351D01*
X148191Y417240D01*
X147605Y418003D01*
X146842Y418588D01*
X145954Y418956D01*
X145000Y419082D01*
D02*
G37*
G36*
X458500Y419069D02*
X457469Y418934D01*
X456508Y418536D01*
X455683Y417903D01*
X455050Y417077D01*
X454652Y416117D01*
X454516Y415085D01*
X454652Y414054D01*
X455050Y413093D01*
X455683Y412268D01*
X456508Y411635D01*
X457469Y411237D01*
X458500Y411101D01*
X459531Y411237D01*
X460492Y411635D01*
X461317Y412268D01*
X461950Y413093D01*
X462348Y414054D01*
X462484Y415085D01*
X462348Y416117D01*
X461950Y417077D01*
X461317Y417903D01*
X460492Y418536D01*
X459531Y418934D01*
X458500Y419069D01*
D02*
G37*
G36*
X468500Y413610D02*
X467469Y413474D01*
X466508Y413076D01*
X465683Y412443D01*
X465050Y411618D01*
X464652Y410657D01*
X464516Y409626D01*
X464652Y408595D01*
X465050Y407634D01*
X465683Y406809D01*
X466508Y406176D01*
X467469Y405778D01*
X468500Y405642D01*
X469531Y405778D01*
X470492Y406176D01*
X471317Y406809D01*
X471950Y407634D01*
X472348Y408595D01*
X472484Y409626D01*
X472348Y410657D01*
X471950Y411618D01*
X471317Y412443D01*
X470492Y413076D01*
X469531Y413474D01*
X468500Y413610D01*
D02*
G37*
G36*
X448500D02*
X447469Y413474D01*
X446508Y413076D01*
X445683Y412443D01*
X445050Y411618D01*
X444652Y410657D01*
X444516Y409626D01*
X444652Y408595D01*
X445050Y407634D01*
X445683Y406809D01*
X446508Y406176D01*
X447469Y405778D01*
X448500Y405642D01*
X449531Y405778D01*
X450492Y406176D01*
X451317Y406809D01*
X451950Y407634D01*
X452348Y408595D01*
X452484Y409626D01*
X452348Y410657D01*
X451950Y411618D01*
X451317Y412443D01*
X450492Y413076D01*
X449531Y413474D01*
X448500Y413610D01*
D02*
G37*
G36*
X155000Y409082D02*
X154046Y408956D01*
X153158Y408588D01*
X152395Y408003D01*
X151809Y407240D01*
X151441Y406351D01*
X151316Y405398D01*
X151441Y404444D01*
X151809Y403555D01*
X152395Y402793D01*
X153158Y402207D01*
X154046Y401839D01*
X155000Y401713D01*
X155954Y401839D01*
X156842Y402207D01*
X157605Y402793D01*
X158191Y403555D01*
X158559Y404444D01*
X158684Y405398D01*
X158559Y406351D01*
X158191Y407240D01*
X157605Y408003D01*
X156842Y408588D01*
X155954Y408956D01*
X155000Y409082D01*
D02*
G37*
G36*
X145000D02*
X144046Y408956D01*
X143158Y408588D01*
X142395Y408003D01*
X141809Y407240D01*
X141441Y406351D01*
X141316Y405398D01*
X141441Y404444D01*
X141809Y403555D01*
X142395Y402793D01*
X143158Y402207D01*
X144046Y401839D01*
X145000Y401713D01*
X145954Y401839D01*
X146842Y402207D01*
X147605Y402793D01*
X148191Y403555D01*
X148559Y404444D01*
X148684Y405398D01*
X148559Y406351D01*
X148191Y407240D01*
X147605Y408003D01*
X146842Y408588D01*
X145954Y408956D01*
X145000Y409082D01*
D02*
G37*
G36*
X458500Y408206D02*
X457469Y408070D01*
X456508Y407672D01*
X455683Y407039D01*
X455050Y406214D01*
X454652Y405253D01*
X454516Y404222D01*
X454652Y403191D01*
X455050Y402230D01*
X455683Y401405D01*
X456508Y400772D01*
X457469Y400374D01*
X458500Y400238D01*
X459531Y400374D01*
X460492Y400772D01*
X461317Y401405D01*
X461950Y402230D01*
X462348Y403191D01*
X462484Y404222D01*
X462348Y405253D01*
X461950Y406214D01*
X461317Y407039D01*
X460492Y407672D01*
X459531Y408070D01*
X458500Y408206D01*
D02*
G37*
G36*
X120125Y397255D02*
X114725D01*
Y395544D01*
X111948D01*
Y396126D01*
X107005D01*
Y390985D01*
X111948D01*
Y391567D01*
X114725D01*
Y389856D01*
X120125D01*
Y397255D01*
D02*
G37*
G36*
X468500Y402744D02*
X467469Y402608D01*
X466508Y402210D01*
X465683Y401577D01*
X465050Y400752D01*
X464652Y399791D01*
X464516Y398760D01*
X464652Y397729D01*
X465050Y396768D01*
X465683Y395943D01*
X466508Y395309D01*
X467469Y394912D01*
X468500Y394776D01*
X469531Y394912D01*
X470492Y395309D01*
X471317Y395943D01*
X471950Y396768D01*
X472348Y397729D01*
X472484Y398760D01*
X472348Y399791D01*
X471950Y400752D01*
X471317Y401577D01*
X470492Y402210D01*
X469531Y402608D01*
X468500Y402744D01*
D02*
G37*
G36*
X448500D02*
X447469Y402608D01*
X446508Y402210D01*
X445683Y401577D01*
X445050Y400752D01*
X444652Y399791D01*
X444516Y398760D01*
X444652Y397729D01*
X445050Y396768D01*
X445683Y395943D01*
X446508Y395309D01*
X447469Y394912D01*
X448500Y394776D01*
X449531Y394912D01*
X450492Y395309D01*
X451317Y395943D01*
X451950Y396768D01*
X452348Y397729D01*
X452484Y398760D01*
X452348Y399791D01*
X451950Y400752D01*
X451317Y401577D01*
X450492Y402210D01*
X449531Y402608D01*
X448500Y402744D01*
D02*
G37*
G36*
X155000Y399082D02*
X154046Y398956D01*
X153158Y398588D01*
X152395Y398003D01*
X151809Y397240D01*
X151441Y396351D01*
X151316Y395398D01*
X151441Y394444D01*
X151809Y393555D01*
X152395Y392793D01*
X153158Y392207D01*
X154046Y391839D01*
X155000Y391713D01*
X155954Y391839D01*
X156842Y392207D01*
X157605Y392793D01*
X158191Y393555D01*
X158559Y394444D01*
X158684Y395398D01*
X158559Y396351D01*
X158191Y397240D01*
X157605Y398003D01*
X156842Y398588D01*
X155954Y398956D01*
X155000Y399082D01*
D02*
G37*
G36*
X145000D02*
X144046Y398956D01*
X143158Y398588D01*
X142395Y398003D01*
X141809Y397240D01*
X141441Y396351D01*
X141316Y395398D01*
X141441Y394444D01*
X141809Y393555D01*
X142395Y392793D01*
X143158Y392207D01*
X144046Y391839D01*
X145000Y391713D01*
X145954Y391839D01*
X146842Y392207D01*
X147605Y392793D01*
X148191Y393555D01*
X148559Y394444D01*
X148684Y395398D01*
X148559Y396351D01*
X148191Y397240D01*
X147605Y398003D01*
X146842Y398588D01*
X145954Y398956D01*
X145000Y399082D01*
D02*
G37*
G36*
X103500Y405799D02*
X102642Y405628D01*
X101914Y405142D01*
X101428Y404414D01*
X101257Y403555D01*
X101386Y402907D01*
Y396126D01*
X100902D01*
Y390985D01*
X105846D01*
Y396126D01*
X105362D01*
Y402383D01*
X105572Y402697D01*
X105743Y403555D01*
X105572Y404414D01*
X105086Y405142D01*
X104358Y405628D01*
X103500Y405799D01*
D02*
G37*
G36*
X458500Y397342D02*
X457469Y397207D01*
X456508Y396809D01*
X455683Y396176D01*
X455050Y395350D01*
X454652Y394390D01*
X454516Y393358D01*
X454652Y392327D01*
X455050Y391366D01*
X455683Y390541D01*
X456508Y389908D01*
X457469Y389510D01*
X458500Y389374D01*
X459531Y389510D01*
X460492Y389908D01*
X461317Y390541D01*
X461950Y391366D01*
X462348Y392327D01*
X462484Y393358D01*
X462348Y394390D01*
X461950Y395350D01*
X461317Y396176D01*
X460492Y396809D01*
X459531Y397207D01*
X458500Y397342D01*
D02*
G37*
G36*
X468500Y391878D02*
X467469Y391742D01*
X466508Y391344D01*
X465683Y390711D01*
X465050Y389886D01*
X464652Y388925D01*
X464516Y387894D01*
X464652Y386862D01*
X465050Y385902D01*
X465683Y385076D01*
X466508Y384443D01*
X467469Y384045D01*
X468500Y383910D01*
X469531Y384045D01*
X470492Y384443D01*
X471317Y385076D01*
X471950Y385902D01*
X472348Y386862D01*
X472484Y387894D01*
X472348Y388925D01*
X471950Y389886D01*
X471317Y390711D01*
X470492Y391344D01*
X469531Y391742D01*
X468500Y391878D01*
D02*
G37*
G36*
X155000Y389082D02*
X154046Y388956D01*
X153158Y388588D01*
X152395Y388003D01*
X151809Y387240D01*
X151441Y386351D01*
X151316Y385398D01*
X151441Y384444D01*
X151809Y383556D01*
X152395Y382792D01*
X153158Y382207D01*
X154046Y381839D01*
X155000Y381713D01*
X155954Y381839D01*
X156842Y382207D01*
X157605Y382792D01*
X158191Y383556D01*
X158559Y384444D01*
X158684Y385398D01*
X158559Y386351D01*
X158191Y387240D01*
X157605Y388003D01*
X156842Y388588D01*
X155954Y388956D01*
X155000Y389082D01*
D02*
G37*
G36*
X145000D02*
X144046Y388956D01*
X143158Y388588D01*
X142395Y388003D01*
X141809Y387240D01*
X141441Y386351D01*
X141316Y385398D01*
X141441Y384444D01*
X141809Y383556D01*
X142395Y382792D01*
X143158Y382207D01*
X144046Y381839D01*
X145000Y381713D01*
X145954Y381839D01*
X146842Y382207D01*
X147605Y382792D01*
X148191Y383556D01*
X148559Y384444D01*
X148684Y385398D01*
X148559Y386351D01*
X148191Y387240D01*
X147605Y388003D01*
X146842Y388588D01*
X145954Y388956D01*
X145000Y389082D01*
D02*
G37*
G36*
X458500Y386479D02*
X457469Y386343D01*
X456508Y385945D01*
X455683Y385312D01*
X455050Y384487D01*
X454652Y383526D01*
X454516Y382495D01*
X454652Y381464D01*
X455050Y380503D01*
X455683Y379678D01*
X456508Y379045D01*
X457469Y378646D01*
X458500Y378511D01*
X459531Y378646D01*
X460492Y379045D01*
X461317Y379678D01*
X461950Y380503D01*
X462348Y381464D01*
X462484Y382495D01*
X462348Y383526D01*
X461950Y384487D01*
X461317Y385312D01*
X460492Y385945D01*
X459531Y386343D01*
X458500Y386479D01*
D02*
G37*
G36*
X468500Y381012D02*
X467469Y380876D01*
X466508Y380478D01*
X465683Y379845D01*
X465050Y379020D01*
X464652Y378059D01*
X464516Y377028D01*
X464652Y375996D01*
X465050Y375036D01*
X465683Y374210D01*
X466508Y373577D01*
X467469Y373179D01*
X468500Y373043D01*
X469531Y373179D01*
X470492Y373577D01*
X471317Y374210D01*
X471950Y375036D01*
X472348Y375996D01*
X472484Y377028D01*
X472348Y378059D01*
X471950Y379020D01*
X471317Y379845D01*
X470492Y380478D01*
X469531Y380876D01*
X468500Y381012D01*
D02*
G37*
G36*
X448500D02*
X447469Y380876D01*
X446508Y380478D01*
X445683Y379845D01*
X445050Y379020D01*
X444652Y378059D01*
X444516Y377028D01*
X444652Y375996D01*
X445050Y375036D01*
X445683Y374210D01*
X446508Y373577D01*
X447469Y373179D01*
X448500Y373043D01*
X449531Y373179D01*
X450492Y373577D01*
X451317Y374210D01*
X451950Y375036D01*
X452348Y375996D01*
X452484Y377028D01*
X452348Y378059D01*
X451950Y379020D01*
X451317Y379845D01*
X450492Y380478D01*
X449531Y380876D01*
X448500Y381012D01*
D02*
G37*
G36*
X155000Y379082D02*
X154046Y378956D01*
X153158Y378588D01*
X152395Y378003D01*
X151809Y377240D01*
X151441Y376351D01*
X151316Y375398D01*
X151441Y374444D01*
X151809Y373555D01*
X152395Y372793D01*
X153158Y372207D01*
X154046Y371839D01*
X155000Y371713D01*
X155954Y371839D01*
X156842Y372207D01*
X157605Y372793D01*
X158191Y373555D01*
X158559Y374444D01*
X158684Y375398D01*
X158559Y376351D01*
X158191Y377240D01*
X157605Y378003D01*
X156842Y378588D01*
X155954Y378956D01*
X155000Y379082D01*
D02*
G37*
G36*
X145000D02*
X144046Y378956D01*
X143158Y378588D01*
X142395Y378003D01*
X141809Y377240D01*
X141441Y376351D01*
X141316Y375398D01*
X141441Y374444D01*
X141809Y373555D01*
X142395Y372793D01*
X143158Y372207D01*
X144046Y371839D01*
X145000Y371713D01*
X145954Y371839D01*
X146842Y372207D01*
X147605Y372793D01*
X148191Y373555D01*
X148559Y374444D01*
X148684Y375398D01*
X148559Y376351D01*
X148191Y377240D01*
X147605Y378003D01*
X146842Y378588D01*
X145954Y378956D01*
X145000Y379082D01*
D02*
G37*
G36*
X155000Y369082D02*
X154046Y368956D01*
X153158Y368588D01*
X152395Y368003D01*
X151809Y367240D01*
X151441Y366351D01*
X151316Y365398D01*
X151441Y364444D01*
X151809Y363556D01*
X152395Y362792D01*
X153158Y362207D01*
X154046Y361839D01*
X155000Y361713D01*
X155954Y361839D01*
X156842Y362207D01*
X157605Y362792D01*
X158191Y363556D01*
X158559Y364444D01*
X158684Y365398D01*
X158559Y366351D01*
X158191Y367240D01*
X157605Y368003D01*
X156842Y368588D01*
X155954Y368956D01*
X155000Y369082D01*
D02*
G37*
G36*
X145000D02*
X144046Y368956D01*
X143158Y368588D01*
X142395Y368003D01*
X141809Y367240D01*
X141441Y366351D01*
X141316Y365398D01*
X141441Y364444D01*
X141809Y363556D01*
X142395Y362792D01*
X143158Y362207D01*
X144046Y361839D01*
X145000Y361713D01*
X145954Y361839D01*
X146842Y362207D01*
X147605Y362792D01*
X148191Y363556D01*
X148559Y364444D01*
X148684Y365398D01*
X148559Y366351D01*
X148191Y367240D01*
X147605Y368003D01*
X146842Y368588D01*
X145954Y368956D01*
X145000Y369082D01*
D02*
G37*
G36*
X155000Y359082D02*
X154046Y358956D01*
X153158Y358588D01*
X152395Y358003D01*
X151809Y357240D01*
X151441Y356351D01*
X151316Y355398D01*
X151441Y354444D01*
X151809Y353555D01*
X152395Y352793D01*
X153158Y352207D01*
X154046Y351839D01*
X155000Y351713D01*
X155954Y351839D01*
X156842Y352207D01*
X157605Y352793D01*
X158191Y353555D01*
X158559Y354444D01*
X158684Y355398D01*
X158559Y356351D01*
X158191Y357240D01*
X157605Y358003D01*
X156842Y358588D01*
X155954Y358956D01*
X155000Y359082D01*
D02*
G37*
G36*
X145000D02*
X144046Y358956D01*
X143158Y358588D01*
X142395Y358003D01*
X141809Y357240D01*
X141441Y356351D01*
X141316Y355398D01*
X141441Y354444D01*
X141809Y353555D01*
X142395Y352793D01*
X143158Y352207D01*
X144046Y351839D01*
X145000Y351713D01*
X145954Y351839D01*
X146842Y352207D01*
X147605Y352793D01*
X148191Y353555D01*
X148559Y354444D01*
X148684Y355398D01*
X148559Y356351D01*
X148191Y357240D01*
X147605Y358003D01*
X146842Y358588D01*
X145954Y358956D01*
X145000Y359082D01*
D02*
G37*
G36*
X155000Y349082D02*
X154046Y348956D01*
X153158Y348588D01*
X152395Y348003D01*
X151809Y347240D01*
X151441Y346351D01*
X151316Y345398D01*
X151441Y344444D01*
X151809Y343555D01*
X152395Y342793D01*
X153158Y342207D01*
X154046Y341839D01*
X155000Y341713D01*
X155954Y341839D01*
X156842Y342207D01*
X157605Y342793D01*
X158191Y343555D01*
X158559Y344444D01*
X158684Y345398D01*
X158559Y346351D01*
X158191Y347240D01*
X157605Y348003D01*
X156842Y348588D01*
X155954Y348956D01*
X155000Y349082D01*
D02*
G37*
G36*
X145000D02*
X144046Y348956D01*
X143158Y348588D01*
X142395Y348003D01*
X141809Y347240D01*
X141441Y346351D01*
X141316Y345398D01*
X141441Y344444D01*
X141809Y343555D01*
X142395Y342793D01*
X143158Y342207D01*
X144046Y341839D01*
X145000Y341713D01*
X145954Y341839D01*
X146842Y342207D01*
X147605Y342793D01*
X148191Y343555D01*
X148559Y344444D01*
X148684Y345398D01*
X148559Y346351D01*
X148191Y347240D01*
X147605Y348003D01*
X146842Y348588D01*
X145954Y348956D01*
X145000Y349082D01*
D02*
G37*
G36*
X426500Y332209D02*
X424703Y332032D01*
X422976Y331508D01*
X421384Y330657D01*
X419988Y329512D01*
X418843Y328116D01*
X417992Y326524D01*
X417468Y324797D01*
X417291Y323000D01*
X417468Y321203D01*
X417992Y319476D01*
X418843Y317884D01*
X419988Y316488D01*
X421384Y315343D01*
X422976Y314492D01*
X424703Y313968D01*
X426500Y313791D01*
X428297Y313968D01*
X430024Y314492D01*
X431616Y315343D01*
X433012Y316488D01*
X434157Y317884D01*
X435008Y319476D01*
X435532Y321203D01*
X435709Y323000D01*
X435532Y324797D01*
X435008Y326524D01*
X434157Y328116D01*
X433012Y329512D01*
X431616Y330657D01*
X430024Y331508D01*
X428297Y332032D01*
X426500Y332209D01*
D02*
G37*
G36*
X159500D02*
X157703Y332032D01*
X155976Y331508D01*
X154384Y330657D01*
X152988Y329512D01*
X151843Y328116D01*
X150992Y326524D01*
X150468Y324797D01*
X150291Y323000D01*
X150468Y321203D01*
X150992Y319476D01*
X151843Y317884D01*
X152988Y316488D01*
X154384Y315343D01*
X155976Y314492D01*
X157703Y313968D01*
X159500Y313791D01*
X161297Y313968D01*
X163024Y314492D01*
X164616Y315343D01*
X166012Y316488D01*
X167157Y317884D01*
X168008Y319476D01*
X168532Y321203D01*
X168709Y323000D01*
X168532Y324797D01*
X168008Y326524D01*
X167157Y328116D01*
X166012Y329512D01*
X164616Y330657D01*
X163024Y331508D01*
X161297Y332032D01*
X159500Y332209D01*
D02*
G37*
%LPD*%
D10*
X405500Y376300D02*
X406000Y376800D01*
X423886Y376086D02*
Y396114D01*
X422500Y397500D02*
X423886Y396114D01*
X416500Y397500D02*
X422500D01*
X91376Y501624D02*
Y558876D01*
X110400Y577900D01*
X91376Y501624D02*
X99764Y493236D01*
X89343Y385345D02*
X103800Y370888D01*
X89343Y596843D02*
X89343Y385345D01*
X89343Y596843D02*
X111500Y619000D01*
X490000Y513000D02*
X493000Y516000D01*
Y611500D01*
X485500Y619000D02*
X493000Y611500D01*
X111500Y619000D02*
X485500D01*
X91432Y375036D02*
X95085Y371383D01*
X95917D01*
X96500Y370800D01*
X239838Y592838D02*
X252000Y605000D01*
X103800Y370888D02*
X106500D01*
X96500Y356839D02*
Y366200D01*
X99764Y493236D02*
X129992D01*
X151223Y590805D02*
X196805D01*
X129992Y569575D02*
X151223Y590805D01*
X143100Y592838D02*
X195963D01*
X128163Y577900D02*
X143100Y592838D01*
X110400Y577900D02*
X128163D01*
X287750Y442979D02*
X288000Y443229D01*
X282800Y449886D02*
X288000Y455086D01*
X195963Y592838D02*
X239838Y592838D01*
X250805Y590805D02*
X257500Y597500D01*
X196805Y590805D02*
X250805Y590805D01*
X419000Y371200D02*
X423886Y376086D01*
X260000Y605000D02*
X267500Y597500D01*
X252000Y605000D02*
X260000D01*
X347255Y371000D02*
X357500Y381245D01*
X314745Y371000D02*
X347255D01*
X306000Y379745D02*
X314745Y371000D01*
X361786Y438286D02*
X372471Y448971D01*
X361786Y430145D02*
Y438286D01*
X354800Y423158D02*
X361786Y430145D01*
X372471Y448971D02*
Y457025D01*
X354800Y405200D02*
Y423158D01*
X271500Y404642D02*
X275642Y400500D01*
X288000Y492615D02*
X292700Y497315D01*
X282800Y497015D02*
X288000Y491815D01*
Y492615D01*
X267500Y394500D02*
X271500Y390500D01*
X267500Y556500D02*
X267500Y394500D01*
X257500Y566500D02*
X267500Y556500D01*
X271500Y562500D02*
X271500Y404642D01*
X267500Y566500D02*
X271500Y562500D01*
X303583Y435398D02*
X335000D01*
X301500Y433315D02*
X303583Y435398D01*
X401281Y476219D02*
X406500Y471000D01*
X415500D01*
X417500Y473000D01*
X354800Y405200D02*
X358000Y402000D01*
X366200D01*
X416000Y376066D02*
Y392000D01*
Y376066D02*
X416008Y376058D01*
X415750Y375800D02*
X416008Y376058D01*
X369551Y422500D02*
X380500D01*
X369000Y423051D02*
X369551Y422500D01*
X451185Y491000D02*
X455092Y494908D01*
Y498586D02*
X458500Y501994D01*
X455092Y494908D02*
Y498586D01*
X438815Y491000D02*
X451185D01*
X436315Y493500D02*
X438815Y491000D01*
X288000Y466643D02*
Y467043D01*
X282700Y461743D02*
X288000Y467043D01*
X316898Y465398D02*
X335000D01*
X309315Y457815D02*
X316898Y465398D01*
X296829Y457815D02*
X309315D01*
X419830Y493500D02*
X436315D01*
X417500Y491170D02*
X419830Y493500D01*
X385775Y388500D02*
X393000Y395725D01*
X384311Y388500D02*
X385775D01*
X380700Y384889D02*
X384311Y388500D01*
X390000Y437500D02*
X396000Y431500D01*
Y392189D02*
Y431500D01*
X388700Y384889D02*
X396000Y392189D01*
X388500Y432500D02*
X393000Y428000D01*
Y395725D02*
Y428000D01*
X389500Y396500D02*
Y425583D01*
X386000Y393000D02*
X389500Y396500D01*
X375500Y393000D02*
X386000D01*
X387583Y427500D02*
X389500Y425583D01*
X391500Y442500D02*
X399200Y434800D01*
Y387389D02*
Y434800D01*
X396900Y385089D02*
X399200Y387389D01*
X282800Y497015D02*
Y497315D01*
X288000Y466643D02*
X292900Y461743D01*
X288000Y467043D02*
Y467815D01*
Y455086D02*
Y455500D01*
Y454586D02*
Y455086D01*
Y442729D02*
X292700Y438029D01*
X288000Y443229D02*
Y444000D01*
Y442729D02*
Y443229D01*
X282800Y438029D02*
X287750Y442979D01*
X288000Y431072D02*
X292900Y426172D01*
X288000Y431472D02*
Y432000D01*
Y431072D02*
Y431472D01*
X282700Y426172D02*
X288000Y431472D01*
X282700Y414315D02*
Y414700D01*
X288000Y420000D01*
Y419215D02*
X292900Y414315D01*
X288000Y419215D02*
Y420000D01*
X275642Y400500D02*
X340102Y400500D01*
X345000Y405398D01*
X271500Y390500D02*
X340102Y390500D01*
X345000Y395398D01*
X417500Y473000D02*
Y491170D01*
X401275Y476219D02*
X401281D01*
X411000Y384000D02*
Y389000D01*
X406000Y376800D02*
Y386795D01*
X349500Y470315D02*
X352000Y467815D01*
Y458500D02*
Y467815D01*
Y458500D02*
X353475Y457025D01*
X357700D01*
Y463315D02*
Y471300D01*
X353602Y475398D02*
X357700Y471300D01*
X345000Y475398D02*
X353602D01*
X376617Y467500D02*
X393638D01*
X373921Y464805D02*
X376617Y467500D01*
X373921Y458475D02*
Y464805D01*
X372471Y457025D02*
X373921Y458475D01*
X362300Y457025D02*
X372471D01*
X362300Y463315D02*
X368771D01*
X401275Y475138D02*
Y476219D01*
X393638Y467500D02*
X401275Y475138D01*
X372738Y390238D02*
X375500Y393000D01*
X360000Y408000D02*
X366200D01*
X370800D02*
X371300Y407500D01*
X380500D01*
X380000Y402000D02*
X380500Y402500D01*
X370800Y402000D02*
X380000D01*
X340083Y470315D02*
X349500D01*
X335000Y475398D02*
X340083Y470315D01*
X339978Y480420D02*
X345000Y475398D01*
X297595Y480420D02*
X339978D01*
X334579Y474976D02*
X335000Y475398D01*
X311000Y474976D02*
X334579D01*
X309661Y476315D02*
X311000Y474976D01*
X295700Y476315D02*
X309661D01*
X292700Y473315D02*
X295700Y476315D01*
X282800Y473601D02*
X292414D01*
X292700Y473315D01*
X339984Y490413D02*
X345000Y485398D01*
X318402Y490413D02*
X339984D01*
X306668Y502147D02*
X318402Y490413D01*
X297532Y502147D02*
X306668D01*
X292700Y497315D02*
X297532Y502147D01*
X292700Y485315D02*
X297595Y480420D01*
X282800Y485458D02*
X282943Y485315D01*
X292700D01*
X380500Y427500D02*
X387583D01*
X297414Y433315D02*
X301500D01*
X339917Y460315D02*
X345000Y465398D01*
X325500Y460315D02*
X339917D01*
X319000Y453815D02*
X325500Y460315D01*
X296629Y453815D02*
X319000D01*
X292700Y449886D02*
X296629Y453815D01*
X292700Y438029D02*
X297414Y433315D01*
X288000Y454586D02*
X292700Y449886D01*
X297043Y430315D02*
X340083D01*
X292900Y426172D02*
X297043Y430315D01*
X340083D02*
X345000Y425398D01*
X340255Y410652D02*
X345000Y415398D01*
X296563Y410652D02*
X340255D01*
X292900Y461743D02*
X296829Y457815D01*
X292900Y414315D02*
X296563Y410652D01*
X412500Y366800D02*
Y371200D01*
X412000D02*
X412500D01*
X409500Y373700D02*
X412000Y371200D01*
X409500Y373700D02*
Y382500D01*
X411000Y384000D01*
X406000Y394000D02*
X411000Y389000D01*
X406000Y394000D02*
Y400500D01*
X408000Y402500D01*
X416500D01*
X406000Y407500D02*
X416500D01*
X401500Y403000D02*
X406000Y407500D01*
X401500Y374000D02*
Y403000D01*
Y374000D02*
X404300Y371200D01*
X406000D01*
X380500Y442500D02*
X391500D01*
X380500Y432500D02*
X388500D01*
X372700Y390238D02*
X372738D01*
X415750Y375800D02*
X419000D01*
X412500D02*
X415750D01*
X405500Y376300D02*
X406000Y375800D01*
X419000Y366800D02*
Y371200D01*
X406000Y366800D02*
Y371200D01*
X380500Y437500D02*
X390000D01*
X372700Y384889D02*
Y390238D01*
X396900Y371537D02*
Y378486D01*
X388700Y371837D02*
Y378786D01*
X372700Y371837D02*
X373000D01*
X380700D02*
Y378786D01*
X375699Y544169D02*
X376948Y545417D01*
X375699Y527666D02*
X376948Y526417D01*
X158684Y285498D02*
X162683D01*
X160684D01*
Y279500D01*
X165682D02*
X167681D01*
X168681Y280500D01*
Y282499D01*
X167681Y283499D01*
X165682D01*
X164682Y282499D01*
Y280500D01*
X165682Y279500D01*
X170680Y277501D02*
Y283499D01*
X173679D01*
X174679Y282499D01*
Y280500D01*
X173679Y279500D01*
X170680D01*
X182676Y285498D02*
Y279500D01*
X186675D01*
X189674Y283499D02*
X191674D01*
X192673Y282499D01*
Y279500D01*
X189674D01*
X188675Y280500D01*
X189674Y281499D01*
X192673D01*
X194673Y283499D02*
Y280500D01*
X195672Y279500D01*
X198671D01*
Y278500D01*
X197672Y277501D01*
X196672D01*
X198671Y279500D02*
Y283499D01*
X203670Y279500D02*
X201670D01*
X200671Y280500D01*
Y282499D01*
X201670Y283499D01*
X203670D01*
X204669Y282499D01*
Y281499D01*
X200671D01*
X206669Y283499D02*
Y279500D01*
Y281499D01*
X207668Y282499D01*
X208668Y283499D01*
X209668D01*
D15*
X447597Y513000D02*
X458357D01*
X441597Y507000D02*
X447597Y513000D01*
X438000Y507000D02*
X441597D01*
X433700Y540300D02*
X434500D01*
Y533843D02*
X437388Y530955D01*
X434500Y540300D02*
X437388D01*
X434500Y533843D02*
Y540300D01*
X419594Y588319D02*
Y588500D01*
Y579142D02*
Y588319D01*
X430360Y543640D02*
X433700Y540300D01*
X430360Y543640D02*
Y568376D01*
X444469Y507421D02*
X448500D01*
X437379Y505500D02*
X442548D01*
X444469Y507421D01*
X439753Y510770D02*
X440014Y511031D01*
X434819Y510928D02*
X442179Y518287D01*
X434445Y512674D02*
X445270Y523500D01*
X433521Y514174D02*
X448500Y529153D01*
X366717Y514174D02*
X433521D01*
X431887Y515674D02*
X444150Y527937D01*
X436451Y506428D02*
X437379Y505500D01*
X370038Y506428D02*
X436451D01*
X437072Y507928D02*
X438000Y507000D01*
X357237Y509428D02*
X435441D01*
X436783Y510770D01*
X439753D01*
X442179Y518287D02*
X448500D01*
X448500Y518287D01*
Y507421D02*
Y507421D01*
X445270Y523500D02*
X458500D01*
X370326Y515674D02*
X431887D01*
X361850Y512674D02*
X434445D01*
X357859Y510928D02*
X434819D01*
X369500Y505890D02*
X370038Y506428D01*
X369500Y481000D02*
Y505890D01*
X368928Y507928D02*
X437072D01*
X364500Y503500D02*
X368928Y507928D01*
X354568Y512139D02*
X355676Y511031D01*
X354568Y512139D02*
Y574932D01*
X355676Y510989D02*
Y511031D01*
Y510989D02*
X357237Y509428D01*
X364500Y488000D02*
Y503500D01*
X357176Y511610D02*
X357859Y510928D01*
X359784Y514740D02*
X361850Y512674D01*
X362392Y518499D02*
X366717Y514174D01*
X366000Y520000D02*
X370326Y515674D01*
X221500Y577000D02*
X352500Y577000D01*
X164815Y520315D02*
X221500Y577000D01*
X149917Y520315D02*
X164815D01*
X165197Y525398D02*
X209752Y569953D01*
X155000Y525398D02*
X165197D01*
X149917Y530315D02*
X166229D01*
X167426Y535398D02*
X217912Y585884D01*
X155000Y535398D02*
X167426D01*
X149447Y540315D02*
X168458D01*
X106500Y356839D02*
Y366288D01*
X357883Y588632D02*
X366000Y580515D01*
X352216Y588632D02*
X357883D01*
X145000Y515398D02*
X149917Y520315D01*
X145000Y525398D02*
X149917Y530315D01*
X145066Y535934D02*
X149447Y540315D01*
X376948Y526417D02*
X381169Y530638D01*
X383438D01*
X385800Y533000D01*
X376948Y545417D02*
X381003Y541362D01*
X383438D01*
X385800Y539000D01*
X402260Y468760D02*
X422260D01*
X422642Y469142D01*
X448592Y535398D02*
X462256D01*
X444150Y530955D02*
X448592Y535398D01*
X444150Y527937D02*
Y530955D01*
X416000Y561500D02*
X416500Y562000D01*
X416000Y553000D02*
Y561500D01*
X403500Y546000D02*
X414000D01*
X417000Y549000D01*
X425500D01*
X411000Y548000D02*
X416000Y553000D01*
X429261Y535107D02*
X429508Y535354D01*
X420500Y535107D02*
X429261D01*
X418500Y537107D02*
Y542000D01*
Y537107D02*
X420500Y535107D01*
X437388Y535700D02*
X443500Y541812D01*
Y559500D01*
X442000Y561000D02*
X443500Y559500D01*
X435500Y561000D02*
X442000D01*
X425500Y573236D02*
X430360Y568376D01*
X425500Y543961D02*
X429508Y539954D01*
X425500Y543961D02*
Y549000D01*
X419594Y579142D02*
X425500Y573236D01*
X429508Y539954D02*
X432000Y537461D01*
Y533607D02*
Y537461D01*
X429500Y531107D02*
X432000Y533607D01*
X407500Y548000D02*
X411000D01*
X462256Y535398D02*
X468500Y529153D01*
X458357Y513000D02*
X458500Y512857D01*
X352500Y577000D02*
X354568Y574932D01*
X373736Y552736D02*
Y561000D01*
X371000Y550000D02*
X373736Y552736D01*
X371000Y525500D02*
Y550000D01*
X383050Y552686D02*
X385500Y555136D01*
Y560917D01*
X421142Y475603D02*
X421581Y475164D01*
X422642Y469142D02*
Y476225D01*
X421142Y475603D02*
Y476225D01*
X396000Y462500D02*
X402260Y468760D01*
X422642Y487926D02*
X427500Y483068D01*
Y470000D02*
Y483068D01*
X424083Y466583D02*
X427500Y470000D01*
X406751Y466583D02*
X424083D01*
X345000Y505398D02*
X352500Y497898D01*
Y481000D02*
Y497898D01*
Y481000D02*
X357500Y476000D01*
X364500D01*
X358000Y488000D02*
X364500D01*
X356000Y490000D02*
X358000Y488000D01*
X356000Y490000D02*
Y504398D01*
X345000Y515398D02*
X356000Y504398D01*
X366000Y520000D02*
Y580515D01*
X209752Y569953D02*
X220188Y580389D01*
X168458Y540315D02*
X216774Y588632D01*
X166229Y530315D02*
X219050Y583137D01*
X216774Y588632D02*
X352216Y588632D01*
X219050Y583137D02*
X355142Y583137D01*
X356694Y585884D02*
X362392Y580186D01*
X355142Y583137D02*
X359784Y578495D01*
X353509Y580389D02*
X357176Y576722D01*
X362392Y518499D02*
Y580186D01*
X359784Y514740D02*
Y578495D01*
X220188Y580389D02*
X353509Y580389D01*
X364500Y476000D02*
X369500Y481000D01*
X217912Y585884D02*
X356694Y585884D01*
X380500Y462500D02*
X396000D01*
X397668Y457500D02*
X406751Y466583D01*
X380500Y457500D02*
X397668D01*
X357176Y511610D02*
Y576722D01*
X371000Y525500D02*
X373921Y522579D01*
X379212D01*
X383050Y526417D01*
X372700Y371837D02*
Y378786D01*
X406500Y549000D02*
X407500Y548000D01*
X406500Y549000D02*
Y556319D01*
X401500Y548000D02*
X403500Y546000D01*
X401500Y548000D02*
Y556319D01*
X390500Y531000D02*
X393181Y533681D01*
X390500Y527500D02*
Y531000D01*
X389417Y526417D02*
X390500Y527500D01*
X383050Y526417D02*
X389417D01*
X393181Y533681D02*
X396500D01*
X395000Y541500D02*
X410000D01*
X391083Y545417D02*
X395000Y541500D01*
X383050Y545417D02*
Y552686D01*
Y545417D02*
X391083D01*
X411500Y533681D02*
Y540000D01*
X410000Y541500D02*
X411500Y540000D01*
D18*
X320750Y555917D02*
D03*
X309750D02*
D03*
X310000Y540669D02*
D03*
X321000D02*
D03*
D19*
X125500Y369500D02*
D03*
X117500D02*
D03*
X125425Y383556D02*
D03*
X117425D02*
D03*
X125425Y393555D02*
D03*
X117425D02*
D03*
X408000Y522000D02*
D03*
X400000D02*
D03*
Y568000D02*
D03*
X408000D02*
D03*
D20*
X103374Y393555D02*
D03*
X109476D02*
D03*
X102976Y383055D02*
D03*
X109079D02*
D03*
X376948Y545417D02*
D03*
X383050D02*
D03*
X376948Y526417D02*
D03*
X383050D02*
D03*
D21*
X96500Y356839D02*
D03*
X106500D02*
D03*
X116500D02*
D03*
X126500D02*
D03*
X96500Y315343D02*
D03*
X106500D02*
D03*
X116500D02*
D03*
X126500D02*
D03*
D22*
X106500Y370888D02*
D03*
Y366288D02*
D03*
X96500Y366200D02*
D03*
Y370800D02*
D03*
X419000Y371200D02*
D03*
Y375800D02*
D03*
X412500Y371200D02*
D03*
Y375800D02*
D03*
X406000Y371200D02*
D03*
Y375800D02*
D03*
X419000Y362200D02*
D03*
Y366800D02*
D03*
X412500Y362200D02*
D03*
Y366800D02*
D03*
X406000Y362200D02*
D03*
Y366800D02*
D03*
X437388Y540300D02*
D03*
Y535700D02*
D03*
X437388Y531107D02*
D03*
Y526507D02*
D03*
X429500Y531107D02*
D03*
Y526507D02*
D03*
X429508Y535354D02*
D03*
Y539954D02*
D03*
D23*
X380500Y462500D02*
D03*
Y457500D02*
D03*
Y452500D02*
D03*
Y447500D02*
D03*
Y442500D02*
D03*
Y437500D02*
D03*
Y432500D02*
D03*
Y427500D02*
D03*
Y422500D02*
D03*
Y417500D02*
D03*
Y412500D02*
D03*
Y407500D02*
D03*
Y402500D02*
D03*
Y397500D02*
D03*
X416500D02*
D03*
Y402500D02*
D03*
Y407500D02*
D03*
Y412500D02*
D03*
Y417500D02*
D03*
Y422500D02*
D03*
Y427500D02*
D03*
Y432500D02*
D03*
Y437500D02*
D03*
Y442500D02*
D03*
Y447500D02*
D03*
Y452500D02*
D03*
Y457500D02*
D03*
Y462500D02*
D03*
D24*
X366200Y402000D02*
D03*
X370800D02*
D03*
X366200Y408000D02*
D03*
X370800D02*
D03*
X357700Y457025D02*
D03*
X362300D02*
D03*
Y463315D02*
D03*
X357700D02*
D03*
X297300Y485315D02*
D03*
X292700D02*
D03*
X282800Y485458D02*
D03*
X278200D02*
D03*
X297300Y473315D02*
D03*
X292700D02*
D03*
X282800Y473601D02*
D03*
X278200D02*
D03*
X278100Y461743D02*
D03*
X282700D02*
D03*
X292700Y497315D02*
D03*
X297300D02*
D03*
X292900Y461743D02*
D03*
X297500D02*
D03*
X278200Y438029D02*
D03*
X282800D02*
D03*
X292700Y438029D02*
D03*
X297300D02*
D03*
X292700Y449886D02*
D03*
X297300D02*
D03*
X292900Y426172D02*
D03*
X297500D02*
D03*
X292900Y414315D02*
D03*
X297500D02*
D03*
X278200Y497315D02*
D03*
X282800D02*
D03*
X278200Y449886D02*
D03*
X282800D02*
D03*
X278100Y426172D02*
D03*
X282700D02*
D03*
X278100Y414315D02*
D03*
X282700D02*
D03*
X385800Y539000D02*
D03*
X381200D02*
D03*
X385800Y533000D02*
D03*
X381200D02*
D03*
D25*
X396700Y363837D02*
D03*
Y371837D02*
D03*
X388700Y363837D02*
D03*
Y371837D02*
D03*
X380700Y363837D02*
D03*
Y371837D02*
D03*
X372700Y363837D02*
D03*
Y371837D02*
D03*
X420500Y535107D02*
D03*
Y527107D02*
D03*
D26*
X369000Y416949D02*
D03*
Y423051D02*
D03*
D27*
X396700Y384889D02*
D03*
Y378786D02*
D03*
X388700Y384889D02*
D03*
Y378786D02*
D03*
X380700Y384889D02*
D03*
Y378786D02*
D03*
X372700Y384889D02*
D03*
Y378786D02*
D03*
D28*
X411500Y556319D02*
D03*
X406500D02*
D03*
X401500D02*
D03*
X396500D02*
D03*
X411500Y533681D02*
D03*
X406500D02*
D03*
X401500D02*
D03*
X396500D02*
D03*
D53*
X414392Y499428D02*
X430142D01*
D54*
X442806Y387894D02*
X448500D01*
X425500Y405200D02*
X442806Y387894D01*
X290500Y523685D02*
Y550500D01*
Y523685D02*
X304000Y510185D01*
X290500Y550500D02*
X295917Y555917D01*
X309750D01*
X335000Y545398D02*
X345000D01*
X325728D02*
X335000D01*
X321000Y540669D02*
Y541669D01*
X321500Y542169D01*
X322500D01*
X325728Y545398D01*
X335000Y555398D02*
X345000D01*
X321250D02*
X335000D01*
X320750Y555898D02*
Y555917D01*
Y555898D02*
X321250Y555398D01*
X409000Y521000D02*
X414500D01*
X145000Y565398D02*
X155000D01*
Y579605D02*
X162500Y587105D01*
X432642Y437454D02*
Y476225D01*
X425500Y430312D02*
X432642Y437454D01*
X425500Y405200D02*
Y430312D01*
X155000Y565398D02*
Y579605D01*
X432642Y476225D02*
Y487926D01*
D55*
X304560Y510745D02*
X327000D01*
X304000Y510185D02*
X304560Y510745D01*
X250923Y506453D02*
X260500D01*
X243876Y513500D02*
X250923Y506453D01*
X231586Y467719D02*
X263500D01*
X408000Y522000D02*
X409000Y521000D01*
X408000Y522000D02*
Y523000D01*
X406500Y524500D02*
X408000Y523000D01*
X406500Y524500D02*
Y533681D01*
X466591Y594091D02*
X479693D01*
X452311Y588500D02*
X461000D01*
X399000Y567000D02*
Y568000D01*
X461000Y588500D02*
X466591Y594091D01*
X217401Y487026D02*
X243876Y513500D01*
X369000Y423051D02*
Y430312D01*
X408000Y568000D02*
Y578142D01*
X407642Y578500D02*
X408000Y578142D01*
X351500Y426572D02*
X356000Y431072D01*
X351500Y398500D02*
Y426572D01*
X391500Y522000D02*
X400000D01*
X362907Y363837D02*
X372700D01*
X351500Y398500D02*
X362907Y387093D01*
Y363837D02*
Y387093D01*
X429500Y526507D02*
X437388D01*
X421100D02*
X429500D01*
X420500Y527107D02*
X421100Y526507D01*
X396700Y363837D02*
X399200D01*
X388700D02*
X396700D01*
X380700D02*
X388700D01*
X372700D02*
X380700D01*
X400000Y522000D02*
X401500Y523500D01*
Y533681D01*
X396500Y564500D02*
X399000Y567000D01*
X396500Y556319D02*
Y564500D01*
X411500Y556319D02*
Y564500D01*
X408000Y568000D02*
X411500Y564500D01*
D56*
X95085Y429965D02*
X107808Y442688D01*
X95085Y390947D02*
Y429965D01*
Y390947D02*
X102356Y383676D01*
X94608Y521934D02*
X104079Y531405D01*
X118811D01*
X102356Y383676D02*
X102455D01*
X102976Y383154D01*
Y383055D02*
Y383154D01*
X103500Y403420D02*
Y403555D01*
X103374Y403294D02*
X103500Y403420D01*
X103374Y393555D02*
Y403294D01*
X126000Y357339D02*
Y369500D01*
X125500D02*
Y393481D01*
X105286Y376500D02*
X116035D01*
X117500Y375036D01*
Y369500D02*
Y375036D01*
X102976Y378810D02*
X105286Y376500D01*
X102976Y378810D02*
Y383055D01*
X125425Y393555D02*
X125500Y393481D01*
X109476Y393555D02*
X116925D01*
X116425Y383055D02*
X116925Y383556D01*
X109079Y383055D02*
X116425D01*
X116500Y356839D02*
X117500Y357839D01*
Y369500D01*
X126000Y357339D02*
X126500Y356839D01*
X381307Y593909D02*
Y594091D01*
Y582693D02*
Y593909D01*
X385417Y571000D02*
Y578583D01*
X381307Y582693D02*
X385417Y578583D01*
X374500Y482000D02*
Y488000D01*
Y476000D02*
Y482000D01*
X391000D01*
X391276Y481725D01*
Y476219D02*
Y481725D01*
X412642Y482000D02*
Y487926D01*
Y476225D02*
Y482000D01*
X391000Y487802D02*
X391276Y488078D01*
X391000Y482000D02*
Y487802D01*
Y482000D02*
X412642D01*
X397716Y610500D02*
X463283D01*
X381307Y594091D02*
X397716Y610500D01*
X463283D02*
X479693Y594091D01*
X397083Y570917D02*
X400000Y568000D01*
X385500Y570917D02*
X397083D01*
X385417Y571000D02*
X385500Y570917D01*
X373736Y571000D02*
X385417D01*
D57*
X277673Y506453D02*
X277900Y506226D01*
Y497315D02*
X278100Y497115D01*
X358629Y416949D02*
X369000D01*
X278100Y461743D02*
Y497115D01*
Y426172D02*
Y461743D01*
X144771Y315462D02*
X145000D01*
X141922Y352462D02*
X143238Y351145D01*
X146762D02*
X147972Y352355D01*
X143238Y351145D02*
X146762D01*
X147972Y352355D02*
X148759D01*
X277900Y497615D02*
Y506226D01*
Y497615D02*
X278200Y497315D01*
X277900Y506226D02*
X278000Y506126D01*
X359000Y417320D02*
Y417500D01*
X358629Y416949D02*
X359000Y417320D01*
X378434Y533000D02*
X381200D01*
X375500Y535934D02*
X378434Y533000D01*
X378566Y539000D02*
X381200D01*
X375500Y535934D02*
X378566Y539000D01*
X369000Y416949D02*
X369551Y417500D01*
X380500D01*
X297500Y485815D02*
X302000Y490315D01*
X297500Y497315D02*
X303500Y491815D01*
X298000Y461815D02*
X302500Y466315D01*
X298000Y473315D02*
X303500Y467815D01*
X298000Y438315D02*
X302500Y442815D01*
X298000Y449815D02*
X303500Y444315D01*
X297500Y425815D02*
Y426172D01*
Y425815D02*
X303500Y420315D01*
X297500Y414315D02*
X302000Y418815D01*
X297300Y414515D02*
X297500Y414315D01*
X278100Y414315D02*
Y426172D01*
X412500Y362200D02*
X419000D01*
X406000D02*
X412500D01*
D58*
X479693Y594091D02*
X480500Y593284D01*
X479500Y562500D02*
X480500Y561500D01*
X458500Y562500D02*
X479500D01*
X480500Y461500D02*
Y561500D01*
Y593284D01*
D59*
X421893Y520107D02*
X429261D01*
X420500Y521500D02*
X421893Y520107D01*
X420500Y521500D02*
Y527107D01*
X345000Y345398D02*
Y355398D01*
X335000Y345398D02*
Y355398D01*
X345000D01*
D60*
X426500Y323000D02*
D03*
X340000Y605000D02*
D03*
X159500Y323000D02*
D03*
X160500Y607000D02*
D03*
D61*
X458500Y562500D02*
D03*
Y321949D02*
D03*
D62*
X468500Y355295D02*
D03*
X448500D02*
D03*
X468500Y377028D02*
D03*
Y387894D02*
D03*
Y398760D02*
D03*
Y409626D02*
D03*
Y420492D02*
D03*
Y431358D02*
D03*
Y442224D02*
D03*
Y453090D02*
D03*
Y463957D02*
D03*
Y474823D02*
D03*
Y485689D02*
D03*
Y496555D02*
D03*
Y507421D02*
D03*
Y518287D02*
D03*
Y529153D02*
D03*
X458500Y360768D02*
D03*
Y371631D02*
D03*
Y382495D02*
D03*
Y393358D02*
D03*
Y404222D02*
D03*
Y415085D02*
D03*
Y425949D02*
D03*
Y436812D02*
D03*
Y447676D02*
D03*
Y458539D02*
D03*
Y469403D02*
D03*
Y480266D02*
D03*
Y491130D02*
D03*
Y501993D02*
D03*
Y512857D02*
D03*
Y523720D02*
D03*
X448500Y366161D02*
D03*
Y377028D02*
D03*
Y387894D02*
D03*
Y398760D02*
D03*
Y409626D02*
D03*
Y420492D02*
D03*
Y431358D02*
D03*
Y442224D02*
D03*
Y453090D02*
D03*
Y463957D02*
D03*
Y474823D02*
D03*
Y485689D02*
D03*
Y496555D02*
D03*
Y507421D02*
D03*
X468500Y366161D02*
D03*
X448500Y518287D02*
D03*
Y529153D02*
D03*
D63*
X335000Y345398D02*
D03*
X345000D02*
D03*
X335000Y355398D02*
D03*
X345000D02*
D03*
X335000Y365398D02*
D03*
X345000D02*
D03*
X335000Y375398D02*
D03*
X345000D02*
D03*
X335000Y385398D02*
D03*
X345000D02*
D03*
X335000Y395398D02*
D03*
X345000D02*
D03*
X335000Y405398D02*
D03*
X345000D02*
D03*
X335000Y415398D02*
D03*
X345000D02*
D03*
X335000Y425398D02*
D03*
X345000D02*
D03*
X335000Y435398D02*
D03*
X345000D02*
D03*
X335000Y445398D02*
D03*
X345000D02*
D03*
X335000Y455398D02*
D03*
X345000D02*
D03*
X335000Y465398D02*
D03*
X345000D02*
D03*
X335000Y475398D02*
D03*
X345000D02*
D03*
X335000Y485398D02*
D03*
X345000D02*
D03*
X335000Y495398D02*
D03*
X345000D02*
D03*
X335000Y505398D02*
D03*
X345000D02*
D03*
X335000Y515398D02*
D03*
X345000D02*
D03*
X335000Y525398D02*
D03*
X345000D02*
D03*
X335000Y535398D02*
D03*
X345000D02*
D03*
X335000Y545398D02*
D03*
X345000D02*
D03*
X335000Y555398D02*
D03*
X345000D02*
D03*
X335000Y565398D02*
D03*
X145000D02*
D03*
X155000Y555398D02*
D03*
X145000D02*
D03*
X155000Y545398D02*
D03*
X145000D02*
D03*
X155000Y535398D02*
D03*
X145000D02*
D03*
X155000Y525398D02*
D03*
X145000D02*
D03*
X155000Y515398D02*
D03*
X145000D02*
D03*
X155000Y505398D02*
D03*
X145000D02*
D03*
X155000Y495398D02*
D03*
X145000D02*
D03*
X155000Y485398D02*
D03*
X145000D02*
D03*
X155000Y475398D02*
D03*
X145000D02*
D03*
X155000Y465398D02*
D03*
X145000D02*
D03*
X155000Y455398D02*
D03*
X145000D02*
D03*
X155000Y445398D02*
D03*
X145000D02*
D03*
X155000Y435398D02*
D03*
X145000D02*
D03*
X155000Y425398D02*
D03*
X145000D02*
D03*
X155000Y415398D02*
D03*
X145000D02*
D03*
X155000Y405398D02*
D03*
X145000D02*
D03*
X155000Y395398D02*
D03*
X145000D02*
D03*
X155000Y385398D02*
D03*
X145000D02*
D03*
X155000Y375398D02*
D03*
X145000D02*
D03*
X155000Y365398D02*
D03*
X145000D02*
D03*
X155000Y355398D02*
D03*
X145000D02*
D03*
X155000Y345398D02*
D03*
X145000D02*
D03*
D64*
X345000Y565398D02*
D03*
X155000D02*
D03*
D65*
X129466Y442688D02*
D03*
X119466D02*
D03*
X97808D02*
D03*
X107808D02*
D03*
X432642Y476225D02*
D03*
X422642D02*
D03*
X412642D02*
D03*
X432642Y487926D02*
D03*
X422642D02*
D03*
X412642D02*
D03*
X401275Y488078D02*
D03*
X391276D02*
D03*
X401275Y476219D02*
D03*
X391276D02*
D03*
X364500Y476000D02*
D03*
X374500D02*
D03*
X425500Y561000D02*
D03*
X435500D02*
D03*
X425500Y573236D02*
D03*
X435500D02*
D03*
X425500Y549000D02*
D03*
X435500D02*
D03*
X373736Y561000D02*
D03*
Y571000D02*
D03*
X385500Y560917D02*
D03*
Y570917D02*
D03*
X374500Y488000D02*
D03*
X364500D02*
D03*
D66*
X479693Y593909D02*
D03*
X381307D02*
D03*
D67*
X408689Y588319D02*
D03*
D68*
X414142Y599500D02*
D03*
X419594Y588319D02*
D03*
X425047Y599500D02*
D03*
X430500Y588319D02*
D03*
X435953Y599500D02*
D03*
X441405Y588319D02*
D03*
X446858Y599500D02*
D03*
X452311Y588319D02*
D03*
D69*
X129992Y493236D02*
D03*
D70*
X118811Y498689D02*
D03*
X129992Y504142D02*
D03*
X118811Y509594D02*
D03*
X129992Y515047D02*
D03*
X118811Y520500D02*
D03*
X129992Y525953D02*
D03*
X118811Y531405D02*
D03*
X129992Y536858D02*
D03*
X118811Y542311D02*
D03*
X129992Y547764D02*
D03*
X118811Y553217D02*
D03*
X129992Y558669D02*
D03*
X118811Y564122D02*
D03*
X129992Y569575D02*
D03*
D71*
X124402Y465815D02*
D03*
Y596996D02*
D03*
D72*
X414392Y499428D02*
D03*
X430142D02*
D03*
X94608Y521934D02*
D03*
X103500Y403555D02*
D03*
X302000Y540917D02*
D03*
Y535398D02*
D03*
Y546000D02*
D03*
X490000Y513000D02*
D03*
X414500Y521000D02*
D03*
X91432Y375036D02*
D03*
D73*
X440014Y511031D02*
D03*
X277673Y506453D02*
D03*
X260500D02*
D03*
X263500Y467719D02*
D03*
X162500Y587105D02*
D03*
X257500Y597500D02*
D03*
X306000Y379745D02*
D03*
X369000Y430312D02*
D03*
X429261Y520107D02*
D03*
X407642Y578500D02*
D03*
X288000Y491815D02*
D03*
X278000Y467719D02*
D03*
X359000Y417500D02*
D03*
X425500Y405200D02*
D03*
X304000Y510185D02*
D03*
X327000Y510745D02*
D03*
X391500Y522000D02*
D03*
X356000Y431072D02*
D03*
X357500Y381245D02*
D03*
X416000Y392000D02*
D03*
X416500Y562000D02*
D03*
X418500Y542000D02*
D03*
X288000Y432000D02*
D03*
X267500Y597500D02*
D03*
Y566500D02*
D03*
X257500D02*
D03*
X288000Y467815D02*
D03*
Y420000D02*
D03*
Y444000D02*
D03*
Y455500D02*
D03*
X406000Y386795D02*
D03*
X360000Y408000D02*
D03*
X368771Y463315D02*
D03*
X303500Y491815D02*
D03*
Y467815D02*
D03*
Y444315D02*
D03*
Y420315D02*
D03*
X375500Y535934D02*
D03*
M02*
