G04*
G04 #@! TF.GenerationSoftware,Altium Limited,Altium Designer,19.0.12 (326)*
G04*
G04 Layer_Color=16711935*
%FSLAX25Y25*%
%MOIN*%
G70*
G01*
G75*
%ADD73C,0.00000*%
%ADD74C,0.00394*%
%ADD75C,0.00100*%
%ADD76C,0.00300*%
D73*
X397300Y465250D02*
G03*
X399700Y465250I1200J0D01*
G01*
D74*
X399669Y540669D02*
G03*
X399669Y540669I-1969J0D01*
G01*
X103276Y391981D02*
Y395130D01*
X109575Y391981D02*
Y395130D01*
X103276D02*
X109575D01*
X103276Y391981D02*
X109575D01*
X102878Y381481D02*
Y384630D01*
X109177Y381481D02*
Y384630D01*
X102878D02*
X109177D01*
X102878Y381481D02*
X109177D01*
X376850Y543843D02*
Y546992D01*
X383149Y543843D02*
Y546992D01*
X376850D02*
X383149D01*
X376850Y543843D02*
X383149D01*
X376850Y524843D02*
Y527992D01*
X383149Y524843D02*
Y527992D01*
X376850D02*
X383149D01*
X376850Y524843D02*
X383149D01*
X395125Y384987D02*
X398275D01*
X395125Y378688D02*
X398275D01*
Y384987D01*
X395125Y378688D02*
Y384987D01*
X387125D02*
X390275D01*
X387125Y378688D02*
X390275D01*
Y384987D01*
X387125Y378688D02*
Y384987D01*
X379125D02*
X382275D01*
X379125Y378688D02*
X382275D01*
Y384987D01*
X379125Y378688D02*
Y384987D01*
X371125D02*
X374275D01*
X371125Y378688D02*
X374275D01*
Y384987D01*
X371125Y378688D02*
Y384987D01*
X413842Y537126D02*
Y552874D01*
X394158Y537126D02*
Y552874D01*
X413842D01*
X394158Y537126D02*
X413842D01*
D75*
X383750Y461500D02*
Y463500D01*
X378200D02*
X383750D01*
X378200Y461500D02*
Y463500D01*
Y461500D02*
X383750D01*
Y456500D02*
Y458500D01*
X378200D02*
X383750D01*
X378200Y456500D02*
Y458500D01*
Y456500D02*
X383750D01*
Y451500D02*
Y453500D01*
X378200D02*
X383750D01*
X378200Y451500D02*
Y453500D01*
Y451500D02*
X383750D01*
Y446500D02*
Y448500D01*
X378200D02*
X383750D01*
X378200Y446500D02*
Y448500D01*
Y446500D02*
X383750D01*
Y441500D02*
Y443500D01*
X378200D02*
X383750D01*
X378200Y441500D02*
Y443500D01*
Y441500D02*
X383750D01*
Y436500D02*
Y438500D01*
X378200D02*
X383750D01*
X378200Y436500D02*
Y438500D01*
Y436500D02*
X383750D01*
Y431500D02*
Y433500D01*
X378200D02*
X383750D01*
X378200Y431500D02*
Y433500D01*
Y431500D02*
X383750D01*
Y426500D02*
Y428500D01*
X378200D02*
X383750D01*
X378200Y426500D02*
Y428500D01*
Y426500D02*
X383750D01*
Y421500D02*
Y423500D01*
X378200D02*
X383750D01*
X378200Y421500D02*
Y423500D01*
Y421500D02*
X383750D01*
Y416500D02*
Y418500D01*
X378200D02*
X383750D01*
X378200Y416500D02*
Y418500D01*
Y416500D02*
X383750D01*
Y411500D02*
Y413500D01*
X378200D02*
X383750D01*
X378200Y411500D02*
Y413500D01*
Y411500D02*
X383750D01*
Y406500D02*
Y408500D01*
X378200D02*
X383750D01*
X378200Y406500D02*
Y408500D01*
Y406500D02*
X383750D01*
Y401500D02*
Y403500D01*
X378200D02*
X383750D01*
X378200Y401500D02*
Y403500D01*
Y401500D02*
X383750D01*
Y396500D02*
Y398500D01*
X378200D02*
X383750D01*
X378200Y396500D02*
Y398500D01*
Y396500D02*
X383750D01*
X413250D02*
Y398500D01*
Y396500D02*
X418800D01*
Y398500D01*
X413250D02*
X418800D01*
X413250Y401500D02*
Y403500D01*
Y401500D02*
X418800D01*
Y403500D01*
X413250D02*
X418800D01*
X413250Y406500D02*
Y408500D01*
Y406500D02*
X418800D01*
Y408500D01*
X413250D02*
X418800D01*
X413250Y411500D02*
Y413500D01*
Y411500D02*
X418800D01*
Y413500D01*
X413250D02*
X418800D01*
X413250Y416500D02*
Y418500D01*
Y416500D02*
X418800D01*
Y418500D01*
X413250D02*
X418800D01*
X413250Y421500D02*
Y423500D01*
Y421500D02*
X418800D01*
Y423500D01*
X413250D02*
X418800D01*
X413250Y426500D02*
Y428500D01*
Y426500D02*
X418800D01*
Y428500D01*
X413250D02*
X418800D01*
X413250Y431500D02*
Y433500D01*
Y431500D02*
X418800D01*
Y433500D01*
X413250D02*
X418800D01*
X413250Y436500D02*
Y438500D01*
Y436500D02*
X418800D01*
Y438500D01*
X413250D02*
X418800D01*
X413250Y441500D02*
Y443500D01*
Y441500D02*
X418800D01*
Y443500D01*
X413250D02*
X418800D01*
X413250Y446500D02*
Y448500D01*
Y446500D02*
X418800D01*
Y448500D01*
X413250D02*
X418800D01*
X413250Y451500D02*
Y453500D01*
Y451500D02*
X418800D01*
Y453500D01*
X413250D02*
X418800D01*
X413250Y456500D02*
Y458500D01*
Y456500D02*
X418800D01*
Y458500D01*
X413250D02*
X418800D01*
X413250Y461500D02*
Y463500D01*
Y461500D02*
X418800D01*
Y463500D01*
X413250D02*
X418800D01*
X383750Y394750D02*
X413250D01*
Y465250D01*
X383750D02*
X413250D01*
X383750Y394750D02*
Y465250D01*
D76*
X384000Y464115D02*
X387332Y460783D01*
X384000D02*
X387332Y464115D01*
X384000Y462449D02*
X387332D01*
X385666Y460783D02*
Y464115D01*
M02*
