G04*
G04 #@! TF.GenerationSoftware,Altium Limited,Altium Designer,19.0.12 (326)*
G04*
G04 Layer_Color=32768*
%FSLAX25Y25*%
%MOIN*%
G70*
G01*
G75*
%ADD16C,0.00600*%
%ADD75C,0.00394*%
%ADD78C,0.00197*%
G36*
X381750Y394300D02*
X374000D01*
Y465700D01*
X381750D01*
Y467250D01*
X415250D01*
Y465700D01*
X423000D01*
Y394300D01*
X415250D01*
Y392750D01*
X381750D01*
Y394300D01*
D02*
G37*
D16*
X374000D02*
Y465700D01*
X381750D01*
Y467250D01*
X415250D01*
Y465700D02*
Y467250D01*
Y465700D02*
X423000D01*
Y394300D02*
Y465700D01*
X415250Y394300D02*
X423000D01*
X415250Y392750D02*
Y394300D01*
X381750Y392750D02*
X415250D01*
X381750D02*
Y394300D01*
X374000D02*
X381750D01*
D75*
X104850Y393555D02*
X108000D01*
X106425Y391981D02*
Y395130D01*
X104453Y383055D02*
X107602D01*
X106027Y381481D02*
Y384630D01*
X378424Y545417D02*
X381574D01*
X379999Y543843D02*
Y546992D01*
X378424Y526417D02*
X381574D01*
X379999Y524843D02*
Y527992D01*
X396700Y380263D02*
Y383412D01*
X395125Y381837D02*
X398275D01*
X388700Y380263D02*
Y383412D01*
X387125Y381837D02*
X390275D01*
X380700Y380263D02*
Y383412D01*
X379125Y381837D02*
X382275D01*
X372700Y380263D02*
Y383412D01*
X371125Y381837D02*
X374275D01*
X402032Y545000D02*
X405969D01*
X404000Y543032D02*
Y546969D01*
D78*
X100520Y390603D02*
Y396508D01*
X112331Y390603D02*
Y396508D01*
X100520D02*
X112331D01*
X100520Y390603D02*
X112331D01*
X100122Y380103D02*
Y386008D01*
X111933Y380103D02*
Y386008D01*
X100122D02*
X111933D01*
X100122Y380103D02*
X111933D01*
X374094Y542464D02*
Y548370D01*
X385905Y542464D02*
Y548370D01*
X374094D02*
X385905D01*
X374094Y542464D02*
X385905D01*
X374094Y523464D02*
Y529370D01*
X385905Y523464D02*
Y529370D01*
X374094D02*
X385905D01*
X374094Y523464D02*
X385905D01*
X393747Y387743D02*
X399653D01*
X393747Y375932D02*
X399653D01*
Y387743D01*
X393747Y375932D02*
Y387743D01*
X385747D02*
X391653D01*
X385747Y375932D02*
X391653D01*
Y387743D01*
X385747Y375932D02*
Y387743D01*
X377747D02*
X383653D01*
X377747Y375932D02*
X383653D01*
Y387743D01*
X377747Y375932D02*
Y387743D01*
X369747D02*
X375653D01*
X369747Y375932D02*
X375653D01*
Y387743D01*
X369747Y375932D02*
Y387743D01*
X414827Y529252D02*
Y560748D01*
X393173Y529252D02*
Y560748D01*
X414827D01*
X393173Y529252D02*
X414827D01*
M02*
