G04*
G04 #@! TF.GenerationSoftware,Altium Limited,Altium Designer,18.1.9 (240)*
G04*
G04 Layer_Color=32768*
%FSLAX25Y25*%
%MOIN*%
G70*
G01*
G75*
%ADD16C,0.00600*%
%ADD73C,0.00394*%
%ADD77C,0.00197*%
G36*
X381750Y394300D02*
X374000D01*
Y465700D01*
X381750D01*
Y467250D01*
X415250D01*
Y465700D01*
X423000D01*
Y394300D01*
X415250D01*
Y392750D01*
X381750D01*
Y394300D01*
D02*
G37*
D16*
X374000D02*
Y465700D01*
X381750D01*
Y467250D01*
X415250D01*
Y465700D02*
Y467250D01*
Y465700D02*
X423000D01*
Y394300D02*
Y465700D01*
X415250Y394300D02*
X423000D01*
X415250Y392750D02*
Y394300D01*
X381750Y392750D02*
X415250D01*
X381750D02*
Y394300D01*
X374000D02*
X381750D01*
D73*
X127063Y367000D02*
X131000D01*
X129032Y365032D02*
Y368969D01*
X101342Y369531D02*
Y373468D01*
X99374Y371500D02*
X103311D01*
X110531Y331075D02*
X114469D01*
X112500Y329106D02*
Y333043D01*
X378424Y545417D02*
X381574D01*
X379999Y543843D02*
Y546992D01*
X378424Y526417D02*
X381574D01*
X379999Y524843D02*
Y527992D01*
X396700Y380263D02*
Y383412D01*
X395125Y381837D02*
X398275D01*
X388700Y380263D02*
Y383412D01*
X387125Y381837D02*
X390275D01*
X380700Y380263D02*
Y383412D01*
X379125Y381837D02*
X382275D01*
X372700Y380263D02*
Y383412D01*
X371125Y381837D02*
X374275D01*
X402032Y545000D02*
X405969D01*
X404000Y543032D02*
Y546969D01*
D77*
X137299Y360110D02*
Y373890D01*
X120764Y360110D02*
Y373890D01*
Y360110D02*
X137299D01*
X120764Y373890D02*
X137299D01*
X94453Y383803D02*
X108232D01*
X94453Y359197D02*
X108232D01*
Y383803D01*
X94453Y359197D02*
Y383803D01*
X123524Y316409D02*
Y345740D01*
X101476Y316409D02*
Y345740D01*
X123524D01*
X101476Y316409D02*
X123524D01*
X374094Y542464D02*
Y548370D01*
X385905Y542464D02*
Y548370D01*
X374094D02*
X385905D01*
X374094Y542464D02*
X385905D01*
X374094Y523464D02*
Y529370D01*
X385905Y523464D02*
Y529370D01*
X374094D02*
X385905D01*
X374094Y523464D02*
X385905D01*
X393747Y387743D02*
X399653D01*
X393747Y375932D02*
X399653D01*
Y387743D01*
X393747Y375932D02*
Y387743D01*
X385747D02*
X391653D01*
X385747Y375932D02*
X391653D01*
Y387743D01*
X385747Y375932D02*
Y387743D01*
X377747D02*
X383653D01*
X377747Y375932D02*
X383653D01*
Y387743D01*
X377747Y375932D02*
Y387743D01*
X369747D02*
X375653D01*
X369747Y375932D02*
X375653D01*
Y387743D01*
X369747Y375932D02*
Y387743D01*
X414827Y529252D02*
Y560748D01*
X393173Y529252D02*
Y560748D01*
X414827D01*
X393173Y529252D02*
X414827D01*
M02*
