G04*
G04 #@! TF.GenerationSoftware,Altium Limited,Altium Designer,18.1.9 (240)*
G04*
G04 Layer_Color=255*
%FSLAX25Y25*%
%MOIN*%
G70*
G01*
G75*
%ADD18R,0.02165X0.02165*%
%ADD19R,0.06000X0.04000*%
%ADD20R,0.03543X0.01968*%
%ADD21R,0.02165X0.02165*%
%ADD22R,0.01378X0.05512*%
%ADD23R,0.04000X0.06000*%
%ADD24R,0.02362X0.05709*%
%ADD25R,0.03543X0.03740*%
%ADD26R,0.09000X0.02400*%
%ADD27R,0.03347X0.03347*%
%ADD28R,0.03740X0.03543*%
%ADD29O,0.02362X0.06890*%
%ADD60C,0.16929*%
%ADD61C,0.13800*%
%ADD62C,0.06500*%
%ADD63C,0.05906*%
%ADD64R,0.05906X0.05906*%
%ADD65C,0.07087*%
%ADD66C,0.18740*%
%ADD67R,0.06653X0.06653*%
%ADD68C,0.06653*%
%ADD69R,0.06653X0.06653*%
%ADD70C,0.06653*%
%ADD71C,0.18898*%
D18*
X96200Y387240D02*
D03*
X100800D02*
D03*
X132304Y354236D02*
D03*
X127704D02*
D03*
X366200Y402000D02*
D03*
X370800D02*
D03*
X366200Y408000D02*
D03*
X370800D02*
D03*
X357700Y457025D02*
D03*
X362300D02*
D03*
Y463315D02*
D03*
X357700D02*
D03*
X297300Y485315D02*
D03*
X292700D02*
D03*
X282800Y485458D02*
D03*
X278200D02*
D03*
X297300Y473315D02*
D03*
X292700D02*
D03*
X282800Y473601D02*
D03*
X278200D02*
D03*
X278100Y461743D02*
D03*
X282700D02*
D03*
X292700Y497315D02*
D03*
X297300D02*
D03*
X292900Y461743D02*
D03*
X297500D02*
D03*
X278200Y438029D02*
D03*
X282800D02*
D03*
X292700Y438029D02*
D03*
X297300D02*
D03*
X292700Y449886D02*
D03*
X297300D02*
D03*
X292900Y426172D02*
D03*
X297500D02*
D03*
X292900Y414315D02*
D03*
X297500D02*
D03*
X278200Y497315D02*
D03*
X282800D02*
D03*
X278200Y449886D02*
D03*
X282800D02*
D03*
X278100Y426172D02*
D03*
X282700D02*
D03*
X278100Y414315D02*
D03*
X282700D02*
D03*
X385800Y539000D02*
D03*
X381200D02*
D03*
X385800Y533000D02*
D03*
X381200D02*
D03*
D19*
X114407Y375003D02*
D03*
Y367003D02*
D03*
X95000Y322500D02*
D03*
Y330500D02*
D03*
X396700Y363837D02*
D03*
Y371837D02*
D03*
X388700Y363837D02*
D03*
Y371837D02*
D03*
X380700Y363837D02*
D03*
Y371837D02*
D03*
X372700Y363837D02*
D03*
Y371837D02*
D03*
X420500Y535107D02*
D03*
Y527107D02*
D03*
D20*
X132968Y363260D02*
D03*
Y367000D02*
D03*
Y370740D02*
D03*
X125094D02*
D03*
Y367000D02*
D03*
Y363260D02*
D03*
D21*
X91031Y369700D02*
D03*
Y374300D02*
D03*
X100170Y351033D02*
D03*
Y355633D02*
D03*
X93000Y348600D02*
D03*
Y353200D02*
D03*
X107000Y351033D02*
D03*
Y355633D02*
D03*
X419000Y371200D02*
D03*
Y375800D02*
D03*
X412500Y371200D02*
D03*
Y375800D02*
D03*
X406000Y371200D02*
D03*
Y375800D02*
D03*
X419000Y362200D02*
D03*
Y366800D02*
D03*
X412500Y362200D02*
D03*
Y366800D02*
D03*
X406000Y362200D02*
D03*
Y366800D02*
D03*
X437388Y540300D02*
D03*
Y535700D02*
D03*
X437388Y531107D02*
D03*
Y526507D02*
D03*
X429500Y531107D02*
D03*
Y526507D02*
D03*
X429508Y535354D02*
D03*
Y539954D02*
D03*
D22*
X105181Y380161D02*
D03*
X102622D02*
D03*
X100063D02*
D03*
X97504D02*
D03*
X105181Y362839D02*
D03*
X102622D02*
D03*
X100063D02*
D03*
X97504D02*
D03*
D23*
X135000Y380272D02*
D03*
X127000D02*
D03*
X408000Y522000D02*
D03*
X400000D02*
D03*
Y568000D02*
D03*
X408000D02*
D03*
D24*
X120000Y342000D02*
D03*
X115000D02*
D03*
X110000D02*
D03*
X105000D02*
D03*
X120000Y320150D02*
D03*
X115000D02*
D03*
X110000D02*
D03*
X105000D02*
D03*
D25*
X376948Y545417D02*
D03*
X383050D02*
D03*
X376948Y526417D02*
D03*
X383050D02*
D03*
D26*
X380500Y462500D02*
D03*
Y457500D02*
D03*
Y452500D02*
D03*
Y447500D02*
D03*
Y442500D02*
D03*
Y437500D02*
D03*
Y432500D02*
D03*
Y427500D02*
D03*
Y422500D02*
D03*
Y417500D02*
D03*
Y412500D02*
D03*
Y407500D02*
D03*
Y402500D02*
D03*
Y397500D02*
D03*
X416500D02*
D03*
Y402500D02*
D03*
Y407500D02*
D03*
Y412500D02*
D03*
Y417500D02*
D03*
Y422500D02*
D03*
Y427500D02*
D03*
Y432500D02*
D03*
Y437500D02*
D03*
Y442500D02*
D03*
Y447500D02*
D03*
Y452500D02*
D03*
Y457500D02*
D03*
Y462500D02*
D03*
D27*
X369000Y416949D02*
D03*
Y423051D02*
D03*
D28*
X396700Y384889D02*
D03*
Y378786D02*
D03*
X388700Y384889D02*
D03*
Y378786D02*
D03*
X380700Y384889D02*
D03*
Y378786D02*
D03*
X372700Y384889D02*
D03*
Y378786D02*
D03*
D29*
X411500Y556319D02*
D03*
X406500D02*
D03*
X401500D02*
D03*
X396500D02*
D03*
X411500Y533681D02*
D03*
X406500D02*
D03*
X401500D02*
D03*
X396500D02*
D03*
D60*
X426500Y323000D02*
D03*
X340000Y605000D02*
D03*
X159500Y323000D02*
D03*
X160500Y607000D02*
D03*
D61*
X458500Y562500D02*
D03*
Y321949D02*
D03*
D62*
X468500Y355295D02*
D03*
X448500D02*
D03*
X468500Y377028D02*
D03*
Y387894D02*
D03*
Y398760D02*
D03*
Y409626D02*
D03*
Y420492D02*
D03*
Y431358D02*
D03*
Y442224D02*
D03*
Y453090D02*
D03*
Y463957D02*
D03*
Y474823D02*
D03*
Y485689D02*
D03*
Y496555D02*
D03*
Y507421D02*
D03*
Y518287D02*
D03*
Y529153D02*
D03*
X458500Y360768D02*
D03*
Y371631D02*
D03*
Y382495D02*
D03*
Y393358D02*
D03*
Y404222D02*
D03*
Y415085D02*
D03*
Y425949D02*
D03*
Y436812D02*
D03*
Y447676D02*
D03*
Y458539D02*
D03*
Y469403D02*
D03*
Y480266D02*
D03*
Y491130D02*
D03*
Y501993D02*
D03*
Y512857D02*
D03*
Y523720D02*
D03*
X448500Y366161D02*
D03*
Y377028D02*
D03*
Y387894D02*
D03*
Y398760D02*
D03*
Y409626D02*
D03*
Y420492D02*
D03*
Y431358D02*
D03*
Y442224D02*
D03*
Y453090D02*
D03*
Y463957D02*
D03*
Y474823D02*
D03*
Y485689D02*
D03*
Y496555D02*
D03*
Y507421D02*
D03*
X468500Y366161D02*
D03*
X448500Y518287D02*
D03*
Y529153D02*
D03*
D63*
X335000Y345398D02*
D03*
X345000D02*
D03*
X335000Y355398D02*
D03*
X345000D02*
D03*
X335000Y365398D02*
D03*
X345000D02*
D03*
X335000Y375398D02*
D03*
X345000D02*
D03*
X335000Y385398D02*
D03*
X345000D02*
D03*
X335000Y395398D02*
D03*
X345000D02*
D03*
X335000Y405398D02*
D03*
X345000D02*
D03*
X335000Y415398D02*
D03*
X345000D02*
D03*
X335000Y425398D02*
D03*
X345000D02*
D03*
X335000Y435398D02*
D03*
X345000D02*
D03*
X335000Y445398D02*
D03*
X345000D02*
D03*
X335000Y455398D02*
D03*
X345000D02*
D03*
X335000Y465398D02*
D03*
X345000D02*
D03*
X335000Y475398D02*
D03*
X345000D02*
D03*
X335000Y485398D02*
D03*
X345000D02*
D03*
X335000Y495398D02*
D03*
X345000D02*
D03*
X335000Y505398D02*
D03*
X345000D02*
D03*
X335000Y515398D02*
D03*
X345000D02*
D03*
X335000Y525398D02*
D03*
X345000D02*
D03*
X335000Y535398D02*
D03*
X345000D02*
D03*
X335000Y545398D02*
D03*
X345000D02*
D03*
X335000Y555398D02*
D03*
X345000D02*
D03*
X335000Y565398D02*
D03*
X145000D02*
D03*
X155000Y555398D02*
D03*
X145000D02*
D03*
X155000Y545398D02*
D03*
X145000D02*
D03*
X155000Y535398D02*
D03*
X145000D02*
D03*
X155000Y525398D02*
D03*
X145000D02*
D03*
X155000Y515398D02*
D03*
X145000D02*
D03*
X155000Y505398D02*
D03*
X145000D02*
D03*
X155000Y495398D02*
D03*
X145000D02*
D03*
X155000Y485398D02*
D03*
X145000D02*
D03*
X155000Y475398D02*
D03*
X145000D02*
D03*
X155000Y465398D02*
D03*
X145000D02*
D03*
X155000Y455398D02*
D03*
X145000D02*
D03*
X155000Y445398D02*
D03*
X145000D02*
D03*
X155000Y435398D02*
D03*
X145000D02*
D03*
X155000Y425398D02*
D03*
X145000D02*
D03*
X155000Y415398D02*
D03*
X145000D02*
D03*
X155000Y405398D02*
D03*
X145000D02*
D03*
X155000Y395398D02*
D03*
X145000D02*
D03*
X155000Y385398D02*
D03*
X145000D02*
D03*
X155000Y375398D02*
D03*
X145000D02*
D03*
X155000Y365398D02*
D03*
X145000D02*
D03*
X155000Y355398D02*
D03*
X145000D02*
D03*
X155000Y345398D02*
D03*
X145000D02*
D03*
D64*
X345000Y565398D02*
D03*
X155000D02*
D03*
D65*
X129466Y442688D02*
D03*
X119466D02*
D03*
X129500Y424793D02*
D03*
X119500D02*
D03*
X432642Y476225D02*
D03*
X422642D02*
D03*
X412642D02*
D03*
X432642Y487926D02*
D03*
X422642D02*
D03*
X412642D02*
D03*
X401275Y488078D02*
D03*
X391276D02*
D03*
X401275Y476219D02*
D03*
X391276D02*
D03*
X364500Y476000D02*
D03*
X374500D02*
D03*
X425500Y561000D02*
D03*
X435500D02*
D03*
X425500Y573236D02*
D03*
X435500D02*
D03*
X425500Y549000D02*
D03*
X435500D02*
D03*
X373736Y561000D02*
D03*
Y571000D02*
D03*
X385500Y560917D02*
D03*
Y570917D02*
D03*
X374500Y488000D02*
D03*
X364500D02*
D03*
D66*
X479693Y593909D02*
D03*
X381307D02*
D03*
D67*
X408689Y588319D02*
D03*
D68*
X414142Y599500D02*
D03*
X419594Y588319D02*
D03*
X425047Y599500D02*
D03*
X430500Y588319D02*
D03*
X435953Y599500D02*
D03*
X441405Y588319D02*
D03*
X446858Y599500D02*
D03*
X452311Y588319D02*
D03*
D69*
X129992Y493236D02*
D03*
D70*
X118811Y498689D02*
D03*
X129992Y504142D02*
D03*
X118811Y509594D02*
D03*
X129992Y515047D02*
D03*
X118811Y520500D02*
D03*
X129992Y525953D02*
D03*
X118811Y531405D02*
D03*
X129992Y536858D02*
D03*
X118811Y542311D02*
D03*
X129992Y547764D02*
D03*
X118811Y553217D02*
D03*
X129992Y558669D02*
D03*
X118811Y564122D02*
D03*
X129992Y569575D02*
D03*
D71*
X124402Y465815D02*
D03*
Y596996D02*
D03*
M02*
