G04*
G04 #@! TF.GenerationSoftware,Altium Limited,Altium Designer,18.1.9 (240)*
G04*
G04 Layer_Color=8388736*
%FSLAX25Y25*%
%MOIN*%
G70*
G01*
G75*
%ADD26R,0.09000X0.02400*%
%ADD30R,0.02965X0.02965*%
%ADD31R,0.06800X0.04800*%
%ADD32R,0.04343X0.02769*%
%ADD33R,0.02965X0.02965*%
%ADD34R,0.02178X0.06312*%
%ADD35R,0.04800X0.06800*%
%ADD36R,0.03162X0.06509*%
%ADD37R,0.04343X0.04540*%
%ADD38R,0.04147X0.04147*%
%ADD39R,0.04540X0.04343*%
%ADD40O,0.03162X0.07690*%
%ADD41C,0.17729*%
%ADD42C,0.14600*%
%ADD43C,0.07300*%
%ADD44C,0.06706*%
%ADD45R,0.06706X0.06706*%
%ADD46C,0.07887*%
%ADD47C,0.19540*%
%ADD48R,0.07453X0.07453*%
%ADD49C,0.07453*%
%ADD50R,0.07453X0.07453*%
%ADD51C,0.07453*%
%ADD52C,0.19698*%
%ADD53C,0.05800*%
D26*
X380500Y462500D02*
D03*
Y457500D02*
D03*
Y452500D02*
D03*
Y447500D02*
D03*
Y442500D02*
D03*
Y437500D02*
D03*
Y432500D02*
D03*
Y427500D02*
D03*
Y422500D02*
D03*
Y417500D02*
D03*
Y412500D02*
D03*
Y407500D02*
D03*
Y402500D02*
D03*
Y397500D02*
D03*
X416500D02*
D03*
Y402500D02*
D03*
Y407500D02*
D03*
Y412500D02*
D03*
Y417500D02*
D03*
Y422500D02*
D03*
Y427500D02*
D03*
Y432500D02*
D03*
Y437500D02*
D03*
Y442500D02*
D03*
Y447500D02*
D03*
Y452500D02*
D03*
Y457500D02*
D03*
Y462500D02*
D03*
D30*
X96200Y387240D02*
D03*
X100800D02*
D03*
X132304Y354236D02*
D03*
X127704D02*
D03*
X366200Y402000D02*
D03*
X370800D02*
D03*
X366200Y408000D02*
D03*
X370800D02*
D03*
X357700Y457025D02*
D03*
X362300D02*
D03*
Y463315D02*
D03*
X357700D02*
D03*
X297300Y485315D02*
D03*
X292700D02*
D03*
X282800Y485458D02*
D03*
X278200D02*
D03*
X297300Y473315D02*
D03*
X292700D02*
D03*
X282800Y473601D02*
D03*
X278200D02*
D03*
X278100Y461743D02*
D03*
X282700D02*
D03*
X292700Y497315D02*
D03*
X297300D02*
D03*
X292900Y461743D02*
D03*
X297500D02*
D03*
X278200Y438029D02*
D03*
X282800D02*
D03*
X292700Y438029D02*
D03*
X297300D02*
D03*
X292700Y449886D02*
D03*
X297300D02*
D03*
X292900Y426172D02*
D03*
X297500D02*
D03*
X292900Y414315D02*
D03*
X297500D02*
D03*
X278200Y497315D02*
D03*
X282800D02*
D03*
X278200Y449886D02*
D03*
X282800D02*
D03*
X278100Y426172D02*
D03*
X282700D02*
D03*
X278100Y414315D02*
D03*
X282700D02*
D03*
X385800Y539000D02*
D03*
X381200D02*
D03*
X385800Y533000D02*
D03*
X381200D02*
D03*
D31*
X114407Y375003D02*
D03*
Y367003D02*
D03*
X95000Y322500D02*
D03*
Y330500D02*
D03*
X396700Y363837D02*
D03*
Y371837D02*
D03*
X388700Y363837D02*
D03*
Y371837D02*
D03*
X380700Y363837D02*
D03*
Y371837D02*
D03*
X372700Y363837D02*
D03*
Y371837D02*
D03*
X420500Y535107D02*
D03*
Y527107D02*
D03*
D32*
X132968Y363260D02*
D03*
Y367000D02*
D03*
Y370740D02*
D03*
X125094D02*
D03*
Y367000D02*
D03*
Y363260D02*
D03*
D33*
X91031Y369700D02*
D03*
Y374300D02*
D03*
X100170Y351033D02*
D03*
Y355633D02*
D03*
X93000Y348600D02*
D03*
Y353200D02*
D03*
X107000Y351033D02*
D03*
Y355633D02*
D03*
X419000Y371200D02*
D03*
Y375800D02*
D03*
X412500Y371200D02*
D03*
Y375800D02*
D03*
X406000Y371200D02*
D03*
Y375800D02*
D03*
X419000Y362200D02*
D03*
Y366800D02*
D03*
X412500Y362200D02*
D03*
Y366800D02*
D03*
X406000Y362200D02*
D03*
Y366800D02*
D03*
X437388Y540300D02*
D03*
Y535700D02*
D03*
X437388Y531107D02*
D03*
Y526507D02*
D03*
X429500Y531107D02*
D03*
Y526507D02*
D03*
X429508Y535354D02*
D03*
Y539954D02*
D03*
D34*
X105181Y380161D02*
D03*
X102622D02*
D03*
X100063D02*
D03*
X97504D02*
D03*
X105181Y362839D02*
D03*
X102622D02*
D03*
X100063D02*
D03*
X97504D02*
D03*
D35*
X135000Y380272D02*
D03*
X127000D02*
D03*
X408000Y522000D02*
D03*
X400000D02*
D03*
Y568000D02*
D03*
X408000D02*
D03*
D36*
X120000Y342000D02*
D03*
X115000D02*
D03*
X110000D02*
D03*
X105000D02*
D03*
X120000Y320150D02*
D03*
X115000D02*
D03*
X110000D02*
D03*
X105000D02*
D03*
D37*
X376948Y545417D02*
D03*
X383050D02*
D03*
X376948Y526417D02*
D03*
X383050D02*
D03*
D38*
X369000Y416949D02*
D03*
Y423051D02*
D03*
D39*
X396700Y384889D02*
D03*
Y378786D02*
D03*
X388700Y384889D02*
D03*
Y378786D02*
D03*
X380700Y384889D02*
D03*
Y378786D02*
D03*
X372700Y384889D02*
D03*
Y378786D02*
D03*
D40*
X411500Y556319D02*
D03*
X406500D02*
D03*
X401500D02*
D03*
X396500D02*
D03*
X411500Y533681D02*
D03*
X406500D02*
D03*
X401500D02*
D03*
X396500D02*
D03*
D41*
X426500Y323000D02*
D03*
X340000Y605000D02*
D03*
X159500Y323000D02*
D03*
X160500Y607000D02*
D03*
D42*
X458500Y562500D02*
D03*
Y321949D02*
D03*
D43*
X468500Y355295D02*
D03*
X448500D02*
D03*
X468500Y377028D02*
D03*
Y387894D02*
D03*
Y398760D02*
D03*
Y409626D02*
D03*
Y420492D02*
D03*
Y431358D02*
D03*
Y442224D02*
D03*
Y453090D02*
D03*
Y463957D02*
D03*
Y474823D02*
D03*
Y485689D02*
D03*
Y496555D02*
D03*
Y507421D02*
D03*
Y518287D02*
D03*
Y529153D02*
D03*
X458500Y360768D02*
D03*
Y371631D02*
D03*
Y382495D02*
D03*
Y393358D02*
D03*
Y404222D02*
D03*
Y415085D02*
D03*
Y425949D02*
D03*
Y436812D02*
D03*
Y447676D02*
D03*
Y458539D02*
D03*
Y469403D02*
D03*
Y480266D02*
D03*
Y491130D02*
D03*
Y501993D02*
D03*
Y512857D02*
D03*
Y523720D02*
D03*
X448500Y366161D02*
D03*
Y377028D02*
D03*
Y387894D02*
D03*
Y398760D02*
D03*
Y409626D02*
D03*
Y420492D02*
D03*
Y431358D02*
D03*
Y442224D02*
D03*
Y453090D02*
D03*
Y463957D02*
D03*
Y474823D02*
D03*
Y485689D02*
D03*
Y496555D02*
D03*
Y507421D02*
D03*
X468500Y366161D02*
D03*
X448500Y518287D02*
D03*
Y529153D02*
D03*
D44*
X335000Y345398D02*
D03*
X345000D02*
D03*
X335000Y355398D02*
D03*
X345000D02*
D03*
X335000Y365398D02*
D03*
X345000D02*
D03*
X335000Y375398D02*
D03*
X345000D02*
D03*
X335000Y385398D02*
D03*
X345000D02*
D03*
X335000Y395398D02*
D03*
X345000D02*
D03*
X335000Y405398D02*
D03*
X345000D02*
D03*
X335000Y415398D02*
D03*
X345000D02*
D03*
X335000Y425398D02*
D03*
X345000D02*
D03*
X335000Y435398D02*
D03*
X345000D02*
D03*
X335000Y445398D02*
D03*
X345000D02*
D03*
X335000Y455398D02*
D03*
X345000D02*
D03*
X335000Y465398D02*
D03*
X345000D02*
D03*
X335000Y475398D02*
D03*
X345000D02*
D03*
X335000Y485398D02*
D03*
X345000D02*
D03*
X335000Y495398D02*
D03*
X345000D02*
D03*
X335000Y505398D02*
D03*
X345000D02*
D03*
X335000Y515398D02*
D03*
X345000D02*
D03*
X335000Y525398D02*
D03*
X345000D02*
D03*
X335000Y535398D02*
D03*
X345000D02*
D03*
X335000Y545398D02*
D03*
X345000D02*
D03*
X335000Y555398D02*
D03*
X345000D02*
D03*
X335000Y565398D02*
D03*
X145000D02*
D03*
X155000Y555398D02*
D03*
X145000D02*
D03*
X155000Y545398D02*
D03*
X145000D02*
D03*
X155000Y535398D02*
D03*
X145000D02*
D03*
X155000Y525398D02*
D03*
X145000D02*
D03*
X155000Y515398D02*
D03*
X145000D02*
D03*
X155000Y505398D02*
D03*
X145000D02*
D03*
X155000Y495398D02*
D03*
X145000D02*
D03*
X155000Y485398D02*
D03*
X145000D02*
D03*
X155000Y475398D02*
D03*
X145000D02*
D03*
X155000Y465398D02*
D03*
X145000D02*
D03*
X155000Y455398D02*
D03*
X145000D02*
D03*
X155000Y445398D02*
D03*
X145000D02*
D03*
X155000Y435398D02*
D03*
X145000D02*
D03*
X155000Y425398D02*
D03*
X145000D02*
D03*
X155000Y415398D02*
D03*
X145000D02*
D03*
X155000Y405398D02*
D03*
X145000D02*
D03*
X155000Y395398D02*
D03*
X145000D02*
D03*
X155000Y385398D02*
D03*
X145000D02*
D03*
X155000Y375398D02*
D03*
X145000D02*
D03*
X155000Y365398D02*
D03*
X145000D02*
D03*
X155000Y355398D02*
D03*
X145000D02*
D03*
X155000Y345398D02*
D03*
X145000D02*
D03*
D45*
X345000Y565398D02*
D03*
X155000D02*
D03*
D46*
X129466Y442688D02*
D03*
X119466D02*
D03*
X129500Y424793D02*
D03*
X119500D02*
D03*
X432642Y476225D02*
D03*
X422642D02*
D03*
X412642D02*
D03*
X432642Y487926D02*
D03*
X422642D02*
D03*
X412642D02*
D03*
X401275Y488078D02*
D03*
X391276D02*
D03*
X401275Y476219D02*
D03*
X391276D02*
D03*
X364500Y476000D02*
D03*
X374500D02*
D03*
X425500Y561000D02*
D03*
X435500D02*
D03*
X425500Y573236D02*
D03*
X435500D02*
D03*
X425500Y549000D02*
D03*
X435500D02*
D03*
X373736Y561000D02*
D03*
Y571000D02*
D03*
X385500Y560917D02*
D03*
Y570917D02*
D03*
X374500Y488000D02*
D03*
X364500D02*
D03*
D47*
X479693Y593909D02*
D03*
X381307D02*
D03*
D48*
X408689Y588319D02*
D03*
D49*
X414142Y599500D02*
D03*
X419594Y588319D02*
D03*
X425047Y599500D02*
D03*
X430500Y588319D02*
D03*
X435953Y599500D02*
D03*
X441405Y588319D02*
D03*
X446858Y599500D02*
D03*
X452311Y588319D02*
D03*
D50*
X129992Y493236D02*
D03*
D51*
X118811Y498689D02*
D03*
X129992Y504142D02*
D03*
X118811Y509594D02*
D03*
X129992Y515047D02*
D03*
X118811Y520500D02*
D03*
X129992Y525953D02*
D03*
X118811Y531405D02*
D03*
X129992Y536858D02*
D03*
X118811Y542311D02*
D03*
X129992Y547764D02*
D03*
X118811Y553217D02*
D03*
X129992Y558669D02*
D03*
X118811Y564122D02*
D03*
X129992Y569575D02*
D03*
D52*
X124402Y465815D02*
D03*
Y596996D02*
D03*
D53*
X127000Y388500D02*
D03*
X98500Y345000D02*
D03*
X94000Y338500D02*
D03*
X97000Y369700D02*
D03*
X90500Y359000D02*
D03*
X122691Y349602D02*
D03*
X107000Y391500D02*
D03*
X103500Y403120D02*
D03*
X113497Y355710D02*
D03*
X96574Y394793D02*
D03*
X133206Y342500D02*
D03*
X91116Y407435D02*
D03*
X230500Y605500D02*
D03*
X250000Y569000D02*
D03*
X276500Y597409D02*
D03*
X276443Y567000D02*
D03*
X162500Y587105D02*
D03*
X257500Y597500D02*
D03*
X306000Y379745D02*
D03*
X277900Y513500D02*
D03*
X256500D02*
D03*
X369000Y430312D02*
D03*
X259500Y467719D02*
D03*
X429261Y520107D02*
D03*
X407642Y578500D02*
D03*
X288000Y491815D02*
D03*
X414827Y520807D02*
D03*
X278000Y467719D02*
D03*
X359000Y417500D02*
D03*
X425500Y405200D02*
D03*
X304000Y510185D02*
D03*
X327000Y510745D02*
D03*
X391500Y522000D02*
D03*
X356000Y431072D02*
D03*
X357500Y381245D02*
D03*
X416000Y392000D02*
D03*
X430152Y502189D02*
D03*
X416500Y562000D02*
D03*
X418500Y542000D02*
D03*
X288000Y432000D02*
D03*
X267500Y597500D02*
D03*
Y566500D02*
D03*
X257500D02*
D03*
X288000Y467815D02*
D03*
Y420000D02*
D03*
Y444000D02*
D03*
Y455500D02*
D03*
X406000Y386795D02*
D03*
X360000Y408000D02*
D03*
X368771Y463315D02*
D03*
X303000Y491815D02*
D03*
X303500Y467815D02*
D03*
Y444315D02*
D03*
X303000Y420315D02*
D03*
X375500Y535934D02*
D03*
M02*
