G04*
G04 #@! TF.GenerationSoftware,Altium Limited,Altium Designer,19.0.10 (269)*
G04*
G04 Layer_Color=16711935*
%FSLAX25Y25*%
%MOIN*%
G70*
G01*
G75*
%ADD14C,0.01000*%
D14*
X127466Y317188D02*
Y327188D01*
X147466D01*
X127466Y317188D02*
X147466D01*
Y327188D01*
X137466Y317188D02*
X147466D01*
X127500Y299293D02*
Y309294D01*
X147500D01*
X127500Y299293D02*
X147500D01*
Y309294D01*
X137500Y299293D02*
X147500D01*
X430642Y350725D02*
Y360724D01*
X420642D02*
X430642D01*
X420642Y350725D02*
Y360724D01*
Y350725D02*
X450642D01*
Y360724D01*
X420642D02*
X450642D01*
X430642Y362426D02*
Y372426D01*
X420642D02*
X430642D01*
X420642Y362426D02*
Y372426D01*
Y362426D02*
X450642D01*
Y372426D01*
X420642D02*
X450642D01*
X399275Y372578D02*
X409275D01*
X399275Y362578D02*
Y372578D01*
X419276D01*
X399275Y362578D02*
X419276D01*
Y372578D01*
X399275Y360718D02*
X409275D01*
X399275Y350718D02*
Y360718D01*
X419276D01*
X399275Y350718D02*
X419276D01*
Y360718D01*
X382500Y350500D02*
X392500D01*
Y360500D01*
X372500Y350500D02*
X392500D01*
X372500Y360500D02*
X392500D01*
X372500Y350500D02*
Y360500D01*
X443500Y435500D02*
X453500D01*
Y445500D01*
X433500Y435500D02*
X453500D01*
X433500Y445500D02*
X453500D01*
X433500Y435500D02*
Y445500D01*
X453500Y447736D02*
Y457736D01*
X433500Y447736D02*
X453500D01*
X433500Y457736D02*
X453500D01*
X433500Y447736D02*
Y457736D01*
X443500D01*
X453500Y423500D02*
Y433500D01*
X433500Y423500D02*
X453500D01*
X433500Y433500D02*
X453500D01*
X433500Y423500D02*
Y433500D01*
X443500D01*
X381736Y455500D02*
X391736D01*
Y435500D02*
Y455500D01*
X381736Y435500D02*
Y455500D01*
Y435500D02*
X391736D01*
X381736D02*
Y445500D01*
X393500Y455417D02*
X403500D01*
Y435417D02*
Y455417D01*
X393500Y435417D02*
Y455417D01*
Y435417D02*
X403500D01*
X393500D02*
Y445417D01*
X372500Y362500D02*
Y372500D01*
X392500D01*
X372500Y362500D02*
X392500D01*
Y372500D01*
X382500Y362500D02*
X392500D01*
M02*
