G04*
G04 #@! TF.GenerationSoftware,Altium Limited,Altium Designer,19.0.10 (269)*
G04*
G04 Layer_Color=255*
%FSLAX25Y25*%
%MOIN*%
G70*
G01*
G75*
%ADD18R,0.02165X0.02165*%
%ADD19R,0.06000X0.04000*%
%ADD20R,0.03543X0.01968*%
%ADD21R,0.02165X0.02165*%
%ADD22R,0.01378X0.05512*%
%ADD23R,0.04000X0.06000*%
%ADD24R,0.02362X0.05709*%
%ADD25R,0.03543X0.03740*%
%ADD26R,0.09000X0.02400*%
%ADD27R,0.03347X0.03347*%
%ADD28R,0.03740X0.03543*%
%ADD29O,0.02362X0.06890*%
%ADD60C,0.13800*%
%ADD61C,0.06500*%
%ADD62C,0.05906*%
%ADD63R,0.05906X0.05906*%
%ADD64C,0.07087*%
%ADD65C,0.16929*%
%ADD66C,0.18740*%
%ADD67R,0.06653X0.06653*%
%ADD68C,0.06653*%
%ADD69R,0.06653X0.06653*%
%ADD70C,0.06653*%
%ADD71C,0.18898*%
D18*
X109200Y266740D02*
D03*
X113800D02*
D03*
X145304Y233736D02*
D03*
X140704D02*
D03*
X379200Y281500D02*
D03*
X383800D02*
D03*
X379200Y287500D02*
D03*
X383800D02*
D03*
X370700Y336525D02*
D03*
X375300D02*
D03*
Y342815D02*
D03*
X370700D02*
D03*
X310300Y364815D02*
D03*
X305700D02*
D03*
X295800Y364958D02*
D03*
X291200D02*
D03*
X310300Y352815D02*
D03*
X305700D02*
D03*
X295800Y353101D02*
D03*
X291200D02*
D03*
X291100Y341244D02*
D03*
X295700D02*
D03*
X305700Y376815D02*
D03*
X310300D02*
D03*
X305900Y341244D02*
D03*
X310500D02*
D03*
X291200Y317529D02*
D03*
X295800D02*
D03*
X305700Y317529D02*
D03*
X310300D02*
D03*
X305700Y329386D02*
D03*
X310300D02*
D03*
X305900Y305672D02*
D03*
X310500D02*
D03*
X305900Y293815D02*
D03*
X310500D02*
D03*
X291200Y376815D02*
D03*
X295800D02*
D03*
X291200Y329386D02*
D03*
X295800D02*
D03*
X291100Y305672D02*
D03*
X295700D02*
D03*
X291100Y293815D02*
D03*
X295700D02*
D03*
X398800Y418500D02*
D03*
X394200D02*
D03*
X398800Y412500D02*
D03*
X394200D02*
D03*
D19*
X127407Y254503D02*
D03*
Y246503D02*
D03*
X108000Y202000D02*
D03*
Y210000D02*
D03*
X409700Y243337D02*
D03*
Y251337D02*
D03*
X401700Y243337D02*
D03*
Y251337D02*
D03*
X393700Y243337D02*
D03*
Y251337D02*
D03*
X385700Y243337D02*
D03*
Y251337D02*
D03*
X433500Y414607D02*
D03*
Y406607D02*
D03*
D20*
X145968Y242760D02*
D03*
Y246500D02*
D03*
Y250240D02*
D03*
X138094D02*
D03*
Y246500D02*
D03*
Y242760D02*
D03*
D21*
X104032Y249200D02*
D03*
Y253800D02*
D03*
X113170Y230533D02*
D03*
Y235133D02*
D03*
X106000Y228100D02*
D03*
Y232700D02*
D03*
X120000Y230533D02*
D03*
Y235133D02*
D03*
X432000Y250700D02*
D03*
Y255300D02*
D03*
X425500Y250700D02*
D03*
Y255300D02*
D03*
X419000Y250700D02*
D03*
Y255300D02*
D03*
X432000Y241700D02*
D03*
Y246300D02*
D03*
X425500Y241700D02*
D03*
Y246300D02*
D03*
X419000Y241700D02*
D03*
Y246300D02*
D03*
X450388Y419800D02*
D03*
Y415200D02*
D03*
X450388Y410607D02*
D03*
Y406007D02*
D03*
X442500Y410607D02*
D03*
Y406007D02*
D03*
X442508Y414853D02*
D03*
Y419453D02*
D03*
D22*
X118181Y259661D02*
D03*
X115622D02*
D03*
X113063D02*
D03*
X110504D02*
D03*
X118181Y242339D02*
D03*
X115622D02*
D03*
X113063D02*
D03*
X110504D02*
D03*
D23*
X148000Y259772D02*
D03*
X140000D02*
D03*
X421000Y401500D02*
D03*
X413000D02*
D03*
Y447500D02*
D03*
X421000D02*
D03*
D24*
X133000Y221500D02*
D03*
X128000D02*
D03*
X123000D02*
D03*
X118000D02*
D03*
X133000Y199650D02*
D03*
X128000D02*
D03*
X123000D02*
D03*
X118000D02*
D03*
D25*
X389948Y424917D02*
D03*
X396050D02*
D03*
X389948Y405917D02*
D03*
X396050D02*
D03*
D26*
X393500Y342000D02*
D03*
Y337000D02*
D03*
Y332000D02*
D03*
Y327000D02*
D03*
Y322000D02*
D03*
Y317000D02*
D03*
Y312000D02*
D03*
Y307000D02*
D03*
Y302000D02*
D03*
Y297000D02*
D03*
Y292000D02*
D03*
Y287000D02*
D03*
Y282000D02*
D03*
Y277000D02*
D03*
X429500D02*
D03*
Y282000D02*
D03*
Y287000D02*
D03*
Y292000D02*
D03*
Y297000D02*
D03*
Y302000D02*
D03*
Y307000D02*
D03*
Y312000D02*
D03*
Y317000D02*
D03*
Y322000D02*
D03*
Y327000D02*
D03*
Y332000D02*
D03*
Y337000D02*
D03*
Y342000D02*
D03*
D27*
X382000Y296449D02*
D03*
Y302551D02*
D03*
D28*
X409700Y264389D02*
D03*
Y258286D02*
D03*
X401700Y264389D02*
D03*
Y258286D02*
D03*
X393700Y264389D02*
D03*
Y258286D02*
D03*
X385700Y264389D02*
D03*
Y258286D02*
D03*
D29*
X424500Y435819D02*
D03*
X419500D02*
D03*
X414500D02*
D03*
X409500D02*
D03*
X424500Y413181D02*
D03*
X419500D02*
D03*
X414500D02*
D03*
X409500D02*
D03*
D60*
X471500Y442000D02*
D03*
Y201449D02*
D03*
D61*
X481500Y234795D02*
D03*
X461500D02*
D03*
X481500Y256527D02*
D03*
Y267394D02*
D03*
Y278260D02*
D03*
Y289126D02*
D03*
Y299992D02*
D03*
Y310858D02*
D03*
Y321724D02*
D03*
Y332591D02*
D03*
Y343457D02*
D03*
Y354323D02*
D03*
Y365189D02*
D03*
Y376055D02*
D03*
Y386921D02*
D03*
Y397787D02*
D03*
Y408653D02*
D03*
X471500Y240268D02*
D03*
Y251131D02*
D03*
Y261995D02*
D03*
Y272858D02*
D03*
Y283722D02*
D03*
Y294585D02*
D03*
Y305449D02*
D03*
Y316312D02*
D03*
Y327176D02*
D03*
Y338039D02*
D03*
Y348903D02*
D03*
Y359766D02*
D03*
Y370630D02*
D03*
Y381493D02*
D03*
Y392357D02*
D03*
Y403220D02*
D03*
X461500Y245661D02*
D03*
Y256527D02*
D03*
Y267394D02*
D03*
Y278260D02*
D03*
Y289126D02*
D03*
Y299992D02*
D03*
Y310858D02*
D03*
Y321724D02*
D03*
Y332591D02*
D03*
Y343457D02*
D03*
Y354323D02*
D03*
Y365189D02*
D03*
Y376055D02*
D03*
Y386921D02*
D03*
X481500Y245661D02*
D03*
X461500Y397787D02*
D03*
Y408653D02*
D03*
D62*
X348000Y224898D02*
D03*
X358000D02*
D03*
X348000Y234898D02*
D03*
X358000D02*
D03*
X348000Y244898D02*
D03*
X358000D02*
D03*
X348000Y254898D02*
D03*
X358000D02*
D03*
X348000Y264898D02*
D03*
X358000D02*
D03*
X348000Y274898D02*
D03*
X358000D02*
D03*
X348000Y284898D02*
D03*
X358000D02*
D03*
X348000Y294898D02*
D03*
X358000D02*
D03*
X348000Y304898D02*
D03*
X358000D02*
D03*
X348000Y314898D02*
D03*
X358000D02*
D03*
X348000Y324898D02*
D03*
X358000D02*
D03*
X348000Y334898D02*
D03*
X358000D02*
D03*
X348000Y344898D02*
D03*
X358000D02*
D03*
X348000Y354898D02*
D03*
X358000D02*
D03*
X348000Y364898D02*
D03*
X358000D02*
D03*
X348000Y374898D02*
D03*
X358000D02*
D03*
X348000Y384898D02*
D03*
X358000D02*
D03*
X348000Y394898D02*
D03*
X358000D02*
D03*
X348000Y404898D02*
D03*
X358000D02*
D03*
X348000Y414898D02*
D03*
X358000D02*
D03*
X348000Y424898D02*
D03*
X358000D02*
D03*
X348000Y434898D02*
D03*
X358000D02*
D03*
X348000Y444898D02*
D03*
X158000D02*
D03*
X168000Y434898D02*
D03*
X158000D02*
D03*
X168000Y424898D02*
D03*
X158000D02*
D03*
X168000Y414898D02*
D03*
X158000D02*
D03*
X168000Y404898D02*
D03*
X158000D02*
D03*
X168000Y394898D02*
D03*
X158000D02*
D03*
X168000Y384898D02*
D03*
X158000D02*
D03*
X168000Y374898D02*
D03*
X158000D02*
D03*
X168000Y364898D02*
D03*
X158000D02*
D03*
X168000Y354898D02*
D03*
X158000D02*
D03*
X168000Y344898D02*
D03*
X158000D02*
D03*
X168000Y334898D02*
D03*
X158000D02*
D03*
X168000Y324898D02*
D03*
X158000D02*
D03*
X168000Y314898D02*
D03*
X158000D02*
D03*
X168000Y304898D02*
D03*
X158000D02*
D03*
X168000Y294898D02*
D03*
X158000D02*
D03*
X168000Y284898D02*
D03*
X158000D02*
D03*
X168000Y274898D02*
D03*
X158000D02*
D03*
X168000Y264898D02*
D03*
X158000D02*
D03*
X168000Y254898D02*
D03*
X158000D02*
D03*
X168000Y244898D02*
D03*
X158000D02*
D03*
X168000Y234898D02*
D03*
X158000D02*
D03*
X168000Y224898D02*
D03*
X158000D02*
D03*
D63*
X358000Y444898D02*
D03*
X168000D02*
D03*
D64*
X142466Y322188D02*
D03*
X132466D02*
D03*
X142500Y304293D02*
D03*
X132500D02*
D03*
X445642Y355725D02*
D03*
X435642D02*
D03*
X425642D02*
D03*
X445642Y367426D02*
D03*
X435642D02*
D03*
X425642D02*
D03*
X414276Y367578D02*
D03*
X404276D02*
D03*
X414276Y355718D02*
D03*
X404276D02*
D03*
X377500Y355500D02*
D03*
X387500D02*
D03*
X438500Y440500D02*
D03*
X448500D02*
D03*
X438500Y452736D02*
D03*
X448500D02*
D03*
X438500Y428500D02*
D03*
X448500D02*
D03*
X386736Y440500D02*
D03*
Y450500D02*
D03*
X398500Y440417D02*
D03*
Y450417D02*
D03*
X387500Y367500D02*
D03*
X377500D02*
D03*
D65*
X173500Y486500D02*
D03*
X439500Y202500D02*
D03*
X172500D02*
D03*
X353000Y484500D02*
D03*
D66*
X492693Y473409D02*
D03*
X394307D02*
D03*
D67*
X421689Y467819D02*
D03*
D68*
X427142Y479000D02*
D03*
X432594Y467819D02*
D03*
X438047Y479000D02*
D03*
X443500Y467819D02*
D03*
X448953Y479000D02*
D03*
X454405Y467819D02*
D03*
X459858Y479000D02*
D03*
X465311Y467819D02*
D03*
D69*
X142992Y372736D02*
D03*
D70*
X131811Y378189D02*
D03*
X142992Y383642D02*
D03*
X131811Y389094D02*
D03*
X142992Y394547D02*
D03*
X131811Y400000D02*
D03*
X142992Y405453D02*
D03*
X131811Y410906D02*
D03*
X142992Y416358D02*
D03*
X131811Y421811D02*
D03*
X142992Y427264D02*
D03*
X131811Y432717D02*
D03*
X142992Y438169D02*
D03*
X131811Y443622D02*
D03*
X142992Y449075D02*
D03*
D71*
X137402Y345315D02*
D03*
Y476496D02*
D03*
M02*
