G04*
G04 #@! TF.GenerationSoftware,Altium Limited,Altium Designer,19.0.10 (269)*
G04*
G04 Layer_Color=8388736*
%FSLAX25Y25*%
%MOIN*%
G70*
G01*
G75*
%ADD26R,0.09000X0.02400*%
%ADD30R,0.02965X0.02965*%
%ADD31R,0.06800X0.04800*%
%ADD32R,0.04343X0.02769*%
%ADD33R,0.02965X0.02965*%
%ADD34R,0.02178X0.06312*%
%ADD35R,0.04800X0.06800*%
%ADD36R,0.03162X0.06509*%
%ADD37R,0.04343X0.04540*%
%ADD38R,0.04147X0.04147*%
%ADD39R,0.04540X0.04343*%
%ADD40O,0.03162X0.07690*%
%ADD41C,0.14600*%
%ADD42C,0.07300*%
%ADD43C,0.06706*%
%ADD44R,0.06706X0.06706*%
%ADD45C,0.07887*%
%ADD46C,0.17729*%
%ADD47C,0.19540*%
%ADD48R,0.07453X0.07453*%
%ADD49C,0.07453*%
%ADD50R,0.07453X0.07453*%
%ADD51C,0.07453*%
%ADD52C,0.19698*%
%ADD53C,0.05800*%
D26*
X393500Y342000D02*
D03*
Y337000D02*
D03*
Y332000D02*
D03*
Y327000D02*
D03*
Y322000D02*
D03*
Y317000D02*
D03*
Y312000D02*
D03*
Y307000D02*
D03*
Y302000D02*
D03*
Y297000D02*
D03*
Y292000D02*
D03*
Y287000D02*
D03*
Y282000D02*
D03*
Y277000D02*
D03*
X429500D02*
D03*
Y282000D02*
D03*
Y287000D02*
D03*
Y292000D02*
D03*
Y297000D02*
D03*
Y302000D02*
D03*
Y307000D02*
D03*
Y312000D02*
D03*
Y317000D02*
D03*
Y322000D02*
D03*
Y327000D02*
D03*
Y332000D02*
D03*
Y337000D02*
D03*
Y342000D02*
D03*
D30*
X109200Y266740D02*
D03*
X113800D02*
D03*
X145304Y233736D02*
D03*
X140704D02*
D03*
X379200Y281500D02*
D03*
X383800D02*
D03*
X379200Y287500D02*
D03*
X383800D02*
D03*
X370700Y336525D02*
D03*
X375300D02*
D03*
Y342815D02*
D03*
X370700D02*
D03*
X310300Y364815D02*
D03*
X305700D02*
D03*
X295800Y364958D02*
D03*
X291200D02*
D03*
X310300Y352815D02*
D03*
X305700D02*
D03*
X295800Y353101D02*
D03*
X291200D02*
D03*
X291100Y341244D02*
D03*
X295700D02*
D03*
X305700Y376815D02*
D03*
X310300D02*
D03*
X305900Y341244D02*
D03*
X310500D02*
D03*
X291200Y317529D02*
D03*
X295800D02*
D03*
X305700Y317529D02*
D03*
X310300D02*
D03*
X305700Y329386D02*
D03*
X310300D02*
D03*
X305900Y305672D02*
D03*
X310500D02*
D03*
X305900Y293815D02*
D03*
X310500D02*
D03*
X291200Y376815D02*
D03*
X295800D02*
D03*
X291200Y329386D02*
D03*
X295800D02*
D03*
X291100Y305672D02*
D03*
X295700D02*
D03*
X291100Y293815D02*
D03*
X295700D02*
D03*
X398800Y418500D02*
D03*
X394200D02*
D03*
X398800Y412500D02*
D03*
X394200D02*
D03*
D31*
X127407Y254503D02*
D03*
Y246503D02*
D03*
X108000Y202000D02*
D03*
Y210000D02*
D03*
X409700Y243337D02*
D03*
Y251337D02*
D03*
X401700Y243337D02*
D03*
Y251337D02*
D03*
X393700Y243337D02*
D03*
Y251337D02*
D03*
X385700Y243337D02*
D03*
Y251337D02*
D03*
X433500Y414607D02*
D03*
Y406607D02*
D03*
D32*
X145968Y242760D02*
D03*
Y246500D02*
D03*
Y250240D02*
D03*
X138094D02*
D03*
Y246500D02*
D03*
Y242760D02*
D03*
D33*
X104032Y249200D02*
D03*
Y253800D02*
D03*
X113170Y230533D02*
D03*
Y235133D02*
D03*
X106000Y228100D02*
D03*
Y232700D02*
D03*
X120000Y230533D02*
D03*
Y235133D02*
D03*
X432000Y250700D02*
D03*
Y255300D02*
D03*
X425500Y250700D02*
D03*
Y255300D02*
D03*
X419000Y250700D02*
D03*
Y255300D02*
D03*
X432000Y241700D02*
D03*
Y246300D02*
D03*
X425500Y241700D02*
D03*
Y246300D02*
D03*
X419000Y241700D02*
D03*
Y246300D02*
D03*
X450388Y419800D02*
D03*
Y415200D02*
D03*
X450388Y410607D02*
D03*
Y406007D02*
D03*
X442500Y410607D02*
D03*
Y406007D02*
D03*
X442508Y414853D02*
D03*
Y419453D02*
D03*
D34*
X118181Y259661D02*
D03*
X115622D02*
D03*
X113063D02*
D03*
X110504D02*
D03*
X118181Y242339D02*
D03*
X115622D02*
D03*
X113063D02*
D03*
X110504D02*
D03*
D35*
X148000Y259772D02*
D03*
X140000D02*
D03*
X421000Y401500D02*
D03*
X413000D02*
D03*
Y447500D02*
D03*
X421000D02*
D03*
D36*
X133000Y221500D02*
D03*
X128000D02*
D03*
X123000D02*
D03*
X118000D02*
D03*
X133000Y199650D02*
D03*
X128000D02*
D03*
X123000D02*
D03*
X118000D02*
D03*
D37*
X389948Y424917D02*
D03*
X396050D02*
D03*
X389948Y405917D02*
D03*
X396050D02*
D03*
D38*
X382000Y296449D02*
D03*
Y302551D02*
D03*
D39*
X409700Y264389D02*
D03*
Y258286D02*
D03*
X401700Y264389D02*
D03*
Y258286D02*
D03*
X393700Y264389D02*
D03*
Y258286D02*
D03*
X385700Y264389D02*
D03*
Y258286D02*
D03*
D40*
X424500Y435819D02*
D03*
X419500D02*
D03*
X414500D02*
D03*
X409500D02*
D03*
X424500Y413181D02*
D03*
X419500D02*
D03*
X414500D02*
D03*
X409500D02*
D03*
D41*
X471500Y442000D02*
D03*
Y201449D02*
D03*
D42*
X481500Y234795D02*
D03*
X461500D02*
D03*
X481500Y256527D02*
D03*
Y267394D02*
D03*
Y278260D02*
D03*
Y289126D02*
D03*
Y299992D02*
D03*
Y310858D02*
D03*
Y321724D02*
D03*
Y332591D02*
D03*
Y343457D02*
D03*
Y354323D02*
D03*
Y365189D02*
D03*
Y376055D02*
D03*
Y386921D02*
D03*
Y397787D02*
D03*
Y408653D02*
D03*
X471500Y240268D02*
D03*
Y251131D02*
D03*
Y261995D02*
D03*
Y272858D02*
D03*
Y283722D02*
D03*
Y294585D02*
D03*
Y305449D02*
D03*
Y316312D02*
D03*
Y327176D02*
D03*
Y338039D02*
D03*
Y348903D02*
D03*
Y359766D02*
D03*
Y370630D02*
D03*
Y381493D02*
D03*
Y392357D02*
D03*
Y403220D02*
D03*
X461500Y245661D02*
D03*
Y256527D02*
D03*
Y267394D02*
D03*
Y278260D02*
D03*
Y289126D02*
D03*
Y299992D02*
D03*
Y310858D02*
D03*
Y321724D02*
D03*
Y332591D02*
D03*
Y343457D02*
D03*
Y354323D02*
D03*
Y365189D02*
D03*
Y376055D02*
D03*
Y386921D02*
D03*
X481500Y245661D02*
D03*
X461500Y397787D02*
D03*
Y408653D02*
D03*
D43*
X348000Y224898D02*
D03*
X358000D02*
D03*
X348000Y234898D02*
D03*
X358000D02*
D03*
X348000Y244898D02*
D03*
X358000D02*
D03*
X348000Y254898D02*
D03*
X358000D02*
D03*
X348000Y264898D02*
D03*
X358000D02*
D03*
X348000Y274898D02*
D03*
X358000D02*
D03*
X348000Y284898D02*
D03*
X358000D02*
D03*
X348000Y294898D02*
D03*
X358000D02*
D03*
X348000Y304898D02*
D03*
X358000D02*
D03*
X348000Y314898D02*
D03*
X358000D02*
D03*
X348000Y324898D02*
D03*
X358000D02*
D03*
X348000Y334898D02*
D03*
X358000D02*
D03*
X348000Y344898D02*
D03*
X358000D02*
D03*
X348000Y354898D02*
D03*
X358000D02*
D03*
X348000Y364898D02*
D03*
X358000D02*
D03*
X348000Y374898D02*
D03*
X358000D02*
D03*
X348000Y384898D02*
D03*
X358000D02*
D03*
X348000Y394898D02*
D03*
X358000D02*
D03*
X348000Y404898D02*
D03*
X358000D02*
D03*
X348000Y414898D02*
D03*
X358000D02*
D03*
X348000Y424898D02*
D03*
X358000D02*
D03*
X348000Y434898D02*
D03*
X358000D02*
D03*
X348000Y444898D02*
D03*
X158000D02*
D03*
X168000Y434898D02*
D03*
X158000D02*
D03*
X168000Y424898D02*
D03*
X158000D02*
D03*
X168000Y414898D02*
D03*
X158000D02*
D03*
X168000Y404898D02*
D03*
X158000D02*
D03*
X168000Y394898D02*
D03*
X158000D02*
D03*
X168000Y384898D02*
D03*
X158000D02*
D03*
X168000Y374898D02*
D03*
X158000D02*
D03*
X168000Y364898D02*
D03*
X158000D02*
D03*
X168000Y354898D02*
D03*
X158000D02*
D03*
X168000Y344898D02*
D03*
X158000D02*
D03*
X168000Y334898D02*
D03*
X158000D02*
D03*
X168000Y324898D02*
D03*
X158000D02*
D03*
X168000Y314898D02*
D03*
X158000D02*
D03*
X168000Y304898D02*
D03*
X158000D02*
D03*
X168000Y294898D02*
D03*
X158000D02*
D03*
X168000Y284898D02*
D03*
X158000D02*
D03*
X168000Y274898D02*
D03*
X158000D02*
D03*
X168000Y264898D02*
D03*
X158000D02*
D03*
X168000Y254898D02*
D03*
X158000D02*
D03*
X168000Y244898D02*
D03*
X158000D02*
D03*
X168000Y234898D02*
D03*
X158000D02*
D03*
X168000Y224898D02*
D03*
X158000D02*
D03*
D44*
X358000Y444898D02*
D03*
X168000D02*
D03*
D45*
X142466Y322188D02*
D03*
X132466D02*
D03*
X142500Y304293D02*
D03*
X132500D02*
D03*
X445642Y355725D02*
D03*
X435642D02*
D03*
X425642D02*
D03*
X445642Y367426D02*
D03*
X435642D02*
D03*
X425642D02*
D03*
X414276Y367578D02*
D03*
X404276D02*
D03*
X414276Y355718D02*
D03*
X404276D02*
D03*
X377500Y355500D02*
D03*
X387500D02*
D03*
X438500Y440500D02*
D03*
X448500D02*
D03*
X438500Y452736D02*
D03*
X448500D02*
D03*
X438500Y428500D02*
D03*
X448500D02*
D03*
X386736Y440500D02*
D03*
Y450500D02*
D03*
X398500Y440417D02*
D03*
Y450417D02*
D03*
X387500Y367500D02*
D03*
X377500D02*
D03*
D46*
X173500Y486500D02*
D03*
X439500Y202500D02*
D03*
X172500D02*
D03*
X353000Y484500D02*
D03*
D47*
X492693Y473409D02*
D03*
X394307D02*
D03*
D48*
X421689Y467819D02*
D03*
D49*
X427142Y479000D02*
D03*
X432594Y467819D02*
D03*
X438047Y479000D02*
D03*
X443500Y467819D02*
D03*
X448953Y479000D02*
D03*
X454405Y467819D02*
D03*
X459858Y479000D02*
D03*
X465311Y467819D02*
D03*
D50*
X142992Y372736D02*
D03*
D51*
X131811Y378189D02*
D03*
X142992Y383642D02*
D03*
X131811Y389094D02*
D03*
X142992Y394547D02*
D03*
X131811Y400000D02*
D03*
X142992Y405453D02*
D03*
X131811Y410906D02*
D03*
X142992Y416358D02*
D03*
X131811Y421811D02*
D03*
X142992Y427264D02*
D03*
X131811Y432717D02*
D03*
X142992Y438169D02*
D03*
X131811Y443622D02*
D03*
X142992Y449075D02*
D03*
D52*
X137402Y345315D02*
D03*
Y476496D02*
D03*
D53*
X140000Y268000D02*
D03*
X111500Y224500D02*
D03*
X107000Y218000D02*
D03*
X110000Y249200D02*
D03*
X103500Y238500D02*
D03*
X135691Y229101D02*
D03*
X120000Y271000D02*
D03*
X116500Y282620D02*
D03*
X126497Y235210D02*
D03*
X109574Y274293D02*
D03*
X146206Y222000D02*
D03*
X104116Y286935D02*
D03*
X243500Y485000D02*
D03*
X263000Y448500D02*
D03*
X289500Y476909D02*
D03*
X289443Y446500D02*
D03*
X175500Y466605D02*
D03*
X270500Y477000D02*
D03*
X319000Y259245D02*
D03*
X290900Y393000D02*
D03*
X269500D02*
D03*
X382000Y309812D02*
D03*
X272500Y347218D02*
D03*
X442261Y399607D02*
D03*
X420642Y458000D02*
D03*
X301000Y371315D02*
D03*
X427827Y400307D02*
D03*
X291000Y347218D02*
D03*
X372000Y297000D02*
D03*
X438500Y284700D02*
D03*
X317000Y389685D02*
D03*
X340000Y390245D02*
D03*
X404500Y401500D02*
D03*
X369000Y310572D02*
D03*
X370500Y260745D02*
D03*
X429000Y271500D02*
D03*
X443152Y381689D02*
D03*
X429500Y441500D02*
D03*
X431500Y421500D02*
D03*
X301000Y311500D02*
D03*
X280500Y477000D02*
D03*
Y446000D02*
D03*
X270500D02*
D03*
X301000Y347315D02*
D03*
Y299500D02*
D03*
Y323500D02*
D03*
Y335000D02*
D03*
X419000Y266295D02*
D03*
X373000Y287500D02*
D03*
X381771Y342815D02*
D03*
X316000Y371315D02*
D03*
X316500Y347315D02*
D03*
Y323815D02*
D03*
X316000Y299815D02*
D03*
X388500Y415434D02*
D03*
M02*
