G04*
G04 #@! TF.GenerationSoftware,Altium Limited,Altium Designer,19.0.10 (269)*
G04*
G04 Layer_Physical_Order=2*
G04 Layer_Color=16711680*
%FSLAX25Y25*%
%MOIN*%
G70*
G01*
G75*
%ADD12C,0.01000*%
%ADD36C,0.02000*%
%ADD37C,0.07087*%
%ADD38C,0.11811*%
%ADD39C,0.16929*%
%ADD40C,0.05000*%
G36*
X349500Y196500D02*
X115260Y196500D01*
X115260Y451240D01*
X349500Y451240D01*
X349500Y196500D01*
D02*
G37*
G36*
X155079Y178337D02*
X155102Y178334D01*
X155127Y178331D01*
X155154Y178325D01*
X155187Y178320D01*
X155223Y178312D01*
X155262Y178303D01*
X155343Y178276D01*
X155387Y178259D01*
X155431Y178237D01*
X155475Y178215D01*
X155523Y178187D01*
X155356Y177752D01*
X155354D01*
X155348Y177758D01*
X155340Y177760D01*
X155326Y177769D01*
X155312Y177774D01*
X155293Y177782D01*
X155248Y177802D01*
X155199Y177821D01*
X155140Y177835D01*
X155077Y177846D01*
X155013Y177852D01*
X154988D01*
X154957Y177846D01*
X154921Y177841D01*
X154880Y177830D01*
X154833Y177813D01*
X154786Y177788D01*
X154739Y177758D01*
X154733Y177752D01*
X154719Y177741D01*
X154697Y177719D01*
X154672Y177691D01*
X154642Y177655D01*
X154614Y177611D01*
X154586Y177558D01*
X154564Y177500D01*
Y177497D01*
X154561Y177489D01*
X154556Y177475D01*
X154553Y177456D01*
X154548Y177434D01*
X154539Y177406D01*
X154534Y177373D01*
X154525Y177339D01*
X154517Y177298D01*
X154512Y177256D01*
X154506Y177212D01*
X154498Y177165D01*
X154489Y177062D01*
X154487Y176952D01*
Y175500D01*
X154016D01*
Y178278D01*
X154439D01*
Y177852D01*
X154442Y177855D01*
X154448Y177866D01*
X154456Y177879D01*
X154467Y177899D01*
X154481Y177924D01*
X154498Y177952D01*
X154536Y178012D01*
X154584Y178076D01*
X154633Y178143D01*
X154658Y178170D01*
X154683Y178198D01*
X154711Y178223D01*
X154736Y178242D01*
X154739D01*
X154742Y178248D01*
X154750Y178251D01*
X154761Y178259D01*
X154789Y178273D01*
X154825Y178292D01*
X154872Y178309D01*
X154921Y178325D01*
X154977Y178337D01*
X155038Y178339D01*
X155063D01*
X155079Y178337D01*
D02*
G37*
G36*
X139407Y178337D02*
X139437D01*
X139471Y178331D01*
X139509Y178328D01*
X139553Y178320D01*
X139603Y178312D01*
X139653Y178298D01*
X139703Y178284D01*
X139756Y178264D01*
X139811Y178242D01*
X139861Y178217D01*
X139911Y178184D01*
X139958Y178151D01*
X140002Y178109D01*
X140005Y178107D01*
X140013Y178098D01*
X140024Y178084D01*
X140038Y178065D01*
X140055Y178043D01*
X140074Y178012D01*
X140094Y177976D01*
X140116Y177935D01*
X140135Y177888D01*
X140155Y177838D01*
X140174Y177780D01*
X140191Y177716D01*
X140207Y177647D01*
X140218Y177572D01*
X140224Y177492D01*
X140227Y177406D01*
Y175500D01*
X139756D01*
Y177248D01*
Y177251D01*
Y177262D01*
Y177276D01*
Y177295D01*
Y177317D01*
X139753Y177345D01*
X139750Y177406D01*
X139745Y177472D01*
X139736Y177539D01*
X139725Y177602D01*
X139717Y177630D01*
X139709Y177655D01*
Y177658D01*
X139706Y177661D01*
X139700Y177674D01*
X139689Y177699D01*
X139673Y177727D01*
X139648Y177758D01*
X139620Y177791D01*
X139584Y177824D01*
X139542Y177855D01*
X139537Y177857D01*
X139520Y177866D01*
X139495Y177879D01*
X139462Y177893D01*
X139421Y177907D01*
X139374Y177921D01*
X139318Y177929D01*
X139260Y177932D01*
X139232D01*
X139213Y177929D01*
X139188Y177927D01*
X139157Y177921D01*
X139124Y177915D01*
X139091Y177907D01*
X139052Y177896D01*
X139013Y177885D01*
X138975Y177868D01*
X138933Y177849D01*
X138891Y177827D01*
X138853Y177799D01*
X138814Y177771D01*
X138775Y177735D01*
X138772Y177733D01*
X138767Y177727D01*
X138759Y177716D01*
X138745Y177699D01*
X138731Y177677D01*
X138714Y177652D01*
X138698Y177622D01*
X138678Y177586D01*
X138662Y177544D01*
X138642Y177497D01*
X138626Y177447D01*
X138612Y177392D01*
X138598Y177328D01*
X138590Y177262D01*
X138584Y177190D01*
X138581Y177112D01*
Y175500D01*
X138110D01*
Y177303D01*
Y177306D01*
Y177317D01*
Y177334D01*
X138108Y177356D01*
Y177381D01*
X138105Y177411D01*
X138102Y177445D01*
X138096Y177480D01*
X138083Y177555D01*
X138060Y177633D01*
X138033Y177708D01*
X138013Y177744D01*
X137994Y177774D01*
Y177777D01*
X137988Y177780D01*
X137983Y177788D01*
X137972Y177799D01*
X137961Y177810D01*
X137944Y177824D01*
X137925Y177838D01*
X137905Y177855D01*
X137881Y177868D01*
X137853Y177882D01*
X137822Y177896D01*
X137786Y177907D01*
X137750Y177918D01*
X137709Y177927D01*
X137664Y177929D01*
X137617Y177932D01*
X137598D01*
X137584Y177929D01*
X137567D01*
X137545Y177927D01*
X137498Y177918D01*
X137443Y177907D01*
X137379Y177888D01*
X137315Y177863D01*
X137252Y177827D01*
X137249D01*
X137243Y177821D01*
X137235Y177816D01*
X137224Y177807D01*
X137194Y177782D01*
X137157Y177749D01*
X137116Y177705D01*
X137077Y177652D01*
X137038Y177591D01*
X137005Y177519D01*
Y177517D01*
X137002Y177511D01*
X137000Y177497D01*
X136994Y177483D01*
X136988Y177461D01*
X136980Y177436D01*
X136975Y177406D01*
X136969Y177373D01*
X136961Y177334D01*
X136955Y177289D01*
X136947Y177242D01*
X136941Y177190D01*
X136939Y177134D01*
X136933Y177073D01*
X136930Y177010D01*
Y176940D01*
Y175500D01*
X136460D01*
Y178278D01*
X136881D01*
Y177885D01*
X136883Y177888D01*
X136886Y177893D01*
X136894Y177904D01*
X136905Y177918D01*
X136916Y177938D01*
X136933Y177957D01*
X136972Y178004D01*
X137022Y178057D01*
X137083Y178109D01*
X137149Y178165D01*
X137227Y178215D01*
X137230Y178217D01*
X137238Y178220D01*
X137249Y178226D01*
X137266Y178234D01*
X137285Y178242D01*
X137310Y178253D01*
X137340Y178264D01*
X137371Y178278D01*
X137407Y178289D01*
X137443Y178300D01*
X137484Y178312D01*
X137529Y178320D01*
X137623Y178334D01*
X137673Y178339D01*
X137753D01*
X137775Y178337D01*
X137800D01*
X137831Y178334D01*
X137867Y178328D01*
X137903Y178323D01*
X137983Y178309D01*
X138066Y178284D01*
X138152Y178253D01*
X138191Y178231D01*
X138230Y178209D01*
X138232Y178206D01*
X138238Y178203D01*
X138249Y178195D01*
X138263Y178187D01*
X138277Y178173D01*
X138296Y178156D01*
X138338Y178118D01*
X138385Y178065D01*
X138429Y178004D01*
X138470Y177932D01*
X138506Y177852D01*
Y177855D01*
X138509Y177857D01*
X138523Y177874D01*
X138540Y177896D01*
X138567Y177929D01*
X138601Y177965D01*
X138639Y178007D01*
X138687Y178051D01*
X138739Y178095D01*
X138797Y178140D01*
X138864Y178184D01*
X138933Y178226D01*
X139011Y178264D01*
X139091Y178295D01*
X139180Y178317D01*
X139271Y178334D01*
X139318Y178339D01*
X139387D01*
X139407Y178337D01*
D02*
G37*
G36*
X149584Y175453D02*
X149581Y175447D01*
X149575Y175434D01*
X149567Y175409D01*
X149556Y175378D01*
X149542Y175342D01*
X149525Y175301D01*
X149506Y175253D01*
X149487Y175204D01*
X149445Y175098D01*
X149401Y174996D01*
X149379Y174946D01*
X149359Y174902D01*
X149340Y174860D01*
X149321Y174824D01*
Y174821D01*
X149315Y174813D01*
X149307Y174802D01*
X149298Y174785D01*
X149287Y174769D01*
X149274Y174747D01*
X149238Y174697D01*
X149196Y174641D01*
X149146Y174586D01*
X149091Y174530D01*
X149063Y174508D01*
X149032Y174486D01*
X149030D01*
X149024Y174481D01*
X149016Y174475D01*
X149005Y174470D01*
X148988Y174461D01*
X148969Y174450D01*
X148947Y174442D01*
X148922Y174431D01*
X148866Y174411D01*
X148800Y174392D01*
X148725Y174381D01*
X148645Y174375D01*
X148620D01*
X148592Y174378D01*
X148556Y174384D01*
X148512Y174389D01*
X148459Y174400D01*
X148404Y174414D01*
X148343Y174434D01*
X148290Y174877D01*
X148293D01*
X148296Y174874D01*
X148304D01*
X148315Y174871D01*
X148345Y174863D01*
X148381Y174855D01*
X148423Y174846D01*
X148467Y174841D01*
X148514Y174835D01*
X148559Y174832D01*
X148584D01*
X148614Y174835D01*
X148647Y174838D01*
X148689Y174846D01*
X148731Y174855D01*
X148769Y174868D01*
X148808Y174885D01*
X148814Y174888D01*
X148825Y174896D01*
X148841Y174907D01*
X148863Y174924D01*
X148888Y174943D01*
X148913Y174968D01*
X148938Y174999D01*
X148963Y175032D01*
X148966Y175035D01*
X148972Y175048D01*
X148977Y175057D01*
X148983Y175071D01*
X148988Y175084D01*
X148996Y175104D01*
X149008Y175123D01*
X149019Y175148D01*
X149030Y175179D01*
X149041Y175212D01*
X149055Y175248D01*
X149071Y175289D01*
X149088Y175334D01*
X149104Y175384D01*
Y175386D01*
X149107Y175392D01*
X149110Y175400D01*
X149116Y175411D01*
X149121Y175428D01*
X149129Y175447D01*
X149138Y175472D01*
X149149Y175497D01*
X148096Y178278D01*
X148598D01*
X149177Y176669D01*
Y176666D01*
X149182Y176655D01*
X149188Y176638D01*
X149196Y176616D01*
X149207Y176589D01*
X149218Y176555D01*
X149229Y176517D01*
X149246Y176475D01*
X149260Y176428D01*
X149276Y176378D01*
X149293Y176326D01*
X149310Y176270D01*
X149346Y176151D01*
X149379Y176026D01*
Y176029D01*
X149381Y176040D01*
X149387Y176057D01*
X149393Y176082D01*
X149401Y176109D01*
X149412Y176145D01*
X149423Y176184D01*
X149434Y176226D01*
X149448Y176273D01*
X149465Y176323D01*
X149498Y176428D01*
X149534Y176541D01*
X149575Y176658D01*
X150171Y178278D01*
X150639D01*
X149584Y175453D01*
D02*
G37*
G36*
X146648Y178337D02*
X146684Y178334D01*
X146722Y178331D01*
X146764Y178328D01*
X146855Y178317D01*
X146952Y178303D01*
X147046Y178281D01*
X147093Y178267D01*
X147135Y178253D01*
X147138D01*
X147146Y178251D01*
X147157Y178245D01*
X147171Y178240D01*
X147190Y178231D01*
X147210Y178220D01*
X147260Y178195D01*
X147312Y178165D01*
X147368Y178129D01*
X147418Y178090D01*
X147462Y178043D01*
Y178040D01*
X147467Y178037D01*
X147473Y178029D01*
X147478Y178021D01*
X147498Y177993D01*
X147520Y177954D01*
X147545Y177907D01*
X147567Y177855D01*
X147589Y177791D01*
X147609Y177722D01*
Y177716D01*
X147611Y177708D01*
Y177699D01*
X147614Y177685D01*
X147617Y177666D01*
X147620Y177647D01*
X147623Y177622D01*
Y177594D01*
X147625Y177564D01*
X147628Y177528D01*
X147631Y177489D01*
Y177445D01*
X147634Y177398D01*
Y177345D01*
Y177289D01*
Y176663D01*
Y176661D01*
Y176655D01*
Y176647D01*
Y176636D01*
Y176619D01*
Y176602D01*
Y176558D01*
Y176505D01*
X147636Y176447D01*
Y176381D01*
Y176314D01*
X147639Y176173D01*
X147642Y176104D01*
X147645Y176035D01*
X147648Y175974D01*
X147653Y175918D01*
X147656Y175871D01*
X147659Y175849D01*
X147661Y175832D01*
Y175830D01*
X147664Y175824D01*
Y175816D01*
X147667Y175802D01*
X147672Y175788D01*
X147675Y175769D01*
X147689Y175724D01*
X147706Y175674D01*
X147725Y175619D01*
X147753Y175561D01*
X147783Y175500D01*
X147293D01*
Y175503D01*
X147290Y175505D01*
X147285Y175514D01*
X147282Y175525D01*
X147274Y175539D01*
X147268Y175558D01*
X147251Y175597D01*
X147235Y175650D01*
X147218Y175708D01*
X147207Y175771D01*
X147196Y175844D01*
X147193Y175841D01*
X147185Y175832D01*
X147171Y175821D01*
X147152Y175807D01*
X147127Y175788D01*
X147099Y175769D01*
X147069Y175744D01*
X147035Y175719D01*
X146996Y175694D01*
X146958Y175669D01*
X146872Y175616D01*
X146783Y175566D01*
X146736Y175547D01*
X146692Y175528D01*
X146689D01*
X146681Y175525D01*
X146667Y175519D01*
X146650Y175514D01*
X146628Y175508D01*
X146600Y175500D01*
X146570Y175492D01*
X146537Y175483D01*
X146501Y175475D01*
X146459Y175467D01*
X146370Y175453D01*
X146276Y175442D01*
X146174Y175439D01*
X146154D01*
X146130Y175442D01*
X146099D01*
X146060Y175445D01*
X146016Y175450D01*
X145966Y175458D01*
X145914Y175467D01*
X145858Y175478D01*
X145803Y175495D01*
X145742Y175511D01*
X145684Y175533D01*
X145628Y175558D01*
X145570Y175589D01*
X145520Y175622D01*
X145470Y175661D01*
X145467Y175663D01*
X145459Y175672D01*
X145448Y175683D01*
X145431Y175702D01*
X145415Y175724D01*
X145393Y175749D01*
X145371Y175780D01*
X145348Y175816D01*
X145326Y175855D01*
X145304Y175899D01*
X145282Y175946D01*
X145265Y175996D01*
X145249Y176051D01*
X145238Y176107D01*
X145229Y176168D01*
X145227Y176231D01*
Y176234D01*
Y176240D01*
Y176251D01*
X145229Y176267D01*
Y176284D01*
X145232Y176306D01*
X145238Y176356D01*
X145249Y176411D01*
X145265Y176475D01*
X145287Y176539D01*
X145318Y176602D01*
Y176605D01*
X145324Y176611D01*
X145326Y176619D01*
X145334Y176630D01*
X145354Y176661D01*
X145382Y176699D01*
X145418Y176744D01*
X145459Y176788D01*
X145506Y176832D01*
X145559Y176874D01*
X145562D01*
X145567Y176880D01*
X145575Y176885D01*
X145587Y176891D01*
X145600Y176899D01*
X145617Y176910D01*
X145659Y176932D01*
X145709Y176957D01*
X145767Y176982D01*
X145830Y177007D01*
X145900Y177029D01*
X145902D01*
X145905Y177032D01*
X145914D01*
X145924Y177035D01*
X145941Y177037D01*
X145958Y177043D01*
X145980Y177046D01*
X146005Y177051D01*
X146033Y177057D01*
X146063Y177062D01*
X146096Y177068D01*
X146135Y177073D01*
X146177Y177079D01*
X146221Y177087D01*
X146268Y177093D01*
X146318Y177098D01*
X146323D01*
X146332Y177101D01*
X146343D01*
X146373Y177107D01*
X146412Y177109D01*
X146459Y177118D01*
X146512Y177126D01*
X146573Y177134D01*
X146636Y177145D01*
X146703Y177156D01*
X146772Y177167D01*
X146911Y177195D01*
X146980Y177212D01*
X147044Y177228D01*
X147102Y177245D01*
X147157Y177262D01*
Y177267D01*
Y177278D01*
Y177292D01*
X147160Y177312D01*
Y177353D01*
Y177370D01*
Y177384D01*
Y177386D01*
Y177398D01*
Y177411D01*
X147157Y177431D01*
Y177453D01*
X147152Y177480D01*
X147143Y177541D01*
X147127Y177608D01*
X147102Y177677D01*
X147088Y177708D01*
X147069Y177738D01*
X147049Y177763D01*
X147024Y177788D01*
X147021Y177791D01*
X147016Y177796D01*
X147005Y177802D01*
X146991Y177813D01*
X146972Y177824D01*
X146950Y177838D01*
X146922Y177855D01*
X146891Y177868D01*
X146855Y177882D01*
X146814Y177899D01*
X146772Y177913D01*
X146722Y177924D01*
X146670Y177935D01*
X146614Y177943D01*
X146553Y177946D01*
X146490Y177949D01*
X146459D01*
X146434Y177946D01*
X146406D01*
X146376Y177943D01*
X146340Y177938D01*
X146304Y177935D01*
X146224Y177921D01*
X146143Y177899D01*
X146066Y177868D01*
X146030Y177852D01*
X145999Y177830D01*
X145997D01*
X145994Y177824D01*
X145985Y177816D01*
X145974Y177807D01*
X145961Y177794D01*
X145947Y177777D01*
X145930Y177758D01*
X145911Y177735D01*
X145891Y177708D01*
X145872Y177677D01*
X145852Y177644D01*
X145836Y177608D01*
X145817Y177566D01*
X145797Y177522D01*
X145781Y177472D01*
X145767Y177420D01*
X145307Y177483D01*
Y177486D01*
X145310Y177497D01*
X145312Y177511D01*
X145318Y177533D01*
X145326Y177558D01*
X145334Y177586D01*
X145343Y177619D01*
X145357Y177652D01*
X145384Y177730D01*
X145420Y177807D01*
X145462Y177888D01*
X145512Y177960D01*
X145515Y177963D01*
X145517Y177968D01*
X145526Y177976D01*
X145539Y177990D01*
X145553Y178004D01*
X145573Y178024D01*
X145592Y178043D01*
X145617Y178062D01*
X145645Y178084D01*
X145678Y178109D01*
X145711Y178131D01*
X145747Y178154D01*
X145789Y178179D01*
X145830Y178201D01*
X145878Y178220D01*
X145927Y178240D01*
X145930D01*
X145938Y178245D01*
X145955Y178248D01*
X145974Y178256D01*
X146002Y178262D01*
X146033Y178270D01*
X146069Y178281D01*
X146107Y178289D01*
X146152Y178298D01*
X146202Y178309D01*
X146254Y178317D01*
X146310Y178323D01*
X146368Y178331D01*
X146429Y178334D01*
X146559Y178339D01*
X146617D01*
X146648Y178337D01*
D02*
G37*
G36*
X142955Y175952D02*
X144842D01*
Y175500D01*
X142448D01*
Y179334D01*
X142955D01*
Y175952D01*
D02*
G37*
G36*
X125507Y179331D02*
X125546D01*
X125587Y179328D01*
X125637Y179323D01*
X125687Y179320D01*
X125742Y179312D01*
X125801Y179306D01*
X125917Y179284D01*
X126033Y179253D01*
X126089Y179237D01*
X126138Y179215D01*
X126141D01*
X126149Y179209D01*
X126163Y179203D01*
X126183Y179192D01*
X126205Y179181D01*
X126230Y179165D01*
X126260Y179148D01*
X126291Y179126D01*
X126324Y179104D01*
X126357Y179076D01*
X126391Y179048D01*
X126426Y179015D01*
X126460Y178979D01*
X126493Y178943D01*
X126523Y178902D01*
X126554Y178857D01*
X126557Y178855D01*
X126559Y178846D01*
X126568Y178832D01*
X126579Y178816D01*
X126590Y178794D01*
X126601Y178766D01*
X126615Y178738D01*
X126631Y178705D01*
X126645Y178666D01*
X126659Y178627D01*
X126681Y178542D01*
X126701Y178447D01*
X126704Y178400D01*
X126706Y178350D01*
Y178348D01*
Y178339D01*
Y178325D01*
X126704Y178309D01*
Y178287D01*
X126698Y178262D01*
X126695Y178231D01*
X126690Y178201D01*
X126673Y178129D01*
X126648Y178051D01*
X126634Y178010D01*
X126615Y177971D01*
X126595Y177929D01*
X126571Y177888D01*
X126568Y177885D01*
X126565Y177879D01*
X126557Y177868D01*
X126546Y177852D01*
X126532Y177832D01*
X126515Y177813D01*
X126493Y177788D01*
X126471Y177763D01*
X126443Y177735D01*
X126415Y177708D01*
X126382Y177680D01*
X126346Y177649D01*
X126305Y177619D01*
X126263Y177591D01*
X126219Y177564D01*
X126169Y177539D01*
X126172D01*
X126186Y177533D01*
X126202Y177528D01*
X126227Y177519D01*
X126255Y177508D01*
X126288Y177494D01*
X126327Y177478D01*
X126366Y177456D01*
X126410Y177434D01*
X126454Y177409D01*
X126498Y177381D01*
X126543Y177348D01*
X126584Y177314D01*
X126629Y177276D01*
X126667Y177234D01*
X126704Y177190D01*
X126706Y177187D01*
X126712Y177179D01*
X126720Y177165D01*
X126734Y177145D01*
X126748Y177123D01*
X126765Y177095D01*
X126781Y177062D01*
X126798Y177026D01*
X126814Y176985D01*
X126834Y176940D01*
X126848Y176893D01*
X126861Y176841D01*
X126875Y176788D01*
X126884Y176730D01*
X126889Y176672D01*
X126892Y176611D01*
Y176608D01*
Y176600D01*
Y176583D01*
X126889Y176564D01*
Y176541D01*
X126886Y176514D01*
X126884Y176481D01*
X126878Y176447D01*
X126864Y176370D01*
X126842Y176284D01*
X126814Y176195D01*
X126776Y176107D01*
Y176104D01*
X126770Y176096D01*
X126765Y176084D01*
X126756Y176068D01*
X126745Y176049D01*
X126731Y176026D01*
X126698Y175976D01*
X126656Y175918D01*
X126609Y175860D01*
X126557Y175802D01*
X126496Y175752D01*
X126493D01*
X126488Y175747D01*
X126479Y175741D01*
X126465Y175733D01*
X126449Y175722D01*
X126429Y175710D01*
X126407Y175697D01*
X126382Y175683D01*
X126352Y175666D01*
X126321Y175652D01*
X126249Y175619D01*
X126169Y175591D01*
X126077Y175564D01*
X126075D01*
X126066Y175561D01*
X126053Y175558D01*
X126033Y175553D01*
X126008Y175550D01*
X125978Y175544D01*
X125944Y175539D01*
X125906Y175533D01*
X125864Y175525D01*
X125817Y175519D01*
X125765Y175514D01*
X125712Y175511D01*
X125654Y175505D01*
X125593Y175503D01*
X125526Y175500D01*
X124000D01*
Y179334D01*
X125476D01*
X125507Y179331D01*
D02*
G37*
G36*
X132554Y178278D02*
X133022D01*
Y177913D01*
X132554D01*
Y176287D01*
Y176284D01*
Y176278D01*
Y176267D01*
Y176253D01*
Y176220D01*
X132556Y176179D01*
X132559Y176137D01*
X132562Y176093D01*
X132568Y176057D01*
X132573Y176043D01*
X132576Y176029D01*
Y176026D01*
X132581Y176021D01*
X132587Y176010D01*
X132595Y175996D01*
X132620Y175965D01*
X132637Y175952D01*
X132656Y175938D01*
X132659D01*
X132667Y175932D01*
X132678Y175927D01*
X132698Y175921D01*
X132720Y175916D01*
X132748Y175910D01*
X132781Y175907D01*
X132817Y175904D01*
X132847D01*
X132872Y175907D01*
X132900D01*
X132936Y175913D01*
X132978Y175916D01*
X133022Y175921D01*
X133091Y175505D01*
X133088D01*
X133083Y175503D01*
X133072D01*
X133058Y175500D01*
X133041Y175497D01*
X133019Y175492D01*
X132972Y175486D01*
X132917Y175478D01*
X132856Y175470D01*
X132795Y175467D01*
X132734Y175464D01*
X132692D01*
X132670Y175467D01*
X132645Y175470D01*
X132590Y175475D01*
X132526Y175483D01*
X132460Y175497D01*
X132396Y175517D01*
X132338Y175544D01*
X132335D01*
X132332Y175547D01*
X132316Y175558D01*
X132291Y175578D01*
X132260Y175600D01*
X132227Y175630D01*
X132194Y175666D01*
X132163Y175708D01*
X132138Y175755D01*
Y175758D01*
X132135Y175760D01*
X132133Y175769D01*
X132130Y175783D01*
X132124Y175799D01*
X132122Y175819D01*
X132116Y175844D01*
X132111Y175874D01*
X132105Y175910D01*
X132099Y175949D01*
X132097Y175996D01*
X132091Y176046D01*
X132088Y176104D01*
X132086Y176165D01*
X132083Y176237D01*
Y176312D01*
Y177913D01*
X131734D01*
Y178278D01*
X132083D01*
Y178965D01*
X132554Y179248D01*
Y178278D01*
D02*
G37*
G36*
X131066D02*
X131534D01*
Y177913D01*
X131066D01*
Y176287D01*
Y176284D01*
Y176278D01*
Y176267D01*
Y176253D01*
Y176220D01*
X131069Y176179D01*
X131072Y176137D01*
X131075Y176093D01*
X131080Y176057D01*
X131086Y176043D01*
X131088Y176029D01*
Y176026D01*
X131094Y176021D01*
X131099Y176010D01*
X131108Y175996D01*
X131133Y175965D01*
X131149Y175952D01*
X131169Y175938D01*
X131172D01*
X131180Y175932D01*
X131191Y175927D01*
X131210Y175921D01*
X131233Y175916D01*
X131260Y175910D01*
X131293Y175907D01*
X131329Y175904D01*
X131360D01*
X131385Y175907D01*
X131412D01*
X131448Y175913D01*
X131490Y175916D01*
X131534Y175921D01*
X131604Y175505D01*
X131601D01*
X131595Y175503D01*
X131584D01*
X131570Y175500D01*
X131554Y175497D01*
X131532Y175492D01*
X131484Y175486D01*
X131429Y175478D01*
X131368Y175470D01*
X131307Y175467D01*
X131246Y175464D01*
X131205D01*
X131183Y175467D01*
X131158Y175470D01*
X131102Y175475D01*
X131039Y175483D01*
X130972Y175497D01*
X130908Y175517D01*
X130850Y175544D01*
X130847D01*
X130845Y175547D01*
X130828Y175558D01*
X130803Y175578D01*
X130773Y175600D01*
X130739Y175630D01*
X130706Y175666D01*
X130676Y175708D01*
X130651Y175755D01*
Y175758D01*
X130648Y175760D01*
X130645Y175769D01*
X130642Y175783D01*
X130637Y175799D01*
X130634Y175819D01*
X130629Y175844D01*
X130623Y175874D01*
X130617Y175910D01*
X130612Y175949D01*
X130609Y175996D01*
X130604Y176046D01*
X130601Y176104D01*
X130598Y176165D01*
X130595Y176237D01*
Y176312D01*
Y177913D01*
X130246D01*
Y178278D01*
X130595D01*
Y178965D01*
X131066Y179248D01*
Y178278D01*
D02*
G37*
G36*
X152235Y178337D02*
X152273Y178334D01*
X152323Y178328D01*
X152376Y178320D01*
X152437Y178309D01*
X152503Y178292D01*
X152575Y178273D01*
X152647Y178248D01*
X152725Y178217D01*
X152800Y178179D01*
X152877Y178137D01*
X152949Y178084D01*
X153021Y178026D01*
X153091Y177960D01*
X153093Y177954D01*
X153107Y177943D01*
X153124Y177921D01*
X153146Y177891D01*
X153174Y177852D01*
X153204Y177805D01*
X153235Y177749D01*
X153268Y177685D01*
X153301Y177613D01*
X153334Y177533D01*
X153362Y177445D01*
X153390Y177350D01*
X153412Y177248D01*
X153431Y177137D01*
X153442Y177018D01*
X153445Y176893D01*
Y176891D01*
Y176885D01*
Y176877D01*
Y176863D01*
Y176844D01*
Y176824D01*
X153442Y176799D01*
Y176769D01*
X151370Y176769D01*
Y176763D01*
X151373Y176749D01*
Y176724D01*
X151379Y176694D01*
X151384Y176655D01*
X151390Y176611D01*
X151401Y176564D01*
X151412Y176511D01*
X151426Y176453D01*
X151445Y176398D01*
X151465Y176339D01*
X151489Y176281D01*
X151517Y176223D01*
X151550Y176168D01*
X151586Y176115D01*
X151628Y176068D01*
X151631Y176065D01*
X151639Y176057D01*
X151653Y176046D01*
X151670Y176029D01*
X151692Y176012D01*
X151719Y175993D01*
X151753Y175971D01*
X151789Y175949D01*
X151827Y175924D01*
X151872Y175904D01*
X151919Y175882D01*
X151971Y175866D01*
X152027Y175849D01*
X152085Y175838D01*
X152146Y175830D01*
X152210Y175827D01*
X152235D01*
X152254Y175830D01*
X152276Y175832D01*
X152301Y175835D01*
X152332Y175838D01*
X152362Y175844D01*
X152431Y175860D01*
X152506Y175885D01*
X152545Y175899D01*
X152581Y175918D01*
X152617Y175938D01*
X152653Y175963D01*
X152656Y175965D01*
X152661Y175968D01*
X152670Y175976D01*
X152683Y175988D01*
X152700Y176004D01*
X152717Y176021D01*
X152736Y176043D01*
X152758Y176068D01*
X152780Y176098D01*
X152805Y176129D01*
X152827Y176165D01*
X152852Y176204D01*
X152877Y176248D01*
X152899Y176295D01*
X152922Y176345D01*
X152944Y176400D01*
X153428Y176337D01*
Y176331D01*
X153423Y176317D01*
X153415Y176295D01*
X153406Y176267D01*
X153393Y176231D01*
X153376Y176190D01*
X153357Y176143D01*
X153331Y176093D01*
X153304Y176043D01*
X153273Y175988D01*
X153237Y175932D01*
X153199Y175877D01*
X153157Y175824D01*
X153110Y175771D01*
X153057Y175722D01*
X153002Y175674D01*
X152999Y175672D01*
X152988Y175663D01*
X152971Y175652D01*
X152946Y175638D01*
X152916Y175619D01*
X152877Y175600D01*
X152836Y175578D01*
X152786Y175558D01*
X152730Y175536D01*
X152672Y175514D01*
X152606Y175495D01*
X152536Y175475D01*
X152462Y175461D01*
X152381Y175450D01*
X152296Y175442D01*
X152207Y175439D01*
X152179D01*
X152165Y175442D01*
X152149D01*
X152107Y175445D01*
X152055Y175450D01*
X151996Y175458D01*
X151930Y175470D01*
X151858Y175486D01*
X151783Y175505D01*
X151703Y175531D01*
X151622Y175561D01*
X151542Y175597D01*
X151462Y175638D01*
X151384Y175688D01*
X151309Y175747D01*
X151240Y175813D01*
X151237Y175819D01*
X151226Y175830D01*
X151207Y175852D01*
X151185Y175882D01*
X151157Y175921D01*
X151129Y175968D01*
X151096Y176021D01*
X151063Y176084D01*
X151030Y176156D01*
X150999Y176234D01*
X150969Y176320D01*
X150941Y176414D01*
X150919Y176517D01*
X150902Y176625D01*
X150888Y176741D01*
X150886Y176866D01*
Y176868D01*
Y176874D01*
Y176882D01*
Y176896D01*
X150888Y176913D01*
Y176932D01*
Y176954D01*
X150891Y176982D01*
X150897Y177040D01*
X150905Y177107D01*
X150916Y177181D01*
X150930Y177264D01*
X150949Y177348D01*
X150974Y177436D01*
X151002Y177528D01*
X151038Y177619D01*
X151079Y177708D01*
X151127Y177794D01*
X151182Y177877D01*
X151246Y177951D01*
X151251Y177957D01*
X151262Y177968D01*
X151282Y177988D01*
X151312Y178012D01*
X151348Y178043D01*
X151390Y178073D01*
X151440Y178109D01*
X151498Y178145D01*
X151561Y178181D01*
X151634Y178217D01*
X151708Y178251D01*
X151791Y178278D01*
X151883Y178303D01*
X151977Y178323D01*
X152077Y178334D01*
X152182Y178339D01*
X152207D01*
X152235Y178337D01*
D02*
G37*
G36*
X134662D02*
X134701Y178334D01*
X134750Y178328D01*
X134806Y178320D01*
X134870Y178309D01*
X134939Y178292D01*
X135011Y178273D01*
X135088Y178248D01*
X135166Y178217D01*
X135243Y178181D01*
X135321Y178137D01*
X135399Y178087D01*
X135473Y178029D01*
X135543Y177963D01*
X135548Y177957D01*
X135559Y177946D01*
X135576Y177924D01*
X135601Y177893D01*
X135628Y177855D01*
X135659Y177810D01*
X135692Y177755D01*
X135725Y177694D01*
X135759Y177622D01*
X135792Y177544D01*
X135822Y177461D01*
X135850Y177367D01*
X135875Y177267D01*
X135892Y177162D01*
X135906Y177048D01*
X135908Y176927D01*
Y176924D01*
Y176921D01*
Y176913D01*
Y176904D01*
Y176874D01*
X135906Y176838D01*
X135903Y176794D01*
X135900Y176741D01*
X135894Y176683D01*
X135889Y176622D01*
X135880Y176555D01*
X135870Y176486D01*
X135856Y176417D01*
X135839Y176345D01*
X135820Y176276D01*
X135800Y176209D01*
X135773Y176145D01*
X135745Y176084D01*
X135742Y176082D01*
X135737Y176071D01*
X135728Y176054D01*
X135714Y176035D01*
X135698Y176007D01*
X135678Y175979D01*
X135653Y175946D01*
X135626Y175910D01*
X135595Y175871D01*
X135559Y175832D01*
X135520Y175794D01*
X135479Y175755D01*
X135435Y175716D01*
X135385Y175677D01*
X135332Y175641D01*
X135277Y175608D01*
X135274Y175605D01*
X135263Y175600D01*
X135246Y175591D01*
X135224Y175583D01*
X135194Y175569D01*
X135160Y175555D01*
X135122Y175539D01*
X135080Y175525D01*
X135030Y175508D01*
X134980Y175492D01*
X134925Y175478D01*
X134867Y175467D01*
X134803Y175456D01*
X134739Y175447D01*
X134676Y175442D01*
X134606Y175439D01*
X134581D01*
X134568Y175442D01*
X134551D01*
X134509Y175445D01*
X134459Y175450D01*
X134404Y175458D01*
X134340Y175470D01*
X134271Y175486D01*
X134196Y175505D01*
X134122Y175531D01*
X134041Y175561D01*
X133964Y175597D01*
X133886Y175638D01*
X133809Y175688D01*
X133734Y175744D01*
X133665Y175810D01*
X133662Y175816D01*
X133648Y175827D01*
X133631Y175849D01*
X133609Y175880D01*
X133581Y175918D01*
X133551Y175965D01*
X133520Y176021D01*
X133487Y176084D01*
X133454Y176156D01*
X133421Y176237D01*
X133390Y176326D01*
X133363Y176422D01*
X133340Y176528D01*
X133324Y176638D01*
X133310Y176760D01*
X133307Y176888D01*
Y176891D01*
Y176896D01*
Y176907D01*
Y176921D01*
X133310Y176940D01*
Y176963D01*
X133313Y176988D01*
Y177015D01*
X133316Y177046D01*
X133321Y177079D01*
X133329Y177151D01*
X133343Y177231D01*
X133360Y177320D01*
X133382Y177411D01*
X133413Y177506D01*
X133446Y177600D01*
X133487Y177694D01*
X133537Y177785D01*
X133592Y177874D01*
X133659Y177954D01*
X133734Y178029D01*
X133739Y178032D01*
X133750Y178043D01*
X133770Y178057D01*
X133798Y178079D01*
X133834Y178101D01*
X133875Y178126D01*
X133922Y178156D01*
X133977Y178184D01*
X134038Y178212D01*
X134105Y178242D01*
X134177Y178267D01*
X134255Y178292D01*
X134335Y178312D01*
X134421Y178325D01*
X134512Y178337D01*
X134606Y178339D01*
X134645D01*
X134662Y178337D01*
D02*
G37*
G36*
X128709D02*
X128748Y178334D01*
X128798Y178328D01*
X128853Y178320D01*
X128917Y178309D01*
X128986Y178292D01*
X129058Y178273D01*
X129136Y178248D01*
X129213Y178217D01*
X129291Y178181D01*
X129368Y178137D01*
X129446Y178087D01*
X129521Y178029D01*
X129590Y177963D01*
X129595Y177957D01*
X129606Y177946D01*
X129623Y177924D01*
X129648Y177893D01*
X129676Y177855D01*
X129706Y177810D01*
X129739Y177755D01*
X129773Y177694D01*
X129806Y177622D01*
X129839Y177544D01*
X129870Y177461D01*
X129897Y177367D01*
X129922Y177267D01*
X129939Y177162D01*
X129953Y177048D01*
X129955Y176927D01*
Y176924D01*
Y176921D01*
Y176913D01*
Y176904D01*
Y176874D01*
X129953Y176838D01*
X129950Y176794D01*
X129947Y176741D01*
X129942Y176683D01*
X129936Y176622D01*
X129928Y176555D01*
X129917Y176486D01*
X129903Y176417D01*
X129886Y176345D01*
X129867Y176276D01*
X129848Y176209D01*
X129820Y176145D01*
X129792Y176084D01*
X129789Y176082D01*
X129784Y176071D01*
X129776Y176054D01*
X129762Y176035D01*
X129745Y176007D01*
X129726Y175979D01*
X129701Y175946D01*
X129673Y175910D01*
X129642Y175871D01*
X129606Y175832D01*
X129568Y175794D01*
X129526Y175755D01*
X129482Y175716D01*
X129432Y175677D01*
X129379Y175641D01*
X129324Y175608D01*
X129321Y175605D01*
X129310Y175600D01*
X129294Y175591D01*
X129271Y175583D01*
X129241Y175569D01*
X129208Y175555D01*
X129169Y175539D01*
X129127Y175525D01*
X129077Y175508D01*
X129027Y175492D01*
X128972Y175478D01*
X128914Y175467D01*
X128850Y175456D01*
X128787Y175447D01*
X128723Y175442D01*
X128654Y175439D01*
X128629D01*
X128615Y175442D01*
X128598D01*
X128557Y175445D01*
X128507Y175450D01*
X128451Y175458D01*
X128388Y175470D01*
X128318Y175486D01*
X128244Y175505D01*
X128169Y175531D01*
X128088Y175561D01*
X128011Y175597D01*
X127933Y175638D01*
X127856Y175688D01*
X127781Y175744D01*
X127712Y175810D01*
X127709Y175816D01*
X127695Y175827D01*
X127679Y175849D01*
X127656Y175880D01*
X127629Y175918D01*
X127598Y175965D01*
X127568Y176021D01*
X127534Y176084D01*
X127501Y176156D01*
X127468Y176237D01*
X127438Y176326D01*
X127410Y176422D01*
X127388Y176528D01*
X127371Y176638D01*
X127357Y176760D01*
X127355Y176888D01*
Y176891D01*
Y176896D01*
Y176907D01*
Y176921D01*
X127357Y176940D01*
Y176963D01*
X127360Y176988D01*
Y177015D01*
X127363Y177046D01*
X127368Y177079D01*
X127377Y177151D01*
X127391Y177231D01*
X127407Y177320D01*
X127429Y177411D01*
X127460Y177506D01*
X127493Y177600D01*
X127534Y177694D01*
X127584Y177785D01*
X127640Y177874D01*
X127706Y177954D01*
X127781Y178029D01*
X127787Y178032D01*
X127798Y178043D01*
X127817Y178057D01*
X127845Y178079D01*
X127881Y178101D01*
X127922Y178126D01*
X127969Y178156D01*
X128025Y178184D01*
X128086Y178212D01*
X128152Y178242D01*
X128224Y178267D01*
X128302Y178292D01*
X128382Y178312D01*
X128468Y178325D01*
X128559Y178337D01*
X128654Y178339D01*
X128692D01*
X128709Y178337D01*
D02*
G37*
%LPC*%
G36*
X295000Y447632D02*
Y441000D01*
X301632D01*
X301286Y442139D01*
X300408Y443784D01*
X299225Y445225D01*
X297784Y446408D01*
X296139Y447286D01*
X295000Y447632D01*
D02*
G37*
G36*
X290000D02*
X288861Y447286D01*
X287216Y446408D01*
X285775Y445225D01*
X284592Y443784D01*
X283714Y442139D01*
X283368Y441000D01*
X290000D01*
Y447632D01*
D02*
G37*
G36*
X135000D02*
Y441000D01*
X141632D01*
X141286Y442139D01*
X140408Y443784D01*
X139225Y445225D01*
X137784Y446408D01*
X136140Y447286D01*
X135000Y447632D01*
D02*
G37*
G36*
X130000D02*
X128860Y447286D01*
X127216Y446408D01*
X125775Y445225D01*
X124592Y443784D01*
X123714Y442139D01*
X123368Y441000D01*
X130000D01*
Y447632D01*
D02*
G37*
G36*
X329000Y445939D02*
X327646Y445806D01*
X326345Y445411D01*
X325145Y444769D01*
X324093Y443906D01*
X323231Y442855D01*
X322589Y441655D01*
X322194Y440354D01*
X322061Y439000D01*
X322194Y437646D01*
X322589Y436345D01*
X323231Y435145D01*
X324093Y434093D01*
X325145Y433230D01*
X326345Y432589D01*
X327646Y432194D01*
X329000Y432061D01*
X330354Y432194D01*
X331655Y432589D01*
X332855Y433230D01*
X333907Y434093D01*
X334770Y435145D01*
X335411Y436345D01*
X335806Y437646D01*
X335939Y439000D01*
X335806Y440354D01*
X335411Y441655D01*
X334770Y442855D01*
X333907Y443906D01*
X332855Y444769D01*
X331655Y445411D01*
X330354Y445806D01*
X329000Y445939D01*
D02*
G37*
G36*
X301632Y436000D02*
X295000D01*
Y429368D01*
X296139Y429714D01*
X297784Y430592D01*
X299225Y431775D01*
X300408Y433216D01*
X301286Y434861D01*
X301632Y436000D01*
D02*
G37*
G36*
X290000D02*
X283368D01*
X283714Y434861D01*
X284592Y433216D01*
X285775Y431775D01*
X287216Y430592D01*
X288861Y429714D01*
X290000Y429368D01*
Y436000D01*
D02*
G37*
G36*
X141632D02*
X135000D01*
Y429368D01*
X136140Y429714D01*
X137784Y430592D01*
X139225Y431775D01*
X140408Y433216D01*
X141286Y434861D01*
X141632Y436000D01*
D02*
G37*
G36*
X130000D02*
X123368D01*
X123714Y434861D01*
X124592Y433216D01*
X125775Y431775D01*
X127216Y430592D01*
X128860Y429714D01*
X130000Y429368D01*
Y436000D01*
D02*
G37*
G36*
X331500Y429458D02*
Y425500D01*
X335458D01*
X335411Y425655D01*
X334770Y426855D01*
X333907Y427907D01*
X332855Y428769D01*
X331655Y429411D01*
X331500Y429458D01*
D02*
G37*
G36*
X326500Y429458D02*
X326345Y429411D01*
X325145Y428769D01*
X324093Y427907D01*
X323231Y426855D01*
X322589Y425655D01*
X322542Y425500D01*
X326500D01*
Y429458D01*
D02*
G37*
G36*
X239105Y422308D02*
Y421000D01*
X240414D01*
X239845Y421740D01*
X239105Y422308D01*
D02*
G37*
G36*
X234105Y422308D02*
X233365Y421740D01*
X232797Y421000D01*
X234105D01*
Y422308D01*
D02*
G37*
G36*
X326500Y420500D02*
X322542D01*
X322589Y420345D01*
X323231Y419145D01*
X324093Y418093D01*
X325145Y417231D01*
X326345Y416589D01*
X326500Y416542D01*
Y420500D01*
D02*
G37*
G36*
X335458D02*
X331500D01*
Y416542D01*
X331655Y416589D01*
X332855Y417231D01*
X333907Y418093D01*
X334770Y419145D01*
X335411Y420345D01*
X335458Y420500D01*
D02*
G37*
G36*
X234105Y416000D02*
X232797D01*
X233365Y415260D01*
X234105Y414692D01*
Y416000D01*
D02*
G37*
G36*
X240414D02*
X239105D01*
Y414692D01*
X239845Y415260D01*
X240414Y416000D01*
D02*
G37*
G36*
X236605Y413083D02*
X235419Y412926D01*
X234314Y412469D01*
X233365Y411740D01*
X232637Y410791D01*
X232179Y409686D01*
X232023Y408500D01*
X232179Y407314D01*
X232637Y406209D01*
X233365Y405260D01*
X234314Y404531D01*
X235419Y404074D01*
X236605Y403918D01*
X237791Y404074D01*
X238896Y404531D01*
X239845Y405260D01*
X240574Y406209D01*
X241032Y407314D01*
X241188Y408500D01*
X241032Y409686D01*
X240574Y410791D01*
X239845Y411740D01*
X238896Y412469D01*
X237791Y412926D01*
X236605Y413083D01*
D02*
G37*
G36*
X141000Y412439D02*
X139646Y412306D01*
X138345Y411911D01*
X137145Y411270D01*
X136093Y410406D01*
X135231Y409355D01*
X134589Y408155D01*
X134194Y406854D01*
X134061Y405500D01*
X134194Y404146D01*
X134589Y402845D01*
X135231Y401645D01*
X136093Y400593D01*
X137145Y399730D01*
X138345Y399089D01*
X139646Y398694D01*
X141000Y398561D01*
X142354Y398694D01*
X143655Y399089D01*
X144855Y399730D01*
X145907Y400593D01*
X146769Y401645D01*
X147411Y402845D01*
X147806Y404146D01*
X147939Y405500D01*
X147806Y406854D01*
X147411Y408155D01*
X146769Y409355D01*
X145907Y410406D01*
X144855Y411270D01*
X143655Y411911D01*
X142354Y412306D01*
X141000Y412439D01*
D02*
G37*
G36*
X143500Y395958D02*
Y392000D01*
X147458D01*
X147411Y392155D01*
X146769Y393355D01*
X145907Y394407D01*
X144855Y395269D01*
X143655Y395911D01*
X143500Y395958D01*
D02*
G37*
G36*
X138500Y395958D02*
X138345Y395911D01*
X137145Y395269D01*
X136093Y394407D01*
X135231Y393355D01*
X134589Y392155D01*
X134542Y392000D01*
X138500D01*
Y395958D01*
D02*
G37*
G36*
X329000Y397272D02*
X327646Y397139D01*
X326345Y396744D01*
X325145Y396103D01*
X324093Y395240D01*
X323231Y394188D01*
X322589Y392989D01*
X322194Y391687D01*
X322061Y390333D01*
X322194Y388980D01*
X322589Y387678D01*
X323231Y386478D01*
X324093Y385427D01*
X325145Y384564D01*
X326345Y383923D01*
X327646Y383528D01*
X329000Y383394D01*
X330354Y383528D01*
X331655Y383923D01*
X332855Y384564D01*
X333907Y385427D01*
X334770Y386478D01*
X335411Y387678D01*
X335806Y388980D01*
X335939Y390333D01*
X335806Y391687D01*
X335411Y392989D01*
X334770Y394188D01*
X333907Y395240D01*
X332855Y396103D01*
X331655Y396744D01*
X330354Y397139D01*
X329000Y397272D01*
D02*
G37*
G36*
X147458Y387000D02*
X143500D01*
Y383042D01*
X143655Y383089D01*
X144855Y383731D01*
X145907Y384593D01*
X146769Y385645D01*
X147411Y386845D01*
X147458Y387000D01*
D02*
G37*
G36*
X138500D02*
X134542D01*
X134589Y386845D01*
X135231Y385645D01*
X136093Y384593D01*
X137145Y383731D01*
X138345Y383089D01*
X138500Y383042D01*
Y387000D01*
D02*
G37*
G36*
X331500Y380791D02*
Y376833D01*
X335458D01*
X335411Y376989D01*
X334770Y378188D01*
X333907Y379240D01*
X332855Y380103D01*
X331655Y380744D01*
X331500Y380791D01*
D02*
G37*
G36*
X326500D02*
X326345Y380744D01*
X325145Y380103D01*
X324093Y379240D01*
X323231Y378188D01*
X322589Y376989D01*
X322542Y376833D01*
X326500D01*
Y380791D01*
D02*
G37*
G36*
X335458Y371833D02*
X331500D01*
Y367876D01*
X331655Y367923D01*
X332855Y368564D01*
X333907Y369427D01*
X334770Y370478D01*
X335411Y371678D01*
X335458Y371833D01*
D02*
G37*
G36*
X326500D02*
X322542D01*
X322589Y371678D01*
X323231Y370478D01*
X324093Y369427D01*
X325145Y368564D01*
X326345Y367923D01*
X326500Y367876D01*
Y371833D01*
D02*
G37*
G36*
X141000Y363106D02*
X139646Y362972D01*
X138345Y362577D01*
X137145Y361936D01*
X136093Y361073D01*
X135231Y360022D01*
X134589Y358822D01*
X134194Y357520D01*
X134061Y356167D01*
X134194Y354813D01*
X134589Y353511D01*
X135231Y352312D01*
X136093Y351260D01*
X137145Y350397D01*
X138345Y349756D01*
X139646Y349361D01*
X141000Y349228D01*
X142354Y349361D01*
X143655Y349756D01*
X144855Y350397D01*
X145907Y351260D01*
X146769Y352312D01*
X147411Y353511D01*
X147806Y354813D01*
X147939Y356167D01*
X147806Y357520D01*
X147411Y358822D01*
X146769Y360022D01*
X145907Y361073D01*
X144855Y361936D01*
X143655Y362577D01*
X142354Y362972D01*
X141000Y363106D01*
D02*
G37*
G36*
X143500Y346624D02*
Y342667D01*
X147458D01*
X147411Y342822D01*
X146769Y344022D01*
X145907Y345073D01*
X144855Y345936D01*
X143655Y346577D01*
X143500Y346624D01*
D02*
G37*
G36*
X138500Y346624D02*
X138345Y346577D01*
X137145Y345936D01*
X136093Y345073D01*
X135231Y344022D01*
X134589Y342822D01*
X134542Y342667D01*
X138500D01*
Y346624D01*
D02*
G37*
G36*
X329000Y348606D02*
X327646Y348472D01*
X326345Y348077D01*
X325145Y347436D01*
X324093Y346573D01*
X323231Y345522D01*
X322589Y344322D01*
X322194Y343020D01*
X322061Y341667D01*
X322194Y340313D01*
X322589Y339011D01*
X323231Y337812D01*
X324093Y336760D01*
X325145Y335897D01*
X326345Y335256D01*
X327646Y334861D01*
X329000Y334728D01*
X330354Y334861D01*
X331655Y335256D01*
X332855Y335897D01*
X333907Y336760D01*
X334770Y337812D01*
X335411Y339011D01*
X335806Y340313D01*
X335939Y341667D01*
X335806Y343020D01*
X335411Y344322D01*
X334770Y345522D01*
X333907Y346573D01*
X332855Y347436D01*
X331655Y348077D01*
X330354Y348472D01*
X329000Y348606D01*
D02*
G37*
G36*
X138500Y337667D02*
X134542D01*
X134589Y337511D01*
X135231Y336312D01*
X136093Y335260D01*
X137145Y334397D01*
X138345Y333756D01*
X138500Y333709D01*
Y337667D01*
D02*
G37*
G36*
X147458D02*
X143500D01*
Y333709D01*
X143655Y333756D01*
X144855Y334397D01*
X145907Y335260D01*
X146769Y336312D01*
X147411Y337511D01*
X147458Y337667D01*
D02*
G37*
G36*
X241605Y333308D02*
Y332000D01*
X242914D01*
X242345Y332740D01*
X241605Y333308D01*
D02*
G37*
G36*
X236605Y333308D02*
X235865Y332740D01*
X235297Y332000D01*
X236605D01*
Y333308D01*
D02*
G37*
G36*
X331500Y332124D02*
Y328167D01*
X335458D01*
X335411Y328322D01*
X334770Y329522D01*
X333907Y330573D01*
X332855Y331436D01*
X331655Y332077D01*
X331500Y332124D01*
D02*
G37*
G36*
X326500D02*
X326345Y332077D01*
X325145Y331436D01*
X324093Y330573D01*
X323231Y329522D01*
X322589Y328322D01*
X322542Y328167D01*
X326500D01*
Y332124D01*
D02*
G37*
G36*
X236605Y327000D02*
X235297D01*
X235865Y326260D01*
X236605Y325692D01*
Y327000D01*
D02*
G37*
G36*
X242914D02*
X241605D01*
Y325692D01*
X242345Y326260D01*
X242914Y327000D01*
D02*
G37*
G36*
X249105Y334083D02*
X247919Y333926D01*
X246814Y333469D01*
X245865Y332740D01*
X245137Y331791D01*
X244679Y330686D01*
X244523Y329500D01*
X244679Y328314D01*
X245137Y327209D01*
X245865Y326260D01*
X246814Y325531D01*
X247919Y325074D01*
X249105Y324918D01*
X250291Y325074D01*
X251396Y325531D01*
X252345Y326260D01*
X253074Y327209D01*
X253532Y328314D01*
X253688Y329500D01*
X253532Y330686D01*
X253074Y331791D01*
X252345Y332740D01*
X251396Y333469D01*
X250291Y333926D01*
X249105Y334083D01*
D02*
G37*
G36*
X335458Y323167D02*
X331500D01*
Y319209D01*
X331655Y319256D01*
X332855Y319897D01*
X333907Y320760D01*
X334770Y321812D01*
X335411Y323011D01*
X335458Y323167D01*
D02*
G37*
G36*
X326500D02*
X322542D01*
X322589Y323011D01*
X323231Y321812D01*
X324093Y320760D01*
X325145Y319897D01*
X326345Y319256D01*
X326500Y319209D01*
Y323167D01*
D02*
G37*
G36*
X141000Y313772D02*
X139646Y313639D01*
X138345Y313244D01*
X137145Y312603D01*
X136093Y311740D01*
X135231Y310688D01*
X134589Y309489D01*
X134194Y308187D01*
X134061Y306833D01*
X134194Y305480D01*
X134589Y304178D01*
X135231Y302978D01*
X136093Y301927D01*
X137145Y301064D01*
X138345Y300423D01*
X139646Y300028D01*
X141000Y299894D01*
X142354Y300028D01*
X143655Y300423D01*
X144855Y301064D01*
X145907Y301927D01*
X146769Y302978D01*
X147411Y304178D01*
X147806Y305480D01*
X147939Y306833D01*
X147806Y308187D01*
X147411Y309489D01*
X146769Y310688D01*
X145907Y311740D01*
X144855Y312603D01*
X143655Y313244D01*
X142354Y313639D01*
X141000Y313772D01*
D02*
G37*
G36*
X143500Y297291D02*
Y293333D01*
X147458D01*
X147411Y293489D01*
X146769Y294688D01*
X145907Y295740D01*
X144855Y296603D01*
X143655Y297244D01*
X143500Y297291D01*
D02*
G37*
G36*
X138500Y297291D02*
X138345Y297244D01*
X137145Y296603D01*
X136093Y295740D01*
X135231Y294688D01*
X134589Y293489D01*
X134542Y293333D01*
X138500D01*
Y297291D01*
D02*
G37*
G36*
X238500Y293464D02*
Y292155D01*
X239808D01*
X239240Y292896D01*
X238500Y293464D01*
D02*
G37*
G36*
X233500Y293464D02*
X232760Y292896D01*
X232192Y292155D01*
X233500D01*
Y293464D01*
D02*
G37*
G36*
X329000Y299939D02*
X327646Y299806D01*
X326345Y299411D01*
X325145Y298769D01*
X324093Y297907D01*
X323231Y296855D01*
X322589Y295655D01*
X322194Y294354D01*
X322061Y293000D01*
X322194Y291646D01*
X322589Y290345D01*
X323231Y289145D01*
X324093Y288093D01*
X325145Y287230D01*
X326345Y286589D01*
X327646Y286194D01*
X329000Y286061D01*
X330354Y286194D01*
X331655Y286589D01*
X332855Y287230D01*
X333907Y288093D01*
X334770Y289145D01*
X335411Y290345D01*
X335806Y291646D01*
X335939Y293000D01*
X335806Y294354D01*
X335411Y295655D01*
X334770Y296855D01*
X333907Y297907D01*
X332855Y298769D01*
X331655Y299411D01*
X330354Y299806D01*
X329000Y299939D01*
D02*
G37*
G36*
X233500Y287155D02*
X232192D01*
X232760Y286415D01*
X233500Y285847D01*
Y287155D01*
D02*
G37*
G36*
X239808D02*
X238500D01*
Y285847D01*
X239240Y286415D01*
X239808Y287155D01*
D02*
G37*
G36*
X138500Y288333D02*
X134542D01*
X134589Y288178D01*
X135231Y286978D01*
X136093Y285927D01*
X137145Y285064D01*
X138345Y284423D01*
X138500Y284376D01*
Y288333D01*
D02*
G37*
G36*
X147458D02*
X143500D01*
Y284376D01*
X143655Y284423D01*
X144855Y285064D01*
X145907Y285927D01*
X146769Y286978D01*
X147411Y288178D01*
X147458Y288333D01*
D02*
G37*
G36*
X331500Y283458D02*
Y279500D01*
X335458D01*
X335411Y279655D01*
X334770Y280855D01*
X333907Y281907D01*
X332855Y282769D01*
X331655Y283411D01*
X331500Y283458D01*
D02*
G37*
G36*
X326500D02*
X326345Y283411D01*
X325145Y282769D01*
X324093Y281907D01*
X323231Y280855D01*
X322589Y279655D01*
X322542Y279500D01*
X326500D01*
Y283458D01*
D02*
G37*
G36*
X236000Y284238D02*
X234814Y284082D01*
X233709Y283624D01*
X232760Y282896D01*
X232031Y281947D01*
X231574Y280841D01*
X231417Y279655D01*
X231574Y278469D01*
X232031Y277364D01*
X232760Y276415D01*
X233709Y275687D01*
X234814Y275229D01*
X236000Y275073D01*
X237186Y275229D01*
X238291Y275687D01*
X239240Y276415D01*
X239969Y277364D01*
X240426Y278469D01*
X240582Y279655D01*
X240426Y280841D01*
X239969Y281947D01*
X239240Y282896D01*
X238291Y283624D01*
X237186Y284082D01*
X236000Y284238D01*
D02*
G37*
G36*
X335458Y274500D02*
X331500D01*
Y270542D01*
X331655Y270589D01*
X332855Y271231D01*
X333907Y272093D01*
X334770Y273145D01*
X335411Y274345D01*
X335458Y274500D01*
D02*
G37*
G36*
X326500D02*
X322542D01*
X322589Y274345D01*
X323231Y273145D01*
X324093Y272093D01*
X325145Y271231D01*
X326345Y270589D01*
X326500Y270542D01*
Y274500D01*
D02*
G37*
G36*
X141000Y264439D02*
X139646Y264306D01*
X138345Y263911D01*
X137145Y263269D01*
X136093Y262407D01*
X135231Y261355D01*
X134589Y260155D01*
X134194Y258854D01*
X134061Y257500D01*
X134194Y256146D01*
X134589Y254845D01*
X135231Y253645D01*
X136093Y252593D01*
X137145Y251730D01*
X138345Y251089D01*
X139646Y250694D01*
X141000Y250561D01*
X142354Y250694D01*
X143655Y251089D01*
X144855Y251730D01*
X145907Y252593D01*
X146769Y253645D01*
X147411Y254845D01*
X147806Y256146D01*
X147939Y257500D01*
X147806Y258854D01*
X147411Y260155D01*
X146769Y261355D01*
X145907Y262407D01*
X144855Y263269D01*
X143655Y263911D01*
X142354Y264306D01*
X141000Y264439D01*
D02*
G37*
G36*
X143500Y247958D02*
Y244000D01*
X147458D01*
X147411Y244155D01*
X146769Y245355D01*
X145907Y246407D01*
X144855Y247270D01*
X143655Y247911D01*
X143500Y247958D01*
D02*
G37*
G36*
X138500D02*
X138345Y247911D01*
X137145Y247270D01*
X136093Y246407D01*
X135231Y245355D01*
X134589Y244155D01*
X134542Y244000D01*
X138500D01*
Y247958D01*
D02*
G37*
G36*
X328500Y251124D02*
X327146Y250991D01*
X325845Y250596D01*
X324645Y249955D01*
X323593Y249092D01*
X322730Y248040D01*
X322089Y246841D01*
X321694Y245539D01*
X321561Y244185D01*
X321694Y242831D01*
X322089Y241530D01*
X322730Y240330D01*
X323593Y239279D01*
X324645Y238416D01*
X325845Y237774D01*
X327146Y237379D01*
X328500Y237246D01*
X329854Y237379D01*
X331155Y237774D01*
X332355Y238416D01*
X333407Y239279D01*
X334269Y240330D01*
X334911Y241530D01*
X335306Y242831D01*
X335439Y244185D01*
X335306Y245539D01*
X334911Y246841D01*
X334269Y248040D01*
X333407Y249092D01*
X332355Y249955D01*
X331155Y250596D01*
X329854Y250991D01*
X328500Y251124D01*
D02*
G37*
G36*
X147458Y239000D02*
X143500D01*
Y235042D01*
X143655Y235089D01*
X144855Y235731D01*
X145907Y236593D01*
X146769Y237645D01*
X147411Y238845D01*
X147458Y239000D01*
D02*
G37*
G36*
X138500D02*
X134542D01*
X134589Y238845D01*
X135231Y237645D01*
X136093Y236593D01*
X137145Y235731D01*
X138345Y235089D01*
X138500Y235042D01*
Y239000D01*
D02*
G37*
G36*
X331000Y230958D02*
Y227000D01*
X334958D01*
X334911Y227155D01*
X334269Y228355D01*
X333407Y229407D01*
X332355Y230270D01*
X331155Y230911D01*
X331000Y230958D01*
D02*
G37*
G36*
X326000D02*
X325845Y230911D01*
X324645Y230270D01*
X323593Y229407D01*
X322730Y228355D01*
X322089Y227155D01*
X322042Y227000D01*
X326000D01*
Y230958D01*
D02*
G37*
G36*
X334958Y222000D02*
X331000D01*
Y218042D01*
X331155Y218089D01*
X332355Y218730D01*
X333407Y219593D01*
X334269Y220645D01*
X334911Y221845D01*
X334958Y222000D01*
D02*
G37*
G36*
X326000D02*
X322042D01*
X322089Y221845D01*
X322730Y220645D01*
X323593Y219593D01*
X324645Y218730D01*
X325845Y218089D01*
X326000Y218042D01*
Y222000D01*
D02*
G37*
G36*
X244000Y219272D02*
X242814Y219116D01*
X241709Y218658D01*
X240760Y217930D01*
X240031Y216981D01*
X239574Y215876D01*
X239418Y214690D01*
X239574Y213504D01*
X240031Y212399D01*
X240760Y211450D01*
X241709Y210721D01*
X242814Y210263D01*
X244000Y210107D01*
X245186Y210263D01*
X246291Y210721D01*
X247240Y211450D01*
X247969Y212399D01*
X248426Y213504D01*
X248583Y214690D01*
X248426Y215876D01*
X247969Y216981D01*
X247240Y217930D01*
X246291Y218658D01*
X245186Y219116D01*
X244000Y219272D01*
D02*
G37*
G36*
X266000Y216632D02*
Y210000D01*
X272632D01*
X272286Y211139D01*
X271408Y212784D01*
X270225Y214225D01*
X268784Y215408D01*
X267139Y216286D01*
X266000Y216632D01*
D02*
G37*
G36*
X261000D02*
X259861Y216286D01*
X258216Y215408D01*
X256775Y214225D01*
X255592Y212784D01*
X254714Y211139D01*
X254368Y210000D01*
X261000D01*
Y216632D01*
D02*
G37*
G36*
X135000D02*
Y210000D01*
X141632D01*
X141286Y211139D01*
X140408Y212784D01*
X139225Y214225D01*
X137784Y215408D01*
X136140Y216286D01*
X135000Y216632D01*
D02*
G37*
G36*
X130000D02*
X128860Y216286D01*
X127216Y215408D01*
X125775Y214225D01*
X124592Y212784D01*
X123714Y211139D01*
X123368Y210000D01*
X130000D01*
Y216632D01*
D02*
G37*
G36*
X246500Y208498D02*
Y207190D01*
X247808D01*
X247240Y207930D01*
X246500Y208498D01*
D02*
G37*
G36*
X241500Y208498D02*
X240760Y207930D01*
X240192Y207190D01*
X241500D01*
Y208498D01*
D02*
G37*
G36*
Y202190D02*
X240192D01*
X240760Y201449D01*
X241500Y200881D01*
Y202190D01*
D02*
G37*
G36*
X247808D02*
X246500D01*
Y200881D01*
X247240Y201449D01*
X247808Y202190D01*
D02*
G37*
G36*
X141632Y205000D02*
X135000D01*
Y198368D01*
X136140Y198714D01*
X137784Y199592D01*
X139225Y200775D01*
X140408Y202216D01*
X141286Y203860D01*
X141632Y205000D01*
D02*
G37*
G36*
X130000D02*
X123368D01*
X123714Y203860D01*
X124592Y202216D01*
X125775Y200775D01*
X127216Y199592D01*
X128860Y198714D01*
X130000Y198368D01*
Y205000D01*
D02*
G37*
G36*
X272632D02*
X266000D01*
Y198368D01*
X267139Y198714D01*
X268784Y199592D01*
X270225Y200775D01*
X271408Y202216D01*
X272286Y203860D01*
X272632Y205000D01*
D02*
G37*
G36*
X261000D02*
X254368D01*
X254714Y203860D01*
X255592Y202216D01*
X256775Y200775D01*
X258216Y199592D01*
X259861Y198714D01*
X261000Y198368D01*
Y205000D01*
D02*
G37*
G36*
X328500Y211754D02*
X327146Y211621D01*
X325845Y211226D01*
X324645Y210584D01*
X323593Y209721D01*
X322730Y208670D01*
X322089Y207470D01*
X321694Y206169D01*
X321561Y204815D01*
X321694Y203461D01*
X322089Y202160D01*
X322730Y200960D01*
X323593Y199908D01*
X324645Y199046D01*
X325845Y198404D01*
X327146Y198009D01*
X328500Y197876D01*
X329854Y198009D01*
X331155Y198404D01*
X332355Y199046D01*
X333407Y199908D01*
X334269Y200960D01*
X334911Y202160D01*
X335306Y203461D01*
X335439Y204815D01*
X335306Y206169D01*
X334911Y207470D01*
X334269Y208670D01*
X333407Y209721D01*
X332355Y210584D01*
X331155Y211226D01*
X329854Y211621D01*
X328500Y211754D01*
D02*
G37*
G36*
X147157Y176893D02*
X147154D01*
X147146Y176888D01*
X147129Y176882D01*
X147110Y176877D01*
X147082Y176866D01*
X147049Y176857D01*
X147010Y176844D01*
X146963Y176832D01*
X146913Y176819D01*
X146855Y176802D01*
X146792Y176788D01*
X146725Y176774D01*
X146648Y176758D01*
X146567Y176744D01*
X146481Y176727D01*
X146387Y176713D01*
X146384D01*
X146373Y176710D01*
X146359D01*
X146340Y176705D01*
X146315Y176702D01*
X146290Y176697D01*
X146227Y176686D01*
X146160Y176672D01*
X146091Y176655D01*
X146030Y176638D01*
X146002Y176630D01*
X145977Y176619D01*
X145972Y176616D01*
X145958Y176611D01*
X145936Y176597D01*
X145911Y176580D01*
X145880Y176561D01*
X145850Y176533D01*
X145819Y176503D01*
X145792Y176467D01*
X145789Y176461D01*
X145781Y176450D01*
X145772Y176428D01*
X145761Y176403D01*
X145747Y176370D01*
X145739Y176331D01*
X145731Y176289D01*
X145728Y176245D01*
Y176242D01*
Y176237D01*
Y176226D01*
X145731Y176215D01*
X145733Y176198D01*
X145736Y176179D01*
X145745Y176134D01*
X145761Y176087D01*
X145789Y176035D01*
X145803Y176007D01*
X145822Y175982D01*
X145844Y175957D01*
X145869Y175932D01*
X145872D01*
X145875Y175927D01*
X145883Y175921D01*
X145897Y175913D01*
X145911Y175904D01*
X145927Y175893D01*
X145949Y175882D01*
X145974Y175871D01*
X146002Y175857D01*
X146033Y175846D01*
X146066Y175835D01*
X146105Y175827D01*
X146143Y175819D01*
X146188Y175813D01*
X146235Y175810D01*
X146285Y175807D01*
X146312D01*
X146332Y175810D01*
X146354D01*
X146382Y175813D01*
X146415Y175819D01*
X146448Y175821D01*
X146523Y175835D01*
X146606Y175857D01*
X146689Y175885D01*
X146769Y175924D01*
X146772Y175927D01*
X146778Y175929D01*
X146789Y175935D01*
X146803Y175946D01*
X146822Y175957D01*
X146841Y175974D01*
X146888Y176010D01*
X146938Y176057D01*
X146988Y176112D01*
X147038Y176176D01*
X147080Y176251D01*
Y176253D01*
X147082Y176259D01*
X147088Y176267D01*
X147091Y176281D01*
X147099Y176298D01*
X147105Y176317D01*
X147110Y176342D01*
X147118Y176370D01*
X147127Y176400D01*
X147132Y176434D01*
X147141Y176472D01*
X147146Y176514D01*
X147149Y176561D01*
X147154Y176611D01*
X147157Y176663D01*
Y176719D01*
Y176893D01*
D02*
G37*
G36*
X125346Y178882D02*
X124507D01*
Y177722D01*
X125388D01*
X125416Y177724D01*
X125482D01*
X125521Y177727D01*
X125598Y177733D01*
X125679Y177741D01*
X125717Y177746D01*
X125753Y177752D01*
X125787Y177758D01*
X125817Y177766D01*
X125820D01*
X125825Y177769D01*
X125837Y177771D01*
X125850Y177777D01*
X125864Y177782D01*
X125884Y177791D01*
X125925Y177810D01*
X125972Y177835D01*
X126022Y177868D01*
X126066Y177907D01*
X126108Y177954D01*
Y177957D01*
X126113Y177960D01*
X126116Y177968D01*
X126125Y177979D01*
X126130Y177993D01*
X126138Y178007D01*
X126158Y178048D01*
X126177Y178095D01*
X126191Y178154D01*
X126202Y178220D01*
X126208Y178292D01*
Y178295D01*
Y178300D01*
Y178312D01*
Y178325D01*
X126205Y178342D01*
X126202Y178361D01*
X126197Y178406D01*
X126186Y178458D01*
X126169Y178514D01*
X126144Y178572D01*
X126113Y178627D01*
Y178630D01*
X126108Y178633D01*
X126097Y178652D01*
X126075Y178677D01*
X126047Y178708D01*
X126011Y178741D01*
X125964Y178774D01*
X125914Y178802D01*
X125853Y178827D01*
X125850D01*
X125845Y178830D01*
X125834Y178832D01*
X125820Y178835D01*
X125801Y178841D01*
X125778Y178843D01*
X125751Y178849D01*
X125717Y178855D01*
X125679Y178860D01*
X125637Y178866D01*
X125590Y178868D01*
X125537Y178874D01*
X125479Y178877D01*
X125416Y178879D01*
X125346Y178882D01*
D02*
G37*
G36*
X125457Y177270D02*
X124507D01*
Y175952D01*
X125543D01*
X125595Y175954D01*
X125654D01*
X125709Y175960D01*
X125762Y175963D01*
X125787Y175965D01*
X125806Y175968D01*
X125809D01*
X125814Y175971D01*
X125823D01*
X125837Y175974D01*
X125867Y175982D01*
X125909Y175993D01*
X125953Y176007D01*
X126003Y176023D01*
X126050Y176046D01*
X126097Y176071D01*
X126100D01*
X126102Y176073D01*
X126116Y176084D01*
X126138Y176101D01*
X126166Y176126D01*
X126197Y176156D01*
X126230Y176192D01*
X126260Y176234D01*
X126291Y176284D01*
Y176287D01*
X126294Y176289D01*
X126299Y176298D01*
X126302Y176309D01*
X126316Y176339D01*
X126330Y176378D01*
X126343Y176425D01*
X126357Y176481D01*
X126366Y176544D01*
X126368Y176611D01*
Y176613D01*
Y176619D01*
Y176633D01*
X126366Y176647D01*
Y176666D01*
X126363Y176686D01*
X126355Y176738D01*
X126341Y176796D01*
X126321Y176857D01*
X126294Y176921D01*
X126258Y176982D01*
Y176985D01*
X126252Y176990D01*
X126247Y176996D01*
X126238Y177007D01*
X126213Y177035D01*
X126177Y177068D01*
X126133Y177107D01*
X126080Y177143D01*
X126019Y177176D01*
X125950Y177204D01*
X125947D01*
X125942Y177206D01*
X125931Y177209D01*
X125914Y177215D01*
X125895Y177220D01*
X125870Y177226D01*
X125842Y177231D01*
X125809Y177237D01*
X125770Y177242D01*
X125728Y177248D01*
X125681Y177253D01*
X125631Y177259D01*
X125579Y177264D01*
X125521Y177267D01*
X125457Y177270D01*
D02*
G37*
G36*
X152185Y177951D02*
X152154D01*
X152132Y177949D01*
X152102Y177946D01*
X152071Y177940D01*
X152035Y177932D01*
X151996Y177924D01*
X151952Y177913D01*
X151910Y177899D01*
X151863Y177879D01*
X151819Y177860D01*
X151772Y177835D01*
X151725Y177805D01*
X151681Y177771D01*
X151639Y177733D01*
X151636Y177730D01*
X151631Y177722D01*
X151620Y177710D01*
X151603Y177694D01*
X151586Y177672D01*
X151567Y177644D01*
X151548Y177613D01*
X151525Y177580D01*
X151503Y177541D01*
X151481Y177497D01*
X151462Y177450D01*
X151442Y177398D01*
X151426Y177345D01*
X151412Y177284D01*
X151401Y177223D01*
X151395Y177156D01*
X152949Y177156D01*
Y177159D01*
X152946Y177173D01*
Y177190D01*
X152941Y177215D01*
X152938Y177242D01*
X152930Y177276D01*
X152924Y177314D01*
X152913Y177353D01*
X152891Y177439D01*
X152861Y177525D01*
X152819Y177608D01*
X152794Y177647D01*
X152769Y177680D01*
X152767Y177683D01*
X152758Y177691D01*
X152747Y177705D01*
X152728Y177722D01*
X152706Y177744D01*
X152681Y177766D01*
X152647Y177791D01*
X152611Y177816D01*
X152573Y177841D01*
X152528Y177866D01*
X152481Y177888D01*
X152428Y177910D01*
X152373Y177927D01*
X152312Y177940D01*
X152251Y177949D01*
X152185Y177951D01*
D02*
G37*
G36*
X134606Y177949D02*
X134590D01*
X134573Y177946D01*
X134548D01*
X134518Y177940D01*
X134482Y177935D01*
X134443Y177927D01*
X134401Y177915D01*
X134357Y177902D01*
X134310Y177885D01*
X134260Y177863D01*
X134210Y177838D01*
X134163Y177807D01*
X134113Y177771D01*
X134066Y177730D01*
X134022Y177683D01*
X134019Y177680D01*
X134011Y177672D01*
X134000Y177655D01*
X133986Y177633D01*
X133969Y177605D01*
X133950Y177572D01*
X133928Y177530D01*
X133908Y177486D01*
X133886Y177431D01*
X133864Y177373D01*
X133845Y177309D01*
X133828Y177237D01*
X133814Y177159D01*
X133803Y177073D01*
X133795Y176985D01*
X133792Y176888D01*
Y176885D01*
Y176882D01*
Y176874D01*
Y176866D01*
X133795Y176838D01*
Y176802D01*
X133800Y176758D01*
X133803Y176705D01*
X133811Y176649D01*
X133820Y176589D01*
X133834Y176525D01*
X133847Y176458D01*
X133867Y176392D01*
X133889Y176328D01*
X133917Y176262D01*
X133947Y176201D01*
X133980Y176143D01*
X134022Y176090D01*
X134025Y176087D01*
X134033Y176079D01*
X134047Y176065D01*
X134063Y176049D01*
X134086Y176029D01*
X134113Y176007D01*
X134146Y175982D01*
X134183Y175960D01*
X134221Y175935D01*
X134266Y175910D01*
X134316Y175888D01*
X134365Y175868D01*
X134421Y175852D01*
X134482Y175838D01*
X134543Y175830D01*
X134606Y175827D01*
X134623D01*
X134640Y175830D01*
X134664Y175832D01*
X134695Y175835D01*
X134731Y175841D01*
X134770Y175849D01*
X134811Y175860D01*
X134856Y175874D01*
X134903Y175891D01*
X134953Y175913D01*
X135002Y175940D01*
X135049Y175971D01*
X135099Y176004D01*
X135146Y176046D01*
X135191Y176093D01*
X135194Y176096D01*
X135202Y176107D01*
X135213Y176120D01*
X135227Y176143D01*
X135246Y176170D01*
X135266Y176206D01*
X135285Y176248D01*
X135307Y176295D01*
X135329Y176348D01*
X135349Y176409D01*
X135371Y176475D01*
X135388Y176547D01*
X135401Y176627D01*
X135412Y176713D01*
X135421Y176805D01*
X135424Y176904D01*
Y176907D01*
Y176910D01*
Y176927D01*
X135421Y176954D01*
Y176988D01*
X135415Y177032D01*
X135412Y177082D01*
X135404Y177134D01*
X135393Y177195D01*
X135382Y177256D01*
X135365Y177320D01*
X135346Y177384D01*
X135324Y177450D01*
X135296Y177511D01*
X135266Y177572D01*
X135230Y177630D01*
X135188Y177683D01*
X135185Y177685D01*
X135177Y177694D01*
X135163Y177708D01*
X135146Y177724D01*
X135124Y177744D01*
X135097Y177766D01*
X135063Y177791D01*
X135027Y177816D01*
X134989Y177841D01*
X134944Y177866D01*
X134897Y177888D01*
X134845Y177907D01*
X134789Y177924D01*
X134731Y177938D01*
X134670Y177946D01*
X134606Y177949D01*
D02*
G37*
G36*
X128654D02*
X128637D01*
X128620Y177946D01*
X128595D01*
X128565Y177940D01*
X128529Y177935D01*
X128490Y177927D01*
X128449Y177915D01*
X128404Y177902D01*
X128357Y177885D01*
X128307Y177863D01*
X128258Y177838D01*
X128210Y177807D01*
X128161Y177771D01*
X128113Y177730D01*
X128069Y177683D01*
X128066Y177680D01*
X128058Y177672D01*
X128047Y177655D01*
X128033Y177633D01*
X128016Y177605D01*
X127997Y177572D01*
X127975Y177530D01*
X127956Y177486D01*
X127933Y177431D01*
X127911Y177373D01*
X127892Y177309D01*
X127875Y177237D01*
X127861Y177159D01*
X127850Y177073D01*
X127842Y176985D01*
X127839Y176888D01*
Y176885D01*
Y176882D01*
Y176874D01*
Y176866D01*
X127842Y176838D01*
Y176802D01*
X127848Y176758D01*
X127850Y176705D01*
X127859Y176649D01*
X127867Y176589D01*
X127881Y176525D01*
X127895Y176458D01*
X127914Y176392D01*
X127936Y176328D01*
X127964Y176262D01*
X127994Y176201D01*
X128028Y176143D01*
X128069Y176090D01*
X128072Y176087D01*
X128080Y176079D01*
X128094Y176065D01*
X128111Y176049D01*
X128133Y176029D01*
X128161Y176007D01*
X128194Y175982D01*
X128230Y175960D01*
X128269Y175935D01*
X128313Y175910D01*
X128363Y175888D01*
X128413Y175868D01*
X128468Y175852D01*
X128529Y175838D01*
X128590Y175830D01*
X128654Y175827D01*
X128670D01*
X128687Y175830D01*
X128712Y175832D01*
X128742Y175835D01*
X128778Y175841D01*
X128817Y175849D01*
X128859Y175860D01*
X128903Y175874D01*
X128950Y175891D01*
X129000Y175913D01*
X129050Y175940D01*
X129097Y175971D01*
X129147Y176004D01*
X129194Y176046D01*
X129238Y176093D01*
X129241Y176096D01*
X129249Y176107D01*
X129260Y176120D01*
X129274Y176143D01*
X129294Y176170D01*
X129313Y176206D01*
X129332Y176248D01*
X129354Y176295D01*
X129377Y176348D01*
X129396Y176409D01*
X129418Y176475D01*
X129435Y176547D01*
X129449Y176627D01*
X129460Y176713D01*
X129468Y176805D01*
X129471Y176904D01*
Y176907D01*
Y176910D01*
Y176927D01*
X129468Y176954D01*
Y176988D01*
X129462Y177032D01*
X129460Y177082D01*
X129451Y177134D01*
X129440Y177195D01*
X129429Y177256D01*
X129413Y177320D01*
X129393Y177384D01*
X129371Y177450D01*
X129343Y177511D01*
X129313Y177572D01*
X129277Y177630D01*
X129235Y177683D01*
X129233Y177685D01*
X129224Y177694D01*
X129210Y177708D01*
X129194Y177724D01*
X129172Y177744D01*
X129144Y177766D01*
X129111Y177791D01*
X129075Y177816D01*
X129036Y177841D01*
X128991Y177866D01*
X128945Y177888D01*
X128892Y177907D01*
X128836Y177924D01*
X128778Y177938D01*
X128717Y177946D01*
X128654Y177949D01*
D02*
G37*
%LPD*%
D12*
X244105Y324500D02*
X254105D01*
Y334500D01*
X234105Y324500D02*
X254105D01*
X234105Y334500D02*
X254105D01*
X234105Y324500D02*
Y334500D01*
X249000Y209690D02*
Y219690D01*
X239000D02*
X249000D01*
Y199690D02*
Y219690D01*
X239000Y199690D02*
Y219690D01*
Y199690D02*
X249000D01*
X231000Y274655D02*
Y284655D01*
Y274655D02*
X241000D01*
X231000D02*
Y294655D01*
X241000Y274655D02*
Y294655D01*
X231000D02*
X241000D01*
X231605Y403500D02*
Y413500D01*
Y403500D02*
X241605D01*
X231605D02*
Y423500D01*
X241605Y403500D02*
Y423500D01*
X231605D02*
X241605D01*
D36*
X272000Y438500D02*
X275000Y435500D01*
D37*
X239105Y329500D02*
D03*
X249105D02*
D03*
X244000Y204690D02*
D03*
Y214690D02*
D03*
X236000Y289655D02*
D03*
Y279655D02*
D03*
X236605Y418500D02*
D03*
Y408500D02*
D03*
D38*
X329000Y423000D02*
D03*
Y439000D02*
D03*
X328500Y204815D02*
D03*
Y224500D02*
D03*
Y244185D02*
D03*
X141000Y389500D02*
D03*
Y405500D02*
D03*
X329000Y390333D02*
D03*
Y374333D02*
D03*
X141000Y340167D02*
D03*
Y356167D02*
D03*
X329000Y341667D02*
D03*
Y325667D02*
D03*
X141000Y290833D02*
D03*
Y306833D02*
D03*
X329000Y293000D02*
D03*
Y277000D02*
D03*
X141000Y241500D02*
D03*
Y257500D02*
D03*
D39*
X263500Y207500D02*
D03*
X292500Y438500D02*
D03*
X132500D02*
D03*
Y207500D02*
D03*
D40*
X281000Y250500D02*
D03*
X130645Y276919D02*
D03*
X132500Y376000D02*
D03*
X131000Y326500D02*
D03*
X301765Y223000D02*
D03*
X278000Y448010D02*
D03*
X120625Y218875D02*
D03*
X314500Y448010D02*
D03*
X261000Y249000D02*
D03*
X227310Y204690D02*
D03*
X251000Y353347D02*
D03*
X301000Y301000D02*
D03*
Y398500D02*
D03*
Y350500D02*
D03*
Y253561D02*
D03*
X213500Y303500D02*
D03*
X248250Y384500D02*
D03*
X213991Y433000D02*
D03*
X199500Y259500D02*
D03*
X197000Y387500D02*
D03*
X248272Y363500D02*
D03*
X214000Y412000D02*
D03*
X248000Y231500D02*
D03*
X214000Y282500D02*
D03*
M02*
