G04*
G04 #@! TF.GenerationSoftware,Altium Limited,Altium Designer,19.0.10 (269)*
G04*
G04 Layer_Physical_Order=1*
G04 Layer_Color=255*
%FSLAX25Y25*%
%MOIN*%
G70*
G01*
G75*
%ADD12C,0.01000*%
%ADD14C,0.03000*%
%ADD15R,0.08000X0.06000*%
%ADD16R,0.02559X0.04921*%
%ADD17R,0.17520X0.15354*%
%ADD18R,0.05709X0.02362*%
%ADD19R,0.15748X0.18307*%
%ADD20R,0.06000X0.08000*%
%ADD21R,0.09843X0.06102*%
%ADD22R,0.09449X0.06102*%
%ADD36C,0.02000*%
%ADD37C,0.07087*%
%ADD38C,0.11811*%
%ADD39C,0.16929*%
%ADD40C,0.05000*%
G36*
X276014Y451500D02*
X276088Y451356D01*
X276147Y451000D01*
X275504Y450507D01*
X275153Y450049D01*
X272175D01*
X271975Y450182D01*
X271000Y450377D01*
X270024Y450182D01*
X269198Y449630D01*
X268645Y448803D01*
X268451Y447828D01*
X268645Y446852D01*
X269198Y446025D01*
X270024Y445473D01*
X271000Y445279D01*
X271975Y445473D01*
X272722Y445971D01*
X275153D01*
X275504Y445514D01*
X276235Y444953D01*
X277086Y444600D01*
X278000Y444480D01*
X278914Y444600D01*
X279765Y444953D01*
X280496Y445514D01*
X281057Y446245D01*
X281410Y447097D01*
X281893Y447010D01*
X281893Y324359D01*
X273335Y315254D01*
X273335Y257500D01*
X231500Y257500D01*
X231500Y248519D01*
X233520Y246500D01*
X242500Y246500D01*
X246500Y242500D01*
X260000D01*
Y240500D01*
X244500D01*
X240500Y244500D01*
X232500D01*
X229500Y247500D01*
X229500Y257000D01*
X222250D01*
X218750Y253500D01*
Y247500D01*
X203500D01*
Y274000D01*
X230500D01*
Y276837D01*
X230581Y276919D01*
X230913Y277415D01*
X231029Y278000D01*
Y278126D01*
X231716D01*
X232031Y277364D01*
X232760Y276415D01*
X233709Y275687D01*
X234814Y275229D01*
X236000Y275073D01*
X237186Y275229D01*
X238291Y275687D01*
X239240Y276415D01*
X239969Y277364D01*
X240426Y278469D01*
X240582Y279655D01*
X240426Y280841D01*
X239969Y281947D01*
X239240Y282896D01*
X238291Y283624D01*
X237186Y284082D01*
X236000Y284238D01*
X234814Y284082D01*
X233709Y283624D01*
X232760Y282896D01*
X232031Y281947D01*
X231716Y281185D01*
X230500D01*
Y291500D01*
Y293489D01*
Y305000D01*
X227500Y308000D01*
X189000D01*
X185500Y304500D01*
Y297000D01*
X168000D01*
X168000Y328500D01*
X174500Y334500D01*
X238445D01*
X238478Y334000D01*
X237919Y333926D01*
X236814Y333469D01*
X235865Y332740D01*
X235137Y331791D01*
X234679Y330686D01*
X234523Y329500D01*
X234679Y328314D01*
X235137Y327209D01*
X235865Y326260D01*
X236814Y325531D01*
X237919Y325074D01*
X239105Y324918D01*
X240291Y325074D01*
X241396Y325531D01*
X242345Y326260D01*
X243074Y327209D01*
X243532Y328314D01*
X243688Y329500D01*
X243532Y330686D01*
X243074Y331791D01*
X242345Y332740D01*
X241396Y333469D01*
X240291Y333926D01*
X239732Y334000D01*
X239765Y334500D01*
X247576D01*
Y333784D01*
X246814Y333469D01*
X245865Y332740D01*
X245137Y331791D01*
X244679Y330686D01*
X244523Y329500D01*
X244679Y328314D01*
X245137Y327209D01*
X245865Y326260D01*
X246814Y325531D01*
X247919Y325074D01*
X249105Y324918D01*
X250291Y325074D01*
X251396Y325531D01*
X252345Y326260D01*
X253074Y327209D01*
X253532Y328314D01*
X253688Y329500D01*
X253532Y330686D01*
X253074Y331791D01*
X252345Y332740D01*
X251396Y333469D01*
X250635Y333784D01*
Y334321D01*
X250813Y334500D01*
X254000D01*
X255567Y336067D01*
X255667Y336087D01*
X256163Y336419D01*
X260400Y340656D01*
X260732Y341152D01*
X260752Y341252D01*
X263500Y344000D01*
X263500Y372461D01*
X256000D01*
Y374240D01*
X263500D01*
Y389000D01*
X263000Y389500D01*
X218500D01*
X218500Y380832D01*
X218145Y380480D01*
X201500Y380622D01*
Y401500D01*
X204000Y404000D01*
X228500D01*
X231000Y406500D01*
Y406971D01*
X232321D01*
X232637Y406209D01*
X233365Y405260D01*
X234314Y404531D01*
X235419Y404074D01*
X236605Y403918D01*
X237791Y404074D01*
X238896Y404531D01*
X239845Y405260D01*
X240574Y406209D01*
X241032Y407314D01*
X241188Y408500D01*
X241032Y409686D01*
X240574Y410791D01*
X239845Y411740D01*
X238896Y412469D01*
X237791Y412926D01*
X236605Y413083D01*
X235419Y412926D01*
X234314Y412469D01*
X233365Y411740D01*
X232637Y410791D01*
X232321Y410029D01*
X231000D01*
Y437000D01*
X229500Y438500D01*
X197500D01*
X195500Y436500D01*
X186500D01*
X184500Y434500D01*
Y428000D01*
X145500Y428000D01*
X145500Y449500D01*
X147500Y451500D01*
X276014Y451500D01*
D02*
G37*
G36*
X349500Y257500D02*
X306500Y257500D01*
X306000D01*
Y265500D01*
X296000D01*
Y257500D01*
X292539D01*
Y259500D01*
X292384Y260280D01*
X291942Y260942D01*
X291942Y260942D01*
X284942Y267942D01*
X284280Y268384D01*
X283500Y268539D01*
X282720Y268384D01*
X282058Y267942D01*
X281616Y267280D01*
X281461Y266500D01*
X281616Y265720D01*
X282058Y265058D01*
X288461Y258655D01*
Y257500D01*
X275500D01*
X275500Y313143D01*
X284998Y323319D01*
X284604Y424646D01*
X284957Y425000D01*
X299358D01*
X305500Y431142D01*
Y445279D01*
X306475Y445473D01*
X306948Y445788D01*
X311793D01*
X312004Y445514D01*
X312735Y444953D01*
X313586Y444600D01*
X314500Y444480D01*
X315414Y444600D01*
X316265Y444953D01*
X316996Y445514D01*
X317557Y446245D01*
X317910Y447097D01*
X318030Y448010D01*
X317910Y448924D01*
X317557Y449775D01*
X316996Y450507D01*
X316353Y451000D01*
X316412Y451355D01*
X316486Y451500D01*
X349500D01*
X349500Y257500D01*
D02*
G37*
G36*
X193000Y404000D02*
X190000Y401000D01*
X182000D01*
Y391500D01*
X178000Y387500D01*
X167500D01*
X159500Y379500D01*
X132729Y379500D01*
X132500Y379530D01*
X132271Y379500D01*
X123856D01*
X123504Y379856D01*
X124038Y422538D01*
X127000Y425500D01*
X193000Y425500D01*
Y404000D01*
D02*
G37*
G36*
X225500Y359000D02*
X222000Y355500D01*
X216000Y355500D01*
X213500Y353000D01*
Y340000D01*
X210500Y337000D01*
X171768D01*
X164571Y330500D01*
X123750Y330500D01*
Y370250D01*
X123500Y370500D01*
X124000Y371000D01*
X196500D01*
X203500Y378000D01*
X225500Y378000D01*
X225500Y359000D01*
D02*
G37*
G36*
X156000Y269500D02*
Y245000D01*
X165000Y236000D01*
X192500Y236000D01*
X202500Y246000D01*
X224500D01*
Y238539D01*
X215175D01*
X214871Y238742D01*
X214091Y238897D01*
X213310Y238742D01*
X212649Y238300D01*
X212207Y237639D01*
X212051Y236858D01*
X212207Y236078D01*
X212649Y235416D01*
X213007Y235058D01*
X213668Y234616D01*
X214449Y234461D01*
X224500D01*
Y223500D01*
X224500Y219551D01*
X221389D01*
Y211449D01*
X224500D01*
X224500Y206777D01*
X224253Y206455D01*
X223900Y205604D01*
X223780Y204690D01*
X223900Y203776D01*
X224010Y203510D01*
X220000Y199500D01*
X147000Y199500D01*
X146500Y199500D01*
Y214225D01*
X139725Y221000D01*
X123974D01*
X123970Y221499D01*
X123863Y268607D01*
X124217Y268961D01*
X126655D01*
X134893Y260723D01*
X134589Y260155D01*
X134542Y260000D01*
X138500D01*
Y263958D01*
X138345Y263911D01*
X137777Y263607D01*
X129846Y271538D01*
X130037Y272000D01*
X153500D01*
X156000Y269500D01*
D02*
G37*
G36*
X164000Y318000D02*
Y297500D01*
X166000Y295500D01*
X192500Y295500D01*
Y268500D01*
X189500Y265500D01*
X180000D01*
X178000Y263500D01*
Y252384D01*
X177616Y252000D01*
X164000D01*
X159500Y256500D01*
Y272000D01*
X149500Y281500D01*
X123856D01*
Y321000D01*
X124356Y321500D01*
X160500Y321500D01*
X164000Y318000D01*
D02*
G37*
G36*
X349500Y208000D02*
X334628D01*
X334269Y208670D01*
X333407Y209721D01*
X332355Y210584D01*
X331155Y211226D01*
X329854Y211621D01*
X328500Y211754D01*
X327146Y211621D01*
X325845Y211226D01*
X324645Y210584D01*
X323593Y209721D01*
X322730Y208670D01*
X322372Y208000D01*
X280384D01*
X279039Y209345D01*
Y213500D01*
X278884Y214280D01*
X278442Y214942D01*
X265539Y227845D01*
Y242875D01*
X268125Y245461D01*
X269917D01*
Y245319D01*
X277000D01*
X278000Y244474D01*
Y240526D01*
X277626Y239681D01*
X269917D01*
Y235319D01*
X269917D01*
Y234681D01*
X269917D01*
Y230319D01*
X277000D01*
X278000Y229474D01*
Y225500D01*
X288500D01*
Y216500D01*
X296500D01*
Y220961D01*
X298918D01*
X299269Y220504D01*
X300000Y219943D01*
X300851Y219590D01*
X301765Y219470D01*
X302679Y219590D01*
X303530Y219943D01*
X304261Y220504D01*
X304822Y221235D01*
X305175Y222086D01*
X305295Y223000D01*
X305175Y223914D01*
X304822Y224765D01*
X304530Y225146D01*
X305442Y226058D01*
X305884Y226720D01*
X306039Y227500D01*
Y236265D01*
X305884Y237046D01*
X305442Y237707D01*
X304207Y238942D01*
X304000Y239080D01*
Y251721D01*
X304057Y251796D01*
X304410Y252647D01*
X304530Y253561D01*
X305415Y254500D01*
X349500D01*
Y208000D01*
D02*
G37*
G36*
X131986Y178337D02*
X132017Y178334D01*
X132053Y178328D01*
X132092Y178323D01*
X132136Y178317D01*
X132183Y178306D01*
X132233Y178295D01*
X132286Y178278D01*
X132338Y178262D01*
X132394Y178240D01*
X132446Y178215D01*
X132499Y178187D01*
X132552Y178154D01*
X132554Y178151D01*
X132563Y178145D01*
X132577Y178134D01*
X132596Y178120D01*
X132621Y178101D01*
X132646Y178079D01*
X132674Y178051D01*
X132707Y178021D01*
X132740Y177988D01*
X132773Y177949D01*
X132806Y177904D01*
X132842Y177860D01*
X132876Y177810D01*
X132906Y177755D01*
X132937Y177699D01*
X132964Y177638D01*
X132967Y177636D01*
X132970Y177625D01*
X132978Y177605D01*
X132986Y177580D01*
X132998Y177550D01*
X133009Y177514D01*
X133020Y177470D01*
X133034Y177422D01*
X133047Y177370D01*
X133059Y177314D01*
X133070Y177253D01*
X133081Y177190D01*
X133089Y177123D01*
X133097Y177054D01*
X133100Y176985D01*
X133103Y176910D01*
Y176904D01*
Y176891D01*
Y176868D01*
X133100Y176838D01*
X133097Y176802D01*
X133095Y176758D01*
X133089Y176708D01*
X133083Y176655D01*
X133075Y176597D01*
X133064Y176536D01*
X133036Y176406D01*
X133020Y176339D01*
X133000Y176273D01*
X132975Y176206D01*
X132948Y176143D01*
X132945Y176140D01*
X132939Y176129D01*
X132931Y176109D01*
X132920Y176087D01*
X132903Y176057D01*
X132884Y176026D01*
X132862Y175988D01*
X132834Y175949D01*
X132806Y175907D01*
X132773Y175866D01*
X132737Y175821D01*
X132696Y175777D01*
X132654Y175735D01*
X132607Y175694D01*
X132557Y175655D01*
X132504Y175619D01*
X132502Y175616D01*
X132491Y175611D01*
X132477Y175602D01*
X132455Y175591D01*
X132427Y175578D01*
X132396Y175561D01*
X132360Y175547D01*
X132319Y175531D01*
X132275Y175511D01*
X132228Y175497D01*
X132178Y175481D01*
X132125Y175467D01*
X132070Y175456D01*
X132011Y175447D01*
X131953Y175442D01*
X131892Y175439D01*
X131870D01*
X131853Y175442D01*
X131831D01*
X131809Y175445D01*
X131781Y175447D01*
X131751Y175450D01*
X131685Y175464D01*
X131615Y175481D01*
X131541Y175503D01*
X131468Y175536D01*
X131466D01*
X131460Y175542D01*
X131452Y175547D01*
X131438Y175555D01*
X131421Y175564D01*
X131405Y175575D01*
X131360Y175605D01*
X131313Y175641D01*
X131261Y175686D01*
X131211Y175733D01*
X131164Y175788D01*
Y174436D01*
X130693D01*
Y178278D01*
X131122D01*
Y177915D01*
X131125Y177918D01*
X131128Y177924D01*
X131136Y177935D01*
X131150Y177951D01*
X131164Y177968D01*
X131180Y177988D01*
X131222Y178034D01*
X131272Y178084D01*
X131330Y178137D01*
X131394Y178187D01*
X131463Y178231D01*
X131466D01*
X131471Y178237D01*
X131482Y178242D01*
X131496Y178248D01*
X131516Y178256D01*
X131538Y178264D01*
X131563Y178276D01*
X131593Y178287D01*
X131624Y178295D01*
X131660Y178306D01*
X131698Y178314D01*
X131740Y178323D01*
X131829Y178334D01*
X131926Y178339D01*
X131959D01*
X131986Y178337D01*
D02*
G37*
G36*
X147831D02*
X147853Y178334D01*
X147878Y178331D01*
X147906Y178325D01*
X147939Y178320D01*
X147975Y178312D01*
X148014Y178303D01*
X148094Y178276D01*
X148138Y178259D01*
X148183Y178237D01*
X148227Y178215D01*
X148274Y178187D01*
X148108Y177752D01*
X148105D01*
X148100Y177758D01*
X148091Y177760D01*
X148077Y177769D01*
X148064Y177774D01*
X148044Y177782D01*
X148000Y177802D01*
X147950Y177821D01*
X147892Y177835D01*
X147828Y177846D01*
X147764Y177852D01*
X147740D01*
X147709Y177846D01*
X147673Y177841D01*
X147632Y177830D01*
X147584Y177813D01*
X147537Y177788D01*
X147490Y177758D01*
X147485Y177752D01*
X147471Y177741D01*
X147449Y177719D01*
X147424Y177691D01*
X147393Y177655D01*
X147365Y177611D01*
X147338Y177558D01*
X147316Y177500D01*
Y177497D01*
X147313Y177489D01*
X147307Y177475D01*
X147305Y177456D01*
X147299Y177434D01*
X147291Y177406D01*
X147285Y177373D01*
X147277Y177339D01*
X147269Y177298D01*
X147263Y177256D01*
X147257Y177212D01*
X147249Y177165D01*
X147241Y177062D01*
X147238Y176952D01*
Y175500D01*
X146767D01*
Y178278D01*
X147191D01*
Y177852D01*
X147194Y177855D01*
X147199Y177866D01*
X147208Y177879D01*
X147219Y177899D01*
X147233Y177924D01*
X147249Y177951D01*
X147288Y178012D01*
X147335Y178076D01*
X147385Y178143D01*
X147410Y178170D01*
X147435Y178198D01*
X147462Y178223D01*
X147487Y178242D01*
X147490D01*
X147493Y178248D01*
X147501Y178251D01*
X147512Y178259D01*
X147540Y178273D01*
X147576Y178292D01*
X147623Y178309D01*
X147673Y178325D01*
X147728Y178337D01*
X147789Y178339D01*
X147814D01*
X147831Y178337D01*
D02*
G37*
G36*
X142335Y175453D02*
X142332Y175447D01*
X142327Y175434D01*
X142319Y175409D01*
X142307Y175378D01*
X142294Y175342D01*
X142277Y175301D01*
X142258Y175253D01*
X142238Y175204D01*
X142197Y175098D01*
X142152Y174996D01*
X142130Y174946D01*
X142111Y174902D01*
X142092Y174860D01*
X142072Y174824D01*
Y174821D01*
X142067Y174813D01*
X142058Y174802D01*
X142050Y174785D01*
X142039Y174769D01*
X142025Y174747D01*
X141989Y174697D01*
X141947Y174641D01*
X141898Y174586D01*
X141842Y174530D01*
X141814Y174508D01*
X141784Y174486D01*
X141781D01*
X141776Y174481D01*
X141767Y174475D01*
X141756Y174470D01*
X141740Y174461D01*
X141720Y174450D01*
X141698Y174442D01*
X141673Y174431D01*
X141618Y174411D01*
X141551Y174392D01*
X141477Y174381D01*
X141396Y174375D01*
X141371D01*
X141344Y174378D01*
X141307Y174384D01*
X141263Y174389D01*
X141211Y174400D01*
X141155Y174414D01*
X141094Y174434D01*
X141042Y174877D01*
X141044D01*
X141047Y174874D01*
X141056D01*
X141067Y174871D01*
X141097Y174863D01*
X141133Y174855D01*
X141175Y174846D01*
X141219Y174841D01*
X141266Y174835D01*
X141310Y174832D01*
X141335D01*
X141366Y174835D01*
X141399Y174838D01*
X141440Y174846D01*
X141482Y174855D01*
X141521Y174868D01*
X141560Y174885D01*
X141565Y174888D01*
X141576Y174896D01*
X141593Y174907D01*
X141615Y174924D01*
X141640Y174943D01*
X141665Y174968D01*
X141690Y174999D01*
X141715Y175032D01*
X141718Y175035D01*
X141723Y175048D01*
X141729Y175057D01*
X141734Y175071D01*
X141740Y175084D01*
X141748Y175104D01*
X141759Y175123D01*
X141770Y175148D01*
X141781Y175179D01*
X141792Y175212D01*
X141806Y175248D01*
X141823Y175289D01*
X141839Y175334D01*
X141856Y175384D01*
Y175386D01*
X141859Y175392D01*
X141862Y175400D01*
X141867Y175411D01*
X141873Y175428D01*
X141881Y175447D01*
X141889Y175472D01*
X141900Y175497D01*
X140848Y178278D01*
X141349D01*
X141928Y176669D01*
Y176666D01*
X141934Y176655D01*
X141939Y176638D01*
X141947Y176616D01*
X141958Y176589D01*
X141970Y176555D01*
X141981Y176517D01*
X141997Y176475D01*
X142011Y176428D01*
X142028Y176378D01*
X142044Y176326D01*
X142061Y176270D01*
X142097Y176151D01*
X142130Y176026D01*
Y176029D01*
X142133Y176040D01*
X142139Y176057D01*
X142144Y176082D01*
X142152Y176109D01*
X142164Y176145D01*
X142175Y176184D01*
X142186Y176226D01*
X142200Y176273D01*
X142216Y176323D01*
X142249Y176428D01*
X142285Y176541D01*
X142327Y176658D01*
X142922Y178278D01*
X143391D01*
X142335Y175453D01*
D02*
G37*
G36*
X139399Y178337D02*
X139435Y178334D01*
X139474Y178331D01*
X139515Y178328D01*
X139607Y178317D01*
X139704Y178303D01*
X139798Y178281D01*
X139845Y178267D01*
X139886Y178253D01*
X139889D01*
X139898Y178251D01*
X139909Y178245D01*
X139923Y178240D01*
X139942Y178231D01*
X139961Y178220D01*
X140011Y178195D01*
X140064Y178165D01*
X140119Y178129D01*
X140169Y178090D01*
X140213Y178043D01*
Y178040D01*
X140219Y178037D01*
X140225Y178029D01*
X140230Y178021D01*
X140249Y177993D01*
X140272Y177954D01*
X140296Y177907D01*
X140319Y177855D01*
X140341Y177791D01*
X140360Y177722D01*
Y177716D01*
X140363Y177708D01*
Y177699D01*
X140366Y177685D01*
X140368Y177666D01*
X140371Y177647D01*
X140374Y177622D01*
Y177594D01*
X140377Y177564D01*
X140380Y177528D01*
X140382Y177489D01*
Y177445D01*
X140385Y177398D01*
Y177345D01*
Y177289D01*
Y176663D01*
Y176661D01*
Y176655D01*
Y176647D01*
Y176636D01*
Y176619D01*
Y176602D01*
Y176558D01*
Y176505D01*
X140388Y176447D01*
Y176381D01*
Y176314D01*
X140391Y176173D01*
X140393Y176104D01*
X140396Y176035D01*
X140399Y175974D01*
X140404Y175918D01*
X140407Y175871D01*
X140410Y175849D01*
X140413Y175832D01*
Y175830D01*
X140416Y175824D01*
Y175816D01*
X140418Y175802D01*
X140424Y175788D01*
X140427Y175769D01*
X140440Y175724D01*
X140457Y175674D01*
X140477Y175619D01*
X140504Y175561D01*
X140535Y175500D01*
X140044D01*
Y175503D01*
X140042Y175505D01*
X140036Y175514D01*
X140033Y175525D01*
X140025Y175539D01*
X140020Y175558D01*
X140003Y175597D01*
X139986Y175650D01*
X139970Y175708D01*
X139959Y175771D01*
X139947Y175844D01*
X139945Y175841D01*
X139936Y175832D01*
X139923Y175821D01*
X139903Y175807D01*
X139878Y175788D01*
X139850Y175769D01*
X139820Y175744D01*
X139787Y175719D01*
X139748Y175694D01*
X139709Y175669D01*
X139623Y175616D01*
X139535Y175566D01*
X139488Y175547D01*
X139443Y175528D01*
X139441D01*
X139432Y175525D01*
X139418Y175519D01*
X139402Y175514D01*
X139380Y175508D01*
X139352Y175500D01*
X139321Y175492D01*
X139288Y175483D01*
X139252Y175475D01*
X139211Y175467D01*
X139122Y175453D01*
X139028Y175442D01*
X138925Y175439D01*
X138906D01*
X138881Y175442D01*
X138851D01*
X138812Y175445D01*
X138768Y175450D01*
X138718Y175458D01*
X138665Y175467D01*
X138610Y175478D01*
X138554Y175495D01*
X138493Y175511D01*
X138435Y175533D01*
X138380Y175558D01*
X138321Y175589D01*
X138272Y175622D01*
X138222Y175661D01*
X138219Y175663D01*
X138211Y175672D01*
X138200Y175683D01*
X138183Y175702D01*
X138166Y175724D01*
X138144Y175749D01*
X138122Y175780D01*
X138100Y175816D01*
X138078Y175855D01*
X138056Y175899D01*
X138033Y175946D01*
X138017Y175996D01*
X138000Y176051D01*
X137989Y176107D01*
X137981Y176168D01*
X137978Y176231D01*
Y176234D01*
Y176240D01*
Y176251D01*
X137981Y176267D01*
Y176284D01*
X137984Y176306D01*
X137989Y176356D01*
X138000Y176411D01*
X138017Y176475D01*
X138039Y176539D01*
X138069Y176602D01*
Y176605D01*
X138075Y176611D01*
X138078Y176619D01*
X138086Y176630D01*
X138105Y176661D01*
X138133Y176699D01*
X138169Y176744D01*
X138211Y176788D01*
X138258Y176832D01*
X138310Y176874D01*
X138313D01*
X138319Y176880D01*
X138327Y176885D01*
X138338Y176891D01*
X138352Y176899D01*
X138369Y176910D01*
X138410Y176932D01*
X138460Y176957D01*
X138518Y176982D01*
X138582Y177007D01*
X138651Y177029D01*
X138654D01*
X138657Y177032D01*
X138665D01*
X138676Y177035D01*
X138693Y177037D01*
X138709Y177043D01*
X138731Y177046D01*
X138756Y177051D01*
X138784Y177057D01*
X138815Y177062D01*
X138848Y177068D01*
X138887Y177073D01*
X138928Y177079D01*
X138972Y177087D01*
X139020Y177093D01*
X139069Y177098D01*
X139075D01*
X139083Y177101D01*
X139094D01*
X139125Y177107D01*
X139164Y177109D01*
X139211Y177118D01*
X139263Y177126D01*
X139324Y177134D01*
X139388Y177145D01*
X139454Y177156D01*
X139524Y177167D01*
X139662Y177195D01*
X139731Y177212D01*
X139795Y177228D01*
X139853Y177245D01*
X139909Y177262D01*
Y177267D01*
Y177278D01*
Y177292D01*
X139911Y177312D01*
Y177353D01*
Y177370D01*
Y177384D01*
Y177386D01*
Y177398D01*
Y177411D01*
X139909Y177431D01*
Y177453D01*
X139903Y177480D01*
X139895Y177541D01*
X139878Y177608D01*
X139853Y177677D01*
X139839Y177708D01*
X139820Y177738D01*
X139801Y177763D01*
X139776Y177788D01*
X139773Y177791D01*
X139767Y177796D01*
X139756Y177802D01*
X139743Y177813D01*
X139723Y177824D01*
X139701Y177838D01*
X139673Y177855D01*
X139643Y177868D01*
X139607Y177882D01*
X139565Y177899D01*
X139524Y177913D01*
X139474Y177924D01*
X139421Y177935D01*
X139366Y177943D01*
X139305Y177946D01*
X139241Y177949D01*
X139211D01*
X139186Y177946D01*
X139158D01*
X139128Y177943D01*
X139092Y177938D01*
X139056Y177935D01*
X138975Y177921D01*
X138895Y177899D01*
X138817Y177868D01*
X138781Y177852D01*
X138751Y177830D01*
X138748D01*
X138745Y177824D01*
X138737Y177816D01*
X138726Y177807D01*
X138712Y177794D01*
X138698Y177777D01*
X138682Y177758D01*
X138662Y177735D01*
X138643Y177708D01*
X138623Y177677D01*
X138604Y177644D01*
X138587Y177608D01*
X138568Y177566D01*
X138549Y177522D01*
X138532Y177472D01*
X138518Y177420D01*
X138058Y177483D01*
Y177486D01*
X138061Y177497D01*
X138064Y177511D01*
X138069Y177533D01*
X138078Y177558D01*
X138086Y177586D01*
X138094Y177619D01*
X138108Y177652D01*
X138136Y177730D01*
X138172Y177807D01*
X138214Y177888D01*
X138263Y177960D01*
X138266Y177963D01*
X138269Y177968D01*
X138277Y177976D01*
X138291Y177990D01*
X138305Y178004D01*
X138324Y178024D01*
X138344Y178043D01*
X138369Y178062D01*
X138396Y178084D01*
X138429Y178109D01*
X138463Y178131D01*
X138499Y178154D01*
X138540Y178179D01*
X138582Y178201D01*
X138629Y178220D01*
X138679Y178240D01*
X138682D01*
X138690Y178245D01*
X138707Y178248D01*
X138726Y178256D01*
X138754Y178262D01*
X138784Y178270D01*
X138820Y178281D01*
X138859Y178289D01*
X138903Y178298D01*
X138953Y178309D01*
X139006Y178317D01*
X139061Y178323D01*
X139119Y178331D01*
X139180Y178334D01*
X139310Y178339D01*
X139369D01*
X139399Y178337D01*
D02*
G37*
G36*
X135707Y175952D02*
X137593D01*
Y175500D01*
X135200D01*
Y179334D01*
X135707D01*
Y175952D01*
D02*
G37*
G36*
X127255Y178882D02*
X125987D01*
Y175500D01*
X125480D01*
Y178882D01*
X124217D01*
Y179334D01*
X127255D01*
Y178882D01*
D02*
G37*
G36*
X144986Y178337D02*
X145025Y178334D01*
X145075Y178328D01*
X145127Y178320D01*
X145188Y178309D01*
X145255Y178292D01*
X145327Y178273D01*
X145399Y178248D01*
X145476Y178217D01*
X145551Y178179D01*
X145629Y178137D01*
X145701Y178084D01*
X145773Y178026D01*
X145842Y177960D01*
X145845Y177954D01*
X145859Y177943D01*
X145875Y177921D01*
X145897Y177891D01*
X145925Y177852D01*
X145956Y177805D01*
X145986Y177749D01*
X146019Y177685D01*
X146053Y177613D01*
X146086Y177533D01*
X146114Y177445D01*
X146141Y177350D01*
X146163Y177248D01*
X146183Y177137D01*
X146194Y177018D01*
X146197Y176893D01*
Y176891D01*
Y176885D01*
Y176877D01*
Y176863D01*
Y176844D01*
Y176824D01*
X146194Y176799D01*
Y176769D01*
X144122D01*
Y176763D01*
X144125Y176749D01*
Y176724D01*
X144130Y176694D01*
X144136Y176655D01*
X144141Y176611D01*
X144152Y176564D01*
X144163Y176511D01*
X144177Y176453D01*
X144197Y176398D01*
X144216Y176339D01*
X144241Y176281D01*
X144269Y176223D01*
X144302Y176168D01*
X144338Y176115D01*
X144379Y176068D01*
X144382Y176065D01*
X144391Y176057D01*
X144404Y176046D01*
X144421Y176029D01*
X144443Y176012D01*
X144471Y175993D01*
X144504Y175971D01*
X144540Y175949D01*
X144579Y175924D01*
X144623Y175904D01*
X144670Y175882D01*
X144723Y175866D01*
X144778Y175849D01*
X144836Y175838D01*
X144897Y175830D01*
X144961Y175827D01*
X144986D01*
X145006Y175830D01*
X145028Y175832D01*
X145053Y175835D01*
X145083Y175838D01*
X145114Y175844D01*
X145183Y175860D01*
X145258Y175885D01*
X145296Y175899D01*
X145332Y175918D01*
X145368Y175938D01*
X145404Y175963D01*
X145407Y175965D01*
X145413Y175968D01*
X145421Y175976D01*
X145435Y175988D01*
X145451Y176004D01*
X145468Y176021D01*
X145487Y176043D01*
X145510Y176068D01*
X145532Y176098D01*
X145557Y176129D01*
X145579Y176165D01*
X145604Y176204D01*
X145629Y176248D01*
X145651Y176295D01*
X145673Y176345D01*
X145695Y176400D01*
X146180Y176337D01*
Y176331D01*
X146174Y176317D01*
X146166Y176295D01*
X146158Y176267D01*
X146144Y176231D01*
X146127Y176190D01*
X146108Y176143D01*
X146083Y176093D01*
X146055Y176043D01*
X146025Y175988D01*
X145989Y175932D01*
X145950Y175877D01*
X145908Y175824D01*
X145861Y175771D01*
X145809Y175722D01*
X145753Y175674D01*
X145751Y175672D01*
X145740Y175663D01*
X145723Y175652D01*
X145698Y175638D01*
X145668Y175619D01*
X145629Y175600D01*
X145587Y175578D01*
X145537Y175558D01*
X145482Y175536D01*
X145424Y175514D01*
X145357Y175495D01*
X145288Y175475D01*
X145213Y175461D01*
X145133Y175450D01*
X145047Y175442D01*
X144958Y175439D01*
X144931D01*
X144917Y175442D01*
X144900D01*
X144859Y175445D01*
X144806Y175450D01*
X144748Y175458D01*
X144681Y175470D01*
X144609Y175486D01*
X144535Y175505D01*
X144454Y175531D01*
X144374Y175561D01*
X144294Y175597D01*
X144213Y175638D01*
X144136Y175688D01*
X144061Y175747D01*
X143992Y175813D01*
X143989Y175819D01*
X143978Y175830D01*
X143958Y175852D01*
X143936Y175882D01*
X143909Y175921D01*
X143881Y175968D01*
X143848Y176021D01*
X143814Y176084D01*
X143781Y176156D01*
X143751Y176234D01*
X143720Y176320D01*
X143693Y176414D01*
X143670Y176517D01*
X143654Y176625D01*
X143640Y176741D01*
X143637Y176866D01*
Y176868D01*
Y176874D01*
Y176882D01*
Y176896D01*
X143640Y176913D01*
Y176932D01*
Y176954D01*
X143643Y176982D01*
X143648Y177040D01*
X143657Y177107D01*
X143668Y177181D01*
X143681Y177264D01*
X143701Y177348D01*
X143726Y177436D01*
X143754Y177528D01*
X143790Y177619D01*
X143831Y177708D01*
X143878Y177794D01*
X143933Y177877D01*
X143997Y177951D01*
X144003Y177957D01*
X144014Y177968D01*
X144033Y177988D01*
X144064Y178012D01*
X144100Y178043D01*
X144141Y178073D01*
X144191Y178109D01*
X144249Y178145D01*
X144313Y178181D01*
X144385Y178217D01*
X144460Y178251D01*
X144543Y178278D01*
X144634Y178303D01*
X144729Y178323D01*
X144828Y178334D01*
X144933Y178339D01*
X144958D01*
X144986Y178337D01*
D02*
G37*
G36*
X128895D02*
X128934Y178334D01*
X128984Y178328D01*
X129039Y178320D01*
X129103Y178309D01*
X129172Y178292D01*
X129244Y178273D01*
X129322Y178248D01*
X129399Y178217D01*
X129477Y178181D01*
X129554Y178137D01*
X129632Y178087D01*
X129707Y178029D01*
X129776Y177963D01*
X129782Y177957D01*
X129793Y177946D01*
X129809Y177924D01*
X129834Y177893D01*
X129862Y177855D01*
X129892Y177810D01*
X129926Y177755D01*
X129959Y177694D01*
X129992Y177622D01*
X130025Y177544D01*
X130056Y177461D01*
X130084Y177367D01*
X130108Y177267D01*
X130125Y177162D01*
X130139Y177048D01*
X130142Y176927D01*
Y176924D01*
Y176921D01*
Y176913D01*
Y176904D01*
Y176874D01*
X130139Y176838D01*
X130136Y176794D01*
X130133Y176741D01*
X130128Y176683D01*
X130122Y176622D01*
X130114Y176555D01*
X130103Y176486D01*
X130089Y176417D01*
X130072Y176345D01*
X130053Y176276D01*
X130034Y176209D01*
X130006Y176145D01*
X129978Y176084D01*
X129975Y176082D01*
X129970Y176071D01*
X129962Y176054D01*
X129948Y176035D01*
X129931Y176007D01*
X129912Y175979D01*
X129887Y175946D01*
X129859Y175910D01*
X129829Y175871D01*
X129793Y175832D01*
X129754Y175794D01*
X129712Y175755D01*
X129668Y175716D01*
X129618Y175677D01*
X129566Y175641D01*
X129510Y175608D01*
X129507Y175605D01*
X129496Y175600D01*
X129480Y175591D01*
X129457Y175583D01*
X129427Y175569D01*
X129394Y175555D01*
X129355Y175539D01*
X129313Y175525D01*
X129264Y175508D01*
X129214Y175492D01*
X129158Y175478D01*
X129100Y175467D01*
X129036Y175456D01*
X128973Y175447D01*
X128909Y175442D01*
X128840Y175439D01*
X128815D01*
X128801Y175442D01*
X128784D01*
X128743Y175445D01*
X128693Y175450D01*
X128638Y175458D01*
X128574Y175470D01*
X128505Y175486D01*
X128430Y175505D01*
X128355Y175531D01*
X128275Y175561D01*
X128197Y175597D01*
X128120Y175638D01*
X128042Y175688D01*
X127967Y175744D01*
X127898Y175810D01*
X127895Y175816D01*
X127881Y175827D01*
X127865Y175849D01*
X127843Y175880D01*
X127815Y175918D01*
X127784Y175965D01*
X127754Y176021D01*
X127721Y176084D01*
X127688Y176156D01*
X127654Y176237D01*
X127624Y176326D01*
X127596Y176422D01*
X127574Y176528D01*
X127557Y176638D01*
X127543Y176760D01*
X127541Y176888D01*
Y176891D01*
Y176896D01*
Y176907D01*
Y176921D01*
X127543Y176940D01*
Y176963D01*
X127546Y176988D01*
Y177015D01*
X127549Y177046D01*
X127555Y177079D01*
X127563Y177151D01*
X127577Y177231D01*
X127593Y177320D01*
X127615Y177411D01*
X127646Y177506D01*
X127679Y177600D01*
X127721Y177694D01*
X127771Y177785D01*
X127826Y177874D01*
X127892Y177954D01*
X127967Y178029D01*
X127973Y178032D01*
X127984Y178043D01*
X128003Y178057D01*
X128031Y178079D01*
X128067Y178101D01*
X128109Y178126D01*
X128156Y178156D01*
X128211Y178184D01*
X128272Y178212D01*
X128338Y178242D01*
X128410Y178267D01*
X128488Y178292D01*
X128568Y178312D01*
X128654Y178325D01*
X128746Y178337D01*
X128840Y178339D01*
X128879D01*
X128895Y178337D01*
D02*
G37*
%LPC*%
G36*
X236605Y423082D02*
X235419Y422926D01*
X234314Y422469D01*
X233365Y421740D01*
X232637Y420791D01*
X232179Y419686D01*
X232023Y418500D01*
X232179Y417314D01*
X232637Y416209D01*
X233365Y415260D01*
X234314Y414531D01*
X235419Y414074D01*
X236605Y413917D01*
X237791Y414074D01*
X238896Y414531D01*
X239845Y415260D01*
X240574Y416209D01*
X241032Y417314D01*
X241188Y418500D01*
X241032Y419686D01*
X240574Y420791D01*
X239845Y421740D01*
X238896Y422469D01*
X237791Y422926D01*
X236605Y423082D01*
D02*
G37*
G36*
X236000Y294238D02*
X234814Y294082D01*
X233709Y293624D01*
X232760Y292896D01*
X232031Y291947D01*
X231574Y290841D01*
X231417Y289655D01*
X231574Y288469D01*
X232031Y287364D01*
X232760Y286415D01*
X233709Y285687D01*
X234814Y285229D01*
X236000Y285073D01*
X237186Y285229D01*
X238291Y285687D01*
X239240Y286415D01*
X239969Y287364D01*
X240426Y288469D01*
X240582Y289655D01*
X240426Y290841D01*
X239969Y291947D01*
X239240Y292896D01*
X238291Y293624D01*
X237186Y294082D01*
X236000Y294238D01*
D02*
G37*
G36*
X331500Y445458D02*
Y441500D01*
X335458D01*
X335411Y441655D01*
X334770Y442855D01*
X333907Y443906D01*
X332855Y444769D01*
X331655Y445411D01*
X331500Y445458D01*
D02*
G37*
G36*
X326500Y445458D02*
X326345Y445411D01*
X325145Y444769D01*
X324093Y443906D01*
X323231Y442855D01*
X322589Y441655D01*
X322542Y441500D01*
X326500D01*
Y445458D01*
D02*
G37*
G36*
Y436500D02*
X322542D01*
X322589Y436345D01*
X323231Y435145D01*
X324093Y434093D01*
X325145Y433230D01*
X326345Y432589D01*
X326500Y432542D01*
Y436500D01*
D02*
G37*
G36*
X335458D02*
X331500D01*
Y432542D01*
X331655Y432589D01*
X332855Y433230D01*
X333907Y434093D01*
X334770Y435145D01*
X335411Y436345D01*
X335458Y436500D01*
D02*
G37*
G36*
X329000Y429939D02*
X327646Y429806D01*
X326345Y429411D01*
X325145Y428769D01*
X324093Y427907D01*
X323231Y426855D01*
X322589Y425655D01*
X322194Y424354D01*
X322061Y423000D01*
X322194Y421646D01*
X322589Y420345D01*
X323231Y419145D01*
X324093Y418093D01*
X325145Y417231D01*
X326345Y416589D01*
X327646Y416194D01*
X329000Y416061D01*
X330354Y416194D01*
X331655Y416589D01*
X332855Y417231D01*
X333907Y418093D01*
X334770Y419145D01*
X335411Y420345D01*
X335806Y421646D01*
X335939Y423000D01*
X335806Y424354D01*
X335411Y425655D01*
X334770Y426855D01*
X333907Y427907D01*
X332855Y428769D01*
X331655Y429411D01*
X330354Y429806D01*
X329000Y429939D01*
D02*
G37*
G36*
X306000Y410731D02*
X296000D01*
Y402731D01*
X298961D01*
Y401347D01*
X298504Y400996D01*
X297943Y400265D01*
X297590Y399414D01*
X297470Y398500D01*
X297590Y397586D01*
X297943Y396735D01*
X298504Y396004D01*
X299235Y395443D01*
X300086Y395090D01*
X301000Y394970D01*
X301914Y395090D01*
X302765Y395443D01*
X303496Y396004D01*
X304057Y396735D01*
X304410Y397586D01*
X304530Y398500D01*
X304410Y399414D01*
X304057Y400265D01*
X303496Y400996D01*
X303039Y401347D01*
Y402731D01*
X306000D01*
Y410731D01*
D02*
G37*
G36*
X331500Y396791D02*
Y392833D01*
X335458D01*
X335411Y392989D01*
X334770Y394188D01*
X333907Y395240D01*
X332855Y396103D01*
X331655Y396744D01*
X331500Y396791D01*
D02*
G37*
G36*
X326500D02*
X326345Y396744D01*
X325145Y396103D01*
X324093Y395240D01*
X323231Y394188D01*
X322589Y392989D01*
X322542Y392833D01*
X326500D01*
Y396791D01*
D02*
G37*
G36*
X335458Y387833D02*
X331500D01*
Y383875D01*
X331655Y383923D01*
X332855Y384564D01*
X333907Y385427D01*
X334770Y386478D01*
X335411Y387678D01*
X335458Y387833D01*
D02*
G37*
G36*
X326500D02*
X322542D01*
X322589Y387678D01*
X323231Y386478D01*
X324093Y385427D01*
X325145Y384564D01*
X326345Y383923D01*
X326500Y383875D01*
Y387833D01*
D02*
G37*
G36*
X329000Y381272D02*
X327646Y381139D01*
X326345Y380744D01*
X325145Y380103D01*
X324093Y379240D01*
X323231Y378188D01*
X322589Y376989D01*
X322194Y375687D01*
X322061Y374333D01*
X322194Y372980D01*
X322589Y371678D01*
X323231Y370478D01*
X324093Y369427D01*
X325145Y368564D01*
X326345Y367923D01*
X327646Y367528D01*
X329000Y367394D01*
X330354Y367528D01*
X331655Y367923D01*
X332855Y368564D01*
X333907Y369427D01*
X334770Y370478D01*
X335411Y371678D01*
X335806Y372980D01*
X335939Y374333D01*
X335806Y375687D01*
X335411Y376989D01*
X334770Y378188D01*
X333907Y379240D01*
X332855Y380103D01*
X331655Y380744D01*
X330354Y381139D01*
X329000Y381272D01*
D02*
G37*
G36*
X306000Y362750D02*
X296000D01*
Y354750D01*
X298961D01*
Y353347D01*
X298504Y352996D01*
X297943Y352265D01*
X297590Y351414D01*
X297470Y350500D01*
X297590Y349586D01*
X297943Y348735D01*
X298504Y348004D01*
X299235Y347443D01*
X300086Y347090D01*
X301000Y346970D01*
X301914Y347090D01*
X302765Y347443D01*
X303496Y348004D01*
X304057Y348735D01*
X304410Y349586D01*
X304530Y350500D01*
X304410Y351414D01*
X304057Y352265D01*
X303496Y352996D01*
X303039Y353347D01*
Y354750D01*
X306000D01*
Y362750D01*
D02*
G37*
G36*
X331500Y348125D02*
Y344167D01*
X335458D01*
X335411Y344322D01*
X334770Y345522D01*
X333907Y346573D01*
X332855Y347436D01*
X331655Y348077D01*
X331500Y348125D01*
D02*
G37*
G36*
X326500Y348125D02*
X326345Y348077D01*
X325145Y347436D01*
X324093Y346573D01*
X323231Y345522D01*
X322589Y344322D01*
X322542Y344167D01*
X326500D01*
Y348125D01*
D02*
G37*
G36*
X335458Y339167D02*
X331500D01*
Y335209D01*
X331655Y335256D01*
X332855Y335897D01*
X333907Y336760D01*
X334770Y337812D01*
X335411Y339011D01*
X335458Y339167D01*
D02*
G37*
G36*
X326500D02*
X322542D01*
X322589Y339011D01*
X323231Y337812D01*
X324093Y336760D01*
X325145Y335897D01*
X326345Y335256D01*
X326500Y335209D01*
Y339167D01*
D02*
G37*
G36*
X329000Y332606D02*
X327646Y332472D01*
X326345Y332077D01*
X325145Y331436D01*
X324093Y330573D01*
X323231Y329522D01*
X322589Y328322D01*
X322194Y327020D01*
X322061Y325667D01*
X322194Y324313D01*
X322589Y323011D01*
X323231Y321812D01*
X324093Y320760D01*
X325145Y319897D01*
X326345Y319256D01*
X327646Y318861D01*
X329000Y318728D01*
X330354Y318861D01*
X331655Y319256D01*
X332855Y319897D01*
X333907Y320760D01*
X334770Y321812D01*
X335411Y323011D01*
X335806Y324313D01*
X335939Y325667D01*
X335806Y327020D01*
X335411Y328322D01*
X334770Y329522D01*
X333907Y330573D01*
X332855Y331436D01*
X331655Y332077D01*
X330354Y332472D01*
X329000Y332606D01*
D02*
G37*
G36*
X306000Y313500D02*
X296000D01*
Y305500D01*
X298961D01*
Y303847D01*
X298504Y303496D01*
X297943Y302765D01*
X297590Y301914D01*
X297470Y301000D01*
X297590Y300086D01*
X297943Y299235D01*
X298504Y298504D01*
X299235Y297943D01*
X300086Y297590D01*
X301000Y297470D01*
X301914Y297590D01*
X302765Y297943D01*
X303496Y298504D01*
X304057Y299235D01*
X304410Y300086D01*
X304530Y301000D01*
X304410Y301914D01*
X304057Y302765D01*
X303496Y303496D01*
X303039Y303847D01*
Y305500D01*
X306000D01*
Y313500D01*
D02*
G37*
G36*
X331500Y299458D02*
Y295500D01*
X335458D01*
X335411Y295655D01*
X334770Y296855D01*
X333907Y297907D01*
X332855Y298769D01*
X331655Y299411D01*
X331500Y299458D01*
D02*
G37*
G36*
X326500D02*
X326345Y299411D01*
X325145Y298769D01*
X324093Y297907D01*
X323231Y296855D01*
X322589Y295655D01*
X322542Y295500D01*
X326500D01*
Y299458D01*
D02*
G37*
G36*
X335458Y290500D02*
X331500D01*
Y286542D01*
X331655Y286589D01*
X332855Y287230D01*
X333907Y288093D01*
X334770Y289145D01*
X335411Y290345D01*
X335458Y290500D01*
D02*
G37*
G36*
X326500D02*
X322542D01*
X322589Y290345D01*
X323231Y289145D01*
X324093Y288093D01*
X325145Y287230D01*
X326345Y286589D01*
X326500Y286542D01*
Y290500D01*
D02*
G37*
G36*
X329000Y283939D02*
X327646Y283806D01*
X326345Y283411D01*
X325145Y282769D01*
X324093Y281907D01*
X323231Y280855D01*
X322589Y279655D01*
X322194Y278354D01*
X322061Y277000D01*
X322194Y275646D01*
X322589Y274345D01*
X323231Y273145D01*
X324093Y272093D01*
X325145Y271231D01*
X326345Y270589D01*
X327646Y270194D01*
X329000Y270061D01*
X330354Y270194D01*
X331655Y270589D01*
X332855Y271231D01*
X333907Y272093D01*
X334770Y273145D01*
X335411Y274345D01*
X335806Y275646D01*
X335939Y277000D01*
X335806Y278354D01*
X335411Y279655D01*
X334770Y280855D01*
X333907Y281907D01*
X332855Y282769D01*
X331655Y283411D01*
X330354Y283806D01*
X329000Y283939D01*
D02*
G37*
G36*
X142500Y412261D02*
Y407000D01*
X147761D01*
X147411Y408155D01*
X146769Y409355D01*
X145907Y410406D01*
X144855Y411270D01*
X143655Y411911D01*
X142500Y412261D01*
D02*
G37*
G36*
X139500Y412261D02*
X138345Y411911D01*
X137145Y411270D01*
X136093Y410406D01*
X135231Y409355D01*
X134589Y408155D01*
X134239Y407000D01*
X139500D01*
Y412261D01*
D02*
G37*
G36*
X147761Y404000D02*
X142500D01*
Y398739D01*
X143655Y399089D01*
X144855Y399730D01*
X145907Y400593D01*
X146769Y401645D01*
X147411Y402845D01*
X147761Y404000D01*
D02*
G37*
G36*
X139500D02*
X134239D01*
X134589Y402845D01*
X135231Y401645D01*
X136093Y400593D01*
X137145Y399730D01*
X138345Y399089D01*
X139500Y398739D01*
Y404000D01*
D02*
G37*
G36*
X141000Y396439D02*
X139646Y396306D01*
X138345Y395911D01*
X137145Y395269D01*
X136093Y394407D01*
X135231Y393355D01*
X134589Y392155D01*
X134194Y390854D01*
X134061Y389500D01*
X134194Y388146D01*
X134589Y386845D01*
X135231Y385645D01*
X136093Y384593D01*
X137145Y383731D01*
X138345Y383089D01*
X139646Y382694D01*
X141000Y382561D01*
X142354Y382694D01*
X143655Y383089D01*
X144855Y383731D01*
X145907Y384593D01*
X146769Y385645D01*
X147411Y386845D01*
X147806Y388146D01*
X147939Y389500D01*
X147806Y390854D01*
X147411Y392155D01*
X146769Y393355D01*
X145907Y394407D01*
X144855Y395269D01*
X143655Y395911D01*
X142354Y396306D01*
X141000Y396439D01*
D02*
G37*
G36*
X142500Y362928D02*
Y357667D01*
X147761D01*
X147411Y358822D01*
X146769Y360022D01*
X145907Y361073D01*
X144855Y361936D01*
X143655Y362577D01*
X142500Y362928D01*
D02*
G37*
G36*
X139500Y362928D02*
X138345Y362577D01*
X137145Y361936D01*
X136093Y361073D01*
X135231Y360022D01*
X134589Y358822D01*
X134239Y357667D01*
X139500D01*
Y362928D01*
D02*
G37*
G36*
Y354667D02*
X134239D01*
X134589Y353511D01*
X135231Y352312D01*
X136093Y351260D01*
X137145Y350397D01*
X138345Y349756D01*
X139500Y349406D01*
Y354667D01*
D02*
G37*
G36*
X147761D02*
X142500D01*
Y349405D01*
X143655Y349756D01*
X144855Y350397D01*
X145907Y351260D01*
X146769Y352312D01*
X147411Y353511D01*
X147761Y354667D01*
D02*
G37*
G36*
X141000Y347106D02*
X139646Y346972D01*
X138345Y346577D01*
X137145Y345936D01*
X136093Y345073D01*
X135231Y344022D01*
X134589Y342822D01*
X134194Y341520D01*
X134061Y340167D01*
X134194Y338813D01*
X134589Y337511D01*
X135231Y336312D01*
X136093Y335260D01*
X137145Y334397D01*
X138345Y333756D01*
X139646Y333361D01*
X141000Y333228D01*
X142354Y333361D01*
X143655Y333756D01*
X144855Y334397D01*
X145907Y335260D01*
X146769Y336312D01*
X147411Y337511D01*
X147806Y338813D01*
X147939Y340167D01*
X147806Y341520D01*
X147411Y342822D01*
X146769Y344022D01*
X145907Y345073D01*
X144855Y345936D01*
X143655Y346577D01*
X142354Y346972D01*
X141000Y347106D01*
D02*
G37*
G36*
X143500Y263958D02*
Y260000D01*
X147458D01*
X147411Y260155D01*
X146769Y261355D01*
X145907Y262407D01*
X144855Y263269D01*
X143655Y263911D01*
X143500Y263958D01*
D02*
G37*
G36*
X147458Y255000D02*
X143500D01*
Y251042D01*
X143655Y251089D01*
X144855Y251730D01*
X145907Y252593D01*
X146769Y253645D01*
X147411Y254845D01*
X147458Y255000D01*
D02*
G37*
G36*
X138500D02*
X134542D01*
X134589Y254845D01*
X135231Y253645D01*
X136093Y252593D01*
X137145Y251730D01*
X138345Y251089D01*
X138500Y251042D01*
Y255000D01*
D02*
G37*
G36*
X141000Y248439D02*
X139646Y248306D01*
X138345Y247911D01*
X137145Y247270D01*
X136093Y246407D01*
X135231Y245355D01*
X134589Y244155D01*
X134194Y242854D01*
X134061Y241500D01*
X134194Y240146D01*
X134589Y238845D01*
X135231Y237645D01*
X136093Y236593D01*
X137145Y235731D01*
X138345Y235089D01*
X139646Y234694D01*
X141000Y234561D01*
X142354Y234694D01*
X143655Y235089D01*
X144855Y235731D01*
X145907Y236593D01*
X146769Y237645D01*
X147411Y238845D01*
X147806Y240146D01*
X147939Y241500D01*
X147806Y242854D01*
X147411Y244155D01*
X146769Y245355D01*
X145907Y246407D01*
X144855Y247270D01*
X143655Y247911D01*
X142354Y248306D01*
X141000Y248439D01*
D02*
G37*
G36*
X219232Y219551D02*
X207389D01*
Y217539D01*
X204724D01*
Y219551D01*
X193276D01*
Y211449D01*
X204724D01*
Y213461D01*
X207389D01*
Y211449D01*
X219232D01*
Y219551D01*
D02*
G37*
G36*
X142500Y313595D02*
Y308333D01*
X147761D01*
X147411Y309489D01*
X146769Y310688D01*
X145907Y311740D01*
X144855Y312603D01*
X143655Y313244D01*
X142500Y313595D01*
D02*
G37*
G36*
X139500Y313595D02*
X138345Y313244D01*
X137145Y312603D01*
X136093Y311740D01*
X135231Y310688D01*
X134589Y309489D01*
X134239Y308333D01*
X139500D01*
Y313595D01*
D02*
G37*
G36*
Y305333D02*
X134239D01*
X134589Y304178D01*
X135231Y302978D01*
X136093Y301927D01*
X137145Y301064D01*
X138345Y300423D01*
X139500Y300072D01*
Y305333D01*
D02*
G37*
G36*
X147761D02*
X142500D01*
Y300072D01*
X143655Y300423D01*
X144855Y301064D01*
X145907Y301927D01*
X146769Y302978D01*
X147411Y304178D01*
X147761Y305333D01*
D02*
G37*
G36*
X141000Y297772D02*
X139646Y297639D01*
X138345Y297244D01*
X137145Y296603D01*
X136093Y295740D01*
X135231Y294688D01*
X134589Y293489D01*
X134194Y292187D01*
X134061Y290833D01*
X134194Y289480D01*
X134589Y288178D01*
X135231Y286978D01*
X136093Y285927D01*
X137145Y285064D01*
X138345Y284423D01*
X139646Y284028D01*
X141000Y283894D01*
X142354Y284028D01*
X143655Y284423D01*
X144855Y285064D01*
X145907Y285927D01*
X146769Y286978D01*
X147411Y288178D01*
X147806Y289480D01*
X147939Y290833D01*
X147806Y292187D01*
X147411Y293489D01*
X146769Y294688D01*
X145907Y295740D01*
X144855Y296603D01*
X143655Y297244D01*
X142354Y297639D01*
X141000Y297772D01*
D02*
G37*
G36*
X331000Y250643D02*
Y246685D01*
X334958D01*
X334911Y246841D01*
X334269Y248040D01*
X333407Y249092D01*
X332355Y249955D01*
X331155Y250596D01*
X331000Y250643D01*
D02*
G37*
G36*
X326000D02*
X325845Y250596D01*
X324645Y249955D01*
X323593Y249092D01*
X322730Y248040D01*
X322089Y246841D01*
X322042Y246685D01*
X326000D01*
Y250643D01*
D02*
G37*
G36*
X334958Y241685D02*
X331000D01*
Y237727D01*
X331155Y237774D01*
X332355Y238416D01*
X333407Y239279D01*
X334269Y240330D01*
X334911Y241530D01*
X334958Y241685D01*
D02*
G37*
G36*
X326000D02*
X322042D01*
X322089Y241530D01*
X322730Y240330D01*
X323593Y239279D01*
X324645Y238416D01*
X325845Y237774D01*
X326000Y237727D01*
Y241685D01*
D02*
G37*
G36*
X328500Y231439D02*
X327146Y231306D01*
X325845Y230911D01*
X324645Y230270D01*
X323593Y229407D01*
X322730Y228355D01*
X322089Y227155D01*
X321694Y225854D01*
X321561Y224500D01*
X321694Y223146D01*
X322089Y221845D01*
X322730Y220645D01*
X323593Y219593D01*
X324645Y218730D01*
X325845Y218089D01*
X327146Y217694D01*
X328500Y217561D01*
X329854Y217694D01*
X331155Y218089D01*
X332355Y218730D01*
X333407Y219593D01*
X334269Y220645D01*
X334911Y221845D01*
X335306Y223146D01*
X335439Y224500D01*
X335306Y225854D01*
X334911Y227155D01*
X334269Y228355D01*
X333407Y229407D01*
X332355Y230270D01*
X331155Y230911D01*
X329854Y231306D01*
X328500Y231439D01*
D02*
G37*
G36*
X131878Y177971D02*
X131865D01*
X131851Y177968D01*
X131829Y177965D01*
X131801Y177963D01*
X131770Y177957D01*
X131737Y177946D01*
X131701Y177935D01*
X131660Y177921D01*
X131618Y177902D01*
X131574Y177879D01*
X131529Y177852D01*
X131482Y177819D01*
X131438Y177782D01*
X131394Y177738D01*
X131349Y177688D01*
X131347Y177685D01*
X131338Y177674D01*
X131327Y177658D01*
X131313Y177636D01*
X131297Y177608D01*
X131277Y177572D01*
X131255Y177530D01*
X131236Y177480D01*
X131214Y177428D01*
X131192Y177367D01*
X131172Y177301D01*
X131156Y177226D01*
X131142Y177148D01*
X131131Y177062D01*
X131122Y176971D01*
X131120Y176874D01*
Y176871D01*
Y176868D01*
Y176860D01*
Y176852D01*
X131122Y176824D01*
Y176785D01*
X131125Y176741D01*
X131131Y176691D01*
X131139Y176633D01*
X131147Y176575D01*
X131158Y176511D01*
X131172Y176445D01*
X131189Y176378D01*
X131211Y176314D01*
X131236Y176251D01*
X131263Y176190D01*
X131297Y176132D01*
X131335Y176082D01*
X131338Y176079D01*
X131347Y176071D01*
X131358Y176059D01*
X131374Y176043D01*
X131396Y176023D01*
X131421Y176001D01*
X131449Y175979D01*
X131482Y175954D01*
X131518Y175929D01*
X131557Y175907D01*
X131602Y175885D01*
X131649Y175866D01*
X131696Y175852D01*
X131748Y175838D01*
X131804Y175830D01*
X131859Y175827D01*
X131873D01*
X131890Y175830D01*
X131912Y175832D01*
X131939Y175835D01*
X131970Y175841D01*
X132006Y175849D01*
X132045Y175860D01*
X132083Y175874D01*
X132128Y175891D01*
X132172Y175913D01*
X132216Y175938D01*
X132264Y175968D01*
X132308Y176004D01*
X132352Y176043D01*
X132394Y176090D01*
X132396Y176093D01*
X132405Y176104D01*
X132416Y176118D01*
X132430Y176140D01*
X132446Y176168D01*
X132466Y176204D01*
X132485Y176245D01*
X132507Y176292D01*
X132527Y176348D01*
X132546Y176409D01*
X132565Y176475D01*
X132582Y176550D01*
X132599Y176630D01*
X132610Y176719D01*
X132615Y176813D01*
X132618Y176913D01*
Y176916D01*
Y176918D01*
Y176927D01*
Y176935D01*
Y176963D01*
X132615Y176999D01*
X132613Y177043D01*
X132607Y177093D01*
X132599Y177151D01*
X132590Y177209D01*
X132579Y177273D01*
X132565Y177339D01*
X132546Y177406D01*
X132527Y177470D01*
X132502Y177533D01*
X132471Y177594D01*
X132438Y177652D01*
X132399Y177705D01*
X132396Y177708D01*
X132388Y177716D01*
X132377Y177730D01*
X132360Y177746D01*
X132338Y177766D01*
X132313Y177788D01*
X132286Y177813D01*
X132252Y177838D01*
X132216Y177863D01*
X132175Y177888D01*
X132133Y177910D01*
X132086Y177929D01*
X132039Y177946D01*
X131986Y177960D01*
X131934Y177968D01*
X131878Y177971D01*
D02*
G37*
G36*
X139909Y176893D02*
X139906D01*
X139898Y176888D01*
X139881Y176882D01*
X139862Y176877D01*
X139834Y176866D01*
X139801Y176857D01*
X139762Y176844D01*
X139715Y176832D01*
X139665Y176819D01*
X139607Y176802D01*
X139543Y176788D01*
X139477Y176774D01*
X139399Y176758D01*
X139319Y176744D01*
X139233Y176727D01*
X139139Y176713D01*
X139136D01*
X139125Y176710D01*
X139111D01*
X139092Y176705D01*
X139067Y176702D01*
X139042Y176697D01*
X138978Y176686D01*
X138911Y176672D01*
X138842Y176655D01*
X138781Y176638D01*
X138754Y176630D01*
X138729Y176619D01*
X138723Y176616D01*
X138709Y176611D01*
X138687Y176597D01*
X138662Y176580D01*
X138632Y176561D01*
X138601Y176533D01*
X138571Y176503D01*
X138543Y176467D01*
X138540Y176461D01*
X138532Y176450D01*
X138524Y176428D01*
X138513Y176403D01*
X138499Y176370D01*
X138490Y176331D01*
X138482Y176289D01*
X138479Y176245D01*
Y176242D01*
Y176237D01*
Y176226D01*
X138482Y176215D01*
X138485Y176198D01*
X138488Y176179D01*
X138496Y176134D01*
X138513Y176087D01*
X138540Y176035D01*
X138554Y176007D01*
X138574Y175982D01*
X138596Y175957D01*
X138621Y175932D01*
X138623D01*
X138626Y175927D01*
X138635Y175921D01*
X138648Y175913D01*
X138662Y175904D01*
X138679Y175893D01*
X138701Y175882D01*
X138726Y175871D01*
X138754Y175857D01*
X138784Y175846D01*
X138817Y175835D01*
X138856Y175827D01*
X138895Y175819D01*
X138939Y175813D01*
X138986Y175810D01*
X139036Y175807D01*
X139064D01*
X139083Y175810D01*
X139105D01*
X139133Y175813D01*
X139166Y175819D01*
X139200Y175821D01*
X139274Y175835D01*
X139357Y175857D01*
X139441Y175885D01*
X139521Y175924D01*
X139524Y175927D01*
X139529Y175929D01*
X139540Y175935D01*
X139554Y175946D01*
X139574Y175957D01*
X139593Y175974D01*
X139640Y176010D01*
X139690Y176057D01*
X139740Y176112D01*
X139790Y176176D01*
X139831Y176251D01*
Y176253D01*
X139834Y176259D01*
X139839Y176267D01*
X139842Y176281D01*
X139850Y176298D01*
X139856Y176317D01*
X139862Y176342D01*
X139870Y176370D01*
X139878Y176400D01*
X139884Y176434D01*
X139892Y176472D01*
X139898Y176514D01*
X139900Y176561D01*
X139906Y176611D01*
X139909Y176663D01*
Y176719D01*
Y176893D01*
D02*
G37*
G36*
X144936Y177951D02*
X144906D01*
X144884Y177949D01*
X144853Y177946D01*
X144823Y177940D01*
X144787Y177932D01*
X144748Y177924D01*
X144704Y177913D01*
X144662Y177899D01*
X144615Y177879D01*
X144571Y177860D01*
X144524Y177835D01*
X144476Y177805D01*
X144432Y177771D01*
X144391Y177733D01*
X144388Y177730D01*
X144382Y177722D01*
X144371Y177710D01*
X144354Y177694D01*
X144338Y177672D01*
X144318Y177644D01*
X144299Y177613D01*
X144277Y177580D01*
X144255Y177541D01*
X144233Y177497D01*
X144213Y177450D01*
X144194Y177398D01*
X144177Y177345D01*
X144163Y177284D01*
X144152Y177223D01*
X144147Y177156D01*
X145701D01*
Y177159D01*
X145698Y177173D01*
Y177190D01*
X145693Y177215D01*
X145690Y177242D01*
X145681Y177276D01*
X145676Y177314D01*
X145665Y177353D01*
X145643Y177439D01*
X145612Y177525D01*
X145571Y177608D01*
X145546Y177647D01*
X145521Y177680D01*
X145518Y177683D01*
X145510Y177691D01*
X145499Y177705D01*
X145479Y177722D01*
X145457Y177744D01*
X145432Y177766D01*
X145399Y177791D01*
X145363Y177816D01*
X145324Y177841D01*
X145280Y177866D01*
X145233Y177888D01*
X145180Y177910D01*
X145125Y177927D01*
X145064Y177940D01*
X145003Y177949D01*
X144936Y177951D01*
D02*
G37*
G36*
X128840Y177949D02*
X128823D01*
X128806Y177946D01*
X128782D01*
X128751Y177940D01*
X128715Y177935D01*
X128676Y177927D01*
X128635Y177915D01*
X128591Y177902D01*
X128543Y177885D01*
X128493Y177863D01*
X128444Y177838D01*
X128397Y177807D01*
X128347Y177771D01*
X128300Y177730D01*
X128255Y177683D01*
X128252Y177680D01*
X128244Y177672D01*
X128233Y177655D01*
X128219Y177633D01*
X128203Y177605D01*
X128183Y177572D01*
X128161Y177530D01*
X128142Y177486D01*
X128120Y177431D01*
X128097Y177373D01*
X128078Y177309D01*
X128061Y177237D01*
X128048Y177159D01*
X128036Y177073D01*
X128028Y176985D01*
X128025Y176888D01*
Y176885D01*
Y176882D01*
Y176874D01*
Y176866D01*
X128028Y176838D01*
Y176802D01*
X128034Y176758D01*
X128036Y176705D01*
X128045Y176649D01*
X128053Y176589D01*
X128067Y176525D01*
X128081Y176458D01*
X128100Y176392D01*
X128122Y176328D01*
X128150Y176262D01*
X128181Y176201D01*
X128214Y176143D01*
X128255Y176090D01*
X128258Y176087D01*
X128266Y176079D01*
X128280Y176065D01*
X128297Y176049D01*
X128319Y176029D01*
X128347Y176007D01*
X128380Y175982D01*
X128416Y175960D01*
X128455Y175935D01*
X128499Y175910D01*
X128549Y175888D01*
X128599Y175868D01*
X128654Y175852D01*
X128715Y175838D01*
X128776Y175830D01*
X128840Y175827D01*
X128856D01*
X128873Y175830D01*
X128898Y175832D01*
X128928Y175835D01*
X128964Y175841D01*
X129003Y175849D01*
X129045Y175860D01*
X129089Y175874D01*
X129136Y175891D01*
X129186Y175913D01*
X129236Y175940D01*
X129283Y175971D01*
X129333Y176004D01*
X129380Y176046D01*
X129424Y176093D01*
X129427Y176096D01*
X129435Y176107D01*
X129446Y176120D01*
X129460Y176143D01*
X129480Y176170D01*
X129499Y176206D01*
X129518Y176248D01*
X129541Y176295D01*
X129563Y176348D01*
X129582Y176409D01*
X129604Y176475D01*
X129621Y176547D01*
X129635Y176627D01*
X129646Y176713D01*
X129654Y176805D01*
X129657Y176904D01*
Y176907D01*
Y176910D01*
Y176927D01*
X129654Y176954D01*
Y176988D01*
X129649Y177032D01*
X129646Y177082D01*
X129638Y177134D01*
X129627Y177195D01*
X129615Y177256D01*
X129599Y177320D01*
X129579Y177384D01*
X129557Y177450D01*
X129530Y177511D01*
X129499Y177572D01*
X129463Y177630D01*
X129421Y177683D01*
X129419Y177685D01*
X129410Y177694D01*
X129397Y177708D01*
X129380Y177724D01*
X129358Y177744D01*
X129330Y177766D01*
X129297Y177791D01*
X129261Y177816D01*
X129222Y177841D01*
X129178Y177866D01*
X129131Y177888D01*
X129078Y177907D01*
X129023Y177924D01*
X128964Y177938D01*
X128903Y177946D01*
X128840Y177949D01*
D02*
G37*
%LPD*%
D12*
X229750Y408500D02*
X236605D01*
X228269Y407019D02*
X229750Y408500D01*
X224518Y407019D02*
X228269D01*
X224500Y407000D02*
X224518Y407019D01*
X217355Y426855D02*
X236814D01*
X216500Y426000D02*
X217355Y426855D01*
X216500Y423000D02*
Y426000D01*
Y423000D02*
X217500Y422000D01*
X224500D01*
X259319Y341737D02*
Y358500D01*
X255082Y337500D02*
X259319Y341737D01*
X251650Y337500D02*
X255082D01*
X249105Y334955D02*
X251650Y337500D01*
X259000Y358500D02*
X259319D01*
X249105Y329500D02*
Y334955D01*
X224500Y277500D02*
X229000D01*
X230155Y279655D02*
X236000D01*
X229000Y277500D02*
X229500Y278000D01*
Y279000D01*
X230155Y279655D01*
X237519Y297000D02*
X238291Y297772D01*
X217500Y297000D02*
X237519D01*
X216500Y296000D02*
X217500Y297000D01*
X216500Y294000D02*
Y296000D01*
Y294000D02*
X218000Y292500D01*
X224500D01*
X244000Y222000D02*
X248500Y226500D01*
X257957D01*
X244000Y214690D02*
Y222000D01*
X244105Y324500D02*
X254105D01*
Y334500D01*
X234105Y324500D02*
X254105D01*
X234105Y334500D02*
X254105D01*
X234105Y324500D02*
Y334500D01*
X249000Y209690D02*
Y219690D01*
X239000D02*
X249000D01*
Y199690D02*
Y219690D01*
X239000Y199690D02*
Y219690D01*
Y199690D02*
X249000D01*
X231000Y274655D02*
Y284655D01*
Y274655D02*
X241000D01*
X231000D02*
Y294655D01*
X241000Y274655D02*
Y294655D01*
X231000D02*
X241000D01*
X231605Y403500D02*
Y413500D01*
Y403500D02*
X241605D01*
X231605D02*
Y423500D01*
X241605Y403500D02*
Y423500D01*
X231605D02*
X241605D01*
D14*
X307500Y437750D02*
D03*
X305500Y447828D02*
D03*
X271000D02*
D03*
X120500Y226000D02*
D03*
Y279000D02*
D03*
Y271000D02*
D03*
Y321000D02*
D03*
Y328500D02*
D03*
Y370000D02*
D03*
Y377000D02*
D03*
Y419500D02*
D03*
X260000Y447828D02*
D03*
D15*
X257500Y384500D02*
D03*
Y395500D02*
D03*
X239000Y384500D02*
D03*
Y395500D02*
D03*
X301000Y406731D02*
D03*
Y417731D02*
D03*
X223000Y444000D02*
D03*
Y433000D02*
D03*
X222500Y314500D02*
D03*
Y303500D02*
D03*
X250000Y262500D02*
D03*
Y251500D02*
D03*
X204606Y444376D02*
D03*
Y433376D02*
D03*
X301000Y320500D02*
D03*
Y309500D02*
D03*
Y369750D02*
D03*
Y358750D02*
D03*
X204606Y314500D02*
D03*
Y303500D02*
D03*
X301000Y272500D02*
D03*
Y261500D02*
D03*
X238000Y262500D02*
D03*
Y251500D02*
D03*
D16*
X216591Y229000D02*
D03*
X211591D02*
D03*
X206591D02*
D03*
X221591D02*
D03*
Y250500D02*
D03*
X206591D02*
D03*
X211591D02*
D03*
X216591D02*
D03*
X183000Y430642D02*
D03*
X178000D02*
D03*
X173000D02*
D03*
X188000D02*
D03*
Y409142D02*
D03*
X173000D02*
D03*
X178000D02*
D03*
X183000D02*
D03*
X216591Y383500D02*
D03*
X211591D02*
D03*
X206591D02*
D03*
X221591D02*
D03*
Y362000D02*
D03*
X206591D02*
D03*
X211591D02*
D03*
X216591D02*
D03*
X183500Y301000D02*
D03*
X178500D02*
D03*
X173500D02*
D03*
X188500D02*
D03*
Y279500D02*
D03*
X173500D02*
D03*
X178500D02*
D03*
X183500D02*
D03*
D17*
X214091Y236858D02*
D03*
X180500Y417000D02*
D03*
X214091Y369858D02*
D03*
X181000Y287358D02*
D03*
D18*
X295228Y232500D02*
D03*
Y237500D02*
D03*
Y242500D02*
D03*
Y247500D02*
D03*
X273772Y232500D02*
D03*
Y237500D02*
D03*
Y242500D02*
D03*
Y247500D02*
D03*
X257957Y226500D02*
D03*
Y231500D02*
D03*
Y236500D02*
D03*
Y241500D02*
D03*
X236500Y226500D02*
D03*
Y231500D02*
D03*
Y236500D02*
D03*
Y241500D02*
D03*
X224500Y277500D02*
D03*
Y282500D02*
D03*
Y287500D02*
D03*
Y292500D02*
D03*
X203043Y277500D02*
D03*
Y282500D02*
D03*
Y287500D02*
D03*
Y292500D02*
D03*
X259000Y358500D02*
D03*
Y363500D02*
D03*
Y368500D02*
D03*
Y373500D02*
D03*
X237543Y358500D02*
D03*
Y363500D02*
D03*
Y368500D02*
D03*
Y373500D02*
D03*
X224500Y407000D02*
D03*
Y412000D02*
D03*
Y417000D02*
D03*
Y422000D02*
D03*
X203043Y407000D02*
D03*
Y412000D02*
D03*
Y417000D02*
D03*
Y422000D02*
D03*
D19*
X265500Y290500D02*
D03*
X283500D02*
D03*
Y266500D02*
D03*
X265500D02*
D03*
D20*
X292500Y221500D02*
D03*
X281500D02*
D03*
D21*
X237500Y344500D02*
D03*
X251500D02*
D03*
X171500Y244000D02*
D03*
X185500D02*
D03*
X213310Y215500D02*
D03*
X227310D02*
D03*
X186500Y378000D02*
D03*
X172500D02*
D03*
D22*
X205750Y345073D02*
D03*
X223750D02*
D03*
X170500Y258500D02*
D03*
X188500D02*
D03*
X181000Y215500D02*
D03*
X199000D02*
D03*
X188640Y393500D02*
D03*
X170640D02*
D03*
D36*
X282181Y232500D02*
X285500Y235819D01*
X276636Y255000D02*
X282864D01*
X281000Y238681D02*
Y250500D01*
X285500Y235819D02*
Y252364D01*
X282864Y255000D02*
X285500Y252364D01*
X121500Y376000D02*
X132500D01*
X120500Y377000D02*
X121500Y376000D01*
X122500Y326500D02*
X131000D01*
X120500Y328500D02*
X122500Y326500D01*
X120500Y279000D02*
X122581Y276919D01*
X130645D01*
X280685Y204815D02*
X328500D01*
X263500Y227000D02*
X277000Y213500D01*
Y208500D02*
X280685Y204815D01*
X277000Y208500D02*
Y213500D01*
X263500Y227000D02*
Y243720D01*
X292000Y223000D02*
X301765D01*
X291500Y223500D02*
X292000Y223000D01*
X301655D02*
X301765D01*
X301155Y223500D02*
X301655Y223000D01*
X271183Y448010D02*
X278000D01*
X271000Y447828D02*
X271183Y448010D01*
X120500Y219000D02*
Y226000D01*
Y219000D02*
X120625Y218875D01*
X127500Y271000D02*
X141000Y257500D01*
X120500Y271000D02*
X127500D01*
X120500Y321000D02*
X126833D01*
X141000Y306833D01*
X120500Y370000D02*
X128000D01*
X120500Y419500D02*
X131730D01*
X327750Y437750D02*
X329000Y439000D01*
X314317Y447828D02*
X314500Y448010D01*
X305500Y447828D02*
X314317D01*
X304000Y227500D02*
Y236265D01*
X301069Y224569D02*
X304000Y227500D01*
X300086Y224569D02*
X301069D01*
X227310Y244544D02*
Y247798D01*
X224608Y250500D02*
X227310Y247798D01*
X221591Y250500D02*
X224608D01*
X227310Y244544D02*
X230354Y241500D01*
X232120Y378500D02*
X236000D01*
X227120Y383500D02*
X232120Y378500D01*
X279819Y237500D02*
X281000Y238681D01*
X288500Y249500D02*
X290500Y251500D01*
X288500Y232500D02*
Y249500D01*
X275636Y254000D02*
X276636Y255000D01*
X260000Y254000D02*
X275636D01*
X221591Y383500D02*
X227120D01*
X222500Y344500D02*
X237500D01*
X222231Y344769D02*
X222500Y344500D01*
X290500Y251500D02*
Y259500D01*
X273772Y237500D02*
X279819D01*
X276250Y232500D02*
X282181D01*
X258257Y251500D02*
X260757Y249000D01*
X250000Y251500D02*
X258257D01*
X260757Y249000D02*
X261000D01*
X227310Y204690D02*
Y215500D01*
X288500Y232500D02*
X295228D01*
X326815Y242500D02*
X328500Y244185D01*
X295228Y242500D02*
X326815D01*
X263500Y243720D02*
X267280Y247500D01*
X295228Y237500D02*
X302765D01*
X304000Y236265D01*
X267280Y247500D02*
X273772D01*
X251000Y345000D02*
Y353347D01*
Y345000D02*
X251500Y344500D01*
X199000Y215500D02*
X213310D01*
X301000Y253561D02*
Y261500D01*
Y301000D02*
Y309500D01*
Y350500D02*
Y358750D01*
Y398500D02*
Y406731D01*
X248000Y236500D02*
X257957D01*
X248000Y231500D02*
Y236500D01*
X230354Y241500D02*
X236500D01*
X258500Y255500D02*
Y259500D01*
Y255500D02*
X260000Y254000D01*
X258500Y259500D02*
X265500Y266500D01*
X283500D02*
X290500Y259500D01*
X229000Y236500D02*
X236500D01*
X214449D02*
X229000D01*
X214091Y236858D02*
X214449Y236500D01*
X229000Y228500D02*
Y236500D01*
Y228500D02*
X231000Y226500D01*
X236500D01*
X196000Y287500D02*
X203043D01*
X181142D02*
X196000D01*
Y280000D02*
Y287500D01*
Y280000D02*
X198500Y277500D01*
X203043D01*
X181000Y287358D02*
X181142Y287500D01*
X214091Y374500D02*
X228688D01*
X230000Y373188D01*
Y368500D02*
Y373188D01*
X236000Y378500D02*
X237543Y376957D01*
Y373500D02*
Y376957D01*
X230000Y368500D02*
X237543D01*
X230000Y360500D02*
Y368500D01*
Y360500D02*
X232000Y358500D01*
X237543D01*
X196500Y417000D02*
X203043D01*
X180500D02*
X196500D01*
Y408500D02*
Y417000D01*
Y408500D02*
X198000Y407000D01*
X203043D01*
X238000Y251500D02*
X247000D01*
X204606Y303500D02*
X213500D01*
X222500D01*
X239000Y384500D02*
X257500D01*
X204606Y433376D02*
X204982Y433000D01*
X223000D01*
X185500Y244000D02*
X193500D01*
X199500Y250000D01*
Y259500D01*
X187000Y258500D02*
X188500D01*
X173000Y244000D02*
Y244500D01*
X187000Y258500D01*
X173140Y378000D02*
X188640Y393500D01*
X172500Y378000D02*
X173140D01*
X192858Y430642D02*
X196000Y427500D01*
X198000Y422000D02*
X203043D01*
X196000Y424000D02*
Y427500D01*
Y424000D02*
X198000Y422000D01*
X202000Y292500D02*
X203043D01*
X193500Y301000D02*
X202000Y292500D01*
X188500Y301000D02*
X193500D01*
X188000Y430642D02*
X192858D01*
X187500Y378000D02*
X197000Y387500D01*
X186500Y378000D02*
X187500D01*
X236500Y231500D02*
X248000D01*
X257957D01*
X214000Y282500D02*
Y287000D01*
X214500Y287500D01*
X224500D01*
X214000Y282500D02*
X224500D01*
X203043D02*
X214000D01*
X248272Y363500D02*
X259000D01*
X237543D02*
X248272D01*
X248333Y368500D02*
X259000D01*
X248272Y368438D02*
X248333Y368500D01*
X248272Y363500D02*
Y368438D01*
X214000Y416500D02*
X214500Y417000D01*
X224500D01*
X214000Y412000D02*
Y416500D01*
Y412000D02*
X224500D01*
X203043D02*
X214000D01*
D37*
X239105Y329500D02*
D03*
X249105D02*
D03*
X244000Y204690D02*
D03*
Y214690D02*
D03*
X236000Y289655D02*
D03*
Y279655D02*
D03*
X236605Y418500D02*
D03*
Y408500D02*
D03*
D38*
X329000Y423000D02*
D03*
Y439000D02*
D03*
X328500Y204815D02*
D03*
Y224500D02*
D03*
Y244185D02*
D03*
X141000Y389500D02*
D03*
Y405500D02*
D03*
X329000Y390333D02*
D03*
Y374333D02*
D03*
X141000Y340167D02*
D03*
Y356167D02*
D03*
X329000Y341667D02*
D03*
Y325667D02*
D03*
X141000Y290833D02*
D03*
Y306833D02*
D03*
X329000Y293000D02*
D03*
Y277000D02*
D03*
X141000Y241500D02*
D03*
Y257500D02*
D03*
D39*
X263500Y207500D02*
D03*
X292500Y438500D02*
D03*
X132500D02*
D03*
Y207500D02*
D03*
D40*
X281000Y250500D02*
D03*
X130645Y276919D02*
D03*
X132500Y376000D02*
D03*
X131000Y326500D02*
D03*
X301765Y223000D02*
D03*
X278000Y448010D02*
D03*
X120625Y218875D02*
D03*
X314500Y448010D02*
D03*
X261000Y249000D02*
D03*
X227310Y204690D02*
D03*
X251000Y353347D02*
D03*
X301000Y301000D02*
D03*
Y398500D02*
D03*
Y350500D02*
D03*
Y253561D02*
D03*
X213500Y303500D02*
D03*
X248250Y384500D02*
D03*
X213991Y433000D02*
D03*
X199500Y259500D02*
D03*
X197000Y387500D02*
D03*
X248272Y363500D02*
D03*
X214000Y412000D02*
D03*
X248000Y231500D02*
D03*
X214000Y282500D02*
D03*
M02*
