G04*
G04 #@! TF.GenerationSoftware,Altium Limited,Altium Designer,18.1.9 (240)*
G04*
G04 Layer_Physical_Order=2*
G04 Layer_Color=16711680*
%FSLAX25Y25*%
%MOIN*%
G70*
G01*
G75*
%ADD10C,0.01000*%
%ADD36C,0.02000*%
%ADD37C,0.16929*%
%ADD38C,0.07087*%
%ADD39C,0.11811*%
%ADD40C,0.05000*%
G36*
X349500Y196500D02*
X115260Y196500D01*
X115260Y451240D01*
X349500Y451240D01*
X349500Y196500D01*
D02*
G37*
G36*
X155219Y178342D02*
X155280Y178331D01*
X155352Y178308D01*
X155430Y178281D01*
X155518Y178242D01*
X155613Y178192D01*
X155441Y177759D01*
X155435Y177764D01*
X155413Y177776D01*
X155380Y177792D01*
X155335Y177809D01*
X155285Y177825D01*
X155224Y177842D01*
X155163Y177853D01*
X155102Y177859D01*
X155075D01*
X155047Y177853D01*
X155008Y177848D01*
X154969Y177837D01*
X154919Y177820D01*
X154869Y177798D01*
X154825Y177764D01*
X154819Y177759D01*
X154803Y177748D01*
X154786Y177726D01*
X154758Y177698D01*
X154730Y177659D01*
X154703Y177615D01*
X154675Y177565D01*
X154653Y177504D01*
X154647Y177492D01*
X154642Y177459D01*
X154630Y177409D01*
X154614Y177343D01*
X154597Y177259D01*
X154586Y177165D01*
X154580Y177065D01*
X154575Y176954D01*
Y175500D01*
X154103D01*
Y178286D01*
X154531D01*
Y177864D01*
X154536Y177870D01*
X154558Y177909D01*
X154586Y177959D01*
X154630Y178020D01*
X154675Y178081D01*
X154725Y178147D01*
X154775Y178203D01*
X154825Y178247D01*
X154830Y178253D01*
X154847Y178264D01*
X154880Y178281D01*
X154913Y178297D01*
X154958Y178314D01*
X155013Y178331D01*
X155069Y178342D01*
X155130Y178347D01*
X155169D01*
X155219Y178342D01*
D02*
G37*
G36*
X139479Y178342D02*
X139518D01*
X139557Y178336D01*
X139651Y178319D01*
X139751Y178292D01*
X139856Y178247D01*
X139962Y178192D01*
X140051Y178114D01*
X140062Y178103D01*
X140084Y178070D01*
X140123Y178020D01*
X140139Y177981D01*
X140162Y177942D01*
X140184Y177892D01*
X140200Y177842D01*
X140223Y177787D01*
X140239Y177720D01*
X140250Y177653D01*
X140261Y177576D01*
X140273Y177498D01*
Y177409D01*
Y175500D01*
X139801D01*
Y177248D01*
Y177254D01*
Y177259D01*
Y177293D01*
Y177343D01*
X139795Y177404D01*
X139790Y177470D01*
X139784Y177537D01*
X139773Y177603D01*
X139756Y177653D01*
Y177659D01*
X139745Y177676D01*
X139734Y177698D01*
X139718Y177726D01*
X139695Y177759D01*
X139668Y177792D01*
X139634Y177825D01*
X139590Y177859D01*
X139584Y177864D01*
X139568Y177870D01*
X139546Y177881D01*
X139507Y177898D01*
X139468Y177914D01*
X139418Y177925D01*
X139368Y177931D01*
X139307Y177936D01*
X139279D01*
X139257Y177931D01*
X139201Y177925D01*
X139135Y177914D01*
X139057Y177886D01*
X138974Y177853D01*
X138891Y177803D01*
X138813Y177737D01*
X138807Y177726D01*
X138785Y177698D01*
X138752Y177653D01*
X138719Y177587D01*
X138680Y177498D01*
X138652Y177393D01*
X138630Y177265D01*
X138619Y177115D01*
Y175500D01*
X138147D01*
Y177304D01*
Y177309D01*
Y177320D01*
Y177331D01*
Y177354D01*
X138141Y177415D01*
X138130Y177481D01*
X138119Y177559D01*
X138097Y177637D01*
X138069Y177709D01*
X138030Y177776D01*
X138025Y177781D01*
X138008Y177803D01*
X137980Y177825D01*
X137942Y177859D01*
X137892Y177886D01*
X137825Y177914D01*
X137747Y177931D01*
X137653Y177936D01*
X137620D01*
X137581Y177931D01*
X137536Y177925D01*
X137481Y177909D01*
X137414Y177892D01*
X137353Y177864D01*
X137287Y177831D01*
X137281Y177825D01*
X137259Y177809D01*
X137231Y177787D01*
X137192Y177753D01*
X137153Y177709D01*
X137115Y177653D01*
X137076Y177592D01*
X137042Y177520D01*
X137037Y177509D01*
X137031Y177481D01*
X137020Y177437D01*
X137004Y177376D01*
X136987Y177293D01*
X136976Y177193D01*
X136970Y177076D01*
X136965Y176943D01*
Y175500D01*
X136493D01*
Y178286D01*
X136915D01*
Y177886D01*
X136920Y177898D01*
X136937Y177920D01*
X136970Y177959D01*
X137009Y178003D01*
X137059Y178059D01*
X137120Y178114D01*
X137187Y178170D01*
X137265Y178219D01*
X137276Y178225D01*
X137303Y178242D01*
X137348Y178258D01*
X137409Y178286D01*
X137481Y178308D01*
X137564Y178325D01*
X137659Y178342D01*
X137758Y178347D01*
X137808D01*
X137870Y178342D01*
X137936Y178331D01*
X138019Y178314D01*
X138102Y178292D01*
X138186Y178258D01*
X138263Y178214D01*
X138275Y178208D01*
X138297Y178192D01*
X138330Y178164D01*
X138374Y178120D01*
X138419Y178070D01*
X138469Y178009D01*
X138513Y177936D01*
X138547Y177853D01*
X138552Y177859D01*
X138563Y177875D01*
X138580Y177898D01*
X138608Y177931D01*
X138641Y177970D01*
X138680Y178009D01*
X138724Y178053D01*
X138780Y178103D01*
X138841Y178147D01*
X138902Y178192D01*
X138974Y178231D01*
X139052Y178270D01*
X139135Y178303D01*
X139224Y178325D01*
X139312Y178342D01*
X139412Y178347D01*
X139451D01*
X139479Y178342D01*
D02*
G37*
G36*
X149658Y175456D02*
Y175450D01*
X149652Y175433D01*
X149641Y175411D01*
X149630Y175383D01*
X149613Y175345D01*
X149597Y175300D01*
X149558Y175206D01*
X149519Y175100D01*
X149475Y174995D01*
X149430Y174901D01*
X149408Y174862D01*
X149391Y174823D01*
X149386Y174812D01*
X149369Y174784D01*
X149341Y174745D01*
X149308Y174695D01*
X149264Y174640D01*
X149214Y174584D01*
X149164Y174529D01*
X149103Y174484D01*
X149097Y174479D01*
X149075Y174468D01*
X149042Y174451D01*
X148992Y174429D01*
X148936Y174407D01*
X148870Y174390D01*
X148797Y174379D01*
X148714Y174373D01*
X148692D01*
X148664Y174379D01*
X148625D01*
X148581Y174390D01*
X148531Y174401D01*
X148476Y174412D01*
X148415Y174434D01*
X148364Y174873D01*
X148370D01*
X148392Y174867D01*
X148420Y174862D01*
X148453Y174851D01*
X148542Y174834D01*
X148631Y174828D01*
X148659D01*
X148686Y174834D01*
X148720D01*
X148803Y174851D01*
X148842Y174867D01*
X148881Y174884D01*
X148886D01*
X148897Y174895D01*
X148914Y174906D01*
X148936Y174923D01*
X148986Y174967D01*
X149030Y175028D01*
Y175034D01*
X149042Y175045D01*
X149053Y175067D01*
X149064Y175100D01*
X149086Y175145D01*
X149108Y175211D01*
X149142Y175289D01*
X149175Y175383D01*
Y175389D01*
X149186Y175411D01*
X149197Y175450D01*
X149219Y175500D01*
X148165Y178286D01*
X148664D01*
X149247Y176671D01*
Y176665D01*
X149252Y176660D01*
X149258Y176643D01*
X149264Y176616D01*
X149275Y176588D01*
X149286Y176555D01*
X149314Y176477D01*
X149347Y176382D01*
X149380Y176271D01*
X149413Y176155D01*
X149447Y176027D01*
Y176033D01*
X149452Y176044D01*
X149458Y176060D01*
X149463Y176083D01*
X149469Y176110D01*
X149480Y176144D01*
X149502Y176227D01*
X149530Y176321D01*
X149569Y176432D01*
X149602Y176543D01*
X149647Y176660D01*
X150246Y178286D01*
X150718D01*
X149658Y175456D01*
D02*
G37*
G36*
X146749Y178342D02*
X146833Y178336D01*
X146927Y178325D01*
X147021Y178308D01*
X147116Y178286D01*
X147204Y178258D01*
X147216Y178253D01*
X147243Y178242D01*
X147282Y178225D01*
X147332Y178203D01*
X147388Y178170D01*
X147443Y178136D01*
X147493Y178092D01*
X147538Y178048D01*
X147543Y178042D01*
X147554Y178025D01*
X147571Y177998D01*
X147593Y177964D01*
X147621Y177914D01*
X147643Y177864D01*
X147665Y177803D01*
X147682Y177731D01*
Y177726D01*
X147687Y177709D01*
X147693Y177676D01*
X147698Y177631D01*
Y177570D01*
X147704Y177498D01*
X147710Y177404D01*
Y177298D01*
Y176665D01*
Y176660D01*
Y176638D01*
Y176604D01*
Y176560D01*
Y176510D01*
Y176449D01*
X147715Y176316D01*
Y176177D01*
X147721Y176038D01*
X147726Y175977D01*
Y175922D01*
X147732Y175872D01*
X147737Y175833D01*
Y175827D01*
X147743Y175805D01*
X147748Y175772D01*
X147765Y175727D01*
X147776Y175678D01*
X147798Y175622D01*
X147826Y175561D01*
X147854Y175500D01*
X147360D01*
X147354Y175505D01*
X147349Y175528D01*
X147338Y175556D01*
X147321Y175600D01*
X147304Y175650D01*
X147293Y175711D01*
X147282Y175777D01*
X147271Y175850D01*
X147266D01*
X147260Y175839D01*
X147227Y175811D01*
X147177Y175772D01*
X147110Y175722D01*
X147027Y175672D01*
X146944Y175617D01*
X146855Y175567D01*
X146760Y175528D01*
X146749Y175522D01*
X146716Y175517D01*
X146666Y175500D01*
X146605Y175483D01*
X146527Y175467D01*
X146439Y175456D01*
X146339Y175444D01*
X146239Y175439D01*
X146195D01*
X146161Y175444D01*
X146122D01*
X146078Y175450D01*
X145978Y175467D01*
X145867Y175495D01*
X145745Y175533D01*
X145634Y175589D01*
X145534Y175661D01*
X145523Y175672D01*
X145495Y175700D01*
X145456Y175750D01*
X145412Y175816D01*
X145368Y175900D01*
X145329Y175994D01*
X145301Y176110D01*
X145295Y176166D01*
X145290Y176233D01*
Y176244D01*
Y176266D01*
X145295Y176305D01*
X145301Y176355D01*
X145312Y176416D01*
X145329Y176477D01*
X145351Y176543D01*
X145379Y176604D01*
X145384Y176610D01*
X145395Y176632D01*
X145417Y176665D01*
X145445Y176704D01*
X145478Y176749D01*
X145523Y176793D01*
X145567Y176838D01*
X145623Y176876D01*
X145628Y176882D01*
X145650Y176893D01*
X145678Y176915D01*
X145723Y176937D01*
X145773Y176960D01*
X145834Y176987D01*
X145895Y177010D01*
X145967Y177032D01*
X145973D01*
X145995Y177037D01*
X146028Y177049D01*
X146072Y177054D01*
X146128Y177065D01*
X146200Y177076D01*
X146283Y177093D01*
X146383Y177104D01*
X146389D01*
X146411Y177110D01*
X146439D01*
X146477Y177115D01*
X146522Y177121D01*
X146577Y177132D01*
X146638Y177137D01*
X146705Y177148D01*
X146838Y177176D01*
X146983Y177204D01*
X147110Y177237D01*
X147171Y177254D01*
X147227Y177270D01*
Y177276D01*
Y177287D01*
X147232Y177320D01*
Y177359D01*
Y177381D01*
Y177393D01*
Y177398D01*
Y177404D01*
Y177437D01*
X147227Y177492D01*
X147216Y177553D01*
X147199Y177620D01*
X147171Y177687D01*
X147138Y177748D01*
X147094Y177798D01*
X147088Y177803D01*
X147060Y177825D01*
X147016Y177848D01*
X146960Y177881D01*
X146883Y177909D01*
X146794Y177936D01*
X146683Y177953D01*
X146555Y177959D01*
X146500D01*
X146444Y177953D01*
X146367Y177942D01*
X146289Y177931D01*
X146205Y177909D01*
X146128Y177881D01*
X146061Y177842D01*
X146056Y177837D01*
X146034Y177820D01*
X146006Y177792D01*
X145973Y177748D01*
X145939Y177692D01*
X145900Y177620D01*
X145867Y177531D01*
X145834Y177431D01*
X145373Y177492D01*
Y177498D01*
X145379Y177504D01*
Y177520D01*
X145384Y177542D01*
X145401Y177592D01*
X145423Y177664D01*
X145451Y177737D01*
X145484Y177814D01*
X145528Y177892D01*
X145578Y177964D01*
X145584Y177970D01*
X145606Y177992D01*
X145640Y178025D01*
X145684Y178070D01*
X145745Y178114D01*
X145817Y178158D01*
X145900Y178208D01*
X145995Y178247D01*
X146000D01*
X146006Y178253D01*
X146022Y178258D01*
X146045Y178264D01*
X146100Y178280D01*
X146178Y178297D01*
X146267Y178314D01*
X146378Y178331D01*
X146494Y178342D01*
X146627Y178347D01*
X146688D01*
X146749Y178342D01*
D02*
G37*
G36*
X143014Y175955D02*
X144907D01*
Y175500D01*
X142504D01*
Y179341D01*
X143014D01*
Y175955D01*
D02*
G37*
G36*
X125549Y179335D02*
X125593D01*
X125693Y179324D01*
X125804Y179313D01*
X125920Y179291D01*
X126037Y179263D01*
X126142Y179224D01*
X126148D01*
X126153Y179218D01*
X126187Y179202D01*
X126237Y179174D01*
X126292Y179135D01*
X126359Y179085D01*
X126431Y179024D01*
X126497Y178947D01*
X126558Y178863D01*
X126564Y178852D01*
X126581Y178819D01*
X126609Y178774D01*
X126636Y178708D01*
X126664Y178630D01*
X126692Y178547D01*
X126708Y178453D01*
X126714Y178358D01*
Y178347D01*
Y178319D01*
X126708Y178270D01*
X126697Y178208D01*
X126681Y178136D01*
X126653Y178059D01*
X126620Y177981D01*
X126575Y177898D01*
X126570Y177886D01*
X126553Y177864D01*
X126520Y177820D01*
X126475Y177776D01*
X126420Y177720D01*
X126353Y177659D01*
X126270Y177603D01*
X126176Y177548D01*
X126181D01*
X126192Y177542D01*
X126209Y177537D01*
X126231Y177526D01*
X126298Y177504D01*
X126375Y177465D01*
X126459Y177415D01*
X126553Y177354D01*
X126636Y177281D01*
X126714Y177193D01*
X126719Y177182D01*
X126742Y177148D01*
X126775Y177098D01*
X126808Y177032D01*
X126842Y176943D01*
X126875Y176849D01*
X126897Y176738D01*
X126903Y176616D01*
Y176610D01*
Y176604D01*
Y176571D01*
X126897Y176516D01*
X126886Y176449D01*
X126875Y176371D01*
X126853Y176288D01*
X126825Y176199D01*
X126786Y176110D01*
X126780Y176099D01*
X126764Y176072D01*
X126742Y176033D01*
X126708Y175977D01*
X126664Y175922D01*
X126620Y175861D01*
X126564Y175800D01*
X126503Y175750D01*
X126497Y175744D01*
X126475Y175727D01*
X126436Y175705D01*
X126386Y175683D01*
X126326Y175650D01*
X126253Y175617D01*
X126176Y175589D01*
X126081Y175561D01*
X126070D01*
X126037Y175550D01*
X125981Y175544D01*
X125909Y175533D01*
X125820Y175522D01*
X125715Y175511D01*
X125598Y175505D01*
X125465Y175500D01*
X124000D01*
Y179341D01*
X125510D01*
X125549Y179335D01*
D02*
G37*
G36*
X132569Y178286D02*
X133046D01*
Y177920D01*
X132569D01*
Y176283D01*
Y176271D01*
Y176249D01*
Y176216D01*
X132575Y176177D01*
X132580Y176088D01*
X132586Y176049D01*
X132591Y176022D01*
X132597Y176011D01*
X132614Y175988D01*
X132636Y175961D01*
X132675Y175933D01*
X132686Y175927D01*
X132713Y175916D01*
X132763Y175905D01*
X132836Y175900D01*
X132891D01*
X132919Y175905D01*
X132958D01*
X133002Y175911D01*
X133046Y175916D01*
X133107Y175500D01*
X133097D01*
X133074Y175495D01*
X133035Y175489D01*
X132985Y175483D01*
X132930Y175472D01*
X132869Y175467D01*
X132747Y175461D01*
X132702D01*
X132658Y175467D01*
X132603Y175472D01*
X132536Y175478D01*
X132469Y175495D01*
X132408Y175511D01*
X132347Y175539D01*
X132342Y175544D01*
X132325Y175556D01*
X132303Y175572D01*
X132270Y175600D01*
X132242Y175628D01*
X132208Y175666D01*
X132175Y175705D01*
X132153Y175755D01*
Y175761D01*
X132142Y175783D01*
X132136Y175822D01*
X132125Y175877D01*
X132114Y175950D01*
X132108Y175994D01*
Y176044D01*
X132103Y176105D01*
X132097Y176166D01*
Y176233D01*
Y176310D01*
Y177920D01*
X131748D01*
Y178286D01*
X132097D01*
Y178974D01*
X132569Y179257D01*
Y178286D01*
D02*
G37*
G36*
X131076D02*
X131553D01*
Y177920D01*
X131076D01*
Y176283D01*
Y176271D01*
Y176249D01*
Y176216D01*
X131082Y176177D01*
X131087Y176088D01*
X131093Y176049D01*
X131098Y176022D01*
X131104Y176011D01*
X131121Y175988D01*
X131143Y175961D01*
X131182Y175933D01*
X131193Y175927D01*
X131221Y175916D01*
X131271Y175905D01*
X131343Y175900D01*
X131398D01*
X131426Y175905D01*
X131465D01*
X131509Y175911D01*
X131553Y175916D01*
X131615Y175500D01*
X131604D01*
X131581Y175495D01*
X131543Y175489D01*
X131492Y175483D01*
X131437Y175472D01*
X131376Y175467D01*
X131254Y175461D01*
X131209D01*
X131165Y175467D01*
X131109Y175472D01*
X131043Y175478D01*
X130976Y175495D01*
X130915Y175511D01*
X130854Y175539D01*
X130849Y175544D01*
X130832Y175556D01*
X130810Y175572D01*
X130777Y175600D01*
X130749Y175628D01*
X130716Y175666D01*
X130682Y175705D01*
X130660Y175755D01*
Y175761D01*
X130649Y175783D01*
X130643Y175822D01*
X130632Y175877D01*
X130621Y175950D01*
X130616Y175994D01*
Y176044D01*
X130610Y176105D01*
X130605Y176166D01*
Y176233D01*
Y176310D01*
Y177920D01*
X130255D01*
Y178286D01*
X130605D01*
Y178974D01*
X131076Y179257D01*
Y178286D01*
D02*
G37*
G36*
X152355Y178342D02*
X152399Y178336D01*
X152455Y178325D01*
X152516Y178314D01*
X152588Y178297D01*
X152655Y178281D01*
X152732Y178253D01*
X152805Y178225D01*
X152882Y178186D01*
X152960Y178142D01*
X153038Y178092D01*
X153110Y178031D01*
X153176Y177964D01*
X153182Y177959D01*
X153193Y177948D01*
X153210Y177925D01*
X153232Y177892D01*
X153260Y177853D01*
X153287Y177809D01*
X153321Y177753D01*
X153354Y177687D01*
X153387Y177615D01*
X153421Y177537D01*
X153448Y177448D01*
X153476Y177354D01*
X153498Y177248D01*
X153515Y177137D01*
X153526Y177021D01*
X153532Y176893D01*
Y176888D01*
Y176865D01*
Y176827D01*
X153526Y176771D01*
X151445Y176771D01*
Y176765D01*
Y176749D01*
X151450Y176726D01*
Y176693D01*
X151456Y176654D01*
X151467Y176610D01*
X151484Y176510D01*
X151517Y176399D01*
X151561Y176277D01*
X151622Y176166D01*
X151700Y176066D01*
X151706D01*
X151711Y176055D01*
X151744Y176027D01*
X151794Y175988D01*
X151861Y175950D01*
X151950Y175905D01*
X152050Y175866D01*
X152161Y175839D01*
X152222Y175833D01*
X152288Y175827D01*
X152333D01*
X152383Y175833D01*
X152444Y175844D01*
X152510Y175861D01*
X152588Y175883D01*
X152660Y175916D01*
X152732Y175961D01*
X152738Y175966D01*
X152766Y175988D01*
X152799Y176022D01*
X152838Y176066D01*
X152882Y176127D01*
X152932Y176205D01*
X152982Y176294D01*
X153026Y176399D01*
X153515Y176338D01*
Y176332D01*
X153509Y176321D01*
X153504Y176299D01*
X153493Y176266D01*
X153476Y176233D01*
X153459Y176188D01*
X153415Y176094D01*
X153359Y175988D01*
X153282Y175877D01*
X153193Y175772D01*
X153082Y175672D01*
X153076D01*
X153065Y175661D01*
X153049Y175650D01*
X153026Y175633D01*
X152993Y175617D01*
X152960Y175600D01*
X152916Y175578D01*
X152866Y175556D01*
X152810Y175533D01*
X152754Y175511D01*
X152616Y175478D01*
X152460Y175450D01*
X152288Y175439D01*
X152227D01*
X152188Y175444D01*
X152138Y175450D01*
X152077Y175461D01*
X152011Y175472D01*
X151939Y175483D01*
X151783Y175528D01*
X151700Y175561D01*
X151622Y175594D01*
X151539Y175639D01*
X151461Y175689D01*
X151389Y175744D01*
X151317Y175811D01*
X151312Y175816D01*
X151301Y175827D01*
X151284Y175850D01*
X151262Y175883D01*
X151234Y175922D01*
X151206Y175966D01*
X151173Y176022D01*
X151139Y176083D01*
X151106Y176155D01*
X151073Y176233D01*
X151045Y176321D01*
X151017Y176416D01*
X150995Y176516D01*
X150979Y176627D01*
X150968Y176743D01*
X150962Y176865D01*
Y176871D01*
Y176899D01*
Y176932D01*
X150968Y176982D01*
X150973Y177043D01*
X150979Y177110D01*
X150990Y177187D01*
X151006Y177265D01*
X151051Y177443D01*
X151078Y177531D01*
X151112Y177626D01*
X151156Y177715D01*
X151206Y177798D01*
X151262Y177881D01*
X151323Y177959D01*
X151328Y177964D01*
X151339Y177975D01*
X151362Y177992D01*
X151389Y178020D01*
X151423Y178048D01*
X151467Y178081D01*
X151517Y178120D01*
X151578Y178153D01*
X151639Y178192D01*
X151711Y178225D01*
X151789Y178258D01*
X151872Y178286D01*
X151961Y178314D01*
X152055Y178331D01*
X152155Y178342D01*
X152261Y178347D01*
X152316D01*
X152355Y178342D01*
D02*
G37*
G36*
X134734D02*
X134784Y178336D01*
X134839Y178325D01*
X134900Y178314D01*
X134972Y178303D01*
X135122Y178253D01*
X135200Y178225D01*
X135278Y178186D01*
X135355Y178147D01*
X135433Y178092D01*
X135505Y178036D01*
X135577Y177970D01*
X135583Y177964D01*
X135594Y177953D01*
X135611Y177931D01*
X135633Y177903D01*
X135661Y177864D01*
X135694Y177814D01*
X135727Y177759D01*
X135760Y177698D01*
X135794Y177631D01*
X135827Y177548D01*
X135860Y177465D01*
X135888Y177370D01*
X135910Y177270D01*
X135927Y177165D01*
X135938Y177054D01*
X135944Y176932D01*
Y176926D01*
Y176910D01*
Y176882D01*
Y176843D01*
X135938Y176799D01*
X135933Y176743D01*
Y176688D01*
X135921Y176627D01*
X135905Y176488D01*
X135872Y176349D01*
X135833Y176210D01*
X135777Y176083D01*
Y176077D01*
X135772Y176072D01*
X135760Y176055D01*
X135749Y176033D01*
X135711Y175977D01*
X135661Y175911D01*
X135594Y175833D01*
X135511Y175755D01*
X135416Y175678D01*
X135305Y175605D01*
X135300D01*
X135294Y175600D01*
X135278Y175589D01*
X135250Y175578D01*
X135222Y175567D01*
X135189Y175556D01*
X135106Y175522D01*
X135011Y175495D01*
X134895Y175467D01*
X134773Y175444D01*
X134639Y175439D01*
X134584D01*
X134539Y175444D01*
X134490Y175450D01*
X134434Y175461D01*
X134367Y175472D01*
X134301Y175483D01*
X134151Y175528D01*
X134068Y175561D01*
X133990Y175594D01*
X133912Y175639D01*
X133835Y175689D01*
X133762Y175744D01*
X133690Y175811D01*
X133685Y175816D01*
X133674Y175827D01*
X133657Y175850D01*
X133635Y175883D01*
X133607Y175922D01*
X133579Y175966D01*
X133546Y176022D01*
X133513Y176088D01*
X133479Y176160D01*
X133446Y176244D01*
X133418Y176332D01*
X133391Y176427D01*
X133368Y176532D01*
X133352Y176643D01*
X133341Y176765D01*
X133335Y176893D01*
Y176904D01*
Y176926D01*
X133341Y176965D01*
Y177021D01*
X133346Y177082D01*
X133357Y177159D01*
X133368Y177237D01*
X133391Y177326D01*
X133413Y177415D01*
X133441Y177509D01*
X133474Y177609D01*
X133518Y177703D01*
X133563Y177792D01*
X133624Y177881D01*
X133685Y177964D01*
X133762Y178036D01*
X133768Y178042D01*
X133779Y178048D01*
X133801Y178064D01*
X133829Y178086D01*
X133862Y178109D01*
X133907Y178136D01*
X133951Y178164D01*
X134007Y178192D01*
X134068Y178219D01*
X134134Y178247D01*
X134284Y178297D01*
X134456Y178336D01*
X134545Y178342D01*
X134639Y178347D01*
X134695D01*
X134734Y178342D01*
D02*
G37*
G36*
X128762D02*
X128812Y178336D01*
X128867Y178325D01*
X128928Y178314D01*
X129000Y178303D01*
X129150Y178253D01*
X129228Y178225D01*
X129306Y178186D01*
X129384Y178147D01*
X129461Y178092D01*
X129533Y178036D01*
X129605Y177970D01*
X129611Y177964D01*
X129622Y177953D01*
X129639Y177931D01*
X129661Y177903D01*
X129689Y177864D01*
X129722Y177814D01*
X129755Y177759D01*
X129789Y177698D01*
X129822Y177631D01*
X129855Y177548D01*
X129889Y177465D01*
X129916Y177370D01*
X129938Y177270D01*
X129955Y177165D01*
X129966Y177054D01*
X129972Y176932D01*
Y176926D01*
Y176910D01*
Y176882D01*
Y176843D01*
X129966Y176799D01*
X129961Y176743D01*
Y176688D01*
X129950Y176627D01*
X129933Y176488D01*
X129900Y176349D01*
X129861Y176210D01*
X129805Y176083D01*
Y176077D01*
X129800Y176072D01*
X129789Y176055D01*
X129778Y176033D01*
X129739Y175977D01*
X129689Y175911D01*
X129622Y175833D01*
X129539Y175755D01*
X129445Y175678D01*
X129333Y175605D01*
X129328D01*
X129323Y175600D01*
X129306Y175589D01*
X129278Y175578D01*
X129250Y175567D01*
X129217Y175556D01*
X129134Y175522D01*
X129039Y175495D01*
X128923Y175467D01*
X128801Y175444D01*
X128668Y175439D01*
X128612D01*
X128568Y175444D01*
X128518Y175450D01*
X128462Y175461D01*
X128396Y175472D01*
X128329Y175483D01*
X128179Y175528D01*
X128096Y175561D01*
X128018Y175594D01*
X127940Y175639D01*
X127863Y175689D01*
X127791Y175744D01*
X127718Y175811D01*
X127713Y175816D01*
X127702Y175827D01*
X127685Y175850D01*
X127663Y175883D01*
X127635Y175922D01*
X127608Y175966D01*
X127574Y176022D01*
X127541Y176088D01*
X127508Y176160D01*
X127474Y176244D01*
X127447Y176332D01*
X127419Y176427D01*
X127397Y176532D01*
X127380Y176643D01*
X127369Y176765D01*
X127363Y176893D01*
Y176904D01*
Y176926D01*
X127369Y176965D01*
Y177021D01*
X127374Y177082D01*
X127385Y177159D01*
X127397Y177237D01*
X127419Y177326D01*
X127441Y177415D01*
X127469Y177509D01*
X127502Y177609D01*
X127547Y177703D01*
X127591Y177792D01*
X127652Y177881D01*
X127713Y177964D01*
X127791Y178036D01*
X127796Y178042D01*
X127807Y178048D01*
X127830Y178064D01*
X127857Y178086D01*
X127891Y178109D01*
X127935Y178136D01*
X127979Y178164D01*
X128035Y178192D01*
X128096Y178219D01*
X128163Y178247D01*
X128312Y178297D01*
X128484Y178336D01*
X128573Y178342D01*
X128668Y178347D01*
X128723D01*
X128762Y178342D01*
D02*
G37*
%LPC*%
G36*
X295000Y447632D02*
Y441000D01*
X301632D01*
X301286Y442139D01*
X300408Y443784D01*
X299225Y445225D01*
X297784Y446408D01*
X296139Y447286D01*
X295000Y447632D01*
D02*
G37*
G36*
X290000D02*
X288861Y447286D01*
X287216Y446408D01*
X285775Y445225D01*
X284592Y443784D01*
X283714Y442139D01*
X283368Y441000D01*
X290000D01*
Y447632D01*
D02*
G37*
G36*
X135000D02*
Y441000D01*
X141632D01*
X141286Y442139D01*
X140408Y443784D01*
X139225Y445225D01*
X137784Y446408D01*
X136140Y447286D01*
X135000Y447632D01*
D02*
G37*
G36*
X130000D02*
X128860Y447286D01*
X127216Y446408D01*
X125775Y445225D01*
X124592Y443784D01*
X123714Y442139D01*
X123368Y441000D01*
X130000D01*
Y447632D01*
D02*
G37*
G36*
X329000Y445939D02*
X327646Y445806D01*
X326345Y445411D01*
X325145Y444769D01*
X324093Y443906D01*
X323231Y442855D01*
X322589Y441655D01*
X322194Y440354D01*
X322061Y439000D01*
X322194Y437646D01*
X322589Y436345D01*
X323231Y435145D01*
X324093Y434093D01*
X325145Y433230D01*
X326345Y432589D01*
X327646Y432194D01*
X329000Y432061D01*
X330354Y432194D01*
X331655Y432589D01*
X332855Y433230D01*
X333907Y434093D01*
X334770Y435145D01*
X335411Y436345D01*
X335806Y437646D01*
X335939Y439000D01*
X335806Y440354D01*
X335411Y441655D01*
X334770Y442855D01*
X333907Y443906D01*
X332855Y444769D01*
X331655Y445411D01*
X330354Y445806D01*
X329000Y445939D01*
D02*
G37*
G36*
X301632Y436000D02*
X295000D01*
Y429368D01*
X296139Y429714D01*
X297784Y430592D01*
X299225Y431775D01*
X300408Y433216D01*
X301286Y434861D01*
X301632Y436000D01*
D02*
G37*
G36*
X290000D02*
X283368D01*
X283714Y434861D01*
X284592Y433216D01*
X285775Y431775D01*
X287216Y430592D01*
X288861Y429714D01*
X290000Y429368D01*
Y436000D01*
D02*
G37*
G36*
X141632D02*
X135000D01*
Y429368D01*
X136140Y429714D01*
X137784Y430592D01*
X139225Y431775D01*
X140408Y433216D01*
X141286Y434861D01*
X141632Y436000D01*
D02*
G37*
G36*
X130000D02*
X123368D01*
X123714Y434861D01*
X124592Y433216D01*
X125775Y431775D01*
X127216Y430592D01*
X128860Y429714D01*
X130000Y429368D01*
Y436000D01*
D02*
G37*
G36*
X331500Y429458D02*
Y425500D01*
X335458D01*
X335411Y425655D01*
X334770Y426855D01*
X333907Y427907D01*
X332855Y428769D01*
X331655Y429411D01*
X331500Y429458D01*
D02*
G37*
G36*
X326500Y429458D02*
X326345Y429411D01*
X325145Y428769D01*
X324093Y427907D01*
X323231Y426855D01*
X322589Y425655D01*
X322542Y425500D01*
X326500D01*
Y429458D01*
D02*
G37*
G36*
X239105Y422308D02*
Y421000D01*
X240414D01*
X239845Y421740D01*
X239105Y422308D01*
D02*
G37*
G36*
X234105Y422308D02*
X233365Y421740D01*
X232797Y421000D01*
X234105D01*
Y422308D01*
D02*
G37*
G36*
X326500Y420500D02*
X322542D01*
X322589Y420345D01*
X323231Y419145D01*
X324093Y418093D01*
X325145Y417231D01*
X326345Y416589D01*
X326500Y416542D01*
Y420500D01*
D02*
G37*
G36*
X335458D02*
X331500D01*
Y416542D01*
X331655Y416589D01*
X332855Y417231D01*
X333907Y418093D01*
X334770Y419145D01*
X335411Y420345D01*
X335458Y420500D01*
D02*
G37*
G36*
X234105Y416000D02*
X232797D01*
X233365Y415260D01*
X234105Y414692D01*
Y416000D01*
D02*
G37*
G36*
X240414D02*
X239105D01*
Y414692D01*
X239845Y415260D01*
X240414Y416000D01*
D02*
G37*
G36*
X236605Y413083D02*
X235419Y412926D01*
X234314Y412469D01*
X233365Y411740D01*
X232637Y410791D01*
X232179Y409686D01*
X232023Y408500D01*
X232179Y407314D01*
X232637Y406209D01*
X233365Y405260D01*
X234314Y404531D01*
X235419Y404074D01*
X236605Y403918D01*
X237791Y404074D01*
X238896Y404531D01*
X239845Y405260D01*
X240574Y406209D01*
X241032Y407314D01*
X241188Y408500D01*
X241032Y409686D01*
X240574Y410791D01*
X239845Y411740D01*
X238896Y412469D01*
X237791Y412926D01*
X236605Y413083D01*
D02*
G37*
G36*
X141000Y412439D02*
X139646Y412306D01*
X138345Y411911D01*
X137145Y411270D01*
X136093Y410406D01*
X135231Y409355D01*
X134589Y408155D01*
X134194Y406854D01*
X134061Y405500D01*
X134194Y404146D01*
X134589Y402845D01*
X135231Y401645D01*
X136093Y400593D01*
X137145Y399730D01*
X138345Y399089D01*
X139646Y398694D01*
X141000Y398561D01*
X142354Y398694D01*
X143655Y399089D01*
X144855Y399730D01*
X145907Y400593D01*
X146769Y401645D01*
X147411Y402845D01*
X147806Y404146D01*
X147939Y405500D01*
X147806Y406854D01*
X147411Y408155D01*
X146769Y409355D01*
X145907Y410406D01*
X144855Y411270D01*
X143655Y411911D01*
X142354Y412306D01*
X141000Y412439D01*
D02*
G37*
G36*
X143500Y395958D02*
Y392000D01*
X147458D01*
X147411Y392155D01*
X146769Y393355D01*
X145907Y394407D01*
X144855Y395269D01*
X143655Y395911D01*
X143500Y395958D01*
D02*
G37*
G36*
X138500Y395958D02*
X138345Y395911D01*
X137145Y395269D01*
X136093Y394407D01*
X135231Y393355D01*
X134589Y392155D01*
X134542Y392000D01*
X138500D01*
Y395958D01*
D02*
G37*
G36*
X329000Y397272D02*
X327646Y397139D01*
X326345Y396744D01*
X325145Y396103D01*
X324093Y395240D01*
X323231Y394188D01*
X322589Y392989D01*
X322194Y391687D01*
X322061Y390333D01*
X322194Y388980D01*
X322589Y387678D01*
X323231Y386478D01*
X324093Y385427D01*
X325145Y384564D01*
X326345Y383923D01*
X327646Y383528D01*
X329000Y383394D01*
X330354Y383528D01*
X331655Y383923D01*
X332855Y384564D01*
X333907Y385427D01*
X334770Y386478D01*
X335411Y387678D01*
X335806Y388980D01*
X335939Y390333D01*
X335806Y391687D01*
X335411Y392989D01*
X334770Y394188D01*
X333907Y395240D01*
X332855Y396103D01*
X331655Y396744D01*
X330354Y397139D01*
X329000Y397272D01*
D02*
G37*
G36*
X147458Y387000D02*
X143500D01*
Y383042D01*
X143655Y383089D01*
X144855Y383731D01*
X145907Y384593D01*
X146769Y385645D01*
X147411Y386845D01*
X147458Y387000D01*
D02*
G37*
G36*
X138500D02*
X134542D01*
X134589Y386845D01*
X135231Y385645D01*
X136093Y384593D01*
X137145Y383731D01*
X138345Y383089D01*
X138500Y383042D01*
Y387000D01*
D02*
G37*
G36*
X331500Y380791D02*
Y376833D01*
X335458D01*
X335411Y376989D01*
X334770Y378188D01*
X333907Y379240D01*
X332855Y380103D01*
X331655Y380744D01*
X331500Y380791D01*
D02*
G37*
G36*
X326500D02*
X326345Y380744D01*
X325145Y380103D01*
X324093Y379240D01*
X323231Y378188D01*
X322589Y376989D01*
X322542Y376833D01*
X326500D01*
Y380791D01*
D02*
G37*
G36*
X335458Y371833D02*
X331500D01*
Y367876D01*
X331655Y367923D01*
X332855Y368564D01*
X333907Y369427D01*
X334770Y370478D01*
X335411Y371678D01*
X335458Y371833D01*
D02*
G37*
G36*
X326500D02*
X322542D01*
X322589Y371678D01*
X323231Y370478D01*
X324093Y369427D01*
X325145Y368564D01*
X326345Y367923D01*
X326500Y367876D01*
Y371833D01*
D02*
G37*
G36*
X141000Y363106D02*
X139646Y362972D01*
X138345Y362577D01*
X137145Y361936D01*
X136093Y361073D01*
X135231Y360022D01*
X134589Y358822D01*
X134194Y357520D01*
X134061Y356167D01*
X134194Y354813D01*
X134589Y353511D01*
X135231Y352312D01*
X136093Y351260D01*
X137145Y350397D01*
X138345Y349756D01*
X139646Y349361D01*
X141000Y349228D01*
X142354Y349361D01*
X143655Y349756D01*
X144855Y350397D01*
X145907Y351260D01*
X146769Y352312D01*
X147411Y353511D01*
X147806Y354813D01*
X147939Y356167D01*
X147806Y357520D01*
X147411Y358822D01*
X146769Y360022D01*
X145907Y361073D01*
X144855Y361936D01*
X143655Y362577D01*
X142354Y362972D01*
X141000Y363106D01*
D02*
G37*
G36*
X143500Y346624D02*
Y342667D01*
X147458D01*
X147411Y342822D01*
X146769Y344022D01*
X145907Y345073D01*
X144855Y345936D01*
X143655Y346577D01*
X143500Y346624D01*
D02*
G37*
G36*
X138500Y346624D02*
X138345Y346577D01*
X137145Y345936D01*
X136093Y345073D01*
X135231Y344022D01*
X134589Y342822D01*
X134542Y342667D01*
X138500D01*
Y346624D01*
D02*
G37*
G36*
X329000Y348606D02*
X327646Y348472D01*
X326345Y348077D01*
X325145Y347436D01*
X324093Y346573D01*
X323231Y345522D01*
X322589Y344322D01*
X322194Y343020D01*
X322061Y341667D01*
X322194Y340313D01*
X322589Y339011D01*
X323231Y337812D01*
X324093Y336760D01*
X325145Y335897D01*
X326345Y335256D01*
X327646Y334861D01*
X329000Y334728D01*
X330354Y334861D01*
X331655Y335256D01*
X332855Y335897D01*
X333907Y336760D01*
X334770Y337812D01*
X335411Y339011D01*
X335806Y340313D01*
X335939Y341667D01*
X335806Y343020D01*
X335411Y344322D01*
X334770Y345522D01*
X333907Y346573D01*
X332855Y347436D01*
X331655Y348077D01*
X330354Y348472D01*
X329000Y348606D01*
D02*
G37*
G36*
X138500Y337667D02*
X134542D01*
X134589Y337511D01*
X135231Y336312D01*
X136093Y335260D01*
X137145Y334397D01*
X138345Y333756D01*
X138500Y333709D01*
Y337667D01*
D02*
G37*
G36*
X147458D02*
X143500D01*
Y333709D01*
X143655Y333756D01*
X144855Y334397D01*
X145907Y335260D01*
X146769Y336312D01*
X147411Y337511D01*
X147458Y337667D01*
D02*
G37*
G36*
X241605Y333308D02*
Y332000D01*
X242914D01*
X242345Y332740D01*
X241605Y333308D01*
D02*
G37*
G36*
X236605Y333308D02*
X235865Y332740D01*
X235297Y332000D01*
X236605D01*
Y333308D01*
D02*
G37*
G36*
X331500Y332124D02*
Y328167D01*
X335458D01*
X335411Y328322D01*
X334770Y329522D01*
X333907Y330573D01*
X332855Y331436D01*
X331655Y332077D01*
X331500Y332124D01*
D02*
G37*
G36*
X326500D02*
X326345Y332077D01*
X325145Y331436D01*
X324093Y330573D01*
X323231Y329522D01*
X322589Y328322D01*
X322542Y328167D01*
X326500D01*
Y332124D01*
D02*
G37*
G36*
X236605Y327000D02*
X235297D01*
X235865Y326260D01*
X236605Y325692D01*
Y327000D01*
D02*
G37*
G36*
X242914D02*
X241605D01*
Y325692D01*
X242345Y326260D01*
X242914Y327000D01*
D02*
G37*
G36*
X249105Y334083D02*
X247919Y333926D01*
X246814Y333469D01*
X245865Y332740D01*
X245137Y331791D01*
X244679Y330686D01*
X244523Y329500D01*
X244679Y328314D01*
X245137Y327209D01*
X245865Y326260D01*
X246814Y325531D01*
X247919Y325074D01*
X249105Y324918D01*
X250291Y325074D01*
X251396Y325531D01*
X252345Y326260D01*
X253074Y327209D01*
X253532Y328314D01*
X253688Y329500D01*
X253532Y330686D01*
X253074Y331791D01*
X252345Y332740D01*
X251396Y333469D01*
X250291Y333926D01*
X249105Y334083D01*
D02*
G37*
G36*
X335458Y323167D02*
X331500D01*
Y319209D01*
X331655Y319256D01*
X332855Y319897D01*
X333907Y320760D01*
X334770Y321812D01*
X335411Y323011D01*
X335458Y323167D01*
D02*
G37*
G36*
X326500D02*
X322542D01*
X322589Y323011D01*
X323231Y321812D01*
X324093Y320760D01*
X325145Y319897D01*
X326345Y319256D01*
X326500Y319209D01*
Y323167D01*
D02*
G37*
G36*
X141000Y313772D02*
X139646Y313639D01*
X138345Y313244D01*
X137145Y312603D01*
X136093Y311740D01*
X135231Y310688D01*
X134589Y309489D01*
X134194Y308187D01*
X134061Y306833D01*
X134194Y305480D01*
X134589Y304178D01*
X135231Y302978D01*
X136093Y301927D01*
X137145Y301064D01*
X138345Y300423D01*
X139646Y300028D01*
X141000Y299894D01*
X142354Y300028D01*
X143655Y300423D01*
X144855Y301064D01*
X145907Y301927D01*
X146769Y302978D01*
X147411Y304178D01*
X147806Y305480D01*
X147939Y306833D01*
X147806Y308187D01*
X147411Y309489D01*
X146769Y310688D01*
X145907Y311740D01*
X144855Y312603D01*
X143655Y313244D01*
X142354Y313639D01*
X141000Y313772D01*
D02*
G37*
G36*
X143500Y297291D02*
Y293333D01*
X147458D01*
X147411Y293489D01*
X146769Y294688D01*
X145907Y295740D01*
X144855Y296603D01*
X143655Y297244D01*
X143500Y297291D01*
D02*
G37*
G36*
X138500Y297291D02*
X138345Y297244D01*
X137145Y296603D01*
X136093Y295740D01*
X135231Y294688D01*
X134589Y293489D01*
X134542Y293333D01*
X138500D01*
Y297291D01*
D02*
G37*
G36*
X238500Y293464D02*
Y292155D01*
X239808D01*
X239240Y292896D01*
X238500Y293464D01*
D02*
G37*
G36*
X233500Y293464D02*
X232760Y292896D01*
X232192Y292155D01*
X233500D01*
Y293464D01*
D02*
G37*
G36*
X329000Y299939D02*
X327646Y299806D01*
X326345Y299411D01*
X325145Y298769D01*
X324093Y297907D01*
X323231Y296855D01*
X322589Y295655D01*
X322194Y294354D01*
X322061Y293000D01*
X322194Y291646D01*
X322589Y290345D01*
X323231Y289145D01*
X324093Y288093D01*
X325145Y287230D01*
X326345Y286589D01*
X327646Y286194D01*
X329000Y286061D01*
X330354Y286194D01*
X331655Y286589D01*
X332855Y287230D01*
X333907Y288093D01*
X334770Y289145D01*
X335411Y290345D01*
X335806Y291646D01*
X335939Y293000D01*
X335806Y294354D01*
X335411Y295655D01*
X334770Y296855D01*
X333907Y297907D01*
X332855Y298769D01*
X331655Y299411D01*
X330354Y299806D01*
X329000Y299939D01*
D02*
G37*
G36*
X233500Y287155D02*
X232192D01*
X232760Y286415D01*
X233500Y285847D01*
Y287155D01*
D02*
G37*
G36*
X239808D02*
X238500D01*
Y285847D01*
X239240Y286415D01*
X239808Y287155D01*
D02*
G37*
G36*
X138500Y288333D02*
X134542D01*
X134589Y288178D01*
X135231Y286978D01*
X136093Y285927D01*
X137145Y285064D01*
X138345Y284423D01*
X138500Y284376D01*
Y288333D01*
D02*
G37*
G36*
X147458D02*
X143500D01*
Y284376D01*
X143655Y284423D01*
X144855Y285064D01*
X145907Y285927D01*
X146769Y286978D01*
X147411Y288178D01*
X147458Y288333D01*
D02*
G37*
G36*
X331500Y283458D02*
Y279500D01*
X335458D01*
X335411Y279655D01*
X334770Y280855D01*
X333907Y281907D01*
X332855Y282769D01*
X331655Y283411D01*
X331500Y283458D01*
D02*
G37*
G36*
X326500D02*
X326345Y283411D01*
X325145Y282769D01*
X324093Y281907D01*
X323231Y280855D01*
X322589Y279655D01*
X322542Y279500D01*
X326500D01*
Y283458D01*
D02*
G37*
G36*
X236000Y284238D02*
X234814Y284082D01*
X233709Y283624D01*
X232760Y282896D01*
X232031Y281947D01*
X231574Y280841D01*
X231417Y279655D01*
X231574Y278469D01*
X232031Y277364D01*
X232760Y276415D01*
X233709Y275687D01*
X234814Y275229D01*
X236000Y275073D01*
X237186Y275229D01*
X238291Y275687D01*
X239240Y276415D01*
X239969Y277364D01*
X240426Y278469D01*
X240582Y279655D01*
X240426Y280841D01*
X239969Y281947D01*
X239240Y282896D01*
X238291Y283624D01*
X237186Y284082D01*
X236000Y284238D01*
D02*
G37*
G36*
X335458Y274500D02*
X331500D01*
Y270542D01*
X331655Y270589D01*
X332855Y271231D01*
X333907Y272093D01*
X334770Y273145D01*
X335411Y274345D01*
X335458Y274500D01*
D02*
G37*
G36*
X326500D02*
X322542D01*
X322589Y274345D01*
X323231Y273145D01*
X324093Y272093D01*
X325145Y271231D01*
X326345Y270589D01*
X326500Y270542D01*
Y274500D01*
D02*
G37*
G36*
X141000Y264439D02*
X139646Y264306D01*
X138345Y263911D01*
X137145Y263269D01*
X136093Y262407D01*
X135231Y261355D01*
X134589Y260155D01*
X134194Y258854D01*
X134061Y257500D01*
X134194Y256146D01*
X134589Y254845D01*
X135231Y253645D01*
X136093Y252593D01*
X137145Y251730D01*
X138345Y251089D01*
X139646Y250694D01*
X141000Y250561D01*
X142354Y250694D01*
X143655Y251089D01*
X144855Y251730D01*
X145907Y252593D01*
X146769Y253645D01*
X147411Y254845D01*
X147806Y256146D01*
X147939Y257500D01*
X147806Y258854D01*
X147411Y260155D01*
X146769Y261355D01*
X145907Y262407D01*
X144855Y263269D01*
X143655Y263911D01*
X142354Y264306D01*
X141000Y264439D01*
D02*
G37*
G36*
X143500Y247958D02*
Y244000D01*
X147458D01*
X147411Y244155D01*
X146769Y245355D01*
X145907Y246407D01*
X144855Y247270D01*
X143655Y247911D01*
X143500Y247958D01*
D02*
G37*
G36*
X138500D02*
X138345Y247911D01*
X137145Y247270D01*
X136093Y246407D01*
X135231Y245355D01*
X134589Y244155D01*
X134542Y244000D01*
X138500D01*
Y247958D01*
D02*
G37*
G36*
X328500Y251124D02*
X327146Y250991D01*
X325845Y250596D01*
X324645Y249955D01*
X323593Y249092D01*
X322730Y248040D01*
X322089Y246841D01*
X321694Y245539D01*
X321561Y244185D01*
X321694Y242831D01*
X322089Y241530D01*
X322730Y240330D01*
X323593Y239279D01*
X324645Y238416D01*
X325845Y237774D01*
X327146Y237379D01*
X328500Y237246D01*
X329854Y237379D01*
X331155Y237774D01*
X332355Y238416D01*
X333407Y239279D01*
X334269Y240330D01*
X334911Y241530D01*
X335306Y242831D01*
X335439Y244185D01*
X335306Y245539D01*
X334911Y246841D01*
X334269Y248040D01*
X333407Y249092D01*
X332355Y249955D01*
X331155Y250596D01*
X329854Y250991D01*
X328500Y251124D01*
D02*
G37*
G36*
X147458Y239000D02*
X143500D01*
Y235042D01*
X143655Y235089D01*
X144855Y235731D01*
X145907Y236593D01*
X146769Y237645D01*
X147411Y238845D01*
X147458Y239000D01*
D02*
G37*
G36*
X138500D02*
X134542D01*
X134589Y238845D01*
X135231Y237645D01*
X136093Y236593D01*
X137145Y235731D01*
X138345Y235089D01*
X138500Y235042D01*
Y239000D01*
D02*
G37*
G36*
X331000Y230958D02*
Y227000D01*
X334958D01*
X334911Y227155D01*
X334269Y228355D01*
X333407Y229407D01*
X332355Y230270D01*
X331155Y230911D01*
X331000Y230958D01*
D02*
G37*
G36*
X326000D02*
X325845Y230911D01*
X324645Y230270D01*
X323593Y229407D01*
X322730Y228355D01*
X322089Y227155D01*
X322042Y227000D01*
X326000D01*
Y230958D01*
D02*
G37*
G36*
X334958Y222000D02*
X331000D01*
Y218042D01*
X331155Y218089D01*
X332355Y218730D01*
X333407Y219593D01*
X334269Y220645D01*
X334911Y221845D01*
X334958Y222000D01*
D02*
G37*
G36*
X326000D02*
X322042D01*
X322089Y221845D01*
X322730Y220645D01*
X323593Y219593D01*
X324645Y218730D01*
X325845Y218089D01*
X326000Y218042D01*
Y222000D01*
D02*
G37*
G36*
X244000Y219272D02*
X242814Y219116D01*
X241709Y218658D01*
X240760Y217930D01*
X240031Y216981D01*
X239574Y215876D01*
X239418Y214690D01*
X239574Y213504D01*
X240031Y212399D01*
X240760Y211450D01*
X241709Y210721D01*
X242814Y210263D01*
X244000Y210107D01*
X245186Y210263D01*
X246291Y210721D01*
X247240Y211450D01*
X247969Y212399D01*
X248426Y213504D01*
X248583Y214690D01*
X248426Y215876D01*
X247969Y216981D01*
X247240Y217930D01*
X246291Y218658D01*
X245186Y219116D01*
X244000Y219272D01*
D02*
G37*
G36*
X266000Y216632D02*
Y210000D01*
X272632D01*
X272286Y211139D01*
X271408Y212784D01*
X270225Y214225D01*
X268784Y215408D01*
X267139Y216286D01*
X266000Y216632D01*
D02*
G37*
G36*
X261000D02*
X259861Y216286D01*
X258216Y215408D01*
X256775Y214225D01*
X255592Y212784D01*
X254714Y211139D01*
X254368Y210000D01*
X261000D01*
Y216632D01*
D02*
G37*
G36*
X135000D02*
Y210000D01*
X141632D01*
X141286Y211139D01*
X140408Y212784D01*
X139225Y214225D01*
X137784Y215408D01*
X136140Y216286D01*
X135000Y216632D01*
D02*
G37*
G36*
X130000D02*
X128860Y216286D01*
X127216Y215408D01*
X125775Y214225D01*
X124592Y212784D01*
X123714Y211139D01*
X123368Y210000D01*
X130000D01*
Y216632D01*
D02*
G37*
G36*
X246500Y208498D02*
Y207190D01*
X247808D01*
X247240Y207930D01*
X246500Y208498D01*
D02*
G37*
G36*
X241500Y208498D02*
X240760Y207930D01*
X240192Y207190D01*
X241500D01*
Y208498D01*
D02*
G37*
G36*
Y202190D02*
X240192D01*
X240760Y201449D01*
X241500Y200881D01*
Y202190D01*
D02*
G37*
G36*
X247808D02*
X246500D01*
Y200881D01*
X247240Y201449D01*
X247808Y202190D01*
D02*
G37*
G36*
X141632Y205000D02*
X135000D01*
Y198368D01*
X136140Y198714D01*
X137784Y199592D01*
X139225Y200775D01*
X140408Y202216D01*
X141286Y203860D01*
X141632Y205000D01*
D02*
G37*
G36*
X130000D02*
X123368D01*
X123714Y203860D01*
X124592Y202216D01*
X125775Y200775D01*
X127216Y199592D01*
X128860Y198714D01*
X130000Y198368D01*
Y205000D01*
D02*
G37*
G36*
X272632D02*
X266000D01*
Y198368D01*
X267139Y198714D01*
X268784Y199592D01*
X270225Y200775D01*
X271408Y202216D01*
X272286Y203860D01*
X272632Y205000D01*
D02*
G37*
G36*
X261000D02*
X254368D01*
X254714Y203860D01*
X255592Y202216D01*
X256775Y200775D01*
X258216Y199592D01*
X259861Y198714D01*
X261000Y198368D01*
Y205000D01*
D02*
G37*
G36*
X328500Y211754D02*
X327146Y211621D01*
X325845Y211226D01*
X324645Y210584D01*
X323593Y209721D01*
X322730Y208670D01*
X322089Y207470D01*
X321694Y206169D01*
X321561Y204815D01*
X321694Y203461D01*
X322089Y202160D01*
X322730Y200960D01*
X323593Y199908D01*
X324645Y199046D01*
X325845Y198404D01*
X327146Y198009D01*
X328500Y197876D01*
X329854Y198009D01*
X331155Y198404D01*
X332355Y199046D01*
X333407Y199908D01*
X334269Y200960D01*
X334911Y202160D01*
X335306Y203461D01*
X335439Y204815D01*
X335306Y206169D01*
X334911Y207470D01*
X334269Y208670D01*
X333407Y209721D01*
X332355Y210584D01*
X331155Y211226D01*
X329854Y211621D01*
X328500Y211754D01*
D02*
G37*
G36*
X147232Y176899D02*
X147227D01*
X147221Y176893D01*
X147204Y176888D01*
X147182Y176882D01*
X147155Y176871D01*
X147121Y176860D01*
X147082Y176849D01*
X147038Y176838D01*
X146988Y176821D01*
X146927Y176810D01*
X146866Y176793D01*
X146794Y176777D01*
X146716Y176760D01*
X146638Y176743D01*
X146550Y176732D01*
X146455Y176716D01*
X146444D01*
X146411Y176710D01*
X146355Y176699D01*
X146294Y176688D01*
X146228Y176677D01*
X146161Y176660D01*
X146100Y176643D01*
X146045Y176621D01*
X146039D01*
X146022Y176610D01*
X146000Y176599D01*
X145978Y176582D01*
X145911Y176538D01*
X145856Y176471D01*
Y176466D01*
X145845Y176455D01*
X145839Y176432D01*
X145828Y176405D01*
X145817Y176371D01*
X145806Y176338D01*
X145800Y176294D01*
X145795Y176249D01*
Y176244D01*
Y176216D01*
X145800Y176183D01*
X145811Y176138D01*
X145828Y176088D01*
X145856Y176038D01*
X145889Y175983D01*
X145934Y175933D01*
X145939Y175927D01*
X145961Y175916D01*
X145995Y175894D01*
X146039Y175872D01*
X146100Y175850D01*
X146172Y175827D01*
X146256Y175816D01*
X146355Y175811D01*
X146400D01*
X146455Y175816D01*
X146516Y175827D01*
X146594Y175839D01*
X146672Y175861D01*
X146755Y175889D01*
X146838Y175927D01*
X146849Y175933D01*
X146872Y175950D01*
X146910Y175977D01*
X146955Y176016D01*
X147005Y176060D01*
X147060Y176116D01*
X147105Y176183D01*
X147149Y176255D01*
X147155Y176260D01*
X147160Y176283D01*
X147171Y176321D01*
X147188Y176371D01*
X147204Y176438D01*
X147216Y176516D01*
X147221Y176610D01*
X147227Y176721D01*
X147232Y176899D01*
D02*
G37*
G36*
X125421Y178885D02*
X124511D01*
Y177731D01*
X125454D01*
X125526Y177737D01*
X125604Y177742D01*
X125682Y177748D01*
X125759Y177759D01*
X125820Y177770D01*
X125831Y177776D01*
X125854Y177781D01*
X125887Y177798D01*
X125931Y177820D01*
X125976Y177842D01*
X126026Y177875D01*
X126076Y177920D01*
X126115Y177964D01*
X126120Y177970D01*
X126131Y177986D01*
X126148Y178020D01*
X126164Y178059D01*
X126181Y178103D01*
X126198Y178158D01*
X126209Y178225D01*
X126215Y178297D01*
Y178308D01*
Y178331D01*
X126209Y178364D01*
X126203Y178408D01*
X126192Y178464D01*
X126176Y178519D01*
X126153Y178575D01*
X126120Y178630D01*
X126115Y178636D01*
X126103Y178652D01*
X126081Y178680D01*
X126054Y178708D01*
X126015Y178741D01*
X125970Y178774D01*
X125915Y178808D01*
X125854Y178830D01*
X125848D01*
X125820Y178841D01*
X125782Y178847D01*
X125721Y178858D01*
X125637Y178869D01*
X125543Y178874D01*
X125421Y178885D01*
D02*
G37*
G36*
X125521Y177276D02*
X124511D01*
Y175955D01*
X125604D01*
X125721Y175961D01*
X125770Y175966D01*
X125815Y175972D01*
X125820D01*
X125843Y175977D01*
X125876Y175983D01*
X125915Y175994D01*
X126009Y176027D01*
X126103Y176072D01*
X126109Y176077D01*
X126126Y176088D01*
X126148Y176105D01*
X126176Y176127D01*
X126203Y176160D01*
X126242Y176194D01*
X126270Y176238D01*
X126303Y176288D01*
X126309Y176294D01*
X126314Y176310D01*
X126326Y176344D01*
X126342Y176382D01*
X126359Y176427D01*
X126370Y176482D01*
X126375Y176549D01*
X126381Y176616D01*
Y176627D01*
Y176649D01*
X126375Y176693D01*
X126364Y176743D01*
X126353Y176799D01*
X126331Y176860D01*
X126303Y176921D01*
X126264Y176982D01*
X126259Y176987D01*
X126242Y177010D01*
X126220Y177037D01*
X126187Y177071D01*
X126142Y177110D01*
X126087Y177148D01*
X126026Y177182D01*
X125954Y177209D01*
X125943Y177215D01*
X125920Y177220D01*
X125870Y177232D01*
X125809Y177243D01*
X125732Y177254D01*
X125637Y177265D01*
X125521Y177276D01*
D02*
G37*
G36*
X152266Y177959D02*
X152233D01*
X152211Y177953D01*
X152150Y177948D01*
X152077Y177931D01*
X151989Y177903D01*
X151894Y177864D01*
X151805Y177809D01*
X151717Y177737D01*
X151706Y177726D01*
X151683Y177698D01*
X151645Y177648D01*
X151606Y177581D01*
X151561Y177504D01*
X151523Y177404D01*
X151489Y177287D01*
X151472Y177159D01*
X153032Y177160D01*
Y177165D01*
Y177176D01*
X153026Y177193D01*
Y177215D01*
X153015Y177282D01*
X152999Y177354D01*
X152971Y177443D01*
X152943Y177526D01*
X152899Y177609D01*
X152849Y177681D01*
Y177687D01*
X152838Y177692D01*
X152810Y177726D01*
X152760Y177770D01*
X152693Y177820D01*
X152610Y177870D01*
X152510Y177914D01*
X152394Y177948D01*
X152333Y177953D01*
X152266Y177959D01*
D02*
G37*
G36*
X134639D02*
X134606D01*
X134578Y177953D01*
X134517Y177948D01*
X134434Y177925D01*
X134340Y177892D01*
X134240Y177848D01*
X134145Y177781D01*
X134096Y177737D01*
X134051Y177692D01*
Y177687D01*
X134040Y177681D01*
X134029Y177664D01*
X134012Y177642D01*
X133996Y177615D01*
X133979Y177581D01*
X133957Y177537D01*
X133934Y177492D01*
X133912Y177437D01*
X133890Y177381D01*
X133873Y177315D01*
X133857Y177243D01*
X133840Y177165D01*
X133829Y177082D01*
X133824Y176987D01*
X133818Y176893D01*
Y176888D01*
Y176871D01*
Y176843D01*
X133824Y176804D01*
Y176760D01*
X133829Y176710D01*
X133846Y176593D01*
X133873Y176460D01*
X133918Y176327D01*
X133973Y176199D01*
X134012Y176144D01*
X134051Y176088D01*
X134057D01*
X134062Y176077D01*
X134096Y176049D01*
X134145Y176005D01*
X134212Y175961D01*
X134295Y175911D01*
X134395Y175866D01*
X134512Y175839D01*
X134573Y175833D01*
X134639Y175827D01*
X134673D01*
X134700Y175833D01*
X134761Y175844D01*
X134845Y175861D01*
X134933Y175894D01*
X135033Y175938D01*
X135128Y176005D01*
X135178Y176049D01*
X135222Y176094D01*
X135228Y176099D01*
X135233Y176105D01*
X135244Y176122D01*
X135261Y176144D01*
X135278Y176172D01*
X135300Y176205D01*
X135322Y176249D01*
X135344Y176294D01*
X135366Y176349D01*
X135383Y176410D01*
X135405Y176477D01*
X135422Y176549D01*
X135439Y176632D01*
X135450Y176716D01*
X135461Y176810D01*
Y176910D01*
Y176915D01*
Y176932D01*
Y176960D01*
X135455Y176993D01*
Y177037D01*
X135450Y177087D01*
X135433Y177204D01*
X135405Y177326D01*
X135361Y177459D01*
X135300Y177581D01*
X135266Y177642D01*
X135222Y177692D01*
Y177698D01*
X135211Y177703D01*
X135178Y177737D01*
X135128Y177776D01*
X135061Y177825D01*
X134978Y177875D01*
X134878Y177920D01*
X134767Y177948D01*
X134706Y177953D01*
X134639Y177959D01*
D02*
G37*
G36*
X128668D02*
X128634D01*
X128606Y177953D01*
X128545Y177948D01*
X128462Y177925D01*
X128368Y177892D01*
X128268Y177848D01*
X128174Y177781D01*
X128124Y177737D01*
X128079Y177692D01*
Y177687D01*
X128068Y177681D01*
X128057Y177664D01*
X128040Y177642D01*
X128024Y177615D01*
X128007Y177581D01*
X127985Y177537D01*
X127963Y177492D01*
X127940Y177437D01*
X127918Y177381D01*
X127902Y177315D01*
X127885Y177243D01*
X127868Y177165D01*
X127857Y177082D01*
X127852Y176987D01*
X127846Y176893D01*
Y176888D01*
Y176871D01*
Y176843D01*
X127852Y176804D01*
Y176760D01*
X127857Y176710D01*
X127874Y176593D01*
X127902Y176460D01*
X127946Y176327D01*
X128001Y176199D01*
X128040Y176144D01*
X128079Y176088D01*
X128085D01*
X128090Y176077D01*
X128124Y176049D01*
X128174Y176005D01*
X128240Y175961D01*
X128323Y175911D01*
X128423Y175866D01*
X128540Y175839D01*
X128601Y175833D01*
X128668Y175827D01*
X128701D01*
X128729Y175833D01*
X128790Y175844D01*
X128873Y175861D01*
X128962Y175894D01*
X129062Y175938D01*
X129156Y176005D01*
X129206Y176049D01*
X129250Y176094D01*
X129256Y176099D01*
X129261Y176105D01*
X129272Y176122D01*
X129289Y176144D01*
X129306Y176172D01*
X129328Y176205D01*
X129350Y176249D01*
X129372Y176294D01*
X129395Y176349D01*
X129411Y176410D01*
X129433Y176477D01*
X129450Y176549D01*
X129467Y176632D01*
X129478Y176716D01*
X129489Y176810D01*
Y176910D01*
Y176915D01*
Y176932D01*
Y176960D01*
X129483Y176993D01*
Y177037D01*
X129478Y177087D01*
X129461Y177204D01*
X129433Y177326D01*
X129389Y177459D01*
X129328Y177581D01*
X129295Y177642D01*
X129250Y177692D01*
Y177698D01*
X129239Y177703D01*
X129206Y177737D01*
X129156Y177776D01*
X129089Y177825D01*
X129006Y177875D01*
X128906Y177920D01*
X128795Y177948D01*
X128734Y177953D01*
X128668Y177959D01*
D02*
G37*
%LPD*%
D10*
X244105Y324500D02*
X254105D01*
Y334500D01*
X234105Y324500D02*
X254105D01*
X234105Y334500D02*
X254105D01*
X234105Y324500D02*
Y334500D01*
X249000Y209690D02*
Y219690D01*
X239000D02*
X249000D01*
Y199690D02*
Y219690D01*
X239000Y199690D02*
Y219690D01*
Y199690D02*
X249000D01*
X231000Y274655D02*
Y284655D01*
Y274655D02*
X241000D01*
X231000D02*
Y294655D01*
X241000Y274655D02*
Y294655D01*
X231000D02*
X241000D01*
X231605Y403500D02*
Y413500D01*
Y403500D02*
X241605D01*
X231605D02*
Y423500D01*
X241605Y403500D02*
Y423500D01*
X231605D02*
X241605D01*
D36*
X272000Y438500D02*
X275000Y435500D01*
D37*
X292500Y438500D02*
D03*
X263500Y207500D02*
D03*
X132500D02*
D03*
Y438500D02*
D03*
D38*
X239105Y329500D02*
D03*
X249105D02*
D03*
X244000Y204690D02*
D03*
Y214690D02*
D03*
X236000Y289655D02*
D03*
Y279655D02*
D03*
X236605Y418500D02*
D03*
Y408500D02*
D03*
D39*
X329000Y423000D02*
D03*
Y439000D02*
D03*
X328500Y204815D02*
D03*
Y224500D02*
D03*
Y244185D02*
D03*
X141000Y389500D02*
D03*
Y405500D02*
D03*
X329000Y390333D02*
D03*
Y374333D02*
D03*
X141000Y340167D02*
D03*
Y356167D02*
D03*
X329000Y341667D02*
D03*
Y325667D02*
D03*
X141000Y290833D02*
D03*
Y306833D02*
D03*
X329000Y293000D02*
D03*
Y277000D02*
D03*
X141000Y241500D02*
D03*
Y257500D02*
D03*
D40*
X281000Y250500D02*
D03*
X130645Y276919D02*
D03*
X132500Y376000D02*
D03*
X131000Y326500D02*
D03*
X301765Y223000D02*
D03*
X278000Y448010D02*
D03*
X120625Y218875D02*
D03*
X314500Y448010D02*
D03*
X261000Y249000D02*
D03*
X227310Y204690D02*
D03*
X251000Y353347D02*
D03*
X301000Y301000D02*
D03*
Y398500D02*
D03*
Y350500D02*
D03*
Y253561D02*
D03*
X213500Y303500D02*
D03*
X248250Y384500D02*
D03*
X213991Y433000D02*
D03*
X199500Y259500D02*
D03*
X197000Y387500D02*
D03*
X248272Y363500D02*
D03*
X214000Y412000D02*
D03*
X248000Y231500D02*
D03*
X214000Y282500D02*
D03*
M02*
