G04*
G04 #@! TF.GenerationSoftware,Altium Limited,Altium Designer,19.0.10 (269)*
G04*
G04 Layer_Color=128*
%FSLAX25Y25*%
%MOIN*%
G70*
G01*
G75*
%ADD12C,0.01000*%
%ADD49C,0.00200*%
D12*
X244105Y324500D02*
X254105D01*
Y334500D01*
X234105Y324500D02*
X254105D01*
X234105Y334500D02*
X254105D01*
X234105Y324500D02*
Y334500D01*
X249000Y209690D02*
Y219690D01*
X239000D02*
X249000D01*
Y199690D02*
Y219690D01*
X239000Y199690D02*
Y219690D01*
Y199690D02*
X249000D01*
X231000Y274655D02*
Y284655D01*
Y274655D02*
X241000D01*
X231000D02*
Y294655D01*
X241000Y274655D02*
Y294655D01*
X231000D02*
X241000D01*
X231605Y403500D02*
Y413500D01*
Y403500D02*
X241605D01*
X231605D02*
Y423500D01*
X241605Y403500D02*
Y423500D01*
X231605D02*
X241605D01*
D49*
X237137Y329500D02*
X241074D01*
X239105Y327532D02*
Y331469D01*
X247137Y329500D02*
X251074D01*
X249105Y327532D02*
Y331469D01*
X242032Y204690D02*
X245969D01*
X244000Y202721D02*
Y206658D01*
X242032Y214690D02*
X245969D01*
X244000Y212721D02*
Y216658D01*
X234032Y289655D02*
X237968D01*
X236000Y287687D02*
Y291624D01*
X234032Y279655D02*
X237968D01*
X236000Y277687D02*
Y281624D01*
X234637Y418500D02*
X238574D01*
X236605Y416532D02*
Y420469D01*
X234637Y408500D02*
X238574D01*
X236605Y406531D02*
Y410468D01*
X326047Y423000D02*
X331953D01*
X329000Y420047D02*
Y425953D01*
X326047Y439000D02*
X331953D01*
X329000Y436047D02*
Y441953D01*
X325547Y204815D02*
X331453D01*
X328500Y201862D02*
Y207768D01*
X325547Y224500D02*
X331453D01*
X328500Y221547D02*
Y227453D01*
X325547Y244185D02*
X331453D01*
X328500Y241232D02*
Y247138D01*
X258382Y207500D02*
X268618D01*
X263500Y202382D02*
Y212618D01*
X287382Y438500D02*
X297618D01*
X292500Y433382D02*
Y443618D01*
X127382Y438500D02*
X137618D01*
X132500Y433382D02*
Y443618D01*
X127382Y207500D02*
X137618D01*
X132500Y202382D02*
Y212618D01*
X138047Y389500D02*
X143953D01*
X141000Y386547D02*
Y392453D01*
X138047Y405500D02*
X143953D01*
X141000Y402547D02*
Y408453D01*
X326047Y390333D02*
X331953D01*
X329000Y387381D02*
Y393286D01*
X326047Y374333D02*
X331953D01*
X329000Y371381D02*
Y377286D01*
X138047Y340167D02*
X143953D01*
X141000Y337214D02*
Y343119D01*
X138047Y356167D02*
X143953D01*
X141000Y353214D02*
Y359119D01*
X326047Y341667D02*
X331953D01*
X329000Y338714D02*
Y344619D01*
X326047Y325667D02*
X331953D01*
X329000Y322714D02*
Y328619D01*
X138047Y290833D02*
X143953D01*
X141000Y287881D02*
Y293786D01*
X138047Y306833D02*
X143953D01*
X141000Y303881D02*
Y309786D01*
X326047Y293000D02*
X331953D01*
X329000Y290047D02*
Y295953D01*
X326047Y277000D02*
X331953D01*
X329000Y274047D02*
Y279953D01*
X138047Y241500D02*
X143953D01*
X141000Y238547D02*
Y244453D01*
X138047Y257500D02*
X143953D01*
X141000Y254547D02*
Y260453D01*
X279600Y250500D02*
X282400D01*
X281000Y249100D02*
Y251900D01*
X129245Y276919D02*
X132045D01*
X130645Y275519D02*
Y278319D01*
X131100Y376000D02*
X133900D01*
X132500Y374600D02*
Y377400D01*
X129600Y326500D02*
X132400D01*
X131000Y325100D02*
Y327900D01*
X300365Y223000D02*
X303165D01*
X301765Y221600D02*
Y224400D01*
X276600Y448010D02*
X279400D01*
X278000Y446610D02*
Y449410D01*
X119225Y218875D02*
X122025D01*
X120625Y217475D02*
Y220275D01*
X313100Y448010D02*
X315900D01*
X314500Y446610D02*
Y449410D01*
X259600Y249000D02*
X262400D01*
X261000Y247600D02*
Y250400D01*
X225910Y204690D02*
X228710D01*
X227310Y203290D02*
Y206090D01*
X249600Y353347D02*
X252400D01*
X251000Y351947D02*
Y354747D01*
X299600Y301000D02*
X302400D01*
X301000Y299600D02*
Y302400D01*
X299600Y398500D02*
X302400D01*
X301000Y397100D02*
Y399900D01*
X299600Y350500D02*
X302400D01*
X301000Y349100D02*
Y351900D01*
X299600Y253561D02*
X302400D01*
X301000Y252161D02*
Y254961D01*
X212100Y303500D02*
X214900D01*
X213500Y302100D02*
Y304900D01*
X246850Y384500D02*
X249650D01*
X248250Y383100D02*
Y385900D01*
X212591Y433000D02*
X215391D01*
X213991Y431600D02*
Y434400D01*
X198100Y259500D02*
X200900D01*
X199500Y258100D02*
Y260900D01*
X195600Y387500D02*
X198400D01*
X197000Y386100D02*
Y388900D01*
X246872Y363500D02*
X249672D01*
X248272Y362100D02*
Y364900D01*
X212600Y412000D02*
X215400D01*
X214000Y410600D02*
Y413400D01*
X246600Y231500D02*
X249400D01*
X248000Y230100D02*
Y232900D01*
X212600Y282500D02*
X215400D01*
X214000Y281100D02*
Y283900D01*
M02*
