G04*
G04 #@! TF.GenerationSoftware,Altium Limited,Altium Designer,18.1.9 (240)*
G04*
G04 Layer_Color=12632256*
%FSLAX25Y25*%
%MOIN*%
G70*
G01*
G75*
%ADD10C,0.01000*%
%ADD37C,0.16929*%
%ADD38C,0.07087*%
%ADD39C,0.11811*%
D10*
X244105Y324500D02*
X254105D01*
Y334500D01*
X234105Y324500D02*
X254105D01*
X234105Y334500D02*
X254105D01*
X234105Y324500D02*
Y334500D01*
X249000Y209690D02*
Y219690D01*
X239000D02*
X249000D01*
Y199690D02*
Y219690D01*
X239000Y199690D02*
Y219690D01*
Y199690D02*
X249000D01*
X231000Y274655D02*
Y284655D01*
Y274655D02*
X241000D01*
X231000D02*
Y294655D01*
X241000Y274655D02*
Y294655D01*
X231000D02*
X241000D01*
X231605Y403500D02*
Y413500D01*
Y403500D02*
X241605D01*
X231605D02*
Y423500D01*
X241605Y403500D02*
Y423500D01*
X231605D02*
X241605D01*
D37*
X292500Y438500D02*
D03*
X263500Y207500D02*
D03*
X132500D02*
D03*
Y438500D02*
D03*
D38*
X239105Y329500D02*
D03*
X249105D02*
D03*
X244000Y204690D02*
D03*
Y214690D02*
D03*
X236000Y289655D02*
D03*
Y279655D02*
D03*
X236605Y418500D02*
D03*
Y408500D02*
D03*
D39*
X329000Y423000D02*
D03*
Y439000D02*
D03*
X328500Y204815D02*
D03*
Y224500D02*
D03*
Y244185D02*
D03*
X141000Y389500D02*
D03*
Y405500D02*
D03*
X329000Y390333D02*
D03*
Y374333D02*
D03*
X141000Y340167D02*
D03*
Y356167D02*
D03*
X329000Y341667D02*
D03*
Y325667D02*
D03*
X141000Y290833D02*
D03*
Y306833D02*
D03*
X329000Y293000D02*
D03*
Y277000D02*
D03*
X141000Y241500D02*
D03*
Y257500D02*
D03*
M02*
