G04*
G04 #@! TF.GenerationSoftware,Altium Limited,Altium Designer,19.0.10 (269)*
G04*
G04 Layer_Color=255*
%FSLAX25Y25*%
%MOIN*%
G70*
G01*
G75*
%ADD12C,0.01000*%
%ADD14C,0.03000*%
%ADD15R,0.08000X0.06000*%
%ADD16R,0.02559X0.04921*%
%ADD17R,0.17520X0.15354*%
%ADD18R,0.05709X0.02362*%
%ADD19R,0.15748X0.18307*%
%ADD20R,0.06000X0.08000*%
%ADD21R,0.09843X0.06102*%
%ADD22R,0.09449X0.06102*%
%ADD37C,0.07087*%
%ADD38C,0.11811*%
%ADD39C,0.16929*%
D12*
X244105Y324500D02*
X254105D01*
Y334500D01*
X234105Y324500D02*
X254105D01*
X234105Y334500D02*
X254105D01*
X234105Y324500D02*
Y334500D01*
X249000Y209690D02*
Y219690D01*
X239000D02*
X249000D01*
Y199690D02*
Y219690D01*
X239000Y199690D02*
Y219690D01*
Y199690D02*
X249000D01*
X231000Y274655D02*
Y284655D01*
Y274655D02*
X241000D01*
X231000D02*
Y294655D01*
X241000Y274655D02*
Y294655D01*
X231000D02*
X241000D01*
X231605Y403500D02*
Y413500D01*
Y403500D02*
X241605D01*
X231605D02*
Y423500D01*
X241605Y403500D02*
Y423500D01*
X231605D02*
X241605D01*
D14*
X307500Y437750D02*
D03*
X305500Y447828D02*
D03*
X271000D02*
D03*
X120500Y226000D02*
D03*
Y279000D02*
D03*
Y271000D02*
D03*
Y321000D02*
D03*
Y328500D02*
D03*
Y370000D02*
D03*
Y377000D02*
D03*
Y419500D02*
D03*
X260000Y447828D02*
D03*
D15*
X257500Y384500D02*
D03*
Y395500D02*
D03*
X239000Y384500D02*
D03*
Y395500D02*
D03*
X301000Y406731D02*
D03*
Y417731D02*
D03*
X223000Y444000D02*
D03*
Y433000D02*
D03*
X222500Y314500D02*
D03*
Y303500D02*
D03*
X250000Y262500D02*
D03*
Y251500D02*
D03*
X204606Y444376D02*
D03*
Y433376D02*
D03*
X301000Y320500D02*
D03*
Y309500D02*
D03*
Y369750D02*
D03*
Y358750D02*
D03*
X204606Y314500D02*
D03*
Y303500D02*
D03*
X301000Y272500D02*
D03*
Y261500D02*
D03*
X238000Y262500D02*
D03*
Y251500D02*
D03*
D16*
X216591Y229000D02*
D03*
X211591D02*
D03*
X206591D02*
D03*
X221591D02*
D03*
Y250500D02*
D03*
X206591D02*
D03*
X211591D02*
D03*
X216591D02*
D03*
X183000Y430642D02*
D03*
X178000D02*
D03*
X173000D02*
D03*
X188000D02*
D03*
Y409142D02*
D03*
X173000D02*
D03*
X178000D02*
D03*
X183000D02*
D03*
X216591Y383500D02*
D03*
X211591D02*
D03*
X206591D02*
D03*
X221591D02*
D03*
Y362000D02*
D03*
X206591D02*
D03*
X211591D02*
D03*
X216591D02*
D03*
X183500Y301000D02*
D03*
X178500D02*
D03*
X173500D02*
D03*
X188500D02*
D03*
Y279500D02*
D03*
X173500D02*
D03*
X178500D02*
D03*
X183500D02*
D03*
D17*
X214091Y236858D02*
D03*
X180500Y417000D02*
D03*
X214091Y369858D02*
D03*
X181000Y287358D02*
D03*
D18*
X295228Y232500D02*
D03*
Y237500D02*
D03*
Y242500D02*
D03*
Y247500D02*
D03*
X273772Y232500D02*
D03*
Y237500D02*
D03*
Y242500D02*
D03*
Y247500D02*
D03*
X257957Y226500D02*
D03*
Y231500D02*
D03*
Y236500D02*
D03*
Y241500D02*
D03*
X236500Y226500D02*
D03*
Y231500D02*
D03*
Y236500D02*
D03*
Y241500D02*
D03*
X224500Y277500D02*
D03*
Y282500D02*
D03*
Y287500D02*
D03*
Y292500D02*
D03*
X203043Y277500D02*
D03*
Y282500D02*
D03*
Y287500D02*
D03*
Y292500D02*
D03*
X259000Y358500D02*
D03*
Y363500D02*
D03*
Y368500D02*
D03*
Y373500D02*
D03*
X237543Y358500D02*
D03*
Y363500D02*
D03*
Y368500D02*
D03*
Y373500D02*
D03*
X224500Y407000D02*
D03*
Y412000D02*
D03*
Y417000D02*
D03*
Y422000D02*
D03*
X203043Y407000D02*
D03*
Y412000D02*
D03*
Y417000D02*
D03*
Y422000D02*
D03*
D19*
X265500Y290500D02*
D03*
X283500D02*
D03*
Y266500D02*
D03*
X265500D02*
D03*
D20*
X292500Y221500D02*
D03*
X281500D02*
D03*
D21*
X237500Y344500D02*
D03*
X251500D02*
D03*
X171500Y244000D02*
D03*
X185500D02*
D03*
X213310Y215500D02*
D03*
X227310D02*
D03*
X186500Y378000D02*
D03*
X172500D02*
D03*
D22*
X205750Y345073D02*
D03*
X223750D02*
D03*
X170500Y258500D02*
D03*
X188500D02*
D03*
X181000Y215500D02*
D03*
X199000D02*
D03*
X188640Y393500D02*
D03*
X170640D02*
D03*
D37*
X239105Y329500D02*
D03*
X249105D02*
D03*
X244000Y204690D02*
D03*
Y214690D02*
D03*
X236000Y289655D02*
D03*
Y279655D02*
D03*
X236605Y418500D02*
D03*
Y408500D02*
D03*
D38*
X329000Y423000D02*
D03*
Y439000D02*
D03*
X328500Y204815D02*
D03*
Y224500D02*
D03*
Y244185D02*
D03*
X141000Y389500D02*
D03*
Y405500D02*
D03*
X329000Y390333D02*
D03*
Y374333D02*
D03*
X141000Y340167D02*
D03*
Y356167D02*
D03*
X329000Y341667D02*
D03*
Y325667D02*
D03*
X141000Y290833D02*
D03*
Y306833D02*
D03*
X329000Y293000D02*
D03*
Y277000D02*
D03*
X141000Y241500D02*
D03*
Y257500D02*
D03*
D39*
X263500Y207500D02*
D03*
X292500Y438500D02*
D03*
X132500D02*
D03*
Y207500D02*
D03*
M02*
