G04*
G04 #@! TF.GenerationSoftware,Altium Limited,Altium Designer,18.1.9 (240)*
G04*
G04 Layer_Color=16711935*
%FSLAX25Y25*%
%MOIN*%
G70*
G01*
G75*
%ADD10C,0.01000*%
%ADD41C,0.00394*%
%ADD42R,0.03760X0.18110*%
%ADD43R,0.02436X0.11496*%
%ADD44R,0.02796X0.10984*%
D10*
X244105Y324500D02*
X254105D01*
Y334500D01*
X234105Y324500D02*
X254105D01*
X234105Y334500D02*
X254105D01*
X234105Y324500D02*
Y334500D01*
X249000Y209690D02*
Y219690D01*
X239000D02*
X249000D01*
Y199690D02*
Y219690D01*
X239000Y199690D02*
Y219690D01*
Y199690D02*
X249000D01*
X231000Y274655D02*
Y284655D01*
Y274655D02*
X241000D01*
X231000D02*
Y294655D01*
X241000Y274655D02*
Y294655D01*
X231000D02*
X241000D01*
X231605Y403500D02*
Y413500D01*
Y403500D02*
X241605D01*
X231605D02*
Y423500D01*
X241605Y403500D02*
Y423500D01*
X231605D02*
X241605D01*
D41*
X290799Y233701D02*
G03*
X290799Y233701I-1969J0D01*
G01*
X244866Y240299D02*
G03*
X244866Y240299I-1969J0D01*
G01*
X211409Y291299D02*
G03*
X211409Y291299I-1969J0D01*
G01*
X245910Y372299D02*
G03*
X245910Y372299I-1969J0D01*
G01*
X211409Y420799D02*
G03*
X211409Y420799I-1969J0D01*
G01*
X201591Y223335D02*
Y254358D01*
X226591Y223335D02*
Y254358D01*
X201591Y223335D02*
X226591D01*
X201591Y254358D02*
X226591D01*
X292374Y230157D02*
Y249843D01*
X276626Y230157D02*
Y249843D01*
Y230157D02*
X292374D01*
X276626Y249843D02*
X292374D01*
X260524Y281445D02*
Y299555D01*
X288476Y281445D02*
Y299555D01*
X260524D02*
X288476D01*
X260524Y281445D02*
X288476D01*
X260524Y257445D02*
X288476D01*
X260524Y275555D02*
X288476D01*
Y257445D02*
Y275555D01*
X260524Y257445D02*
Y275555D01*
X239354Y224158D02*
X255102D01*
X239354Y243843D02*
X255102D01*
Y224158D02*
Y243843D01*
X239354Y224158D02*
Y243843D01*
X205898Y275157D02*
X221646D01*
X205898Y294843D02*
X221646D01*
Y275157D02*
Y294843D01*
X205898Y275157D02*
Y294843D01*
X240398Y356157D02*
X256146D01*
X240398Y375842D02*
X256146D01*
Y356157D02*
Y375842D01*
X240398Y356157D02*
Y375842D01*
X205898Y404658D02*
X221646D01*
X205898Y424342D02*
X221646D01*
Y404658D02*
Y424342D01*
X205898Y404658D02*
Y424342D01*
X235445Y338752D02*
Y350248D01*
X253555Y338752D02*
Y350248D01*
X235445D02*
X253555D01*
X235445Y338752D02*
X253555D01*
X204356Y339581D02*
Y350565D01*
X225144Y339581D02*
Y350565D01*
X204356D02*
X225144D01*
X204356Y339581D02*
X225144D01*
X169445Y238252D02*
Y249748D01*
X187555Y238252D02*
Y249748D01*
X169445D02*
X187555D01*
X169445Y238252D02*
X187555D01*
X169106Y253008D02*
Y263992D01*
X189894Y253008D02*
Y263992D01*
X169106D02*
X189894D01*
X169106Y253008D02*
X189894D01*
X211255Y209752D02*
Y221248D01*
X229365Y209752D02*
Y221248D01*
X211255D02*
X229365D01*
X211255Y209752D02*
X229365D01*
X179606Y210008D02*
Y220992D01*
X200394Y210008D02*
Y220992D01*
X179606D02*
X200394D01*
X179606Y210008D02*
X200394D01*
X169246Y388008D02*
X190034D01*
X169246Y398992D02*
X190034D01*
Y388008D02*
Y398992D01*
X169246Y388008D02*
Y398992D01*
X170445Y372252D02*
X188555D01*
X170445Y383748D02*
X188555D01*
Y372252D02*
Y383748D01*
X170445Y372252D02*
Y383748D01*
X168000Y434500D02*
X193000D01*
X168000Y403476D02*
X193000D01*
Y434500D01*
X168000Y403476D02*
Y434500D01*
X201591Y387358D02*
X226591D01*
X201591Y356335D02*
X226591D01*
Y387358D01*
X201591Y356335D02*
Y387358D01*
X168500Y304858D02*
X193500D01*
X168500Y273835D02*
X193500D01*
Y304858D01*
X168500Y273835D02*
Y304858D01*
D42*
X262403Y290500D02*
D03*
Y266500D02*
D03*
D43*
X236663Y344500D02*
D03*
X170663Y244000D02*
D03*
X212473Y215500D02*
D03*
X171663Y378000D02*
D03*
D44*
X205754Y345073D02*
D03*
X170504Y258500D02*
D03*
X181004Y215500D02*
D03*
X170644Y393500D02*
D03*
M02*
