G04*
G04 #@! TF.GenerationSoftware,Altium Limited,Altium Designer,19.0.10 (269)*
G04*
G04 Layer_Color=128*
%FSLAX25Y25*%
%MOIN*%
G70*
G01*
G75*
%ADD87C,0.00200*%
D87*
X263398Y247654D02*
X275602D01*
X269500Y241551D02*
Y253756D01*
X263398Y488205D02*
X275602D01*
X269500Y482102D02*
Y494307D01*
X257335Y454858D02*
X261665D01*
X259500Y452693D02*
Y457024D01*
X277335Y454858D02*
X281665D01*
X279500Y452693D02*
Y457024D01*
X257335Y433126D02*
X261665D01*
X259500Y430961D02*
Y435291D01*
X257335Y422260D02*
X261665D01*
X259500Y420094D02*
Y424425D01*
X257335Y411394D02*
X261665D01*
X259500Y409228D02*
Y413559D01*
X257335Y400527D02*
X261665D01*
X259500Y398362D02*
Y402693D01*
X257335Y389661D02*
X261665D01*
X259500Y387496D02*
Y391827D01*
X257335Y378795D02*
X261665D01*
X259500Y376630D02*
Y380961D01*
X257335Y367929D02*
X261665D01*
X259500Y365764D02*
Y370094D01*
X257335Y357063D02*
X261665D01*
X259500Y354898D02*
Y359228D01*
X257335Y346197D02*
X261665D01*
X259500Y344032D02*
Y348362D01*
X257335Y335331D02*
X261665D01*
X259500Y333165D02*
Y337496D01*
X257335Y324465D02*
X261665D01*
X259500Y322299D02*
Y326630D01*
X257335Y313598D02*
X261665D01*
X259500Y311433D02*
Y315764D01*
X257335Y302732D02*
X261665D01*
X259500Y300567D02*
Y304898D01*
X257335Y291866D02*
X261665D01*
X259500Y289701D02*
Y294032D01*
X257335Y281000D02*
X261665D01*
X259500Y278835D02*
Y283165D01*
X267335Y449386D02*
X271665D01*
X269500Y447220D02*
Y451551D01*
X267335Y438522D02*
X271665D01*
X269500Y436357D02*
Y440688D01*
X267335Y427659D02*
X271665D01*
X269500Y425493D02*
Y429824D01*
X267335Y416795D02*
X271665D01*
X269500Y414630D02*
Y418961D01*
X267335Y405932D02*
X271665D01*
X269500Y403766D02*
Y408097D01*
X267335Y395068D02*
X271665D01*
X269500Y392903D02*
Y397234D01*
X267335Y384205D02*
X271665D01*
X269500Y382039D02*
Y386370D01*
X267335Y373341D02*
X271665D01*
X269500Y371176D02*
Y375506D01*
X267335Y362478D02*
X271665D01*
X269500Y360312D02*
Y364643D01*
X267335Y351614D02*
X271665D01*
X269500Y349449D02*
Y353780D01*
X267335Y340751D02*
X271665D01*
X269500Y338585D02*
Y342916D01*
X267335Y329887D02*
X271665D01*
X269500Y327722D02*
Y332052D01*
X267335Y319024D02*
X271665D01*
X269500Y316858D02*
Y321189D01*
X267335Y308160D02*
X271665D01*
X269500Y305995D02*
Y310325D01*
X267335Y297297D02*
X271665D01*
X269500Y295131D02*
Y299462D01*
X267335Y286433D02*
X271665D01*
X269500Y284268D02*
Y288598D01*
X277335Y443992D02*
X281665D01*
X279500Y441827D02*
Y446157D01*
X277335Y433126D02*
X281665D01*
X279500Y430961D02*
Y435291D01*
X277335Y422260D02*
X281665D01*
X279500Y420094D02*
Y424425D01*
X277335Y411394D02*
X281665D01*
X279500Y409228D02*
Y413559D01*
X277335Y400527D02*
X281665D01*
X279500Y398362D02*
Y402693D01*
X277335Y389661D02*
X281665D01*
X279500Y387496D02*
Y391827D01*
X277335Y378795D02*
X281665D01*
X279500Y376630D02*
Y380961D01*
X277335Y367929D02*
X281665D01*
X279500Y365764D02*
Y370094D01*
X277335Y357063D02*
X281665D01*
X279500Y354898D02*
Y359228D01*
X277335Y346197D02*
X281665D01*
X279500Y344032D02*
Y348362D01*
X277335Y335331D02*
X281665D01*
X279500Y333165D02*
Y337496D01*
X277335Y324465D02*
X281665D01*
X279500Y322299D02*
Y326630D01*
X277335Y313598D02*
X281665D01*
X279500Y311433D02*
Y315764D01*
X277335Y302732D02*
X281665D01*
X279500Y300567D02*
Y304898D01*
X257335Y443992D02*
X261665D01*
X259500Y441827D02*
Y446157D01*
X277335Y291866D02*
X281665D01*
X279500Y289701D02*
Y294032D01*
X277335Y281000D02*
X281665D01*
X279500Y278835D02*
Y283165D01*
X894014Y431882D02*
X898305D01*
X896159Y429736D02*
Y434028D01*
X905195Y437335D02*
X909486D01*
X907341Y435189D02*
Y439480D01*
X894014Y442787D02*
X898305D01*
X896159Y440642D02*
Y444933D01*
X905195Y448240D02*
X909486D01*
X907341Y446095D02*
Y450386D01*
X894014Y453693D02*
X898305D01*
X896159Y451547D02*
Y455839D01*
X905195Y459146D02*
X909486D01*
X907341Y457000D02*
Y461291D01*
X894014Y464598D02*
X898305D01*
X896159Y462453D02*
Y466744D01*
X905195Y470051D02*
X909486D01*
X907341Y467906D02*
Y472197D01*
X894014Y475504D02*
X898305D01*
X896159Y473358D02*
Y477650D01*
X895333Y502886D02*
X908167D01*
X901750Y496468D02*
Y509303D01*
X895333Y404500D02*
X908167D01*
X901750Y398083D02*
Y410917D01*
X838258Y324250D02*
X844242D01*
X841250Y321258D02*
Y327242D01*
X827392Y324250D02*
X833376D01*
X830384Y321258D02*
Y327242D01*
X849085Y324250D02*
X855069D01*
X852077Y321258D02*
Y327242D01*
X863317Y324250D02*
X871309D01*
X867313Y320254D02*
Y328246D01*
X800325Y324250D02*
X808317D01*
X804321Y320254D02*
Y328246D01*
X820994Y506848D02*
X828986D01*
X824990Y502852D02*
Y510845D01*
X799341Y506848D02*
X807333D01*
X803337Y502852D02*
Y510845D01*
X842648Y506848D02*
X850640D01*
X846644Y502852D02*
Y510845D01*
X864301Y506848D02*
X872293D01*
X868297Y502852D02*
Y510845D01*
X302200Y240250D02*
X313800D01*
X308000Y234450D02*
Y246050D01*
X238950Y527750D02*
X250550D01*
X244750Y521950D02*
Y533550D01*
X905950Y239613D02*
X917550D01*
X911750Y233813D02*
Y245413D01*
X905450Y527250D02*
X917050D01*
X911250Y521450D02*
Y533050D01*
X754798Y248695D02*
X759916D01*
X757357Y246136D02*
Y251254D01*
X725271Y248695D02*
X730389D01*
X727830Y246136D02*
Y251254D01*
X725271Y307750D02*
X730389D01*
X727830Y305191D02*
Y310309D01*
X754798Y307750D02*
X759916D01*
X757357Y305191D02*
Y310309D01*
X725271Y327435D02*
X730389D01*
X727830Y324876D02*
Y329994D01*
X754798Y327435D02*
X759916D01*
X757357Y324876D02*
Y329994D01*
X725271Y347120D02*
X730389D01*
X727830Y344561D02*
Y349679D01*
X754798Y347120D02*
X759916D01*
X757357Y344561D02*
Y349679D01*
X638512Y248695D02*
X643631D01*
X641071Y246136D02*
Y251254D01*
X608985Y248695D02*
X614103D01*
X611544Y246136D02*
Y251254D01*
X608985Y307750D02*
X614103D01*
X611544Y305191D02*
Y310309D01*
X638512Y307750D02*
X643631D01*
X641071Y305191D02*
Y310309D01*
X608985Y327435D02*
X614103D01*
X611544Y324876D02*
Y329994D01*
X638512Y327435D02*
X643631D01*
X641071Y324876D02*
Y329994D01*
X608985Y347120D02*
X614103D01*
X611544Y344561D02*
Y349679D01*
X638512Y347120D02*
X643631D01*
X641071Y344561D02*
Y349679D01*
X530084Y248695D02*
X535202D01*
X532643Y246136D02*
Y251254D01*
X500556Y248695D02*
X505674D01*
X503115Y246136D02*
Y251254D01*
X500556Y307750D02*
X505674D01*
X503115Y305191D02*
Y310309D01*
X530084Y307750D02*
X535202D01*
X532643Y305191D02*
Y310309D01*
X500556Y327435D02*
X505674D01*
X503115Y324876D02*
Y329994D01*
X530084Y327435D02*
X535202D01*
X532643Y324876D02*
Y329994D01*
X500556Y347120D02*
X505674D01*
X503115Y344561D02*
Y349679D01*
X530084Y347120D02*
X535202D01*
X532643Y344561D02*
Y349679D01*
X475870Y248695D02*
X480988D01*
X478429Y246136D02*
Y251254D01*
X446342Y248695D02*
X451460D01*
X448901Y246136D02*
Y251254D01*
X446342Y307750D02*
X451460D01*
X448901Y305191D02*
Y310309D01*
X475870Y307750D02*
X480988D01*
X478429Y305191D02*
Y310309D01*
X446342Y327435D02*
X451460D01*
X448901Y324876D02*
Y329994D01*
X475870Y327435D02*
X480988D01*
X478429Y324876D02*
Y329994D01*
X446342Y347120D02*
X451460D01*
X448901Y344561D02*
Y349679D01*
X475870Y347120D02*
X480988D01*
X478429Y344561D02*
Y349679D01*
X421655Y248695D02*
X426773D01*
X424214Y246136D02*
Y251254D01*
X392128Y248695D02*
X397246D01*
X394687Y246136D02*
Y251254D01*
X392128Y307750D02*
X397246D01*
X394687Y305191D02*
Y310309D01*
X421655Y307750D02*
X426773D01*
X424214Y305191D02*
Y310309D01*
X392128Y327435D02*
X397246D01*
X394687Y324876D02*
Y329994D01*
X421655Y327435D02*
X426773D01*
X424214Y324876D02*
Y329994D01*
X392128Y347120D02*
X397246D01*
X394687Y344561D02*
Y349679D01*
X421655Y347120D02*
X426773D01*
X424214Y344561D02*
Y349679D01*
X686921Y490000D02*
X699441D01*
X693181Y483740D02*
Y496260D01*
X555740Y490000D02*
X568260D01*
X562000Y483740D02*
Y496260D01*
X663614Y483700D02*
X667906D01*
X665760Y481554D02*
Y485846D01*
X658161Y494900D02*
X662453D01*
X660307Y492754D02*
Y497046D01*
X652709Y483700D02*
X657000D01*
X654854Y481554D02*
Y485846D01*
X647256Y494900D02*
X651547D01*
X649402Y492754D02*
Y497046D01*
X641803Y483700D02*
X646095D01*
X643949Y481554D02*
Y485846D01*
X636350Y494900D02*
X640642D01*
X638496Y492754D02*
Y497046D01*
X630898Y483700D02*
X635189D01*
X633043Y481554D02*
Y485846D01*
X625445Y494900D02*
X629736D01*
X627591Y492754D02*
Y497046D01*
X619992Y483700D02*
X624283D01*
X622138Y481554D02*
Y485846D01*
X614539Y494900D02*
X618831D01*
X616685Y492754D02*
Y497046D01*
X609087Y483700D02*
X613378D01*
X611232Y481554D02*
Y485846D01*
X603634Y494900D02*
X607925D01*
X605780Y492754D02*
Y497046D01*
X598181Y483700D02*
X602472D01*
X600327Y481554D02*
Y485846D01*
X592728Y494900D02*
X597020D01*
X594874Y492754D02*
Y497046D01*
X587276Y483700D02*
X591567D01*
X589421Y481554D02*
Y485846D01*
X587276Y510319D02*
X591567D01*
X589421Y508173D02*
Y512465D01*
X592728Y521500D02*
X597020D01*
X594874Y519354D02*
Y523646D01*
X598181Y510319D02*
X602472D01*
X600327Y508173D02*
Y512465D01*
X603634Y521500D02*
X607925D01*
X605780Y519354D02*
Y523646D01*
X609087Y510319D02*
X613378D01*
X611232Y508173D02*
Y512465D01*
X614539Y521500D02*
X618831D01*
X616685Y519354D02*
Y523646D01*
X619992Y510319D02*
X624283D01*
X622138Y508173D02*
Y512465D01*
X625445Y521500D02*
X629736D01*
X627591Y519354D02*
Y523646D01*
X630898Y510319D02*
X635189D01*
X633043Y508173D02*
Y512465D01*
X636350Y521500D02*
X640642D01*
X638496Y519354D02*
Y523646D01*
X641803Y510319D02*
X646095D01*
X643949Y508173D02*
Y512465D01*
X647256Y521500D02*
X651547D01*
X649402Y519354D02*
Y523646D01*
X652709Y510319D02*
X657000D01*
X654854Y508173D02*
Y512465D01*
X658161Y521500D02*
X662453D01*
X660307Y519354D02*
Y523646D01*
X663614Y510319D02*
X667906D01*
X665760Y508173D02*
Y512465D01*
X555740Y521500D02*
X568260D01*
X562000Y515240D02*
Y527760D01*
X686921Y521500D02*
X699441D01*
X693181Y515240D02*
Y527760D01*
X401884Y489700D02*
X414718D01*
X408301Y483283D02*
Y496117D01*
X303498Y489700D02*
X316333D01*
X309915Y483283D02*
Y496117D01*
X335152Y483719D02*
X339443D01*
X337297Y481573D02*
Y485865D01*
X340604Y494900D02*
X344896D01*
X342750Y492754D02*
Y497046D01*
X346057Y483719D02*
X350348D01*
X348203Y481573D02*
Y485865D01*
X351510Y494900D02*
X355801D01*
X353656Y492754D02*
Y497046D01*
X356963Y483719D02*
X361254D01*
X359108Y481573D02*
Y485865D01*
X362415Y494900D02*
X366707D01*
X364561Y492754D02*
Y497046D01*
X367868Y483719D02*
X372160D01*
X370014Y481573D02*
Y485865D01*
X373321Y494900D02*
X377612D01*
X375466Y492754D02*
Y497046D01*
X378774Y483719D02*
X383065D01*
X380919Y481573D02*
Y485865D01*
X378774Y510319D02*
X383065D01*
X380919Y508173D02*
Y512465D01*
X373321Y521500D02*
X377612D01*
X375466Y519354D02*
Y523646D01*
X367868Y510319D02*
X372160D01*
X370014Y508173D02*
Y512465D01*
X362415Y521500D02*
X366707D01*
X364561Y519354D02*
Y523646D01*
X356963Y510319D02*
X361254D01*
X359108Y508173D02*
Y512465D01*
X351510Y521500D02*
X355801D01*
X353656Y519354D02*
Y523646D01*
X346057Y510319D02*
X350348D01*
X348203Y508173D02*
Y512465D01*
X340604Y521500D02*
X344896D01*
X342750Y519354D02*
Y523646D01*
X335152Y510319D02*
X339443D01*
X337297Y508173D02*
Y512465D01*
X303498Y521500D02*
X316333D01*
X309915Y515083D02*
Y527917D01*
X401884Y521500D02*
X414718D01*
X408301Y515083D02*
Y527917D01*
X527070Y489700D02*
X539904D01*
X533487Y483283D02*
Y496117D01*
X428684Y489700D02*
X441519D01*
X435101Y483283D02*
Y496117D01*
X460338Y483719D02*
X464629D01*
X462483Y481573D02*
Y485865D01*
X465790Y494900D02*
X470082D01*
X467936Y492754D02*
Y497046D01*
X471243Y483719D02*
X475534D01*
X473389Y481573D02*
Y485865D01*
X476696Y494900D02*
X480987D01*
X478841Y492754D02*
Y497046D01*
X482149Y483719D02*
X486440D01*
X484294Y481573D02*
Y485865D01*
X487601Y494900D02*
X491893D01*
X489747Y492754D02*
Y497046D01*
X493054Y483719D02*
X497345D01*
X495200Y481573D02*
Y485865D01*
X498507Y494900D02*
X502798D01*
X500653Y492754D02*
Y497046D01*
X503960Y483719D02*
X508251D01*
X506105Y481573D02*
Y485865D01*
X503960Y510319D02*
X508251D01*
X506105Y508173D02*
Y512465D01*
X498507Y521500D02*
X502798D01*
X500653Y519354D02*
Y523646D01*
X493054Y510319D02*
X497345D01*
X495200Y508173D02*
Y512465D01*
X487601Y521500D02*
X491893D01*
X489747Y519354D02*
Y523646D01*
X482149Y510319D02*
X486440D01*
X484294Y508173D02*
Y512465D01*
X476696Y521500D02*
X480987D01*
X478841Y519354D02*
Y523646D01*
X471243Y510319D02*
X475534D01*
X473389Y508173D02*
Y512465D01*
X465790Y521500D02*
X470082D01*
X467936Y519354D02*
Y523646D01*
X460338Y510319D02*
X464629D01*
X462483Y508173D02*
Y512465D01*
X428684Y521500D02*
X441519D01*
X435101Y515083D02*
Y527917D01*
X527070Y521500D02*
X539904D01*
X533487Y515083D02*
Y527917D01*
X700727Y248695D02*
X705845D01*
X703286Y246136D02*
Y251254D01*
X671199Y248695D02*
X676317D01*
X673758Y246136D02*
Y251254D01*
X671199Y307750D02*
X676317D01*
X673758Y305191D02*
Y310309D01*
X700727Y307750D02*
X705845D01*
X703286Y305191D02*
Y310309D01*
X671199Y327435D02*
X676317D01*
X673758Y324876D02*
Y329994D01*
X700727Y327435D02*
X705845D01*
X703286Y324876D02*
Y329994D01*
X671199Y347120D02*
X676317D01*
X673758Y344561D02*
Y349679D01*
X700727Y347120D02*
X705845D01*
X703286Y344561D02*
Y349679D01*
X584191Y248945D02*
X589309D01*
X586750Y246386D02*
Y251504D01*
X554663Y248945D02*
X559782D01*
X557222Y246386D02*
Y251504D01*
X554663Y308000D02*
X559782D01*
X557222Y305441D02*
Y310559D01*
X584191Y308000D02*
X589309D01*
X586750Y305441D02*
Y310559D01*
X554663Y327685D02*
X559782D01*
X557222Y325126D02*
Y330244D01*
X584191Y327685D02*
X589309D01*
X586750Y325126D02*
Y330244D01*
X554663Y347370D02*
X559782D01*
X557222Y344811D02*
Y349929D01*
X584191Y347370D02*
X589309D01*
X586750Y344811D02*
Y349929D01*
X367441Y248695D02*
X372559D01*
X370000Y246136D02*
Y251254D01*
X337913Y248695D02*
X343032D01*
X340472Y246136D02*
Y251254D01*
X337913Y307750D02*
X343032D01*
X340472Y305191D02*
Y310309D01*
X367441Y307750D02*
X372559D01*
X370000Y305191D02*
Y310309D01*
X337913Y327435D02*
X343032D01*
X340472Y324876D02*
Y329994D01*
X367441Y327435D02*
X372559D01*
X370000Y324876D02*
Y329994D01*
X337913Y347120D02*
X343032D01*
X340472Y344561D02*
Y349679D01*
X367441Y347120D02*
X372559D01*
X370000Y344561D02*
Y349679D01*
X288032Y531000D02*
X291968D01*
X290000Y529032D02*
Y532969D01*
X288032Y521000D02*
X291968D01*
X290000Y519031D02*
Y522968D01*
X288032Y511000D02*
X291968D01*
X290000Y509031D02*
Y512968D01*
X274657Y531000D02*
X278593D01*
X276625Y529032D02*
Y532969D01*
X274657Y521000D02*
X278593D01*
X276625Y519031D02*
Y522968D01*
X274657Y511000D02*
X278593D01*
X276625Y509031D02*
Y512968D01*
X261281Y531000D02*
X265218D01*
X263250Y529032D02*
Y532969D01*
X261281Y521000D02*
X265218D01*
X263250Y519031D02*
Y522968D01*
X261281Y511000D02*
X265218D01*
X263250Y509031D02*
Y512968D01*
X895083Y279500D02*
X907917D01*
X901500Y273083D02*
Y285917D01*
X895083Y377886D02*
X907917D01*
X901500Y371468D02*
Y384303D01*
X893764Y350504D02*
X898055D01*
X895909Y348358D02*
Y352650D01*
X904945Y345051D02*
X909236D01*
X907091Y342905D02*
Y347197D01*
X893764Y339598D02*
X898055D01*
X895909Y337453D02*
Y341744D01*
X904945Y334146D02*
X909236D01*
X907091Y332000D02*
Y336291D01*
X893764Y328693D02*
X898055D01*
X895909Y326547D02*
Y330839D01*
X904945Y323240D02*
X909236D01*
X907091Y321094D02*
Y325386D01*
X893764Y317787D02*
X898055D01*
X895909Y315642D02*
Y319933D01*
X904945Y312335D02*
X909236D01*
X907091Y310189D02*
Y314480D01*
X893764Y306882D02*
X898055D01*
X895909Y304736D02*
Y309028D01*
X308782Y356500D02*
X312719D01*
X310750Y354532D02*
Y358469D01*
X298781Y356500D02*
X302718D01*
X300750Y354532D02*
Y358469D01*
X308782Y341750D02*
X312719D01*
X310750Y339781D02*
Y343719D01*
X298781Y341750D02*
X302718D01*
X300750Y339781D02*
Y343719D01*
X308782Y327000D02*
X312719D01*
X310750Y325031D02*
Y328969D01*
X298781Y327000D02*
X302718D01*
X300750Y325031D02*
Y328969D01*
X298781Y312250D02*
X302718D01*
X300750Y310281D02*
Y314218D01*
X308782Y312250D02*
X312719D01*
X310750Y310281D02*
Y314218D01*
X308782Y297500D02*
X312719D01*
X310750Y295532D02*
Y299468D01*
X298781Y297500D02*
X302718D01*
X300750Y295532D02*
Y299468D01*
X298781Y282750D02*
X302718D01*
X300750Y280782D02*
Y284718D01*
X308782Y282750D02*
X312719D01*
X310750Y280782D02*
Y284718D01*
X308782Y268000D02*
X312719D01*
X310750Y266032D02*
Y269969D01*
X298781Y268000D02*
X302718D01*
X300750Y266032D02*
Y269969D01*
X874047Y250647D02*
X879953D01*
X877000Y247694D02*
Y253600D01*
X858047Y250647D02*
X863953D01*
X861000Y247694D02*
Y253600D01*
X830797Y250895D02*
X836703D01*
X833750Y247942D02*
Y253848D01*
X814797Y250895D02*
X820703D01*
X817750Y247942D02*
Y253848D01*
X541850Y240500D02*
X544650D01*
X543250Y239100D02*
Y241900D01*
X324183Y247252D02*
X326983D01*
X325583Y245852D02*
Y248652D01*
X251095Y491814D02*
X253895D01*
X252495Y490414D02*
Y493214D01*
X259800Y470250D02*
X262600D01*
X261200Y468850D02*
Y471650D01*
X525600Y461000D02*
X528400D01*
X527000Y459600D02*
Y462400D01*
X274100Y233000D02*
X276900D01*
X275500Y231600D02*
Y234400D01*
X288850Y233000D02*
X291650D01*
X290250Y231600D02*
Y234400D01*
X279600Y271500D02*
X282400D01*
X281000Y270100D02*
Y272900D01*
X288850Y461750D02*
X291650D01*
X290250Y460350D02*
Y463150D01*
X288350Y364200D02*
X291150D01*
X289750Y362800D02*
Y365600D01*
X432350Y425333D02*
X435150D01*
X433750Y423933D02*
Y426733D01*
X629487Y357750D02*
X632287D01*
X630887Y356350D02*
Y359150D01*
X518029Y448815D02*
X520829D01*
X519429Y447415D02*
Y450215D01*
X447350Y468429D02*
X450150D01*
X448750Y467029D02*
Y469829D01*
X355600Y446750D02*
X358400D01*
X357000Y445350D02*
Y448150D01*
X384100Y468750D02*
X386900D01*
X385500Y467350D02*
Y470150D01*
X436350Y467920D02*
X439150D01*
X437750Y466520D02*
Y469320D01*
X456600Y452500D02*
X459400D01*
X458000Y451100D02*
Y453900D01*
X438100Y451750D02*
X440900D01*
X439500Y450350D02*
Y453150D01*
X417600Y451750D02*
X420400D01*
X419000Y450350D02*
Y453150D01*
X357350Y421250D02*
X360150D01*
X358750Y419850D02*
Y422650D01*
X395462Y409500D02*
X398262D01*
X396862Y408100D02*
Y410900D01*
X580214Y368642D02*
X583014D01*
X581614Y367242D02*
Y370042D01*
X583600Y375750D02*
X586400D01*
X585000Y374350D02*
Y377150D01*
X580036Y383500D02*
X582836D01*
X581436Y382100D02*
Y384900D01*
X500194Y391500D02*
X502994D01*
X501594Y390100D02*
Y392900D01*
X333350Y374500D02*
X336150D01*
X334750Y373100D02*
Y375900D01*
X345265Y363840D02*
X348065D01*
X346665Y362439D02*
Y365240D01*
X510100Y412500D02*
X512900D01*
X511500Y411100D02*
Y413900D01*
X291600Y290000D02*
X294400D01*
X293000Y288600D02*
Y291400D01*
X692100Y439750D02*
X694900D01*
X693500Y438350D02*
Y441150D01*
X579374Y535750D02*
X582174D01*
X580774Y534350D02*
Y537150D01*
X401600Y404750D02*
X404400D01*
X403000Y403350D02*
Y406150D01*
X487100Y368750D02*
X489900D01*
X488500Y367350D02*
Y370150D01*
X553210Y446250D02*
X556010D01*
X554610Y444850D02*
Y447650D01*
X468100Y425250D02*
X470900D01*
X469500Y423850D02*
Y426650D01*
X438600Y390000D02*
X441400D01*
X440000Y388600D02*
Y391400D01*
X449853Y511000D02*
X452653D01*
X451253Y509600D02*
Y512400D01*
X645100Y468500D02*
X647900D01*
X646500Y467100D02*
Y469900D01*
X576651Y504551D02*
X579451D01*
X578051Y503151D02*
Y505951D01*
X517014Y460750D02*
X519814D01*
X518414Y459350D02*
Y462150D01*
X497350Y463500D02*
X500150D01*
X498750Y462100D02*
Y464900D01*
X763100Y384250D02*
X765900D01*
X764500Y382850D02*
Y385650D01*
X516100Y527200D02*
X518900D01*
X517500Y525800D02*
Y528600D01*
X582226Y450750D02*
X585026D01*
X583626Y449350D02*
Y452150D01*
X609100Y370092D02*
X611900D01*
X610500Y368692D02*
Y371492D01*
X510927Y422000D02*
X513727D01*
X512327Y420600D02*
Y423400D01*
X491100Y455500D02*
X493900D01*
X492500Y454100D02*
Y456900D01*
X256850Y502250D02*
X259650D01*
X258250Y500850D02*
Y503650D01*
X649514Y387000D02*
X652314D01*
X650914Y385600D02*
Y388400D01*
X717600Y417000D02*
X720400D01*
X719000Y415600D02*
Y418400D01*
X730600Y465750D02*
X733400D01*
X732000Y464350D02*
Y467150D01*
X746600Y465750D02*
X749400D01*
X748000Y464350D02*
Y467150D01*
X711600Y457250D02*
X714400D01*
X713000Y455850D02*
Y458650D01*
X790900Y447500D02*
X793700D01*
X792300Y446100D02*
Y448900D01*
X736100Y503500D02*
X738900D01*
X737500Y502100D02*
Y504900D01*
X546350Y528670D02*
X549150D01*
X547750Y527270D02*
Y530070D01*
X342850Y391500D02*
X345650D01*
X344250Y390100D02*
Y392900D01*
X324100Y476250D02*
X326900D01*
X325500Y474850D02*
Y477650D01*
X715579Y503500D02*
X718379D01*
X716979Y502100D02*
Y504900D01*
X667600Y518000D02*
X670400D01*
X669000Y516600D02*
Y519400D01*
X515100Y398500D02*
X517900D01*
X516500Y397100D02*
Y399900D01*
X613035Y387750D02*
X615835D01*
X614435Y386350D02*
Y389150D01*
X649300Y396000D02*
X652100D01*
X650700Y394600D02*
Y397400D01*
X691628Y403500D02*
X694428D01*
X693028Y402100D02*
Y404900D01*
X719100Y510319D02*
X721900D01*
X720500Y508919D02*
Y511719D01*
X630100Y399240D02*
X632900D01*
X631500Y397840D02*
Y400640D01*
X612350Y407550D02*
X615150D01*
X613750Y406150D02*
Y408950D01*
X566600Y356750D02*
X569400D01*
X568000Y355350D02*
Y358150D01*
X306100Y409750D02*
X308900D01*
X307500Y408350D02*
Y411150D01*
X315988Y381500D02*
X318788D01*
X317388Y380100D02*
Y382900D01*
X311850Y445750D02*
X314650D01*
X313250Y444350D02*
Y447150D01*
X670100Y471500D02*
X672900D01*
X671500Y470100D02*
Y472900D01*
X669850Y454858D02*
X672650D01*
X671250Y453458D02*
Y456258D01*
X543550Y404250D02*
X546350D01*
X544950Y402850D02*
Y405650D01*
X612850Y396000D02*
X615650D01*
X614250Y394600D02*
Y397400D01*
X664476Y430126D02*
X667276D01*
X665876Y428726D02*
Y431526D01*
X371600Y385000D02*
X374400D01*
X373000Y383600D02*
Y386400D01*
X318850Y403000D02*
X321650D01*
X320250Y401600D02*
Y404400D01*
X342350Y403000D02*
X345150D01*
X343750Y401600D02*
Y404400D01*
X435001Y366821D02*
X437801D01*
X436401Y365421D02*
Y368221D01*
X440001Y403321D02*
X442801D01*
X441401Y401921D02*
Y404721D01*
X387600Y420750D02*
X390400D01*
X389000Y419350D02*
Y422150D01*
X305600Y367000D02*
X308400D01*
X307000Y365600D02*
Y368400D01*
X532600Y413000D02*
X535400D01*
X534000Y411600D02*
Y414400D01*
X532750Y437150D02*
X535550D01*
X534150Y435750D02*
Y438550D01*
X503600Y456250D02*
X506400D01*
X505000Y454850D02*
Y457650D01*
X368600Y398500D02*
X371400D01*
X370000Y397100D02*
Y399900D01*
X364974Y408406D02*
X367774D01*
X366374Y407006D02*
Y409806D01*
X468600Y391750D02*
X471400D01*
X470000Y390350D02*
Y393150D01*
X416600Y424250D02*
X419400D01*
X418000Y422850D02*
Y425650D01*
X372100Y426000D02*
X374900D01*
X373500Y424600D02*
Y427400D01*
X349742Y411250D02*
X352542D01*
X351142Y409850D02*
Y412650D01*
X479850Y406675D02*
X482650D01*
X481250Y405275D02*
Y408075D01*
X408975Y410793D02*
X411775D01*
X410375Y409393D02*
Y412193D01*
X378850Y410500D02*
X381650D01*
X380250Y409100D02*
Y411900D01*
X404475Y367043D02*
X407275D01*
X405875Y365643D02*
Y368443D01*
X373600Y367000D02*
X376400D01*
X375000Y365600D02*
Y368400D01*
M02*
