G04*
G04 #@! TF.GenerationSoftware,Altium Limited,Altium Designer,19.0.10 (269)*
G04*
G04 Layer_Physical_Order=4*
G04 Layer_Color=16711680*
%FSLAX25Y25*%
%MOIN*%
G70*
G01*
G75*
%ADD11C,0.01000*%
%ADD17C,0.00800*%
%ADD69C,0.02500*%
%ADD70C,0.02000*%
%ADD71C,0.01200*%
%ADD73C,0.13800*%
%ADD74C,0.06500*%
%ADD75C,0.06653*%
%ADD76R,0.06653X0.06653*%
%ADD77C,0.18740*%
%ADD78C,0.09055*%
%ADD79C,0.11811*%
%ADD80C,0.16929*%
%ADD81C,0.18898*%
%ADD82C,0.06653*%
%ADD83R,0.06653X0.06653*%
%ADD84C,0.07087*%
%ADD85C,0.05000*%
G36*
X287073Y456507D02*
Y447746D01*
X287073Y447746D01*
X287181Y447200D01*
X287491Y446737D01*
X288119Y446108D01*
X287750Y435443D01*
Y367077D01*
X287254Y366696D01*
X286693Y365965D01*
X286340Y365114D01*
X286220Y364200D01*
X286340Y363286D01*
X286693Y362435D01*
X287254Y361704D01*
X287750Y361323D01*
Y352769D01*
X286491Y351509D01*
X286181Y351046D01*
X286073Y350500D01*
X286073Y350500D01*
Y322190D01*
X281325Y317442D01*
X280609Y317739D01*
X279500Y317885D01*
X278391Y317739D01*
X277357Y317311D01*
X276469Y316630D01*
X275788Y315742D01*
X275359Y314708D01*
X275213Y313598D01*
X275359Y312489D01*
X275788Y311455D01*
X276469Y310567D01*
X277357Y309886D01*
X278391Y309458D01*
X279500Y309312D01*
X280609Y309458D01*
X281643Y309886D01*
X282531Y310567D01*
X283212Y311455D01*
X283641Y312489D01*
X283787Y313598D01*
X283641Y314708D01*
X283344Y315424D01*
X287288Y319368D01*
X287750Y319176D01*
Y273131D01*
X284113D01*
X284057Y273265D01*
X283496Y273996D01*
X282765Y274557D01*
X281914Y274910D01*
X281000Y275030D01*
X280086Y274910D01*
X279235Y274557D01*
X278504Y273996D01*
X277943Y273265D01*
X277590Y272414D01*
X277470Y271500D01*
X277590Y270586D01*
X277943Y269735D01*
X278504Y269004D01*
X279235Y268443D01*
X280086Y268090D01*
X281000Y267970D01*
X281914Y268090D01*
X282765Y268443D01*
X283496Y269004D01*
X284057Y269735D01*
X284113Y269869D01*
X287750D01*
Y266250D01*
X296557D01*
X296781Y265709D01*
X297510Y264760D01*
X298459Y264031D01*
X299564Y263574D01*
X300750Y263418D01*
X301936Y263574D01*
X303041Y264031D01*
X303990Y264760D01*
X304719Y265709D01*
X304943Y266250D01*
X306557D01*
X306781Y265709D01*
X307510Y264760D01*
X308459Y264031D01*
X309564Y263574D01*
X310750Y263418D01*
X311936Y263574D01*
X313041Y264031D01*
X313990Y264760D01*
X314719Y265709D01*
X314943Y266250D01*
X546250D01*
X557833Y254667D01*
X557612Y254219D01*
X557222Y254270D01*
X555779Y254080D01*
X554435Y253523D01*
X553280Y252637D01*
X552394Y251483D01*
X551837Y250138D01*
X551647Y248695D01*
X551837Y247252D01*
X552394Y245907D01*
X553280Y244753D01*
X554435Y243867D01*
X555779Y243310D01*
X557222Y243120D01*
X558665Y243310D01*
X559084Y243483D01*
X559500Y243205D01*
Y233500D01*
X315351D01*
X315114Y234000D01*
X315908Y234966D01*
X316786Y236611D01*
X317328Y238395D01*
X317510Y240250D01*
X317328Y242105D01*
X316786Y243889D01*
X315908Y245534D01*
X314725Y246975D01*
X313284Y248158D01*
X311639Y249036D01*
X309855Y249578D01*
X308000Y249760D01*
X306145Y249578D01*
X304361Y249036D01*
X302716Y248158D01*
X301275Y246975D01*
X300092Y245534D01*
X299214Y243889D01*
X298672Y242105D01*
X298490Y240250D01*
X298672Y238395D01*
X299214Y236611D01*
X300092Y234966D01*
X300886Y234000D01*
X300649Y233500D01*
X278964D01*
X278910Y233914D01*
X278557Y234765D01*
X277996Y235496D01*
X277265Y236057D01*
X276414Y236410D01*
X275500Y236530D01*
X274586Y236410D01*
X273735Y236057D01*
X273004Y235496D01*
X272443Y234765D01*
X272090Y233914D01*
X272036Y233500D01*
X247513D01*
X239000Y242013D01*
X239000Y457402D01*
X243348Y461750D01*
X281830D01*
X287073Y456507D01*
D02*
G37*
G36*
X301514Y174289D02*
X301544Y174285D01*
X301577Y174281D01*
X301614Y174274D01*
X301658Y174267D01*
X301706Y174256D01*
X301758Y174244D01*
X301866Y174207D01*
X301925Y174185D01*
X301984Y174156D01*
X302043Y174126D01*
X302106Y174089D01*
X301884Y173508D01*
X301880D01*
X301873Y173515D01*
X301862Y173519D01*
X301843Y173530D01*
X301825Y173538D01*
X301799Y173549D01*
X301740Y173575D01*
X301673Y173601D01*
X301595Y173619D01*
X301510Y173634D01*
X301425Y173641D01*
X301392D01*
X301351Y173634D01*
X301303Y173626D01*
X301248Y173612D01*
X301185Y173590D01*
X301122Y173556D01*
X301059Y173515D01*
X301051Y173508D01*
X301033Y173493D01*
X301003Y173464D01*
X300970Y173427D01*
X300929Y173379D01*
X300892Y173319D01*
X300855Y173249D01*
X300826Y173171D01*
Y173168D01*
X300822Y173157D01*
X300815Y173138D01*
X300811Y173112D01*
X300804Y173083D01*
X300793Y173046D01*
X300785Y173001D01*
X300774Y172957D01*
X300763Y172901D01*
X300756Y172846D01*
X300748Y172787D01*
X300737Y172724D01*
X300726Y172587D01*
X300722Y172439D01*
Y170500D01*
X300093D01*
Y174211D01*
X300659D01*
Y173641D01*
X300663Y173645D01*
X300670Y173660D01*
X300681Y173678D01*
X300696Y173704D01*
X300715Y173738D01*
X300737Y173775D01*
X300789Y173856D01*
X300852Y173941D01*
X300918Y174030D01*
X300952Y174067D01*
X300985Y174104D01*
X301022Y174137D01*
X301055Y174163D01*
X301059D01*
X301063Y174170D01*
X301074Y174174D01*
X301089Y174185D01*
X301126Y174204D01*
X301174Y174230D01*
X301237Y174252D01*
X301303Y174274D01*
X301377Y174289D01*
X301459Y174293D01*
X301492D01*
X301514Y174289D01*
D02*
G37*
G36*
X280579Y174289D02*
X280620D01*
X280664Y174281D01*
X280716Y174278D01*
X280775Y174267D01*
X280842Y174256D01*
X280909Y174237D01*
X280975Y174218D01*
X281046Y174193D01*
X281120Y174163D01*
X281186Y174130D01*
X281253Y174085D01*
X281316Y174041D01*
X281375Y173985D01*
X281379Y173982D01*
X281390Y173971D01*
X281404Y173952D01*
X281423Y173926D01*
X281445Y173897D01*
X281471Y173856D01*
X281497Y173808D01*
X281527Y173752D01*
X281553Y173689D01*
X281578Y173623D01*
X281604Y173545D01*
X281627Y173460D01*
X281649Y173368D01*
X281663Y173268D01*
X281671Y173160D01*
X281675Y173046D01*
Y170500D01*
X281046D01*
Y172835D01*
Y172838D01*
Y172853D01*
Y172872D01*
Y172898D01*
Y172927D01*
X281042Y172964D01*
X281038Y173046D01*
X281031Y173134D01*
X281020Y173223D01*
X281005Y173308D01*
X280994Y173345D01*
X280983Y173379D01*
Y173382D01*
X280979Y173386D01*
X280972Y173405D01*
X280957Y173438D01*
X280935Y173475D01*
X280901Y173515D01*
X280864Y173560D01*
X280816Y173604D01*
X280761Y173645D01*
X280753Y173649D01*
X280731Y173660D01*
X280698Y173678D01*
X280653Y173697D01*
X280598Y173715D01*
X280535Y173734D01*
X280461Y173745D01*
X280383Y173749D01*
X280346D01*
X280320Y173745D01*
X280287Y173741D01*
X280246Y173734D01*
X280202Y173726D01*
X280158Y173715D01*
X280106Y173700D01*
X280054Y173686D01*
X280002Y173663D01*
X279947Y173638D01*
X279891Y173608D01*
X279839Y173571D01*
X279788Y173534D01*
X279736Y173486D01*
X279732Y173482D01*
X279725Y173475D01*
X279714Y173460D01*
X279695Y173438D01*
X279677Y173408D01*
X279654Y173375D01*
X279632Y173334D01*
X279606Y173286D01*
X279584Y173231D01*
X279558Y173168D01*
X279536Y173101D01*
X279518Y173027D01*
X279499Y172942D01*
X279488Y172853D01*
X279481Y172757D01*
X279477Y172653D01*
Y170500D01*
X278848D01*
Y172909D01*
Y172912D01*
Y172927D01*
Y172949D01*
X278844Y172979D01*
Y173012D01*
X278840Y173053D01*
X278837Y173097D01*
X278829Y173145D01*
X278811Y173245D01*
X278781Y173349D01*
X278744Y173449D01*
X278718Y173497D01*
X278692Y173538D01*
Y173541D01*
X278685Y173545D01*
X278678Y173556D01*
X278663Y173571D01*
X278648Y173586D01*
X278626Y173604D01*
X278600Y173623D01*
X278574Y173645D01*
X278541Y173663D01*
X278504Y173682D01*
X278463Y173700D01*
X278415Y173715D01*
X278367Y173730D01*
X278311Y173741D01*
X278252Y173745D01*
X278189Y173749D01*
X278163D01*
X278145Y173745D01*
X278123D01*
X278093Y173741D01*
X278030Y173730D01*
X277956Y173715D01*
X277871Y173689D01*
X277786Y173656D01*
X277701Y173608D01*
X277697D01*
X277690Y173601D01*
X277679Y173593D01*
X277664Y173582D01*
X277623Y173549D01*
X277575Y173504D01*
X277519Y173445D01*
X277468Y173375D01*
X277416Y173293D01*
X277372Y173197D01*
Y173194D01*
X277368Y173186D01*
X277364Y173168D01*
X277357Y173149D01*
X277349Y173120D01*
X277338Y173086D01*
X277331Y173046D01*
X277323Y173001D01*
X277312Y172949D01*
X277305Y172890D01*
X277294Y172827D01*
X277286Y172757D01*
X277283Y172683D01*
X277275Y172602D01*
X277272Y172517D01*
Y172424D01*
Y170500D01*
X276643D01*
Y174211D01*
X277205D01*
Y173686D01*
X277209Y173689D01*
X277212Y173697D01*
X277223Y173712D01*
X277238Y173730D01*
X277253Y173756D01*
X277275Y173782D01*
X277327Y173845D01*
X277394Y173915D01*
X277475Y173985D01*
X277564Y174059D01*
X277667Y174126D01*
X277671Y174130D01*
X277682Y174133D01*
X277697Y174141D01*
X277719Y174152D01*
X277745Y174163D01*
X277779Y174178D01*
X277819Y174193D01*
X277860Y174211D01*
X277908Y174226D01*
X277956Y174241D01*
X278012Y174256D01*
X278071Y174267D01*
X278197Y174285D01*
X278263Y174293D01*
X278370D01*
X278400Y174289D01*
X278433D01*
X278474Y174285D01*
X278522Y174278D01*
X278570Y174270D01*
X278678Y174252D01*
X278789Y174218D01*
X278903Y174178D01*
X278955Y174148D01*
X279007Y174119D01*
X279011Y174115D01*
X279018Y174111D01*
X279033Y174100D01*
X279051Y174089D01*
X279070Y174071D01*
X279096Y174048D01*
X279151Y173996D01*
X279214Y173926D01*
X279273Y173845D01*
X279329Y173749D01*
X279377Y173641D01*
Y173645D01*
X279381Y173649D01*
X279399Y173671D01*
X279421Y173700D01*
X279458Y173745D01*
X279503Y173793D01*
X279555Y173848D01*
X279617Y173908D01*
X279688Y173967D01*
X279765Y174026D01*
X279854Y174085D01*
X279947Y174141D01*
X280050Y174193D01*
X280158Y174233D01*
X280276Y174263D01*
X280398Y174285D01*
X280461Y174293D01*
X280554D01*
X280579Y174289D01*
D02*
G37*
G36*
X294173Y170437D02*
X294169Y170430D01*
X294162Y170411D01*
X294151Y170378D01*
X294136Y170337D01*
X294118Y170289D01*
X294095Y170234D01*
X294070Y170171D01*
X294044Y170104D01*
X293988Y169964D01*
X293929Y169827D01*
X293899Y169760D01*
X293874Y169701D01*
X293848Y169645D01*
X293822Y169597D01*
Y169594D01*
X293814Y169582D01*
X293803Y169568D01*
X293792Y169545D01*
X293777Y169523D01*
X293759Y169494D01*
X293711Y169427D01*
X293655Y169353D01*
X293589Y169279D01*
X293515Y169205D01*
X293478Y169175D01*
X293437Y169146D01*
X293433D01*
X293426Y169138D01*
X293415Y169131D01*
X293400Y169124D01*
X293378Y169113D01*
X293352Y169098D01*
X293322Y169087D01*
X293289Y169072D01*
X293215Y169046D01*
X293126Y169020D01*
X293026Y169005D01*
X292919Y168998D01*
X292886D01*
X292849Y169001D01*
X292800Y169009D01*
X292741Y169016D01*
X292671Y169031D01*
X292597Y169050D01*
X292516Y169076D01*
X292445Y169667D01*
X292449D01*
X292453Y169664D01*
X292464D01*
X292479Y169660D01*
X292519Y169649D01*
X292567Y169638D01*
X292623Y169627D01*
X292682Y169619D01*
X292745Y169612D01*
X292804Y169608D01*
X292838D01*
X292878Y169612D01*
X292923Y169616D01*
X292978Y169627D01*
X293034Y169638D01*
X293085Y169656D01*
X293137Y169679D01*
X293145Y169682D01*
X293159Y169693D01*
X293182Y169708D01*
X293211Y169730D01*
X293245Y169756D01*
X293278Y169790D01*
X293311Y169830D01*
X293344Y169875D01*
X293348Y169878D01*
X293355Y169897D01*
X293363Y169908D01*
X293370Y169927D01*
X293378Y169945D01*
X293389Y169971D01*
X293404Y169997D01*
X293418Y170030D01*
X293433Y170071D01*
X293448Y170115D01*
X293466Y170163D01*
X293489Y170219D01*
X293511Y170278D01*
X293533Y170345D01*
Y170348D01*
X293537Y170356D01*
X293541Y170367D01*
X293548Y170382D01*
X293555Y170404D01*
X293566Y170430D01*
X293578Y170463D01*
X293592Y170496D01*
X292186Y174211D01*
X292856D01*
X293629Y172061D01*
Y172058D01*
X293637Y172043D01*
X293644Y172021D01*
X293655Y171991D01*
X293670Y171954D01*
X293685Y171910D01*
X293700Y171858D01*
X293722Y171802D01*
X293740Y171739D01*
X293762Y171673D01*
X293785Y171603D01*
X293807Y171529D01*
X293855Y171370D01*
X293899Y171203D01*
Y171207D01*
X293903Y171221D01*
X293911Y171244D01*
X293918Y171277D01*
X293929Y171314D01*
X293944Y171362D01*
X293959Y171414D01*
X293973Y171469D01*
X293992Y171532D01*
X294014Y171599D01*
X294058Y171739D01*
X294107Y171891D01*
X294162Y172047D01*
X294958Y174211D01*
X295583D01*
X294173Y170437D01*
D02*
G37*
G36*
X290251Y174289D02*
X290299Y174285D01*
X290351Y174281D01*
X290407Y174278D01*
X290529Y174263D01*
X290658Y174244D01*
X290784Y174215D01*
X290847Y174196D01*
X290902Y174178D01*
X290906D01*
X290917Y174174D01*
X290932Y174167D01*
X290950Y174159D01*
X290976Y174148D01*
X291002Y174133D01*
X291069Y174100D01*
X291139Y174059D01*
X291213Y174011D01*
X291280Y173960D01*
X291339Y173897D01*
Y173893D01*
X291346Y173889D01*
X291354Y173878D01*
X291361Y173867D01*
X291387Y173830D01*
X291417Y173778D01*
X291450Y173715D01*
X291480Y173645D01*
X291509Y173560D01*
X291535Y173467D01*
Y173460D01*
X291539Y173449D01*
Y173438D01*
X291543Y173419D01*
X291546Y173393D01*
X291550Y173368D01*
X291554Y173334D01*
Y173297D01*
X291557Y173257D01*
X291561Y173208D01*
X291565Y173157D01*
Y173097D01*
X291568Y173035D01*
Y172964D01*
Y172890D01*
Y172054D01*
Y172050D01*
Y172043D01*
Y172032D01*
Y172017D01*
Y171995D01*
Y171973D01*
Y171913D01*
Y171843D01*
X291572Y171765D01*
Y171677D01*
Y171588D01*
X291576Y171399D01*
X291580Y171307D01*
X291583Y171214D01*
X291587Y171133D01*
X291594Y171059D01*
X291598Y170996D01*
X291602Y170966D01*
X291605Y170944D01*
Y170940D01*
X291609Y170933D01*
Y170922D01*
X291613Y170903D01*
X291620Y170885D01*
X291624Y170859D01*
X291642Y170800D01*
X291665Y170733D01*
X291690Y170659D01*
X291727Y170581D01*
X291768Y170500D01*
X291113D01*
Y170504D01*
X291110Y170507D01*
X291102Y170519D01*
X291098Y170533D01*
X291087Y170552D01*
X291080Y170578D01*
X291058Y170630D01*
X291036Y170700D01*
X291013Y170777D01*
X290999Y170863D01*
X290984Y170959D01*
X290980Y170955D01*
X290969Y170944D01*
X290950Y170929D01*
X290925Y170911D01*
X290891Y170885D01*
X290854Y170859D01*
X290814Y170826D01*
X290769Y170792D01*
X290717Y170759D01*
X290666Y170726D01*
X290551Y170655D01*
X290433Y170589D01*
X290370Y170563D01*
X290310Y170537D01*
X290307D01*
X290296Y170533D01*
X290277Y170526D01*
X290255Y170519D01*
X290225Y170511D01*
X290188Y170500D01*
X290148Y170489D01*
X290103Y170478D01*
X290055Y170467D01*
X290000Y170456D01*
X289881Y170437D01*
X289755Y170422D01*
X289618Y170419D01*
X289593D01*
X289559Y170422D01*
X289519D01*
X289467Y170426D01*
X289408Y170433D01*
X289341Y170445D01*
X289271Y170456D01*
X289197Y170470D01*
X289123Y170493D01*
X289041Y170515D01*
X288964Y170544D01*
X288890Y170578D01*
X288812Y170618D01*
X288745Y170663D01*
X288679Y170715D01*
X288675Y170718D01*
X288664Y170729D01*
X288649Y170744D01*
X288627Y170770D01*
X288605Y170800D01*
X288575Y170833D01*
X288545Y170874D01*
X288516Y170922D01*
X288486Y170974D01*
X288457Y171033D01*
X288427Y171096D01*
X288405Y171162D01*
X288383Y171236D01*
X288368Y171310D01*
X288357Y171392D01*
X288353Y171477D01*
Y171481D01*
Y171488D01*
Y171503D01*
X288357Y171525D01*
Y171547D01*
X288361Y171577D01*
X288368Y171643D01*
X288383Y171717D01*
X288405Y171802D01*
X288435Y171888D01*
X288475Y171973D01*
Y171976D01*
X288483Y171984D01*
X288486Y171995D01*
X288497Y172010D01*
X288523Y172050D01*
X288560Y172102D01*
X288608Y172161D01*
X288664Y172221D01*
X288727Y172280D01*
X288797Y172335D01*
X288801D01*
X288808Y172343D01*
X288819Y172350D01*
X288834Y172357D01*
X288853Y172369D01*
X288875Y172383D01*
X288930Y172413D01*
X288997Y172446D01*
X289075Y172479D01*
X289160Y172513D01*
X289252Y172542D01*
X289256D01*
X289260Y172546D01*
X289271D01*
X289285Y172550D01*
X289308Y172554D01*
X289330Y172561D01*
X289359Y172565D01*
X289393Y172572D01*
X289430Y172579D01*
X289471Y172587D01*
X289515Y172594D01*
X289567Y172602D01*
X289622Y172609D01*
X289681Y172620D01*
X289744Y172627D01*
X289811Y172635D01*
X289818D01*
X289829Y172639D01*
X289844D01*
X289885Y172646D01*
X289937Y172650D01*
X290000Y172661D01*
X290070Y172672D01*
X290151Y172683D01*
X290236Y172698D01*
X290325Y172713D01*
X290418Y172727D01*
X290603Y172764D01*
X290695Y172787D01*
X290780Y172809D01*
X290858Y172831D01*
X290932Y172853D01*
Y172861D01*
Y172875D01*
Y172894D01*
X290936Y172920D01*
Y172975D01*
Y172997D01*
Y173016D01*
Y173020D01*
Y173035D01*
Y173053D01*
X290932Y173079D01*
Y173108D01*
X290925Y173145D01*
X290914Y173227D01*
X290891Y173316D01*
X290858Y173408D01*
X290840Y173449D01*
X290814Y173490D01*
X290788Y173523D01*
X290754Y173556D01*
X290751Y173560D01*
X290743Y173567D01*
X290728Y173575D01*
X290710Y173590D01*
X290684Y173604D01*
X290654Y173623D01*
X290617Y173645D01*
X290577Y173663D01*
X290529Y173682D01*
X290473Y173704D01*
X290418Y173723D01*
X290351Y173738D01*
X290281Y173752D01*
X290207Y173763D01*
X290125Y173767D01*
X290040Y173771D01*
X290000D01*
X289966Y173767D01*
X289929D01*
X289889Y173763D01*
X289841Y173756D01*
X289792Y173752D01*
X289685Y173734D01*
X289578Y173704D01*
X289474Y173663D01*
X289426Y173641D01*
X289385Y173612D01*
X289382D01*
X289378Y173604D01*
X289367Y173593D01*
X289352Y173582D01*
X289334Y173564D01*
X289315Y173541D01*
X289293Y173515D01*
X289267Y173486D01*
X289241Y173449D01*
X289215Y173408D01*
X289189Y173364D01*
X289167Y173316D01*
X289141Y173260D01*
X289115Y173201D01*
X289093Y173134D01*
X289075Y173064D01*
X288460Y173149D01*
Y173153D01*
X288464Y173168D01*
X288468Y173186D01*
X288475Y173216D01*
X288486Y173249D01*
X288497Y173286D01*
X288509Y173330D01*
X288527Y173375D01*
X288564Y173478D01*
X288612Y173582D01*
X288668Y173689D01*
X288734Y173786D01*
X288738Y173789D01*
X288742Y173797D01*
X288753Y173808D01*
X288771Y173826D01*
X288790Y173845D01*
X288816Y173871D01*
X288842Y173897D01*
X288875Y173923D01*
X288912Y173952D01*
X288956Y173985D01*
X289001Y174015D01*
X289049Y174045D01*
X289104Y174078D01*
X289160Y174108D01*
X289223Y174133D01*
X289289Y174159D01*
X289293D01*
X289304Y174167D01*
X289326Y174170D01*
X289352Y174181D01*
X289389Y174189D01*
X289430Y174200D01*
X289478Y174215D01*
X289530Y174226D01*
X289589Y174237D01*
X289655Y174252D01*
X289726Y174263D01*
X289800Y174270D01*
X289878Y174281D01*
X289959Y174285D01*
X290133Y174293D01*
X290211D01*
X290251Y174289D01*
D02*
G37*
G36*
X285319Y171103D02*
X287839D01*
Y170500D01*
X284642D01*
Y175621D01*
X285319D01*
Y171103D01*
D02*
G37*
G36*
X262013Y175617D02*
X262065D01*
X262120Y175613D01*
X262187Y175606D01*
X262253Y175602D01*
X262327Y175591D01*
X262405Y175584D01*
X262560Y175554D01*
X262716Y175514D01*
X262790Y175491D01*
X262856Y175462D01*
X262860D01*
X262871Y175454D01*
X262890Y175447D01*
X262916Y175432D01*
X262945Y175417D01*
X262979Y175395D01*
X263019Y175373D01*
X263060Y175343D01*
X263104Y175314D01*
X263149Y175277D01*
X263193Y175240D01*
X263241Y175195D01*
X263286Y175147D01*
X263330Y175099D01*
X263371Y175044D01*
X263411Y174984D01*
X263415Y174981D01*
X263419Y174970D01*
X263430Y174951D01*
X263445Y174929D01*
X263459Y174899D01*
X263474Y174862D01*
X263493Y174825D01*
X263515Y174781D01*
X263533Y174729D01*
X263552Y174677D01*
X263582Y174563D01*
X263608Y174437D01*
X263611Y174374D01*
X263615Y174307D01*
Y174304D01*
Y174293D01*
Y174274D01*
X263611Y174252D01*
Y174222D01*
X263604Y174189D01*
X263600Y174148D01*
X263593Y174108D01*
X263570Y174011D01*
X263537Y173908D01*
X263519Y173852D01*
X263493Y173800D01*
X263467Y173745D01*
X263434Y173689D01*
X263430Y173686D01*
X263426Y173678D01*
X263415Y173663D01*
X263400Y173641D01*
X263382Y173615D01*
X263360Y173590D01*
X263330Y173556D01*
X263300Y173523D01*
X263263Y173486D01*
X263226Y173449D01*
X263182Y173412D01*
X263134Y173371D01*
X263078Y173330D01*
X263023Y173293D01*
X262964Y173257D01*
X262897Y173223D01*
X262901D01*
X262919Y173216D01*
X262942Y173208D01*
X262975Y173197D01*
X263012Y173182D01*
X263056Y173164D01*
X263108Y173142D01*
X263160Y173112D01*
X263219Y173083D01*
X263278Y173049D01*
X263337Y173012D01*
X263397Y172968D01*
X263452Y172924D01*
X263511Y172872D01*
X263563Y172816D01*
X263611Y172757D01*
X263615Y172753D01*
X263622Y172742D01*
X263633Y172724D01*
X263652Y172698D01*
X263670Y172668D01*
X263693Y172631D01*
X263715Y172587D01*
X263737Y172539D01*
X263759Y172483D01*
X263785Y172424D01*
X263804Y172361D01*
X263822Y172291D01*
X263841Y172221D01*
X263852Y172143D01*
X263859Y172065D01*
X263863Y171984D01*
Y171980D01*
Y171969D01*
Y171947D01*
X263859Y171921D01*
Y171891D01*
X263855Y171854D01*
X263852Y171810D01*
X263844Y171765D01*
X263826Y171662D01*
X263796Y171547D01*
X263759Y171429D01*
X263707Y171310D01*
Y171307D01*
X263700Y171295D01*
X263693Y171281D01*
X263682Y171258D01*
X263667Y171233D01*
X263648Y171203D01*
X263604Y171136D01*
X263548Y171059D01*
X263485Y170981D01*
X263415Y170903D01*
X263334Y170837D01*
X263330D01*
X263323Y170829D01*
X263312Y170822D01*
X263293Y170811D01*
X263271Y170796D01*
X263245Y170781D01*
X263215Y170763D01*
X263182Y170744D01*
X263141Y170722D01*
X263101Y170703D01*
X263004Y170659D01*
X262897Y170622D01*
X262775Y170585D01*
X262771D01*
X262760Y170581D01*
X262742Y170578D01*
X262716Y170570D01*
X262683Y170567D01*
X262642Y170559D01*
X262597Y170552D01*
X262546Y170544D01*
X262490Y170533D01*
X262427Y170526D01*
X262357Y170519D01*
X262287Y170515D01*
X262209Y170507D01*
X262127Y170504D01*
X262039Y170500D01*
X260000D01*
Y175621D01*
X261972D01*
X262013Y175617D01*
D02*
G37*
G36*
X271426Y174211D02*
X272051D01*
Y173723D01*
X271426D01*
Y171551D01*
Y171547D01*
Y171540D01*
Y171525D01*
Y171506D01*
Y171462D01*
X271429Y171406D01*
X271433Y171351D01*
X271437Y171292D01*
X271444Y171244D01*
X271451Y171225D01*
X271455Y171207D01*
Y171203D01*
X271463Y171196D01*
X271470Y171181D01*
X271481Y171162D01*
X271514Y171122D01*
X271537Y171103D01*
X271563Y171085D01*
X271566D01*
X271577Y171077D01*
X271592Y171070D01*
X271618Y171062D01*
X271648Y171055D01*
X271685Y171048D01*
X271729Y171044D01*
X271777Y171040D01*
X271818D01*
X271851Y171044D01*
X271888D01*
X271936Y171051D01*
X271992Y171055D01*
X272051Y171062D01*
X272143Y170507D01*
X272140D01*
X272132Y170504D01*
X272117D01*
X272099Y170500D01*
X272077Y170496D01*
X272047Y170489D01*
X271984Y170482D01*
X271910Y170470D01*
X271829Y170459D01*
X271747Y170456D01*
X271666Y170452D01*
X271611D01*
X271581Y170456D01*
X271548Y170459D01*
X271474Y170467D01*
X271389Y170478D01*
X271300Y170496D01*
X271215Y170522D01*
X271137Y170559D01*
X271133D01*
X271130Y170563D01*
X271107Y170578D01*
X271074Y170604D01*
X271033Y170633D01*
X270989Y170674D01*
X270945Y170722D01*
X270904Y170777D01*
X270871Y170840D01*
Y170844D01*
X270867Y170848D01*
X270863Y170859D01*
X270860Y170877D01*
X270852Y170900D01*
X270848Y170925D01*
X270841Y170959D01*
X270834Y171000D01*
X270826Y171048D01*
X270819Y171099D01*
X270815Y171162D01*
X270808Y171229D01*
X270804Y171307D01*
X270800Y171388D01*
X270797Y171484D01*
Y171584D01*
Y173723D01*
X270330D01*
Y174211D01*
X270797D01*
Y175129D01*
X271426Y175506D01*
Y174211D01*
D02*
G37*
G36*
X269439D02*
X270064D01*
Y173723D01*
X269439D01*
Y171551D01*
Y171547D01*
Y171540D01*
Y171525D01*
Y171506D01*
Y171462D01*
X269442Y171406D01*
X269446Y171351D01*
X269450Y171292D01*
X269457Y171244D01*
X269465Y171225D01*
X269468Y171207D01*
Y171203D01*
X269476Y171196D01*
X269483Y171181D01*
X269494Y171162D01*
X269528Y171122D01*
X269550Y171103D01*
X269576Y171085D01*
X269579D01*
X269590Y171077D01*
X269605Y171070D01*
X269631Y171062D01*
X269661Y171055D01*
X269698Y171048D01*
X269742Y171044D01*
X269790Y171040D01*
X269831D01*
X269864Y171044D01*
X269901D01*
X269949Y171051D01*
X270005Y171055D01*
X270064Y171062D01*
X270157Y170507D01*
X270153D01*
X270145Y170504D01*
X270131D01*
X270112Y170500D01*
X270090Y170496D01*
X270060Y170489D01*
X269997Y170482D01*
X269923Y170470D01*
X269842Y170459D01*
X269761Y170456D01*
X269679Y170452D01*
X269624D01*
X269594Y170456D01*
X269561Y170459D01*
X269487Y170467D01*
X269402Y170478D01*
X269313Y170496D01*
X269228Y170522D01*
X269150Y170559D01*
X269146D01*
X269143Y170563D01*
X269121Y170578D01*
X269087Y170604D01*
X269046Y170633D01*
X269002Y170674D01*
X268958Y170722D01*
X268917Y170777D01*
X268884Y170840D01*
Y170844D01*
X268880Y170848D01*
X268876Y170859D01*
X268873Y170877D01*
X268865Y170900D01*
X268862Y170925D01*
X268854Y170959D01*
X268847Y171000D01*
X268839Y171048D01*
X268832Y171099D01*
X268828Y171162D01*
X268821Y171229D01*
X268817Y171307D01*
X268813Y171388D01*
X268810Y171484D01*
Y171584D01*
Y173723D01*
X268343D01*
Y174211D01*
X268810D01*
Y175129D01*
X269439Y175506D01*
Y174211D01*
D02*
G37*
G36*
X297714Y174289D02*
X297766Y174285D01*
X297832Y174278D01*
X297903Y174267D01*
X297984Y174252D01*
X298073Y174230D01*
X298169Y174204D01*
X298265Y174170D01*
X298369Y174130D01*
X298469Y174078D01*
X298572Y174022D01*
X298669Y173952D01*
X298765Y173874D01*
X298857Y173786D01*
X298861Y173778D01*
X298880Y173763D01*
X298902Y173734D01*
X298931Y173693D01*
X298968Y173641D01*
X299009Y173578D01*
X299050Y173504D01*
X299094Y173419D01*
X299139Y173323D01*
X299183Y173216D01*
X299220Y173097D01*
X299257Y172972D01*
X299287Y172835D01*
X299312Y172687D01*
X299327Y172528D01*
X299331Y172361D01*
Y172357D01*
Y172350D01*
Y172339D01*
Y172320D01*
Y172294D01*
Y172269D01*
X299327Y172235D01*
Y172195D01*
X296560D01*
Y172187D01*
X296563Y172169D01*
Y172135D01*
X296571Y172095D01*
X296578Y172043D01*
X296586Y171984D01*
X296600Y171921D01*
X296615Y171851D01*
X296634Y171773D01*
X296660Y171699D01*
X296686Y171621D01*
X296719Y171543D01*
X296756Y171466D01*
X296800Y171392D01*
X296848Y171321D01*
X296904Y171258D01*
X296907Y171255D01*
X296919Y171244D01*
X296937Y171229D01*
X296959Y171207D01*
X296989Y171185D01*
X297026Y171159D01*
X297070Y171129D01*
X297118Y171099D01*
X297170Y171066D01*
X297229Y171040D01*
X297292Y171011D01*
X297363Y170988D01*
X297437Y170966D01*
X297514Y170951D01*
X297596Y170940D01*
X297681Y170937D01*
X297714D01*
X297740Y170940D01*
X297770Y170944D01*
X297803Y170948D01*
X297844Y170951D01*
X297884Y170959D01*
X297977Y170981D01*
X298077Y171014D01*
X298129Y171033D01*
X298177Y171059D01*
X298225Y171085D01*
X298273Y171118D01*
X298276Y171122D01*
X298284Y171125D01*
X298295Y171136D01*
X298313Y171151D01*
X298336Y171173D01*
X298358Y171196D01*
X298384Y171225D01*
X298413Y171258D01*
X298443Y171299D01*
X298476Y171340D01*
X298506Y171388D01*
X298539Y171440D01*
X298572Y171499D01*
X298602Y171562D01*
X298632Y171628D01*
X298661Y171703D01*
X299309Y171617D01*
Y171610D01*
X299301Y171591D01*
X299290Y171562D01*
X299279Y171525D01*
X299261Y171477D01*
X299238Y171421D01*
X299213Y171358D01*
X299179Y171292D01*
X299142Y171225D01*
X299102Y171151D01*
X299054Y171077D01*
X299002Y171003D01*
X298946Y170933D01*
X298883Y170863D01*
X298813Y170796D01*
X298739Y170733D01*
X298735Y170729D01*
X298721Y170718D01*
X298698Y170703D01*
X298665Y170685D01*
X298624Y170659D01*
X298572Y170633D01*
X298517Y170604D01*
X298450Y170578D01*
X298376Y170548D01*
X298299Y170519D01*
X298210Y170493D01*
X298117Y170467D01*
X298018Y170448D01*
X297910Y170433D01*
X297796Y170422D01*
X297677Y170419D01*
X297640D01*
X297622Y170422D01*
X297599D01*
X297544Y170426D01*
X297474Y170433D01*
X297396Y170445D01*
X297307Y170459D01*
X297211Y170482D01*
X297111Y170507D01*
X297004Y170541D01*
X296896Y170581D01*
X296789Y170630D01*
X296682Y170685D01*
X296578Y170752D01*
X296478Y170829D01*
X296386Y170918D01*
X296382Y170925D01*
X296367Y170940D01*
X296341Y170970D01*
X296312Y171011D01*
X296275Y171062D01*
X296238Y171125D01*
X296193Y171196D01*
X296149Y171281D01*
X296105Y171377D01*
X296064Y171481D01*
X296023Y171595D01*
X295986Y171721D01*
X295957Y171858D01*
X295934Y172002D01*
X295916Y172158D01*
X295912Y172324D01*
Y172328D01*
Y172335D01*
Y172346D01*
Y172365D01*
X295916Y172387D01*
Y172413D01*
Y172442D01*
X295920Y172479D01*
X295927Y172557D01*
X295938Y172646D01*
X295953Y172746D01*
X295971Y172857D01*
X295997Y172968D01*
X296031Y173086D01*
X296068Y173208D01*
X296116Y173330D01*
X296171Y173449D01*
X296234Y173564D01*
X296308Y173675D01*
X296393Y173775D01*
X296401Y173782D01*
X296415Y173797D01*
X296441Y173823D01*
X296482Y173856D01*
X296530Y173897D01*
X296586Y173937D01*
X296652Y173985D01*
X296730Y174033D01*
X296815Y174082D01*
X296911Y174130D01*
X297011Y174174D01*
X297122Y174211D01*
X297244Y174244D01*
X297370Y174270D01*
X297503Y174285D01*
X297644Y174293D01*
X297677D01*
X297714Y174289D01*
D02*
G37*
G36*
X274241Y174289D02*
X274293Y174285D01*
X274360Y174278D01*
X274434Y174267D01*
X274519Y174252D01*
X274611Y174230D01*
X274708Y174204D01*
X274811Y174170D01*
X274915Y174130D01*
X275018Y174082D01*
X275122Y174022D01*
X275225Y173956D01*
X275325Y173878D01*
X275418Y173789D01*
X275425Y173782D01*
X275440Y173767D01*
X275462Y173738D01*
X275496Y173697D01*
X275533Y173645D01*
X275573Y173586D01*
X275618Y173512D01*
X275662Y173430D01*
X275707Y173334D01*
X275751Y173231D01*
X275792Y173120D01*
X275829Y172994D01*
X275862Y172861D01*
X275884Y172720D01*
X275903Y172568D01*
X275906Y172406D01*
Y172402D01*
Y172398D01*
Y172387D01*
Y172376D01*
Y172335D01*
X275903Y172287D01*
X275899Y172228D01*
X275895Y172158D01*
X275888Y172080D01*
X275880Y171999D01*
X275869Y171910D01*
X275854Y171817D01*
X275836Y171725D01*
X275814Y171628D01*
X275788Y171536D01*
X275762Y171447D01*
X275725Y171362D01*
X275688Y171281D01*
X275684Y171277D01*
X275677Y171262D01*
X275666Y171240D01*
X275647Y171214D01*
X275625Y171177D01*
X275599Y171140D01*
X275566Y171096D01*
X275529Y171048D01*
X275488Y170996D01*
X275440Y170944D01*
X275388Y170892D01*
X275333Y170840D01*
X275274Y170789D01*
X275207Y170737D01*
X275137Y170689D01*
X275063Y170644D01*
X275059Y170641D01*
X275044Y170633D01*
X275022Y170622D01*
X274992Y170611D01*
X274952Y170592D01*
X274907Y170574D01*
X274855Y170552D01*
X274800Y170533D01*
X274733Y170511D01*
X274667Y170489D01*
X274593Y170470D01*
X274515Y170456D01*
X274430Y170441D01*
X274345Y170430D01*
X274260Y170422D01*
X274167Y170419D01*
X274134D01*
X274115Y170422D01*
X274093D01*
X274038Y170426D01*
X273971Y170433D01*
X273897Y170445D01*
X273812Y170459D01*
X273720Y170482D01*
X273620Y170507D01*
X273520Y170541D01*
X273412Y170581D01*
X273309Y170630D01*
X273205Y170685D01*
X273102Y170752D01*
X273002Y170826D01*
X272909Y170914D01*
X272906Y170922D01*
X272887Y170937D01*
X272865Y170966D01*
X272835Y171007D01*
X272798Y171059D01*
X272758Y171122D01*
X272717Y171196D01*
X272673Y171281D01*
X272628Y171377D01*
X272584Y171484D01*
X272543Y171603D01*
X272506Y171732D01*
X272476Y171873D01*
X272454Y172021D01*
X272436Y172184D01*
X272432Y172354D01*
Y172357D01*
Y172365D01*
Y172380D01*
Y172398D01*
X272436Y172424D01*
Y172454D01*
X272439Y172487D01*
Y172524D01*
X272443Y172565D01*
X272450Y172609D01*
X272462Y172705D01*
X272480Y172812D01*
X272502Y172931D01*
X272532Y173053D01*
X272573Y173179D01*
X272617Y173305D01*
X272673Y173430D01*
X272739Y173553D01*
X272813Y173671D01*
X272902Y173778D01*
X273002Y173878D01*
X273009Y173882D01*
X273024Y173897D01*
X273050Y173915D01*
X273087Y173945D01*
X273135Y173974D01*
X273190Y174008D01*
X273253Y174048D01*
X273327Y174085D01*
X273409Y174122D01*
X273498Y174163D01*
X273594Y174196D01*
X273697Y174230D01*
X273805Y174256D01*
X273919Y174274D01*
X274042Y174289D01*
X274167Y174293D01*
X274219D01*
X274241Y174289D01*
D02*
G37*
G36*
X266290D02*
X266342Y174285D01*
X266408Y174278D01*
X266482Y174267D01*
X266567Y174252D01*
X266660Y174230D01*
X266756Y174204D01*
X266860Y174170D01*
X266963Y174130D01*
X267067Y174082D01*
X267171Y174022D01*
X267274Y173956D01*
X267374Y173878D01*
X267467Y173789D01*
X267474Y173782D01*
X267489Y173767D01*
X267511Y173738D01*
X267544Y173697D01*
X267581Y173645D01*
X267622Y173586D01*
X267666Y173512D01*
X267711Y173430D01*
X267755Y173334D01*
X267800Y173231D01*
X267840Y173120D01*
X267877Y172994D01*
X267911Y172861D01*
X267933Y172720D01*
X267951Y172568D01*
X267955Y172406D01*
Y172402D01*
Y172398D01*
Y172387D01*
Y172376D01*
Y172335D01*
X267951Y172287D01*
X267948Y172228D01*
X267944Y172158D01*
X267936Y172080D01*
X267929Y171999D01*
X267918Y171910D01*
X267903Y171817D01*
X267885Y171725D01*
X267863Y171628D01*
X267837Y171536D01*
X267811Y171447D01*
X267774Y171362D01*
X267737Y171281D01*
X267733Y171277D01*
X267726Y171262D01*
X267715Y171240D01*
X267696Y171214D01*
X267674Y171177D01*
X267648Y171140D01*
X267615Y171096D01*
X267578Y171048D01*
X267537Y170996D01*
X267489Y170944D01*
X267437Y170892D01*
X267382Y170840D01*
X267322Y170789D01*
X267256Y170737D01*
X267185Y170689D01*
X267111Y170644D01*
X267108Y170641D01*
X267093Y170633D01*
X267071Y170622D01*
X267041Y170611D01*
X267000Y170592D01*
X266956Y170574D01*
X266904Y170552D01*
X266849Y170533D01*
X266782Y170511D01*
X266716Y170489D01*
X266641Y170470D01*
X266564Y170456D01*
X266479Y170441D01*
X266394Y170430D01*
X266308Y170422D01*
X266216Y170419D01*
X266183D01*
X266164Y170422D01*
X266142D01*
X266087Y170426D01*
X266020Y170433D01*
X265946Y170445D01*
X265861Y170459D01*
X265768Y170482D01*
X265668Y170507D01*
X265568Y170541D01*
X265461Y170581D01*
X265358Y170630D01*
X265254Y170685D01*
X265150Y170752D01*
X265051Y170826D01*
X264958Y170914D01*
X264954Y170922D01*
X264936Y170937D01*
X264914Y170966D01*
X264884Y171007D01*
X264847Y171059D01*
X264806Y171122D01*
X264766Y171196D01*
X264721Y171281D01*
X264677Y171377D01*
X264632Y171484D01*
X264592Y171603D01*
X264555Y171732D01*
X264525Y171873D01*
X264503Y172021D01*
X264484Y172184D01*
X264481Y172354D01*
Y172357D01*
Y172365D01*
Y172380D01*
Y172398D01*
X264484Y172424D01*
Y172454D01*
X264488Y172487D01*
Y172524D01*
X264492Y172565D01*
X264499Y172609D01*
X264510Y172705D01*
X264529Y172812D01*
X264551Y172931D01*
X264581Y173053D01*
X264621Y173179D01*
X264666Y173305D01*
X264721Y173430D01*
X264788Y173553D01*
X264862Y173671D01*
X264951Y173778D01*
X265051Y173878D01*
X265058Y173882D01*
X265073Y173897D01*
X265099Y173915D01*
X265136Y173945D01*
X265184Y173974D01*
X265239Y174008D01*
X265302Y174048D01*
X265376Y174085D01*
X265458Y174122D01*
X265546Y174163D01*
X265642Y174196D01*
X265746Y174230D01*
X265853Y174256D01*
X265968Y174274D01*
X266090Y174289D01*
X266216Y174293D01*
X266268D01*
X266290Y174289D01*
D02*
G37*
%LPC*%
G36*
X279500Y459145D02*
X278391Y458999D01*
X277357Y458571D01*
X276469Y457889D01*
X275788Y457002D01*
X275359Y455968D01*
X275213Y454858D01*
X275359Y453749D01*
X275788Y452715D01*
X276469Y451827D01*
X277357Y451146D01*
X278391Y450718D01*
X279500Y450572D01*
X280609Y450718D01*
X281643Y451146D01*
X282531Y451827D01*
X283212Y452715D01*
X283641Y453749D01*
X283787Y454858D01*
X283641Y455968D01*
X283212Y457002D01*
X282531Y457889D01*
X281643Y458571D01*
X280609Y458999D01*
X279500Y459145D01*
D02*
G37*
G36*
X259500D02*
X258390Y458999D01*
X257357Y458571D01*
X256469Y457889D01*
X255788Y457002D01*
X255359Y455968D01*
X255213Y454858D01*
X255359Y453749D01*
X255788Y452715D01*
X256469Y451827D01*
X257357Y451146D01*
X258390Y450718D01*
X259500Y450572D01*
X260610Y450718D01*
X261643Y451146D01*
X262531Y451827D01*
X263212Y452715D01*
X263641Y453749D01*
X263787Y454858D01*
X263641Y455968D01*
X263212Y457002D01*
X262531Y457889D01*
X261643Y458571D01*
X260610Y458999D01*
X259500Y459145D01*
D02*
G37*
G36*
X269500Y453672D02*
X268390Y453526D01*
X267357Y453098D01*
X266469Y452417D01*
X265788Y451529D01*
X265359Y450495D01*
X265213Y449386D01*
X265359Y448276D01*
X265788Y447242D01*
X266469Y446355D01*
X267357Y445673D01*
X268390Y445245D01*
X269500Y445099D01*
X270609Y445245D01*
X271643Y445673D01*
X272531Y446355D01*
X273212Y447242D01*
X273641Y448276D01*
X273787Y449386D01*
X273641Y450495D01*
X273212Y451529D01*
X272531Y452417D01*
X271643Y453098D01*
X270609Y453526D01*
X269500Y453672D01*
D02*
G37*
G36*
X279500Y448279D02*
X278391Y448133D01*
X277357Y447705D01*
X276469Y447023D01*
X275788Y446135D01*
X275359Y445102D01*
X275213Y443992D01*
X275359Y442883D01*
X275788Y441849D01*
X276469Y440961D01*
X277357Y440280D01*
X278391Y439852D01*
X279500Y439705D01*
X280609Y439852D01*
X281643Y440280D01*
X282531Y440961D01*
X283212Y441849D01*
X283641Y442883D01*
X283787Y443992D01*
X283641Y445102D01*
X283212Y446135D01*
X282531Y447023D01*
X281643Y447705D01*
X280609Y448133D01*
X279500Y448279D01*
D02*
G37*
G36*
X259500D02*
X258390Y448133D01*
X257357Y447705D01*
X256469Y447023D01*
X255788Y446135D01*
X255359Y445102D01*
X255213Y443992D01*
X255359Y442883D01*
X255788Y441849D01*
X256469Y440961D01*
X257357Y440280D01*
X258390Y439852D01*
X259500Y439705D01*
X260610Y439852D01*
X261643Y440280D01*
X262531Y440961D01*
X263212Y441849D01*
X263641Y442883D01*
X263787Y443992D01*
X263641Y445102D01*
X263212Y446135D01*
X262531Y447023D01*
X261643Y447705D01*
X260610Y448133D01*
X259500Y448279D01*
D02*
G37*
G36*
X269500Y442809D02*
X268390Y442663D01*
X267357Y442235D01*
X266469Y441553D01*
X265788Y440665D01*
X265359Y439632D01*
X265213Y438522D01*
X265359Y437413D01*
X265788Y436379D01*
X266469Y435491D01*
X267357Y434810D01*
X268390Y434382D01*
X269500Y434235D01*
X270609Y434382D01*
X271643Y434810D01*
X272531Y435491D01*
X273212Y436379D01*
X273641Y437413D01*
X273787Y438522D01*
X273641Y439632D01*
X273212Y440665D01*
X272531Y441553D01*
X271643Y442235D01*
X270609Y442663D01*
X269500Y442809D01*
D02*
G37*
G36*
X279500Y415680D02*
X278391Y415534D01*
X277357Y415106D01*
X276469Y414425D01*
X275788Y413537D01*
X275359Y412503D01*
X275213Y411394D01*
X275359Y410284D01*
X275788Y409250D01*
X276469Y408363D01*
X277357Y407681D01*
X278391Y407253D01*
X279500Y407107D01*
X280609Y407253D01*
X281643Y407681D01*
X282531Y408363D01*
X283212Y409250D01*
X283641Y410284D01*
X283787Y411394D01*
X283641Y412503D01*
X283212Y413537D01*
X282531Y414425D01*
X281643Y415106D01*
X280609Y415534D01*
X279500Y415680D01*
D02*
G37*
G36*
X259500D02*
X258390Y415534D01*
X257357Y415106D01*
X256469Y414425D01*
X255788Y413537D01*
X255359Y412503D01*
X255213Y411394D01*
X255359Y410284D01*
X255788Y409250D01*
X256469Y408363D01*
X257357Y407681D01*
X258390Y407253D01*
X259500Y407107D01*
X260610Y407253D01*
X261643Y407681D01*
X262531Y408363D01*
X263212Y409250D01*
X263641Y410284D01*
X263787Y411394D01*
X263641Y412503D01*
X263212Y413537D01*
X262531Y414425D01*
X261643Y415106D01*
X260610Y415534D01*
X259500Y415680D01*
D02*
G37*
G36*
X269500Y410218D02*
X268390Y410072D01*
X267357Y409644D01*
X266469Y408963D01*
X265788Y408075D01*
X265359Y407041D01*
X265213Y405932D01*
X265359Y404822D01*
X265788Y403788D01*
X266469Y402901D01*
X267357Y402219D01*
X268390Y401791D01*
X269500Y401645D01*
X270609Y401791D01*
X271643Y402219D01*
X272531Y402901D01*
X273212Y403788D01*
X273641Y404822D01*
X273787Y405932D01*
X273641Y407041D01*
X273212Y408075D01*
X272531Y408963D01*
X271643Y409644D01*
X270609Y410072D01*
X269500Y410218D01*
D02*
G37*
G36*
X279500Y404814D02*
X278391Y404668D01*
X277357Y404240D01*
X276469Y403559D01*
X275788Y402671D01*
X275359Y401637D01*
X275213Y400527D01*
X275359Y399418D01*
X275788Y398384D01*
X276469Y397496D01*
X277357Y396815D01*
X278391Y396387D01*
X279500Y396241D01*
X280609Y396387D01*
X281643Y396815D01*
X282531Y397496D01*
X283212Y398384D01*
X283641Y399418D01*
X283787Y400527D01*
X283641Y401637D01*
X283212Y402671D01*
X282531Y403559D01*
X281643Y404240D01*
X280609Y404668D01*
X279500Y404814D01*
D02*
G37*
G36*
X259500D02*
X258390Y404668D01*
X257357Y404240D01*
X256469Y403559D01*
X255788Y402671D01*
X255359Y401637D01*
X255213Y400527D01*
X255359Y399418D01*
X255788Y398384D01*
X256469Y397496D01*
X257357Y396815D01*
X258390Y396387D01*
X259500Y396241D01*
X260610Y396387D01*
X261643Y396815D01*
X262531Y397496D01*
X263212Y398384D01*
X263641Y399418D01*
X263787Y400527D01*
X263641Y401637D01*
X263212Y402671D01*
X262531Y403559D01*
X261643Y404240D01*
X260610Y404668D01*
X259500Y404814D01*
D02*
G37*
G36*
X269500Y399355D02*
X268390Y399209D01*
X267357Y398780D01*
X266469Y398099D01*
X265788Y397212D01*
X265359Y396178D01*
X265213Y395068D01*
X265359Y393959D01*
X265788Y392925D01*
X266469Y392037D01*
X267357Y391356D01*
X268390Y390928D01*
X269500Y390781D01*
X270609Y390928D01*
X271643Y391356D01*
X272531Y392037D01*
X273212Y392925D01*
X273641Y393959D01*
X273787Y395068D01*
X273641Y396178D01*
X273212Y397212D01*
X272531Y398099D01*
X271643Y398780D01*
X270609Y399209D01*
X269500Y399355D01*
D02*
G37*
G36*
X279500Y393948D02*
X278391Y393802D01*
X277357Y393374D01*
X276469Y392692D01*
X275788Y391805D01*
X275359Y390771D01*
X275213Y389661D01*
X275359Y388552D01*
X275788Y387518D01*
X276469Y386630D01*
X277357Y385949D01*
X278391Y385521D01*
X279500Y385375D01*
X280609Y385521D01*
X281643Y385949D01*
X282531Y386630D01*
X283212Y387518D01*
X283641Y388552D01*
X283787Y389661D01*
X283641Y390771D01*
X283212Y391805D01*
X282531Y392692D01*
X281643Y393374D01*
X280609Y393802D01*
X279500Y393948D01*
D02*
G37*
G36*
X259500D02*
X258390Y393802D01*
X257357Y393374D01*
X256469Y392692D01*
X255788Y391805D01*
X255359Y390771D01*
X255213Y389661D01*
X255359Y388552D01*
X255788Y387518D01*
X256469Y386630D01*
X257357Y385949D01*
X258390Y385521D01*
X259500Y385375D01*
X260610Y385521D01*
X261643Y385949D01*
X262531Y386630D01*
X263212Y387518D01*
X263641Y388552D01*
X263787Y389661D01*
X263641Y390771D01*
X263212Y391805D01*
X262531Y392692D01*
X261643Y393374D01*
X260610Y393802D01*
X259500Y393948D01*
D02*
G37*
G36*
X269500Y388491D02*
X268390Y388345D01*
X267357Y387917D01*
X266469Y387236D01*
X265788Y386348D01*
X265359Y385314D01*
X265213Y384205D01*
X265359Y383095D01*
X265788Y382061D01*
X266469Y381173D01*
X267357Y380492D01*
X268390Y380064D01*
X269500Y379918D01*
X270609Y380064D01*
X271643Y380492D01*
X272531Y381173D01*
X273212Y382061D01*
X273641Y383095D01*
X273787Y384205D01*
X273641Y385314D01*
X273212Y386348D01*
X272531Y387236D01*
X271643Y387917D01*
X270609Y388345D01*
X269500Y388491D01*
D02*
G37*
G36*
X279500Y383082D02*
X278391Y382936D01*
X277357Y382508D01*
X276469Y381826D01*
X275788Y380939D01*
X275359Y379905D01*
X275213Y378795D01*
X275359Y377686D01*
X275788Y376652D01*
X276469Y375764D01*
X277357Y375083D01*
X278391Y374655D01*
X279500Y374509D01*
X280609Y374655D01*
X281643Y375083D01*
X282531Y375764D01*
X283212Y376652D01*
X283641Y377686D01*
X283787Y378795D01*
X283641Y379905D01*
X283212Y380939D01*
X282531Y381826D01*
X281643Y382508D01*
X280609Y382936D01*
X279500Y383082D01*
D02*
G37*
G36*
X259500D02*
X258390Y382936D01*
X257357Y382508D01*
X256469Y381826D01*
X255788Y380939D01*
X255359Y379905D01*
X255213Y378795D01*
X255359Y377686D01*
X255788Y376652D01*
X256469Y375764D01*
X257357Y375083D01*
X258390Y374655D01*
X259500Y374509D01*
X260610Y374655D01*
X261643Y375083D01*
X262531Y375764D01*
X263212Y376652D01*
X263641Y377686D01*
X263787Y378795D01*
X263641Y379905D01*
X263212Y380939D01*
X262531Y381826D01*
X261643Y382508D01*
X260610Y382936D01*
X259500Y383082D01*
D02*
G37*
G36*
X269500Y377628D02*
X268390Y377482D01*
X267357Y377053D01*
X266469Y376372D01*
X265788Y375484D01*
X265359Y374451D01*
X265213Y373341D01*
X265359Y372232D01*
X265788Y371198D01*
X266469Y370310D01*
X267357Y369629D01*
X268390Y369200D01*
X269500Y369055D01*
X270609Y369200D01*
X271643Y369629D01*
X272531Y370310D01*
X273212Y371198D01*
X273641Y372232D01*
X273787Y373341D01*
X273641Y374451D01*
X273212Y375484D01*
X272531Y376372D01*
X271643Y377053D01*
X270609Y377482D01*
X269500Y377628D01*
D02*
G37*
G36*
X279500Y372216D02*
X278391Y372070D01*
X277357Y371641D01*
X276469Y370960D01*
X275788Y370073D01*
X275359Y369039D01*
X275213Y367929D01*
X275359Y366820D01*
X275788Y365786D01*
X276469Y364898D01*
X277357Y364217D01*
X278391Y363789D01*
X279500Y363643D01*
X280609Y363789D01*
X281643Y364217D01*
X282531Y364898D01*
X283212Y365786D01*
X283641Y366820D01*
X283787Y367929D01*
X283641Y369039D01*
X283212Y370073D01*
X282531Y370960D01*
X281643Y371641D01*
X280609Y372070D01*
X279500Y372216D01*
D02*
G37*
G36*
X259500D02*
X258390Y372070D01*
X257357Y371641D01*
X256469Y370960D01*
X255788Y370073D01*
X255359Y369039D01*
X255213Y367929D01*
X255359Y366820D01*
X255788Y365786D01*
X256469Y364898D01*
X257357Y364217D01*
X258390Y363789D01*
X259500Y363643D01*
X260610Y363789D01*
X261643Y364217D01*
X262531Y364898D01*
X263212Y365786D01*
X263641Y366820D01*
X263787Y367929D01*
X263641Y369039D01*
X263212Y370073D01*
X262531Y370960D01*
X261643Y371641D01*
X260610Y372070D01*
X259500Y372216D01*
D02*
G37*
G36*
X269500Y366764D02*
X268390Y366618D01*
X267357Y366190D01*
X266469Y365509D01*
X265788Y364621D01*
X265359Y363587D01*
X265213Y362478D01*
X265359Y361368D01*
X265788Y360334D01*
X266469Y359447D01*
X267357Y358765D01*
X268390Y358337D01*
X269500Y358191D01*
X270609Y358337D01*
X271643Y358765D01*
X272531Y359447D01*
X273212Y360334D01*
X273641Y361368D01*
X273787Y362478D01*
X273641Y363587D01*
X273212Y364621D01*
X272531Y365509D01*
X271643Y366190D01*
X270609Y366618D01*
X269500Y366764D01*
D02*
G37*
G36*
X279500Y361350D02*
X278391Y361204D01*
X277357Y360775D01*
X276469Y360094D01*
X275788Y359206D01*
X275359Y358172D01*
X275213Y357063D01*
X275359Y355954D01*
X275788Y354920D01*
X276469Y354032D01*
X277357Y353351D01*
X278391Y352922D01*
X279500Y352776D01*
X280609Y352922D01*
X281643Y353351D01*
X282531Y354032D01*
X283212Y354920D01*
X283641Y355954D01*
X283787Y357063D01*
X283641Y358172D01*
X283212Y359206D01*
X282531Y360094D01*
X281643Y360775D01*
X280609Y361204D01*
X279500Y361350D01*
D02*
G37*
G36*
X259500D02*
X258390Y361204D01*
X257357Y360775D01*
X256469Y360094D01*
X255788Y359206D01*
X255359Y358172D01*
X255213Y357063D01*
X255359Y355954D01*
X255788Y354920D01*
X256469Y354032D01*
X257357Y353351D01*
X258390Y352922D01*
X259500Y352776D01*
X260610Y352922D01*
X261643Y353351D01*
X262531Y354032D01*
X263212Y354920D01*
X263641Y355954D01*
X263787Y357063D01*
X263641Y358172D01*
X263212Y359206D01*
X262531Y360094D01*
X261643Y360775D01*
X260610Y361204D01*
X259500Y361350D01*
D02*
G37*
G36*
X269500Y355901D02*
X268390Y355755D01*
X267357Y355327D01*
X266469Y354645D01*
X265788Y353758D01*
X265359Y352724D01*
X265213Y351614D01*
X265359Y350505D01*
X265788Y349471D01*
X266469Y348583D01*
X267357Y347902D01*
X268390Y347474D01*
X269500Y347327D01*
X270609Y347474D01*
X271643Y347902D01*
X272531Y348583D01*
X273212Y349471D01*
X273641Y350505D01*
X273787Y351614D01*
X273641Y352724D01*
X273212Y353758D01*
X272531Y354645D01*
X271643Y355327D01*
X270609Y355755D01*
X269500Y355901D01*
D02*
G37*
G36*
X279500Y350483D02*
X278391Y350337D01*
X277357Y349909D01*
X276469Y349228D01*
X275788Y348340D01*
X275359Y347306D01*
X275213Y346197D01*
X275359Y345087D01*
X275788Y344054D01*
X276469Y343166D01*
X277357Y342484D01*
X278391Y342056D01*
X279500Y341910D01*
X280609Y342056D01*
X281643Y342484D01*
X282531Y343166D01*
X283212Y344054D01*
X283641Y345087D01*
X283787Y346197D01*
X283641Y347306D01*
X283212Y348340D01*
X282531Y349228D01*
X281643Y349909D01*
X280609Y350337D01*
X279500Y350483D01*
D02*
G37*
G36*
X259500D02*
X258390Y350337D01*
X257357Y349909D01*
X256469Y349228D01*
X255788Y348340D01*
X255359Y347306D01*
X255213Y346197D01*
X255359Y345087D01*
X255788Y344054D01*
X256469Y343166D01*
X257357Y342484D01*
X258390Y342056D01*
X259500Y341910D01*
X260610Y342056D01*
X261643Y342484D01*
X262531Y343166D01*
X263212Y344054D01*
X263641Y345087D01*
X263787Y346197D01*
X263641Y347306D01*
X263212Y348340D01*
X262531Y349228D01*
X261643Y349909D01*
X260610Y350337D01*
X259500Y350483D01*
D02*
G37*
G36*
X269500Y345037D02*
X268390Y344891D01*
X267357Y344463D01*
X266469Y343782D01*
X265788Y342894D01*
X265359Y341860D01*
X265213Y340751D01*
X265359Y339641D01*
X265788Y338607D01*
X266469Y337719D01*
X267357Y337038D01*
X268390Y336610D01*
X269500Y336464D01*
X270609Y336610D01*
X271643Y337038D01*
X272531Y337719D01*
X273212Y338607D01*
X273641Y339641D01*
X273787Y340751D01*
X273641Y341860D01*
X273212Y342894D01*
X272531Y343782D01*
X271643Y344463D01*
X270609Y344891D01*
X269500Y345037D01*
D02*
G37*
G36*
X279500Y339617D02*
X278391Y339471D01*
X277357Y339043D01*
X276469Y338362D01*
X275788Y337474D01*
X275359Y336440D01*
X275213Y335331D01*
X275359Y334221D01*
X275788Y333187D01*
X276469Y332300D01*
X277357Y331618D01*
X278391Y331190D01*
X279500Y331044D01*
X280609Y331190D01*
X281643Y331618D01*
X282531Y332300D01*
X283212Y333187D01*
X283641Y334221D01*
X283787Y335331D01*
X283641Y336440D01*
X283212Y337474D01*
X282531Y338362D01*
X281643Y339043D01*
X280609Y339471D01*
X279500Y339617D01*
D02*
G37*
G36*
X259500D02*
X258390Y339471D01*
X257357Y339043D01*
X256469Y338362D01*
X255788Y337474D01*
X255359Y336440D01*
X255213Y335331D01*
X255359Y334221D01*
X255788Y333187D01*
X256469Y332300D01*
X257357Y331618D01*
X258390Y331190D01*
X259500Y331044D01*
X260610Y331190D01*
X261643Y331618D01*
X262531Y332300D01*
X263212Y333187D01*
X263641Y334221D01*
X263787Y335331D01*
X263641Y336440D01*
X263212Y337474D01*
X262531Y338362D01*
X261643Y339043D01*
X260610Y339471D01*
X259500Y339617D01*
D02*
G37*
G36*
X269500Y334174D02*
X268390Y334028D01*
X267357Y333599D01*
X266469Y332918D01*
X265788Y332030D01*
X265359Y330997D01*
X265213Y329887D01*
X265359Y328778D01*
X265788Y327744D01*
X266469Y326856D01*
X267357Y326175D01*
X268390Y325746D01*
X269500Y325600D01*
X270609Y325746D01*
X271643Y326175D01*
X272531Y326856D01*
X273212Y327744D01*
X273641Y328778D01*
X273787Y329887D01*
X273641Y330997D01*
X273212Y332030D01*
X272531Y332918D01*
X271643Y333599D01*
X270609Y334028D01*
X269500Y334174D01*
D02*
G37*
G36*
X279500Y328751D02*
X278391Y328605D01*
X277357Y328177D01*
X276469Y327496D01*
X275788Y326608D01*
X275359Y325574D01*
X275213Y324465D01*
X275359Y323355D01*
X275788Y322321D01*
X276469Y321433D01*
X277357Y320752D01*
X278391Y320324D01*
X279500Y320178D01*
X280609Y320324D01*
X281643Y320752D01*
X282531Y321433D01*
X283212Y322321D01*
X283641Y323355D01*
X283787Y324465D01*
X283641Y325574D01*
X283212Y326608D01*
X282531Y327496D01*
X281643Y328177D01*
X280609Y328605D01*
X279500Y328751D01*
D02*
G37*
G36*
X259500D02*
X258390Y328605D01*
X257357Y328177D01*
X256469Y327496D01*
X255788Y326608D01*
X255359Y325574D01*
X255213Y324465D01*
X255359Y323355D01*
X255788Y322321D01*
X256469Y321433D01*
X257357Y320752D01*
X258390Y320324D01*
X259500Y320178D01*
X260610Y320324D01*
X261643Y320752D01*
X262531Y321433D01*
X263212Y322321D01*
X263641Y323355D01*
X263787Y324465D01*
X263641Y325574D01*
X263212Y326608D01*
X262531Y327496D01*
X261643Y328177D01*
X260610Y328605D01*
X259500Y328751D01*
D02*
G37*
G36*
X269500Y323310D02*
X268390Y323164D01*
X267357Y322736D01*
X266469Y322055D01*
X265788Y321167D01*
X265359Y320133D01*
X265213Y319024D01*
X265359Y317914D01*
X265788Y316880D01*
X266469Y315992D01*
X267357Y315311D01*
X268390Y314883D01*
X269500Y314737D01*
X270609Y314883D01*
X271643Y315311D01*
X272531Y315992D01*
X273212Y316880D01*
X273641Y317914D01*
X273787Y319024D01*
X273641Y320133D01*
X273212Y321167D01*
X272531Y322055D01*
X271643Y322736D01*
X270609Y323164D01*
X269500Y323310D01*
D02*
G37*
G36*
X259500Y317885D02*
X258390Y317739D01*
X257357Y317311D01*
X256469Y316630D01*
X255788Y315742D01*
X255359Y314708D01*
X255213Y313598D01*
X255359Y312489D01*
X255788Y311455D01*
X256469Y310567D01*
X257357Y309886D01*
X258390Y309458D01*
X259500Y309312D01*
X260610Y309458D01*
X261643Y309886D01*
X262531Y310567D01*
X263212Y311455D01*
X263641Y312489D01*
X263787Y313598D01*
X263641Y314708D01*
X263212Y315742D01*
X262531Y316630D01*
X261643Y317311D01*
X260610Y317739D01*
X259500Y317885D01*
D02*
G37*
G36*
X269500Y312447D02*
X268390Y312301D01*
X267357Y311873D01*
X266469Y311191D01*
X265788Y310303D01*
X265359Y309270D01*
X265213Y308160D01*
X265359Y307051D01*
X265788Y306017D01*
X266469Y305129D01*
X267357Y304448D01*
X268390Y304019D01*
X269500Y303873D01*
X270609Y304019D01*
X271643Y304448D01*
X272531Y305129D01*
X273212Y306017D01*
X273641Y307051D01*
X273787Y308160D01*
X273641Y309270D01*
X273212Y310303D01*
X272531Y311191D01*
X271643Y311873D01*
X270609Y312301D01*
X269500Y312447D01*
D02*
G37*
G36*
X279500Y307019D02*
X278391Y306873D01*
X277357Y306445D01*
X276469Y305763D01*
X275788Y304876D01*
X275359Y303842D01*
X275213Y302732D01*
X275359Y301623D01*
X275788Y300589D01*
X276469Y299701D01*
X277357Y299020D01*
X278391Y298592D01*
X279500Y298446D01*
X280609Y298592D01*
X281643Y299020D01*
X282531Y299701D01*
X283212Y300589D01*
X283641Y301623D01*
X283787Y302732D01*
X283641Y303842D01*
X283212Y304876D01*
X282531Y305763D01*
X281643Y306445D01*
X280609Y306873D01*
X279500Y307019D01*
D02*
G37*
G36*
X259500D02*
X258390Y306873D01*
X257357Y306445D01*
X256469Y305763D01*
X255788Y304876D01*
X255359Y303842D01*
X255213Y302732D01*
X255359Y301623D01*
X255788Y300589D01*
X256469Y299701D01*
X257357Y299020D01*
X258390Y298592D01*
X259500Y298446D01*
X260610Y298592D01*
X261643Y299020D01*
X262531Y299701D01*
X263212Y300589D01*
X263641Y301623D01*
X263787Y302732D01*
X263641Y303842D01*
X263212Y304876D01*
X262531Y305763D01*
X261643Y306445D01*
X260610Y306873D01*
X259500Y307019D01*
D02*
G37*
G36*
X269500Y301583D02*
X268390Y301437D01*
X267357Y301009D01*
X266469Y300328D01*
X265788Y299440D01*
X265359Y298406D01*
X265213Y297297D01*
X265359Y296187D01*
X265788Y295153D01*
X266469Y294266D01*
X267357Y293584D01*
X268390Y293156D01*
X269500Y293010D01*
X270609Y293156D01*
X271643Y293584D01*
X272531Y294266D01*
X273212Y295153D01*
X273641Y296187D01*
X273787Y297297D01*
X273641Y298406D01*
X273212Y299440D01*
X272531Y300328D01*
X271643Y301009D01*
X270609Y301437D01*
X269500Y301583D01*
D02*
G37*
G36*
X279500Y296153D02*
X278391Y296007D01*
X277357Y295579D01*
X276469Y294897D01*
X275788Y294009D01*
X275359Y292976D01*
X275213Y291866D01*
X275359Y290757D01*
X275788Y289723D01*
X276469Y288835D01*
X277357Y288154D01*
X278391Y287725D01*
X279500Y287579D01*
X280609Y287725D01*
X281643Y288154D01*
X282531Y288835D01*
X283212Y289723D01*
X283641Y290757D01*
X283787Y291866D01*
X283641Y292976D01*
X283212Y294009D01*
X282531Y294897D01*
X281643Y295579D01*
X280609Y296007D01*
X279500Y296153D01*
D02*
G37*
G36*
X259500D02*
X258390Y296007D01*
X257357Y295579D01*
X256469Y294897D01*
X255788Y294009D01*
X255359Y292976D01*
X255213Y291866D01*
X255359Y290757D01*
X255788Y289723D01*
X256469Y288835D01*
X257357Y288154D01*
X258390Y287725D01*
X259500Y287579D01*
X260610Y287725D01*
X261643Y288154D01*
X262531Y288835D01*
X263212Y289723D01*
X263641Y290757D01*
X263787Y291866D01*
X263641Y292976D01*
X263212Y294009D01*
X262531Y294897D01*
X261643Y295579D01*
X260610Y296007D01*
X259500Y296153D01*
D02*
G37*
G36*
X269500Y290720D02*
X268390Y290574D01*
X267357Y290145D01*
X266469Y289464D01*
X265788Y288576D01*
X265359Y287543D01*
X265213Y286433D01*
X265359Y285324D01*
X265788Y284290D01*
X266469Y283402D01*
X267357Y282721D01*
X268390Y282293D01*
X269500Y282146D01*
X270609Y282293D01*
X271643Y282721D01*
X272531Y283402D01*
X273212Y284290D01*
X273641Y285324D01*
X273787Y286433D01*
X273641Y287543D01*
X273212Y288576D01*
X272531Y289464D01*
X271643Y290145D01*
X270609Y290574D01*
X269500Y290720D01*
D02*
G37*
G36*
X279500Y285287D02*
X278391Y285141D01*
X277357Y284712D01*
X276469Y284031D01*
X275788Y283143D01*
X275359Y282109D01*
X275213Y281000D01*
X275359Y279890D01*
X275788Y278857D01*
X276469Y277969D01*
X277357Y277288D01*
X278391Y276859D01*
X279500Y276713D01*
X280609Y276859D01*
X281643Y277288D01*
X282531Y277969D01*
X283212Y278857D01*
X283641Y279890D01*
X283787Y281000D01*
X283641Y282109D01*
X283212Y283143D01*
X282531Y284031D01*
X281643Y284712D01*
X280609Y285141D01*
X279500Y285287D01*
D02*
G37*
G36*
X259500D02*
X258390Y285141D01*
X257357Y284712D01*
X256469Y284031D01*
X255788Y283143D01*
X255359Y282109D01*
X255213Y281000D01*
X255359Y279890D01*
X255788Y278857D01*
X256469Y277969D01*
X257357Y277288D01*
X258390Y276859D01*
X259500Y276713D01*
X260610Y276859D01*
X261643Y277288D01*
X262531Y277969D01*
X263212Y278857D01*
X263641Y279890D01*
X263787Y281000D01*
X263641Y282109D01*
X263212Y283143D01*
X262531Y284031D01*
X261643Y284712D01*
X260610Y285141D01*
X259500Y285287D01*
D02*
G37*
G36*
X532643Y254270D02*
X531200Y254080D01*
X529855Y253523D01*
X528700Y252637D01*
X527814Y251483D01*
X527257Y250138D01*
X527068Y248695D01*
X527257Y247252D01*
X527814Y245907D01*
X528700Y244753D01*
X529855Y243867D01*
X531200Y243310D01*
X532643Y243120D01*
X534086Y243310D01*
X535430Y243867D01*
X536585Y244753D01*
X537471Y245907D01*
X538028Y247252D01*
X538218Y248695D01*
X538028Y250138D01*
X537471Y251483D01*
X536585Y252637D01*
X535430Y253523D01*
X534086Y254080D01*
X532643Y254270D01*
D02*
G37*
G36*
X503115D02*
X501672Y254080D01*
X500328Y253523D01*
X499173Y252637D01*
X498287Y251483D01*
X497730Y250138D01*
X497540Y248695D01*
X497730Y247252D01*
X498287Y245907D01*
X499173Y244753D01*
X500328Y243867D01*
X501672Y243310D01*
X503115Y243120D01*
X504558Y243310D01*
X505903Y243867D01*
X507058Y244753D01*
X507944Y245907D01*
X508501Y247252D01*
X508691Y248695D01*
X508501Y250138D01*
X507944Y251483D01*
X507058Y252637D01*
X505903Y253523D01*
X504558Y254080D01*
X503115Y254270D01*
D02*
G37*
G36*
X478429D02*
X476986Y254080D01*
X475641Y253523D01*
X474486Y252637D01*
X473600Y251483D01*
X473043Y250138D01*
X472853Y248695D01*
X473043Y247252D01*
X473600Y245907D01*
X474486Y244753D01*
X475641Y243867D01*
X476986Y243310D01*
X478429Y243120D01*
X479872Y243310D01*
X481216Y243867D01*
X482371Y244753D01*
X483257Y245907D01*
X483814Y247252D01*
X484004Y248695D01*
X483814Y250138D01*
X483257Y251483D01*
X482371Y252637D01*
X481216Y253523D01*
X479872Y254080D01*
X478429Y254270D01*
D02*
G37*
G36*
X448901D02*
X447458Y254080D01*
X446113Y253523D01*
X444959Y252637D01*
X444073Y251483D01*
X443516Y250138D01*
X443326Y248695D01*
X443516Y247252D01*
X444073Y245907D01*
X444959Y244753D01*
X446113Y243867D01*
X447458Y243310D01*
X448901Y243120D01*
X450344Y243310D01*
X451689Y243867D01*
X452843Y244753D01*
X453729Y245907D01*
X454286Y247252D01*
X454476Y248695D01*
X454286Y250138D01*
X453729Y251483D01*
X452843Y252637D01*
X451689Y253523D01*
X450344Y254080D01*
X448901Y254270D01*
D02*
G37*
G36*
X424214D02*
X422771Y254080D01*
X421427Y253523D01*
X420272Y252637D01*
X419386Y251483D01*
X418829Y250138D01*
X418639Y248695D01*
X418829Y247252D01*
X419386Y245907D01*
X420272Y244753D01*
X421427Y243867D01*
X422771Y243310D01*
X424214Y243120D01*
X425657Y243310D01*
X427002Y243867D01*
X428157Y244753D01*
X429043Y245907D01*
X429600Y247252D01*
X429789Y248695D01*
X429600Y250138D01*
X429043Y251483D01*
X428157Y252637D01*
X427002Y253523D01*
X425657Y254080D01*
X424214Y254270D01*
D02*
G37*
G36*
X394687D02*
X393244Y254080D01*
X391899Y253523D01*
X390744Y252637D01*
X389858Y251483D01*
X389301Y250138D01*
X389111Y248695D01*
X389301Y247252D01*
X389858Y245907D01*
X390744Y244753D01*
X391899Y243867D01*
X393244Y243310D01*
X394687Y243120D01*
X396130Y243310D01*
X397474Y243867D01*
X398629Y244753D01*
X399515Y245907D01*
X400072Y247252D01*
X400262Y248695D01*
X400072Y250138D01*
X399515Y251483D01*
X398629Y252637D01*
X397474Y253523D01*
X396130Y254080D01*
X394687Y254270D01*
D02*
G37*
G36*
X370000D02*
X368557Y254080D01*
X367212Y253523D01*
X366058Y252637D01*
X365172Y251483D01*
X364615Y250138D01*
X364425Y248695D01*
X364615Y247252D01*
X365172Y245907D01*
X366058Y244753D01*
X367212Y243867D01*
X368557Y243310D01*
X370000Y243120D01*
X371443Y243310D01*
X372788Y243867D01*
X373942Y244753D01*
X374828Y245907D01*
X375385Y247252D01*
X375575Y248695D01*
X375385Y250138D01*
X374828Y251483D01*
X373942Y252637D01*
X372788Y253523D01*
X371443Y254080D01*
X370000Y254270D01*
D02*
G37*
G36*
X340472D02*
X339030Y254080D01*
X337685Y253523D01*
X336530Y252637D01*
X335644Y251483D01*
X335087Y250138D01*
X334897Y248695D01*
X335087Y247252D01*
X335644Y245907D01*
X336530Y244753D01*
X337685Y243867D01*
X339030Y243310D01*
X340472Y243120D01*
X341915Y243310D01*
X343260Y243867D01*
X344415Y244753D01*
X345301Y245907D01*
X345858Y247252D01*
X346048Y248695D01*
X345858Y250138D01*
X345301Y251483D01*
X344415Y252637D01*
X343260Y253523D01*
X341915Y254080D01*
X340472Y254270D01*
D02*
G37*
G36*
X269500Y255592D02*
X267951Y255439D01*
X266462Y254988D01*
X265090Y254254D01*
X263887Y253267D01*
X262900Y252064D01*
X262166Y250691D01*
X261714Y249202D01*
X261562Y247654D01*
X261714Y246105D01*
X262166Y244616D01*
X262900Y243243D01*
X263887Y242040D01*
X265090Y241053D01*
X266462Y240320D01*
X267951Y239868D01*
X269500Y239715D01*
X271049Y239868D01*
X272538Y240320D01*
X273910Y241053D01*
X275113Y242040D01*
X276100Y243243D01*
X276834Y244616D01*
X277286Y246105D01*
X277438Y247654D01*
X277286Y249202D01*
X276834Y250691D01*
X276100Y252064D01*
X275113Y253267D01*
X273910Y254254D01*
X272538Y254988D01*
X271049Y255439D01*
X269500Y255592D01*
D02*
G37*
G36*
X290932Y172361D02*
X290928D01*
X290917Y172354D01*
X290895Y172346D01*
X290869Y172339D01*
X290832Y172324D01*
X290788Y172313D01*
X290736Y172294D01*
X290673Y172280D01*
X290606Y172261D01*
X290529Y172239D01*
X290444Y172221D01*
X290355Y172202D01*
X290251Y172180D01*
X290144Y172161D01*
X290029Y172139D01*
X289903Y172121D01*
X289900D01*
X289885Y172117D01*
X289866D01*
X289841Y172109D01*
X289807Y172106D01*
X289774Y172098D01*
X289689Y172084D01*
X289600Y172065D01*
X289508Y172043D01*
X289426Y172021D01*
X289389Y172010D01*
X289356Y171995D01*
X289348Y171991D01*
X289330Y171984D01*
X289300Y171965D01*
X289267Y171943D01*
X289226Y171917D01*
X289186Y171880D01*
X289145Y171839D01*
X289108Y171791D01*
X289104Y171784D01*
X289093Y171769D01*
X289082Y171739D01*
X289067Y171706D01*
X289049Y171662D01*
X289038Y171610D01*
X289026Y171555D01*
X289023Y171495D01*
Y171492D01*
Y171484D01*
Y171469D01*
X289026Y171455D01*
X289030Y171432D01*
X289034Y171406D01*
X289045Y171347D01*
X289067Y171284D01*
X289104Y171214D01*
X289123Y171177D01*
X289149Y171144D01*
X289178Y171110D01*
X289212Y171077D01*
X289215D01*
X289219Y171070D01*
X289230Y171062D01*
X289248Y171051D01*
X289267Y171040D01*
X289289Y171025D01*
X289319Y171011D01*
X289352Y170996D01*
X289389Y170977D01*
X289430Y170963D01*
X289474Y170948D01*
X289526Y170937D01*
X289578Y170925D01*
X289637Y170918D01*
X289700Y170914D01*
X289767Y170911D01*
X289804D01*
X289829Y170914D01*
X289859D01*
X289896Y170918D01*
X289940Y170925D01*
X289985Y170929D01*
X290085Y170948D01*
X290196Y170977D01*
X290307Y171014D01*
X290414Y171066D01*
X290418Y171070D01*
X290425Y171073D01*
X290440Y171081D01*
X290458Y171096D01*
X290484Y171110D01*
X290510Y171133D01*
X290573Y171181D01*
X290640Y171244D01*
X290706Y171318D01*
X290773Y171403D01*
X290828Y171503D01*
Y171506D01*
X290832Y171514D01*
X290840Y171525D01*
X290843Y171543D01*
X290854Y171566D01*
X290862Y171591D01*
X290869Y171625D01*
X290880Y171662D01*
X290891Y171703D01*
X290899Y171747D01*
X290910Y171799D01*
X290917Y171854D01*
X290921Y171917D01*
X290928Y171984D01*
X290932Y172054D01*
Y172128D01*
Y172361D01*
D02*
G37*
G36*
X261798Y175018D02*
X260677D01*
Y173467D01*
X261854D01*
X261891Y173471D01*
X261980D01*
X262031Y173475D01*
X262135Y173482D01*
X262242Y173493D01*
X262294Y173501D01*
X262342Y173508D01*
X262386Y173515D01*
X262427Y173527D01*
X262431D01*
X262438Y173530D01*
X262453Y173534D01*
X262472Y173541D01*
X262490Y173549D01*
X262516Y173560D01*
X262572Y173586D01*
X262634Y173619D01*
X262701Y173663D01*
X262760Y173715D01*
X262816Y173778D01*
Y173782D01*
X262823Y173786D01*
X262827Y173797D01*
X262838Y173811D01*
X262845Y173830D01*
X262856Y173848D01*
X262882Y173904D01*
X262908Y173967D01*
X262927Y174045D01*
X262942Y174133D01*
X262949Y174230D01*
Y174233D01*
Y174241D01*
Y174256D01*
Y174274D01*
X262945Y174296D01*
X262942Y174322D01*
X262934Y174381D01*
X262919Y174452D01*
X262897Y174526D01*
X262864Y174603D01*
X262823Y174677D01*
Y174681D01*
X262816Y174685D01*
X262801Y174711D01*
X262771Y174744D01*
X262734Y174785D01*
X262686Y174829D01*
X262623Y174873D01*
X262557Y174910D01*
X262475Y174944D01*
X262472D01*
X262464Y174947D01*
X262449Y174951D01*
X262431Y174955D01*
X262405Y174962D01*
X262375Y174966D01*
X262338Y174973D01*
X262294Y174981D01*
X262242Y174988D01*
X262187Y174996D01*
X262124Y174999D01*
X262053Y175007D01*
X261976Y175010D01*
X261891Y175014D01*
X261798Y175018D01*
D02*
G37*
G36*
X261946Y172864D02*
X260677D01*
Y171103D01*
X262061D01*
X262131Y171107D01*
X262209D01*
X262283Y171114D01*
X262353Y171118D01*
X262386Y171122D01*
X262412Y171125D01*
X262416D01*
X262423Y171129D01*
X262435D01*
X262453Y171133D01*
X262494Y171144D01*
X262549Y171159D01*
X262609Y171177D01*
X262675Y171199D01*
X262738Y171229D01*
X262801Y171262D01*
X262805D01*
X262808Y171266D01*
X262827Y171281D01*
X262856Y171303D01*
X262893Y171336D01*
X262934Y171377D01*
X262979Y171425D01*
X263019Y171481D01*
X263060Y171547D01*
Y171551D01*
X263064Y171555D01*
X263071Y171566D01*
X263075Y171580D01*
X263093Y171621D01*
X263112Y171673D01*
X263130Y171736D01*
X263149Y171810D01*
X263160Y171895D01*
X263163Y171984D01*
Y171987D01*
Y171995D01*
Y172013D01*
X263160Y172032D01*
Y172058D01*
X263156Y172084D01*
X263145Y172154D01*
X263126Y172232D01*
X263101Y172313D01*
X263064Y172398D01*
X263016Y172479D01*
Y172483D01*
X263008Y172491D01*
X263001Y172498D01*
X262990Y172513D01*
X262956Y172550D01*
X262908Y172594D01*
X262849Y172646D01*
X262779Y172694D01*
X262697Y172739D01*
X262605Y172775D01*
X262601D01*
X262594Y172779D01*
X262579Y172783D01*
X262557Y172790D01*
X262531Y172798D01*
X262497Y172805D01*
X262460Y172812D01*
X262416Y172820D01*
X262364Y172827D01*
X262309Y172835D01*
X262246Y172842D01*
X262179Y172850D01*
X262109Y172857D01*
X262031Y172861D01*
X261946Y172864D01*
D02*
G37*
G36*
X297648Y173775D02*
X297607D01*
X297577Y173771D01*
X297536Y173767D01*
X297496Y173760D01*
X297448Y173749D01*
X297396Y173738D01*
X297337Y173723D01*
X297281Y173704D01*
X297218Y173678D01*
X297159Y173652D01*
X297096Y173619D01*
X297033Y173578D01*
X296974Y173534D01*
X296919Y173482D01*
X296915Y173478D01*
X296907Y173467D01*
X296893Y173453D01*
X296870Y173430D01*
X296848Y173401D01*
X296822Y173364D01*
X296796Y173323D01*
X296767Y173279D01*
X296737Y173227D01*
X296708Y173168D01*
X296682Y173105D01*
X296656Y173035D01*
X296634Y172964D01*
X296615Y172883D01*
X296600Y172801D01*
X296593Y172713D01*
X298669D01*
Y172716D01*
X298665Y172735D01*
Y172757D01*
X298658Y172790D01*
X298654Y172827D01*
X298643Y172872D01*
X298635Y172924D01*
X298621Y172975D01*
X298591Y173090D01*
X298550Y173205D01*
X298495Y173316D01*
X298462Y173368D01*
X298428Y173412D01*
X298425Y173416D01*
X298413Y173427D01*
X298399Y173445D01*
X298373Y173467D01*
X298343Y173497D01*
X298310Y173527D01*
X298265Y173560D01*
X298217Y173593D01*
X298165Y173626D01*
X298106Y173660D01*
X298043Y173689D01*
X297973Y173719D01*
X297899Y173741D01*
X297818Y173760D01*
X297736Y173771D01*
X297648Y173775D01*
D02*
G37*
G36*
X274167Y173771D02*
X274145D01*
X274123Y173767D01*
X274090D01*
X274049Y173760D01*
X274001Y173752D01*
X273949Y173741D01*
X273893Y173726D01*
X273834Y173708D01*
X273771Y173686D01*
X273705Y173656D01*
X273638Y173623D01*
X273575Y173582D01*
X273509Y173534D01*
X273446Y173478D01*
X273387Y173416D01*
X273383Y173412D01*
X273372Y173401D01*
X273357Y173379D01*
X273339Y173349D01*
X273316Y173312D01*
X273290Y173268D01*
X273261Y173212D01*
X273235Y173153D01*
X273205Y173079D01*
X273176Y173001D01*
X273150Y172916D01*
X273128Y172820D01*
X273109Y172716D01*
X273094Y172602D01*
X273083Y172483D01*
X273079Y172354D01*
Y172350D01*
Y172346D01*
Y172335D01*
Y172324D01*
X273083Y172287D01*
Y172239D01*
X273091Y172180D01*
X273094Y172109D01*
X273105Y172036D01*
X273116Y171954D01*
X273135Y171869D01*
X273153Y171780D01*
X273179Y171691D01*
X273209Y171606D01*
X273246Y171518D01*
X273287Y171436D01*
X273331Y171358D01*
X273387Y171288D01*
X273390Y171284D01*
X273401Y171273D01*
X273420Y171255D01*
X273442Y171233D01*
X273472Y171207D01*
X273509Y171177D01*
X273553Y171144D01*
X273601Y171114D01*
X273653Y171081D01*
X273712Y171048D01*
X273779Y171018D01*
X273845Y170992D01*
X273919Y170970D01*
X274001Y170951D01*
X274082Y170940D01*
X274167Y170937D01*
X274189D01*
X274212Y170940D01*
X274245Y170944D01*
X274286Y170948D01*
X274334Y170955D01*
X274386Y170966D01*
X274441Y170981D01*
X274500Y171000D01*
X274563Y171022D01*
X274630Y171051D01*
X274696Y171088D01*
X274759Y171129D01*
X274826Y171173D01*
X274889Y171229D01*
X274948Y171292D01*
X274952Y171295D01*
X274963Y171310D01*
X274978Y171329D01*
X274996Y171358D01*
X275022Y171395D01*
X275048Y171443D01*
X275074Y171499D01*
X275103Y171562D01*
X275133Y171632D01*
X275159Y171714D01*
X275188Y171802D01*
X275211Y171899D01*
X275229Y172006D01*
X275244Y172121D01*
X275255Y172243D01*
X275259Y172376D01*
Y172380D01*
Y172383D01*
Y172406D01*
X275255Y172442D01*
Y172487D01*
X275248Y172546D01*
X275244Y172613D01*
X275233Y172683D01*
X275218Y172764D01*
X275203Y172846D01*
X275181Y172931D01*
X275155Y173016D01*
X275126Y173105D01*
X275089Y173186D01*
X275048Y173268D01*
X275000Y173345D01*
X274944Y173416D01*
X274941Y173419D01*
X274929Y173430D01*
X274911Y173449D01*
X274889Y173471D01*
X274859Y173497D01*
X274822Y173527D01*
X274778Y173560D01*
X274730Y173593D01*
X274678Y173626D01*
X274619Y173660D01*
X274556Y173689D01*
X274485Y173715D01*
X274412Y173738D01*
X274334Y173756D01*
X274252Y173767D01*
X274167Y173771D01*
D02*
G37*
G36*
X266216D02*
X266194D01*
X266172Y173767D01*
X266138D01*
X266098Y173760D01*
X266050Y173752D01*
X265998Y173741D01*
X265942Y173726D01*
X265883Y173708D01*
X265820Y173686D01*
X265754Y173656D01*
X265687Y173623D01*
X265624Y173582D01*
X265557Y173534D01*
X265494Y173478D01*
X265435Y173416D01*
X265432Y173412D01*
X265421Y173401D01*
X265406Y173379D01*
X265387Y173349D01*
X265365Y173312D01*
X265339Y173268D01*
X265310Y173212D01*
X265284Y173153D01*
X265254Y173079D01*
X265224Y173001D01*
X265198Y172916D01*
X265176Y172820D01*
X265158Y172716D01*
X265143Y172602D01*
X265132Y172483D01*
X265128Y172354D01*
Y172350D01*
Y172346D01*
Y172335D01*
Y172324D01*
X265132Y172287D01*
Y172239D01*
X265139Y172180D01*
X265143Y172109D01*
X265154Y172036D01*
X265165Y171954D01*
X265184Y171869D01*
X265202Y171780D01*
X265228Y171691D01*
X265258Y171606D01*
X265295Y171518D01*
X265335Y171436D01*
X265380Y171358D01*
X265435Y171288D01*
X265439Y171284D01*
X265450Y171273D01*
X265469Y171255D01*
X265491Y171233D01*
X265520Y171207D01*
X265557Y171177D01*
X265602Y171144D01*
X265650Y171114D01*
X265702Y171081D01*
X265761Y171048D01*
X265827Y171018D01*
X265894Y170992D01*
X265968Y170970D01*
X266050Y170951D01*
X266131Y170940D01*
X266216Y170937D01*
X266238D01*
X266260Y170940D01*
X266294Y170944D01*
X266334Y170948D01*
X266383Y170955D01*
X266434Y170966D01*
X266490Y170981D01*
X266549Y171000D01*
X266612Y171022D01*
X266679Y171051D01*
X266745Y171088D01*
X266808Y171129D01*
X266875Y171173D01*
X266937Y171229D01*
X266997Y171292D01*
X267000Y171295D01*
X267011Y171310D01*
X267026Y171329D01*
X267045Y171358D01*
X267071Y171395D01*
X267097Y171443D01*
X267123Y171499D01*
X267152Y171562D01*
X267182Y171632D01*
X267208Y171714D01*
X267237Y171802D01*
X267259Y171899D01*
X267278Y172006D01*
X267293Y172121D01*
X267304Y172243D01*
X267307Y172376D01*
Y172380D01*
Y172383D01*
Y172406D01*
X267304Y172442D01*
Y172487D01*
X267296Y172546D01*
X267293Y172613D01*
X267282Y172683D01*
X267267Y172764D01*
X267252Y172846D01*
X267230Y172931D01*
X267204Y173016D01*
X267174Y173105D01*
X267137Y173186D01*
X267097Y173268D01*
X267049Y173345D01*
X266993Y173416D01*
X266989Y173419D01*
X266978Y173430D01*
X266960Y173449D01*
X266937Y173471D01*
X266908Y173497D01*
X266871Y173527D01*
X266827Y173560D01*
X266778Y173593D01*
X266727Y173626D01*
X266667Y173660D01*
X266604Y173689D01*
X266534Y173715D01*
X266460Y173738D01*
X266383Y173756D01*
X266301Y173767D01*
X266216Y173771D01*
D02*
G37*
%LPD*%
D11*
X495200Y518437D02*
Y531600D01*
X488804Y537996D02*
X495200Y531600D01*
X296996Y537996D02*
X488804D01*
X582861Y489500D02*
X638149D01*
X580850Y487489D02*
X582861Y489500D01*
X580850Y479100D02*
Y487489D01*
X654854Y467318D02*
Y483700D01*
X648536Y461000D02*
X654854Y467318D01*
X527000Y461000D02*
X648536D01*
X393920Y467920D02*
X437750D01*
X458000Y447834D02*
Y452500D01*
Y447834D02*
X462750Y443084D01*
X384250Y458250D02*
X393920Y467920D01*
X462750Y413285D02*
Y443084D01*
X495300Y376558D02*
Y391700D01*
X462750Y413285D02*
X475893Y400143D01*
X486857D01*
X495300Y391700D01*
X576750Y505000D02*
X578125Y506375D01*
X449056Y482348D02*
X458405Y473000D01*
X451257Y482977D02*
X459033Y475200D01*
X449056Y482348D02*
Y499443D01*
X451257Y482977D02*
Y500355D01*
X459033Y475200D02*
X467371D01*
X458405Y473000D02*
X473575D01*
X384250Y405250D02*
Y458250D01*
X373000Y394000D02*
X384250Y405250D01*
X642199Y502102D02*
X649402Y494900D01*
X621405Y502102D02*
X642199D01*
X589195Y500102D02*
X633294D01*
X578850Y489757D02*
X589195Y500102D01*
X578850Y480022D02*
Y489757D01*
X446955Y504657D02*
X451257Y500355D01*
X334043Y504657D02*
X446955D01*
X578125Y522244D02*
X583250Y527369D01*
X578125Y506375D02*
Y522244D01*
X588564Y502300D02*
X621207D01*
X576850Y490586D02*
X588564Y502300D01*
X576850Y480850D02*
Y490586D01*
X577199Y504551D02*
X578051D01*
X576750Y505000D02*
X577199Y504551D01*
X574000Y472250D02*
X580850Y479100D01*
X495763Y472250D02*
X574000D01*
X496874Y474250D02*
X573078D01*
X578850Y480022D01*
X572250Y476250D02*
X576850Y480850D01*
X524000Y476250D02*
X572250D01*
X505350Y494900D02*
X524000Y476250D01*
X500653Y494900D02*
X505350D01*
X484294Y483719D02*
X495763Y472250D01*
X489747Y481377D02*
X496874Y474250D01*
X446043Y502457D02*
X449056Y499443D01*
X333132Y502457D02*
X446043D01*
X331919Y503670D02*
X333132Y502457D01*
X300414Y503670D02*
X331919D01*
X297400Y500657D02*
X300414Y503670D01*
X332830Y505870D02*
X334043Y504657D01*
X467371Y475200D02*
X468462Y476291D01*
X776050Y297297D02*
Y323700D01*
Y297297D02*
X784847Y288500D01*
X850000D01*
X861000Y277500D01*
Y250647D02*
Y277500D01*
X742000Y337980D02*
Y415000D01*
X758882Y431882D01*
X896159D01*
X741981Y332016D02*
Y337959D01*
X737401Y327435D02*
X741981Y332016D01*
X489747Y481377D02*
Y494900D01*
X468462Y476291D02*
Y486970D01*
X470992Y489500D01*
X484347D01*
X489747Y494900D01*
X473575Y473000D02*
X484294Y483719D01*
X621207Y502300D02*
X621405Y502102D01*
X633294Y500102D02*
X638496Y494900D01*
X638149Y489500D02*
X643949Y483700D01*
X568000Y435124D02*
X583626Y450750D01*
X568000Y356750D02*
Y435124D01*
X290000Y531000D02*
X296996Y537996D01*
X495300Y376558D02*
X520500Y351358D01*
Y339578D02*
Y351358D01*
X263250Y502750D02*
Y511000D01*
Y502750D02*
X265330Y500670D01*
X741981Y337959D02*
X742000Y337980D01*
X727830Y327435D02*
X737401D01*
X896159Y431882D02*
X901888D01*
X907341Y437335D01*
X757357Y327435D02*
X772315D01*
X776050Y323700D01*
X495200Y518437D02*
X500653Y512984D01*
Y494900D02*
Y512984D01*
X271739Y500657D02*
X297400D01*
X271726Y500670D02*
X271739Y500657D01*
X265330Y500670D02*
X271726D01*
X271393Y508357D02*
X273893Y505857D01*
X295260Y505870D02*
X332830D01*
X295247Y505857D02*
X295260Y505870D01*
X273893Y505857D02*
X295247D01*
X271393Y508357D02*
Y522857D01*
X263250Y531000D02*
X271393Y522857D01*
X583250Y527369D02*
X641750Y527369D01*
X643949Y510319D02*
Y525170D01*
X641750Y527369D02*
X643949Y525170D01*
X568000Y356750D02*
X569000Y355750D01*
X520500Y339578D02*
X532643Y327435D01*
X373000Y385000D02*
Y394000D01*
X320250Y403000D02*
X343750D01*
X921000Y225000D02*
G03*
X927229Y230989I120J6109D01*
G01*
X230500Y238216D02*
G03*
X243750Y225000I13233J17D01*
G01*
X243310Y541500D02*
G03*
X230500Y528500I95J-12905D01*
G01*
X927250D02*
G03*
X914750Y541500I-12750J250D01*
G01*
X243750Y225000D02*
X921000Y225000D01*
X927250Y230989D02*
X927250Y528500D01*
X230500Y238216D02*
X230500Y528500D01*
X243310Y541500D02*
X914750Y541500D01*
D17*
X301217Y477000D02*
X305867Y472350D01*
X265530Y477000D02*
X301217D01*
X258250Y484280D02*
X265530Y477000D01*
X258250Y484280D02*
Y502250D01*
X252750Y478781D02*
X258250Y484280D01*
X252750Y470000D02*
Y478781D01*
X252495Y509495D02*
X257250Y514250D01*
X252495Y491814D02*
Y509495D01*
X261500Y470550D02*
X347050D01*
X261200Y470250D02*
X261500Y470550D01*
X259499Y537250D02*
X270375D01*
X257250Y535001D02*
X259499Y537250D01*
X257250Y514250D02*
Y535001D01*
X289750Y364200D02*
X296750Y371200D01*
X289750Y352750D02*
Y364200D01*
X451157Y474450D02*
X503607Y422000D01*
X450411Y472650D02*
X501000Y422061D01*
X383885Y472650D02*
X450411D01*
X383139Y474450D02*
X451157D01*
X347450Y473700D02*
X382389D01*
X383139Y474450D01*
X383135Y471900D02*
X383885Y472650D01*
X348400Y471900D02*
X383135D01*
X505500Y412500D02*
X511500D01*
X505250Y412250D02*
X505500Y412500D01*
X567885Y531600D02*
X659900D01*
X565735Y533750D02*
X567885Y531600D01*
X501000Y416500D02*
Y422061D01*
X503607Y422000D02*
X512327D01*
X346100Y472350D02*
X347450Y473700D01*
X305867Y472350D02*
X346100D01*
X347050Y470550D02*
X348400Y471900D01*
X659900Y531600D02*
X669000Y522500D01*
X501000Y416500D02*
X505250Y412250D01*
X287500Y350500D02*
X289750Y352750D01*
X287500Y321598D02*
Y350500D01*
X279500Y313598D02*
X287500Y321598D01*
X252750Y470000D02*
X258152Y464598D01*
X281000D01*
X288500Y457098D01*
Y447746D02*
Y457098D01*
Y447746D02*
X296750Y439496D01*
Y371200D02*
Y439496D01*
X506105Y520755D02*
X512550Y527200D01*
X506105Y510319D02*
Y520755D01*
X512550Y527200D02*
X517500D01*
X270375Y537250D02*
X276625Y531000D01*
X732000Y465750D02*
X748000D01*
X504750Y533750D02*
X565735D01*
X500653Y529653D02*
X504750Y533750D01*
X500653Y521500D02*
Y529653D01*
X716979Y503500D02*
X737500D01*
X669000Y518000D02*
Y522500D01*
D69*
X522706Y317498D02*
X532643Y327435D01*
X471748Y317498D02*
X522706D01*
X451000Y296750D02*
X471748Y317498D01*
X554500Y398973D02*
Y446140D01*
X543500Y387973D02*
X554500Y398973D01*
X543500Y358000D02*
Y387973D01*
X355450Y446750D02*
X357000D01*
X439500Y447500D02*
Y451750D01*
Y447500D02*
X456846Y430154D01*
X422154Y451750D02*
X450346Y423558D01*
X419000Y451750D02*
X422154D01*
X344250Y435550D02*
X355450Y446750D01*
X297750Y289888D02*
X298174Y289464D01*
X297750Y289888D02*
Y291968D01*
X294968Y294750D02*
X297750Y291968D01*
X292888Y294750D02*
X294968D01*
X291888Y295750D02*
X292888Y294750D01*
X370278Y347398D02*
X383425Y334250D01*
X394825Y396575D02*
X403000Y404750D01*
X394825Y371945D02*
Y396575D01*
X554500Y446140D02*
X554610Y446250D01*
X543500Y358000D02*
X544026Y357474D01*
Y301250D02*
Y357474D01*
X527276Y284500D02*
X544026Y301250D01*
X417937Y284500D02*
X527276D01*
X394687Y307750D02*
X417937Y284500D01*
X298174Y289464D02*
X375313D01*
X376778Y290929D01*
Y310028D01*
X382250Y315500D01*
X396750D01*
X415500Y296750D01*
X451000D01*
X362500Y334935D02*
X370000Y327435D01*
X310750Y297500D02*
X348750D01*
X456846Y368703D02*
Y430154D01*
X450346Y365096D02*
Y423558D01*
X456846Y368703D02*
X478429Y347120D01*
X432370D02*
X450346Y365096D01*
X383425Y321500D02*
Y334250D01*
X384925Y320000D02*
X403520D01*
X383425Y321500D02*
X384925Y320000D01*
X370278Y347398D02*
X394825Y371945D01*
X337316Y367000D02*
X349250Y378934D01*
Y405175D01*
X344250Y410175D02*
X349250Y405175D01*
X344250Y410175D02*
Y435550D01*
X307000Y367000D02*
X337316D01*
X424214Y347120D02*
X432370D01*
X370000D02*
X370278Y347398D01*
X362500Y391000D02*
X370000Y398500D01*
X362500Y334935D02*
Y391000D01*
X353000Y301750D02*
Y310435D01*
X370000Y327435D01*
X291888Y332638D02*
X294500Y335250D01*
X291888Y295750D02*
Y332638D01*
X305000Y335250D02*
X310750Y341000D01*
Y341750D01*
X294500Y335250D02*
X305000D01*
X403520Y320000D02*
X411510Y327990D01*
X348750Y297500D02*
X353000Y301750D01*
X411510Y327990D02*
X424176D01*
D70*
X489747Y521500D02*
Y531353D01*
X485850Y535250D02*
X489747Y531353D01*
X304250Y535250D02*
X485850D01*
X649402Y487367D02*
X654728Y492694D01*
X649402Y478895D02*
Y487367D01*
X646500Y475993D02*
X649402Y478895D01*
X524727Y466091D02*
X644091D01*
X519386Y460750D02*
X524727Y466091D01*
X644091D02*
X646500Y468500D01*
X504886Y463500D02*
X519500Y448886D01*
X524750Y394250D02*
Y443495D01*
X519429Y448815D02*
X524750Y443495D01*
X519429Y448815D02*
X519500Y448886D01*
X385000Y468750D02*
X385500D01*
X363928Y447678D02*
X385000Y468750D01*
X422250Y456250D02*
X453596Y424904D01*
X389000Y435500D02*
X409750Y456250D01*
X422250D01*
X522000Y391500D02*
X524750Y394250D01*
X501594Y391500D02*
X522000D01*
X324888Y374500D02*
X334750D01*
X324638Y374250D02*
X324888Y374500D01*
X641071Y347120D02*
Y424680D01*
X671250Y454858D01*
X582000Y233750D02*
X742412D01*
X570000Y245750D02*
X582000Y233750D01*
X742412D02*
X757357Y248695D01*
X662250Y535750D02*
X675500Y522500D01*
X580774Y535750D02*
X662250D01*
X389000Y420750D02*
Y435500D01*
X448750Y446742D02*
Y466000D01*
X472500Y337250D02*
X482294D01*
X462483Y327233D02*
X472500Y337250D01*
X462483Y321332D02*
Y327233D01*
X453596Y363749D02*
X458084Y359261D01*
Y336618D02*
Y359261D01*
X448901Y327435D02*
X458084Y336618D01*
X492800Y375523D02*
Y390665D01*
X485822Y397643D02*
X492800Y390665D01*
X474857Y397643D02*
X485822D01*
X460250Y412250D02*
X474857Y397643D01*
X460250Y412250D02*
Y435242D01*
X492800Y375523D02*
X494247Y374076D01*
Y349203D02*
Y374076D01*
X482294Y337250D02*
X494247Y349203D01*
X340472Y307750D02*
Y314778D01*
X453596Y363749D02*
Y424904D01*
X448750Y446742D02*
X460250Y435242D01*
X331250Y324000D02*
Y335750D01*
X333250Y337750D01*
X347500D01*
X353500Y343750D01*
X359250Y331500D02*
Y401750D01*
X355185Y327435D02*
X359250Y331500D01*
X340472Y327435D02*
X355185D01*
X448901Y307750D02*
X462483Y321332D01*
X681250Y395375D02*
Y458250D01*
X654250Y368375D02*
X681250Y395375D01*
X414500Y364500D02*
X440000Y390000D01*
X414500Y347248D02*
Y364500D01*
X363928Y412324D02*
Y447678D01*
X646500Y470954D02*
Y475993D01*
X622138Y474405D02*
Y483700D01*
X616823Y469091D02*
X622138Y474405D01*
X510477Y469091D02*
X616823D01*
X504886Y463500D02*
X510477Y469091D01*
X518414Y460750D02*
X519386D01*
X498750Y463500D02*
X504886D01*
X660307Y458057D02*
Y494900D01*
X649250Y447000D02*
X660307Y458057D01*
X587500Y447000D02*
X649250D01*
X652088Y504602D02*
X654728Y501962D01*
X628898Y504602D02*
X652088D01*
X627717Y505783D02*
X628898Y504602D01*
X621598Y483160D02*
X622138Y483700D01*
X654728Y492694D02*
Y501962D01*
X290000Y521000D02*
X304250Y535250D01*
X675500Y475500D02*
Y522500D01*
X671500Y471500D02*
X675500Y475500D01*
X627717Y505783D02*
Y521374D01*
X627591Y521500D02*
X627717Y521374D01*
X317388Y381500D02*
X324638Y374250D01*
X307500Y391388D02*
X317388Y381500D01*
X307500Y391388D02*
Y409750D01*
X353500Y343750D02*
Y401896D01*
X363928Y412324D01*
X331250Y324000D02*
X340472Y314778D01*
X654250Y307556D02*
Y368375D01*
X641071Y294377D02*
X654250Y307556D01*
X667750Y462750D02*
X676750D01*
X665760Y464740D02*
Y483700D01*
X676750Y462750D02*
X681250Y458250D01*
X665760Y464740D02*
X667750Y462750D01*
X641071Y248695D02*
Y294377D01*
X575500Y435000D02*
X587500Y447000D01*
X575500Y307750D02*
Y435000D01*
Y307750D02*
X586750Y296500D01*
Y248695D02*
Y296500D01*
X394687Y327435D02*
X414500Y347248D01*
X557222Y307750D02*
X570000Y294972D01*
Y245750D02*
Y294972D01*
X365906Y408406D02*
X366374D01*
X359250Y401750D02*
X365906Y408406D01*
D71*
X596698Y387448D02*
X614133D01*
X585000Y375750D02*
X596698Y387448D01*
X492500Y455000D02*
X493031D01*
X281000Y271500D02*
X288750D01*
X293000Y275750D01*
X632250Y351500D02*
X637500Y356750D01*
X627250Y351500D02*
X632250D01*
X622500Y356250D02*
X627250Y351500D01*
X622500Y356250D02*
Y364389D01*
X616797Y370092D02*
X622500Y364389D01*
X637500Y356750D02*
Y393240D01*
X630887Y357750D02*
Y390413D01*
X451985Y476450D02*
X472935Y455500D01*
X382311Y476450D02*
X451985D01*
X327078Y475700D02*
X381561D01*
X382311Y476450D01*
X293000Y275750D02*
Y290000D01*
X613750Y407550D02*
X630887Y390413D01*
X501933Y408150D02*
X514026D01*
X497400Y403617D02*
X501933Y408150D01*
X497400Y378185D02*
Y403617D01*
X516427Y410552D02*
Y431604D01*
X514026Y408150D02*
X516427Y410552D01*
X518122Y357462D02*
X522301D01*
X497400Y378185D02*
X518122Y357462D01*
X472935Y455500D02*
X492500D01*
X451250Y511000D02*
X451253D01*
X451250D02*
X462483Y499767D01*
Y483719D02*
Y499767D01*
X326528Y476250D02*
X327078Y475700D01*
X579773Y499000D02*
X585173Y504400D01*
X572952Y499000D02*
X579773D01*
X567460Y504492D02*
X572952Y499000D01*
X495200Y492300D02*
X502738Y484762D01*
X495200Y492300D02*
Y497500D01*
X610500Y370092D02*
X616797D01*
X479500Y532500D02*
X484200Y527800D01*
X343146Y532500D02*
X479500D01*
X318896Y508250D02*
X343146Y532500D01*
X290500Y448575D02*
Y461750D01*
Y448575D02*
X313250Y425825D01*
X325500Y476250D02*
X326528D01*
X493031Y455000D02*
X516427Y431604D01*
X522301Y357462D02*
X532643Y347120D01*
X547750Y509500D02*
Y528250D01*
Y509500D02*
X552758Y504492D01*
X567460D01*
X585173Y504400D02*
X605313D01*
X611232Y510319D01*
X313250Y397550D02*
Y425825D01*
Y397550D02*
X319300Y391500D01*
X344250D01*
X290000Y511000D02*
X298750D01*
X299500Y510250D01*
Y510000D02*
Y510250D01*
Y510000D02*
X301250Y508250D01*
X318896D01*
X484200Y517800D02*
Y527800D01*
Y517800D02*
X489747Y512253D01*
Y502953D02*
Y512253D01*
Y502953D02*
X495200Y497500D01*
X502738Y484762D02*
X505062D01*
X506105Y483719D01*
X614133Y387448D02*
X614435Y387750D01*
X631500Y399240D02*
X637500Y393240D01*
X534000Y413000D02*
Y436299D01*
X534500Y436799D01*
X534150Y437150D02*
X534500Y436799D01*
D73*
X269500Y247654D02*
D03*
Y488205D02*
D03*
D74*
X259500Y454858D02*
D03*
X279500D02*
D03*
X259500Y433126D02*
D03*
Y422260D02*
D03*
Y411394D02*
D03*
Y400527D02*
D03*
Y389661D02*
D03*
Y378795D02*
D03*
Y367929D02*
D03*
Y357063D02*
D03*
Y346197D02*
D03*
Y335331D02*
D03*
Y324465D02*
D03*
Y313598D02*
D03*
Y302732D02*
D03*
Y291866D02*
D03*
Y281000D02*
D03*
X269500Y449386D02*
D03*
Y438522D02*
D03*
Y427659D02*
D03*
Y416795D02*
D03*
Y405932D02*
D03*
Y395068D02*
D03*
Y384205D02*
D03*
Y373341D02*
D03*
Y362478D02*
D03*
Y351614D02*
D03*
Y340751D02*
D03*
Y329887D02*
D03*
Y319024D02*
D03*
Y308160D02*
D03*
Y297297D02*
D03*
Y286433D02*
D03*
X279500Y443992D02*
D03*
Y433126D02*
D03*
Y422260D02*
D03*
Y411394D02*
D03*
Y400527D02*
D03*
Y389661D02*
D03*
Y378795D02*
D03*
Y367929D02*
D03*
Y357063D02*
D03*
Y346197D02*
D03*
Y335331D02*
D03*
Y324465D02*
D03*
Y313598D02*
D03*
Y302732D02*
D03*
X259500Y443992D02*
D03*
X279500Y291866D02*
D03*
Y281000D02*
D03*
D75*
X896159Y431882D02*
D03*
X907341Y437335D02*
D03*
X896159Y442787D02*
D03*
X907341Y448240D02*
D03*
X896159Y453693D02*
D03*
X907341Y459146D02*
D03*
X896159Y464598D02*
D03*
X907341Y470051D02*
D03*
X342750Y494900D02*
D03*
X348203Y483719D02*
D03*
X353656Y494900D02*
D03*
X359108Y483719D02*
D03*
X364561Y494900D02*
D03*
X370014Y483719D02*
D03*
X375466Y494900D02*
D03*
X380919Y483719D02*
D03*
Y510319D02*
D03*
X375466Y521500D02*
D03*
X370014Y510319D02*
D03*
X364561Y521500D02*
D03*
X359108Y510319D02*
D03*
X353656Y521500D02*
D03*
X348203Y510319D02*
D03*
X342750Y521500D02*
D03*
X467936Y494900D02*
D03*
X473389Y483719D02*
D03*
X478841Y494900D02*
D03*
X484294Y483719D02*
D03*
X489747Y494900D02*
D03*
X495200Y483719D02*
D03*
X500653Y494900D02*
D03*
X506105Y483719D02*
D03*
Y510319D02*
D03*
X500653Y521500D02*
D03*
X495200Y510319D02*
D03*
X489747Y521500D02*
D03*
X484294Y510319D02*
D03*
X478841Y521500D02*
D03*
X473389Y510319D02*
D03*
X467936Y521500D02*
D03*
X907091Y345051D02*
D03*
X895909Y339598D02*
D03*
X907091Y334146D02*
D03*
X895909Y328693D02*
D03*
X907091Y323240D02*
D03*
X895909Y317787D02*
D03*
X907091Y312335D02*
D03*
X895909Y306882D02*
D03*
D76*
X896159Y475504D02*
D03*
X895909Y350504D02*
D03*
D77*
X901750Y502886D02*
D03*
Y404500D02*
D03*
X408301Y489700D02*
D03*
X309915D02*
D03*
Y521500D02*
D03*
X408301D02*
D03*
X533487Y489700D02*
D03*
X435101D02*
D03*
Y521500D02*
D03*
X533487D02*
D03*
X901500Y279500D02*
D03*
Y377886D02*
D03*
D78*
X841250Y324250D02*
D03*
X830384D02*
D03*
X852077D02*
D03*
X757357Y248695D02*
D03*
X727830D02*
D03*
Y307750D02*
D03*
X757357D02*
D03*
X727830Y327435D02*
D03*
X757357D02*
D03*
X727830Y347120D02*
D03*
X757357D02*
D03*
X641071Y248695D02*
D03*
X611544D02*
D03*
Y307750D02*
D03*
X641071D02*
D03*
X611544Y327435D02*
D03*
X641071D02*
D03*
X611544Y347120D02*
D03*
X641071D02*
D03*
X532643Y248695D02*
D03*
X503115D02*
D03*
Y307750D02*
D03*
X532643D02*
D03*
X503115Y327435D02*
D03*
X532643D02*
D03*
X503115Y347120D02*
D03*
X532643D02*
D03*
X478429Y248695D02*
D03*
X448901D02*
D03*
Y307750D02*
D03*
X478429D02*
D03*
X448901Y327435D02*
D03*
X478429D02*
D03*
X448901Y347120D02*
D03*
X478429D02*
D03*
X424214Y248695D02*
D03*
X394687D02*
D03*
Y307750D02*
D03*
X424214D02*
D03*
X394687Y327435D02*
D03*
X424214D02*
D03*
X394687Y347120D02*
D03*
X424214D02*
D03*
X703286Y248695D02*
D03*
X673758D02*
D03*
Y307750D02*
D03*
X703286D02*
D03*
X673758Y327435D02*
D03*
X703286D02*
D03*
X673758Y347120D02*
D03*
X703286D02*
D03*
X586750Y248695D02*
D03*
X557222D02*
D03*
Y307750D02*
D03*
X586750D02*
D03*
X557222Y327435D02*
D03*
X586750D02*
D03*
X557222Y347120D02*
D03*
X586750D02*
D03*
X370000Y248695D02*
D03*
X340472D02*
D03*
Y307750D02*
D03*
X370000D02*
D03*
X340472Y327435D02*
D03*
X370000D02*
D03*
X340472Y347120D02*
D03*
X370000D02*
D03*
D79*
X867313Y324250D02*
D03*
X804321D02*
D03*
X824990Y506848D02*
D03*
X803337D02*
D03*
X846644D02*
D03*
X868297D02*
D03*
X877000Y250647D02*
D03*
X861000D02*
D03*
X833750Y250895D02*
D03*
X817750D02*
D03*
D80*
X308000Y240250D02*
D03*
X244750Y527750D02*
D03*
X911750Y239613D02*
D03*
X911250Y527250D02*
D03*
D81*
X693181Y490000D02*
D03*
X562000D02*
D03*
Y521500D02*
D03*
X693181D02*
D03*
D82*
X665760Y483700D02*
D03*
X660307Y494900D02*
D03*
X654854Y483700D02*
D03*
X649402Y494900D02*
D03*
X643949Y483700D02*
D03*
X638496Y494900D02*
D03*
X633043Y483700D02*
D03*
X627591Y494900D02*
D03*
X622138Y483700D02*
D03*
X616685Y494900D02*
D03*
X611232Y483700D02*
D03*
X605780Y494900D02*
D03*
X600327Y483700D02*
D03*
X594874Y494900D02*
D03*
Y521500D02*
D03*
X600327Y510319D02*
D03*
X605780Y521500D02*
D03*
X611232Y510319D02*
D03*
X616685Y521500D02*
D03*
X622138Y510319D02*
D03*
X627591Y521500D02*
D03*
X633043Y510319D02*
D03*
X638496Y521500D02*
D03*
X643949Y510319D02*
D03*
X649402Y521500D02*
D03*
X654854Y510319D02*
D03*
X660307Y521500D02*
D03*
X665760Y510319D02*
D03*
D83*
X589421Y483700D02*
D03*
Y510319D02*
D03*
X337297Y483719D02*
D03*
Y510319D02*
D03*
X462483Y483719D02*
D03*
Y510319D02*
D03*
D84*
X290000Y531000D02*
D03*
Y521000D02*
D03*
Y511000D02*
D03*
X276625Y531000D02*
D03*
Y521000D02*
D03*
Y511000D02*
D03*
X263250Y531000D02*
D03*
Y521000D02*
D03*
Y511000D02*
D03*
X310750Y356500D02*
D03*
X300750D02*
D03*
X310750Y341750D02*
D03*
X300750D02*
D03*
X310750Y327000D02*
D03*
X300750D02*
D03*
Y312250D02*
D03*
X310750D02*
D03*
Y297500D02*
D03*
X300750D02*
D03*
Y282750D02*
D03*
X310750D02*
D03*
Y268000D02*
D03*
X300750D02*
D03*
D85*
X252495Y491814D02*
D03*
X261200Y470250D02*
D03*
X527000Y461000D02*
D03*
X275500Y233000D02*
D03*
X290250D02*
D03*
X281000Y271500D02*
D03*
X290250Y461750D02*
D03*
X289750Y364200D02*
D03*
X433750Y425333D02*
D03*
X630887Y357750D02*
D03*
X519429Y448815D02*
D03*
X448750Y468429D02*
D03*
X357000Y446750D02*
D03*
X385500Y468750D02*
D03*
X437750Y467920D02*
D03*
X458000Y452500D02*
D03*
X439500Y451750D02*
D03*
X419000D02*
D03*
X358750Y421250D02*
D03*
X396862Y409500D02*
D03*
X581614Y368642D02*
D03*
X585000Y375750D02*
D03*
X581436Y383500D02*
D03*
X501594Y391500D02*
D03*
X334750Y374500D02*
D03*
X346665Y363840D02*
D03*
X511500Y412500D02*
D03*
X293000Y290000D02*
D03*
X693500Y439750D02*
D03*
X580774Y535750D02*
D03*
X403000Y404750D02*
D03*
X488500Y368750D02*
D03*
X554610Y446250D02*
D03*
X469500Y425250D02*
D03*
X440000Y390000D02*
D03*
X451253Y511000D02*
D03*
X646500Y468500D02*
D03*
X578051Y504551D02*
D03*
X518414Y460750D02*
D03*
X498750Y463500D02*
D03*
X764500Y384250D02*
D03*
X517500Y527200D02*
D03*
X583626Y450750D02*
D03*
X610500Y370092D02*
D03*
X512327Y422000D02*
D03*
X492500Y455500D02*
D03*
X258250Y502250D02*
D03*
X650914Y387000D02*
D03*
X719000Y417000D02*
D03*
X732000Y465750D02*
D03*
X748000D02*
D03*
X713000Y457250D02*
D03*
X792300Y447500D02*
D03*
X737500Y503500D02*
D03*
X547750Y528670D02*
D03*
X344250Y391500D02*
D03*
X325500Y476250D02*
D03*
X716979Y503500D02*
D03*
X669000Y518000D02*
D03*
X516500Y398500D02*
D03*
X614435Y387750D02*
D03*
X650700Y396000D02*
D03*
X693028Y403500D02*
D03*
X720500Y510319D02*
D03*
X631500Y399240D02*
D03*
X613750Y407550D02*
D03*
X568000Y356750D02*
D03*
X307500Y409750D02*
D03*
X317388Y381500D02*
D03*
X313250Y445750D02*
D03*
X671500Y471500D02*
D03*
X671250Y454858D02*
D03*
X544950Y404250D02*
D03*
X614250Y396000D02*
D03*
X665876Y430126D02*
D03*
X373000Y385000D02*
D03*
X320250Y403000D02*
D03*
X343750D02*
D03*
X436401Y366821D02*
D03*
X441401Y403321D02*
D03*
X389000Y420750D02*
D03*
X307000Y367000D02*
D03*
X534000Y413000D02*
D03*
X534150Y437150D02*
D03*
X505000Y456250D02*
D03*
X370000Y398500D02*
D03*
X366374Y408406D02*
D03*
X470000Y391750D02*
D03*
X418000Y424250D02*
D03*
X373500Y426000D02*
D03*
X351142Y411250D02*
D03*
X481250Y406675D02*
D03*
X410375Y410793D02*
D03*
X380250Y410500D02*
D03*
X405875Y367043D02*
D03*
X375000Y367000D02*
D03*
M02*
