G04*
G04 #@! TF.GenerationSoftware,Altium Limited,Altium Designer,19.0.10 (269)*
G04*
G04 Layer_Physical_Order=3*
G04 Layer_Color=16440176*
%FSLAX25Y25*%
%MOIN*%
G70*
G01*
G75*
%ADD11C,0.01000*%
%ADD75C,0.06653*%
%ADD78C,0.09055*%
%ADD83R,0.06653X0.06653*%
%ADD84C,0.07087*%
%ADD85C,0.05000*%
G36*
X243310Y539971D02*
X914719Y539971D01*
X914720Y539970D01*
Y539970D01*
X914720Y539970D01*
X916258Y539849D01*
X917972Y539437D01*
X919602Y538762D01*
X921105Y537841D01*
X922446Y536696D01*
X923591Y535355D01*
X924512Y533851D01*
X925187Y532223D01*
X925599Y530508D01*
X925716Y529025D01*
X925720Y528530D01*
X925720Y528224D01*
X925721Y528034D01*
X925721Y528006D01*
X925721Y493250D01*
X906830D01*
X906689Y493750D01*
X907864Y494470D01*
X909105Y495530D01*
X910166Y496772D01*
X911018Y498163D01*
X911643Y499671D01*
X912024Y501259D01*
X912152Y502886D01*
X912024Y504513D01*
X911643Y506100D01*
X911018Y507608D01*
X910166Y509000D01*
X909105Y510241D01*
X907864Y511301D01*
X906472Y512154D01*
X904964Y512779D01*
X903377Y513160D01*
X901750Y513288D01*
X900123Y513160D01*
X898536Y512779D01*
X897027Y512154D01*
X895636Y511301D01*
X894395Y510241D01*
X893334Y509000D01*
X892482Y507608D01*
X891857Y506100D01*
X891476Y504513D01*
X891348Y502886D01*
X891476Y501259D01*
X891857Y499671D01*
X892482Y498163D01*
X893334Y496772D01*
X894395Y495530D01*
X895636Y494470D01*
X896811Y493750D01*
X896670Y493250D01*
X753614Y493250D01*
X716947Y456582D01*
X716473Y456816D01*
X716530Y457250D01*
X716410Y458164D01*
X716057Y459015D01*
X715496Y459746D01*
X714765Y460307D01*
X713914Y460660D01*
X713000Y460780D01*
X712086Y460660D01*
X711235Y460307D01*
X710504Y459746D01*
X709943Y459015D01*
X709590Y458164D01*
X709470Y457250D01*
X709590Y456336D01*
X709943Y455485D01*
X710504Y454754D01*
X711235Y454193D01*
X712086Y453840D01*
X713000Y453720D01*
X713434Y453777D01*
X713667Y453303D01*
X659614Y399250D01*
X655500Y395136D01*
Y258250D01*
X743146D01*
X743500Y257896D01*
X743481Y226529D01*
X243750Y226529D01*
X243689Y226517D01*
X241900Y226658D01*
X240112Y227087D01*
X238413Y227791D01*
X236845Y228752D01*
X235446Y229946D01*
X234252Y231345D01*
X233291Y232913D01*
X232587Y234612D01*
X232158Y236400D01*
X232019Y238165D01*
X232029Y238216D01*
X232029Y528012D01*
X232029Y528500D01*
X232027Y528511D01*
X232047Y529003D01*
X232155Y530377D01*
X232572Y532115D01*
X233256Y533766D01*
X234190Y535290D01*
X235351Y536649D01*
X236710Y537810D01*
X238234Y538744D01*
X239885Y539428D01*
X241623Y539845D01*
X243284Y539976D01*
X243310Y539971D01*
D02*
G37*
%LPC*%
G36*
X580774Y539280D02*
X579860Y539160D01*
X579009Y538807D01*
X578277Y538246D01*
X577716Y537515D01*
X577364Y536664D01*
X577244Y535750D01*
X577364Y534836D01*
X577716Y533985D01*
X578277Y533254D01*
X579009Y532693D01*
X579860Y532340D01*
X580774Y532220D01*
X581687Y532340D01*
X582539Y532693D01*
X583270Y533254D01*
X583831Y533985D01*
X584184Y534836D01*
X584304Y535750D01*
X584184Y536664D01*
X583831Y537515D01*
X583270Y538246D01*
X582539Y538807D01*
X581687Y539160D01*
X580774Y539280D01*
D02*
G37*
G36*
X290000Y535582D02*
X288814Y535426D01*
X287709Y534969D01*
X286760Y534240D01*
X286031Y533291D01*
X285574Y532186D01*
X285418Y531000D01*
X285574Y529814D01*
X286031Y528709D01*
X286760Y527760D01*
X287709Y527031D01*
X288814Y526574D01*
X290000Y526417D01*
X291186Y526574D01*
X292291Y527031D01*
X293240Y527760D01*
X293969Y528709D01*
X294426Y529814D01*
X294583Y531000D01*
X294426Y532186D01*
X293969Y533291D01*
X293240Y534240D01*
X292291Y534969D01*
X291186Y535426D01*
X290000Y535582D01*
D02*
G37*
G36*
X276625D02*
X275439Y535426D01*
X274334Y534969D01*
X273385Y534240D01*
X272656Y533291D01*
X272199Y532186D01*
X272042Y531000D01*
X272199Y529814D01*
X272656Y528709D01*
X273385Y527760D01*
X274334Y527031D01*
X275439Y526574D01*
X276625Y526417D01*
X277811Y526574D01*
X278916Y527031D01*
X279865Y527760D01*
X280594Y528709D01*
X281051Y529814D01*
X281207Y531000D01*
X281051Y532186D01*
X280594Y533291D01*
X279865Y534240D01*
X278916Y534969D01*
X277811Y535426D01*
X276625Y535582D01*
D02*
G37*
G36*
X263250D02*
X262064Y535426D01*
X260959Y534969D01*
X260010Y534240D01*
X259281Y533291D01*
X258824Y532186D01*
X258667Y531000D01*
X258824Y529814D01*
X259281Y528709D01*
X260010Y527760D01*
X260959Y527031D01*
X262064Y526574D01*
X263250Y526417D01*
X264436Y526574D01*
X265541Y527031D01*
X266490Y527760D01*
X267219Y528709D01*
X267676Y529814D01*
X267832Y531000D01*
X267676Y532186D01*
X267219Y533291D01*
X266490Y534240D01*
X265541Y534969D01*
X264436Y535426D01*
X263250Y535582D01*
D02*
G37*
G36*
X547750Y532200D02*
X546836Y532080D01*
X545985Y531727D01*
X545254Y531166D01*
X544693Y530435D01*
X544340Y529584D01*
X544220Y528670D01*
X544340Y527756D01*
X544693Y526905D01*
X545254Y526174D01*
X545985Y525613D01*
X546836Y525260D01*
X547750Y525140D01*
X548664Y525260D01*
X549515Y525613D01*
X550246Y526174D01*
X550807Y526905D01*
X551160Y527756D01*
X551280Y528670D01*
X551160Y529584D01*
X550807Y530435D01*
X550246Y531166D01*
X549515Y531727D01*
X548664Y532080D01*
X547750Y532200D01*
D02*
G37*
G36*
X517500Y530730D02*
X516586Y530610D01*
X515735Y530257D01*
X515004Y529696D01*
X514443Y528965D01*
X514090Y528114D01*
X513970Y527200D01*
X514090Y526286D01*
X514443Y525435D01*
X515004Y524704D01*
X515735Y524143D01*
X516586Y523790D01*
X517500Y523670D01*
X518414Y523790D01*
X519265Y524143D01*
X519996Y524704D01*
X520557Y525435D01*
X520910Y526286D01*
X521030Y527200D01*
X520910Y528114D01*
X520557Y528965D01*
X519996Y529696D01*
X519265Y530257D01*
X518414Y530610D01*
X517500Y530730D01*
D02*
G37*
G36*
X244750Y537260D02*
X242895Y537078D01*
X241111Y536536D01*
X239466Y535658D01*
X238025Y534475D01*
X236842Y533034D01*
X235964Y531390D01*
X235422Y529605D01*
X235240Y527750D01*
X235422Y525895D01*
X235964Y524111D01*
X236842Y522466D01*
X238025Y521025D01*
X239466Y519842D01*
X241111Y518964D01*
X242895Y518422D01*
X244750Y518240D01*
X246605Y518422D01*
X248389Y518964D01*
X250034Y519842D01*
X251475Y521025D01*
X252658Y522466D01*
X253536Y524111D01*
X254078Y525895D01*
X254260Y527750D01*
X254078Y529605D01*
X253536Y531390D01*
X252658Y533034D01*
X251475Y534475D01*
X250034Y535658D01*
X248389Y536536D01*
X246605Y537078D01*
X244750Y537260D01*
D02*
G37*
G36*
X911250Y536760D02*
X909395Y536578D01*
X907611Y536036D01*
X905966Y535158D01*
X904525Y533975D01*
X903342Y532534D01*
X902464Y530890D01*
X901922Y529105D01*
X901740Y527250D01*
X901922Y525395D01*
X902464Y523610D01*
X903342Y521966D01*
X904525Y520525D01*
X905966Y519342D01*
X907611Y518464D01*
X909395Y517922D01*
X911250Y517740D01*
X913105Y517922D01*
X914890Y518464D01*
X916534Y519342D01*
X917975Y520525D01*
X919158Y521966D01*
X920036Y523610D01*
X920578Y525395D01*
X920760Y527250D01*
X920578Y529105D01*
X920036Y530890D01*
X919158Y532534D01*
X917975Y533975D01*
X916534Y535158D01*
X914890Y536036D01*
X913105Y536578D01*
X911250Y536760D01*
D02*
G37*
G36*
X660307Y525864D02*
X659177Y525715D01*
X658125Y525279D01*
X657221Y524586D01*
X656528Y523682D01*
X656092Y522629D01*
X655943Y521500D01*
X656092Y520370D01*
X656528Y519318D01*
X657221Y518414D01*
X658125Y517721D01*
X659177Y517285D01*
X660307Y517136D01*
X661437Y517285D01*
X662489Y517721D01*
X663393Y518414D01*
X664086Y519318D01*
X664522Y520370D01*
X664671Y521500D01*
X664522Y522629D01*
X664086Y523682D01*
X663393Y524586D01*
X662489Y525279D01*
X661437Y525715D01*
X660307Y525864D01*
D02*
G37*
G36*
X649402D02*
X648272Y525715D01*
X647220Y525279D01*
X646316Y524586D01*
X645622Y523682D01*
X645186Y522629D01*
X645038Y521500D01*
X645186Y520370D01*
X645622Y519318D01*
X646316Y518414D01*
X647220Y517721D01*
X648272Y517285D01*
X649402Y517136D01*
X650531Y517285D01*
X651584Y517721D01*
X652487Y518414D01*
X653181Y519318D01*
X653617Y520370D01*
X653766Y521500D01*
X653617Y522629D01*
X653181Y523682D01*
X652487Y524586D01*
X651584Y525279D01*
X650531Y525715D01*
X649402Y525864D01*
D02*
G37*
G36*
X638496D02*
X637366Y525715D01*
X636314Y525279D01*
X635410Y524586D01*
X634717Y523682D01*
X634281Y522629D01*
X634132Y521500D01*
X634281Y520370D01*
X634717Y519318D01*
X635410Y518414D01*
X636314Y517721D01*
X637366Y517285D01*
X638496Y517136D01*
X639626Y517285D01*
X640678Y517721D01*
X641582Y518414D01*
X642275Y519318D01*
X642711Y520370D01*
X642860Y521500D01*
X642711Y522629D01*
X642275Y523682D01*
X641582Y524586D01*
X640678Y525279D01*
X639626Y525715D01*
X638496Y525864D01*
D02*
G37*
G36*
X627591D02*
X626461Y525715D01*
X625409Y525279D01*
X624505Y524586D01*
X623811Y523682D01*
X623375Y522629D01*
X623226Y521500D01*
X623375Y520370D01*
X623811Y519318D01*
X624505Y518414D01*
X625409Y517721D01*
X626461Y517285D01*
X627591Y517136D01*
X628720Y517285D01*
X629773Y517721D01*
X630676Y518414D01*
X631370Y519318D01*
X631806Y520370D01*
X631955Y521500D01*
X631806Y522629D01*
X631370Y523682D01*
X630676Y524586D01*
X629773Y525279D01*
X628720Y525715D01*
X627591Y525864D01*
D02*
G37*
G36*
X616685D02*
X615555Y525715D01*
X614503Y525279D01*
X613599Y524586D01*
X612906Y523682D01*
X612470Y522629D01*
X612321Y521500D01*
X612470Y520370D01*
X612906Y519318D01*
X613599Y518414D01*
X614503Y517721D01*
X615555Y517285D01*
X616685Y517136D01*
X617815Y517285D01*
X618867Y517721D01*
X619771Y518414D01*
X620465Y519318D01*
X620900Y520370D01*
X621049Y521500D01*
X620900Y522629D01*
X620465Y523682D01*
X619771Y524586D01*
X618867Y525279D01*
X617815Y525715D01*
X616685Y525864D01*
D02*
G37*
G36*
X605780D02*
X604650Y525715D01*
X603597Y525279D01*
X602694Y524586D01*
X602000Y523682D01*
X601564Y522629D01*
X601415Y521500D01*
X601564Y520370D01*
X602000Y519318D01*
X602694Y518414D01*
X603597Y517721D01*
X604650Y517285D01*
X605780Y517136D01*
X606909Y517285D01*
X607962Y517721D01*
X608865Y518414D01*
X609559Y519318D01*
X609995Y520370D01*
X610144Y521500D01*
X609995Y522629D01*
X609559Y523682D01*
X608865Y524586D01*
X607962Y525279D01*
X606909Y525715D01*
X605780Y525864D01*
D02*
G37*
G36*
X594874D02*
X593745Y525715D01*
X592692Y525279D01*
X591788Y524586D01*
X591095Y523682D01*
X590659Y522629D01*
X590510Y521500D01*
X590659Y520370D01*
X591095Y519318D01*
X591788Y518414D01*
X592692Y517721D01*
X593745Y517285D01*
X594874Y517136D01*
X596004Y517285D01*
X597056Y517721D01*
X597960Y518414D01*
X598654Y519318D01*
X599089Y520370D01*
X599238Y521500D01*
X599089Y522629D01*
X598654Y523682D01*
X597960Y524586D01*
X597056Y525279D01*
X596004Y525715D01*
X594874Y525864D01*
D02*
G37*
G36*
X500653Y525864D02*
X499523Y525715D01*
X498470Y525279D01*
X497567Y524586D01*
X496873Y523682D01*
X496437Y522629D01*
X496288Y521500D01*
X496437Y520370D01*
X496873Y519318D01*
X497567Y518414D01*
X498470Y517721D01*
X499523Y517285D01*
X500653Y517136D01*
X501782Y517285D01*
X502835Y517721D01*
X503738Y518414D01*
X504432Y519318D01*
X504868Y520370D01*
X505017Y521500D01*
X504868Y522629D01*
X504432Y523682D01*
X503738Y524586D01*
X502835Y525279D01*
X501782Y525715D01*
X500653Y525864D01*
D02*
G37*
G36*
X489747D02*
X488618Y525715D01*
X487565Y525279D01*
X486661Y524586D01*
X485968Y523682D01*
X485532Y522629D01*
X485383Y521500D01*
X485532Y520370D01*
X485968Y519318D01*
X486661Y518414D01*
X487565Y517721D01*
X488618Y517285D01*
X489747Y517136D01*
X490877Y517285D01*
X491929Y517721D01*
X492833Y518414D01*
X493527Y519318D01*
X493962Y520370D01*
X494111Y521500D01*
X493962Y522629D01*
X493527Y523682D01*
X492833Y524586D01*
X491929Y525279D01*
X490877Y525715D01*
X489747Y525864D01*
D02*
G37*
G36*
X478841D02*
X477712Y525715D01*
X476659Y525279D01*
X475756Y524586D01*
X475062Y523682D01*
X474626Y522629D01*
X474477Y521500D01*
X474626Y520370D01*
X475062Y519318D01*
X475756Y518414D01*
X476659Y517721D01*
X477712Y517285D01*
X478841Y517136D01*
X479971Y517285D01*
X481024Y517721D01*
X481927Y518414D01*
X482621Y519318D01*
X483057Y520370D01*
X483206Y521500D01*
X483057Y522629D01*
X482621Y523682D01*
X481927Y524586D01*
X481024Y525279D01*
X479971Y525715D01*
X478841Y525864D01*
D02*
G37*
G36*
X467936D02*
X466807Y525715D01*
X465754Y525279D01*
X464850Y524586D01*
X464157Y523682D01*
X463721Y522629D01*
X463572Y521500D01*
X463721Y520370D01*
X464157Y519318D01*
X464850Y518414D01*
X465754Y517721D01*
X466807Y517285D01*
X467936Y517136D01*
X469066Y517285D01*
X470118Y517721D01*
X471022Y518414D01*
X471715Y519318D01*
X472151Y520370D01*
X472300Y521500D01*
X472151Y522629D01*
X471715Y523682D01*
X471022Y524586D01*
X470118Y525279D01*
X469066Y525715D01*
X467936Y525864D01*
D02*
G37*
G36*
X375466D02*
X374337Y525715D01*
X373285Y525279D01*
X372381Y524586D01*
X371687Y523682D01*
X371251Y522629D01*
X371102Y521500D01*
X371251Y520370D01*
X371687Y519318D01*
X372381Y518414D01*
X373285Y517721D01*
X374337Y517285D01*
X375466Y517136D01*
X376596Y517285D01*
X377649Y517721D01*
X378552Y518414D01*
X379246Y519318D01*
X379682Y520370D01*
X379831Y521500D01*
X379682Y522629D01*
X379246Y523682D01*
X378552Y524586D01*
X377649Y525279D01*
X376596Y525715D01*
X375466Y525864D01*
D02*
G37*
G36*
X364561D02*
X363432Y525715D01*
X362379Y525279D01*
X361475Y524586D01*
X360782Y523682D01*
X360346Y522629D01*
X360197Y521500D01*
X360346Y520370D01*
X360782Y519318D01*
X361475Y518414D01*
X362379Y517721D01*
X363432Y517285D01*
X364561Y517136D01*
X365690Y517285D01*
X366743Y517721D01*
X367647Y518414D01*
X368340Y519318D01*
X368776Y520370D01*
X368925Y521500D01*
X368776Y522629D01*
X368340Y523682D01*
X367647Y524586D01*
X366743Y525279D01*
X365690Y525715D01*
X364561Y525864D01*
D02*
G37*
G36*
X353656D02*
X352526Y525715D01*
X351473Y525279D01*
X350570Y524586D01*
X349876Y523682D01*
X349440Y522629D01*
X349291Y521500D01*
X349440Y520370D01*
X349876Y519318D01*
X350570Y518414D01*
X351473Y517721D01*
X352526Y517285D01*
X353656Y517136D01*
X354785Y517285D01*
X355838Y517721D01*
X356741Y518414D01*
X357435Y519318D01*
X357871Y520370D01*
X358020Y521500D01*
X357871Y522629D01*
X357435Y523682D01*
X356741Y524586D01*
X355838Y525279D01*
X354785Y525715D01*
X353656Y525864D01*
D02*
G37*
G36*
X342750D02*
X341620Y525715D01*
X340568Y525279D01*
X339664Y524586D01*
X338971Y523682D01*
X338535Y522629D01*
X338386Y521500D01*
X338535Y520370D01*
X338971Y519318D01*
X339664Y518414D01*
X340568Y517721D01*
X341620Y517285D01*
X342750Y517136D01*
X343880Y517285D01*
X344932Y517721D01*
X345836Y518414D01*
X346529Y519318D01*
X346965Y520370D01*
X347114Y521500D01*
X346965Y522629D01*
X346529Y523682D01*
X345836Y524586D01*
X344932Y525279D01*
X343880Y525715D01*
X342750Y525864D01*
D02*
G37*
G36*
X290000Y525583D02*
X288814Y525426D01*
X287709Y524969D01*
X286760Y524240D01*
X286031Y523291D01*
X285574Y522186D01*
X285418Y521000D01*
X285574Y519814D01*
X286031Y518709D01*
X286760Y517760D01*
X287709Y517031D01*
X288814Y516574D01*
X290000Y516418D01*
X291186Y516574D01*
X292291Y517031D01*
X293240Y517760D01*
X293969Y518709D01*
X294426Y519814D01*
X294583Y521000D01*
X294426Y522186D01*
X293969Y523291D01*
X293240Y524240D01*
X292291Y524969D01*
X291186Y525426D01*
X290000Y525583D01*
D02*
G37*
G36*
X276625D02*
X275439Y525426D01*
X274334Y524969D01*
X273385Y524240D01*
X272656Y523291D01*
X272199Y522186D01*
X272042Y521000D01*
X272199Y519814D01*
X272656Y518709D01*
X273385Y517760D01*
X274334Y517031D01*
X275439Y516574D01*
X276625Y516418D01*
X277811Y516574D01*
X278916Y517031D01*
X279865Y517760D01*
X280594Y518709D01*
X281051Y519814D01*
X281207Y521000D01*
X281051Y522186D01*
X280594Y523291D01*
X279865Y524240D01*
X278916Y524969D01*
X277811Y525426D01*
X276625Y525583D01*
D02*
G37*
G36*
X263250D02*
X262064Y525426D01*
X260959Y524969D01*
X260010Y524240D01*
X259281Y523291D01*
X258824Y522186D01*
X258667Y521000D01*
X258824Y519814D01*
X259281Y518709D01*
X260010Y517760D01*
X260959Y517031D01*
X262064Y516574D01*
X263250Y516418D01*
X264436Y516574D01*
X265541Y517031D01*
X266490Y517760D01*
X267219Y518709D01*
X267676Y519814D01*
X267832Y521000D01*
X267676Y522186D01*
X267219Y523291D01*
X266490Y524240D01*
X265541Y524969D01*
X264436Y525426D01*
X263250Y525583D01*
D02*
G37*
G36*
X669000Y521530D02*
X668086Y521410D01*
X667235Y521057D01*
X666504Y520496D01*
X665943Y519765D01*
X665590Y518914D01*
X665470Y518000D01*
X665590Y517086D01*
X665943Y516235D01*
X666504Y515504D01*
X667235Y514943D01*
X668086Y514590D01*
X669000Y514470D01*
X669914Y514590D01*
X670765Y514943D01*
X671496Y515504D01*
X672057Y516235D01*
X672410Y517086D01*
X672530Y518000D01*
X672410Y518914D01*
X672057Y519765D01*
X671496Y520496D01*
X670765Y521057D01*
X669914Y521410D01*
X669000Y521530D01*
D02*
G37*
G36*
X533487Y531902D02*
X531860Y531774D01*
X530273Y531393D01*
X528765Y530768D01*
X527373Y529916D01*
X526132Y528855D01*
X525072Y527614D01*
X524219Y526223D01*
X523594Y524714D01*
X523213Y523127D01*
X523085Y521500D01*
X523213Y519873D01*
X523594Y518286D01*
X524219Y516778D01*
X525072Y515386D01*
X526132Y514145D01*
X527373Y513085D01*
X528765Y512232D01*
X530273Y511607D01*
X531860Y511226D01*
X533487Y511098D01*
X535114Y511226D01*
X536702Y511607D01*
X538210Y512232D01*
X539601Y513085D01*
X540843Y514145D01*
X541903Y515386D01*
X542756Y516778D01*
X543380Y518286D01*
X543761Y519873D01*
X543889Y521500D01*
X543761Y523127D01*
X543380Y524714D01*
X542756Y526223D01*
X541903Y527614D01*
X540843Y528855D01*
X539601Y529916D01*
X538210Y530768D01*
X536702Y531393D01*
X535114Y531774D01*
X533487Y531902D01*
D02*
G37*
G36*
X435101D02*
X433474Y531774D01*
X431887Y531393D01*
X430379Y530768D01*
X428987Y529916D01*
X427746Y528855D01*
X426686Y527614D01*
X425833Y526223D01*
X425208Y524714D01*
X424827Y523127D01*
X424699Y521500D01*
X424827Y519873D01*
X425208Y518286D01*
X425833Y516778D01*
X426686Y515386D01*
X427746Y514145D01*
X428987Y513085D01*
X430379Y512232D01*
X431887Y511607D01*
X433474Y511226D01*
X435101Y511098D01*
X436729Y511226D01*
X438316Y511607D01*
X439824Y512232D01*
X441216Y513085D01*
X442457Y514145D01*
X443517Y515386D01*
X444370Y516778D01*
X444994Y518286D01*
X445375Y519873D01*
X445504Y521500D01*
X445375Y523127D01*
X444994Y524714D01*
X444370Y526223D01*
X443517Y527614D01*
X442457Y528855D01*
X441216Y529916D01*
X439824Y530768D01*
X438316Y531393D01*
X436729Y531774D01*
X435101Y531902D01*
D02*
G37*
G36*
X408301D02*
X406674Y531774D01*
X405087Y531393D01*
X403579Y530768D01*
X402187Y529916D01*
X400946Y528855D01*
X399886Y527614D01*
X399033Y526223D01*
X398408Y524714D01*
X398027Y523127D01*
X397899Y521500D01*
X398027Y519873D01*
X398408Y518286D01*
X399033Y516778D01*
X399886Y515386D01*
X400946Y514145D01*
X402187Y513085D01*
X403579Y512232D01*
X405087Y511607D01*
X406674Y511226D01*
X408301Y511098D01*
X409928Y511226D01*
X411516Y511607D01*
X413024Y512232D01*
X414415Y513085D01*
X415657Y514145D01*
X416717Y515386D01*
X417570Y516778D01*
X418194Y518286D01*
X418575Y519873D01*
X418703Y521500D01*
X418575Y523127D01*
X418194Y524714D01*
X417570Y526223D01*
X416717Y527614D01*
X415657Y528855D01*
X414415Y529916D01*
X413024Y530768D01*
X411516Y531393D01*
X409928Y531774D01*
X408301Y531902D01*
D02*
G37*
G36*
X309915D02*
X308288Y531774D01*
X306701Y531393D01*
X305193Y530768D01*
X303801Y529916D01*
X302560Y528855D01*
X301500Y527614D01*
X300647Y526223D01*
X300022Y524714D01*
X299641Y523127D01*
X299513Y521500D01*
X299641Y519873D01*
X300022Y518286D01*
X300647Y516778D01*
X301500Y515386D01*
X302560Y514145D01*
X303801Y513085D01*
X305193Y512232D01*
X306701Y511607D01*
X308288Y511226D01*
X309915Y511098D01*
X311543Y511226D01*
X313130Y511607D01*
X314638Y512232D01*
X316030Y513085D01*
X317271Y514145D01*
X318331Y515386D01*
X319184Y516778D01*
X319808Y518286D01*
X320189Y519873D01*
X320318Y521500D01*
X320189Y523127D01*
X319808Y524714D01*
X319184Y526223D01*
X318331Y527614D01*
X317271Y528855D01*
X316030Y529916D01*
X314638Y530768D01*
X313130Y531393D01*
X311543Y531774D01*
X309915Y531902D01*
D02*
G37*
G36*
X693181Y531981D02*
X691541Y531852D01*
X689942Y531468D01*
X688423Y530839D01*
X687020Y529979D01*
X685770Y528911D01*
X684702Y527661D01*
X683842Y526258D01*
X683213Y524739D01*
X682829Y523140D01*
X682700Y521500D01*
X682829Y519860D01*
X683213Y518261D01*
X683842Y516742D01*
X684702Y515339D01*
X685770Y514089D01*
X687020Y513021D01*
X688423Y512161D01*
X689942Y511532D01*
X691541Y511148D01*
X693181Y511019D01*
X694821Y511148D01*
X696420Y511532D01*
X697939Y512161D01*
X699342Y513021D01*
X700592Y514089D01*
X701660Y515339D01*
X702520Y516742D01*
X703149Y518261D01*
X703533Y519860D01*
X703662Y521500D01*
X703533Y523140D01*
X703149Y524739D01*
X702520Y526258D01*
X701660Y527661D01*
X700592Y528911D01*
X699342Y529979D01*
X697939Y530839D01*
X696420Y531468D01*
X694821Y531852D01*
X693181Y531981D01*
D02*
G37*
G36*
X562000D02*
X560360Y531852D01*
X558761Y531468D01*
X557242Y530839D01*
X555839Y529979D01*
X554589Y528911D01*
X553521Y527661D01*
X552661Y526258D01*
X552032Y524739D01*
X551648Y523140D01*
X551519Y521500D01*
X551648Y519860D01*
X552032Y518261D01*
X552661Y516742D01*
X553521Y515339D01*
X554589Y514089D01*
X555839Y513021D01*
X557242Y512161D01*
X558761Y511532D01*
X560360Y511148D01*
X562000Y511019D01*
X563640Y511148D01*
X565239Y511532D01*
X566758Y512161D01*
X568161Y513021D01*
X569411Y514089D01*
X570479Y515339D01*
X571339Y516742D01*
X571968Y518261D01*
X572352Y519860D01*
X572481Y521500D01*
X572352Y523140D01*
X571968Y524739D01*
X571339Y526258D01*
X570479Y527661D01*
X569411Y528911D01*
X568161Y529979D01*
X566758Y530839D01*
X565239Y531468D01*
X563640Y531852D01*
X562000Y531981D01*
D02*
G37*
G36*
X451253Y514530D02*
X450339Y514410D01*
X449488Y514057D01*
X448757Y513496D01*
X448196Y512765D01*
X447843Y511914D01*
X447723Y511000D01*
X447843Y510086D01*
X448196Y509235D01*
X448757Y508504D01*
X449488Y507943D01*
X450339Y507590D01*
X451253Y507470D01*
X452167Y507590D01*
X453018Y507943D01*
X453749Y508504D01*
X454310Y509235D01*
X454663Y510086D01*
X454783Y511000D01*
X454663Y511914D01*
X454310Y512765D01*
X453749Y513496D01*
X453018Y514057D01*
X452167Y514410D01*
X451253Y514530D01*
D02*
G37*
G36*
X290000Y515583D02*
X288814Y515426D01*
X287709Y514969D01*
X286760Y514240D01*
X286031Y513291D01*
X285574Y512186D01*
X285418Y511000D01*
X285574Y509814D01*
X286031Y508709D01*
X286760Y507760D01*
X287709Y507031D01*
X288814Y506574D01*
X290000Y506418D01*
X291186Y506574D01*
X292291Y507031D01*
X293240Y507760D01*
X293969Y508709D01*
X294426Y509814D01*
X294583Y511000D01*
X294426Y512186D01*
X293969Y513291D01*
X293240Y514240D01*
X292291Y514969D01*
X291186Y515426D01*
X290000Y515583D01*
D02*
G37*
G36*
X276625D02*
X275439Y515426D01*
X274334Y514969D01*
X273385Y514240D01*
X272656Y513291D01*
X272199Y512186D01*
X272042Y511000D01*
X272199Y509814D01*
X272656Y508709D01*
X273385Y507760D01*
X274334Y507031D01*
X275439Y506574D01*
X276625Y506418D01*
X277811Y506574D01*
X278916Y507031D01*
X279865Y507760D01*
X280594Y508709D01*
X281051Y509814D01*
X281207Y511000D01*
X281051Y512186D01*
X280594Y513291D01*
X279865Y514240D01*
X278916Y514969D01*
X277811Y515426D01*
X276625Y515583D01*
D02*
G37*
G36*
X263250D02*
X262064Y515426D01*
X260959Y514969D01*
X260010Y514240D01*
X259281Y513291D01*
X258824Y512186D01*
X258667Y511000D01*
X258824Y509814D01*
X259281Y508709D01*
X260010Y507760D01*
X260959Y507031D01*
X262064Y506574D01*
X263250Y506418D01*
X264436Y506574D01*
X265541Y507031D01*
X266490Y507760D01*
X267219Y508709D01*
X267676Y509814D01*
X267832Y511000D01*
X267676Y512186D01*
X267219Y513291D01*
X266490Y514240D01*
X265541Y514969D01*
X264436Y515426D01*
X263250Y515583D01*
D02*
G37*
G36*
X593748Y514646D02*
X585094D01*
Y505992D01*
X593748D01*
Y514646D01*
D02*
G37*
G36*
X466810Y514646D02*
X458156D01*
Y505992D01*
X466810D01*
Y514646D01*
D02*
G37*
G36*
X341624D02*
X332970D01*
Y505992D01*
X341624D01*
Y514646D01*
D02*
G37*
G36*
X654854Y514683D02*
X653725Y514534D01*
X652672Y514098D01*
X651768Y513405D01*
X651075Y512501D01*
X650639Y511448D01*
X650490Y510319D01*
X650639Y509189D01*
X651075Y508137D01*
X651768Y507233D01*
X652672Y506539D01*
X653725Y506104D01*
X654854Y505955D01*
X655984Y506104D01*
X657036Y506539D01*
X657940Y507233D01*
X658634Y508137D01*
X659070Y509189D01*
X659218Y510319D01*
X659070Y511448D01*
X658634Y512501D01*
X657940Y513405D01*
X657036Y514098D01*
X655984Y514534D01*
X654854Y514683D01*
D02*
G37*
G36*
X643949D02*
X642819Y514534D01*
X641767Y514098D01*
X640863Y513405D01*
X640169Y512501D01*
X639734Y511448D01*
X639585Y510319D01*
X639734Y509189D01*
X640169Y508137D01*
X640863Y507233D01*
X641767Y506539D01*
X642819Y506104D01*
X643949Y505955D01*
X645078Y506104D01*
X646131Y506539D01*
X647035Y507233D01*
X647728Y508137D01*
X648164Y509189D01*
X648313Y510319D01*
X648164Y511448D01*
X647728Y512501D01*
X647035Y513405D01*
X646131Y514098D01*
X645078Y514534D01*
X643949Y514683D01*
D02*
G37*
G36*
X633043D02*
X631914Y514534D01*
X630861Y514098D01*
X629957Y513405D01*
X629264Y512501D01*
X628828Y511448D01*
X628679Y510319D01*
X628828Y509189D01*
X629264Y508137D01*
X629957Y507233D01*
X630861Y506539D01*
X631914Y506104D01*
X633043Y505955D01*
X634173Y506104D01*
X635225Y506539D01*
X636129Y507233D01*
X636823Y508137D01*
X637259Y509189D01*
X637407Y510319D01*
X637259Y511448D01*
X636823Y512501D01*
X636129Y513405D01*
X635225Y514098D01*
X634173Y514534D01*
X633043Y514683D01*
D02*
G37*
G36*
X622138D02*
X621008Y514534D01*
X619956Y514098D01*
X619052Y513405D01*
X618358Y512501D01*
X617922Y511448D01*
X617774Y510319D01*
X617922Y509189D01*
X618358Y508137D01*
X619052Y507233D01*
X619956Y506539D01*
X621008Y506104D01*
X622138Y505955D01*
X623267Y506104D01*
X624320Y506539D01*
X625224Y507233D01*
X625917Y508137D01*
X626353Y509189D01*
X626502Y510319D01*
X626353Y511448D01*
X625917Y512501D01*
X625224Y513405D01*
X624320Y514098D01*
X623267Y514534D01*
X622138Y514683D01*
D02*
G37*
G36*
X611232D02*
X610103Y514534D01*
X609050Y514098D01*
X608146Y513405D01*
X607453Y512501D01*
X607017Y511448D01*
X606868Y510319D01*
X607017Y509189D01*
X607453Y508137D01*
X608146Y507233D01*
X609050Y506539D01*
X610103Y506104D01*
X611232Y505955D01*
X612362Y506104D01*
X613414Y506539D01*
X614318Y507233D01*
X615012Y508137D01*
X615448Y509189D01*
X615596Y510319D01*
X615448Y511448D01*
X615012Y512501D01*
X614318Y513405D01*
X613414Y514098D01*
X612362Y514534D01*
X611232Y514683D01*
D02*
G37*
G36*
X600327D02*
X599197Y514534D01*
X598145Y514098D01*
X597241Y513405D01*
X596547Y512501D01*
X596111Y511448D01*
X595963Y510319D01*
X596111Y509189D01*
X596547Y508137D01*
X597241Y507233D01*
X598145Y506539D01*
X599197Y506104D01*
X600327Y505955D01*
X601456Y506104D01*
X602509Y506539D01*
X603413Y507233D01*
X604106Y508137D01*
X604542Y509189D01*
X604691Y510319D01*
X604542Y511448D01*
X604106Y512501D01*
X603413Y513405D01*
X602509Y514098D01*
X601456Y514534D01*
X600327Y514683D01*
D02*
G37*
G36*
X665760Y514683D02*
X664630Y514534D01*
X663578Y514098D01*
X662674Y513405D01*
X661980Y512501D01*
X661544Y511448D01*
X661396Y510319D01*
X661544Y509189D01*
X661980Y508137D01*
X662674Y507233D01*
X663578Y506539D01*
X664630Y506104D01*
X665760Y505955D01*
X666889Y506104D01*
X667942Y506539D01*
X668846Y507233D01*
X669539Y508137D01*
X669975Y509189D01*
X670124Y510319D01*
X669975Y511448D01*
X669539Y512501D01*
X668846Y513405D01*
X667942Y514098D01*
X666889Y514534D01*
X665760Y514683D01*
D02*
G37*
G36*
X506105Y514683D02*
X504976Y514534D01*
X503923Y514098D01*
X503019Y513405D01*
X502326Y512501D01*
X501890Y511448D01*
X501741Y510319D01*
X501890Y509189D01*
X502326Y508137D01*
X503019Y507233D01*
X503923Y506539D01*
X504976Y506104D01*
X506105Y505955D01*
X507235Y506104D01*
X508287Y506539D01*
X509191Y507233D01*
X509885Y508137D01*
X510321Y509189D01*
X510469Y510319D01*
X510321Y511448D01*
X509885Y512501D01*
X509191Y513405D01*
X508287Y514098D01*
X507235Y514534D01*
X506105Y514683D01*
D02*
G37*
G36*
X484294D02*
X483165Y514534D01*
X482112Y514098D01*
X481208Y513405D01*
X480515Y512501D01*
X480079Y511448D01*
X479930Y510319D01*
X480079Y509189D01*
X480515Y508137D01*
X481208Y507233D01*
X482112Y506539D01*
X483165Y506104D01*
X484294Y505955D01*
X485424Y506104D01*
X486476Y506539D01*
X487380Y507233D01*
X488074Y508137D01*
X488510Y509189D01*
X488658Y510319D01*
X488510Y511448D01*
X488074Y512501D01*
X487380Y513405D01*
X486476Y514098D01*
X485424Y514534D01*
X484294Y514683D01*
D02*
G37*
G36*
X473389D02*
X472259Y514534D01*
X471207Y514098D01*
X470303Y513405D01*
X469609Y512501D01*
X469173Y511448D01*
X469025Y510319D01*
X469173Y509189D01*
X469609Y508137D01*
X470303Y507233D01*
X471207Y506539D01*
X472259Y506104D01*
X473389Y505955D01*
X474518Y506104D01*
X475571Y506539D01*
X476475Y507233D01*
X477168Y508137D01*
X477604Y509189D01*
X477753Y510319D01*
X477604Y511448D01*
X477168Y512501D01*
X476475Y513405D01*
X475571Y514098D01*
X474518Y514534D01*
X473389Y514683D01*
D02*
G37*
G36*
X380919D02*
X379790Y514534D01*
X378737Y514098D01*
X377833Y513405D01*
X377140Y512501D01*
X376704Y511448D01*
X376555Y510319D01*
X376704Y509189D01*
X377140Y508137D01*
X377833Y507233D01*
X378737Y506539D01*
X379790Y506104D01*
X380919Y505955D01*
X382049Y506104D01*
X383101Y506539D01*
X384005Y507233D01*
X384699Y508137D01*
X385135Y509189D01*
X385283Y510319D01*
X385135Y511448D01*
X384699Y512501D01*
X384005Y513405D01*
X383101Y514098D01*
X382049Y514534D01*
X380919Y514683D01*
D02*
G37*
G36*
X370014D02*
X368884Y514534D01*
X367832Y514098D01*
X366928Y513405D01*
X366234Y512501D01*
X365798Y511448D01*
X365650Y510319D01*
X365798Y509189D01*
X366234Y508137D01*
X366928Y507233D01*
X367832Y506539D01*
X368884Y506104D01*
X370014Y505955D01*
X371143Y506104D01*
X372196Y506539D01*
X373100Y507233D01*
X373793Y508137D01*
X374229Y509189D01*
X374378Y510319D01*
X374229Y511448D01*
X373793Y512501D01*
X373100Y513405D01*
X372196Y514098D01*
X371143Y514534D01*
X370014Y514683D01*
D02*
G37*
G36*
X359108D02*
X357979Y514534D01*
X356926Y514098D01*
X356022Y513405D01*
X355329Y512501D01*
X354893Y511448D01*
X354744Y510319D01*
X354893Y509189D01*
X355329Y508137D01*
X356022Y507233D01*
X356926Y506539D01*
X357979Y506104D01*
X359108Y505955D01*
X360238Y506104D01*
X361290Y506539D01*
X362194Y507233D01*
X362888Y508137D01*
X363324Y509189D01*
X363472Y510319D01*
X363324Y511448D01*
X362888Y512501D01*
X362194Y513405D01*
X361290Y514098D01*
X360238Y514534D01*
X359108Y514683D01*
D02*
G37*
G36*
X348203D02*
X347073Y514534D01*
X346021Y514098D01*
X345117Y513405D01*
X344423Y512501D01*
X343987Y511448D01*
X343839Y510319D01*
X343987Y509189D01*
X344423Y508137D01*
X345117Y507233D01*
X346021Y506539D01*
X347073Y506104D01*
X348203Y505955D01*
X349332Y506104D01*
X350385Y506539D01*
X351289Y507233D01*
X351982Y508137D01*
X352418Y509189D01*
X352567Y510319D01*
X352418Y511448D01*
X351982Y512501D01*
X351289Y513405D01*
X350385Y514098D01*
X349332Y514534D01*
X348203Y514683D01*
D02*
G37*
G36*
X578051Y508081D02*
X577138Y507961D01*
X576286Y507608D01*
X575555Y507047D01*
X574994Y506316D01*
X574641Y505465D01*
X574521Y504551D01*
X574641Y503638D01*
X574994Y502786D01*
X575555Y502055D01*
X576286Y501494D01*
X577138Y501141D01*
X578051Y501021D01*
X578965Y501141D01*
X579816Y501494D01*
X580547Y502055D01*
X581108Y502786D01*
X581461Y503638D01*
X581581Y504551D01*
X581461Y505465D01*
X581108Y506316D01*
X580547Y507047D01*
X579816Y507608D01*
X578965Y507961D01*
X578051Y508081D01*
D02*
G37*
G36*
X737500Y507030D02*
X736586Y506910D01*
X735735Y506557D01*
X735004Y505996D01*
X734443Y505265D01*
X734090Y504414D01*
X733970Y503500D01*
X734090Y502586D01*
X734443Y501735D01*
X735004Y501004D01*
X735735Y500443D01*
X736586Y500090D01*
X737500Y499970D01*
X738414Y500090D01*
X739265Y500443D01*
X739996Y501004D01*
X740557Y501735D01*
X740910Y502586D01*
X741030Y503500D01*
X740910Y504414D01*
X740557Y505265D01*
X739996Y505996D01*
X739265Y506557D01*
X738414Y506910D01*
X737500Y507030D01*
D02*
G37*
G36*
X716979D02*
X716065Y506910D01*
X715214Y506557D01*
X714483Y505996D01*
X713922Y505265D01*
X713569Y504414D01*
X713449Y503500D01*
X713569Y502586D01*
X713922Y501735D01*
X714483Y501004D01*
X715214Y500443D01*
X716065Y500090D01*
X716979Y499970D01*
X717893Y500090D01*
X718744Y500443D01*
X719475Y501004D01*
X720036Y501735D01*
X720389Y502586D01*
X720509Y503500D01*
X720389Y504414D01*
X720036Y505265D01*
X719475Y505996D01*
X718744Y506557D01*
X717893Y506910D01*
X716979Y507030D01*
D02*
G37*
G36*
X868297Y513787D02*
X866943Y513654D01*
X865642Y513259D01*
X864442Y512618D01*
X863391Y511755D01*
X862528Y510704D01*
X861887Y509504D01*
X861492Y508202D01*
X861358Y506848D01*
X861492Y505495D01*
X861887Y504193D01*
X862528Y502993D01*
X863391Y501942D01*
X864442Y501079D01*
X865642Y500438D01*
X866943Y500043D01*
X868297Y499909D01*
X869651Y500043D01*
X870953Y500438D01*
X872152Y501079D01*
X873204Y501942D01*
X874067Y502993D01*
X874708Y504193D01*
X875103Y505495D01*
X875236Y506848D01*
X875103Y508202D01*
X874708Y509504D01*
X874067Y510704D01*
X873204Y511755D01*
X872152Y512618D01*
X870953Y513259D01*
X869651Y513654D01*
X868297Y513787D01*
D02*
G37*
G36*
X846644D02*
X845290Y513654D01*
X843988Y513259D01*
X842789Y512618D01*
X841737Y511755D01*
X840874Y510704D01*
X840233Y509504D01*
X839838Y508202D01*
X839705Y506848D01*
X839838Y505495D01*
X840233Y504193D01*
X840874Y502993D01*
X841737Y501942D01*
X842789Y501079D01*
X843988Y500438D01*
X845290Y500043D01*
X846644Y499909D01*
X847997Y500043D01*
X849299Y500438D01*
X850499Y501079D01*
X851550Y501942D01*
X852413Y502993D01*
X853054Y504193D01*
X853449Y505495D01*
X853583Y506848D01*
X853449Y508202D01*
X853054Y509504D01*
X852413Y510704D01*
X851550Y511755D01*
X850499Y512618D01*
X849299Y513259D01*
X847997Y513654D01*
X846644Y513787D01*
D02*
G37*
G36*
X824990D02*
X823636Y513654D01*
X822335Y513259D01*
X821135Y512618D01*
X820084Y511755D01*
X819221Y510704D01*
X818579Y509504D01*
X818185Y508202D01*
X818051Y506848D01*
X818185Y505495D01*
X818579Y504193D01*
X819221Y502993D01*
X820084Y501942D01*
X821135Y501079D01*
X822335Y500438D01*
X823636Y500043D01*
X824990Y499909D01*
X826344Y500043D01*
X827646Y500438D01*
X828845Y501079D01*
X829897Y501942D01*
X830760Y502993D01*
X831401Y504193D01*
X831796Y505495D01*
X831929Y506848D01*
X831796Y508202D01*
X831401Y509504D01*
X830760Y510704D01*
X829897Y511755D01*
X828845Y512618D01*
X827646Y513259D01*
X826344Y513654D01*
X824990Y513787D01*
D02*
G37*
G36*
X803337D02*
X801983Y513654D01*
X800681Y513259D01*
X799482Y512618D01*
X798430Y511755D01*
X797567Y510704D01*
X796926Y509504D01*
X796531Y508202D01*
X796398Y506848D01*
X796531Y505495D01*
X796926Y504193D01*
X797567Y502993D01*
X798430Y501942D01*
X799482Y501079D01*
X800681Y500438D01*
X801983Y500043D01*
X803337Y499909D01*
X804690Y500043D01*
X805992Y500438D01*
X807192Y501079D01*
X808243Y501942D01*
X809106Y502993D01*
X809747Y504193D01*
X810142Y505495D01*
X810275Y506848D01*
X810142Y508202D01*
X809747Y509504D01*
X809106Y510704D01*
X808243Y511755D01*
X807192Y512618D01*
X805992Y513259D01*
X804690Y513654D01*
X803337Y513787D01*
D02*
G37*
G36*
X258250Y505780D02*
X257336Y505660D01*
X256485Y505307D01*
X255754Y504746D01*
X255193Y504015D01*
X254840Y503164D01*
X254720Y502250D01*
X254840Y501336D01*
X255193Y500485D01*
X255754Y499754D01*
X256485Y499193D01*
X257336Y498840D01*
X258250Y498720D01*
X259164Y498840D01*
X260015Y499193D01*
X260746Y499754D01*
X261307Y500485D01*
X261660Y501336D01*
X261780Y502250D01*
X261660Y503164D01*
X261307Y504015D01*
X260746Y504746D01*
X260015Y505307D01*
X259164Y505660D01*
X258250Y505780D01*
D02*
G37*
G36*
X660307Y499264D02*
X659177Y499115D01*
X658125Y498679D01*
X657221Y497986D01*
X656528Y497082D01*
X656092Y496030D01*
X655943Y494900D01*
X656092Y493771D01*
X656528Y492718D01*
X657221Y491814D01*
X658125Y491121D01*
X659177Y490685D01*
X660307Y490536D01*
X661437Y490685D01*
X662489Y491121D01*
X663393Y491814D01*
X664086Y492718D01*
X664522Y493771D01*
X664671Y494900D01*
X664522Y496030D01*
X664086Y497082D01*
X663393Y497986D01*
X662489Y498679D01*
X661437Y499115D01*
X660307Y499264D01*
D02*
G37*
G36*
X649402D02*
X648272Y499115D01*
X647220Y498679D01*
X646316Y497986D01*
X645622Y497082D01*
X645186Y496030D01*
X645038Y494900D01*
X645186Y493771D01*
X645622Y492718D01*
X646316Y491814D01*
X647220Y491121D01*
X648272Y490685D01*
X649402Y490536D01*
X650531Y490685D01*
X651584Y491121D01*
X652487Y491814D01*
X653181Y492718D01*
X653617Y493771D01*
X653766Y494900D01*
X653617Y496030D01*
X653181Y497082D01*
X652487Y497986D01*
X651584Y498679D01*
X650531Y499115D01*
X649402Y499264D01*
D02*
G37*
G36*
X638496D02*
X637366Y499115D01*
X636314Y498679D01*
X635410Y497986D01*
X634717Y497082D01*
X634281Y496030D01*
X634132Y494900D01*
X634281Y493771D01*
X634717Y492718D01*
X635410Y491814D01*
X636314Y491121D01*
X637366Y490685D01*
X638496Y490536D01*
X639626Y490685D01*
X640678Y491121D01*
X641582Y491814D01*
X642275Y492718D01*
X642711Y493771D01*
X642860Y494900D01*
X642711Y496030D01*
X642275Y497082D01*
X641582Y497986D01*
X640678Y498679D01*
X639626Y499115D01*
X638496Y499264D01*
D02*
G37*
G36*
X627591D02*
X626461Y499115D01*
X625409Y498679D01*
X624505Y497986D01*
X623811Y497082D01*
X623375Y496030D01*
X623226Y494900D01*
X623375Y493771D01*
X623811Y492718D01*
X624505Y491814D01*
X625409Y491121D01*
X626461Y490685D01*
X627591Y490536D01*
X628720Y490685D01*
X629773Y491121D01*
X630676Y491814D01*
X631370Y492718D01*
X631806Y493771D01*
X631955Y494900D01*
X631806Y496030D01*
X631370Y497082D01*
X630676Y497986D01*
X629773Y498679D01*
X628720Y499115D01*
X627591Y499264D01*
D02*
G37*
G36*
X616685D02*
X615555Y499115D01*
X614503Y498679D01*
X613599Y497986D01*
X612906Y497082D01*
X612470Y496030D01*
X612321Y494900D01*
X612470Y493771D01*
X612906Y492718D01*
X613599Y491814D01*
X614503Y491121D01*
X615555Y490685D01*
X616685Y490536D01*
X617815Y490685D01*
X618867Y491121D01*
X619771Y491814D01*
X620465Y492718D01*
X620900Y493771D01*
X621049Y494900D01*
X620900Y496030D01*
X620465Y497082D01*
X619771Y497986D01*
X618867Y498679D01*
X617815Y499115D01*
X616685Y499264D01*
D02*
G37*
G36*
X605780D02*
X604650Y499115D01*
X603597Y498679D01*
X602694Y497986D01*
X602000Y497082D01*
X601564Y496030D01*
X601415Y494900D01*
X601564Y493771D01*
X602000Y492718D01*
X602694Y491814D01*
X603597Y491121D01*
X604650Y490685D01*
X605780Y490536D01*
X606909Y490685D01*
X607962Y491121D01*
X608865Y491814D01*
X609559Y492718D01*
X609995Y493771D01*
X610144Y494900D01*
X609995Y496030D01*
X609559Y497082D01*
X608865Y497986D01*
X607962Y498679D01*
X606909Y499115D01*
X605780Y499264D01*
D02*
G37*
G36*
X594874D02*
X593745Y499115D01*
X592692Y498679D01*
X591788Y497986D01*
X591095Y497082D01*
X590659Y496030D01*
X590510Y494900D01*
X590659Y493771D01*
X591095Y492718D01*
X591788Y491814D01*
X592692Y491121D01*
X593745Y490685D01*
X594874Y490536D01*
X596004Y490685D01*
X597056Y491121D01*
X597960Y491814D01*
X598654Y492718D01*
X599089Y493771D01*
X599238Y494900D01*
X599089Y496030D01*
X598654Y497082D01*
X597960Y497986D01*
X597056Y498679D01*
X596004Y499115D01*
X594874Y499264D01*
D02*
G37*
G36*
X500653Y499264D02*
X499523Y499115D01*
X498470Y498679D01*
X497567Y497986D01*
X496873Y497082D01*
X496437Y496030D01*
X496288Y494900D01*
X496437Y493771D01*
X496873Y492718D01*
X497567Y491814D01*
X498470Y491121D01*
X499523Y490685D01*
X500653Y490536D01*
X501782Y490685D01*
X502835Y491121D01*
X503738Y491814D01*
X504432Y492718D01*
X504868Y493771D01*
X505017Y494900D01*
X504868Y496030D01*
X504432Y497082D01*
X503738Y497986D01*
X502835Y498679D01*
X501782Y499115D01*
X500653Y499264D01*
D02*
G37*
G36*
X489747D02*
X488618Y499115D01*
X487565Y498679D01*
X486661Y497986D01*
X485968Y497082D01*
X485532Y496030D01*
X485383Y494900D01*
X485532Y493771D01*
X485968Y492718D01*
X486661Y491814D01*
X487565Y491121D01*
X488618Y490685D01*
X489747Y490536D01*
X490877Y490685D01*
X491929Y491121D01*
X492833Y491814D01*
X493527Y492718D01*
X493962Y493771D01*
X494111Y494900D01*
X493962Y496030D01*
X493527Y497082D01*
X492833Y497986D01*
X491929Y498679D01*
X490877Y499115D01*
X489747Y499264D01*
D02*
G37*
G36*
X478841D02*
X477712Y499115D01*
X476659Y498679D01*
X475756Y497986D01*
X475062Y497082D01*
X474626Y496030D01*
X474477Y494900D01*
X474626Y493771D01*
X475062Y492718D01*
X475756Y491814D01*
X476659Y491121D01*
X477712Y490685D01*
X478841Y490536D01*
X479971Y490685D01*
X481024Y491121D01*
X481927Y491814D01*
X482621Y492718D01*
X483057Y493771D01*
X483206Y494900D01*
X483057Y496030D01*
X482621Y497082D01*
X481927Y497986D01*
X481024Y498679D01*
X479971Y499115D01*
X478841Y499264D01*
D02*
G37*
G36*
X467936D02*
X466807Y499115D01*
X465754Y498679D01*
X464850Y497986D01*
X464157Y497082D01*
X463721Y496030D01*
X463572Y494900D01*
X463721Y493771D01*
X464157Y492718D01*
X464850Y491814D01*
X465754Y491121D01*
X466807Y490685D01*
X467936Y490536D01*
X469066Y490685D01*
X470118Y491121D01*
X471022Y491814D01*
X471715Y492718D01*
X472151Y493771D01*
X472300Y494900D01*
X472151Y496030D01*
X471715Y497082D01*
X471022Y497986D01*
X470118Y498679D01*
X469066Y499115D01*
X467936Y499264D01*
D02*
G37*
G36*
X375466D02*
X374337Y499115D01*
X373285Y498679D01*
X372381Y497986D01*
X371687Y497082D01*
X371251Y496030D01*
X371102Y494900D01*
X371251Y493771D01*
X371687Y492718D01*
X372381Y491814D01*
X373285Y491121D01*
X374337Y490685D01*
X375466Y490536D01*
X376596Y490685D01*
X377649Y491121D01*
X378552Y491814D01*
X379246Y492718D01*
X379682Y493771D01*
X379831Y494900D01*
X379682Y496030D01*
X379246Y497082D01*
X378552Y497986D01*
X377649Y498679D01*
X376596Y499115D01*
X375466Y499264D01*
D02*
G37*
G36*
X364561D02*
X363432Y499115D01*
X362379Y498679D01*
X361475Y497986D01*
X360782Y497082D01*
X360346Y496030D01*
X360197Y494900D01*
X360346Y493771D01*
X360782Y492718D01*
X361475Y491814D01*
X362379Y491121D01*
X363432Y490685D01*
X364561Y490536D01*
X365690Y490685D01*
X366743Y491121D01*
X367647Y491814D01*
X368340Y492718D01*
X368776Y493771D01*
X368925Y494900D01*
X368776Y496030D01*
X368340Y497082D01*
X367647Y497986D01*
X366743Y498679D01*
X365690Y499115D01*
X364561Y499264D01*
D02*
G37*
G36*
X252495Y495344D02*
X251582Y495224D01*
X250730Y494871D01*
X249999Y494310D01*
X249438Y493579D01*
X249085Y492728D01*
X248965Y491814D01*
X249085Y490900D01*
X249438Y490049D01*
X249999Y489318D01*
X250730Y488757D01*
X251582Y488404D01*
X252495Y488284D01*
X253409Y488404D01*
X254260Y488757D01*
X254992Y489318D01*
X255553Y490049D01*
X255905Y490900D01*
X256025Y491814D01*
X255905Y492728D01*
X255553Y493579D01*
X254992Y494310D01*
X254260Y494871D01*
X253409Y495224D01*
X252495Y495344D01*
D02*
G37*
G36*
X269500Y496143D02*
X267951Y495990D01*
X266462Y495539D01*
X265090Y494805D01*
X263887Y493818D01*
X262900Y492615D01*
X262166Y491243D01*
X261714Y489753D01*
X261562Y488205D01*
X261714Y486656D01*
X262166Y485167D01*
X262900Y483794D01*
X263887Y482592D01*
X265090Y481604D01*
X266462Y480871D01*
X267951Y480419D01*
X269500Y480267D01*
X271049Y480419D01*
X272538Y480871D01*
X273910Y481604D01*
X275113Y482592D01*
X276100Y483794D01*
X276834Y485167D01*
X277286Y486656D01*
X277438Y488205D01*
X277286Y489753D01*
X276834Y491243D01*
X276100Y492615D01*
X275113Y493818D01*
X273910Y494805D01*
X272538Y495539D01*
X271049Y495990D01*
X269500Y496143D01*
D02*
G37*
G36*
X693181Y500481D02*
X691541Y500352D01*
X689942Y499968D01*
X688423Y499339D01*
X687020Y498479D01*
X685770Y497411D01*
X684702Y496161D01*
X683842Y494758D01*
X683213Y493239D01*
X682829Y491640D01*
X682700Y490000D01*
X682829Y488360D01*
X683213Y486761D01*
X683842Y485242D01*
X684702Y483839D01*
X685770Y482589D01*
X687020Y481521D01*
X688423Y480661D01*
X689942Y480032D01*
X691541Y479648D01*
X693181Y479519D01*
X694821Y479648D01*
X696420Y480032D01*
X697939Y480661D01*
X699342Y481521D01*
X700592Y482589D01*
X701660Y483839D01*
X702520Y485242D01*
X703149Y486761D01*
X703533Y488360D01*
X703662Y490000D01*
X703533Y491640D01*
X703149Y493239D01*
X702520Y494758D01*
X701660Y496161D01*
X700592Y497411D01*
X699342Y498479D01*
X697939Y499339D01*
X696420Y499968D01*
X694821Y500352D01*
X693181Y500481D01*
D02*
G37*
G36*
X562000D02*
X560360Y500352D01*
X558761Y499968D01*
X557242Y499339D01*
X555839Y498479D01*
X554589Y497411D01*
X553521Y496161D01*
X552661Y494758D01*
X552032Y493239D01*
X551648Y491640D01*
X551519Y490000D01*
X551648Y488360D01*
X552032Y486761D01*
X552661Y485242D01*
X553521Y483839D01*
X554589Y482589D01*
X555839Y481521D01*
X557242Y480661D01*
X558761Y480032D01*
X560360Y479648D01*
X562000Y479519D01*
X563640Y479648D01*
X565239Y480032D01*
X566758Y480661D01*
X568161Y481521D01*
X569411Y482589D01*
X570479Y483839D01*
X571339Y485242D01*
X571968Y486761D01*
X572352Y488360D01*
X572481Y490000D01*
X572352Y491640D01*
X571968Y493239D01*
X571339Y494758D01*
X570479Y496161D01*
X569411Y497411D01*
X568161Y498479D01*
X566758Y499339D01*
X565239Y499968D01*
X563640Y500352D01*
X562000Y500481D01*
D02*
G37*
G36*
X466810Y488046D02*
X458156D01*
Y479392D01*
X466810D01*
Y488046D01*
D02*
G37*
G36*
X593748Y488027D02*
X585094D01*
Y479373D01*
X593748D01*
Y488027D01*
D02*
G37*
G36*
X506105Y488083D02*
X504976Y487934D01*
X503923Y487498D01*
X503019Y486805D01*
X502326Y485901D01*
X501890Y484848D01*
X501741Y483719D01*
X501890Y482589D01*
X502326Y481537D01*
X503019Y480633D01*
X503923Y479940D01*
X504976Y479503D01*
X506105Y479355D01*
X507235Y479503D01*
X508287Y479940D01*
X509191Y480633D01*
X509885Y481537D01*
X510321Y482589D01*
X510469Y483719D01*
X510321Y484848D01*
X509885Y485901D01*
X509191Y486805D01*
X508287Y487498D01*
X507235Y487934D01*
X506105Y488083D01*
D02*
G37*
G36*
X495200D02*
X494070Y487934D01*
X493018Y487498D01*
X492114Y486805D01*
X491420Y485901D01*
X490984Y484848D01*
X490836Y483719D01*
X490984Y482589D01*
X491420Y481537D01*
X492114Y480633D01*
X493018Y479940D01*
X494070Y479503D01*
X495200Y479355D01*
X496329Y479503D01*
X497382Y479940D01*
X498286Y480633D01*
X498979Y481537D01*
X499415Y482589D01*
X499564Y483719D01*
X499415Y484848D01*
X498979Y485901D01*
X498286Y486805D01*
X497382Y487498D01*
X496329Y487934D01*
X495200Y488083D01*
D02*
G37*
G36*
X484294D02*
X483165Y487934D01*
X482112Y487498D01*
X481208Y486805D01*
X480515Y485901D01*
X480079Y484848D01*
X479930Y483719D01*
X480079Y482589D01*
X480515Y481537D01*
X481208Y480633D01*
X482112Y479940D01*
X483165Y479503D01*
X484294Y479355D01*
X485424Y479503D01*
X486476Y479940D01*
X487380Y480633D01*
X488074Y481537D01*
X488510Y482589D01*
X488658Y483719D01*
X488510Y484848D01*
X488074Y485901D01*
X487380Y486805D01*
X486476Y487498D01*
X485424Y487934D01*
X484294Y488083D01*
D02*
G37*
G36*
X473389D02*
X472259Y487934D01*
X471207Y487498D01*
X470303Y486805D01*
X469609Y485901D01*
X469173Y484848D01*
X469025Y483719D01*
X469173Y482589D01*
X469609Y481537D01*
X470303Y480633D01*
X471207Y479940D01*
X472259Y479503D01*
X473389Y479355D01*
X474518Y479503D01*
X475571Y479940D01*
X476475Y480633D01*
X477168Y481537D01*
X477604Y482589D01*
X477753Y483719D01*
X477604Y484848D01*
X477168Y485901D01*
X476475Y486805D01*
X475571Y487498D01*
X474518Y487934D01*
X473389Y488083D01*
D02*
G37*
G36*
X380919D02*
X379790Y487934D01*
X378737Y487498D01*
X377833Y486805D01*
X377140Y485901D01*
X376704Y484848D01*
X376555Y483719D01*
X376704Y482589D01*
X377140Y481537D01*
X377833Y480633D01*
X378737Y479940D01*
X379790Y479503D01*
X380919Y479355D01*
X382049Y479503D01*
X383101Y479940D01*
X384005Y480633D01*
X384699Y481537D01*
X385135Y482589D01*
X385283Y483719D01*
X385135Y484848D01*
X384699Y485901D01*
X384005Y486805D01*
X383101Y487498D01*
X382049Y487934D01*
X380919Y488083D01*
D02*
G37*
G36*
X370014D02*
X368884Y487934D01*
X367832Y487498D01*
X366928Y486805D01*
X366234Y485901D01*
X365798Y484848D01*
X365650Y483719D01*
X365798Y482589D01*
X366234Y481537D01*
X366928Y480633D01*
X367832Y479940D01*
X368884Y479503D01*
X370014Y479355D01*
X371143Y479503D01*
X372196Y479940D01*
X373100Y480633D01*
X373793Y481537D01*
X374229Y482589D01*
X374378Y483719D01*
X374229Y484848D01*
X373793Y485901D01*
X373100Y486805D01*
X372196Y487498D01*
X371143Y487934D01*
X370014Y488083D01*
D02*
G37*
G36*
X665760Y488064D02*
X664630Y487915D01*
X663578Y487479D01*
X662674Y486786D01*
X661980Y485882D01*
X661544Y484830D01*
X661396Y483700D01*
X661544Y482571D01*
X661980Y481518D01*
X662674Y480614D01*
X663578Y479921D01*
X664630Y479485D01*
X665760Y479336D01*
X666889Y479485D01*
X667942Y479921D01*
X668846Y480614D01*
X669539Y481518D01*
X669975Y482571D01*
X670124Y483700D01*
X669975Y484830D01*
X669539Y485882D01*
X668846Y486786D01*
X667942Y487479D01*
X666889Y487915D01*
X665760Y488064D01*
D02*
G37*
G36*
X654854D02*
X653725Y487915D01*
X652672Y487479D01*
X651768Y486786D01*
X651075Y485882D01*
X650639Y484830D01*
X650490Y483700D01*
X650639Y482571D01*
X651075Y481518D01*
X651768Y480614D01*
X652672Y479921D01*
X653725Y479485D01*
X654854Y479336D01*
X655984Y479485D01*
X657036Y479921D01*
X657940Y480614D01*
X658634Y481518D01*
X659070Y482571D01*
X659218Y483700D01*
X659070Y484830D01*
X658634Y485882D01*
X657940Y486786D01*
X657036Y487479D01*
X655984Y487915D01*
X654854Y488064D01*
D02*
G37*
G36*
X643949D02*
X642819Y487915D01*
X641767Y487479D01*
X640863Y486786D01*
X640169Y485882D01*
X639734Y484830D01*
X639585Y483700D01*
X639734Y482571D01*
X640169Y481518D01*
X640863Y480614D01*
X641767Y479921D01*
X642819Y479485D01*
X643949Y479336D01*
X645078Y479485D01*
X646131Y479921D01*
X647035Y480614D01*
X647728Y481518D01*
X648164Y482571D01*
X648313Y483700D01*
X648164Y484830D01*
X647728Y485882D01*
X647035Y486786D01*
X646131Y487479D01*
X645078Y487915D01*
X643949Y488064D01*
D02*
G37*
G36*
X633043D02*
X631914Y487915D01*
X630861Y487479D01*
X629957Y486786D01*
X629264Y485882D01*
X628828Y484830D01*
X628679Y483700D01*
X628828Y482571D01*
X629264Y481518D01*
X629957Y480614D01*
X630861Y479921D01*
X631914Y479485D01*
X633043Y479336D01*
X634173Y479485D01*
X635225Y479921D01*
X636129Y480614D01*
X636823Y481518D01*
X637259Y482571D01*
X637407Y483700D01*
X637259Y484830D01*
X636823Y485882D01*
X636129Y486786D01*
X635225Y487479D01*
X634173Y487915D01*
X633043Y488064D01*
D02*
G37*
G36*
X622138D02*
X621008Y487915D01*
X619956Y487479D01*
X619052Y486786D01*
X618358Y485882D01*
X617922Y484830D01*
X617774Y483700D01*
X617922Y482571D01*
X618358Y481518D01*
X619052Y480614D01*
X619956Y479921D01*
X621008Y479485D01*
X622138Y479336D01*
X623267Y479485D01*
X624320Y479921D01*
X625224Y480614D01*
X625917Y481518D01*
X626353Y482571D01*
X626502Y483700D01*
X626353Y484830D01*
X625917Y485882D01*
X625224Y486786D01*
X624320Y487479D01*
X623267Y487915D01*
X622138Y488064D01*
D02*
G37*
G36*
X611232D02*
X610103Y487915D01*
X609050Y487479D01*
X608146Y486786D01*
X607453Y485882D01*
X607017Y484830D01*
X606868Y483700D01*
X607017Y482571D01*
X607453Y481518D01*
X608146Y480614D01*
X609050Y479921D01*
X610103Y479485D01*
X611232Y479336D01*
X612362Y479485D01*
X613414Y479921D01*
X614318Y480614D01*
X615012Y481518D01*
X615448Y482571D01*
X615596Y483700D01*
X615448Y484830D01*
X615012Y485882D01*
X614318Y486786D01*
X613414Y487479D01*
X612362Y487915D01*
X611232Y488064D01*
D02*
G37*
G36*
X600327D02*
X599197Y487915D01*
X598145Y487479D01*
X597241Y486786D01*
X596547Y485882D01*
X596111Y484830D01*
X595963Y483700D01*
X596111Y482571D01*
X596547Y481518D01*
X597241Y480614D01*
X598145Y479921D01*
X599197Y479485D01*
X600327Y479336D01*
X601456Y479485D01*
X602509Y479921D01*
X603413Y480614D01*
X604106Y481518D01*
X604542Y482571D01*
X604691Y483700D01*
X604542Y484830D01*
X604106Y485882D01*
X603413Y486786D01*
X602509Y487479D01*
X601456Y487915D01*
X600327Y488064D01*
D02*
G37*
G36*
X533487Y500102D02*
X531860Y499974D01*
X530273Y499593D01*
X528765Y498968D01*
X527373Y498115D01*
X526132Y497055D01*
X525072Y495814D01*
X524219Y494422D01*
X523594Y492914D01*
X523213Y491327D01*
X523085Y489700D01*
X523213Y488073D01*
X523594Y486485D01*
X524219Y484977D01*
X525072Y483586D01*
X526132Y482345D01*
X527373Y481285D01*
X528765Y480432D01*
X530273Y479807D01*
X531860Y479426D01*
X533487Y479298D01*
X535114Y479426D01*
X536702Y479807D01*
X538210Y480432D01*
X539601Y481285D01*
X540843Y482345D01*
X541903Y483586D01*
X542756Y484977D01*
X543380Y486485D01*
X543761Y488073D01*
X543889Y489700D01*
X543761Y491327D01*
X543380Y492914D01*
X542756Y494422D01*
X541903Y495814D01*
X540843Y497055D01*
X539601Y498115D01*
X538210Y498968D01*
X536702Y499593D01*
X535114Y499974D01*
X533487Y500102D01*
D02*
G37*
G36*
X435101D02*
X433474Y499974D01*
X431887Y499593D01*
X430379Y498968D01*
X428987Y498115D01*
X427746Y497055D01*
X426686Y495814D01*
X425833Y494422D01*
X425208Y492914D01*
X424827Y491327D01*
X424699Y489700D01*
X424827Y488073D01*
X425208Y486485D01*
X425833Y484977D01*
X426686Y483586D01*
X427746Y482345D01*
X428987Y481285D01*
X430379Y480432D01*
X431887Y479807D01*
X433474Y479426D01*
X435101Y479298D01*
X436729Y479426D01*
X438316Y479807D01*
X439824Y480432D01*
X441216Y481285D01*
X442457Y482345D01*
X443517Y483586D01*
X444370Y484977D01*
X444994Y486485D01*
X445375Y488073D01*
X445504Y489700D01*
X445375Y491327D01*
X444994Y492914D01*
X444370Y494422D01*
X443517Y495814D01*
X442457Y497055D01*
X441216Y498115D01*
X439824Y498968D01*
X438316Y499593D01*
X436729Y499974D01*
X435101Y500102D01*
D02*
G37*
G36*
X408301D02*
X406674Y499974D01*
X405087Y499593D01*
X403579Y498968D01*
X402187Y498115D01*
X400946Y497055D01*
X399886Y495814D01*
X399033Y494422D01*
X398408Y492914D01*
X398027Y491327D01*
X397899Y489700D01*
X398027Y488073D01*
X398408Y486485D01*
X399033Y484977D01*
X399886Y483586D01*
X400946Y482345D01*
X402187Y481285D01*
X403579Y480432D01*
X405087Y479807D01*
X406674Y479426D01*
X408301Y479298D01*
X409928Y479426D01*
X411516Y479807D01*
X413024Y480432D01*
X414415Y481285D01*
X415657Y482345D01*
X416717Y483586D01*
X417570Y484977D01*
X418194Y486485D01*
X418575Y488073D01*
X418703Y489700D01*
X418575Y491327D01*
X418194Y492914D01*
X417570Y494422D01*
X416717Y495814D01*
X415657Y497055D01*
X414415Y498115D01*
X413024Y498968D01*
X411516Y499593D01*
X409928Y499974D01*
X408301Y500102D01*
D02*
G37*
G36*
X309915D02*
X308288Y499974D01*
X306701Y499593D01*
X305193Y498968D01*
X303801Y498115D01*
X302560Y497055D01*
X301500Y495814D01*
X300647Y494422D01*
X300022Y492914D01*
X299641Y491327D01*
X299513Y489700D01*
X299641Y488073D01*
X300022Y486485D01*
X300647Y484977D01*
X301500Y483586D01*
X302560Y482345D01*
X303801Y481285D01*
X305193Y480432D01*
X306701Y479807D01*
X308288Y479426D01*
X309915Y479298D01*
X311543Y479426D01*
X313130Y479807D01*
X314638Y480432D01*
X316030Y481285D01*
X317271Y482345D01*
X318331Y483586D01*
X319184Y484977D01*
X319808Y486485D01*
X320189Y488073D01*
X320318Y489700D01*
X320189Y491327D01*
X319808Y492914D01*
X319184Y494422D01*
X318331Y495814D01*
X317271Y497055D01*
X316030Y498115D01*
X314638Y498968D01*
X313130Y499593D01*
X311543Y499974D01*
X309915Y500102D01*
D02*
G37*
G36*
X325500Y479780D02*
X324586Y479660D01*
X323735Y479307D01*
X323004Y478746D01*
X322443Y478015D01*
X322090Y477164D01*
X321970Y476250D01*
X322090Y475336D01*
X322443Y474485D01*
X323004Y473754D01*
X323735Y473193D01*
X324586Y472840D01*
X325500Y472720D01*
X326414Y472840D01*
X327265Y473193D01*
X327996Y473754D01*
X328557Y474485D01*
X328910Y475336D01*
X329030Y476250D01*
X328910Y477164D01*
X328557Y478015D01*
X327996Y478746D01*
X327265Y479307D01*
X326414Y479660D01*
X325500Y479780D01*
D02*
G37*
G36*
X671500Y475030D02*
X670586Y474910D01*
X669735Y474557D01*
X669004Y473996D01*
X668443Y473265D01*
X668090Y472414D01*
X667970Y471500D01*
X668090Y470586D01*
X668443Y469735D01*
X669004Y469004D01*
X669735Y468443D01*
X670586Y468090D01*
X671500Y467970D01*
X672414Y468090D01*
X673265Y468443D01*
X673996Y469004D01*
X674557Y469735D01*
X674910Y470586D01*
X675030Y471500D01*
X674910Y472414D01*
X674557Y473265D01*
X673996Y473996D01*
X673265Y474557D01*
X672414Y474910D01*
X671500Y475030D01*
D02*
G37*
G36*
X261200Y473780D02*
X260286Y473660D01*
X259435Y473307D01*
X258704Y472746D01*
X258143Y472015D01*
X257790Y471164D01*
X257670Y470250D01*
X257790Y469336D01*
X258143Y468485D01*
X258704Y467754D01*
X259435Y467193D01*
X260286Y466840D01*
X261200Y466720D01*
X262114Y466840D01*
X262965Y467193D01*
X263696Y467754D01*
X264257Y468485D01*
X264610Y469336D01*
X264730Y470250D01*
X264610Y471164D01*
X264257Y472015D01*
X263696Y472746D01*
X262965Y473307D01*
X262114Y473660D01*
X261200Y473780D01*
D02*
G37*
G36*
X385500Y472280D02*
X384586Y472160D01*
X383735Y471807D01*
X383004Y471246D01*
X382443Y470515D01*
X382090Y469664D01*
X381970Y468750D01*
X382090Y467836D01*
X382443Y466985D01*
X383004Y466254D01*
X383735Y465693D01*
X384586Y465340D01*
X385500Y465220D01*
X386414Y465340D01*
X387265Y465693D01*
X387996Y466254D01*
X388557Y466985D01*
X388910Y467836D01*
X389030Y468750D01*
X388910Y469664D01*
X388557Y470515D01*
X387996Y471246D01*
X387265Y471807D01*
X386414Y472160D01*
X385500Y472280D01*
D02*
G37*
G36*
X646500Y472030D02*
X645586Y471910D01*
X644735Y471557D01*
X644004Y470996D01*
X643443Y470265D01*
X643090Y469414D01*
X642970Y468500D01*
X643090Y467586D01*
X643443Y466735D01*
X644004Y466004D01*
X644735Y465443D01*
X645586Y465090D01*
X646500Y464970D01*
X647414Y465090D01*
X648265Y465443D01*
X648996Y466004D01*
X649557Y466735D01*
X649910Y467586D01*
X650030Y468500D01*
X649910Y469414D01*
X649557Y470265D01*
X648996Y470996D01*
X648265Y471557D01*
X647414Y471910D01*
X646500Y472030D01*
D02*
G37*
G36*
X448750Y471959D02*
X447836Y471839D01*
X446985Y471486D01*
X446254Y470925D01*
X445693Y470194D01*
X445340Y469343D01*
X445220Y468429D01*
X445340Y467515D01*
X445693Y466664D01*
X446254Y465933D01*
X446985Y465372D01*
X447836Y465019D01*
X448750Y464899D01*
X449664Y465019D01*
X450515Y465372D01*
X451246Y465933D01*
X451807Y466664D01*
X452160Y467515D01*
X452280Y468429D01*
X452160Y469343D01*
X451807Y470194D01*
X451246Y470925D01*
X450515Y471486D01*
X449664Y471839D01*
X448750Y471959D01*
D02*
G37*
G36*
X437750Y471450D02*
X436836Y471330D01*
X435985Y470977D01*
X435254Y470416D01*
X434693Y469685D01*
X434340Y468833D01*
X434220Y467920D01*
X434340Y467006D01*
X434693Y466155D01*
X435254Y465424D01*
X435985Y464863D01*
X436836Y464510D01*
X437750Y464390D01*
X438664Y464510D01*
X439515Y464863D01*
X440246Y465424D01*
X440807Y466155D01*
X441160Y467006D01*
X441280Y467920D01*
X441160Y468833D01*
X440807Y469685D01*
X440246Y470416D01*
X439515Y470977D01*
X438664Y471330D01*
X437750Y471450D01*
D02*
G37*
G36*
X498750Y467030D02*
X497836Y466910D01*
X496985Y466557D01*
X496254Y465996D01*
X495693Y465265D01*
X495340Y464414D01*
X495220Y463500D01*
X495340Y462586D01*
X495693Y461735D01*
X496254Y461004D01*
X496985Y460443D01*
X497836Y460090D01*
X498750Y459970D01*
X499664Y460090D01*
X500515Y460443D01*
X501246Y461004D01*
X501807Y461735D01*
X502160Y462586D01*
X502280Y463500D01*
X502160Y464414D01*
X501807Y465265D01*
X501246Y465996D01*
X500515Y466557D01*
X499664Y466910D01*
X498750Y467030D01*
D02*
G37*
G36*
X290250Y465280D02*
X289336Y465160D01*
X288485Y464807D01*
X287754Y464246D01*
X287193Y463515D01*
X286840Y462664D01*
X286720Y461750D01*
X286840Y460836D01*
X287193Y459985D01*
X287754Y459254D01*
X288485Y458693D01*
X289336Y458340D01*
X290250Y458220D01*
X291164Y458340D01*
X292015Y458693D01*
X292746Y459254D01*
X293307Y459985D01*
X293660Y460836D01*
X293780Y461750D01*
X293660Y462664D01*
X293307Y463515D01*
X292746Y464246D01*
X292015Y464807D01*
X291164Y465160D01*
X290250Y465280D01*
D02*
G37*
G36*
X527000Y464530D02*
X526086Y464410D01*
X525235Y464057D01*
X524504Y463496D01*
X523943Y462765D01*
X523590Y461914D01*
X523470Y461000D01*
X523590Y460086D01*
X523943Y459235D01*
X524504Y458504D01*
X525235Y457943D01*
X526086Y457590D01*
X527000Y457470D01*
X527914Y457590D01*
X528765Y457943D01*
X529496Y458504D01*
X530057Y459235D01*
X530410Y460086D01*
X530530Y461000D01*
X530410Y461914D01*
X530057Y462765D01*
X529496Y463496D01*
X528765Y464057D01*
X527914Y464410D01*
X527000Y464530D01*
D02*
G37*
G36*
X518414Y464280D02*
X517500Y464160D01*
X516649Y463807D01*
X515917Y463246D01*
X515356Y462515D01*
X515004Y461664D01*
X514884Y460750D01*
X515004Y459836D01*
X515356Y458985D01*
X515917Y458254D01*
X516649Y457693D01*
X517500Y457340D01*
X518414Y457220D01*
X519327Y457340D01*
X520179Y457693D01*
X520910Y458254D01*
X521471Y458985D01*
X521824Y459836D01*
X521944Y460750D01*
X521824Y461664D01*
X521471Y462515D01*
X520910Y463246D01*
X520179Y463807D01*
X519327Y464160D01*
X518414Y464280D01*
D02*
G37*
G36*
X505000Y459780D02*
X504086Y459660D01*
X503235Y459307D01*
X502504Y458746D01*
X501943Y458015D01*
X501590Y457164D01*
X501470Y456250D01*
X501590Y455336D01*
X501943Y454485D01*
X502504Y453754D01*
X503235Y453193D01*
X504086Y452840D01*
X505000Y452720D01*
X505914Y452840D01*
X506765Y453193D01*
X507496Y453754D01*
X508057Y454485D01*
X508410Y455336D01*
X508530Y456250D01*
X508410Y457164D01*
X508057Y458015D01*
X507496Y458746D01*
X506765Y459307D01*
X505914Y459660D01*
X505000Y459780D01*
D02*
G37*
G36*
X492500Y459030D02*
X491586Y458910D01*
X490735Y458557D01*
X490004Y457996D01*
X489443Y457265D01*
X489090Y456414D01*
X488970Y455500D01*
X489090Y454586D01*
X489443Y453735D01*
X490004Y453004D01*
X490735Y452443D01*
X491586Y452090D01*
X492500Y451970D01*
X493414Y452090D01*
X494265Y452443D01*
X494996Y453004D01*
X495557Y453735D01*
X495910Y454586D01*
X496030Y455500D01*
X495910Y456414D01*
X495557Y457265D01*
X494996Y457996D01*
X494265Y458557D01*
X493414Y458910D01*
X492500Y459030D01*
D02*
G37*
G36*
X671250Y458388D02*
X670336Y458268D01*
X669485Y457915D01*
X668754Y457354D01*
X668193Y456623D01*
X667840Y455772D01*
X667720Y454858D01*
X667840Y453945D01*
X668193Y453093D01*
X668754Y452362D01*
X669485Y451801D01*
X670336Y451448D01*
X671250Y451328D01*
X672164Y451448D01*
X673015Y451801D01*
X673746Y452362D01*
X674307Y453093D01*
X674660Y453945D01*
X674780Y454858D01*
X674660Y455772D01*
X674307Y456623D01*
X673746Y457354D01*
X673015Y457915D01*
X672164Y458268D01*
X671250Y458388D01*
D02*
G37*
G36*
X279500Y459145D02*
X278391Y458999D01*
X277357Y458571D01*
X276469Y457889D01*
X275788Y457002D01*
X275359Y455968D01*
X275213Y454858D01*
X275359Y453749D01*
X275788Y452715D01*
X276469Y451827D01*
X277357Y451146D01*
X278391Y450718D01*
X279500Y450572D01*
X280609Y450718D01*
X281643Y451146D01*
X282531Y451827D01*
X283212Y452715D01*
X283641Y453749D01*
X283787Y454858D01*
X283641Y455968D01*
X283212Y457002D01*
X282531Y457889D01*
X281643Y458571D01*
X280609Y458999D01*
X279500Y459145D01*
D02*
G37*
G36*
X259500D02*
X258390Y458999D01*
X257357Y458571D01*
X256469Y457889D01*
X255788Y457002D01*
X255359Y455968D01*
X255213Y454858D01*
X255359Y453749D01*
X255788Y452715D01*
X256469Y451827D01*
X257357Y451146D01*
X258390Y450718D01*
X259500Y450572D01*
X260610Y450718D01*
X261643Y451146D01*
X262531Y451827D01*
X263212Y452715D01*
X263641Y453749D01*
X263787Y454858D01*
X263641Y455968D01*
X263212Y457002D01*
X262531Y457889D01*
X261643Y458571D01*
X260610Y458999D01*
X259500Y459145D01*
D02*
G37*
G36*
X458000Y456030D02*
X457086Y455910D01*
X456235Y455557D01*
X455504Y454996D01*
X454943Y454265D01*
X454590Y453414D01*
X454470Y452500D01*
X454590Y451586D01*
X454943Y450735D01*
X455504Y450004D01*
X456235Y449443D01*
X457086Y449090D01*
X458000Y448970D01*
X458914Y449090D01*
X459765Y449443D01*
X460496Y450004D01*
X461057Y450735D01*
X461410Y451586D01*
X461530Y452500D01*
X461410Y453414D01*
X461057Y454265D01*
X460496Y454996D01*
X459765Y455557D01*
X458914Y455910D01*
X458000Y456030D01*
D02*
G37*
G36*
X439500Y455280D02*
X438586Y455160D01*
X437735Y454807D01*
X437004Y454246D01*
X436443Y453515D01*
X436090Y452664D01*
X435970Y451750D01*
X436090Y450836D01*
X436443Y449985D01*
X437004Y449254D01*
X437735Y448693D01*
X438586Y448340D01*
X439500Y448220D01*
X440414Y448340D01*
X441265Y448693D01*
X441996Y449254D01*
X442557Y449985D01*
X442910Y450836D01*
X443030Y451750D01*
X442910Y452664D01*
X442557Y453515D01*
X441996Y454246D01*
X441265Y454807D01*
X440414Y455160D01*
X439500Y455280D01*
D02*
G37*
G36*
X419000D02*
X418086Y455160D01*
X417235Y454807D01*
X416504Y454246D01*
X415943Y453515D01*
X415590Y452664D01*
X415470Y451750D01*
X415590Y450836D01*
X415943Y449985D01*
X416504Y449254D01*
X417235Y448693D01*
X418086Y448340D01*
X419000Y448220D01*
X419914Y448340D01*
X420765Y448693D01*
X421496Y449254D01*
X422057Y449985D01*
X422410Y450836D01*
X422530Y451750D01*
X422410Y452664D01*
X422057Y453515D01*
X421496Y454246D01*
X420765Y454807D01*
X419914Y455160D01*
X419000Y455280D01*
D02*
G37*
G36*
X583626Y454280D02*
X582712Y454160D01*
X581861Y453807D01*
X581130Y453246D01*
X580569Y452515D01*
X580216Y451664D01*
X580096Y450750D01*
X580216Y449836D01*
X580569Y448985D01*
X581130Y448254D01*
X581861Y447693D01*
X582712Y447340D01*
X583626Y447220D01*
X584540Y447340D01*
X585391Y447693D01*
X586122Y448254D01*
X586683Y448985D01*
X587036Y449836D01*
X587156Y450750D01*
X587036Y451664D01*
X586683Y452515D01*
X586122Y453246D01*
X585391Y453807D01*
X584540Y454160D01*
X583626Y454280D01*
D02*
G37*
G36*
X519429Y452346D02*
X518516Y452225D01*
X517664Y451873D01*
X516933Y451312D01*
X516372Y450581D01*
X516019Y449729D01*
X515899Y448815D01*
X516019Y447902D01*
X516372Y447050D01*
X516933Y446319D01*
X517664Y445758D01*
X518516Y445405D01*
X519429Y445285D01*
X520343Y445405D01*
X521194Y445758D01*
X521926Y446319D01*
X522487Y447050D01*
X522839Y447902D01*
X522960Y448815D01*
X522839Y449729D01*
X522487Y450581D01*
X521926Y451312D01*
X521194Y451873D01*
X520343Y452225D01*
X519429Y452346D01*
D02*
G37*
G36*
X269500Y453672D02*
X268390Y453526D01*
X267357Y453098D01*
X266469Y452417D01*
X265788Y451529D01*
X265359Y450495D01*
X265213Y449386D01*
X265359Y448276D01*
X265788Y447242D01*
X266469Y446355D01*
X267357Y445673D01*
X268390Y445245D01*
X269500Y445099D01*
X270609Y445245D01*
X271643Y445673D01*
X272531Y446355D01*
X273212Y447242D01*
X273641Y448276D01*
X273787Y449386D01*
X273641Y450495D01*
X273212Y451529D01*
X272531Y452417D01*
X271643Y453098D01*
X270609Y453526D01*
X269500Y453672D01*
D02*
G37*
G36*
X357000Y450280D02*
X356086Y450160D01*
X355235Y449807D01*
X354504Y449246D01*
X353943Y448515D01*
X353590Y447664D01*
X353470Y446750D01*
X353590Y445836D01*
X353943Y444985D01*
X354504Y444254D01*
X355235Y443693D01*
X356086Y443340D01*
X357000Y443220D01*
X357914Y443340D01*
X358765Y443693D01*
X359496Y444254D01*
X360057Y444985D01*
X360410Y445836D01*
X360530Y446750D01*
X360410Y447664D01*
X360057Y448515D01*
X359496Y449246D01*
X358765Y449807D01*
X357914Y450160D01*
X357000Y450280D01*
D02*
G37*
G36*
X554610Y449780D02*
X553697Y449660D01*
X552845Y449307D01*
X552114Y448746D01*
X551553Y448015D01*
X551200Y447164D01*
X551080Y446250D01*
X551200Y445336D01*
X551553Y444485D01*
X552114Y443754D01*
X552845Y443193D01*
X553697Y442840D01*
X554610Y442720D01*
X555524Y442840D01*
X556375Y443193D01*
X557106Y443754D01*
X557667Y444485D01*
X558020Y445336D01*
X558140Y446250D01*
X558020Y447164D01*
X557667Y448015D01*
X557106Y448746D01*
X556375Y449307D01*
X555524Y449660D01*
X554610Y449780D01*
D02*
G37*
G36*
X313250Y449280D02*
X312336Y449160D01*
X311485Y448807D01*
X310754Y448246D01*
X310193Y447515D01*
X309840Y446664D01*
X309720Y445750D01*
X309840Y444836D01*
X310193Y443985D01*
X310754Y443254D01*
X311485Y442693D01*
X312336Y442340D01*
X313250Y442220D01*
X314164Y442340D01*
X315015Y442693D01*
X315746Y443254D01*
X316307Y443985D01*
X316660Y444836D01*
X316780Y445750D01*
X316660Y446664D01*
X316307Y447515D01*
X315746Y448246D01*
X315015Y448807D01*
X314164Y449160D01*
X313250Y449280D01*
D02*
G37*
G36*
X279500Y448279D02*
X278391Y448133D01*
X277357Y447705D01*
X276469Y447023D01*
X275788Y446135D01*
X275359Y445102D01*
X275213Y443992D01*
X275359Y442883D01*
X275788Y441849D01*
X276469Y440961D01*
X277357Y440280D01*
X278391Y439852D01*
X279500Y439705D01*
X280609Y439852D01*
X281643Y440280D01*
X282531Y440961D01*
X283212Y441849D01*
X283641Y442883D01*
X283787Y443992D01*
X283641Y445102D01*
X283212Y446135D01*
X282531Y447023D01*
X281643Y447705D01*
X280609Y448133D01*
X279500Y448279D01*
D02*
G37*
G36*
X259500D02*
X258390Y448133D01*
X257357Y447705D01*
X256469Y447023D01*
X255788Y446135D01*
X255359Y445102D01*
X255213Y443992D01*
X255359Y442883D01*
X255788Y441849D01*
X256469Y440961D01*
X257357Y440280D01*
X258390Y439852D01*
X259500Y439705D01*
X260610Y439852D01*
X261643Y440280D01*
X262531Y440961D01*
X263212Y441849D01*
X263641Y442883D01*
X263787Y443992D01*
X263641Y445102D01*
X263212Y446135D01*
X262531Y447023D01*
X261643Y447705D01*
X260610Y448133D01*
X259500Y448279D01*
D02*
G37*
G36*
X693500Y443280D02*
X692586Y443160D01*
X691735Y442807D01*
X691004Y442246D01*
X690443Y441515D01*
X690090Y440664D01*
X689970Y439750D01*
X690090Y438836D01*
X690443Y437985D01*
X691004Y437254D01*
X691735Y436693D01*
X692586Y436340D01*
X693500Y436220D01*
X694414Y436340D01*
X695265Y436693D01*
X695996Y437254D01*
X696557Y437985D01*
X696910Y438836D01*
X697030Y439750D01*
X696910Y440664D01*
X696557Y441515D01*
X695996Y442246D01*
X695265Y442807D01*
X694414Y443160D01*
X693500Y443280D01*
D02*
G37*
G36*
X269500Y442809D02*
X268390Y442663D01*
X267357Y442235D01*
X266469Y441553D01*
X265788Y440665D01*
X265359Y439632D01*
X265213Y438522D01*
X265359Y437413D01*
X265788Y436379D01*
X266469Y435491D01*
X267357Y434810D01*
X268390Y434382D01*
X269500Y434235D01*
X270609Y434382D01*
X271643Y434810D01*
X272531Y435491D01*
X273212Y436379D01*
X273641Y437413D01*
X273787Y438522D01*
X273641Y439632D01*
X273212Y440665D01*
X272531Y441553D01*
X271643Y442235D01*
X270609Y442663D01*
X269500Y442809D01*
D02*
G37*
G36*
X534150Y440680D02*
X533236Y440559D01*
X532384Y440207D01*
X531653Y439646D01*
X531092Y438915D01*
X530740Y438063D01*
X530619Y437150D01*
X530740Y436236D01*
X531092Y435385D01*
X531653Y434653D01*
X532384Y434092D01*
X533236Y433740D01*
X534150Y433619D01*
X535063Y433740D01*
X535915Y434092D01*
X536646Y434653D01*
X537207Y435385D01*
X537560Y436236D01*
X537680Y437150D01*
X537560Y438063D01*
X537207Y438915D01*
X536646Y439646D01*
X535915Y440207D01*
X535063Y440559D01*
X534150Y440680D01*
D02*
G37*
G36*
X279500Y437413D02*
X278391Y437267D01*
X277357Y436838D01*
X276469Y436157D01*
X275788Y435269D01*
X275359Y434235D01*
X275213Y433126D01*
X275359Y432017D01*
X275788Y430983D01*
X276469Y430095D01*
X277357Y429414D01*
X278391Y428985D01*
X279500Y428839D01*
X280609Y428985D01*
X281643Y429414D01*
X282531Y430095D01*
X283212Y430983D01*
X283641Y432017D01*
X283787Y433126D01*
X283641Y434235D01*
X283212Y435269D01*
X282531Y436157D01*
X281643Y436838D01*
X280609Y437267D01*
X279500Y437413D01*
D02*
G37*
G36*
X259500D02*
X258390Y437267D01*
X257357Y436838D01*
X256469Y436157D01*
X255788Y435269D01*
X255359Y434235D01*
X255213Y433126D01*
X255359Y432017D01*
X255788Y430983D01*
X256469Y430095D01*
X257357Y429414D01*
X258390Y428985D01*
X259500Y428839D01*
X260610Y428985D01*
X261643Y429414D01*
X262531Y430095D01*
X263212Y430983D01*
X263641Y432017D01*
X263787Y433126D01*
X263641Y434235D01*
X263212Y435269D01*
X262531Y436157D01*
X261643Y436838D01*
X260610Y437267D01*
X259500Y437413D01*
D02*
G37*
G36*
X665876Y433656D02*
X664962Y433536D01*
X664111Y433183D01*
X663380Y432622D01*
X662819Y431891D01*
X662466Y431040D01*
X662346Y430126D01*
X662466Y429212D01*
X662819Y428361D01*
X663380Y427630D01*
X664111Y427069D01*
X664962Y426716D01*
X665876Y426596D01*
X666790Y426716D01*
X667641Y427069D01*
X668372Y427630D01*
X668933Y428361D01*
X669286Y429212D01*
X669406Y430126D01*
X669286Y431040D01*
X668933Y431891D01*
X668372Y432622D01*
X667641Y433183D01*
X666790Y433536D01*
X665876Y433656D01*
D02*
G37*
G36*
X269500Y431945D02*
X268390Y431799D01*
X267357Y431371D01*
X266469Y430690D01*
X265788Y429802D01*
X265359Y428768D01*
X265213Y427659D01*
X265359Y426549D01*
X265788Y425515D01*
X266469Y424628D01*
X267357Y423946D01*
X268390Y423518D01*
X269500Y423372D01*
X270609Y423518D01*
X271643Y423946D01*
X272531Y424628D01*
X273212Y425515D01*
X273641Y426549D01*
X273787Y427659D01*
X273641Y428768D01*
X273212Y429802D01*
X272531Y430690D01*
X271643Y431371D01*
X270609Y431799D01*
X269500Y431945D01*
D02*
G37*
G36*
X373500Y429530D02*
X372586Y429410D01*
X371735Y429057D01*
X371004Y428496D01*
X370443Y427765D01*
X370090Y426914D01*
X369970Y426000D01*
X370090Y425086D01*
X370443Y424235D01*
X371004Y423504D01*
X371735Y422943D01*
X372586Y422590D01*
X373500Y422470D01*
X374414Y422590D01*
X375265Y422943D01*
X375996Y423504D01*
X376557Y424235D01*
X376910Y425086D01*
X377030Y426000D01*
X376910Y426914D01*
X376557Y427765D01*
X375996Y428496D01*
X375265Y429057D01*
X374414Y429410D01*
X373500Y429530D01*
D02*
G37*
G36*
X433750Y428863D02*
X432836Y428743D01*
X431985Y428390D01*
X431254Y427829D01*
X430693Y427098D01*
X430340Y426246D01*
X430220Y425333D01*
X430340Y424419D01*
X430693Y423568D01*
X431254Y422836D01*
X431985Y422275D01*
X432836Y421923D01*
X433750Y421803D01*
X434664Y421923D01*
X435515Y422275D01*
X436246Y422836D01*
X436807Y423568D01*
X437160Y424419D01*
X437280Y425333D01*
X437160Y426246D01*
X436807Y427098D01*
X436246Y427829D01*
X435515Y428390D01*
X434664Y428743D01*
X433750Y428863D01*
D02*
G37*
G36*
X469500Y428780D02*
X468586Y428660D01*
X467735Y428307D01*
X467004Y427746D01*
X466443Y427015D01*
X466090Y426164D01*
X465970Y425250D01*
X466090Y424336D01*
X466443Y423485D01*
X467004Y422754D01*
X467735Y422193D01*
X468586Y421840D01*
X469500Y421720D01*
X470414Y421840D01*
X471265Y422193D01*
X471996Y422754D01*
X472557Y423485D01*
X472910Y424336D01*
X473030Y425250D01*
X472910Y426164D01*
X472557Y427015D01*
X471996Y427746D01*
X471265Y428307D01*
X470414Y428660D01*
X469500Y428780D01*
D02*
G37*
G36*
X418000Y427780D02*
X417086Y427660D01*
X416235Y427307D01*
X415504Y426746D01*
X414943Y426015D01*
X414590Y425164D01*
X414470Y424250D01*
X414590Y423336D01*
X414943Y422485D01*
X415504Y421754D01*
X416235Y421193D01*
X417086Y420840D01*
X418000Y420720D01*
X418914Y420840D01*
X419765Y421193D01*
X420496Y421754D01*
X421057Y422485D01*
X421410Y423336D01*
X421530Y424250D01*
X421410Y425164D01*
X421057Y426015D01*
X420496Y426746D01*
X419765Y427307D01*
X418914Y427660D01*
X418000Y427780D01*
D02*
G37*
G36*
X512327Y425530D02*
X511414Y425410D01*
X510562Y425057D01*
X509831Y424496D01*
X509270Y423765D01*
X508918Y422914D01*
X508797Y422000D01*
X508918Y421086D01*
X509270Y420235D01*
X509831Y419504D01*
X510562Y418943D01*
X511414Y418590D01*
X512327Y418470D01*
X513241Y418590D01*
X514092Y418943D01*
X514824Y419504D01*
X515385Y420235D01*
X515737Y421086D01*
X515858Y422000D01*
X515737Y422914D01*
X515385Y423765D01*
X514824Y424496D01*
X514092Y425057D01*
X513241Y425410D01*
X512327Y425530D01*
D02*
G37*
G36*
X279500Y426546D02*
X278391Y426400D01*
X277357Y425972D01*
X276469Y425291D01*
X275788Y424403D01*
X275359Y423369D01*
X275213Y422260D01*
X275359Y421150D01*
X275788Y420117D01*
X276469Y419229D01*
X277357Y418547D01*
X278391Y418119D01*
X279500Y417973D01*
X280609Y418119D01*
X281643Y418547D01*
X282531Y419229D01*
X283212Y420117D01*
X283641Y421150D01*
X283787Y422260D01*
X283641Y423369D01*
X283212Y424403D01*
X282531Y425291D01*
X281643Y425972D01*
X280609Y426400D01*
X279500Y426546D01*
D02*
G37*
G36*
X259500D02*
X258390Y426400D01*
X257357Y425972D01*
X256469Y425291D01*
X255788Y424403D01*
X255359Y423369D01*
X255213Y422260D01*
X255359Y421150D01*
X255788Y420117D01*
X256469Y419229D01*
X257357Y418547D01*
X258390Y418119D01*
X259500Y417973D01*
X260610Y418119D01*
X261643Y418547D01*
X262531Y419229D01*
X263212Y420117D01*
X263641Y421150D01*
X263787Y422260D01*
X263641Y423369D01*
X263212Y424403D01*
X262531Y425291D01*
X261643Y425972D01*
X260610Y426400D01*
X259500Y426546D01*
D02*
G37*
G36*
X358750Y424780D02*
X357836Y424660D01*
X356985Y424307D01*
X356254Y423746D01*
X355693Y423015D01*
X355340Y422164D01*
X355220Y421250D01*
X355340Y420336D01*
X355693Y419485D01*
X356254Y418754D01*
X356985Y418193D01*
X357836Y417840D01*
X358750Y417720D01*
X359664Y417840D01*
X360515Y418193D01*
X361246Y418754D01*
X361807Y419485D01*
X362160Y420336D01*
X362280Y421250D01*
X362160Y422164D01*
X361807Y423015D01*
X361246Y423746D01*
X360515Y424307D01*
X359664Y424660D01*
X358750Y424780D01*
D02*
G37*
G36*
X389000Y424280D02*
X388086Y424160D01*
X387235Y423807D01*
X386504Y423246D01*
X385943Y422515D01*
X385590Y421664D01*
X385470Y420750D01*
X385590Y419836D01*
X385943Y418985D01*
X386504Y418254D01*
X387235Y417693D01*
X388086Y417340D01*
X389000Y417220D01*
X389914Y417340D01*
X390765Y417693D01*
X391496Y418254D01*
X392057Y418985D01*
X392410Y419836D01*
X392530Y420750D01*
X392410Y421664D01*
X392057Y422515D01*
X391496Y423246D01*
X390765Y423807D01*
X389914Y424160D01*
X389000Y424280D01*
D02*
G37*
G36*
X269500Y421082D02*
X268390Y420936D01*
X267357Y420508D01*
X266469Y419826D01*
X265788Y418938D01*
X265359Y417905D01*
X265213Y416795D01*
X265359Y415686D01*
X265788Y414652D01*
X266469Y413764D01*
X267357Y413083D01*
X268390Y412655D01*
X269500Y412508D01*
X270609Y412655D01*
X271643Y413083D01*
X272531Y413764D01*
X273212Y414652D01*
X273641Y415686D01*
X273787Y416795D01*
X273641Y417905D01*
X273212Y418938D01*
X272531Y419826D01*
X271643Y420508D01*
X270609Y420936D01*
X269500Y421082D01*
D02*
G37*
G36*
X534000Y416530D02*
X533086Y416410D01*
X532235Y416057D01*
X531504Y415496D01*
X530943Y414765D01*
X530590Y413914D01*
X530470Y413000D01*
X530590Y412086D01*
X530943Y411235D01*
X531504Y410504D01*
X532235Y409943D01*
X533086Y409590D01*
X534000Y409470D01*
X534914Y409590D01*
X535765Y409943D01*
X536496Y410504D01*
X537057Y411235D01*
X537410Y412086D01*
X537530Y413000D01*
X537410Y413914D01*
X537057Y414765D01*
X536496Y415496D01*
X535765Y416057D01*
X534914Y416410D01*
X534000Y416530D01*
D02*
G37*
G36*
X511500Y416030D02*
X510586Y415910D01*
X509735Y415557D01*
X509004Y414996D01*
X508443Y414265D01*
X508090Y413414D01*
X507970Y412500D01*
X508090Y411586D01*
X508443Y410735D01*
X509004Y410004D01*
X509735Y409443D01*
X510586Y409090D01*
X511500Y408970D01*
X512414Y409090D01*
X513265Y409443D01*
X513996Y410004D01*
X514557Y410735D01*
X514910Y411586D01*
X515030Y412500D01*
X514910Y413414D01*
X514557Y414265D01*
X513996Y414996D01*
X513265Y415557D01*
X512414Y415910D01*
X511500Y416030D01*
D02*
G37*
G36*
X351142Y414780D02*
X350228Y414660D01*
X349377Y414307D01*
X348645Y413746D01*
X348084Y413015D01*
X347732Y412164D01*
X347611Y411250D01*
X347732Y410336D01*
X348084Y409485D01*
X348645Y408754D01*
X349377Y408193D01*
X350228Y407840D01*
X351142Y407720D01*
X352055Y407840D01*
X352907Y408193D01*
X353638Y408754D01*
X354199Y409485D01*
X354552Y410336D01*
X354672Y411250D01*
X354552Y412164D01*
X354199Y413015D01*
X353638Y413746D01*
X352907Y414307D01*
X352055Y414660D01*
X351142Y414780D01*
D02*
G37*
G36*
X410375Y414324D02*
X409461Y414203D01*
X408610Y413851D01*
X407879Y413289D01*
X407318Y412558D01*
X406965Y411707D01*
X406845Y410793D01*
X406965Y409880D01*
X407318Y409028D01*
X407879Y408297D01*
X408610Y407736D01*
X409461Y407383D01*
X410375Y407263D01*
X411288Y407383D01*
X412140Y407736D01*
X412871Y408297D01*
X413432Y409028D01*
X413785Y409880D01*
X413905Y410793D01*
X413785Y411707D01*
X413432Y412558D01*
X412871Y413289D01*
X412140Y413851D01*
X411288Y414203D01*
X410375Y414324D01*
D02*
G37*
G36*
X279500Y415680D02*
X278391Y415534D01*
X277357Y415106D01*
X276469Y414425D01*
X275788Y413537D01*
X275359Y412503D01*
X275213Y411394D01*
X275359Y410284D01*
X275788Y409250D01*
X276469Y408363D01*
X277357Y407681D01*
X278391Y407253D01*
X279500Y407107D01*
X280609Y407253D01*
X281643Y407681D01*
X282531Y408363D01*
X283212Y409250D01*
X283641Y410284D01*
X283787Y411394D01*
X283641Y412503D01*
X283212Y413537D01*
X282531Y414425D01*
X281643Y415106D01*
X280609Y415534D01*
X279500Y415680D01*
D02*
G37*
G36*
X259500D02*
X258390Y415534D01*
X257357Y415106D01*
X256469Y414425D01*
X255788Y413537D01*
X255359Y412503D01*
X255213Y411394D01*
X255359Y410284D01*
X255788Y409250D01*
X256469Y408363D01*
X257357Y407681D01*
X258390Y407253D01*
X259500Y407107D01*
X260610Y407253D01*
X261643Y407681D01*
X262531Y408363D01*
X263212Y409250D01*
X263641Y410284D01*
X263787Y411394D01*
X263641Y412503D01*
X263212Y413537D01*
X262531Y414425D01*
X261643Y415106D01*
X260610Y415534D01*
X259500Y415680D01*
D02*
G37*
G36*
X380250Y414030D02*
X379336Y413910D01*
X378485Y413557D01*
X377754Y412996D01*
X377193Y412265D01*
X376840Y411414D01*
X376720Y410500D01*
X376840Y409586D01*
X377193Y408735D01*
X377754Y408004D01*
X378485Y407443D01*
X379336Y407090D01*
X380250Y406970D01*
X381164Y407090D01*
X382015Y407443D01*
X382746Y408004D01*
X383307Y408735D01*
X383660Y409586D01*
X383780Y410500D01*
X383660Y411414D01*
X383307Y412265D01*
X382746Y412996D01*
X382015Y413557D01*
X381164Y413910D01*
X380250Y414030D01*
D02*
G37*
G36*
X307500Y413280D02*
X306586Y413160D01*
X305735Y412807D01*
X305004Y412246D01*
X304443Y411515D01*
X304090Y410664D01*
X303970Y409750D01*
X304090Y408836D01*
X304443Y407985D01*
X305004Y407254D01*
X305735Y406693D01*
X306586Y406340D01*
X307500Y406220D01*
X308414Y406340D01*
X309265Y406693D01*
X309996Y407254D01*
X310557Y407985D01*
X310910Y408836D01*
X311030Y409750D01*
X310910Y410664D01*
X310557Y411515D01*
X309996Y412246D01*
X309265Y412807D01*
X308414Y413160D01*
X307500Y413280D01*
D02*
G37*
G36*
X396862Y413030D02*
X395949Y412910D01*
X395097Y412557D01*
X394366Y411996D01*
X393805Y411265D01*
X393452Y410414D01*
X393332Y409500D01*
X393452Y408586D01*
X393805Y407735D01*
X394366Y407004D01*
X395097Y406443D01*
X395949Y406090D01*
X396862Y405970D01*
X397776Y406090D01*
X398627Y406443D01*
X399358Y407004D01*
X399919Y407735D01*
X400272Y408586D01*
X400392Y409500D01*
X400272Y410414D01*
X399919Y411265D01*
X399358Y411996D01*
X398627Y412557D01*
X397776Y412910D01*
X396862Y413030D01*
D02*
G37*
G36*
X366374Y411936D02*
X365460Y411816D01*
X364609Y411463D01*
X363878Y410902D01*
X363317Y410171D01*
X362964Y409320D01*
X362844Y408406D01*
X362964Y407492D01*
X363317Y406641D01*
X363878Y405910D01*
X364609Y405349D01*
X365460Y404996D01*
X366374Y404876D01*
X367288Y404996D01*
X368139Y405349D01*
X368870Y405910D01*
X369431Y406641D01*
X369784Y407492D01*
X369904Y408406D01*
X369784Y409320D01*
X369431Y410171D01*
X368870Y410902D01*
X368139Y411463D01*
X367288Y411816D01*
X366374Y411936D01*
D02*
G37*
G36*
X613750Y411080D02*
X612836Y410960D01*
X611985Y410607D01*
X611254Y410046D01*
X610693Y409315D01*
X610340Y408464D01*
X610220Y407550D01*
X610340Y406636D01*
X610693Y405785D01*
X611254Y405054D01*
X611985Y404493D01*
X612836Y404140D01*
X613750Y404020D01*
X614664Y404140D01*
X615515Y404493D01*
X616246Y405054D01*
X616807Y405785D01*
X617160Y406636D01*
X617280Y407550D01*
X617160Y408464D01*
X616807Y409315D01*
X616246Y410046D01*
X615515Y410607D01*
X614664Y410960D01*
X613750Y411080D01*
D02*
G37*
G36*
X481250Y410205D02*
X480336Y410085D01*
X479485Y409732D01*
X478754Y409171D01*
X478193Y408440D01*
X477840Y407589D01*
X477720Y406675D01*
X477840Y405761D01*
X478193Y404910D01*
X478754Y404179D01*
X479485Y403618D01*
X480336Y403265D01*
X481250Y403145D01*
X482164Y403265D01*
X483015Y403618D01*
X483746Y404179D01*
X484307Y404910D01*
X484660Y405761D01*
X484780Y406675D01*
X484660Y407589D01*
X484307Y408440D01*
X483746Y409171D01*
X483015Y409732D01*
X482164Y410085D01*
X481250Y410205D01*
D02*
G37*
G36*
X269500Y410218D02*
X268390Y410072D01*
X267357Y409644D01*
X266469Y408963D01*
X265788Y408075D01*
X265359Y407041D01*
X265213Y405932D01*
X265359Y404822D01*
X265788Y403788D01*
X266469Y402901D01*
X267357Y402219D01*
X268390Y401791D01*
X269500Y401645D01*
X270609Y401791D01*
X271643Y402219D01*
X272531Y402901D01*
X273212Y403788D01*
X273641Y404822D01*
X273787Y405932D01*
X273641Y407041D01*
X273212Y408075D01*
X272531Y408963D01*
X271643Y409644D01*
X270609Y410072D01*
X269500Y410218D01*
D02*
G37*
G36*
X403000Y408280D02*
X402086Y408160D01*
X401235Y407807D01*
X400504Y407246D01*
X399943Y406515D01*
X399590Y405664D01*
X399470Y404750D01*
X399590Y403836D01*
X399943Y402985D01*
X400504Y402254D01*
X401235Y401693D01*
X402086Y401340D01*
X403000Y401220D01*
X403914Y401340D01*
X404765Y401693D01*
X405496Y402254D01*
X406057Y402985D01*
X406410Y403836D01*
X406530Y404750D01*
X406410Y405664D01*
X406057Y406515D01*
X405496Y407246D01*
X404765Y407807D01*
X403914Y408160D01*
X403000Y408280D01*
D02*
G37*
G36*
X544950Y407780D02*
X544036Y407660D01*
X543185Y407307D01*
X542454Y406746D01*
X541893Y406015D01*
X541540Y405164D01*
X541420Y404250D01*
X541540Y403336D01*
X541893Y402485D01*
X542454Y401754D01*
X543185Y401193D01*
X544036Y400840D01*
X544950Y400720D01*
X545864Y400840D01*
X546715Y401193D01*
X547446Y401754D01*
X548007Y402485D01*
X548360Y403336D01*
X548480Y404250D01*
X548360Y405164D01*
X548007Y406015D01*
X547446Y406746D01*
X546715Y407307D01*
X545864Y407660D01*
X544950Y407780D01*
D02*
G37*
G36*
X441401Y406851D02*
X440487Y406731D01*
X439636Y406378D01*
X438905Y405817D01*
X438344Y405086D01*
X437991Y404235D01*
X437871Y403321D01*
X437991Y402407D01*
X438344Y401556D01*
X438905Y400825D01*
X439636Y400264D01*
X440487Y399911D01*
X441401Y399791D01*
X442315Y399911D01*
X443166Y400264D01*
X443897Y400825D01*
X444458Y401556D01*
X444811Y402407D01*
X444931Y403321D01*
X444811Y404235D01*
X444458Y405086D01*
X443897Y405817D01*
X443166Y406378D01*
X442315Y406731D01*
X441401Y406851D01*
D02*
G37*
G36*
X343750Y406530D02*
X342836Y406410D01*
X341985Y406057D01*
X341254Y405496D01*
X340693Y404765D01*
X340340Y403914D01*
X340220Y403000D01*
X340340Y402086D01*
X340693Y401235D01*
X341254Y400504D01*
X341985Y399943D01*
X342836Y399590D01*
X343750Y399470D01*
X344664Y399590D01*
X345515Y399943D01*
X346246Y400504D01*
X346807Y401235D01*
X347160Y402086D01*
X347280Y403000D01*
X347160Y403914D01*
X346807Y404765D01*
X346246Y405496D01*
X345515Y406057D01*
X344664Y406410D01*
X343750Y406530D01*
D02*
G37*
G36*
X320250D02*
X319336Y406410D01*
X318485Y406057D01*
X317754Y405496D01*
X317193Y404765D01*
X316840Y403914D01*
X316720Y403000D01*
X316840Y402086D01*
X317193Y401235D01*
X317754Y400504D01*
X318485Y399943D01*
X319336Y399590D01*
X320250Y399470D01*
X321164Y399590D01*
X322015Y399943D01*
X322746Y400504D01*
X323307Y401235D01*
X323660Y402086D01*
X323780Y403000D01*
X323660Y403914D01*
X323307Y404765D01*
X322746Y405496D01*
X322015Y406057D01*
X321164Y406410D01*
X320250Y406530D01*
D02*
G37*
G36*
X279500Y404814D02*
X278391Y404668D01*
X277357Y404240D01*
X276469Y403559D01*
X275788Y402671D01*
X275359Y401637D01*
X275213Y400527D01*
X275359Y399418D01*
X275788Y398384D01*
X276469Y397496D01*
X277357Y396815D01*
X278391Y396387D01*
X279500Y396241D01*
X280609Y396387D01*
X281643Y396815D01*
X282531Y397496D01*
X283212Y398384D01*
X283641Y399418D01*
X283787Y400527D01*
X283641Y401637D01*
X283212Y402671D01*
X282531Y403559D01*
X281643Y404240D01*
X280609Y404668D01*
X279500Y404814D01*
D02*
G37*
G36*
X259500D02*
X258390Y404668D01*
X257357Y404240D01*
X256469Y403559D01*
X255788Y402671D01*
X255359Y401637D01*
X255213Y400527D01*
X255359Y399418D01*
X255788Y398384D01*
X256469Y397496D01*
X257357Y396815D01*
X258390Y396387D01*
X259500Y396241D01*
X260610Y396387D01*
X261643Y396815D01*
X262531Y397496D01*
X263212Y398384D01*
X263641Y399418D01*
X263787Y400527D01*
X263641Y401637D01*
X263212Y402671D01*
X262531Y403559D01*
X261643Y404240D01*
X260610Y404668D01*
X259500Y404814D01*
D02*
G37*
G36*
X631500Y402770D02*
X630586Y402650D01*
X629735Y402297D01*
X629004Y401736D01*
X628443Y401005D01*
X628090Y400154D01*
X627970Y399240D01*
X628090Y398326D01*
X628443Y397475D01*
X629004Y396744D01*
X629735Y396183D01*
X630586Y395830D01*
X631500Y395710D01*
X632414Y395830D01*
X633265Y396183D01*
X633996Y396744D01*
X634557Y397475D01*
X634910Y398326D01*
X635030Y399240D01*
X634910Y400154D01*
X634557Y401005D01*
X633996Y401736D01*
X633265Y402297D01*
X632414Y402650D01*
X631500Y402770D01*
D02*
G37*
G36*
X516500Y402030D02*
X515586Y401910D01*
X514735Y401557D01*
X514004Y400996D01*
X513443Y400265D01*
X513090Y399414D01*
X512970Y398500D01*
X513090Y397586D01*
X513443Y396735D01*
X514004Y396004D01*
X514735Y395443D01*
X515586Y395090D01*
X516500Y394970D01*
X517414Y395090D01*
X518265Y395443D01*
X518996Y396004D01*
X519557Y396735D01*
X519910Y397586D01*
X520030Y398500D01*
X519910Y399414D01*
X519557Y400265D01*
X518996Y400996D01*
X518265Y401557D01*
X517414Y401910D01*
X516500Y402030D01*
D02*
G37*
G36*
X370000D02*
X369086Y401910D01*
X368235Y401557D01*
X367504Y400996D01*
X366943Y400265D01*
X366590Y399414D01*
X366470Y398500D01*
X366590Y397586D01*
X366943Y396735D01*
X367504Y396004D01*
X368235Y395443D01*
X369086Y395090D01*
X370000Y394970D01*
X370914Y395090D01*
X371765Y395443D01*
X372496Y396004D01*
X373057Y396735D01*
X373410Y397586D01*
X373530Y398500D01*
X373410Y399414D01*
X373057Y400265D01*
X372496Y400996D01*
X371765Y401557D01*
X370914Y401910D01*
X370000Y402030D01*
D02*
G37*
G36*
X650700Y399530D02*
X649786Y399410D01*
X648935Y399057D01*
X648204Y398496D01*
X647643Y397765D01*
X647290Y396914D01*
X647170Y396000D01*
X647290Y395086D01*
X647643Y394235D01*
X648204Y393504D01*
X648935Y392943D01*
X649786Y392590D01*
X650700Y392470D01*
X651614Y392590D01*
X652465Y392943D01*
X653196Y393504D01*
X653757Y394235D01*
X654110Y395086D01*
X654230Y396000D01*
X654110Y396914D01*
X653757Y397765D01*
X653196Y398496D01*
X652465Y399057D01*
X651614Y399410D01*
X650700Y399530D01*
D02*
G37*
G36*
X614250D02*
X613336Y399410D01*
X612485Y399057D01*
X611754Y398496D01*
X611193Y397765D01*
X610840Y396914D01*
X610720Y396000D01*
X610840Y395086D01*
X611193Y394235D01*
X611754Y393504D01*
X612485Y392943D01*
X613336Y392590D01*
X614250Y392470D01*
X615164Y392590D01*
X616015Y392943D01*
X616746Y393504D01*
X617307Y394235D01*
X617660Y395086D01*
X617780Y396000D01*
X617660Y396914D01*
X617307Y397765D01*
X616746Y398496D01*
X616015Y399057D01*
X615164Y399410D01*
X614250Y399530D01*
D02*
G37*
G36*
X269500Y399355D02*
X268390Y399209D01*
X267357Y398780D01*
X266469Y398099D01*
X265788Y397212D01*
X265359Y396178D01*
X265213Y395068D01*
X265359Y393959D01*
X265788Y392925D01*
X266469Y392037D01*
X267357Y391356D01*
X268390Y390928D01*
X269500Y390781D01*
X270609Y390928D01*
X271643Y391356D01*
X272531Y392037D01*
X273212Y392925D01*
X273641Y393959D01*
X273787Y395068D01*
X273641Y396178D01*
X273212Y397212D01*
X272531Y398099D01*
X271643Y398780D01*
X270609Y399209D01*
X269500Y399355D01*
D02*
G37*
G36*
X470000Y395280D02*
X469086Y395160D01*
X468235Y394807D01*
X467504Y394246D01*
X466943Y393515D01*
X466590Y392664D01*
X466470Y391750D01*
X466590Y390836D01*
X466943Y389985D01*
X467504Y389254D01*
X468235Y388693D01*
X469086Y388340D01*
X470000Y388220D01*
X470914Y388340D01*
X471765Y388693D01*
X472496Y389254D01*
X473057Y389985D01*
X473410Y390836D01*
X473530Y391750D01*
X473410Y392664D01*
X473057Y393515D01*
X472496Y394246D01*
X471765Y394807D01*
X470914Y395160D01*
X470000Y395280D01*
D02*
G37*
G36*
X501594Y395030D02*
X500681Y394910D01*
X499829Y394557D01*
X499098Y393996D01*
X498537Y393265D01*
X498184Y392414D01*
X498064Y391500D01*
X498184Y390586D01*
X498537Y389735D01*
X499098Y389004D01*
X499829Y388443D01*
X500681Y388090D01*
X501594Y387970D01*
X502508Y388090D01*
X503360Y388443D01*
X504091Y389004D01*
X504652Y389735D01*
X505004Y390586D01*
X505125Y391500D01*
X505004Y392414D01*
X504652Y393265D01*
X504091Y393996D01*
X503360Y394557D01*
X502508Y394910D01*
X501594Y395030D01*
D02*
G37*
G36*
X344250D02*
X343336Y394910D01*
X342485Y394557D01*
X341754Y393996D01*
X341193Y393265D01*
X340840Y392414D01*
X340720Y391500D01*
X340840Y390586D01*
X341193Y389735D01*
X341754Y389004D01*
X342485Y388443D01*
X343336Y388090D01*
X344250Y387970D01*
X345164Y388090D01*
X346015Y388443D01*
X346746Y389004D01*
X347307Y389735D01*
X347660Y390586D01*
X347780Y391500D01*
X347660Y392414D01*
X347307Y393265D01*
X346746Y393996D01*
X346015Y394557D01*
X345164Y394910D01*
X344250Y395030D01*
D02*
G37*
G36*
X440000Y393530D02*
X439086Y393410D01*
X438235Y393057D01*
X437504Y392496D01*
X436943Y391765D01*
X436590Y390914D01*
X436470Y390000D01*
X436590Y389086D01*
X436943Y388235D01*
X437504Y387504D01*
X438235Y386943D01*
X439086Y386590D01*
X440000Y386470D01*
X440914Y386590D01*
X441765Y386943D01*
X442496Y387504D01*
X443057Y388235D01*
X443410Y389086D01*
X443530Y390000D01*
X443410Y390914D01*
X443057Y391765D01*
X442496Y392496D01*
X441765Y393057D01*
X440914Y393410D01*
X440000Y393530D01*
D02*
G37*
G36*
X279500Y393948D02*
X278391Y393802D01*
X277357Y393374D01*
X276469Y392692D01*
X275788Y391805D01*
X275359Y390771D01*
X275213Y389661D01*
X275359Y388552D01*
X275788Y387518D01*
X276469Y386630D01*
X277357Y385949D01*
X278391Y385521D01*
X279500Y385375D01*
X280609Y385521D01*
X281643Y385949D01*
X282531Y386630D01*
X283212Y387518D01*
X283641Y388552D01*
X283787Y389661D01*
X283641Y390771D01*
X283212Y391805D01*
X282531Y392692D01*
X281643Y393374D01*
X280609Y393802D01*
X279500Y393948D01*
D02*
G37*
G36*
X259500D02*
X258390Y393802D01*
X257357Y393374D01*
X256469Y392692D01*
X255788Y391805D01*
X255359Y390771D01*
X255213Y389661D01*
X255359Y388552D01*
X255788Y387518D01*
X256469Y386630D01*
X257357Y385949D01*
X258390Y385521D01*
X259500Y385375D01*
X260610Y385521D01*
X261643Y385949D01*
X262531Y386630D01*
X263212Y387518D01*
X263641Y388552D01*
X263787Y389661D01*
X263641Y390771D01*
X263212Y391805D01*
X262531Y392692D01*
X261643Y393374D01*
X260610Y393802D01*
X259500Y393948D01*
D02*
G37*
G36*
X614435Y391280D02*
X613521Y391160D01*
X612670Y390807D01*
X611939Y390246D01*
X611378Y389515D01*
X611025Y388664D01*
X610905Y387750D01*
X611025Y386836D01*
X611378Y385985D01*
X611939Y385254D01*
X612670Y384693D01*
X613521Y384340D01*
X614435Y384220D01*
X615349Y384340D01*
X616200Y384693D01*
X616931Y385254D01*
X617492Y385985D01*
X617845Y386836D01*
X617965Y387750D01*
X617845Y388664D01*
X617492Y389515D01*
X616931Y390246D01*
X616200Y390807D01*
X615349Y391160D01*
X614435Y391280D01*
D02*
G37*
G36*
X373000Y388530D02*
X372086Y388410D01*
X371235Y388057D01*
X370504Y387496D01*
X369943Y386765D01*
X369590Y385914D01*
X369470Y385000D01*
X369590Y384086D01*
X369943Y383235D01*
X370504Y382504D01*
X371235Y381943D01*
X372086Y381590D01*
X373000Y381470D01*
X373914Y381590D01*
X374765Y381943D01*
X375496Y382504D01*
X376057Y383235D01*
X376410Y384086D01*
X376530Y385000D01*
X376410Y385914D01*
X376057Y386765D01*
X375496Y387496D01*
X374765Y388057D01*
X373914Y388410D01*
X373000Y388530D01*
D02*
G37*
G36*
X581436Y387030D02*
X580522Y386910D01*
X579671Y386557D01*
X578940Y385996D01*
X578379Y385265D01*
X578026Y384414D01*
X577906Y383500D01*
X578026Y382586D01*
X578379Y381735D01*
X578940Y381004D01*
X579671Y380443D01*
X580522Y380090D01*
X581436Y379970D01*
X582349Y380090D01*
X583201Y380443D01*
X583932Y381004D01*
X584493Y381735D01*
X584846Y382586D01*
X584966Y383500D01*
X584846Y384414D01*
X584493Y385265D01*
X583932Y385996D01*
X583201Y386557D01*
X582349Y386910D01*
X581436Y387030D01*
D02*
G37*
G36*
X269500Y388491D02*
X268390Y388345D01*
X267357Y387917D01*
X266469Y387236D01*
X265788Y386348D01*
X265359Y385314D01*
X265213Y384205D01*
X265359Y383095D01*
X265788Y382061D01*
X266469Y381173D01*
X267357Y380492D01*
X268390Y380064D01*
X269500Y379918D01*
X270609Y380064D01*
X271643Y380492D01*
X272531Y381173D01*
X273212Y382061D01*
X273641Y383095D01*
X273787Y384205D01*
X273641Y385314D01*
X273212Y386348D01*
X272531Y387236D01*
X271643Y387917D01*
X270609Y388345D01*
X269500Y388491D01*
D02*
G37*
G36*
X317388Y385030D02*
X316474Y384910D01*
X315623Y384557D01*
X314892Y383996D01*
X314331Y383265D01*
X313978Y382414D01*
X313858Y381500D01*
X313978Y380586D01*
X314331Y379735D01*
X314892Y379004D01*
X315623Y378443D01*
X316474Y378090D01*
X317388Y377970D01*
X318302Y378090D01*
X319153Y378443D01*
X319884Y379004D01*
X320445Y379735D01*
X320798Y380586D01*
X320918Y381500D01*
X320798Y382414D01*
X320445Y383265D01*
X319884Y383996D01*
X319153Y384557D01*
X318302Y384910D01*
X317388Y385030D01*
D02*
G37*
G36*
X279500Y383082D02*
X278391Y382936D01*
X277357Y382508D01*
X276469Y381826D01*
X275788Y380939D01*
X275359Y379905D01*
X275213Y378795D01*
X275359Y377686D01*
X275788Y376652D01*
X276469Y375764D01*
X277357Y375083D01*
X278391Y374655D01*
X279500Y374509D01*
X280609Y374655D01*
X281643Y375083D01*
X282531Y375764D01*
X283212Y376652D01*
X283641Y377686D01*
X283787Y378795D01*
X283641Y379905D01*
X283212Y380939D01*
X282531Y381826D01*
X281643Y382508D01*
X280609Y382936D01*
X279500Y383082D01*
D02*
G37*
G36*
X259500D02*
X258390Y382936D01*
X257357Y382508D01*
X256469Y381826D01*
X255788Y380939D01*
X255359Y379905D01*
X255213Y378795D01*
X255359Y377686D01*
X255788Y376652D01*
X256469Y375764D01*
X257357Y375083D01*
X258390Y374655D01*
X259500Y374509D01*
X260610Y374655D01*
X261643Y375083D01*
X262531Y375764D01*
X263212Y376652D01*
X263641Y377686D01*
X263787Y378795D01*
X263641Y379905D01*
X263212Y380939D01*
X262531Y381826D01*
X261643Y382508D01*
X260610Y382936D01*
X259500Y383082D01*
D02*
G37*
G36*
X585000Y379280D02*
X584086Y379160D01*
X583235Y378807D01*
X582504Y378246D01*
X581943Y377515D01*
X581590Y376664D01*
X581470Y375750D01*
X581590Y374836D01*
X581943Y373985D01*
X582504Y373254D01*
X583235Y372693D01*
X584086Y372340D01*
X585000Y372220D01*
X585914Y372340D01*
X586765Y372693D01*
X587496Y373254D01*
X588057Y373985D01*
X588410Y374836D01*
X588530Y375750D01*
X588410Y376664D01*
X588057Y377515D01*
X587496Y378246D01*
X586765Y378807D01*
X585914Y379160D01*
X585000Y379280D01*
D02*
G37*
G36*
X334750Y378030D02*
X333836Y377910D01*
X332985Y377557D01*
X332254Y376996D01*
X331693Y376265D01*
X331340Y375414D01*
X331220Y374500D01*
X331340Y373586D01*
X331693Y372735D01*
X332254Y372004D01*
X332985Y371443D01*
X333836Y371090D01*
X334750Y370970D01*
X335664Y371090D01*
X336515Y371443D01*
X337246Y372004D01*
X337807Y372735D01*
X338160Y373586D01*
X338280Y374500D01*
X338160Y375414D01*
X337807Y376265D01*
X337246Y376996D01*
X336515Y377557D01*
X335664Y377910D01*
X334750Y378030D01*
D02*
G37*
G36*
X269500Y377628D02*
X268390Y377482D01*
X267357Y377053D01*
X266469Y376372D01*
X265788Y375484D01*
X265359Y374451D01*
X265213Y373341D01*
X265359Y372232D01*
X265788Y371198D01*
X266469Y370310D01*
X267357Y369629D01*
X268390Y369200D01*
X269500Y369055D01*
X270609Y369200D01*
X271643Y369629D01*
X272531Y370310D01*
X273212Y371198D01*
X273641Y372232D01*
X273787Y373341D01*
X273641Y374451D01*
X273212Y375484D01*
X272531Y376372D01*
X271643Y377053D01*
X270609Y377482D01*
X269500Y377628D01*
D02*
G37*
G36*
X610500Y373622D02*
X609586Y373501D01*
X608735Y373149D01*
X608004Y372588D01*
X607443Y371857D01*
X607090Y371005D01*
X606970Y370092D01*
X607090Y369178D01*
X607443Y368326D01*
X608004Y367595D01*
X608735Y367034D01*
X609586Y366682D01*
X610500Y366561D01*
X611414Y366682D01*
X612265Y367034D01*
X612996Y367595D01*
X613557Y368326D01*
X613910Y369178D01*
X614030Y370092D01*
X613910Y371005D01*
X613557Y371857D01*
X612996Y372588D01*
X612265Y373149D01*
X611414Y373501D01*
X610500Y373622D01*
D02*
G37*
G36*
X488500Y372280D02*
X487586Y372160D01*
X486735Y371807D01*
X486004Y371246D01*
X485443Y370515D01*
X485090Y369664D01*
X484970Y368750D01*
X485090Y367836D01*
X485443Y366985D01*
X486004Y366254D01*
X486735Y365693D01*
X487586Y365340D01*
X488500Y365220D01*
X489414Y365340D01*
X490265Y365693D01*
X490996Y366254D01*
X491557Y366985D01*
X491910Y367836D01*
X492030Y368750D01*
X491910Y369664D01*
X491557Y370515D01*
X490996Y371246D01*
X490265Y371807D01*
X489414Y372160D01*
X488500Y372280D01*
D02*
G37*
G36*
X581614Y372173D02*
X580700Y372052D01*
X579849Y371700D01*
X579118Y371139D01*
X578557Y370408D01*
X578204Y369556D01*
X578084Y368642D01*
X578204Y367729D01*
X578557Y366877D01*
X579118Y366146D01*
X579849Y365585D01*
X580700Y365232D01*
X581614Y365112D01*
X582528Y365232D01*
X583379Y365585D01*
X584110Y366146D01*
X584671Y366877D01*
X585024Y367729D01*
X585144Y368642D01*
X585024Y369556D01*
X584671Y370408D01*
X584110Y371139D01*
X583379Y371700D01*
X582528Y372052D01*
X581614Y372173D01*
D02*
G37*
G36*
X279500Y372216D02*
X278391Y372070D01*
X277357Y371641D01*
X276469Y370960D01*
X275788Y370073D01*
X275359Y369039D01*
X275213Y367929D01*
X275359Y366820D01*
X275788Y365786D01*
X276469Y364898D01*
X277357Y364217D01*
X278391Y363789D01*
X279500Y363643D01*
X280609Y363789D01*
X281643Y364217D01*
X282531Y364898D01*
X283212Y365786D01*
X283641Y366820D01*
X283787Y367929D01*
X283641Y369039D01*
X283212Y370073D01*
X282531Y370960D01*
X281643Y371641D01*
X280609Y372070D01*
X279500Y372216D01*
D02*
G37*
G36*
X259500D02*
X258390Y372070D01*
X257357Y371641D01*
X256469Y370960D01*
X255788Y370073D01*
X255359Y369039D01*
X255213Y367929D01*
X255359Y366820D01*
X255788Y365786D01*
X256469Y364898D01*
X257357Y364217D01*
X258390Y363789D01*
X259500Y363643D01*
X260610Y363789D01*
X261643Y364217D01*
X262531Y364898D01*
X263212Y365786D01*
X263641Y366820D01*
X263787Y367929D01*
X263641Y369039D01*
X263212Y370073D01*
X262531Y370960D01*
X261643Y371641D01*
X260610Y372070D01*
X259500Y372216D01*
D02*
G37*
G36*
X405875Y370573D02*
X404961Y370453D01*
X404110Y370101D01*
X403379Y369539D01*
X402818Y368808D01*
X402465Y367957D01*
X402345Y367043D01*
X402465Y366130D01*
X402818Y365278D01*
X403379Y364547D01*
X404110Y363986D01*
X404961Y363633D01*
X405875Y363513D01*
X406788Y363633D01*
X407640Y363986D01*
X408371Y364547D01*
X408932Y365278D01*
X409285Y366130D01*
X409405Y367043D01*
X409285Y367957D01*
X408932Y368808D01*
X408371Y369539D01*
X407640Y370101D01*
X406788Y370453D01*
X405875Y370573D01*
D02*
G37*
G36*
X375000Y370530D02*
X374086Y370410D01*
X373235Y370057D01*
X372504Y369496D01*
X371943Y368765D01*
X371590Y367914D01*
X371470Y367000D01*
X371590Y366086D01*
X371943Y365235D01*
X372504Y364504D01*
X373235Y363943D01*
X374086Y363590D01*
X375000Y363470D01*
X375914Y363590D01*
X376765Y363943D01*
X377496Y364504D01*
X378057Y365235D01*
X378410Y366086D01*
X378530Y367000D01*
X378410Y367914D01*
X378057Y368765D01*
X377496Y369496D01*
X376765Y370057D01*
X375914Y370410D01*
X375000Y370530D01*
D02*
G37*
G36*
X307000D02*
X306086Y370410D01*
X305235Y370057D01*
X304504Y369496D01*
X303943Y368765D01*
X303590Y367914D01*
X303470Y367000D01*
X303590Y366086D01*
X303943Y365235D01*
X304504Y364504D01*
X305235Y363943D01*
X306086Y363590D01*
X307000Y363470D01*
X307914Y363590D01*
X308765Y363943D01*
X309496Y364504D01*
X310057Y365235D01*
X310410Y366086D01*
X310530Y367000D01*
X310410Y367914D01*
X310057Y368765D01*
X309496Y369496D01*
X308765Y370057D01*
X307914Y370410D01*
X307000Y370530D01*
D02*
G37*
G36*
X436401Y370351D02*
X435487Y370231D01*
X434636Y369878D01*
X433905Y369317D01*
X433344Y368586D01*
X432991Y367735D01*
X432871Y366821D01*
X432991Y365907D01*
X433344Y365056D01*
X433905Y364325D01*
X434636Y363764D01*
X435487Y363411D01*
X436401Y363291D01*
X437315Y363411D01*
X438166Y363764D01*
X438897Y364325D01*
X439458Y365056D01*
X439811Y365907D01*
X439931Y366821D01*
X439811Y367735D01*
X439458Y368586D01*
X438897Y369317D01*
X438166Y369878D01*
X437315Y370231D01*
X436401Y370351D01*
D02*
G37*
G36*
X289750Y367730D02*
X288836Y367610D01*
X287985Y367257D01*
X287254Y366696D01*
X286693Y365965D01*
X286340Y365114D01*
X286220Y364200D01*
X286340Y363286D01*
X286693Y362435D01*
X287254Y361704D01*
X287985Y361143D01*
X288836Y360790D01*
X289750Y360670D01*
X290664Y360790D01*
X291515Y361143D01*
X292246Y361704D01*
X292807Y362435D01*
X293160Y363286D01*
X293280Y364200D01*
X293160Y365114D01*
X292807Y365965D01*
X292246Y366696D01*
X291515Y367257D01*
X290664Y367610D01*
X289750Y367730D01*
D02*
G37*
G36*
X346665Y367370D02*
X345752Y367249D01*
X344900Y366897D01*
X344169Y366336D01*
X343608Y365605D01*
X343255Y364753D01*
X343135Y363840D01*
X343255Y362926D01*
X343608Y362074D01*
X344169Y361343D01*
X344900Y360782D01*
X345752Y360430D01*
X346665Y360309D01*
X347579Y360430D01*
X348430Y360782D01*
X349162Y361343D01*
X349723Y362074D01*
X350075Y362926D01*
X350196Y363840D01*
X350075Y364753D01*
X349723Y365605D01*
X349162Y366336D01*
X348430Y366897D01*
X347579Y367249D01*
X346665Y367370D01*
D02*
G37*
G36*
X269500Y366764D02*
X268390Y366618D01*
X267357Y366190D01*
X266469Y365509D01*
X265788Y364621D01*
X265359Y363587D01*
X265213Y362478D01*
X265359Y361368D01*
X265788Y360334D01*
X266469Y359447D01*
X267357Y358765D01*
X268390Y358337D01*
X269500Y358191D01*
X270609Y358337D01*
X271643Y358765D01*
X272531Y359447D01*
X273212Y360334D01*
X273641Y361368D01*
X273787Y362478D01*
X273641Y363587D01*
X273212Y364621D01*
X272531Y365509D01*
X271643Y366190D01*
X270609Y366618D01*
X269500Y366764D01*
D02*
G37*
G36*
X630887Y361280D02*
X629973Y361160D01*
X629122Y360807D01*
X628391Y360246D01*
X627830Y359515D01*
X627477Y358664D01*
X627357Y357750D01*
X627477Y356836D01*
X627830Y355985D01*
X628391Y355254D01*
X629122Y354693D01*
X629973Y354340D01*
X630887Y354220D01*
X631801Y354340D01*
X632652Y354693D01*
X633383Y355254D01*
X633944Y355985D01*
X634297Y356836D01*
X634417Y357750D01*
X634297Y358664D01*
X633944Y359515D01*
X633383Y360246D01*
X632652Y360807D01*
X631801Y361160D01*
X630887Y361280D01*
D02*
G37*
G36*
X568000Y360280D02*
X567086Y360160D01*
X566235Y359807D01*
X565504Y359246D01*
X564943Y358515D01*
X564590Y357664D01*
X564470Y356750D01*
X564590Y355836D01*
X564943Y354985D01*
X565504Y354254D01*
X566235Y353693D01*
X567086Y353340D01*
X568000Y353220D01*
X568914Y353340D01*
X569765Y353693D01*
X570496Y354254D01*
X571057Y354985D01*
X571410Y355836D01*
X571530Y356750D01*
X571410Y357664D01*
X571057Y358515D01*
X570496Y359246D01*
X569765Y359807D01*
X568914Y360160D01*
X568000Y360280D01*
D02*
G37*
G36*
X279500Y361350D02*
X278391Y361204D01*
X277357Y360775D01*
X276469Y360094D01*
X275788Y359206D01*
X275359Y358172D01*
X275213Y357063D01*
X275359Y355954D01*
X275788Y354920D01*
X276469Y354032D01*
X277357Y353351D01*
X278391Y352922D01*
X279500Y352776D01*
X280609Y352922D01*
X281643Y353351D01*
X282531Y354032D01*
X283212Y354920D01*
X283641Y355954D01*
X283787Y357063D01*
X283641Y358172D01*
X283212Y359206D01*
X282531Y360094D01*
X281643Y360775D01*
X280609Y361204D01*
X279500Y361350D01*
D02*
G37*
G36*
X259500D02*
X258390Y361204D01*
X257357Y360775D01*
X256469Y360094D01*
X255788Y359206D01*
X255359Y358172D01*
X255213Y357063D01*
X255359Y355954D01*
X255788Y354920D01*
X256469Y354032D01*
X257357Y353351D01*
X258390Y352922D01*
X259500Y352776D01*
X260610Y352922D01*
X261643Y353351D01*
X262531Y354032D01*
X263212Y354920D01*
X263641Y355954D01*
X263787Y357063D01*
X263641Y358172D01*
X263212Y359206D01*
X262531Y360094D01*
X261643Y360775D01*
X260610Y361204D01*
X259500Y361350D01*
D02*
G37*
G36*
X310750Y361083D02*
X309564Y360926D01*
X308459Y360469D01*
X307510Y359740D01*
X306781Y358791D01*
X306324Y357686D01*
X306168Y356500D01*
X306324Y355314D01*
X306781Y354209D01*
X307510Y353260D01*
X308459Y352531D01*
X309564Y352074D01*
X310750Y351918D01*
X311936Y352074D01*
X313041Y352531D01*
X313990Y353260D01*
X314719Y354209D01*
X315176Y355314D01*
X315333Y356500D01*
X315176Y357686D01*
X314719Y358791D01*
X313990Y359740D01*
X313041Y360469D01*
X311936Y360926D01*
X310750Y361083D01*
D02*
G37*
G36*
X300750D02*
X299564Y360926D01*
X298459Y360469D01*
X297510Y359740D01*
X296781Y358791D01*
X296324Y357686D01*
X296167Y356500D01*
X296324Y355314D01*
X296781Y354209D01*
X297510Y353260D01*
X298459Y352531D01*
X299564Y352074D01*
X300750Y351918D01*
X301936Y352074D01*
X303041Y352531D01*
X303990Y353260D01*
X304719Y354209D01*
X305176Y355314D01*
X305332Y356500D01*
X305176Y357686D01*
X304719Y358791D01*
X303990Y359740D01*
X303041Y360469D01*
X301936Y360926D01*
X300750Y361083D01*
D02*
G37*
G36*
X269500Y355901D02*
X268390Y355755D01*
X267357Y355327D01*
X266469Y354645D01*
X265788Y353758D01*
X265359Y352724D01*
X265213Y351614D01*
X265359Y350505D01*
X265788Y349471D01*
X266469Y348583D01*
X267357Y347902D01*
X268390Y347474D01*
X269500Y347327D01*
X270609Y347474D01*
X271643Y347902D01*
X272531Y348583D01*
X273212Y349471D01*
X273641Y350505D01*
X273787Y351614D01*
X273641Y352724D01*
X273212Y353758D01*
X272531Y354645D01*
X271643Y355327D01*
X270609Y355755D01*
X269500Y355901D01*
D02*
G37*
G36*
X279500Y350483D02*
X278391Y350337D01*
X277357Y349909D01*
X276469Y349228D01*
X275788Y348340D01*
X275359Y347306D01*
X275213Y346197D01*
X275359Y345087D01*
X275788Y344054D01*
X276469Y343166D01*
X277357Y342484D01*
X278391Y342056D01*
X279500Y341910D01*
X280609Y342056D01*
X281643Y342484D01*
X282531Y343166D01*
X283212Y344054D01*
X283641Y345087D01*
X283787Y346197D01*
X283641Y347306D01*
X283212Y348340D01*
X282531Y349228D01*
X281643Y349909D01*
X280609Y350337D01*
X279500Y350483D01*
D02*
G37*
G36*
X259500D02*
X258390Y350337D01*
X257357Y349909D01*
X256469Y349228D01*
X255788Y348340D01*
X255359Y347306D01*
X255213Y346197D01*
X255359Y345087D01*
X255788Y344054D01*
X256469Y343166D01*
X257357Y342484D01*
X258390Y342056D01*
X259500Y341910D01*
X260610Y342056D01*
X261643Y342484D01*
X262531Y343166D01*
X263212Y344054D01*
X263641Y345087D01*
X263787Y346197D01*
X263641Y347306D01*
X263212Y348340D01*
X262531Y349228D01*
X261643Y349909D01*
X260610Y350337D01*
X259500Y350483D01*
D02*
G37*
G36*
X586750Y352945D02*
X585307Y352755D01*
X583962Y352198D01*
X582808Y351312D01*
X581922Y350158D01*
X581365Y348813D01*
X581175Y347370D01*
X581365Y345927D01*
X581922Y344583D01*
X582808Y343428D01*
X583962Y342542D01*
X585307Y341985D01*
X586750Y341795D01*
X588193Y341985D01*
X589538Y342542D01*
X590692Y343428D01*
X591578Y344583D01*
X592135Y345927D01*
X592325Y347370D01*
X592135Y348813D01*
X591578Y350158D01*
X590692Y351312D01*
X589538Y352198D01*
X588193Y352755D01*
X586750Y352945D01*
D02*
G37*
G36*
X557222D02*
X555780Y352755D01*
X554435Y352198D01*
X553280Y351312D01*
X552394Y350158D01*
X551837Y348813D01*
X551647Y347370D01*
X551837Y345927D01*
X552394Y344583D01*
X553280Y343428D01*
X554435Y342542D01*
X555780Y341985D01*
X557222Y341795D01*
X558665Y341985D01*
X560010Y342542D01*
X561165Y343428D01*
X562051Y344583D01*
X562608Y345927D01*
X562798Y347370D01*
X562608Y348813D01*
X562051Y350158D01*
X561165Y351312D01*
X560010Y352198D01*
X558665Y352755D01*
X557222Y352945D01*
D02*
G37*
G36*
X641071Y352695D02*
X639628Y352505D01*
X638284Y351948D01*
X637129Y351062D01*
X636243Y349908D01*
X635686Y348563D01*
X635496Y347120D01*
X635686Y345677D01*
X636243Y344333D01*
X637129Y343178D01*
X638284Y342292D01*
X639628Y341735D01*
X641071Y341545D01*
X642514Y341735D01*
X643859Y342292D01*
X645014Y343178D01*
X645900Y344333D01*
X646457Y345677D01*
X646647Y347120D01*
X646457Y348563D01*
X645900Y349908D01*
X645014Y351062D01*
X643859Y351948D01*
X642514Y352505D01*
X641071Y352695D01*
D02*
G37*
G36*
X611544D02*
X610101Y352505D01*
X608756Y351948D01*
X607601Y351062D01*
X606715Y349908D01*
X606159Y348563D01*
X605969Y347120D01*
X606159Y345677D01*
X606715Y344333D01*
X607601Y343178D01*
X608756Y342292D01*
X610101Y341735D01*
X611544Y341545D01*
X612987Y341735D01*
X614331Y342292D01*
X615486Y343178D01*
X616372Y344333D01*
X616929Y345677D01*
X617119Y347120D01*
X616929Y348563D01*
X616372Y349908D01*
X615486Y351062D01*
X614331Y351948D01*
X612987Y352505D01*
X611544Y352695D01*
D02*
G37*
G36*
X532643D02*
X531200Y352505D01*
X529855Y351948D01*
X528700Y351062D01*
X527814Y349908D01*
X527257Y348563D01*
X527068Y347120D01*
X527257Y345677D01*
X527814Y344333D01*
X528700Y343178D01*
X529855Y342292D01*
X531200Y341735D01*
X532643Y341545D01*
X534086Y341735D01*
X535430Y342292D01*
X536585Y343178D01*
X537471Y344333D01*
X538028Y345677D01*
X538218Y347120D01*
X538028Y348563D01*
X537471Y349908D01*
X536585Y351062D01*
X535430Y351948D01*
X534086Y352505D01*
X532643Y352695D01*
D02*
G37*
G36*
X503115D02*
X501672Y352505D01*
X500328Y351948D01*
X499173Y351062D01*
X498287Y349908D01*
X497730Y348563D01*
X497540Y347120D01*
X497730Y345677D01*
X498287Y344333D01*
X499173Y343178D01*
X500328Y342292D01*
X501672Y341735D01*
X503115Y341545D01*
X504558Y341735D01*
X505903Y342292D01*
X507058Y343178D01*
X507944Y344333D01*
X508501Y345677D01*
X508691Y347120D01*
X508501Y348563D01*
X507944Y349908D01*
X507058Y351062D01*
X505903Y351948D01*
X504558Y352505D01*
X503115Y352695D01*
D02*
G37*
G36*
X478429D02*
X476986Y352505D01*
X475641Y351948D01*
X474486Y351062D01*
X473600Y349908D01*
X473043Y348563D01*
X472853Y347120D01*
X473043Y345677D01*
X473600Y344333D01*
X474486Y343178D01*
X475641Y342292D01*
X476986Y341735D01*
X478429Y341545D01*
X479872Y341735D01*
X481216Y342292D01*
X482371Y343178D01*
X483257Y344333D01*
X483814Y345677D01*
X484004Y347120D01*
X483814Y348563D01*
X483257Y349908D01*
X482371Y351062D01*
X481216Y351948D01*
X479872Y352505D01*
X478429Y352695D01*
D02*
G37*
G36*
X448901D02*
X447458Y352505D01*
X446113Y351948D01*
X444959Y351062D01*
X444073Y349908D01*
X443516Y348563D01*
X443326Y347120D01*
X443516Y345677D01*
X444073Y344333D01*
X444959Y343178D01*
X446113Y342292D01*
X447458Y341735D01*
X448901Y341545D01*
X450344Y341735D01*
X451689Y342292D01*
X452843Y343178D01*
X453729Y344333D01*
X454286Y345677D01*
X454476Y347120D01*
X454286Y348563D01*
X453729Y349908D01*
X452843Y351062D01*
X451689Y351948D01*
X450344Y352505D01*
X448901Y352695D01*
D02*
G37*
G36*
X424214D02*
X422771Y352505D01*
X421427Y351948D01*
X420272Y351062D01*
X419386Y349908D01*
X418829Y348563D01*
X418639Y347120D01*
X418829Y345677D01*
X419386Y344333D01*
X420272Y343178D01*
X421427Y342292D01*
X422771Y341735D01*
X424214Y341545D01*
X425657Y341735D01*
X427002Y342292D01*
X428157Y343178D01*
X429043Y344333D01*
X429600Y345677D01*
X429789Y347120D01*
X429600Y348563D01*
X429043Y349908D01*
X428157Y351062D01*
X427002Y351948D01*
X425657Y352505D01*
X424214Y352695D01*
D02*
G37*
G36*
X394687D02*
X393244Y352505D01*
X391899Y351948D01*
X390744Y351062D01*
X389858Y349908D01*
X389301Y348563D01*
X389111Y347120D01*
X389301Y345677D01*
X389858Y344333D01*
X390744Y343178D01*
X391899Y342292D01*
X393244Y341735D01*
X394687Y341545D01*
X396130Y341735D01*
X397474Y342292D01*
X398629Y343178D01*
X399515Y344333D01*
X400072Y345677D01*
X400262Y347120D01*
X400072Y348563D01*
X399515Y349908D01*
X398629Y351062D01*
X397474Y351948D01*
X396130Y352505D01*
X394687Y352695D01*
D02*
G37*
G36*
X370000D02*
X368557Y352505D01*
X367212Y351948D01*
X366058Y351062D01*
X365172Y349908D01*
X364615Y348563D01*
X364425Y347120D01*
X364615Y345677D01*
X365172Y344333D01*
X366058Y343178D01*
X367212Y342292D01*
X368557Y341735D01*
X370000Y341545D01*
X371443Y341735D01*
X372788Y342292D01*
X373942Y343178D01*
X374828Y344333D01*
X375385Y345677D01*
X375575Y347120D01*
X375385Y348563D01*
X374828Y349908D01*
X373942Y351062D01*
X372788Y351948D01*
X371443Y352505D01*
X370000Y352695D01*
D02*
G37*
G36*
X340472D02*
X339030Y352505D01*
X337685Y351948D01*
X336530Y351062D01*
X335644Y349908D01*
X335087Y348563D01*
X334897Y347120D01*
X335087Y345677D01*
X335644Y344333D01*
X336530Y343178D01*
X337685Y342292D01*
X339030Y341735D01*
X340472Y341545D01*
X341915Y341735D01*
X343260Y342292D01*
X344415Y343178D01*
X345301Y344333D01*
X345858Y345677D01*
X346048Y347120D01*
X345858Y348563D01*
X345301Y349908D01*
X344415Y351062D01*
X343260Y351948D01*
X341915Y352505D01*
X340472Y352695D01*
D02*
G37*
G36*
X310750Y346333D02*
X309564Y346176D01*
X308459Y345719D01*
X307510Y344990D01*
X306781Y344041D01*
X306324Y342936D01*
X306168Y341750D01*
X306324Y340564D01*
X306781Y339459D01*
X307510Y338510D01*
X308459Y337781D01*
X309564Y337324D01*
X310750Y337168D01*
X311936Y337324D01*
X313041Y337781D01*
X313990Y338510D01*
X314719Y339459D01*
X315176Y340564D01*
X315333Y341750D01*
X315176Y342936D01*
X314719Y344041D01*
X313990Y344990D01*
X313041Y345719D01*
X311936Y346176D01*
X310750Y346333D01*
D02*
G37*
G36*
X300750D02*
X299564Y346176D01*
X298459Y345719D01*
X297510Y344990D01*
X296781Y344041D01*
X296324Y342936D01*
X296167Y341750D01*
X296324Y340564D01*
X296781Y339459D01*
X297510Y338510D01*
X298459Y337781D01*
X299564Y337324D01*
X300750Y337168D01*
X301936Y337324D01*
X303041Y337781D01*
X303990Y338510D01*
X304719Y339459D01*
X305176Y340564D01*
X305332Y341750D01*
X305176Y342936D01*
X304719Y344041D01*
X303990Y344990D01*
X303041Y345719D01*
X301936Y346176D01*
X300750Y346333D01*
D02*
G37*
G36*
X269500Y345037D02*
X268390Y344891D01*
X267357Y344463D01*
X266469Y343782D01*
X265788Y342894D01*
X265359Y341860D01*
X265213Y340751D01*
X265359Y339641D01*
X265788Y338607D01*
X266469Y337719D01*
X267357Y337038D01*
X268390Y336610D01*
X269500Y336464D01*
X270609Y336610D01*
X271643Y337038D01*
X272531Y337719D01*
X273212Y338607D01*
X273641Y339641D01*
X273787Y340751D01*
X273641Y341860D01*
X273212Y342894D01*
X272531Y343782D01*
X271643Y344463D01*
X270609Y344891D01*
X269500Y345037D01*
D02*
G37*
G36*
X279500Y339617D02*
X278391Y339471D01*
X277357Y339043D01*
X276469Y338362D01*
X275788Y337474D01*
X275359Y336440D01*
X275213Y335331D01*
X275359Y334221D01*
X275788Y333187D01*
X276469Y332300D01*
X277357Y331618D01*
X278391Y331190D01*
X279500Y331044D01*
X280609Y331190D01*
X281643Y331618D01*
X282531Y332300D01*
X283212Y333187D01*
X283641Y334221D01*
X283787Y335331D01*
X283641Y336440D01*
X283212Y337474D01*
X282531Y338362D01*
X281643Y339043D01*
X280609Y339471D01*
X279500Y339617D01*
D02*
G37*
G36*
X259500D02*
X258390Y339471D01*
X257357Y339043D01*
X256469Y338362D01*
X255788Y337474D01*
X255359Y336440D01*
X255213Y335331D01*
X255359Y334221D01*
X255788Y333187D01*
X256469Y332300D01*
X257357Y331618D01*
X258390Y331190D01*
X259500Y331044D01*
X260610Y331190D01*
X261643Y331618D01*
X262531Y332300D01*
X263212Y333187D01*
X263641Y334221D01*
X263787Y335331D01*
X263641Y336440D01*
X263212Y337474D01*
X262531Y338362D01*
X261643Y339043D01*
X260610Y339471D01*
X259500Y339617D01*
D02*
G37*
G36*
X269500Y334174D02*
X268390Y334028D01*
X267357Y333599D01*
X266469Y332918D01*
X265788Y332030D01*
X265359Y330997D01*
X265213Y329887D01*
X265359Y328778D01*
X265788Y327744D01*
X266469Y326856D01*
X267357Y326175D01*
X268390Y325746D01*
X269500Y325600D01*
X270609Y325746D01*
X271643Y326175D01*
X272531Y326856D01*
X273212Y327744D01*
X273641Y328778D01*
X273787Y329887D01*
X273641Y330997D01*
X273212Y332030D01*
X272531Y332918D01*
X271643Y333599D01*
X270609Y334028D01*
X269500Y334174D01*
D02*
G37*
G36*
X310750Y331582D02*
X309564Y331426D01*
X308459Y330969D01*
X307510Y330240D01*
X306781Y329291D01*
X306324Y328186D01*
X306168Y327000D01*
X306324Y325814D01*
X306781Y324709D01*
X307510Y323760D01*
X308459Y323031D01*
X309564Y322574D01*
X310750Y322417D01*
X311936Y322574D01*
X313041Y323031D01*
X313990Y323760D01*
X314719Y324709D01*
X315176Y325814D01*
X315333Y327000D01*
X315176Y328186D01*
X314719Y329291D01*
X313990Y330240D01*
X313041Y330969D01*
X311936Y331426D01*
X310750Y331582D01*
D02*
G37*
G36*
X300750D02*
X299564Y331426D01*
X298459Y330969D01*
X297510Y330240D01*
X296781Y329291D01*
X296324Y328186D01*
X296167Y327000D01*
X296324Y325814D01*
X296781Y324709D01*
X297510Y323760D01*
X298459Y323031D01*
X299564Y322574D01*
X300750Y322417D01*
X301936Y322574D01*
X303041Y323031D01*
X303990Y323760D01*
X304719Y324709D01*
X305176Y325814D01*
X305332Y327000D01*
X305176Y328186D01*
X304719Y329291D01*
X303990Y330240D01*
X303041Y330969D01*
X301936Y331426D01*
X300750Y331582D01*
D02*
G37*
G36*
X586750Y333260D02*
X585307Y333070D01*
X583962Y332513D01*
X582808Y331627D01*
X581922Y330473D01*
X581365Y329128D01*
X581175Y327685D01*
X581365Y326242D01*
X581922Y324897D01*
X582808Y323743D01*
X583962Y322857D01*
X585307Y322300D01*
X586750Y322110D01*
X588193Y322300D01*
X589538Y322857D01*
X590692Y323743D01*
X591578Y324897D01*
X592135Y326242D01*
X592325Y327685D01*
X592135Y329128D01*
X591578Y330473D01*
X590692Y331627D01*
X589538Y332513D01*
X588193Y333070D01*
X586750Y333260D01*
D02*
G37*
G36*
X611544Y333010D02*
X610101Y332820D01*
X608756Y332263D01*
X607601Y331377D01*
X606715Y330223D01*
X606159Y328878D01*
X605969Y327435D01*
X606159Y325992D01*
X606715Y324647D01*
X607601Y323493D01*
X608756Y322607D01*
X610101Y322050D01*
X611544Y321860D01*
X612987Y322050D01*
X614331Y322607D01*
X615486Y323493D01*
X616372Y324647D01*
X616929Y325992D01*
X617119Y327435D01*
X616929Y328878D01*
X616372Y330223D01*
X615486Y331377D01*
X614331Y332263D01*
X612987Y332820D01*
X611544Y333010D01*
D02*
G37*
G36*
X532643D02*
X531200Y332820D01*
X529855Y332263D01*
X528700Y331377D01*
X527814Y330223D01*
X527257Y328878D01*
X527068Y327435D01*
X527257Y325992D01*
X527814Y324647D01*
X528700Y323493D01*
X529855Y322607D01*
X531200Y322050D01*
X532643Y321860D01*
X534086Y322050D01*
X535430Y322607D01*
X536585Y323493D01*
X537471Y324647D01*
X538028Y325992D01*
X538218Y327435D01*
X538028Y328878D01*
X537471Y330223D01*
X536585Y331377D01*
X535430Y332263D01*
X534086Y332820D01*
X532643Y333010D01*
D02*
G37*
G36*
X503115D02*
X501672Y332820D01*
X500328Y332263D01*
X499173Y331377D01*
X498287Y330223D01*
X497730Y328878D01*
X497540Y327435D01*
X497730Y325992D01*
X498287Y324647D01*
X499173Y323493D01*
X500328Y322607D01*
X501672Y322050D01*
X503115Y321860D01*
X504558Y322050D01*
X505903Y322607D01*
X507058Y323493D01*
X507944Y324647D01*
X508501Y325992D01*
X508691Y327435D01*
X508501Y328878D01*
X507944Y330223D01*
X507058Y331377D01*
X505903Y332263D01*
X504558Y332820D01*
X503115Y333010D01*
D02*
G37*
G36*
X478429D02*
X476986Y332820D01*
X475641Y332263D01*
X474486Y331377D01*
X473600Y330223D01*
X473043Y328878D01*
X472853Y327435D01*
X473043Y325992D01*
X473600Y324647D01*
X474486Y323493D01*
X475641Y322607D01*
X476986Y322050D01*
X478429Y321860D01*
X479872Y322050D01*
X481216Y322607D01*
X482371Y323493D01*
X483257Y324647D01*
X483814Y325992D01*
X484004Y327435D01*
X483814Y328878D01*
X483257Y330223D01*
X482371Y331377D01*
X481216Y332263D01*
X479872Y332820D01*
X478429Y333010D01*
D02*
G37*
G36*
X448901D02*
X447458Y332820D01*
X446113Y332263D01*
X444959Y331377D01*
X444073Y330223D01*
X443516Y328878D01*
X443326Y327435D01*
X443516Y325992D01*
X444073Y324647D01*
X444959Y323493D01*
X446113Y322607D01*
X447458Y322050D01*
X448901Y321860D01*
X450344Y322050D01*
X451689Y322607D01*
X452843Y323493D01*
X453729Y324647D01*
X454286Y325992D01*
X454476Y327435D01*
X454286Y328878D01*
X453729Y330223D01*
X452843Y331377D01*
X451689Y332263D01*
X450344Y332820D01*
X448901Y333010D01*
D02*
G37*
G36*
X424214D02*
X422771Y332820D01*
X421427Y332263D01*
X420272Y331377D01*
X419386Y330223D01*
X418829Y328878D01*
X418639Y327435D01*
X418829Y325992D01*
X419386Y324647D01*
X420272Y323493D01*
X421427Y322607D01*
X422771Y322050D01*
X424214Y321860D01*
X425657Y322050D01*
X427002Y322607D01*
X428157Y323493D01*
X429043Y324647D01*
X429600Y325992D01*
X429789Y327435D01*
X429600Y328878D01*
X429043Y330223D01*
X428157Y331377D01*
X427002Y332263D01*
X425657Y332820D01*
X424214Y333010D01*
D02*
G37*
G36*
X394687D02*
X393244Y332820D01*
X391899Y332263D01*
X390744Y331377D01*
X389858Y330223D01*
X389301Y328878D01*
X389111Y327435D01*
X389301Y325992D01*
X389858Y324647D01*
X390744Y323493D01*
X391899Y322607D01*
X393244Y322050D01*
X394687Y321860D01*
X396130Y322050D01*
X397474Y322607D01*
X398629Y323493D01*
X399515Y324647D01*
X400072Y325992D01*
X400262Y327435D01*
X400072Y328878D01*
X399515Y330223D01*
X398629Y331377D01*
X397474Y332263D01*
X396130Y332820D01*
X394687Y333010D01*
D02*
G37*
G36*
X370000D02*
X368557Y332820D01*
X367212Y332263D01*
X366058Y331377D01*
X365172Y330223D01*
X364615Y328878D01*
X364425Y327435D01*
X364615Y325992D01*
X365172Y324647D01*
X366058Y323493D01*
X367212Y322607D01*
X368557Y322050D01*
X370000Y321860D01*
X371443Y322050D01*
X372788Y322607D01*
X373942Y323493D01*
X374828Y324647D01*
X375385Y325992D01*
X375575Y327435D01*
X375385Y328878D01*
X374828Y330223D01*
X373942Y331377D01*
X372788Y332263D01*
X371443Y332820D01*
X370000Y333010D01*
D02*
G37*
G36*
X340472D02*
X339030Y332820D01*
X337685Y332263D01*
X336530Y331377D01*
X335644Y330223D01*
X335087Y328878D01*
X334897Y327435D01*
X335087Y325992D01*
X335644Y324647D01*
X336530Y323493D01*
X337685Y322607D01*
X339030Y322050D01*
X340472Y321860D01*
X341915Y322050D01*
X343260Y322607D01*
X344415Y323493D01*
X345301Y324647D01*
X345858Y325992D01*
X346048Y327435D01*
X345858Y328878D01*
X345301Y330223D01*
X344415Y331377D01*
X343260Y332263D01*
X341915Y332820D01*
X340472Y333010D01*
D02*
G37*
G36*
X279500Y328751D02*
X278391Y328605D01*
X277357Y328177D01*
X276469Y327496D01*
X275788Y326608D01*
X275359Y325574D01*
X275213Y324465D01*
X275359Y323355D01*
X275788Y322321D01*
X276469Y321433D01*
X277357Y320752D01*
X278391Y320324D01*
X279500Y320178D01*
X280609Y320324D01*
X281643Y320752D01*
X282531Y321433D01*
X283212Y322321D01*
X283641Y323355D01*
X283787Y324465D01*
X283641Y325574D01*
X283212Y326608D01*
X282531Y327496D01*
X281643Y328177D01*
X280609Y328605D01*
X279500Y328751D01*
D02*
G37*
G36*
X259500D02*
X258390Y328605D01*
X257357Y328177D01*
X256469Y327496D01*
X255788Y326608D01*
X255359Y325574D01*
X255213Y324465D01*
X255359Y323355D01*
X255788Y322321D01*
X256469Y321433D01*
X257357Y320752D01*
X258390Y320324D01*
X259500Y320178D01*
X260610Y320324D01*
X261643Y320752D01*
X262531Y321433D01*
X263212Y322321D01*
X263641Y323355D01*
X263787Y324465D01*
X263641Y325574D01*
X263212Y326608D01*
X262531Y327496D01*
X261643Y328177D01*
X260610Y328605D01*
X259500Y328751D01*
D02*
G37*
G36*
X269500Y323310D02*
X268390Y323164D01*
X267357Y322736D01*
X266469Y322055D01*
X265788Y321167D01*
X265359Y320133D01*
X265213Y319024D01*
X265359Y317914D01*
X265788Y316880D01*
X266469Y315992D01*
X267357Y315311D01*
X268390Y314883D01*
X269500Y314737D01*
X270609Y314883D01*
X271643Y315311D01*
X272531Y315992D01*
X273212Y316880D01*
X273641Y317914D01*
X273787Y319024D01*
X273641Y320133D01*
X273212Y321167D01*
X272531Y322055D01*
X271643Y322736D01*
X270609Y323164D01*
X269500Y323310D01*
D02*
G37*
G36*
X279500Y317885D02*
X278391Y317739D01*
X277357Y317311D01*
X276469Y316630D01*
X275788Y315742D01*
X275359Y314708D01*
X275213Y313598D01*
X275359Y312489D01*
X275788Y311455D01*
X276469Y310567D01*
X277357Y309886D01*
X278391Y309458D01*
X279500Y309312D01*
X280609Y309458D01*
X281643Y309886D01*
X282531Y310567D01*
X283212Y311455D01*
X283641Y312489D01*
X283787Y313598D01*
X283641Y314708D01*
X283212Y315742D01*
X282531Y316630D01*
X281643Y317311D01*
X280609Y317739D01*
X279500Y317885D01*
D02*
G37*
G36*
X259500D02*
X258390Y317739D01*
X257357Y317311D01*
X256469Y316630D01*
X255788Y315742D01*
X255359Y314708D01*
X255213Y313598D01*
X255359Y312489D01*
X255788Y311455D01*
X256469Y310567D01*
X257357Y309886D01*
X258390Y309458D01*
X259500Y309312D01*
X260610Y309458D01*
X261643Y309886D01*
X262531Y310567D01*
X263212Y311455D01*
X263641Y312489D01*
X263787Y313598D01*
X263641Y314708D01*
X263212Y315742D01*
X262531Y316630D01*
X261643Y317311D01*
X260610Y317739D01*
X259500Y317885D01*
D02*
G37*
G36*
X310750Y316832D02*
X309564Y316676D01*
X308459Y316219D01*
X307510Y315490D01*
X306781Y314541D01*
X306324Y313436D01*
X306168Y312250D01*
X306324Y311064D01*
X306781Y309959D01*
X307510Y309010D01*
X308459Y308281D01*
X309564Y307824D01*
X310750Y307667D01*
X311936Y307824D01*
X313041Y308281D01*
X313990Y309010D01*
X314719Y309959D01*
X315176Y311064D01*
X315333Y312250D01*
X315176Y313436D01*
X314719Y314541D01*
X313990Y315490D01*
X313041Y316219D01*
X311936Y316676D01*
X310750Y316832D01*
D02*
G37*
G36*
X300750D02*
X299564Y316676D01*
X298459Y316219D01*
X297510Y315490D01*
X296781Y314541D01*
X296324Y313436D01*
X296167Y312250D01*
X296324Y311064D01*
X296781Y309959D01*
X297510Y309010D01*
X298459Y308281D01*
X299564Y307824D01*
X300750Y307667D01*
X301936Y307824D01*
X303041Y308281D01*
X303990Y309010D01*
X304719Y309959D01*
X305176Y311064D01*
X305332Y312250D01*
X305176Y313436D01*
X304719Y314541D01*
X303990Y315490D01*
X303041Y316219D01*
X301936Y316676D01*
X300750Y316832D01*
D02*
G37*
G36*
X269500Y312447D02*
X268390Y312301D01*
X267357Y311873D01*
X266469Y311191D01*
X265788Y310303D01*
X265359Y309270D01*
X265213Y308160D01*
X265359Y307051D01*
X265788Y306017D01*
X266469Y305129D01*
X267357Y304448D01*
X268390Y304019D01*
X269500Y303873D01*
X270609Y304019D01*
X271643Y304448D01*
X272531Y305129D01*
X273212Y306017D01*
X273641Y307051D01*
X273787Y308160D01*
X273641Y309270D01*
X273212Y310303D01*
X272531Y311191D01*
X271643Y311873D01*
X270609Y312301D01*
X269500Y312447D01*
D02*
G37*
G36*
X586750Y313575D02*
X585307Y313385D01*
X583962Y312828D01*
X582808Y311942D01*
X581922Y310788D01*
X581365Y309443D01*
X581175Y308000D01*
X581365Y306557D01*
X581922Y305212D01*
X582808Y304058D01*
X583962Y303172D01*
X585307Y302615D01*
X586750Y302425D01*
X588193Y302615D01*
X589538Y303172D01*
X590692Y304058D01*
X591578Y305212D01*
X592135Y306557D01*
X592325Y308000D01*
X592135Y309443D01*
X591578Y310788D01*
X590692Y311942D01*
X589538Y312828D01*
X588193Y313385D01*
X586750Y313575D01*
D02*
G37*
G36*
X557222D02*
X555780Y313385D01*
X554435Y312828D01*
X553280Y311942D01*
X552394Y310788D01*
X551837Y309443D01*
X551647Y308000D01*
X551837Y306557D01*
X552394Y305212D01*
X553280Y304058D01*
X554435Y303172D01*
X555780Y302615D01*
X557222Y302425D01*
X558665Y302615D01*
X560010Y303172D01*
X561165Y304058D01*
X562051Y305212D01*
X562608Y306557D01*
X562798Y308000D01*
X562608Y309443D01*
X562051Y310788D01*
X561165Y311942D01*
X560010Y312828D01*
X558665Y313385D01*
X557222Y313575D01*
D02*
G37*
G36*
X641071Y313325D02*
X639628Y313135D01*
X638284Y312578D01*
X637129Y311692D01*
X636243Y310538D01*
X635686Y309193D01*
X635496Y307750D01*
X635686Y306307D01*
X636243Y304962D01*
X637129Y303808D01*
X638284Y302922D01*
X639628Y302365D01*
X641071Y302175D01*
X642514Y302365D01*
X643859Y302922D01*
X645014Y303808D01*
X645900Y304962D01*
X646457Y306307D01*
X646647Y307750D01*
X646457Y309193D01*
X645900Y310538D01*
X645014Y311692D01*
X643859Y312578D01*
X642514Y313135D01*
X641071Y313325D01*
D02*
G37*
G36*
X611544D02*
X610101Y313135D01*
X608756Y312578D01*
X607601Y311692D01*
X606715Y310538D01*
X606159Y309193D01*
X605969Y307750D01*
X606159Y306307D01*
X606715Y304962D01*
X607601Y303808D01*
X608756Y302922D01*
X610101Y302365D01*
X611544Y302175D01*
X612987Y302365D01*
X614331Y302922D01*
X615486Y303808D01*
X616372Y304962D01*
X616929Y306307D01*
X617119Y307750D01*
X616929Y309193D01*
X616372Y310538D01*
X615486Y311692D01*
X614331Y312578D01*
X612987Y313135D01*
X611544Y313325D01*
D02*
G37*
G36*
X532643D02*
X531200Y313135D01*
X529855Y312578D01*
X528700Y311692D01*
X527814Y310538D01*
X527257Y309193D01*
X527068Y307750D01*
X527257Y306307D01*
X527814Y304962D01*
X528700Y303808D01*
X529855Y302922D01*
X531200Y302365D01*
X532643Y302175D01*
X534086Y302365D01*
X535430Y302922D01*
X536585Y303808D01*
X537471Y304962D01*
X538028Y306307D01*
X538218Y307750D01*
X538028Y309193D01*
X537471Y310538D01*
X536585Y311692D01*
X535430Y312578D01*
X534086Y313135D01*
X532643Y313325D01*
D02*
G37*
G36*
X503115D02*
X501672Y313135D01*
X500328Y312578D01*
X499173Y311692D01*
X498287Y310538D01*
X497730Y309193D01*
X497540Y307750D01*
X497730Y306307D01*
X498287Y304962D01*
X499173Y303808D01*
X500328Y302922D01*
X501672Y302365D01*
X503115Y302175D01*
X504558Y302365D01*
X505903Y302922D01*
X507058Y303808D01*
X507944Y304962D01*
X508501Y306307D01*
X508691Y307750D01*
X508501Y309193D01*
X507944Y310538D01*
X507058Y311692D01*
X505903Y312578D01*
X504558Y313135D01*
X503115Y313325D01*
D02*
G37*
G36*
X478429D02*
X476986Y313135D01*
X475641Y312578D01*
X474486Y311692D01*
X473600Y310538D01*
X473043Y309193D01*
X472853Y307750D01*
X473043Y306307D01*
X473600Y304962D01*
X474486Y303808D01*
X475641Y302922D01*
X476986Y302365D01*
X478429Y302175D01*
X479872Y302365D01*
X481216Y302922D01*
X482371Y303808D01*
X483257Y304962D01*
X483814Y306307D01*
X484004Y307750D01*
X483814Y309193D01*
X483257Y310538D01*
X482371Y311692D01*
X481216Y312578D01*
X479872Y313135D01*
X478429Y313325D01*
D02*
G37*
G36*
X448901D02*
X447458Y313135D01*
X446113Y312578D01*
X444959Y311692D01*
X444073Y310538D01*
X443516Y309193D01*
X443326Y307750D01*
X443516Y306307D01*
X444073Y304962D01*
X444959Y303808D01*
X446113Y302922D01*
X447458Y302365D01*
X448901Y302175D01*
X450344Y302365D01*
X451689Y302922D01*
X452843Y303808D01*
X453729Y304962D01*
X454286Y306307D01*
X454476Y307750D01*
X454286Y309193D01*
X453729Y310538D01*
X452843Y311692D01*
X451689Y312578D01*
X450344Y313135D01*
X448901Y313325D01*
D02*
G37*
G36*
X424214D02*
X422771Y313135D01*
X421427Y312578D01*
X420272Y311692D01*
X419386Y310538D01*
X418829Y309193D01*
X418639Y307750D01*
X418829Y306307D01*
X419386Y304962D01*
X420272Y303808D01*
X421427Y302922D01*
X422771Y302365D01*
X424214Y302175D01*
X425657Y302365D01*
X427002Y302922D01*
X428157Y303808D01*
X429043Y304962D01*
X429600Y306307D01*
X429789Y307750D01*
X429600Y309193D01*
X429043Y310538D01*
X428157Y311692D01*
X427002Y312578D01*
X425657Y313135D01*
X424214Y313325D01*
D02*
G37*
G36*
X394687D02*
X393244Y313135D01*
X391899Y312578D01*
X390744Y311692D01*
X389858Y310538D01*
X389301Y309193D01*
X389111Y307750D01*
X389301Y306307D01*
X389858Y304962D01*
X390744Y303808D01*
X391899Y302922D01*
X393244Y302365D01*
X394687Y302175D01*
X396130Y302365D01*
X397474Y302922D01*
X398629Y303808D01*
X399515Y304962D01*
X400072Y306307D01*
X400262Y307750D01*
X400072Y309193D01*
X399515Y310538D01*
X398629Y311692D01*
X397474Y312578D01*
X396130Y313135D01*
X394687Y313325D01*
D02*
G37*
G36*
X370000D02*
X368557Y313135D01*
X367212Y312578D01*
X366058Y311692D01*
X365172Y310538D01*
X364615Y309193D01*
X364425Y307750D01*
X364615Y306307D01*
X365172Y304962D01*
X366058Y303808D01*
X367212Y302922D01*
X368557Y302365D01*
X370000Y302175D01*
X371443Y302365D01*
X372788Y302922D01*
X373942Y303808D01*
X374828Y304962D01*
X375385Y306307D01*
X375575Y307750D01*
X375385Y309193D01*
X374828Y310538D01*
X373942Y311692D01*
X372788Y312578D01*
X371443Y313135D01*
X370000Y313325D01*
D02*
G37*
G36*
X340472D02*
X339030Y313135D01*
X337685Y312578D01*
X336530Y311692D01*
X335644Y310538D01*
X335087Y309193D01*
X334897Y307750D01*
X335087Y306307D01*
X335644Y304962D01*
X336530Y303808D01*
X337685Y302922D01*
X339030Y302365D01*
X340472Y302175D01*
X341915Y302365D01*
X343260Y302922D01*
X344415Y303808D01*
X345301Y304962D01*
X345858Y306307D01*
X346048Y307750D01*
X345858Y309193D01*
X345301Y310538D01*
X344415Y311692D01*
X343260Y312578D01*
X341915Y313135D01*
X340472Y313325D01*
D02*
G37*
G36*
X279500Y307019D02*
X278391Y306873D01*
X277357Y306445D01*
X276469Y305763D01*
X275788Y304876D01*
X275359Y303842D01*
X275213Y302732D01*
X275359Y301623D01*
X275788Y300589D01*
X276469Y299701D01*
X277357Y299020D01*
X278391Y298592D01*
X279500Y298446D01*
X280609Y298592D01*
X281643Y299020D01*
X282531Y299701D01*
X283212Y300589D01*
X283641Y301623D01*
X283787Y302732D01*
X283641Y303842D01*
X283212Y304876D01*
X282531Y305763D01*
X281643Y306445D01*
X280609Y306873D01*
X279500Y307019D01*
D02*
G37*
G36*
X259500D02*
X258390Y306873D01*
X257357Y306445D01*
X256469Y305763D01*
X255788Y304876D01*
X255359Y303842D01*
X255213Y302732D01*
X255359Y301623D01*
X255788Y300589D01*
X256469Y299701D01*
X257357Y299020D01*
X258390Y298592D01*
X259500Y298446D01*
X260610Y298592D01*
X261643Y299020D01*
X262531Y299701D01*
X263212Y300589D01*
X263641Y301623D01*
X263787Y302732D01*
X263641Y303842D01*
X263212Y304876D01*
X262531Y305763D01*
X261643Y306445D01*
X260610Y306873D01*
X259500Y307019D01*
D02*
G37*
G36*
X269500Y301583D02*
X268390Y301437D01*
X267357Y301009D01*
X266469Y300328D01*
X265788Y299440D01*
X265359Y298406D01*
X265213Y297297D01*
X265359Y296187D01*
X265788Y295153D01*
X266469Y294266D01*
X267357Y293584D01*
X268390Y293156D01*
X269500Y293010D01*
X270609Y293156D01*
X271643Y293584D01*
X272531Y294266D01*
X273212Y295153D01*
X273641Y296187D01*
X273787Y297297D01*
X273641Y298406D01*
X273212Y299440D01*
X272531Y300328D01*
X271643Y301009D01*
X270609Y301437D01*
X269500Y301583D01*
D02*
G37*
G36*
X310750Y302082D02*
X309564Y301926D01*
X308459Y301469D01*
X307510Y300740D01*
X306781Y299791D01*
X306324Y298686D01*
X306168Y297500D01*
X306324Y296314D01*
X306781Y295209D01*
X307510Y294260D01*
X308459Y293531D01*
X309564Y293074D01*
X310750Y292917D01*
X311936Y293074D01*
X313041Y293531D01*
X313990Y294260D01*
X314719Y295209D01*
X315176Y296314D01*
X315333Y297500D01*
X315176Y298686D01*
X314719Y299791D01*
X313990Y300740D01*
X313041Y301469D01*
X311936Y301926D01*
X310750Y302082D01*
D02*
G37*
G36*
X300750D02*
X299564Y301926D01*
X298459Y301469D01*
X297510Y300740D01*
X296781Y299791D01*
X296324Y298686D01*
X296167Y297500D01*
X296324Y296314D01*
X296781Y295209D01*
X297510Y294260D01*
X298459Y293531D01*
X299564Y293074D01*
X300750Y292917D01*
X301936Y293074D01*
X303041Y293531D01*
X303990Y294260D01*
X304719Y295209D01*
X305176Y296314D01*
X305332Y297500D01*
X305176Y298686D01*
X304719Y299791D01*
X303990Y300740D01*
X303041Y301469D01*
X301936Y301926D01*
X300750Y302082D01*
D02*
G37*
G36*
X279500Y296153D02*
X278391Y296007D01*
X277357Y295579D01*
X276469Y294897D01*
X275788Y294009D01*
X275359Y292976D01*
X275213Y291866D01*
X275359Y290757D01*
X275788Y289723D01*
X276469Y288835D01*
X277357Y288154D01*
X278391Y287725D01*
X279500Y287579D01*
X280609Y287725D01*
X281643Y288154D01*
X282531Y288835D01*
X283212Y289723D01*
X283641Y290757D01*
X283787Y291866D01*
X283641Y292976D01*
X283212Y294009D01*
X282531Y294897D01*
X281643Y295579D01*
X280609Y296007D01*
X279500Y296153D01*
D02*
G37*
G36*
X259500D02*
X258390Y296007D01*
X257357Y295579D01*
X256469Y294897D01*
X255788Y294009D01*
X255359Y292976D01*
X255213Y291866D01*
X255359Y290757D01*
X255788Y289723D01*
X256469Y288835D01*
X257357Y288154D01*
X258390Y287725D01*
X259500Y287579D01*
X260610Y287725D01*
X261643Y288154D01*
X262531Y288835D01*
X263212Y289723D01*
X263641Y290757D01*
X263787Y291866D01*
X263641Y292976D01*
X263212Y294009D01*
X262531Y294897D01*
X261643Y295579D01*
X260610Y296007D01*
X259500Y296153D01*
D02*
G37*
G36*
X293000Y293530D02*
X292086Y293410D01*
X291235Y293057D01*
X290504Y292496D01*
X289943Y291765D01*
X289590Y290914D01*
X289470Y290000D01*
X289590Y289086D01*
X289943Y288235D01*
X290504Y287504D01*
X291235Y286943D01*
X292086Y286590D01*
X293000Y286470D01*
X293914Y286590D01*
X294765Y286943D01*
X295496Y287504D01*
X296057Y288235D01*
X296410Y289086D01*
X296530Y290000D01*
X296410Y290914D01*
X296057Y291765D01*
X295496Y292496D01*
X294765Y293057D01*
X293914Y293410D01*
X293000Y293530D01*
D02*
G37*
G36*
X269500Y290720D02*
X268390Y290574D01*
X267357Y290145D01*
X266469Y289464D01*
X265788Y288576D01*
X265359Y287543D01*
X265213Y286433D01*
X265359Y285324D01*
X265788Y284290D01*
X266469Y283402D01*
X267357Y282721D01*
X268390Y282293D01*
X269500Y282146D01*
X270609Y282293D01*
X271643Y282721D01*
X272531Y283402D01*
X273212Y284290D01*
X273641Y285324D01*
X273787Y286433D01*
X273641Y287543D01*
X273212Y288576D01*
X272531Y289464D01*
X271643Y290145D01*
X270609Y290574D01*
X269500Y290720D01*
D02*
G37*
G36*
X310750Y287333D02*
X309564Y287176D01*
X308459Y286719D01*
X307510Y285990D01*
X306781Y285041D01*
X306324Y283936D01*
X306168Y282750D01*
X306324Y281564D01*
X306781Y280459D01*
X307510Y279510D01*
X308459Y278781D01*
X309564Y278324D01*
X310750Y278168D01*
X311936Y278324D01*
X313041Y278781D01*
X313990Y279510D01*
X314719Y280459D01*
X315176Y281564D01*
X315333Y282750D01*
X315176Y283936D01*
X314719Y285041D01*
X313990Y285990D01*
X313041Y286719D01*
X311936Y287176D01*
X310750Y287333D01*
D02*
G37*
G36*
X300750D02*
X299564Y287176D01*
X298459Y286719D01*
X297510Y285990D01*
X296781Y285041D01*
X296324Y283936D01*
X296167Y282750D01*
X296324Y281564D01*
X296781Y280459D01*
X297510Y279510D01*
X298459Y278781D01*
X299564Y278324D01*
X300750Y278168D01*
X301936Y278324D01*
X303041Y278781D01*
X303990Y279510D01*
X304719Y280459D01*
X305176Y281564D01*
X305332Y282750D01*
X305176Y283936D01*
X304719Y285041D01*
X303990Y285990D01*
X303041Y286719D01*
X301936Y287176D01*
X300750Y287333D01*
D02*
G37*
G36*
X279500Y285287D02*
X278391Y285141D01*
X277357Y284712D01*
X276469Y284031D01*
X275788Y283143D01*
X275359Y282109D01*
X275213Y281000D01*
X275359Y279890D01*
X275788Y278857D01*
X276469Y277969D01*
X277357Y277288D01*
X278391Y276859D01*
X279500Y276713D01*
X280609Y276859D01*
X281643Y277288D01*
X282531Y277969D01*
X283212Y278857D01*
X283641Y279890D01*
X283787Y281000D01*
X283641Y282109D01*
X283212Y283143D01*
X282531Y284031D01*
X281643Y284712D01*
X280609Y285141D01*
X279500Y285287D01*
D02*
G37*
G36*
X259500D02*
X258390Y285141D01*
X257357Y284712D01*
X256469Y284031D01*
X255788Y283143D01*
X255359Y282109D01*
X255213Y281000D01*
X255359Y279890D01*
X255788Y278857D01*
X256469Y277969D01*
X257357Y277288D01*
X258390Y276859D01*
X259500Y276713D01*
X260610Y276859D01*
X261643Y277288D01*
X262531Y277969D01*
X263212Y278857D01*
X263641Y279890D01*
X263787Y281000D01*
X263641Y282109D01*
X263212Y283143D01*
X262531Y284031D01*
X261643Y284712D01*
X260610Y285141D01*
X259500Y285287D01*
D02*
G37*
G36*
X281000Y275030D02*
X280086Y274910D01*
X279235Y274557D01*
X278504Y273996D01*
X277943Y273265D01*
X277590Y272414D01*
X277470Y271500D01*
X277590Y270586D01*
X277943Y269735D01*
X278504Y269004D01*
X279235Y268443D01*
X280086Y268090D01*
X281000Y267970D01*
X281914Y268090D01*
X282765Y268443D01*
X283496Y269004D01*
X284057Y269735D01*
X284410Y270586D01*
X284530Y271500D01*
X284410Y272414D01*
X284057Y273265D01*
X283496Y273996D01*
X282765Y274557D01*
X281914Y274910D01*
X281000Y275030D01*
D02*
G37*
G36*
X300750Y272583D02*
X299564Y272426D01*
X298459Y271969D01*
X297510Y271240D01*
X296781Y270291D01*
X296324Y269186D01*
X296167Y268000D01*
X296324Y266814D01*
X296781Y265709D01*
X297510Y264760D01*
X298459Y264031D01*
X299564Y263574D01*
X300750Y263418D01*
X301936Y263574D01*
X303041Y264031D01*
X303990Y264760D01*
X304719Y265709D01*
X305176Y266814D01*
X305332Y268000D01*
X305176Y269186D01*
X304719Y270291D01*
X303990Y271240D01*
X303041Y271969D01*
X301936Y272426D01*
X300750Y272583D01*
D02*
G37*
G36*
X325583Y250782D02*
X324669Y250662D01*
X323818Y250309D01*
X323087Y249748D01*
X322526Y249017D01*
X322173Y248166D01*
X322053Y247252D01*
X322173Y246338D01*
X322526Y245487D01*
X323087Y244756D01*
X323818Y244195D01*
X324669Y243842D01*
X325583Y243722D01*
X326496Y243842D01*
X327348Y244195D01*
X328079Y244756D01*
X328640Y245487D01*
X328993Y246338D01*
X329113Y247252D01*
X328993Y248166D01*
X328640Y249017D01*
X328079Y249748D01*
X327348Y250309D01*
X326496Y250662D01*
X325583Y250782D01*
D02*
G37*
G36*
X586750Y254520D02*
X585307Y254330D01*
X583962Y253773D01*
X582808Y252887D01*
X581922Y251732D01*
X581365Y250388D01*
X581175Y248945D01*
X581365Y247502D01*
X581922Y246157D01*
X582808Y245003D01*
X583962Y244117D01*
X585307Y243560D01*
X586750Y243370D01*
X588193Y243560D01*
X589538Y244117D01*
X590692Y245003D01*
X591578Y246157D01*
X592135Y247502D01*
X592325Y248945D01*
X592135Y250388D01*
X591578Y251732D01*
X590692Y252887D01*
X589538Y253773D01*
X588193Y254330D01*
X586750Y254520D01*
D02*
G37*
G36*
X557222D02*
X555780Y254330D01*
X554435Y253773D01*
X553280Y252887D01*
X552394Y251732D01*
X551837Y250388D01*
X551647Y248945D01*
X551837Y247502D01*
X552394Y246157D01*
X553280Y245003D01*
X554435Y244117D01*
X555780Y243560D01*
X557222Y243370D01*
X558665Y243560D01*
X560010Y244117D01*
X561165Y245003D01*
X562051Y246157D01*
X562608Y247502D01*
X562798Y248945D01*
X562608Y250388D01*
X562051Y251732D01*
X561165Y252887D01*
X560010Y253773D01*
X558665Y254330D01*
X557222Y254520D01*
D02*
G37*
G36*
X727830Y254270D02*
X726387Y254080D01*
X725042Y253523D01*
X723887Y252637D01*
X723001Y251483D01*
X722444Y250138D01*
X722254Y248695D01*
X722444Y247252D01*
X723001Y245907D01*
X723887Y244753D01*
X725042Y243867D01*
X726387Y243310D01*
X727830Y243120D01*
X729273Y243310D01*
X730617Y243867D01*
X731772Y244753D01*
X732658Y245907D01*
X733215Y247252D01*
X733405Y248695D01*
X733215Y250138D01*
X732658Y251483D01*
X731772Y252637D01*
X730617Y253523D01*
X729273Y254080D01*
X727830Y254270D01*
D02*
G37*
G36*
X703286D02*
X701843Y254080D01*
X700498Y253523D01*
X699343Y252637D01*
X698457Y251483D01*
X697900Y250138D01*
X697710Y248695D01*
X697900Y247252D01*
X698457Y245907D01*
X699343Y244753D01*
X700498Y243867D01*
X701843Y243310D01*
X703286Y243120D01*
X704729Y243310D01*
X706073Y243867D01*
X707228Y244753D01*
X708114Y245907D01*
X708671Y247252D01*
X708861Y248695D01*
X708671Y250138D01*
X708114Y251483D01*
X707228Y252637D01*
X706073Y253523D01*
X704729Y254080D01*
X703286Y254270D01*
D02*
G37*
G36*
X673758D02*
X672315Y254080D01*
X670970Y253523D01*
X669816Y252637D01*
X668930Y251483D01*
X668373Y250138D01*
X668183Y248695D01*
X668373Y247252D01*
X668930Y245907D01*
X669816Y244753D01*
X670970Y243867D01*
X672315Y243310D01*
X673758Y243120D01*
X675201Y243310D01*
X676546Y243867D01*
X677700Y244753D01*
X678586Y245907D01*
X679143Y247252D01*
X679333Y248695D01*
X679143Y250138D01*
X678586Y251483D01*
X677700Y252637D01*
X676546Y253523D01*
X675201Y254080D01*
X673758Y254270D01*
D02*
G37*
G36*
X641071D02*
X639628Y254080D01*
X638284Y253523D01*
X637129Y252637D01*
X636243Y251483D01*
X635686Y250138D01*
X635496Y248695D01*
X635686Y247252D01*
X636243Y245907D01*
X637129Y244753D01*
X638284Y243867D01*
X639628Y243310D01*
X641071Y243120D01*
X642514Y243310D01*
X643859Y243867D01*
X645014Y244753D01*
X645900Y245907D01*
X646457Y247252D01*
X646647Y248695D01*
X646457Y250138D01*
X645900Y251483D01*
X645014Y252637D01*
X643859Y253523D01*
X642514Y254080D01*
X641071Y254270D01*
D02*
G37*
G36*
X611544D02*
X610101Y254080D01*
X608756Y253523D01*
X607601Y252637D01*
X606715Y251483D01*
X606159Y250138D01*
X605969Y248695D01*
X606159Y247252D01*
X606715Y245907D01*
X607601Y244753D01*
X608756Y243867D01*
X610101Y243310D01*
X611544Y243120D01*
X612987Y243310D01*
X614331Y243867D01*
X615486Y244753D01*
X616372Y245907D01*
X616929Y247252D01*
X617119Y248695D01*
X616929Y250138D01*
X616372Y251483D01*
X615486Y252637D01*
X614331Y253523D01*
X612987Y254080D01*
X611544Y254270D01*
D02*
G37*
G36*
X503115D02*
X501672Y254080D01*
X500328Y253523D01*
X499173Y252637D01*
X498287Y251483D01*
X497730Y250138D01*
X497540Y248695D01*
X497730Y247252D01*
X498287Y245907D01*
X499173Y244753D01*
X500328Y243867D01*
X501672Y243310D01*
X503115Y243120D01*
X504558Y243310D01*
X505903Y243867D01*
X507058Y244753D01*
X507944Y245907D01*
X508501Y247252D01*
X508691Y248695D01*
X508501Y250138D01*
X507944Y251483D01*
X507058Y252637D01*
X505903Y253523D01*
X504558Y254080D01*
X503115Y254270D01*
D02*
G37*
G36*
X478429D02*
X476986Y254080D01*
X475641Y253523D01*
X474486Y252637D01*
X473600Y251483D01*
X473043Y250138D01*
X472853Y248695D01*
X473043Y247252D01*
X473600Y245907D01*
X474486Y244753D01*
X475641Y243867D01*
X476986Y243310D01*
X478429Y243120D01*
X479872Y243310D01*
X481216Y243867D01*
X482371Y244753D01*
X483257Y245907D01*
X483814Y247252D01*
X484004Y248695D01*
X483814Y250138D01*
X483257Y251483D01*
X482371Y252637D01*
X481216Y253523D01*
X479872Y254080D01*
X478429Y254270D01*
D02*
G37*
G36*
X424214D02*
X422771Y254080D01*
X421427Y253523D01*
X420272Y252637D01*
X419386Y251483D01*
X418829Y250138D01*
X418639Y248695D01*
X418829Y247252D01*
X419386Y245907D01*
X420272Y244753D01*
X421427Y243867D01*
X422771Y243310D01*
X424214Y243120D01*
X425657Y243310D01*
X427002Y243867D01*
X428157Y244753D01*
X429043Y245907D01*
X429600Y247252D01*
X429789Y248695D01*
X429600Y250138D01*
X429043Y251483D01*
X428157Y252637D01*
X427002Y253523D01*
X425657Y254080D01*
X424214Y254270D01*
D02*
G37*
G36*
X370000D02*
X368557Y254080D01*
X367212Y253523D01*
X366058Y252637D01*
X365172Y251483D01*
X364615Y250138D01*
X364425Y248695D01*
X364615Y247252D01*
X365172Y245907D01*
X366058Y244753D01*
X367212Y243867D01*
X368557Y243310D01*
X370000Y243120D01*
X371443Y243310D01*
X372788Y243867D01*
X373942Y244753D01*
X374828Y245907D01*
X375385Y247252D01*
X375575Y248695D01*
X375385Y250138D01*
X374828Y251483D01*
X373942Y252637D01*
X372788Y253523D01*
X371443Y254080D01*
X370000Y254270D01*
D02*
G37*
G36*
X269500Y255592D02*
X267951Y255439D01*
X266462Y254988D01*
X265090Y254254D01*
X263887Y253267D01*
X262900Y252064D01*
X262166Y250691D01*
X261714Y249202D01*
X261562Y247654D01*
X261714Y246105D01*
X262166Y244616D01*
X262900Y243243D01*
X263887Y242040D01*
X265090Y241053D01*
X266462Y240320D01*
X267951Y239868D01*
X269500Y239715D01*
X271049Y239868D01*
X272538Y240320D01*
X273910Y241053D01*
X275113Y242040D01*
X276100Y243243D01*
X276834Y244616D01*
X277286Y246105D01*
X277438Y247654D01*
X277286Y249202D01*
X276834Y250691D01*
X276100Y252064D01*
X275113Y253267D01*
X273910Y254254D01*
X272538Y254988D01*
X271049Y255439D01*
X269500Y255592D01*
D02*
G37*
G36*
X543250Y244030D02*
X542336Y243910D01*
X541485Y243557D01*
X540754Y242996D01*
X540193Y242265D01*
X539840Y241414D01*
X539720Y240500D01*
X539840Y239586D01*
X540193Y238735D01*
X540754Y238004D01*
X541485Y237443D01*
X542336Y237090D01*
X543250Y236970D01*
X544164Y237090D01*
X545015Y237443D01*
X545746Y238004D01*
X546307Y238735D01*
X546660Y239586D01*
X546780Y240500D01*
X546660Y241414D01*
X546307Y242265D01*
X545746Y242996D01*
X545015Y243557D01*
X544164Y243910D01*
X543250Y244030D01*
D02*
G37*
G36*
X308000Y249760D02*
X306145Y249578D01*
X304361Y249036D01*
X302716Y248158D01*
X301275Y246975D01*
X300092Y245534D01*
X299214Y243889D01*
X298672Y242105D01*
X298490Y240250D01*
X298672Y238395D01*
X299214Y236611D01*
X300092Y234966D01*
X301275Y233525D01*
X302716Y232342D01*
X304361Y231464D01*
X306145Y230922D01*
X308000Y230740D01*
X309855Y230922D01*
X311639Y231464D01*
X313284Y232342D01*
X314725Y233525D01*
X315908Y234966D01*
X316786Y236611D01*
X317328Y238395D01*
X317510Y240250D01*
X317328Y242105D01*
X316786Y243889D01*
X315908Y245534D01*
X314725Y246975D01*
X313284Y248158D01*
X311639Y249036D01*
X309855Y249578D01*
X308000Y249760D01*
D02*
G37*
G36*
X290250Y236530D02*
X289336Y236410D01*
X288485Y236057D01*
X287754Y235496D01*
X287193Y234765D01*
X286840Y233914D01*
X286720Y233000D01*
X286840Y232086D01*
X287193Y231235D01*
X287754Y230504D01*
X288485Y229943D01*
X289336Y229590D01*
X290250Y229470D01*
X291164Y229590D01*
X292015Y229943D01*
X292746Y230504D01*
X293307Y231235D01*
X293660Y232086D01*
X293780Y233000D01*
X293660Y233914D01*
X293307Y234765D01*
X292746Y235496D01*
X292015Y236057D01*
X291164Y236410D01*
X290250Y236530D01*
D02*
G37*
G36*
X275500D02*
X274586Y236410D01*
X273735Y236057D01*
X273004Y235496D01*
X272443Y234765D01*
X272090Y233914D01*
X271970Y233000D01*
X272090Y232086D01*
X272443Y231235D01*
X273004Y230504D01*
X273735Y229943D01*
X274586Y229590D01*
X275500Y229470D01*
X276414Y229590D01*
X277265Y229943D01*
X277996Y230504D01*
X278557Y231235D01*
X278910Y232086D01*
X279030Y233000D01*
X278910Y233914D01*
X278557Y234765D01*
X277996Y235496D01*
X277265Y236057D01*
X276414Y236410D01*
X275500Y236530D01*
D02*
G37*
%LPD*%
D11*
X921000Y225000D02*
G03*
X927229Y230989I120J6109D01*
G01*
X230500Y238216D02*
G03*
X243750Y225000I13233J17D01*
G01*
X243310Y541500D02*
G03*
X230500Y528500I95J-12905D01*
G01*
X927250D02*
G03*
X914750Y541500I-12750J250D01*
G01*
X243750Y225000D02*
X921000Y225000D01*
X927250Y230989D02*
X927250Y528500D01*
X230500Y238216D02*
X230500Y528500D01*
X243310Y541500D02*
X914750Y541500D01*
D75*
X342750Y494900D02*
D03*
X348203Y483719D02*
D03*
X353656Y494900D02*
D03*
X359108Y483719D02*
D03*
X495200Y510319D02*
D03*
D78*
X641071Y327435D02*
D03*
X532643Y248695D02*
D03*
X448901D02*
D03*
X394687D02*
D03*
X557222Y327685D02*
D03*
X340472Y248695D02*
D03*
D83*
X337297Y483719D02*
D03*
D84*
X310750Y268000D02*
D03*
D85*
X650914Y387000D02*
D03*
X720500Y510319D02*
D03*
M02*
