G04*
G04 #@! TF.GenerationSoftware,Altium Limited,Altium Designer,19.0.10 (269)*
G04*
G04 Layer_Color=255*
%FSLAX25Y25*%
%MOIN*%
G70*
G01*
G75*
%ADD73C,0.13800*%
%ADD74C,0.06500*%
%ADD75C,0.06653*%
%ADD76R,0.06653X0.06653*%
%ADD77C,0.18740*%
%ADD78C,0.09055*%
%ADD79C,0.11811*%
%ADD80C,0.16929*%
%ADD81C,0.18898*%
%ADD82C,0.06653*%
%ADD83R,0.06653X0.06653*%
%ADD84C,0.07087*%
D73*
X269500Y247654D02*
D03*
Y488205D02*
D03*
D74*
X259500Y454858D02*
D03*
X279500D02*
D03*
X259500Y433126D02*
D03*
Y422260D02*
D03*
Y411394D02*
D03*
Y400527D02*
D03*
Y389661D02*
D03*
Y378795D02*
D03*
Y367929D02*
D03*
Y357063D02*
D03*
Y346197D02*
D03*
Y335331D02*
D03*
Y324465D02*
D03*
Y313598D02*
D03*
Y302732D02*
D03*
Y291866D02*
D03*
Y281000D02*
D03*
X269500Y449386D02*
D03*
Y438522D02*
D03*
Y427659D02*
D03*
Y416795D02*
D03*
Y405932D02*
D03*
Y395068D02*
D03*
Y384205D02*
D03*
Y373341D02*
D03*
Y362478D02*
D03*
Y351614D02*
D03*
Y340751D02*
D03*
Y329887D02*
D03*
Y319024D02*
D03*
Y308160D02*
D03*
Y297297D02*
D03*
Y286433D02*
D03*
X279500Y443992D02*
D03*
Y433126D02*
D03*
Y422260D02*
D03*
Y411394D02*
D03*
Y400527D02*
D03*
Y389661D02*
D03*
Y378795D02*
D03*
Y367929D02*
D03*
Y357063D02*
D03*
Y346197D02*
D03*
Y335331D02*
D03*
Y324465D02*
D03*
Y313598D02*
D03*
Y302732D02*
D03*
X259500Y443992D02*
D03*
X279500Y291866D02*
D03*
Y281000D02*
D03*
D75*
X896159Y431882D02*
D03*
X907341Y437335D02*
D03*
X896159Y442787D02*
D03*
X907341Y448240D02*
D03*
X896159Y453693D02*
D03*
X907341Y459146D02*
D03*
X896159Y464598D02*
D03*
X907341Y470051D02*
D03*
X342750Y494900D02*
D03*
X348203Y483719D02*
D03*
X353656Y494900D02*
D03*
X359108Y483719D02*
D03*
X364561Y494900D02*
D03*
X370014Y483719D02*
D03*
X375466Y494900D02*
D03*
X380919Y483719D02*
D03*
Y510319D02*
D03*
X375466Y521500D02*
D03*
X370014Y510319D02*
D03*
X364561Y521500D02*
D03*
X359108Y510319D02*
D03*
X353656Y521500D02*
D03*
X348203Y510319D02*
D03*
X342750Y521500D02*
D03*
X467936Y494900D02*
D03*
X473389Y483719D02*
D03*
X478841Y494900D02*
D03*
X484294Y483719D02*
D03*
X489747Y494900D02*
D03*
X495200Y483719D02*
D03*
X500653Y494900D02*
D03*
X506105Y483719D02*
D03*
Y510319D02*
D03*
X500653Y521500D02*
D03*
X495200Y510319D02*
D03*
X489747Y521500D02*
D03*
X484294Y510319D02*
D03*
X478841Y521500D02*
D03*
X473389Y510319D02*
D03*
X467936Y521500D02*
D03*
X907091Y345051D02*
D03*
X895909Y339598D02*
D03*
X907091Y334146D02*
D03*
X895909Y328693D02*
D03*
X907091Y323240D02*
D03*
X895909Y317787D02*
D03*
X907091Y312335D02*
D03*
X895909Y306882D02*
D03*
D76*
X896159Y475504D02*
D03*
X895909Y350504D02*
D03*
D77*
X901750Y502886D02*
D03*
Y404500D02*
D03*
X408301Y489700D02*
D03*
X309915D02*
D03*
Y521500D02*
D03*
X408301D02*
D03*
X533487Y489700D02*
D03*
X435101D02*
D03*
Y521500D02*
D03*
X533487D02*
D03*
X901500Y279500D02*
D03*
Y377886D02*
D03*
D78*
X841250Y324250D02*
D03*
X830384D02*
D03*
X852077D02*
D03*
X757357Y248695D02*
D03*
X727830D02*
D03*
Y307750D02*
D03*
X757357D02*
D03*
X727830Y327435D02*
D03*
X757357D02*
D03*
X727830Y347120D02*
D03*
X757357D02*
D03*
X641071Y248695D02*
D03*
X611544D02*
D03*
Y307750D02*
D03*
X641071D02*
D03*
X611544Y327435D02*
D03*
X641071D02*
D03*
X611544Y347120D02*
D03*
X641071D02*
D03*
X532643Y248695D02*
D03*
X503115D02*
D03*
Y307750D02*
D03*
X532643D02*
D03*
X503115Y327435D02*
D03*
X532643D02*
D03*
X503115Y347120D02*
D03*
X532643D02*
D03*
X478429Y248695D02*
D03*
X448901D02*
D03*
Y307750D02*
D03*
X478429D02*
D03*
X448901Y327435D02*
D03*
X478429D02*
D03*
X448901Y347120D02*
D03*
X478429D02*
D03*
X424214Y248695D02*
D03*
X394687D02*
D03*
Y307750D02*
D03*
X424214D02*
D03*
X394687Y327435D02*
D03*
X424214D02*
D03*
X394687Y347120D02*
D03*
X424214D02*
D03*
X703286Y248695D02*
D03*
X673758D02*
D03*
Y307750D02*
D03*
X703286D02*
D03*
X673758Y327435D02*
D03*
X703286D02*
D03*
X673758Y347120D02*
D03*
X703286D02*
D03*
X586750Y248695D02*
D03*
X557222D02*
D03*
Y307750D02*
D03*
X586750D02*
D03*
X557222Y327435D02*
D03*
X586750D02*
D03*
X557222Y347120D02*
D03*
X586750D02*
D03*
X370000Y248695D02*
D03*
X340472D02*
D03*
Y307750D02*
D03*
X370000D02*
D03*
X340472Y327435D02*
D03*
X370000D02*
D03*
X340472Y347120D02*
D03*
X370000D02*
D03*
D79*
X867313Y324250D02*
D03*
X804321D02*
D03*
X824990Y506848D02*
D03*
X803337D02*
D03*
X846644D02*
D03*
X868297D02*
D03*
X877000Y250647D02*
D03*
X861000D02*
D03*
X833750Y250895D02*
D03*
X817750D02*
D03*
D80*
X308000Y240250D02*
D03*
X244750Y527750D02*
D03*
X911750Y239613D02*
D03*
X911250Y527250D02*
D03*
D81*
X693181Y490000D02*
D03*
X562000D02*
D03*
Y521500D02*
D03*
X693181D02*
D03*
D82*
X665760Y483700D02*
D03*
X660307Y494900D02*
D03*
X654854Y483700D02*
D03*
X649402Y494900D02*
D03*
X643949Y483700D02*
D03*
X638496Y494900D02*
D03*
X633043Y483700D02*
D03*
X627591Y494900D02*
D03*
X622138Y483700D02*
D03*
X616685Y494900D02*
D03*
X611232Y483700D02*
D03*
X605780Y494900D02*
D03*
X600327Y483700D02*
D03*
X594874Y494900D02*
D03*
Y521500D02*
D03*
X600327Y510319D02*
D03*
X605780Y521500D02*
D03*
X611232Y510319D02*
D03*
X616685Y521500D02*
D03*
X622138Y510319D02*
D03*
X627591Y521500D02*
D03*
X633043Y510319D02*
D03*
X638496Y521500D02*
D03*
X643949Y510319D02*
D03*
X649402Y521500D02*
D03*
X654854Y510319D02*
D03*
X660307Y521500D02*
D03*
X665760Y510319D02*
D03*
D83*
X589421Y483700D02*
D03*
Y510319D02*
D03*
X337297Y483719D02*
D03*
Y510319D02*
D03*
X462483Y483719D02*
D03*
Y510319D02*
D03*
D84*
X290000Y531000D02*
D03*
Y521000D02*
D03*
Y511000D02*
D03*
X276625Y531000D02*
D03*
Y521000D02*
D03*
Y511000D02*
D03*
X263250Y531000D02*
D03*
Y521000D02*
D03*
Y511000D02*
D03*
X310750Y356500D02*
D03*
X300750D02*
D03*
X310750Y341750D02*
D03*
X300750D02*
D03*
X310750Y327000D02*
D03*
X300750D02*
D03*
Y312250D02*
D03*
X310750D02*
D03*
Y297500D02*
D03*
X300750D02*
D03*
Y282750D02*
D03*
X310750D02*
D03*
Y268000D02*
D03*
X300750D02*
D03*
M02*
