G04*
G04 #@! TF.GenerationSoftware,Altium Limited,Altium Designer,19.0.10 (269)*
G04*
G04 Layer_Physical_Order=1*
G04 Layer_Color=255*
%FSLAX25Y25*%
%MOIN*%
G70*
G01*
G75*
%ADD11C,0.01000*%
%ADD17C,0.00800*%
%ADD18R,0.02165X0.02165*%
%ADD19R,0.09000X0.02400*%
%ADD20C,0.03000*%
%ADD21R,0.09449X0.20276*%
%ADD22R,0.24606X0.28347*%
%ADD23R,0.04724X0.11811*%
%ADD24R,0.03543X0.02559*%
%ADD25R,0.04921X0.06299*%
%ADD26R,0.03543X0.03740*%
%ADD27R,0.01181X0.05512*%
%ADD28R,0.05906X0.04331*%
%ADD29R,0.23622X0.10236*%
%ADD30R,0.08268X0.17126*%
%ADD31R,0.04600X0.02000*%
%ADD32R,0.02165X0.02165*%
%ADD33R,0.03740X0.03543*%
%ADD34R,0.06000X0.08000*%
%ADD35R,0.06000X0.04000*%
%ADD36R,0.04000X0.06000*%
%ADD37R,0.08000X0.06000*%
%ADD69C,0.02500*%
%ADD70C,0.02000*%
%ADD71C,0.01200*%
%ADD72C,0.05000*%
%ADD73C,0.13800*%
%ADD74C,0.06500*%
%ADD75C,0.06653*%
%ADD76R,0.06653X0.06653*%
%ADD77C,0.18740*%
%ADD78C,0.09055*%
%ADD79C,0.11811*%
%ADD80C,0.16929*%
%ADD81C,0.18898*%
%ADD82C,0.06653*%
%ADD83R,0.06653X0.06653*%
%ADD84C,0.07087*%
%ADD85C,0.05000*%
G36*
X284743Y438626D02*
X285097Y438097D01*
X287750Y435443D01*
Y413500D01*
X291374D01*
X291750Y413200D01*
Y408800D01*
X302500D01*
Y403200D01*
X291750D01*
Y402750D01*
X287321D01*
X282334Y407737D01*
X282366Y408236D01*
X282531Y408363D01*
X283212Y409250D01*
X283641Y410284D01*
X283787Y411394D01*
X283641Y412503D01*
X283212Y413537D01*
X282531Y414425D01*
X281643Y415106D01*
X280609Y415534D01*
X279500Y415680D01*
X278391Y415534D01*
X277357Y415106D01*
X276469Y414425D01*
X276342Y414260D01*
X275844Y414227D01*
X275071Y415000D01*
X261782D01*
X261643Y415106D01*
X260610Y415534D01*
X259500Y415680D01*
X258390Y415534D01*
X257357Y415106D01*
X257219Y415000D01*
X255750D01*
Y438750D01*
X265014D01*
X265213Y438522D01*
X265359Y437413D01*
X265788Y436379D01*
X266469Y435491D01*
X267357Y434810D01*
X268390Y434382D01*
X269500Y434235D01*
X270609Y434382D01*
X271643Y434810D01*
X272531Y435491D01*
X273212Y436379D01*
X273641Y437413D01*
X273787Y438522D01*
X273986Y438750D01*
X284718D01*
X284743Y438626D01*
D02*
G37*
G36*
X611750Y514994D02*
X611374Y514664D01*
X611232Y514683D01*
X610103Y514534D01*
X609050Y514098D01*
X608146Y513405D01*
X607453Y512501D01*
X607017Y511448D01*
X606868Y510319D01*
X607017Y509189D01*
X607453Y508137D01*
X608146Y507233D01*
X609050Y506539D01*
X610103Y506104D01*
X611232Y505955D01*
X611374Y505973D01*
X611750Y505644D01*
Y503750D01*
X588187Y503750D01*
X587746Y504191D01*
X587732Y505637D01*
X588083Y505992D01*
X593748D01*
Y514646D01*
X587643D01*
X587602Y518891D01*
X597961Y529250D01*
X611750D01*
X611750Y514994D01*
D02*
G37*
G36*
X270128Y174539D02*
X270169Y174535D01*
X270217Y174528D01*
X270269Y174520D01*
X270328Y174513D01*
X270391Y174498D01*
X270458Y174483D01*
X270528Y174461D01*
X270598Y174439D01*
X270672Y174409D01*
X270743Y174376D01*
X270813Y174339D01*
X270883Y174295D01*
X270887Y174291D01*
X270898Y174284D01*
X270917Y174269D01*
X270942Y174250D01*
X270976Y174224D01*
X271009Y174195D01*
X271046Y174158D01*
X271091Y174117D01*
X271135Y174073D01*
X271179Y174021D01*
X271224Y173962D01*
X271272Y173902D01*
X271316Y173836D01*
X271357Y173762D01*
X271398Y173688D01*
X271435Y173606D01*
X271438Y173603D01*
X271442Y173588D01*
X271453Y173562D01*
X271464Y173529D01*
X271479Y173488D01*
X271494Y173440D01*
X271509Y173381D01*
X271527Y173318D01*
X271546Y173248D01*
X271560Y173173D01*
X271575Y173092D01*
X271590Y173007D01*
X271601Y172918D01*
X271612Y172826D01*
X271616Y172733D01*
X271620Y172633D01*
Y172626D01*
Y172607D01*
Y172578D01*
X271616Y172537D01*
X271612Y172489D01*
X271608Y172430D01*
X271601Y172363D01*
X271594Y172293D01*
X271583Y172215D01*
X271568Y172134D01*
X271531Y171960D01*
X271509Y171871D01*
X271483Y171782D01*
X271449Y171694D01*
X271412Y171608D01*
X271409Y171605D01*
X271401Y171590D01*
X271390Y171564D01*
X271375Y171534D01*
X271353Y171494D01*
X271327Y171453D01*
X271298Y171401D01*
X271261Y171349D01*
X271224Y171294D01*
X271179Y171238D01*
X271131Y171179D01*
X271076Y171120D01*
X271020Y171064D01*
X270957Y171009D01*
X270891Y170957D01*
X270820Y170909D01*
X270817Y170905D01*
X270802Y170898D01*
X270783Y170887D01*
X270754Y170872D01*
X270717Y170854D01*
X270676Y170831D01*
X270628Y170813D01*
X270572Y170791D01*
X270513Y170765D01*
X270450Y170746D01*
X270384Y170724D01*
X270314Y170706D01*
X270239Y170691D01*
X270162Y170680D01*
X270084Y170672D01*
X270003Y170669D01*
X269973D01*
X269951Y170672D01*
X269921D01*
X269892Y170676D01*
X269855Y170680D01*
X269814Y170683D01*
X269725Y170702D01*
X269633Y170724D01*
X269533Y170754D01*
X269437Y170798D01*
X269433D01*
X269426Y170806D01*
X269414Y170813D01*
X269396Y170824D01*
X269374Y170835D01*
X269352Y170850D01*
X269292Y170891D01*
X269229Y170939D01*
X269159Y170998D01*
X269092Y171061D01*
X269030Y171135D01*
Y169329D01*
X268401D01*
Y174461D01*
X268974D01*
Y173976D01*
X268978Y173980D01*
X268982Y173987D01*
X268993Y174002D01*
X269011Y174024D01*
X269030Y174047D01*
X269052Y174073D01*
X269107Y174135D01*
X269174Y174202D01*
X269252Y174272D01*
X269337Y174339D01*
X269429Y174398D01*
X269433D01*
X269440Y174406D01*
X269455Y174413D01*
X269474Y174420D01*
X269499Y174432D01*
X269529Y174443D01*
X269562Y174457D01*
X269603Y174472D01*
X269644Y174483D01*
X269692Y174498D01*
X269744Y174509D01*
X269799Y174520D01*
X269918Y174535D01*
X270047Y174542D01*
X270092D01*
X270128Y174539D01*
D02*
G37*
G36*
X291293Y174539D02*
X291322Y174535D01*
X291355Y174531D01*
X291392Y174524D01*
X291437Y174517D01*
X291485Y174505D01*
X291537Y174494D01*
X291644Y174457D01*
X291703Y174435D01*
X291762Y174406D01*
X291822Y174376D01*
X291884Y174339D01*
X291663Y173758D01*
X291659D01*
X291651Y173766D01*
X291640Y173769D01*
X291622Y173780D01*
X291603Y173788D01*
X291577Y173799D01*
X291518Y173825D01*
X291452Y173851D01*
X291374Y173869D01*
X291289Y173884D01*
X291204Y173891D01*
X291170D01*
X291130Y173884D01*
X291082Y173877D01*
X291026Y173862D01*
X290963Y173839D01*
X290900Y173806D01*
X290837Y173766D01*
X290830Y173758D01*
X290811Y173743D01*
X290782Y173714D01*
X290749Y173677D01*
X290708Y173629D01*
X290671Y173569D01*
X290634Y173499D01*
X290604Y173421D01*
Y173418D01*
X290601Y173407D01*
X290593Y173388D01*
X290589Y173362D01*
X290582Y173333D01*
X290571Y173296D01*
X290564Y173251D01*
X290552Y173207D01*
X290541Y173151D01*
X290534Y173096D01*
X290527Y173037D01*
X290515Y172974D01*
X290504Y172837D01*
X290501Y172689D01*
Y170750D01*
X289872D01*
Y174461D01*
X290438D01*
Y173891D01*
X290441Y173895D01*
X290449Y173910D01*
X290460Y173928D01*
X290475Y173954D01*
X290493Y173987D01*
X290515Y174024D01*
X290567Y174106D01*
X290630Y174191D01*
X290697Y174280D01*
X290730Y174317D01*
X290763Y174354D01*
X290800Y174387D01*
X290834Y174413D01*
X290837D01*
X290841Y174420D01*
X290852Y174424D01*
X290867Y174435D01*
X290904Y174454D01*
X290952Y174480D01*
X291015Y174502D01*
X291082Y174524D01*
X291156Y174539D01*
X291237Y174542D01*
X291270D01*
X291293Y174539D01*
D02*
G37*
G36*
X283952Y170687D02*
X283948Y170680D01*
X283941Y170661D01*
X283929Y170628D01*
X283915Y170587D01*
X283896Y170539D01*
X283874Y170484D01*
X283848Y170421D01*
X283822Y170354D01*
X283767Y170213D01*
X283707Y170077D01*
X283678Y170010D01*
X283652Y169951D01*
X283626Y169895D01*
X283600Y169847D01*
Y169843D01*
X283593Y169832D01*
X283582Y169818D01*
X283571Y169795D01*
X283556Y169773D01*
X283537Y169744D01*
X283489Y169677D01*
X283434Y169603D01*
X283367Y169529D01*
X283293Y169455D01*
X283256Y169425D01*
X283215Y169396D01*
X283212D01*
X283204Y169388D01*
X283193Y169381D01*
X283178Y169374D01*
X283156Y169362D01*
X283130Y169348D01*
X283101Y169337D01*
X283067Y169322D01*
X282993Y169296D01*
X282905Y169270D01*
X282805Y169255D01*
X282697Y169248D01*
X282664D01*
X282627Y169252D01*
X282579Y169259D01*
X282520Y169266D01*
X282450Y169281D01*
X282376Y169300D01*
X282294Y169325D01*
X282224Y169918D01*
X282227D01*
X282231Y169914D01*
X282242D01*
X282257Y169910D01*
X282298Y169899D01*
X282346Y169888D01*
X282401Y169877D01*
X282461Y169869D01*
X282523Y169862D01*
X282583Y169858D01*
X282616D01*
X282657Y169862D01*
X282701Y169866D01*
X282757Y169877D01*
X282812Y169888D01*
X282864Y169906D01*
X282916Y169929D01*
X282923Y169932D01*
X282938Y169943D01*
X282960Y169958D01*
X282990Y169980D01*
X283023Y170006D01*
X283056Y170040D01*
X283090Y170080D01*
X283123Y170125D01*
X283127Y170128D01*
X283134Y170147D01*
X283141Y170158D01*
X283149Y170176D01*
X283156Y170195D01*
X283167Y170221D01*
X283182Y170247D01*
X283197Y170280D01*
X283212Y170321D01*
X283226Y170365D01*
X283245Y170413D01*
X283267Y170469D01*
X283289Y170528D01*
X283312Y170595D01*
Y170598D01*
X283315Y170606D01*
X283319Y170617D01*
X283326Y170632D01*
X283334Y170654D01*
X283345Y170680D01*
X283356Y170713D01*
X283371Y170746D01*
X281965Y174461D01*
X282634D01*
X283408Y172311D01*
Y172308D01*
X283415Y172293D01*
X283423Y172271D01*
X283434Y172241D01*
X283449Y172204D01*
X283463Y172160D01*
X283478Y172108D01*
X283500Y172052D01*
X283519Y171990D01*
X283541Y171923D01*
X283563Y171853D01*
X283585Y171779D01*
X283633Y171619D01*
X283678Y171453D01*
Y171457D01*
X283682Y171472D01*
X283689Y171494D01*
X283696Y171527D01*
X283707Y171564D01*
X283722Y171612D01*
X283737Y171664D01*
X283752Y171719D01*
X283770Y171782D01*
X283793Y171849D01*
X283837Y171990D01*
X283885Y172141D01*
X283941Y172297D01*
X284736Y174461D01*
X285361D01*
X283952Y170687D01*
D02*
G37*
G36*
X280030Y174539D02*
X280078Y174535D01*
X280130Y174531D01*
X280185Y174528D01*
X280307Y174513D01*
X280437Y174494D01*
X280562Y174465D01*
X280625Y174446D01*
X280681Y174428D01*
X280685D01*
X280696Y174424D01*
X280711Y174417D01*
X280729Y174409D01*
X280755Y174398D01*
X280781Y174383D01*
X280847Y174350D01*
X280918Y174309D01*
X280992Y174261D01*
X281058Y174209D01*
X281118Y174147D01*
Y174143D01*
X281125Y174139D01*
X281132Y174128D01*
X281140Y174117D01*
X281166Y174080D01*
X281195Y174028D01*
X281228Y173965D01*
X281258Y173895D01*
X281288Y173810D01*
X281314Y173717D01*
Y173710D01*
X281317Y173699D01*
Y173688D01*
X281321Y173669D01*
X281325Y173643D01*
X281328Y173617D01*
X281332Y173584D01*
Y173547D01*
X281336Y173506D01*
X281340Y173458D01*
X281343Y173407D01*
Y173347D01*
X281347Y173284D01*
Y173214D01*
Y173140D01*
Y172304D01*
Y172300D01*
Y172293D01*
Y172282D01*
Y172267D01*
Y172245D01*
Y172223D01*
Y172163D01*
Y172093D01*
X281351Y172015D01*
Y171927D01*
Y171838D01*
X281354Y171649D01*
X281358Y171557D01*
X281362Y171464D01*
X281365Y171383D01*
X281373Y171309D01*
X281377Y171246D01*
X281380Y171216D01*
X281384Y171194D01*
Y171190D01*
X281388Y171183D01*
Y171172D01*
X281391Y171153D01*
X281399Y171135D01*
X281402Y171109D01*
X281421Y171050D01*
X281443Y170983D01*
X281469Y170909D01*
X281506Y170831D01*
X281547Y170750D01*
X280892D01*
Y170754D01*
X280888Y170757D01*
X280881Y170768D01*
X280877Y170783D01*
X280866Y170802D01*
X280858Y170828D01*
X280836Y170879D01*
X280814Y170950D01*
X280792Y171028D01*
X280777Y171113D01*
X280762Y171209D01*
X280759Y171205D01*
X280748Y171194D01*
X280729Y171179D01*
X280703Y171161D01*
X280670Y171135D01*
X280633Y171109D01*
X280592Y171076D01*
X280548Y171042D01*
X280496Y171009D01*
X280444Y170976D01*
X280329Y170905D01*
X280211Y170839D01*
X280148Y170813D01*
X280089Y170787D01*
X280085D01*
X280074Y170783D01*
X280056Y170776D01*
X280033Y170768D01*
X280004Y170761D01*
X279967Y170750D01*
X279926Y170739D01*
X279882Y170728D01*
X279834Y170717D01*
X279778Y170706D01*
X279660Y170687D01*
X279534Y170672D01*
X279397Y170669D01*
X279371D01*
X279338Y170672D01*
X279297D01*
X279245Y170676D01*
X279186Y170683D01*
X279119Y170694D01*
X279049Y170706D01*
X278975Y170720D01*
X278901Y170743D01*
X278820Y170765D01*
X278742Y170794D01*
X278668Y170828D01*
X278590Y170868D01*
X278524Y170913D01*
X278457Y170965D01*
X278453Y170968D01*
X278442Y170979D01*
X278428Y170994D01*
X278405Y171020D01*
X278383Y171050D01*
X278354Y171083D01*
X278324Y171124D01*
X278294Y171172D01*
X278265Y171224D01*
X278235Y171283D01*
X278206Y171346D01*
X278183Y171412D01*
X278161Y171486D01*
X278146Y171560D01*
X278135Y171642D01*
X278132Y171727D01*
Y171730D01*
Y171738D01*
Y171753D01*
X278135Y171775D01*
Y171797D01*
X278139Y171827D01*
X278146Y171893D01*
X278161Y171967D01*
X278183Y172052D01*
X278213Y172137D01*
X278254Y172223D01*
Y172226D01*
X278261Y172234D01*
X278265Y172245D01*
X278276Y172260D01*
X278302Y172300D01*
X278339Y172352D01*
X278387Y172411D01*
X278442Y172470D01*
X278505Y172530D01*
X278576Y172585D01*
X278579D01*
X278587Y172593D01*
X278598Y172600D01*
X278613Y172607D01*
X278631Y172618D01*
X278653Y172633D01*
X278709Y172663D01*
X278775Y172696D01*
X278853Y172730D01*
X278938Y172763D01*
X279031Y172792D01*
X279034D01*
X279038Y172796D01*
X279049D01*
X279064Y172800D01*
X279086Y172803D01*
X279108Y172811D01*
X279138Y172815D01*
X279171Y172822D01*
X279208Y172829D01*
X279249Y172837D01*
X279293Y172844D01*
X279345Y172852D01*
X279401Y172859D01*
X279460Y172870D01*
X279523Y172878D01*
X279589Y172885D01*
X279597D01*
X279608Y172889D01*
X279623D01*
X279663Y172896D01*
X279715Y172900D01*
X279778Y172911D01*
X279848Y172922D01*
X279930Y172933D01*
X280015Y172948D01*
X280104Y172963D01*
X280196Y172977D01*
X280381Y173014D01*
X280474Y173037D01*
X280559Y173059D01*
X280637Y173081D01*
X280711Y173103D01*
Y173111D01*
Y173125D01*
Y173144D01*
X280714Y173170D01*
Y173225D01*
Y173248D01*
Y173266D01*
Y173270D01*
Y173284D01*
Y173303D01*
X280711Y173329D01*
Y173359D01*
X280703Y173396D01*
X280692Y173477D01*
X280670Y173566D01*
X280637Y173658D01*
X280618Y173699D01*
X280592Y173740D01*
X280566Y173773D01*
X280533Y173806D01*
X280529Y173810D01*
X280522Y173817D01*
X280507Y173825D01*
X280488Y173839D01*
X280463Y173854D01*
X280433Y173873D01*
X280396Y173895D01*
X280355Y173914D01*
X280307Y173932D01*
X280252Y173954D01*
X280196Y173973D01*
X280130Y173987D01*
X280059Y174002D01*
X279985Y174013D01*
X279904Y174017D01*
X279819Y174021D01*
X279778D01*
X279745Y174017D01*
X279708D01*
X279667Y174013D01*
X279619Y174006D01*
X279571Y174002D01*
X279464Y173984D01*
X279356Y173954D01*
X279253Y173914D01*
X279205Y173891D01*
X279164Y173862D01*
X279160D01*
X279156Y173854D01*
X279145Y173843D01*
X279131Y173832D01*
X279112Y173814D01*
X279094Y173791D01*
X279071Y173766D01*
X279046Y173736D01*
X279020Y173699D01*
X278994Y173658D01*
X278968Y173614D01*
X278946Y173566D01*
X278920Y173510D01*
X278894Y173451D01*
X278872Y173384D01*
X278853Y173314D01*
X278239Y173399D01*
Y173403D01*
X278243Y173418D01*
X278246Y173436D01*
X278254Y173466D01*
X278265Y173499D01*
X278276Y173536D01*
X278287Y173581D01*
X278306Y173625D01*
X278343Y173729D01*
X278391Y173832D01*
X278446Y173939D01*
X278513Y174036D01*
X278516Y174039D01*
X278520Y174047D01*
X278531Y174058D01*
X278550Y174076D01*
X278568Y174095D01*
X278594Y174121D01*
X278620Y174147D01*
X278653Y174172D01*
X278690Y174202D01*
X278735Y174235D01*
X278779Y174265D01*
X278827Y174295D01*
X278883Y174328D01*
X278938Y174357D01*
X279001Y174383D01*
X279068Y174409D01*
X279071D01*
X279082Y174417D01*
X279105Y174420D01*
X279131Y174432D01*
X279168Y174439D01*
X279208Y174450D01*
X279256Y174465D01*
X279308Y174476D01*
X279367Y174487D01*
X279434Y174502D01*
X279504Y174513D01*
X279578Y174520D01*
X279656Y174531D01*
X279737Y174535D01*
X279911Y174542D01*
X279989D01*
X280030Y174539D01*
D02*
G37*
G36*
X275098Y171353D02*
X277617D01*
Y170750D01*
X274420D01*
Y175871D01*
X275098D01*
Y171353D01*
D02*
G37*
G36*
X263809Y175268D02*
X262114D01*
Y170750D01*
X261437D01*
Y175268D01*
X259750D01*
Y175871D01*
X263809D01*
Y175268D01*
D02*
G37*
G36*
X287493Y174539D02*
X287544Y174535D01*
X287611Y174528D01*
X287681Y174517D01*
X287763Y174502D01*
X287852Y174480D01*
X287948Y174454D01*
X288044Y174420D01*
X288147Y174380D01*
X288247Y174328D01*
X288351Y174272D01*
X288447Y174202D01*
X288543Y174124D01*
X288636Y174036D01*
X288640Y174028D01*
X288658Y174013D01*
X288680Y173984D01*
X288710Y173943D01*
X288747Y173891D01*
X288788Y173828D01*
X288828Y173754D01*
X288873Y173669D01*
X288917Y173573D01*
X288962Y173466D01*
X288999Y173347D01*
X289036Y173222D01*
X289065Y173085D01*
X289091Y172937D01*
X289106Y172778D01*
X289109Y172611D01*
Y172607D01*
Y172600D01*
Y172589D01*
Y172570D01*
Y172545D01*
Y172519D01*
X289106Y172485D01*
Y172445D01*
X286338Y172445D01*
Y172437D01*
X286342Y172419D01*
Y172385D01*
X286349Y172345D01*
X286357Y172293D01*
X286364Y172234D01*
X286379Y172171D01*
X286394Y172100D01*
X286412Y172023D01*
X286438Y171949D01*
X286464Y171871D01*
X286497Y171793D01*
X286534Y171716D01*
X286579Y171642D01*
X286627Y171571D01*
X286682Y171509D01*
X286686Y171505D01*
X286697Y171494D01*
X286716Y171479D01*
X286738Y171457D01*
X286767Y171434D01*
X286804Y171409D01*
X286849Y171379D01*
X286897Y171349D01*
X286949Y171316D01*
X287008Y171290D01*
X287071Y171261D01*
X287141Y171238D01*
X287215Y171216D01*
X287293Y171201D01*
X287374Y171190D01*
X287459Y171187D01*
X287493D01*
X287519Y171190D01*
X287548Y171194D01*
X287581Y171198D01*
X287622Y171201D01*
X287663Y171209D01*
X287755Y171231D01*
X287855Y171264D01*
X287907Y171283D01*
X287955Y171309D01*
X288003Y171335D01*
X288051Y171368D01*
X288055Y171372D01*
X288062Y171375D01*
X288073Y171386D01*
X288092Y171401D01*
X288114Y171423D01*
X288136Y171446D01*
X288162Y171475D01*
X288192Y171509D01*
X288222Y171549D01*
X288255Y171590D01*
X288284Y171638D01*
X288318Y171690D01*
X288351Y171749D01*
X288381Y171812D01*
X288410Y171879D01*
X288440Y171952D01*
X289087Y171867D01*
Y171860D01*
X289080Y171842D01*
X289069Y171812D01*
X289058Y171775D01*
X289039Y171727D01*
X289017Y171671D01*
X288991Y171608D01*
X288958Y171542D01*
X288921Y171475D01*
X288880Y171401D01*
X288832Y171327D01*
X288780Y171253D01*
X288725Y171183D01*
X288662Y171113D01*
X288592Y171046D01*
X288517Y170983D01*
X288514Y170979D01*
X288499Y170968D01*
X288477Y170954D01*
X288443Y170935D01*
X288403Y170909D01*
X288351Y170883D01*
X288296Y170854D01*
X288229Y170828D01*
X288155Y170798D01*
X288077Y170768D01*
X287988Y170743D01*
X287896Y170717D01*
X287796Y170698D01*
X287689Y170683D01*
X287574Y170672D01*
X287456Y170669D01*
X287419D01*
X287400Y170672D01*
X287378D01*
X287322Y170676D01*
X287252Y170683D01*
X287174Y170694D01*
X287086Y170709D01*
X286989Y170731D01*
X286890Y170757D01*
X286782Y170791D01*
X286675Y170831D01*
X286568Y170879D01*
X286460Y170935D01*
X286357Y171002D01*
X286257Y171079D01*
X286164Y171168D01*
X286161Y171176D01*
X286146Y171190D01*
X286120Y171220D01*
X286090Y171261D01*
X286053Y171312D01*
X286016Y171375D01*
X285972Y171446D01*
X285928Y171531D01*
X285883Y171627D01*
X285842Y171730D01*
X285802Y171845D01*
X285765Y171971D01*
X285735Y172108D01*
X285713Y172252D01*
X285694Y172408D01*
X285691Y172574D01*
Y172578D01*
Y172585D01*
Y172596D01*
Y172615D01*
X285694Y172637D01*
Y172663D01*
Y172693D01*
X285698Y172730D01*
X285705Y172807D01*
X285717Y172896D01*
X285731Y172996D01*
X285750Y173107D01*
X285776Y173218D01*
X285809Y173336D01*
X285846Y173458D01*
X285894Y173581D01*
X285950Y173699D01*
X286013Y173814D01*
X286087Y173925D01*
X286172Y174024D01*
X286179Y174032D01*
X286194Y174047D01*
X286220Y174073D01*
X286261Y174106D01*
X286309Y174147D01*
X286364Y174187D01*
X286431Y174235D01*
X286508Y174284D01*
X286594Y174332D01*
X286690Y174380D01*
X286790Y174424D01*
X286901Y174461D01*
X287023Y174494D01*
X287148Y174520D01*
X287282Y174535D01*
X287422Y174542D01*
X287456D01*
X287493Y174539D01*
D02*
G37*
G36*
X265999D02*
X266051Y174535D01*
X266118Y174528D01*
X266192Y174517D01*
X266277Y174502D01*
X266369Y174480D01*
X266465Y174454D01*
X266569Y174420D01*
X266673Y174380D01*
X266776Y174332D01*
X266880Y174272D01*
X266984Y174206D01*
X267083Y174128D01*
X267176Y174039D01*
X267183Y174032D01*
X267198Y174017D01*
X267220Y173987D01*
X267254Y173947D01*
X267291Y173895D01*
X267331Y173836D01*
X267376Y173762D01*
X267420Y173680D01*
X267464Y173584D01*
X267509Y173481D01*
X267550Y173370D01*
X267587Y173244D01*
X267620Y173111D01*
X267642Y172970D01*
X267661Y172818D01*
X267664Y172655D01*
Y172652D01*
Y172648D01*
Y172637D01*
Y172626D01*
Y172585D01*
X267661Y172537D01*
X267657Y172478D01*
X267653Y172408D01*
X267646Y172330D01*
X267638Y172248D01*
X267627Y172160D01*
X267613Y172067D01*
X267594Y171975D01*
X267572Y171879D01*
X267546Y171786D01*
X267520Y171697D01*
X267483Y171612D01*
X267446Y171531D01*
X267442Y171527D01*
X267435Y171512D01*
X267424Y171490D01*
X267405Y171464D01*
X267383Y171427D01*
X267357Y171390D01*
X267324Y171346D01*
X267287Y171298D01*
X267246Y171246D01*
X267198Y171194D01*
X267146Y171142D01*
X267091Y171090D01*
X267032Y171039D01*
X266965Y170987D01*
X266895Y170939D01*
X266821Y170894D01*
X266817Y170891D01*
X266802Y170883D01*
X266780Y170872D01*
X266750Y170861D01*
X266710Y170843D01*
X266665Y170824D01*
X266614Y170802D01*
X266558Y170783D01*
X266491Y170761D01*
X266425Y170739D01*
X266351Y170720D01*
X266273Y170706D01*
X266188Y170691D01*
X266103Y170680D01*
X266018Y170672D01*
X265925Y170669D01*
X265892D01*
X265874Y170672D01*
X265851D01*
X265796Y170676D01*
X265729Y170683D01*
X265655Y170694D01*
X265570Y170709D01*
X265478Y170731D01*
X265378Y170757D01*
X265278Y170791D01*
X265171Y170831D01*
X265067Y170879D01*
X264963Y170935D01*
X264860Y171002D01*
X264760Y171076D01*
X264667Y171164D01*
X264664Y171172D01*
X264645Y171187D01*
X264623Y171216D01*
X264593Y171257D01*
X264556Y171309D01*
X264516Y171372D01*
X264475Y171446D01*
X264430Y171531D01*
X264386Y171627D01*
X264342Y171734D01*
X264301Y171853D01*
X264264Y171982D01*
X264234Y172123D01*
X264212Y172271D01*
X264194Y172433D01*
X264190Y172604D01*
Y172607D01*
Y172615D01*
Y172630D01*
Y172648D01*
X264194Y172674D01*
Y172704D01*
X264197Y172737D01*
Y172774D01*
X264201Y172815D01*
X264209Y172859D01*
X264220Y172955D01*
X264238Y173063D01*
X264260Y173181D01*
X264290Y173303D01*
X264331Y173429D01*
X264375Y173555D01*
X264430Y173680D01*
X264497Y173802D01*
X264571Y173921D01*
X264660Y174028D01*
X264760Y174128D01*
X264767Y174132D01*
X264782Y174147D01*
X264808Y174165D01*
X264845Y174195D01*
X264893Y174224D01*
X264949Y174258D01*
X265011Y174298D01*
X265085Y174335D01*
X265167Y174372D01*
X265256Y174413D01*
X265352Y174446D01*
X265455Y174480D01*
X265563Y174505D01*
X265677Y174524D01*
X265799Y174539D01*
X265925Y174542D01*
X265977D01*
X265999Y174539D01*
D02*
G37*
%LPC*%
G36*
X269984Y174050D02*
X269966D01*
X269947Y174047D01*
X269918Y174043D01*
X269881Y174039D01*
X269840Y174032D01*
X269795Y174017D01*
X269747Y174002D01*
X269692Y173984D01*
X269636Y173958D01*
X269577Y173928D01*
X269518Y173891D01*
X269455Y173847D01*
X269396Y173799D01*
X269337Y173740D01*
X269278Y173673D01*
X269274Y173669D01*
X269263Y173654D01*
X269248Y173632D01*
X269229Y173603D01*
X269207Y173566D01*
X269181Y173518D01*
X269152Y173462D01*
X269126Y173396D01*
X269096Y173325D01*
X269067Y173244D01*
X269041Y173155D01*
X269019Y173055D01*
X269000Y172951D01*
X268985Y172837D01*
X268974Y172715D01*
X268970Y172585D01*
Y172582D01*
Y172578D01*
Y172567D01*
Y172556D01*
X268974Y172519D01*
Y172467D01*
X268978Y172408D01*
X268985Y172341D01*
X268996Y172263D01*
X269007Y172186D01*
X269022Y172100D01*
X269041Y172012D01*
X269063Y171923D01*
X269092Y171838D01*
X269126Y171753D01*
X269163Y171671D01*
X269207Y171594D01*
X269259Y171527D01*
X269263Y171523D01*
X269274Y171512D01*
X269289Y171497D01*
X269311Y171475D01*
X269340Y171449D01*
X269374Y171420D01*
X269411Y171390D01*
X269455Y171357D01*
X269503Y171324D01*
X269555Y171294D01*
X269614Y171264D01*
X269677Y171238D01*
X269740Y171220D01*
X269810Y171201D01*
X269884Y171190D01*
X269958Y171187D01*
X269977D01*
X269999Y171190D01*
X270029Y171194D01*
X270066Y171198D01*
X270106Y171205D01*
X270154Y171216D01*
X270206Y171231D01*
X270258Y171249D01*
X270317Y171272D01*
X270376Y171301D01*
X270436Y171335D01*
X270498Y171375D01*
X270558Y171423D01*
X270617Y171475D01*
X270672Y171538D01*
X270676Y171542D01*
X270687Y171557D01*
X270702Y171575D01*
X270721Y171605D01*
X270743Y171642D01*
X270769Y171690D01*
X270795Y171745D01*
X270824Y171808D01*
X270850Y171882D01*
X270876Y171964D01*
X270902Y172052D01*
X270924Y172152D01*
X270946Y172260D01*
X270961Y172378D01*
X270968Y172504D01*
X270972Y172637D01*
Y172641D01*
Y172644D01*
Y172655D01*
Y172667D01*
Y172704D01*
X270968Y172752D01*
X270965Y172811D01*
X270957Y172878D01*
X270946Y172955D01*
X270935Y173033D01*
X270920Y173118D01*
X270902Y173207D01*
X270876Y173296D01*
X270850Y173381D01*
X270817Y173466D01*
X270776Y173547D01*
X270732Y173625D01*
X270680Y173695D01*
X270676Y173699D01*
X270665Y173710D01*
X270650Y173729D01*
X270628Y173751D01*
X270598Y173777D01*
X270565Y173806D01*
X270528Y173839D01*
X270484Y173873D01*
X270436Y173906D01*
X270380Y173939D01*
X270325Y173969D01*
X270262Y173995D01*
X270199Y174017D01*
X270128Y174036D01*
X270058Y174047D01*
X269984Y174050D01*
D02*
G37*
G36*
X280711Y172611D02*
X280707D01*
X280696Y172604D01*
X280674Y172596D01*
X280648Y172589D01*
X280611Y172574D01*
X280566Y172563D01*
X280514Y172545D01*
X280451Y172530D01*
X280385Y172511D01*
X280307Y172489D01*
X280222Y172470D01*
X280133Y172452D01*
X280030Y172430D01*
X279922Y172411D01*
X279808Y172389D01*
X279682Y172371D01*
X279678D01*
X279663Y172367D01*
X279645D01*
X279619Y172360D01*
X279586Y172356D01*
X279552Y172348D01*
X279467Y172334D01*
X279379Y172315D01*
X279286Y172293D01*
X279205Y172271D01*
X279168Y172260D01*
X279134Y172245D01*
X279127Y172241D01*
X279108Y172234D01*
X279079Y172215D01*
X279046Y172193D01*
X279005Y172167D01*
X278964Y172130D01*
X278923Y172089D01*
X278886Y172041D01*
X278883Y172034D01*
X278872Y172019D01*
X278860Y171990D01*
X278846Y171956D01*
X278827Y171912D01*
X278816Y171860D01*
X278805Y171804D01*
X278801Y171745D01*
Y171742D01*
Y171734D01*
Y171719D01*
X278805Y171705D01*
X278809Y171682D01*
X278812Y171657D01*
X278823Y171597D01*
X278846Y171534D01*
X278883Y171464D01*
X278901Y171427D01*
X278927Y171394D01*
X278957Y171361D01*
X278990Y171327D01*
X278994D01*
X278997Y171320D01*
X279009Y171312D01*
X279027Y171301D01*
X279046Y171290D01*
X279068Y171275D01*
X279097Y171261D01*
X279131Y171246D01*
X279168Y171227D01*
X279208Y171212D01*
X279253Y171198D01*
X279305Y171187D01*
X279356Y171176D01*
X279415Y171168D01*
X279478Y171164D01*
X279545Y171161D01*
X279582D01*
X279608Y171164D01*
X279638D01*
X279675Y171168D01*
X279719Y171176D01*
X279763Y171179D01*
X279863Y171198D01*
X279974Y171227D01*
X280085Y171264D01*
X280192Y171316D01*
X280196Y171320D01*
X280204Y171324D01*
X280218Y171331D01*
X280237Y171346D01*
X280263Y171361D01*
X280289Y171383D01*
X280352Y171431D01*
X280418Y171494D01*
X280485Y171568D01*
X280551Y171653D01*
X280607Y171753D01*
Y171756D01*
X280611Y171764D01*
X280618Y171775D01*
X280622Y171793D01*
X280633Y171816D01*
X280640Y171842D01*
X280648Y171875D01*
X280659Y171912D01*
X280670Y171952D01*
X280677Y171997D01*
X280688Y172049D01*
X280696Y172104D01*
X280699Y172167D01*
X280707Y172234D01*
X280711Y172304D01*
Y172378D01*
Y172611D01*
D02*
G37*
G36*
X287426Y174024D02*
X287385D01*
X287356Y174021D01*
X287315Y174017D01*
X287274Y174010D01*
X287226Y173999D01*
X287174Y173987D01*
X287115Y173973D01*
X287060Y173954D01*
X286997Y173928D01*
X286938Y173902D01*
X286875Y173869D01*
X286812Y173828D01*
X286753Y173784D01*
X286697Y173732D01*
X286693Y173729D01*
X286686Y173717D01*
X286671Y173703D01*
X286649Y173680D01*
X286627Y173651D01*
X286601Y173614D01*
X286575Y173573D01*
X286545Y173529D01*
X286516Y173477D01*
X286486Y173418D01*
X286460Y173355D01*
X286434Y173284D01*
X286412Y173214D01*
X286394Y173133D01*
X286379Y173051D01*
X286371Y172963D01*
X288447Y172963D01*
Y172966D01*
X288443Y172985D01*
Y173007D01*
X288436Y173040D01*
X288432Y173077D01*
X288421Y173122D01*
X288414Y173173D01*
X288399Y173225D01*
X288369Y173340D01*
X288329Y173455D01*
X288273Y173566D01*
X288240Y173617D01*
X288207Y173662D01*
X288203Y173666D01*
X288192Y173677D01*
X288177Y173695D01*
X288151Y173717D01*
X288122Y173747D01*
X288088Y173777D01*
X288044Y173810D01*
X287996Y173843D01*
X287944Y173877D01*
X287885Y173910D01*
X287822Y173939D01*
X287752Y173969D01*
X287678Y173991D01*
X287596Y174010D01*
X287515Y174021D01*
X287426Y174024D01*
D02*
G37*
G36*
X265925Y174021D02*
X265903D01*
X265881Y174017D01*
X265848D01*
X265807Y174010D01*
X265759Y174002D01*
X265707Y173991D01*
X265651Y173976D01*
X265592Y173958D01*
X265529Y173936D01*
X265463Y173906D01*
X265396Y173873D01*
X265333Y173832D01*
X265267Y173784D01*
X265204Y173729D01*
X265145Y173666D01*
X265141Y173662D01*
X265130Y173651D01*
X265115Y173629D01*
X265096Y173599D01*
X265074Y173562D01*
X265048Y173518D01*
X265019Y173462D01*
X264993Y173403D01*
X264963Y173329D01*
X264934Y173251D01*
X264908Y173166D01*
X264886Y173070D01*
X264867Y172966D01*
X264852Y172852D01*
X264841Y172733D01*
X264838Y172604D01*
Y172600D01*
Y172596D01*
Y172585D01*
Y172574D01*
X264841Y172537D01*
Y172489D01*
X264849Y172430D01*
X264852Y172360D01*
X264863Y172285D01*
X264875Y172204D01*
X264893Y172119D01*
X264912Y172030D01*
X264937Y171941D01*
X264967Y171856D01*
X265004Y171767D01*
X265045Y171686D01*
X265089Y171608D01*
X265145Y171538D01*
X265148Y171534D01*
X265159Y171523D01*
X265178Y171505D01*
X265200Y171483D01*
X265230Y171457D01*
X265267Y171427D01*
X265311Y171394D01*
X265359Y171364D01*
X265411Y171331D01*
X265470Y171298D01*
X265537Y171268D01*
X265603Y171242D01*
X265677Y171220D01*
X265759Y171201D01*
X265840Y171190D01*
X265925Y171187D01*
X265948D01*
X265970Y171190D01*
X266003Y171194D01*
X266044Y171198D01*
X266092Y171205D01*
X266144Y171216D01*
X266199Y171231D01*
X266258Y171249D01*
X266321Y171272D01*
X266388Y171301D01*
X266454Y171338D01*
X266517Y171379D01*
X266584Y171423D01*
X266647Y171479D01*
X266706Y171542D01*
X266710Y171546D01*
X266721Y171560D01*
X266736Y171579D01*
X266754Y171608D01*
X266780Y171645D01*
X266806Y171694D01*
X266832Y171749D01*
X266861Y171812D01*
X266891Y171882D01*
X266917Y171964D01*
X266947Y172052D01*
X266969Y172149D01*
X266987Y172256D01*
X267002Y172371D01*
X267013Y172493D01*
X267017Y172626D01*
Y172630D01*
Y172633D01*
Y172655D01*
X267013Y172693D01*
Y172737D01*
X267006Y172796D01*
X267002Y172863D01*
X266991Y172933D01*
X266976Y173014D01*
X266961Y173096D01*
X266939Y173181D01*
X266913Y173266D01*
X266884Y173355D01*
X266847Y173436D01*
X266806Y173518D01*
X266758Y173595D01*
X266702Y173666D01*
X266699Y173669D01*
X266687Y173680D01*
X266669Y173699D01*
X266647Y173721D01*
X266617Y173747D01*
X266580Y173777D01*
X266536Y173810D01*
X266488Y173843D01*
X266436Y173877D01*
X266377Y173910D01*
X266314Y173939D01*
X266244Y173965D01*
X266170Y173987D01*
X266092Y174006D01*
X266010Y174017D01*
X265925Y174021D01*
D02*
G37*
%LPD*%
D11*
X488500Y369414D02*
X489164Y368750D01*
X581250Y435980D02*
X616270Y471000D01*
X581250Y405340D02*
Y435980D01*
Y405340D02*
X587797Y398793D01*
X579250Y436815D02*
X616500Y474065D01*
X579250Y393408D02*
Y436815D01*
Y393408D02*
X586000Y386658D01*
X885750Y432000D02*
X885868Y431882D01*
X896159D01*
X275500Y232000D02*
Y233000D01*
X272750Y229250D02*
X275500Y232000D01*
X264750Y229250D02*
X272750D01*
X288000Y377250D02*
X291950Y373300D01*
X288000Y377250D02*
Y388750D01*
X290000Y378500D02*
Y384750D01*
Y378500D02*
X291969Y376531D01*
X564276Y370250D02*
X565063D01*
X553474D02*
X564276D01*
X553474Y373724D02*
X555500Y375750D01*
X558696D01*
X553474Y370250D02*
Y373724D01*
X534250Y395499D02*
X545199D01*
X545200Y395500D01*
X532314Y393564D02*
X534250Y395499D01*
X532314Y380114D02*
Y393564D01*
Y380114D02*
X535523Y376905D01*
X757000Y273500D02*
X781625Y248875D01*
Y237625D02*
X789059Y230191D01*
X781625Y237625D02*
Y248875D01*
X808000Y268500D02*
X821750D01*
X805250Y271250D02*
X808000Y268500D01*
X805250Y271250D02*
Y285500D01*
X796250Y260500D02*
X805855Y250895D01*
X817750D01*
X796250Y260500D02*
Y261500D01*
X433750Y425333D02*
Y432000D01*
X434000Y432250D01*
X279500Y389661D02*
X284919Y395081D01*
X288331D01*
X289000Y395750D01*
Y400500D01*
X290250Y391000D02*
X297250D01*
X288000Y388750D02*
X290250Y391000D01*
X446500Y455750D02*
X448750Y453500D01*
X425828Y455750D02*
X446500D01*
X459500Y457750D02*
X468000Y449250D01*
X426657Y457750D02*
X459500D01*
X422578Y459000D02*
X425828Y455750D01*
X423097Y461310D02*
X426657Y457750D01*
X404500Y455000D02*
X409250Y450250D01*
X345093Y455000D02*
X404500D01*
X340250Y450157D02*
X345093Y455000D01*
X385000Y453000D02*
X389500Y448500D01*
X345922Y453000D02*
X385000D01*
X342250Y449328D02*
X345922Y453000D01*
X365000Y451000D02*
X367250Y448750D01*
X346750Y451000D02*
X365000D01*
X344250Y448500D02*
X346750Y451000D01*
X357000Y446750D02*
X362300D01*
X352050D02*
X357000D01*
X380643Y470050D02*
X383438Y472845D01*
X440595D01*
X324372Y461310D02*
X423097D01*
X311264Y470050D02*
X380643D01*
X318896Y455834D02*
X324372Y461310D01*
X318896Y439439D02*
Y455834D01*
Y439439D02*
X322335Y436000D01*
X325328Y459000D02*
X422578Y459000D01*
X421750Y457000D02*
X428750Y450000D01*
X413500Y457000D02*
X421750D01*
X437750Y467920D02*
X439420D01*
X458000Y452500D02*
X458300D01*
X463250Y447550D01*
X453633Y448133D02*
X458000Y452500D01*
X453583Y448133D02*
X453633D01*
X453000Y447550D02*
X453583Y448133D01*
X438735Y450985D02*
X439500Y451750D01*
X437435Y450985D02*
X438735D01*
X434000Y447550D02*
X437435Y450985D01*
X439500Y451750D02*
X439800D01*
X444000Y447550D01*
X448750Y441250D02*
Y453500D01*
X301250Y460036D02*
X311264Y470050D01*
X439420Y467920D02*
X450750Y479250D01*
X419550Y451750D02*
X423750Y447550D01*
X419000Y451750D02*
X419550D01*
X414250Y447550D02*
X418450Y451750D01*
X419000D01*
X361125Y426125D02*
X362500Y427500D01*
X359336Y426125D02*
X361125D01*
X358750Y425539D02*
X359336Y426125D01*
X358750Y421250D02*
Y425539D01*
X362500Y427500D02*
Y431199D01*
Y437301D02*
Y442700D01*
X394250Y429672D02*
X401000Y422922D01*
X394250Y429672D02*
Y432000D01*
X401000Y413638D02*
Y422922D01*
X396862Y409500D02*
X401000Y413638D01*
X440595Y472845D02*
X446429Y478679D01*
X587750Y372809D02*
X590441Y375500D01*
X587750Y367154D02*
Y372809D01*
X585239Y364642D02*
X587750Y367154D01*
X570671Y364642D02*
X585239D01*
X565063Y370250D02*
X570671Y364642D01*
X590441Y375500D02*
X594892D01*
X585436Y381857D02*
X586000Y382421D01*
X585436Y381843D02*
Y381857D01*
X583093Y379500D02*
X585436Y381843D01*
X580593Y379500D02*
X583093D01*
X579593Y378500D02*
X580593Y379500D01*
X586000Y382421D02*
Y386658D01*
X568813Y378500D02*
X579593D01*
X340163Y365550D02*
Y369950D01*
X344700D01*
X329250Y360950D02*
X340159D01*
X343049Y363840D01*
X346665D01*
X596000Y376608D02*
Y391239D01*
X594480Y392760D02*
X596000Y391239D01*
X588850Y392760D02*
X594480D01*
X587797Y391707D02*
X588850Y392760D01*
X640875Y516125D02*
X644027D01*
X638496Y513746D02*
X640875Y516125D01*
X638496Y494900D02*
Y513746D01*
X644027Y516125D02*
X649402Y521500D01*
X660307Y505805D02*
Y521500D01*
X649402Y494900D02*
X660307Y505805D01*
X665760Y493010D02*
Y510319D01*
X656450Y483700D02*
X665760Y493010D01*
X654854Y483700D02*
X656450D01*
X777449Y438151D02*
X778900Y436700D01*
X777449Y438151D02*
Y447250D01*
X703250Y273500D02*
X757000D01*
X338750Y426000D02*
X340250Y427500D01*
X333250Y426000D02*
X338750D01*
X409250Y440586D02*
Y450250D01*
X414250Y440000D02*
Y442950D01*
Y436850D02*
Y440000D01*
X409250Y440586D02*
X409836Y440000D01*
X414250D01*
X743646Y291933D02*
X754817D01*
X781750Y265000D01*
X782750D01*
X785250Y262500D01*
Y261500D02*
Y262500D01*
X688522Y288228D02*
Y317067D01*
Y288228D02*
X703250Y273500D01*
X678930Y326659D02*
X688522Y317067D01*
X829750Y277651D02*
X832250Y280500D01*
X829750Y276500D02*
Y277651D01*
X832250Y280500D02*
Y285500D01*
X841000Y271750D02*
Y286250D01*
X833750Y264500D02*
X841000Y271750D01*
X833750Y250895D02*
Y264500D01*
X821750Y268500D02*
X829750Y276500D01*
X481749Y431950D02*
X482500Y431199D01*
X472500Y431950D02*
X481749D01*
X399750Y427000D02*
X403000Y423750D01*
Y404750D02*
Y423750D01*
X399750Y427000D02*
Y447550D01*
X394500D02*
X399750D01*
X404500D01*
Y430949D02*
X404598D01*
X405900Y432250D01*
X414250D01*
X488500Y369414D02*
Y376500D01*
Y368750D02*
X489164D01*
X825634Y402250D02*
X830384Y397500D01*
Y324250D02*
Y397500D01*
X778900Y402250D02*
X825634D01*
X724596Y370000D02*
X742607Y351989D01*
X710250Y370000D02*
X724596D01*
X673758Y358758D02*
X685000Y370000D01*
X699250D01*
X594892Y375500D02*
X596000Y376608D01*
X465305Y383945D02*
X467750Y381500D01*
Y366954D02*
Y381500D01*
Y366954D02*
X471704Y363000D01*
X445325Y383945D02*
X465305D01*
X632510Y471000D02*
X638750Y477240D01*
X616270Y471000D02*
X632510D01*
X638750Y477240D02*
Y486823D01*
X585857Y446250D02*
X616685Y477078D01*
Y494900D01*
X621512Y492738D02*
Y502294D01*
Y492738D02*
X627750Y486500D01*
Y477000D02*
Y486500D01*
X624815Y474065D02*
X627750Y477000D01*
X616500Y474065D02*
X624815D01*
X633250Y492323D02*
X638750Y486823D01*
X554610Y446250D02*
X585857D01*
X394250Y432000D02*
X394500Y432250D01*
X446429Y478679D02*
Y518619D01*
X469500Y425250D02*
Y429000D01*
X467301Y431199D02*
X469500Y429000D01*
X463250Y431199D02*
X467301D01*
X469500Y429250D02*
X469650Y429100D01*
X472500Y431950D01*
X486770Y354195D02*
X564898D01*
X477964Y363000D02*
X486770Y354195D01*
X471704Y363000D02*
X477964D01*
X441365Y379984D02*
X445325Y383945D01*
X526167Y508751D02*
X569359D01*
X459239Y531429D02*
X503490D01*
X709000Y485187D02*
X729333Y505521D01*
X456250Y522500D02*
X460979Y527229D01*
X456250Y505750D02*
Y522500D01*
X450750Y500250D02*
X456250Y505750D01*
X729333Y505521D02*
Y535115D01*
X450750Y479250D02*
Y500250D01*
X709000Y455593D02*
X715093Y449500D01*
X725849D01*
X446429Y518619D02*
X459239Y531429D01*
X524428Y504551D02*
X578051D01*
X742607Y322000D02*
X756857Y307750D01*
X742607Y322000D02*
Y351989D01*
X300550Y446000D02*
X301250Y446700D01*
X709000Y455593D02*
Y485187D01*
X501750Y527229D02*
X524428Y504551D01*
X460979Y527229D02*
X501750D01*
X583626Y450750D02*
X611232Y478357D01*
Y483700D01*
X326157Y457000D02*
X413500Y457000D01*
X725849Y449500D02*
X732000Y443349D01*
Y430819D02*
Y443349D01*
Y430819D02*
X738750Y424069D01*
X727166Y537283D02*
X729333Y535115D01*
X738750Y424069D02*
X739750D01*
X852077Y324250D02*
Y421000D01*
X844377Y428700D02*
X852077Y421000D01*
X778900Y428700D02*
X844377D01*
X841250Y324250D02*
Y404000D01*
X833775Y411475D02*
X841250Y404000D01*
X778900Y411475D02*
X833775D01*
X827572Y230191D02*
X833750Y236369D01*
X789059Y230191D02*
X827572D01*
X832250Y285500D02*
X833000Y286250D01*
X872750D02*
X892233Y305733D01*
X841000Y286250D02*
X872750D01*
X892233Y305733D02*
X893230D01*
X894380Y306882D01*
X895909D01*
X901638D01*
X907091Y312335D01*
X833750Y236369D02*
Y250895D01*
X727830Y307750D02*
X743646Y291933D01*
X756857Y307750D02*
X757357D01*
X673758Y347120D02*
Y358758D01*
X674534Y326659D02*
X678930D01*
X673758Y327435D02*
X674534Y326659D01*
X584594Y505180D02*
X594874Y494900D01*
X297250Y446000D02*
X300550D01*
X584594Y505180D02*
Y518047D01*
X599048Y532500D01*
X719951D01*
X597891Y537283D02*
X727166D01*
X301250Y446700D02*
Y460036D01*
X503490Y531429D02*
X526167Y508751D01*
X472500Y447550D02*
X482500D01*
X569359Y508751D02*
X597891Y537283D01*
X612500Y529750D02*
X669501D01*
X605780Y523030D02*
X612500Y529750D01*
X605780Y521500D02*
Y523030D01*
X622138Y510319D02*
X633250Y499207D01*
Y492323D02*
Y499207D01*
X587797Y395250D02*
Y398793D01*
Y391707D02*
Y395250D01*
X596000Y376608D02*
X596697Y375911D01*
X669501Y529750D02*
X677000Y522251D01*
X667199Y527750D02*
X673750Y521199D01*
X644746Y527750D02*
X667199D01*
X638496Y521500D02*
X644746Y527750D01*
X677000Y519250D02*
Y522251D01*
X716979Y525729D02*
X719951D01*
X701750Y510500D02*
X716979Y525729D01*
X685750Y510500D02*
X701750D01*
X677000Y519250D02*
X685750Y510500D01*
X673750Y515750D02*
Y521199D01*
X681500Y508000D02*
X708993D01*
X719951Y518958D01*
X673750Y515750D02*
X681500Y508000D01*
X643949Y499413D02*
X654854Y510319D01*
X643949Y483700D02*
Y499413D01*
X323750Y447414D02*
Y450000D01*
Y447414D02*
X325164Y446000D01*
X323750Y454593D02*
X323750Y450000D01*
X325164Y446000D02*
X333250D01*
X321750Y443000D02*
Y455422D01*
X322335Y436000D02*
X333250D01*
X321750Y443000D02*
X323750Y441000D01*
X333250D01*
X321750Y455422D02*
X325328Y459000D01*
X323750Y454593D02*
X326157Y457000D01*
X441365Y379295D02*
Y379984D01*
X564898Y354195D02*
X567453Y356750D01*
X568000D01*
X333086Y446164D02*
X333250Y446000D01*
X346684Y371934D02*
Y375934D01*
X344700Y369950D02*
X346684Y371934D01*
X346665Y375954D02*
Y378335D01*
X344000Y381000D02*
X346665Y378335D01*
X333250Y381000D02*
X344000D01*
X346665Y375954D02*
X346684Y375934D01*
X312000Y384000D02*
X319000Y391000D01*
X312000Y375000D02*
Y384000D01*
Y375000D02*
X317050Y369950D01*
X596697Y375911D02*
X600062D01*
X600497Y375475D01*
X616685Y507121D02*
Y521500D01*
X564026Y382500D02*
X564813D01*
X568813Y378500D01*
X373000Y379990D02*
Y385000D01*
Y379990D02*
X373766Y379224D01*
X380051D01*
X320250Y403000D02*
Y428739D01*
X322511Y431000D01*
X333250D01*
X343750Y403000D02*
X357000Y389750D01*
X409665D01*
X410251Y389164D01*
Y379518D02*
Y389164D01*
X319750Y360950D02*
X329250D01*
X616685Y507121D02*
X621512Y502294D01*
X492250Y446951D02*
X492500Y446701D01*
X508201Y433451D02*
X508250Y433500D01*
X495750Y433451D02*
X508201D01*
X778500Y428700D02*
X778900D01*
X756000Y430000D02*
X758276Y432276D01*
X764374D01*
X756000Y425250D02*
Y430000D01*
X746819Y416069D02*
X756000Y425250D01*
X739750Y416069D02*
X746819D01*
X748626Y407519D02*
X760582Y419475D01*
X778900D01*
X748626Y391724D02*
Y407519D01*
X389500Y441500D02*
Y448500D01*
X468000Y441500D02*
X470000Y439500D01*
X468000Y441500D02*
Y449250D01*
X470000Y439500D02*
X472500D01*
X453000Y432450D02*
X454251Y431199D01*
X463250D01*
X492250Y446951D02*
Y446964D01*
X491664Y447550D02*
X492250Y446964D01*
X482500Y447550D02*
X491664D01*
X472500Y439500D02*
Y442950D01*
Y436550D02*
Y439500D01*
X482500Y437301D02*
Y442950D01*
X453000Y440000D02*
Y442950D01*
Y437050D02*
Y440000D01*
X448750Y441250D02*
X450000Y440000D01*
X453000D01*
X463250Y437301D02*
Y442950D01*
X442699Y432250D02*
X444000Y430949D01*
X434000Y432250D02*
X442699D01*
X434000Y439900D02*
Y442950D01*
Y436850D02*
Y439900D01*
X428750Y441750D02*
Y450000D01*
Y441750D02*
X430600Y439900D01*
X434000D01*
X444000Y437051D02*
Y442950D01*
X340250Y427500D02*
Y450157D01*
X414250Y428000D02*
X418000Y424250D01*
X414250Y428000D02*
Y432250D01*
X423652Y430949D02*
X423750D01*
X422350Y432250D02*
X423652Y430949D01*
X414250Y432250D02*
X422350D01*
X423750Y437051D02*
Y442950D01*
X379551Y430699D02*
X384500D01*
X378000Y432250D02*
X379551Y430699D01*
X374000Y432250D02*
X378000D01*
X373500Y426000D02*
Y431750D01*
X374000Y432250D01*
X360699D02*
X361750Y431199D01*
X351000Y432250D02*
X360699D01*
X340250Y421000D02*
X342250Y423000D01*
Y449328D01*
X333250Y421000D02*
X340250D01*
X344250Y420028D02*
Y448500D01*
X340222Y416000D02*
X344250Y420028D01*
X348025Y439775D02*
X351000D01*
X346275Y438025D02*
X348025Y439775D01*
X346275Y414275D02*
Y438025D01*
X343000Y411000D02*
X346275Y414275D01*
X394500Y440000D02*
Y442950D01*
Y436850D02*
Y440000D01*
X389500Y441500D02*
X391000Y440000D01*
X394500D01*
X404500Y437051D02*
Y442950D01*
X333250Y416000D02*
X340222D01*
X374000Y439775D02*
Y442700D01*
Y436850D02*
Y439775D01*
X367250Y442750D02*
Y448750D01*
Y442750D02*
X370225Y439775D01*
X374000D01*
Y447300D02*
X384500D01*
X384250Y442700D02*
X384500Y442450D01*
Y436801D02*
Y442450D01*
X351000Y439775D02*
Y442700D01*
Y436850D02*
Y439775D01*
X333250Y411000D02*
X343000D01*
X350626Y420276D02*
X351142Y419760D01*
Y411250D02*
Y419760D01*
X348750Y422152D02*
X350626Y420276D01*
X291969Y376531D02*
X297519D01*
X291250Y386000D02*
X297250D01*
X290000Y384750D02*
X291250Y386000D01*
X297519Y376531D02*
X300750Y373300D01*
X291950D02*
X294250D01*
X317050Y369950D02*
X319750D01*
X324000Y383500D02*
X326750Y386250D01*
X324000Y375200D02*
Y383500D01*
Y375200D02*
X329250Y369950D01*
X333000Y386250D02*
X333250Y386000D01*
X326750Y386250D02*
X333000D01*
X329250Y365550D02*
Y369950D01*
X319000Y391000D02*
X333250D01*
X319750Y365550D02*
Y369950D01*
X481250Y406675D02*
X481411Y406514D01*
Y398386D02*
Y406514D01*
X488500Y376500D02*
X489200Y377200D01*
Y388750D01*
X921000Y225000D02*
G03*
X927229Y230989I120J6109D01*
G01*
X230500Y238216D02*
G03*
X243750Y225000I13233J17D01*
G01*
X243310Y541500D02*
G03*
X230500Y528500I95J-12905D01*
G01*
X927250D02*
G03*
X914750Y541500I-12750J250D01*
G01*
X243750Y225000D02*
X921000Y225000D01*
X927250Y230989D02*
X927250Y528500D01*
X230500Y238216D02*
X230500Y528500D01*
X243310Y541500D02*
X914750Y541500D01*
D17*
X253346Y492665D02*
X254196Y491814D01*
X261200Y470250D02*
Y483109D01*
X252495Y491814D02*
X261200Y483109D01*
X252495Y491814D02*
X253346Y492665D01*
X249057Y488376D02*
X252495Y491814D01*
X249057Y313250D02*
Y488376D01*
X573508Y453414D02*
X591344Y471250D01*
X530390Y455214D02*
X531750Y456573D01*
X511500Y450537D02*
X516177Y455214D01*
X530390D01*
X596047Y471250D02*
X600750D01*
X591344D02*
X596047D01*
X516922Y453414D02*
X573508D01*
X513874Y450365D02*
X516922Y453414D01*
X747833Y446500D02*
X747833Y446500D01*
X755312D01*
X269500Y308160D02*
X282660D01*
X249057Y313250D02*
X254147Y308160D01*
X269500D01*
X282660D02*
X286750Y312250D01*
X289750Y364000D02*
Y364200D01*
X294250Y368700D01*
X505800Y412500D02*
X511500D01*
X485400Y408850D02*
X485750Y408500D01*
X485385Y408850D02*
X485400D01*
X483659Y410575D02*
X485385Y408850D01*
X469325Y410575D02*
X483659D01*
X485750Y405000D02*
Y408500D01*
X501200Y418050D02*
Y422000D01*
X489089Y405939D02*
X501200Y418050D01*
X489089Y398386D02*
Y405939D01*
X489571Y392980D02*
X493800Y388750D01*
X486529Y392980D02*
X489571D01*
X495529Y422936D02*
X499543Y426950D01*
X494383Y422936D02*
X495529D01*
X499543Y426950D02*
X510246D01*
X732000Y465750D02*
Y535136D01*
X531750Y456573D02*
Y471750D01*
X518750Y484750D02*
X531750Y471750D01*
X517500Y522256D02*
Y527200D01*
Y522256D02*
X529105Y510651D01*
X513874Y430578D02*
Y450365D01*
X511500Y430750D02*
Y450537D01*
X529105Y510651D02*
X568573D01*
X505800Y422000D02*
X505800Y422000D01*
X512327D01*
X496500Y377500D02*
Y397917D01*
X267193Y502193D02*
X276000Y511000D01*
X258250Y502250D02*
X267136D01*
X267193Y502193D01*
X276000Y511000D02*
X276625D01*
X286750Y312250D02*
Y354441D01*
X297253Y364943D01*
X300281D01*
X300750Y365412D01*
Y368700D01*
X737500Y487250D02*
Y503500D01*
Y487250D02*
X739955Y484795D01*
X762082D01*
X755046Y469820D02*
Y470768D01*
X753546Y472268D02*
X755046Y470768D01*
X752598Y472268D02*
X753546D01*
X752116Y472750D02*
X752598Y472268D01*
X746301Y472750D02*
X752116D01*
X748000Y458488D02*
Y465750D01*
Y458488D02*
X748100Y458388D01*
X754112D02*
X755250Y457250D01*
X748100Y458388D02*
X754112D01*
X747833Y458121D02*
X748100Y458388D01*
X747833Y446500D02*
Y458121D01*
X727953Y539183D02*
X732000Y535136D01*
X568573Y510651D02*
X597104Y539183D01*
X506105Y502395D02*
X518750Y489750D01*
X506105Y502395D02*
Y510319D01*
X493974Y428751D02*
X493976Y428750D01*
X509500D01*
X518750Y484750D02*
Y489750D01*
X509500Y428750D02*
X511500Y430750D01*
X493312Y428751D02*
X493974D01*
X491648Y427087D02*
X493312Y428751D01*
X491648Y421614D02*
Y427087D01*
X683313Y503500D02*
X716979D01*
X671850Y514963D02*
X683313Y503500D01*
X671850Y514963D02*
Y515150D01*
X669000Y518000D02*
X671850Y515150D01*
X597104Y539183D02*
X727953D01*
X600750Y471250D02*
X605780Y476280D01*
Y494900D01*
X510246Y426950D02*
X513874Y430578D01*
X494207Y422760D02*
X494383Y422936D01*
X494207Y421614D02*
Y422760D01*
X491648Y402948D02*
X501200Y412500D01*
X491648Y398386D02*
Y402948D01*
X384844Y422594D02*
X386950Y424700D01*
X384844Y401094D02*
Y422594D01*
X382250Y398500D02*
X384844Y401094D01*
X389250Y427000D02*
Y439063D01*
X386986Y424736D02*
X389250Y427000D01*
X599449Y232652D02*
Y232750D01*
X598077Y231280D02*
X599449Y232652D01*
X597979Y231280D02*
X598077D01*
X597149Y230450D02*
X597979Y231280D01*
X591750Y230450D02*
X597149D01*
X602071Y298277D02*
X611544Y307750D01*
X602071Y252321D02*
Y298277D01*
X591750Y242000D02*
X602071Y252321D01*
X591750Y235050D02*
Y242000D01*
X387600Y440713D02*
X389250Y439063D01*
X387600Y440713D02*
Y444200D01*
X384500Y447300D02*
X387600Y444200D01*
X370000Y398500D02*
X382250D01*
X469250Y410500D02*
Y414200D01*
Y407550D02*
Y410500D01*
X469325Y410575D01*
X483970Y403221D02*
X485750Y405000D01*
X483970Y398386D02*
Y403221D01*
X477300Y402950D02*
X478809Y401440D01*
Y398429D02*
Y401440D01*
Y398429D02*
X478852Y398386D01*
X469250Y402950D02*
X477300D01*
X486529Y392980D02*
Y398386D01*
X482300Y388750D02*
X486529Y392980D01*
X474750Y376750D02*
Y382750D01*
X474500Y376500D02*
X474750Y376750D01*
Y382750D02*
X477700Y385700D01*
Y388750D01*
Y392200D02*
X478852Y393352D01*
X477700Y388750D02*
Y392200D01*
X478852Y393352D02*
Y398386D01*
X496031D02*
X496500Y397917D01*
X494207Y398386D02*
X496031D01*
D18*
X289000Y405100D02*
D03*
Y400500D02*
D03*
X591750Y230450D02*
D03*
Y235050D02*
D03*
X616685Y365050D02*
D03*
Y360450D02*
D03*
X616797Y379621D02*
D03*
Y375021D02*
D03*
X645250Y363840D02*
D03*
Y368440D02*
D03*
X636047Y363354D02*
D03*
Y367954D02*
D03*
X625797Y379525D02*
D03*
Y374925D02*
D03*
Y368025D02*
D03*
Y363425D02*
D03*
X645047Y379800D02*
D03*
Y375200D02*
D03*
X319750Y369950D02*
D03*
Y374550D02*
D03*
X329250Y369950D02*
D03*
Y374550D02*
D03*
X340222Y369700D02*
D03*
Y374300D02*
D03*
X294250Y368700D02*
D03*
Y373300D02*
D03*
X300750Y368700D02*
D03*
Y373300D02*
D03*
X319750Y360950D02*
D03*
Y365550D02*
D03*
X329250Y360950D02*
D03*
Y365550D02*
D03*
X340222Y360700D02*
D03*
Y365300D02*
D03*
X469250Y407550D02*
D03*
Y402950D02*
D03*
Y418800D02*
D03*
Y414200D02*
D03*
X362500Y447300D02*
D03*
Y442700D02*
D03*
X384500Y447300D02*
D03*
Y442700D02*
D03*
X404500Y447550D02*
D03*
Y442950D02*
D03*
X394500Y447550D02*
D03*
Y442950D02*
D03*
X351000Y447300D02*
D03*
Y442700D02*
D03*
Y436850D02*
D03*
Y432250D02*
D03*
X374000Y447300D02*
D03*
Y442700D02*
D03*
Y436850D02*
D03*
Y432250D02*
D03*
X324500Y289950D02*
D03*
Y294550D02*
D03*
X423750Y447550D02*
D03*
Y442950D02*
D03*
X444000Y447550D02*
D03*
Y442950D02*
D03*
X463250Y447550D02*
D03*
Y442950D02*
D03*
X414250Y447550D02*
D03*
Y442950D02*
D03*
Y436850D02*
D03*
Y432250D02*
D03*
X434000Y447550D02*
D03*
Y442950D02*
D03*
Y436850D02*
D03*
Y432250D02*
D03*
X453000Y447550D02*
D03*
Y442950D02*
D03*
Y437050D02*
D03*
Y432450D02*
D03*
X472500Y447550D02*
D03*
Y442950D02*
D03*
Y436550D02*
D03*
Y431950D02*
D03*
X482500Y447550D02*
D03*
Y442950D02*
D03*
X394500Y436850D02*
D03*
Y432250D02*
D03*
D19*
X333250Y446000D02*
D03*
Y441000D02*
D03*
Y436000D02*
D03*
Y431000D02*
D03*
Y426000D02*
D03*
Y421000D02*
D03*
Y416000D02*
D03*
Y411000D02*
D03*
Y406000D02*
D03*
Y401000D02*
D03*
Y396000D02*
D03*
Y391000D02*
D03*
Y386000D02*
D03*
Y381000D02*
D03*
X297250D02*
D03*
Y386000D02*
D03*
Y391000D02*
D03*
Y396000D02*
D03*
Y401000D02*
D03*
Y406000D02*
D03*
Y411000D02*
D03*
Y416000D02*
D03*
Y421000D02*
D03*
Y426000D02*
D03*
Y431000D02*
D03*
Y436000D02*
D03*
Y441000D02*
D03*
Y446000D02*
D03*
D20*
X693028Y394031D02*
D03*
X543250Y232848D02*
D03*
X652500Y375250D02*
D03*
X885750Y432000D02*
D03*
X596047Y471250D02*
D03*
X755312Y446500D02*
D03*
X864061Y309000D02*
D03*
X872750Y286250D02*
D03*
X282250Y229250D02*
D03*
X264750D02*
D03*
X558696Y375750D02*
D03*
X535523Y376905D02*
D03*
X731250Y457000D02*
D03*
X774000Y474500D02*
D03*
D21*
X846713Y527500D02*
D03*
X873287D02*
D03*
X798213Y527750D02*
D03*
X824787D02*
D03*
X842791Y304549D02*
D03*
X816216D02*
D03*
D22*
X630726Y419819D02*
D03*
X596774Y419069D02*
D03*
X517774Y374931D02*
D03*
X563024Y418819D02*
D03*
D23*
X639703Y396000D02*
D03*
X621750D02*
D03*
X605750Y395250D02*
D03*
X587797D02*
D03*
X508797Y398750D02*
D03*
X526750D02*
D03*
X572000Y395000D02*
D03*
X554047D02*
D03*
D24*
X683972Y233500D02*
D03*
X693028D02*
D03*
X576514Y233000D02*
D03*
X567459D02*
D03*
X629514Y233250D02*
D03*
X620459D02*
D03*
X745964Y233750D02*
D03*
X736909D02*
D03*
X512359Y233250D02*
D03*
X521414D02*
D03*
X458309Y232250D02*
D03*
X467364D02*
D03*
X404259Y231500D02*
D03*
X413314D02*
D03*
X350209D02*
D03*
X359264D02*
D03*
D25*
X441365Y419846D02*
D03*
X457113D02*
D03*
Y379295D02*
D03*
X441365D02*
D03*
X410251Y420069D02*
D03*
X425999D02*
D03*
Y379518D02*
D03*
X410251D02*
D03*
X350626Y420276D02*
D03*
X366374D02*
D03*
Y379724D02*
D03*
X350626D02*
D03*
X380051Y419776D02*
D03*
X395799D02*
D03*
Y379224D02*
D03*
X380051D02*
D03*
X764374Y432276D02*
D03*
X748626D02*
D03*
Y391724D02*
D03*
X764374D02*
D03*
X665876Y401024D02*
D03*
X681624D02*
D03*
Y441576D02*
D03*
X665876D02*
D03*
D26*
X599449Y232750D02*
D03*
X605551D02*
D03*
X603548Y363500D02*
D03*
X597446D02*
D03*
X527949Y430500D02*
D03*
X534051D02*
D03*
X527949Y420047D02*
D03*
X534051D02*
D03*
X777449Y447250D02*
D03*
X783551D02*
D03*
X740199Y472750D02*
D03*
X746301D02*
D03*
D27*
X476293Y398386D02*
D03*
X478852D02*
D03*
X481411D02*
D03*
X483970D02*
D03*
X486529D02*
D03*
X489089D02*
D03*
X491648D02*
D03*
X494207D02*
D03*
X476293Y421614D02*
D03*
X478852D02*
D03*
X481411D02*
D03*
X483970D02*
D03*
X486529D02*
D03*
X489089D02*
D03*
X491648D02*
D03*
X494207D02*
D03*
D28*
X553724Y382750D02*
D03*
X544276D02*
D03*
X544026Y370250D02*
D03*
X553474D02*
D03*
X573474Y382500D02*
D03*
X564026D02*
D03*
X564276Y370250D02*
D03*
X573724D02*
D03*
D29*
X762082Y534205D02*
D03*
Y484795D02*
D03*
D30*
X803984Y305000D02*
D03*
X792763D02*
D03*
D31*
X545200Y391760D02*
D03*
Y395500D02*
D03*
Y399240D02*
D03*
X536800D02*
D03*
Y391760D02*
D03*
X600497Y371735D02*
D03*
Y375475D02*
D03*
Y379215D02*
D03*
X592097D02*
D03*
Y371735D02*
D03*
D32*
X605747Y382548D02*
D03*
X610347D02*
D03*
X724551Y518958D02*
D03*
X719951D02*
D03*
X724551Y525729D02*
D03*
X719951D02*
D03*
X724551Y532500D02*
D03*
X719951D02*
D03*
X522301Y424250D02*
D03*
X517701D02*
D03*
X545550Y428000D02*
D03*
X540950D02*
D03*
X545550Y419250D02*
D03*
X540950D02*
D03*
X541200Y410500D02*
D03*
X545800D02*
D03*
X522300Y430500D02*
D03*
X517700D02*
D03*
X545300Y437250D02*
D03*
X540700D02*
D03*
X516950Y416750D02*
D03*
X521550D02*
D03*
Y410500D02*
D03*
X516950D02*
D03*
X482300Y388750D02*
D03*
X477700D02*
D03*
X501200Y412500D02*
D03*
X505800D02*
D03*
X501200Y422000D02*
D03*
X505800D02*
D03*
X489200Y388750D02*
D03*
X493800D02*
D03*
D33*
X635797Y381276D02*
D03*
Y375174D02*
D03*
X482500Y431199D02*
D03*
Y437301D02*
D03*
X463250Y431199D02*
D03*
Y437301D02*
D03*
X444000Y430949D02*
D03*
Y437051D02*
D03*
X423750Y430949D02*
D03*
Y437051D02*
D03*
X404500D02*
D03*
Y430949D02*
D03*
X384500Y436801D02*
D03*
Y430699D02*
D03*
X362500Y437301D02*
D03*
Y431199D02*
D03*
D34*
X707500Y435000D02*
D03*
X718500D02*
D03*
X796250Y261500D02*
D03*
X785250D02*
D03*
X699250Y370000D02*
D03*
X710250D02*
D03*
X816250Y285500D02*
D03*
X805250D02*
D03*
X425250Y366793D02*
D03*
X414250D02*
D03*
X456364Y366821D02*
D03*
X445364D02*
D03*
X395050Y366750D02*
D03*
X384050D02*
D03*
X365500D02*
D03*
X354500D02*
D03*
D35*
X778900Y419475D02*
D03*
Y411475D02*
D03*
Y402250D02*
D03*
Y394250D02*
D03*
X739750Y416069D02*
D03*
Y424069D02*
D03*
X778900Y428700D02*
D03*
Y436700D02*
D03*
D36*
X755250Y457250D02*
D03*
X763250D02*
D03*
X739833Y446500D02*
D03*
X747833D02*
D03*
X748100Y458388D02*
D03*
X740100D02*
D03*
X841000Y286250D02*
D03*
X833000D02*
D03*
X755146Y469720D02*
D03*
X763146D02*
D03*
X474500Y376500D02*
D03*
X482500D02*
D03*
X496500D02*
D03*
X488500D02*
D03*
X313250Y456000D02*
D03*
X305250D02*
D03*
D37*
X692750Y414000D02*
D03*
Y425000D02*
D03*
X653750Y416000D02*
D03*
Y427000D02*
D03*
X505000Y445543D02*
D03*
Y434543D02*
D03*
X492500Y434494D02*
D03*
Y445494D02*
D03*
D69*
X530000Y233250D02*
X532528Y235778D01*
Y250445D01*
X522791Y233250D02*
X530000D01*
X740049Y457000D02*
Y472750D01*
X739000Y446500D02*
Y447500D01*
X410375Y410793D02*
Y420069D01*
X380250Y410500D02*
Y419776D01*
X441401Y403321D02*
Y419846D01*
X286500Y269750D02*
X288250Y268000D01*
X286500Y269750D02*
Y303750D01*
X289400Y306650D01*
X331418Y357617D02*
X427383D01*
X332867Y354117D02*
X417217D01*
X693250Y439750D02*
X693500D01*
X698250Y435000D01*
X704500D01*
X359075Y336750D02*
X370000Y347675D01*
X289400Y306650D02*
Y353343D01*
X471651Y353898D02*
X478429Y347120D01*
X431102Y353898D02*
X471651D01*
X427383Y357617D02*
X431102Y353898D01*
X741884Y432276D02*
X748626D01*
X739833Y434327D02*
X741884Y432276D01*
X739833Y434327D02*
Y446500D01*
X713000Y457250D02*
X713250Y457000D01*
X731250D01*
X740049Y448549D02*
Y457000D01*
X731250D02*
X740049D01*
X739000Y447500D02*
X740049Y448549D01*
X792050Y447250D02*
X792300Y447500D01*
X783551Y447250D02*
X792050D01*
X867854Y312793D02*
Y324250D01*
X859610Y304549D02*
X867854Y312793D01*
X842791Y304549D02*
X859610D01*
X331000Y339750D02*
Y352250D01*
X318250Y327000D02*
X331000Y339750D01*
X310750Y327000D02*
X318250D01*
X448722Y234778D02*
Y249445D01*
X324638Y274638D02*
Y289985D01*
X394722Y234028D02*
Y248695D01*
X318000Y268000D02*
X324638Y274638D01*
X458309Y232250D02*
X458459D01*
X451250D02*
X458309D01*
X404259Y231500D02*
X404459D01*
X397250D02*
X404259D01*
X310791Y268000D02*
X318000D01*
X448722Y234778D02*
X451250Y232250D01*
X394722Y234028D02*
X397250Y231500D01*
X343000D02*
X350209D01*
X340472Y234028D02*
X343000Y231500D01*
X340472Y234028D02*
Y248695D01*
X436401Y366821D02*
X445364D01*
X457113Y367570D02*
Y379295D01*
X456364Y366821D02*
X457113Y367570D01*
X324500Y350700D02*
X331418Y357617D01*
X331000Y352250D02*
X332867Y354117D01*
X417217D02*
X424214Y347120D01*
X302293Y362293D02*
X307000Y367000D01*
X298350Y362293D02*
X302293D01*
X289400Y353343D02*
X298350Y362293D01*
X288250Y268000D02*
X300750D01*
X324500Y341250D02*
Y350700D01*
X319207Y335957D02*
X324500Y341250D01*
X300750Y335957D02*
X319207D01*
X337000Y336750D02*
X359075D01*
X324500Y324250D02*
X337000Y336750D01*
X324500Y309000D02*
Y324250D01*
X300750Y335957D02*
Y341750D01*
Y327000D02*
Y335957D01*
X320500Y305000D02*
X324500Y309000D01*
X300750Y305000D02*
X320500D01*
X300750D02*
Y312250D01*
Y297500D02*
Y305000D01*
X310750Y341750D02*
Y356500D01*
Y312250D02*
Y327000D01*
Y282750D02*
Y297500D01*
X300750Y268000D02*
Y282750D01*
X425250Y366793D02*
X425999Y367542D01*
Y379518D01*
X395050Y366750D02*
X395799Y367499D01*
Y379224D01*
X414000Y367043D02*
X414250Y366793D01*
X405875Y367043D02*
X414000D01*
X383800Y367000D02*
X384050Y366750D01*
X375000Y367000D02*
X383800D01*
D70*
X544950Y399240D02*
Y404250D01*
X469250Y418800D02*
Y425500D01*
X726972Y235028D02*
Y249750D01*
X703250Y235250D02*
Y249500D01*
X557222Y234278D02*
Y249000D01*
X352500Y364750D02*
X353411Y363840D01*
X553886Y382734D02*
Y394839D01*
X655250Y361299D02*
Y372500D01*
X652500Y375250D02*
X655250Y372500D01*
X641071Y347120D02*
X655250Y361299D01*
X286500Y229250D02*
X290250Y233000D01*
X282250Y229250D02*
X286500D01*
X519429Y448004D02*
Y448815D01*
X517700Y446274D02*
X519429Y448004D01*
X517700Y430500D02*
Y446274D01*
X537500Y384750D02*
Y391760D01*
X488750Y460250D02*
X492000Y463500D01*
X427692Y460250D02*
X488750D01*
X431357Y463250D02*
X468536D01*
X449249Y469081D02*
X449901Y468429D01*
X454750Y474583D02*
Y498250D01*
X449249Y469081D02*
X454750Y474583D01*
X448750Y468429D02*
X449901D01*
X468536Y463250D02*
X473536Y468250D01*
X424133Y463810D02*
X427692Y460250D01*
X425857Y468750D02*
X431357Y463250D01*
X395000Y468750D02*
X425857Y468750D01*
X305250Y457000D02*
X312060Y463810D01*
X424133D01*
X385500Y468750D02*
X395000D01*
X305250Y456000D02*
Y457000D01*
Y412000D02*
Y456000D01*
X473536Y468250D02*
X510914D01*
X467264Y232500D02*
X476250D01*
X575332Y368642D02*
X581614D01*
X573724Y370250D02*
X575332Y368642D01*
X574474Y383500D02*
X581436D01*
X573474Y382500D02*
X574474Y383500D01*
X498500Y378500D02*
X501594Y381594D01*
Y391500D01*
X352500Y364750D02*
X354500Y366750D01*
X346665Y363840D02*
X353411D01*
X718500Y417500D02*
Y435000D01*
Y417500D02*
X719000Y417000D01*
X673722Y234778D02*
Y248731D01*
X546084Y535750D02*
X580774D01*
X545861D02*
X546084D01*
X544334Y537500D02*
X546084Y535750D01*
X355000Y537500D02*
X544334D01*
X651000Y271453D02*
Y337192D01*
X491250Y363750D02*
X496500Y369000D01*
X487500Y363750D02*
X491250D01*
X496500Y369000D02*
Y376500D01*
X763146Y483523D02*
X763250Y483627D01*
X763146Y469720D02*
Y483523D01*
X763250Y457250D02*
Y469720D01*
X769220D01*
X763146D02*
X763250D01*
X769220D02*
X774000Y474500D01*
X365500Y408812D02*
X366374Y409686D01*
X351250Y267250D02*
X370500Y248000D01*
X469250Y425500D02*
X469500Y425250D01*
X502472Y234528D02*
Y249250D01*
X476929Y360500D02*
X490750Y346679D01*
X436358Y360500D02*
X476929D01*
X431901Y364957D02*
X436358Y360500D01*
X640250Y235000D02*
Y249250D01*
X457113Y407113D02*
Y419846D01*
X440000Y390000D02*
X457113Y407113D01*
X413314Y231500D02*
X422250D01*
X413264D02*
X413314D01*
X454750Y498250D02*
X458250Y501750D01*
X476093D01*
X646500Y408800D02*
Y468500D01*
Y408800D02*
X654276Y401024D01*
X510914Y468250D02*
X518414Y460750D01*
X492000Y463500D02*
X498750D01*
X586750Y234750D02*
Y249000D01*
X576514Y233000D02*
X585000D01*
X576014D02*
X576514D01*
X764374Y384376D02*
X764500Y384250D01*
X764374Y384376D02*
Y391724D01*
X767006Y394250D02*
X778900D01*
X766630Y393874D02*
X767006Y394250D01*
X348203Y530703D02*
X355000Y537500D01*
X431901Y364957D02*
Y396352D01*
X425999Y402254D02*
X431901Y396352D01*
X425999Y402254D02*
Y420069D01*
X517700Y430500D02*
X517701Y430499D01*
Y424250D02*
Y430499D01*
X589250Y362000D02*
X592097Y364847D01*
Y371735D01*
X762082Y484795D02*
X763250Y483627D01*
X641071Y347120D02*
X651000Y337192D01*
Y271453D02*
X673722Y248731D01*
X476093Y501750D02*
X478841Y504498D01*
Y521500D01*
X313250Y445750D02*
Y456000D01*
Y406000D02*
Y445750D01*
X553886Y394839D02*
X554047Y395000D01*
Y382573D02*
X554099Y382625D01*
X508797Y398750D02*
X509047Y398500D01*
X516500D01*
X654276Y401024D02*
X665876D01*
X639703Y396000D02*
X650700D01*
X348203Y510319D02*
Y530703D01*
X490750Y261060D02*
Y346679D01*
X474500Y370000D02*
Y376500D01*
Y370000D02*
X480750Y363750D01*
X487500D01*
X305250Y412000D02*
X307500Y409750D01*
X303750Y406000D02*
X307500Y409750D01*
X554099Y382625D02*
X563901D01*
X553886Y382734D02*
X554047Y382573D01*
X671250Y454858D02*
X671500Y455108D01*
Y471500D01*
X544950Y399240D02*
X545200D01*
X605750Y392183D02*
Y395250D01*
X604388Y390821D02*
X605750Y392183D01*
X601669Y390821D02*
X604388D01*
X600497Y389649D02*
X601669Y390821D01*
X600497Y379215D02*
Y389649D01*
X605750Y395250D02*
X606500Y396000D01*
X614250D01*
X394825Y420750D02*
X395799Y419776D01*
X389000Y420750D02*
X394825D01*
X351250Y267250D02*
Y316657D01*
X340472Y327435D02*
X351250Y316657D01*
X505000Y445543D02*
Y456250D01*
X497500Y378500D02*
X498500D01*
X496500Y377500D02*
X497500Y378500D01*
X496500Y376500D02*
Y377500D01*
X522300Y430500D02*
X527949D01*
X487259Y363509D02*
X487500Y363750D01*
X487259Y359000D02*
Y363509D01*
Y359000D02*
X489564Y356695D01*
X535245D01*
X537750Y359200D01*
Y369078D01*
X538922Y370250D01*
X544026D01*
X662750Y427000D02*
X665876Y430126D01*
Y441576D01*
X653750Y427000D02*
X662750D01*
X681624Y401024D02*
Y410376D01*
X676000Y416000D02*
X681624Y410376D01*
X653750Y416000D02*
X676000D01*
X545250Y362000D02*
X589250D01*
X597500Y353750D01*
X764374Y391724D02*
Y392413D01*
X765835Y393874D01*
X766630D01*
X611544Y238743D02*
X617036Y233250D01*
X620459D01*
X606421Y233620D02*
X611544Y238743D01*
X606323Y233620D02*
X606421D01*
X605551Y232848D02*
X606323Y233620D01*
X605551Y232750D02*
Y232848D01*
X611544Y238743D02*
Y248695D01*
X573474Y370250D02*
X573724D01*
X297250Y406000D02*
X303750D01*
X308250Y401000D02*
X313250Y406000D01*
X297250Y401000D02*
X308250D01*
X673722Y248731D02*
X673758Y248695D01*
X597500Y341479D02*
Y353750D01*
Y341479D02*
X611544Y327435D01*
X544026Y363224D02*
X545250Y362000D01*
X544026Y363224D02*
Y370250D01*
X544276Y370500D01*
Y382750D01*
X539250Y383000D02*
X544026D01*
X544276Y382750D01*
X537500Y384750D02*
X539250Y383000D01*
X536800Y391760D02*
X537500D01*
X745964Y233750D02*
X754750D01*
X745764D02*
X745964D01*
X756500Y235500D02*
Y249750D01*
X365906Y408406D02*
X366374D01*
X365500Y408812D02*
X365906Y408406D01*
X366374Y409686D02*
Y420276D01*
X471429Y398429D02*
X475884D01*
X470000Y397000D02*
X471429Y398429D01*
X470000Y391750D02*
Y397000D01*
X573165Y382500D02*
X573474D01*
X572000Y383665D02*
X573165Y382500D01*
X572000Y383665D02*
Y395000D01*
X553547Y395500D02*
X554047Y395000D01*
X545200Y395500D02*
X553547D01*
X563901Y382625D02*
X564026Y382500D01*
X365500Y366750D02*
X366374Y367624D01*
Y379724D01*
X490750Y261060D02*
X503115Y248695D01*
X433584Y337750D02*
X468114D01*
X478429Y327435D01*
X424214Y347120D02*
X433584Y337750D01*
X340163Y297663D02*
Y307441D01*
X337050Y294550D02*
X340163Y297663D01*
X324500Y294550D02*
X337050D01*
X340163Y307441D02*
X340472Y307750D01*
X458309Y259691D02*
X469250Y248750D01*
X458309Y259691D02*
Y318027D01*
X448901Y327435D02*
X458309Y318027D01*
X469250Y248750D02*
X477750D01*
X478000Y248500D01*
X416555Y248695D02*
X424214D01*
X384750Y280500D02*
X416555Y248695D01*
X384750Y280500D02*
Y317498D01*
X394687Y327435D01*
X693028Y233500D02*
X701500D01*
X692514D02*
X693028D01*
X482500Y376500D02*
X488500D01*
X585000Y233000D02*
X586750Y234750D01*
X558500Y233000D02*
X566959D01*
X557222Y234278D02*
X558500Y233000D01*
X701500Y233500D02*
X703250Y235250D01*
X675000Y233500D02*
X683459D01*
X673722Y234778D02*
X675000Y233500D01*
X370000Y233250D02*
Y247500D01*
X368250Y231500D02*
X370000Y233250D01*
X359264Y231500D02*
X368250D01*
X424000Y233250D02*
Y247500D01*
X422250Y231500D02*
X424000Y233250D01*
X478000Y234250D02*
Y248500D01*
X476250Y232500D02*
X478000Y234250D01*
X503750Y233250D02*
X512209D01*
X502472Y234528D02*
X503750Y233250D01*
X754750Y233750D02*
X756500Y235500D01*
X728250Y233750D02*
X736709D01*
X726972Y235028D02*
X728250Y233750D01*
X629514Y233250D02*
X638500D01*
X640250Y235000D01*
D71*
X527000Y461000D02*
Y472429D01*
X543250Y232848D02*
Y336513D01*
Y232750D02*
Y232848D01*
X532643Y347120D02*
X543250Y336513D01*
X246000Y275000D02*
Y491750D01*
Y275000D02*
X249500Y271500D01*
X281000D01*
X286150Y460052D02*
Y468150D01*
Y460052D02*
X286250Y459952D01*
Y439250D02*
Y459952D01*
X290250Y442500D02*
Y461750D01*
X246000Y491750D02*
X251500Y497250D01*
X611867Y370092D02*
X616797Y365162D01*
X610500Y370092D02*
X611867D01*
X632250Y351750D02*
X638000Y357500D01*
X625250Y351750D02*
X632250D01*
X619500Y357500D02*
X625250Y351750D01*
X638000Y357500D02*
X638910D01*
X329250Y374550D02*
X340222D01*
X638859Y354750D02*
X643250D01*
X611544Y327435D02*
X638859Y354750D01*
X609000Y357500D02*
X619500D01*
X630887Y357750D02*
Y358336D01*
X635976Y363425D01*
X630887Y357750D02*
Y358336D01*
X625797Y363425D02*
X630887Y358336D01*
X604720Y361780D02*
X609000Y357500D01*
X638910D02*
X645250Y363840D01*
X643250Y354750D02*
X651000Y362500D01*
X379773Y472150D02*
X382569Y474945D01*
X290150Y472150D02*
X379773D01*
X382569Y474945D02*
X382695D01*
X390500Y482750D01*
X585000Y375750D02*
X588465Y379215D01*
X592097D01*
X293000Y290000D02*
Y348750D01*
X300750Y356500D01*
X286150Y468150D02*
X290150Y472150D01*
X390500Y482750D02*
Y522500D01*
X651000Y362500D02*
Y366921D01*
X649482Y368440D02*
X651000Y366921D01*
X300000Y506250D02*
X321973D01*
X291000Y497250D02*
X300000Y506250D01*
X251500Y497250D02*
X291000D01*
X451253Y520473D02*
X460109Y529329D01*
X451253Y511000D02*
Y520473D01*
X502620Y529329D02*
X525297Y506651D01*
X683485Y443436D02*
Y464208D01*
X598761Y535183D02*
X726296D01*
X515710Y483719D02*
X527000Y472429D01*
X506105Y483719D02*
X515710D01*
X726296Y535183D02*
X727234Y534245D01*
X460109Y529329D02*
X502620D01*
X402900Y534900D02*
X541520D01*
X390500Y522500D02*
X402900Y534900D01*
X541520D02*
X547750Y528670D01*
X604720Y361780D02*
Y362328D01*
X603548Y363500D02*
X604720Y362328D01*
X611867Y370092D02*
X616797Y375021D01*
X605747Y369372D02*
Y378054D01*
X604750Y368375D02*
X605747Y369372D01*
X602321Y368375D02*
X604750D01*
X598716Y364770D02*
X602321Y368375D01*
X598618Y364770D02*
X598716D01*
X597446Y363598D02*
X598618Y364770D01*
X597446Y363500D02*
Y363598D01*
X615230Y378054D02*
X616797Y379621D01*
X605747Y378054D02*
X615230D01*
X492500Y446701D02*
Y455500D01*
X525297Y506651D02*
X570229D01*
X683485Y464208D02*
X727234Y507956D01*
X681624Y441576D02*
X683485Y443436D01*
X681624Y441576D02*
X683485Y439715D01*
Y433265D02*
X691750Y425000D01*
X692750D01*
X650750Y386836D02*
X650914Y387000D01*
X685996D01*
X693028Y394031D01*
Y403500D01*
X625410Y367638D02*
X625797Y368025D01*
X623873Y367638D02*
X625410D01*
X616685Y360450D02*
X623873Y367638D01*
X645250Y368440D02*
X649482D01*
X570229Y506651D02*
X598761Y535183D01*
X286250Y439250D02*
X289500Y436000D01*
X297250D01*
X291750Y441000D02*
X297250D01*
X290250Y442500D02*
X291750Y441000D01*
X344250Y391500D02*
X350626Y385124D01*
Y379724D02*
Y385124D01*
X325500Y498522D02*
X337297Y510319D01*
X325500Y476250D02*
Y498522D01*
X321973Y506250D02*
X326042Y510319D01*
X727234Y507956D02*
Y534245D01*
X521500Y378658D02*
Y401250D01*
X516950Y405800D02*
X521500Y401250D01*
X516950Y405800D02*
Y410500D01*
X517774Y374931D02*
X521500Y378658D01*
X614435Y387750D02*
X620500D01*
X683485Y433265D02*
Y439715D01*
X692750Y414000D02*
X693028Y413722D01*
Y403500D02*
Y413722D01*
X724551Y525729D02*
Y532500D01*
Y518958D02*
Y525729D01*
Y514370D02*
Y518958D01*
X720500Y510319D02*
X724551Y514370D01*
X630726Y419819D02*
X631500Y419045D01*
Y399240D02*
Y419045D01*
X616685Y365050D02*
X616797Y365162D01*
X596774Y419069D02*
X611654D01*
X613750Y416972D01*
Y407550D02*
Y416972D01*
X318000Y380500D02*
X319750Y378750D01*
Y374550D02*
Y378750D01*
X620500Y387750D02*
X621747Y388997D01*
Y395997D01*
X621750Y396000D01*
X531500Y405000D02*
X536250D01*
X540717Y409467D01*
Y410017D01*
X541200Y410500D01*
X635548Y374925D02*
X635797Y375174D01*
X625797Y374925D02*
X635548D01*
X622774Y382548D02*
X625797Y379525D01*
X610347Y382548D02*
X622774D01*
X605747Y378054D02*
Y382548D01*
X645047Y368642D02*
X645250Y368440D01*
X645047Y368642D02*
Y375200D01*
X635976Y363425D02*
X636047Y363354D01*
X635797Y368204D02*
X636047Y367954D01*
X635797Y368204D02*
Y375174D01*
X643571Y381276D02*
X645047Y379800D01*
X635797Y381276D02*
X643571D01*
X326042Y510319D02*
X337297D01*
X492500Y445494D02*
Y446701D01*
X534000Y413000D02*
X534250Y413250D01*
X527750D02*
X534250D01*
X534051Y436051D02*
X535250Y437250D01*
X534051Y430500D02*
Y436051D01*
X535250Y437250D02*
X540700D01*
X524250Y416750D02*
X527750Y413250D01*
X521550Y416750D02*
X524250D01*
X527949Y420047D02*
Y420146D01*
X526777Y421317D02*
X527949Y420146D01*
X526679Y421317D02*
X526777D01*
X524179Y423817D02*
X526679Y421317D01*
X522734Y423817D02*
X524179D01*
X522301Y424250D02*
X522734Y423817D01*
X516950Y410500D02*
Y416750D01*
X526000Y410500D02*
X531500Y405000D01*
X521550Y410500D02*
X526000D01*
X527240Y399240D02*
X536800D01*
X526750Y398750D02*
X527240Y399240D01*
X562593Y419250D02*
X563024Y418819D01*
X545550Y419250D02*
X562593D01*
X545550D02*
X545800Y419000D01*
Y410500D02*
Y419000D01*
X545300Y437250D02*
X545550Y437000D01*
Y428000D02*
Y437000D01*
X540950Y419250D02*
Y428000D01*
X534848Y419250D02*
X540950D01*
X534051Y420047D02*
X534848Y419250D01*
D72*
X846017Y496517D02*
Y506222D01*
X838500Y489000D02*
X846017Y496517D01*
X810000Y489000D02*
X838500D01*
X846017Y506222D02*
X846644Y506848D01*
X803337Y495663D02*
X810000Y489000D01*
X803337Y495663D02*
Y506848D01*
X792763Y287250D02*
X794513Y285500D01*
X792763Y287250D02*
Y305000D01*
X794513Y285500D02*
X805250D01*
X816216Y304549D02*
X816250Y304516D01*
Y285500D02*
Y304516D01*
X803984Y305000D02*
X813992D01*
Y314579D01*
X804321Y324250D02*
X813992Y314579D01*
X771393Y530679D02*
X774322Y527750D01*
X771393Y530679D02*
Y531587D01*
X768775Y534205D02*
X771393Y531587D01*
X762082Y534205D02*
X768775D01*
X774322Y527750D02*
X798213D01*
Y522337D02*
Y522478D01*
Y522337D02*
X803337Y517213D01*
Y506848D02*
Y517213D01*
X873287Y522087D02*
Y527500D01*
X868297Y517097D02*
X873287Y522087D01*
X868297Y506848D02*
Y517097D01*
X846644Y506848D02*
X846713Y506917D01*
Y527500D01*
X824787Y507051D02*
X824990Y506848D01*
X824787Y507051D02*
Y527750D01*
D73*
X269500Y247654D02*
D03*
Y488205D02*
D03*
D74*
X259500Y454858D02*
D03*
X279500D02*
D03*
X259500Y433126D02*
D03*
Y422260D02*
D03*
Y411394D02*
D03*
Y400527D02*
D03*
Y389661D02*
D03*
Y378795D02*
D03*
Y367929D02*
D03*
Y357063D02*
D03*
Y346197D02*
D03*
Y335331D02*
D03*
Y324465D02*
D03*
Y313598D02*
D03*
Y302732D02*
D03*
Y291866D02*
D03*
Y281000D02*
D03*
X269500Y449386D02*
D03*
Y438522D02*
D03*
Y427659D02*
D03*
Y416795D02*
D03*
Y405932D02*
D03*
Y395068D02*
D03*
Y384205D02*
D03*
Y373341D02*
D03*
Y362478D02*
D03*
Y351614D02*
D03*
Y340751D02*
D03*
Y329887D02*
D03*
Y319024D02*
D03*
Y308160D02*
D03*
Y297297D02*
D03*
Y286433D02*
D03*
X279500Y443992D02*
D03*
Y433126D02*
D03*
Y422260D02*
D03*
Y411394D02*
D03*
Y400527D02*
D03*
Y389661D02*
D03*
Y378795D02*
D03*
Y367929D02*
D03*
Y357063D02*
D03*
Y346197D02*
D03*
Y335331D02*
D03*
Y324465D02*
D03*
Y313598D02*
D03*
Y302732D02*
D03*
X259500Y443992D02*
D03*
X279500Y291866D02*
D03*
Y281000D02*
D03*
D75*
X896159Y431882D02*
D03*
X907341Y437335D02*
D03*
X896159Y442787D02*
D03*
X907341Y448240D02*
D03*
X896159Y453693D02*
D03*
X907341Y459146D02*
D03*
X896159Y464598D02*
D03*
X907341Y470051D02*
D03*
X342750Y494900D02*
D03*
X348203Y483719D02*
D03*
X353656Y494900D02*
D03*
X359108Y483719D02*
D03*
X364561Y494900D02*
D03*
X370014Y483719D02*
D03*
X375466Y494900D02*
D03*
X380919Y483719D02*
D03*
Y510319D02*
D03*
X375466Y521500D02*
D03*
X370014Y510319D02*
D03*
X364561Y521500D02*
D03*
X359108Y510319D02*
D03*
X353656Y521500D02*
D03*
X348203Y510319D02*
D03*
X342750Y521500D02*
D03*
X467936Y494900D02*
D03*
X473389Y483719D02*
D03*
X478841Y494900D02*
D03*
X484294Y483719D02*
D03*
X489747Y494900D02*
D03*
X495200Y483719D02*
D03*
X500653Y494900D02*
D03*
X506105Y483719D02*
D03*
Y510319D02*
D03*
X500653Y521500D02*
D03*
X495200Y510319D02*
D03*
X489747Y521500D02*
D03*
X484294Y510319D02*
D03*
X478841Y521500D02*
D03*
X473389Y510319D02*
D03*
X467936Y521500D02*
D03*
X907091Y345051D02*
D03*
X895909Y339598D02*
D03*
X907091Y334146D02*
D03*
X895909Y328693D02*
D03*
X907091Y323240D02*
D03*
X895909Y317787D02*
D03*
X907091Y312335D02*
D03*
X895909Y306882D02*
D03*
D76*
X896159Y475504D02*
D03*
X895909Y350504D02*
D03*
D77*
X901750Y502886D02*
D03*
Y404500D02*
D03*
X408301Y489700D02*
D03*
X309915D02*
D03*
Y521500D02*
D03*
X408301D02*
D03*
X533487Y489700D02*
D03*
X435101D02*
D03*
Y521500D02*
D03*
X533487D02*
D03*
X901500Y279500D02*
D03*
Y377886D02*
D03*
D78*
X841250Y324250D02*
D03*
X830384D02*
D03*
X852077D02*
D03*
X757357Y248695D02*
D03*
X727830D02*
D03*
Y307750D02*
D03*
X757357D02*
D03*
X727830Y327435D02*
D03*
X757357D02*
D03*
X727830Y347120D02*
D03*
X757357D02*
D03*
X641071Y248695D02*
D03*
X611544D02*
D03*
Y307750D02*
D03*
X641071D02*
D03*
X611544Y327435D02*
D03*
X641071D02*
D03*
X611544Y347120D02*
D03*
X641071D02*
D03*
X532643Y248695D02*
D03*
X503115D02*
D03*
Y307750D02*
D03*
X532643D02*
D03*
X503115Y327435D02*
D03*
X532643D02*
D03*
X503115Y347120D02*
D03*
X532643D02*
D03*
X478429Y248695D02*
D03*
X448901D02*
D03*
Y307750D02*
D03*
X478429D02*
D03*
X448901Y327435D02*
D03*
X478429D02*
D03*
X448901Y347120D02*
D03*
X478429D02*
D03*
X424214Y248695D02*
D03*
X394687D02*
D03*
Y307750D02*
D03*
X424214D02*
D03*
X394687Y327435D02*
D03*
X424214D02*
D03*
X394687Y347120D02*
D03*
X424214D02*
D03*
X703286Y248695D02*
D03*
X673758D02*
D03*
Y307750D02*
D03*
X703286D02*
D03*
X673758Y327435D02*
D03*
X703286D02*
D03*
X673758Y347120D02*
D03*
X703286D02*
D03*
X586750Y248695D02*
D03*
X557222D02*
D03*
Y307750D02*
D03*
X586750D02*
D03*
X557222Y327435D02*
D03*
X586750D02*
D03*
X557222Y347120D02*
D03*
X586750D02*
D03*
X370000Y248695D02*
D03*
X340472D02*
D03*
Y307750D02*
D03*
X370000D02*
D03*
X340472Y327435D02*
D03*
X370000D02*
D03*
X340472Y347120D02*
D03*
X370000D02*
D03*
D79*
X867313Y324250D02*
D03*
X804321D02*
D03*
X824990Y506848D02*
D03*
X803337D02*
D03*
X846644D02*
D03*
X868297D02*
D03*
X877000Y250647D02*
D03*
X861000D02*
D03*
X833750Y250895D02*
D03*
X817750D02*
D03*
D80*
X308000Y240250D02*
D03*
X244750Y527750D02*
D03*
X911750Y239613D02*
D03*
X911250Y527250D02*
D03*
D81*
X693181Y490000D02*
D03*
X562000D02*
D03*
Y521500D02*
D03*
X693181D02*
D03*
D82*
X665760Y483700D02*
D03*
X660307Y494900D02*
D03*
X654854Y483700D02*
D03*
X649402Y494900D02*
D03*
X643949Y483700D02*
D03*
X638496Y494900D02*
D03*
X633043Y483700D02*
D03*
X627591Y494900D02*
D03*
X622138Y483700D02*
D03*
X616685Y494900D02*
D03*
X611232Y483700D02*
D03*
X605780Y494900D02*
D03*
X600327Y483700D02*
D03*
X594874Y494900D02*
D03*
Y521500D02*
D03*
X600327Y510319D02*
D03*
X605780Y521500D02*
D03*
X611232Y510319D02*
D03*
X616685Y521500D02*
D03*
X622138Y510319D02*
D03*
X627591Y521500D02*
D03*
X633043Y510319D02*
D03*
X638496Y521500D02*
D03*
X643949Y510319D02*
D03*
X649402Y521500D02*
D03*
X654854Y510319D02*
D03*
X660307Y521500D02*
D03*
X665760Y510319D02*
D03*
D83*
X589421Y483700D02*
D03*
Y510319D02*
D03*
X337297Y483719D02*
D03*
Y510319D02*
D03*
X462483Y483719D02*
D03*
Y510319D02*
D03*
D84*
X290000Y531000D02*
D03*
Y521000D02*
D03*
Y511000D02*
D03*
X276625Y531000D02*
D03*
Y521000D02*
D03*
Y511000D02*
D03*
X263250Y531000D02*
D03*
Y521000D02*
D03*
Y511000D02*
D03*
X310750Y356500D02*
D03*
X300750D02*
D03*
X310750Y341750D02*
D03*
X300750D02*
D03*
X310750Y327000D02*
D03*
X300750D02*
D03*
Y312250D02*
D03*
X310750D02*
D03*
Y297500D02*
D03*
X300750D02*
D03*
Y282750D02*
D03*
X310750D02*
D03*
Y268000D02*
D03*
X300750D02*
D03*
D85*
X252495Y491814D02*
D03*
X261200Y470250D02*
D03*
X527000Y461000D02*
D03*
X275500Y233000D02*
D03*
X290250D02*
D03*
X281000Y271500D02*
D03*
X290250Y461750D02*
D03*
X289750Y364200D02*
D03*
X433750Y425333D02*
D03*
X630887Y357750D02*
D03*
X519429Y448815D02*
D03*
X448750Y468429D02*
D03*
X357000Y446750D02*
D03*
X385500Y468750D02*
D03*
X437750Y467920D02*
D03*
X458000Y452500D02*
D03*
X439500Y451750D02*
D03*
X419000D02*
D03*
X358750Y421250D02*
D03*
X396862Y409500D02*
D03*
X581614Y368642D02*
D03*
X585000Y375750D02*
D03*
X581436Y383500D02*
D03*
X501594Y391500D02*
D03*
X334750Y374500D02*
D03*
X346665Y363840D02*
D03*
X511500Y412500D02*
D03*
X293000Y290000D02*
D03*
X693500Y439750D02*
D03*
X580774Y535750D02*
D03*
X403000Y404750D02*
D03*
X488500Y368750D02*
D03*
X554610Y446250D02*
D03*
X469500Y425250D02*
D03*
X440000Y390000D02*
D03*
X451253Y511000D02*
D03*
X646500Y468500D02*
D03*
X578051Y504551D02*
D03*
X518414Y460750D02*
D03*
X498750Y463500D02*
D03*
X764500Y384250D02*
D03*
X517500Y527200D02*
D03*
X583626Y450750D02*
D03*
X610500Y370092D02*
D03*
X512327Y422000D02*
D03*
X492500Y455500D02*
D03*
X258250Y502250D02*
D03*
X650914Y387000D02*
D03*
X719000Y417000D02*
D03*
X732000Y465750D02*
D03*
X748000D02*
D03*
X713000Y457250D02*
D03*
X792300Y447500D02*
D03*
X737500Y503500D02*
D03*
X547750Y528670D02*
D03*
X344250Y391500D02*
D03*
X325500Y476250D02*
D03*
X716979Y503500D02*
D03*
X669000Y518000D02*
D03*
X516500Y398500D02*
D03*
X614435Y387750D02*
D03*
X650700Y396000D02*
D03*
X693028Y403500D02*
D03*
X720500Y510319D02*
D03*
X631500Y399240D02*
D03*
X613750Y407550D02*
D03*
X568000Y356750D02*
D03*
X307500Y409750D02*
D03*
X317388Y381500D02*
D03*
X313250Y445750D02*
D03*
X671500Y471500D02*
D03*
X671250Y454858D02*
D03*
X544950Y404250D02*
D03*
X614250Y396000D02*
D03*
X665876Y430126D02*
D03*
X373000Y385000D02*
D03*
X320250Y403000D02*
D03*
X343750D02*
D03*
X436401Y366821D02*
D03*
X441401Y403321D02*
D03*
X389000Y420750D02*
D03*
X307000Y367000D02*
D03*
X534000Y413000D02*
D03*
X534150Y437150D02*
D03*
X505000Y456250D02*
D03*
X370000Y398500D02*
D03*
X366374Y408406D02*
D03*
X470000Y391750D02*
D03*
X418000Y424250D02*
D03*
X373500Y426000D02*
D03*
X351142Y411250D02*
D03*
X481250Y406675D02*
D03*
X410375Y410793D02*
D03*
X380250Y410500D02*
D03*
X405875Y367043D02*
D03*
X375000Y367000D02*
D03*
M02*
