G04*
G04 #@! TF.GenerationSoftware,Altium Limited,Altium Designer,19.0.10 (269)*
G04*
G04 Layer_Physical_Order=4*
G04 Layer_Color=16711680*
%FSLAX25Y25*%
%MOIN*%
G70*
G01*
G75*
%ADD11C,0.01000*%
%ADD15C,0.00800*%
%ADD69C,0.02500*%
%ADD70C,0.02000*%
%ADD71C,0.01200*%
%ADD73C,0.13800*%
%ADD74C,0.06500*%
%ADD75C,0.06653*%
%ADD76R,0.06653X0.06653*%
%ADD77C,0.18740*%
%ADD78C,0.09055*%
%ADD79C,0.11811*%
%ADD80C,0.16929*%
%ADD81C,0.18898*%
%ADD82C,0.06653*%
%ADD83R,0.06653X0.06653*%
%ADD84C,0.07087*%
%ADD85C,0.05000*%
%ADD86C,0.10000*%
G36*
X287073Y456507D02*
Y447746D01*
X287073Y447746D01*
X287181Y447200D01*
X287491Y446737D01*
X288119Y446108D01*
X287750Y435443D01*
Y367077D01*
X287254Y366696D01*
X286693Y365965D01*
X286340Y365114D01*
X286220Y364200D01*
X286340Y363286D01*
X286693Y362435D01*
X287254Y361704D01*
X287750Y361323D01*
Y352769D01*
X286491Y351509D01*
X286181Y351046D01*
X286073Y350500D01*
X286073Y350500D01*
Y322190D01*
X281325Y317442D01*
X280609Y317739D01*
X279500Y317885D01*
X278391Y317739D01*
X277357Y317311D01*
X276469Y316630D01*
X275788Y315742D01*
X275359Y314708D01*
X275213Y313598D01*
X275359Y312489D01*
X275788Y311455D01*
X276469Y310567D01*
X277357Y309886D01*
X278391Y309458D01*
X279500Y309312D01*
X280609Y309458D01*
X281643Y309886D01*
X282531Y310567D01*
X283212Y311455D01*
X283641Y312489D01*
X283787Y313598D01*
X283641Y314708D01*
X283344Y315424D01*
X287288Y319368D01*
X287750Y319176D01*
Y273131D01*
X284113D01*
X284057Y273265D01*
X283496Y273996D01*
X282765Y274557D01*
X281914Y274910D01*
X281000Y275030D01*
X280086Y274910D01*
X279235Y274557D01*
X278504Y273996D01*
X277943Y273265D01*
X277590Y272414D01*
X277470Y271500D01*
X277590Y270586D01*
X277943Y269735D01*
X278504Y269004D01*
X279235Y268443D01*
X280086Y268090D01*
X281000Y267970D01*
X281914Y268090D01*
X282765Y268443D01*
X283496Y269004D01*
X284057Y269735D01*
X284113Y269869D01*
X287750D01*
Y266250D01*
X296557D01*
X296781Y265709D01*
X297510Y264760D01*
X298459Y264031D01*
X299564Y263574D01*
X300750Y263418D01*
X301936Y263574D01*
X303041Y264031D01*
X303990Y264760D01*
X304719Y265709D01*
X304943Y266250D01*
X306557D01*
X306781Y265709D01*
X307510Y264760D01*
X308459Y264031D01*
X309564Y263574D01*
X310750Y263418D01*
X311936Y263574D01*
X313041Y264031D01*
X313990Y264760D01*
X314719Y265709D01*
X314943Y266250D01*
X546250D01*
X557545Y254955D01*
X557324Y254507D01*
X557222Y254520D01*
X555780Y254330D01*
X554435Y253773D01*
X553280Y252887D01*
X552394Y251732D01*
X551837Y250388D01*
X551647Y248945D01*
X551837Y247502D01*
X552394Y246157D01*
X553280Y245003D01*
X554435Y244117D01*
X555780Y243560D01*
X557222Y243370D01*
X558665Y243560D01*
X559084Y243733D01*
X559500Y243455D01*
Y233500D01*
X315351D01*
X315114Y234000D01*
X315908Y234966D01*
X316786Y236611D01*
X317328Y238395D01*
X317510Y240250D01*
X317328Y242105D01*
X316786Y243889D01*
X315908Y245534D01*
X314725Y246975D01*
X313284Y248158D01*
X311639Y249036D01*
X309855Y249578D01*
X308000Y249760D01*
X306145Y249578D01*
X304361Y249036D01*
X302716Y248158D01*
X301275Y246975D01*
X300092Y245534D01*
X299214Y243889D01*
X298672Y242105D01*
X298490Y240250D01*
X298672Y238395D01*
X299214Y236611D01*
X300092Y234966D01*
X300886Y234000D01*
X300649Y233500D01*
X278964D01*
X278910Y233914D01*
X278557Y234765D01*
X277996Y235496D01*
X277265Y236057D01*
X276414Y236410D01*
X275500Y236530D01*
X274586Y236410D01*
X273735Y236057D01*
X273004Y235496D01*
X272443Y234765D01*
X272090Y233914D01*
X272036Y233500D01*
X247513D01*
X239000Y242013D01*
X239000Y457402D01*
X243348Y461750D01*
X281830D01*
X287073Y456507D01*
D02*
G37*
%LPC*%
G36*
X279500Y459145D02*
X278391Y458999D01*
X277357Y458571D01*
X276469Y457889D01*
X275788Y457002D01*
X275359Y455968D01*
X275213Y454858D01*
X275359Y453749D01*
X275788Y452715D01*
X276469Y451827D01*
X277357Y451146D01*
X278391Y450718D01*
X279500Y450572D01*
X280609Y450718D01*
X281643Y451146D01*
X282531Y451827D01*
X283212Y452715D01*
X283641Y453749D01*
X283787Y454858D01*
X283641Y455968D01*
X283212Y457002D01*
X282531Y457889D01*
X281643Y458571D01*
X280609Y458999D01*
X279500Y459145D01*
D02*
G37*
G36*
X259500D02*
X258390Y458999D01*
X257357Y458571D01*
X256469Y457889D01*
X255788Y457002D01*
X255359Y455968D01*
X255213Y454858D01*
X255359Y453749D01*
X255788Y452715D01*
X256469Y451827D01*
X257357Y451146D01*
X258390Y450718D01*
X259500Y450572D01*
X260610Y450718D01*
X261643Y451146D01*
X262531Y451827D01*
X263212Y452715D01*
X263641Y453749D01*
X263787Y454858D01*
X263641Y455968D01*
X263212Y457002D01*
X262531Y457889D01*
X261643Y458571D01*
X260610Y458999D01*
X259500Y459145D01*
D02*
G37*
G36*
X269500Y453672D02*
X268390Y453526D01*
X267357Y453098D01*
X266469Y452417D01*
X265788Y451529D01*
X265359Y450495D01*
X265213Y449386D01*
X265359Y448276D01*
X265788Y447242D01*
X266469Y446355D01*
X267357Y445673D01*
X268390Y445245D01*
X269500Y445099D01*
X270609Y445245D01*
X271643Y445673D01*
X272531Y446355D01*
X273212Y447242D01*
X273641Y448276D01*
X273787Y449386D01*
X273641Y450495D01*
X273212Y451529D01*
X272531Y452417D01*
X271643Y453098D01*
X270609Y453526D01*
X269500Y453672D01*
D02*
G37*
G36*
X279500Y448279D02*
X278391Y448133D01*
X277357Y447705D01*
X276469Y447023D01*
X275788Y446135D01*
X275359Y445102D01*
X275213Y443992D01*
X275359Y442883D01*
X275788Y441849D01*
X276469Y440961D01*
X277357Y440280D01*
X278391Y439852D01*
X279500Y439705D01*
X280609Y439852D01*
X281643Y440280D01*
X282531Y440961D01*
X283212Y441849D01*
X283641Y442883D01*
X283787Y443992D01*
X283641Y445102D01*
X283212Y446135D01*
X282531Y447023D01*
X281643Y447705D01*
X280609Y448133D01*
X279500Y448279D01*
D02*
G37*
G36*
X259500D02*
X258390Y448133D01*
X257357Y447705D01*
X256469Y447023D01*
X255788Y446135D01*
X255359Y445102D01*
X255213Y443992D01*
X255359Y442883D01*
X255788Y441849D01*
X256469Y440961D01*
X257357Y440280D01*
X258390Y439852D01*
X259500Y439705D01*
X260610Y439852D01*
X261643Y440280D01*
X262531Y440961D01*
X263212Y441849D01*
X263641Y442883D01*
X263787Y443992D01*
X263641Y445102D01*
X263212Y446135D01*
X262531Y447023D01*
X261643Y447705D01*
X260610Y448133D01*
X259500Y448279D01*
D02*
G37*
G36*
X269500Y442809D02*
X268390Y442663D01*
X267357Y442235D01*
X266469Y441553D01*
X265788Y440665D01*
X265359Y439632D01*
X265213Y438522D01*
X265359Y437413D01*
X265788Y436379D01*
X266469Y435491D01*
X267357Y434810D01*
X268390Y434382D01*
X269500Y434235D01*
X270609Y434382D01*
X271643Y434810D01*
X272531Y435491D01*
X273212Y436379D01*
X273641Y437413D01*
X273787Y438522D01*
X273641Y439632D01*
X273212Y440665D01*
X272531Y441553D01*
X271643Y442235D01*
X270609Y442663D01*
X269500Y442809D01*
D02*
G37*
G36*
X279500Y415680D02*
X278391Y415534D01*
X277357Y415106D01*
X276469Y414425D01*
X275788Y413537D01*
X275359Y412503D01*
X275213Y411394D01*
X275359Y410284D01*
X275788Y409250D01*
X276469Y408363D01*
X277357Y407681D01*
X278391Y407253D01*
X279500Y407107D01*
X280609Y407253D01*
X281643Y407681D01*
X282531Y408363D01*
X283212Y409250D01*
X283641Y410284D01*
X283787Y411394D01*
X283641Y412503D01*
X283212Y413537D01*
X282531Y414425D01*
X281643Y415106D01*
X280609Y415534D01*
X279500Y415680D01*
D02*
G37*
G36*
X259500D02*
X258390Y415534D01*
X257357Y415106D01*
X256469Y414425D01*
X255788Y413537D01*
X255359Y412503D01*
X255213Y411394D01*
X255359Y410284D01*
X255788Y409250D01*
X256469Y408363D01*
X257357Y407681D01*
X258390Y407253D01*
X259500Y407107D01*
X260610Y407253D01*
X261643Y407681D01*
X262531Y408363D01*
X263212Y409250D01*
X263641Y410284D01*
X263787Y411394D01*
X263641Y412503D01*
X263212Y413537D01*
X262531Y414425D01*
X261643Y415106D01*
X260610Y415534D01*
X259500Y415680D01*
D02*
G37*
G36*
X269500Y410218D02*
X268390Y410072D01*
X267357Y409644D01*
X266469Y408963D01*
X265788Y408075D01*
X265359Y407041D01*
X265213Y405932D01*
X265359Y404822D01*
X265788Y403788D01*
X266469Y402901D01*
X267357Y402219D01*
X268390Y401791D01*
X269500Y401645D01*
X270609Y401791D01*
X271643Y402219D01*
X272531Y402901D01*
X273212Y403788D01*
X273641Y404822D01*
X273787Y405932D01*
X273641Y407041D01*
X273212Y408075D01*
X272531Y408963D01*
X271643Y409644D01*
X270609Y410072D01*
X269500Y410218D01*
D02*
G37*
G36*
X279500Y404814D02*
X278391Y404668D01*
X277357Y404240D01*
X276469Y403559D01*
X275788Y402671D01*
X275359Y401637D01*
X275213Y400527D01*
X275359Y399418D01*
X275788Y398384D01*
X276469Y397496D01*
X277357Y396815D01*
X278391Y396387D01*
X279500Y396241D01*
X280609Y396387D01*
X281643Y396815D01*
X282531Y397496D01*
X283212Y398384D01*
X283641Y399418D01*
X283787Y400527D01*
X283641Y401637D01*
X283212Y402671D01*
X282531Y403559D01*
X281643Y404240D01*
X280609Y404668D01*
X279500Y404814D01*
D02*
G37*
G36*
X259500D02*
X258390Y404668D01*
X257357Y404240D01*
X256469Y403559D01*
X255788Y402671D01*
X255359Y401637D01*
X255213Y400527D01*
X255359Y399418D01*
X255788Y398384D01*
X256469Y397496D01*
X257357Y396815D01*
X258390Y396387D01*
X259500Y396241D01*
X260610Y396387D01*
X261643Y396815D01*
X262531Y397496D01*
X263212Y398384D01*
X263641Y399418D01*
X263787Y400527D01*
X263641Y401637D01*
X263212Y402671D01*
X262531Y403559D01*
X261643Y404240D01*
X260610Y404668D01*
X259500Y404814D01*
D02*
G37*
G36*
X269500Y399355D02*
X268390Y399209D01*
X267357Y398780D01*
X266469Y398099D01*
X265788Y397212D01*
X265359Y396178D01*
X265213Y395068D01*
X265359Y393959D01*
X265788Y392925D01*
X266469Y392037D01*
X267357Y391356D01*
X268390Y390928D01*
X269500Y390781D01*
X270609Y390928D01*
X271643Y391356D01*
X272531Y392037D01*
X273212Y392925D01*
X273641Y393959D01*
X273787Y395068D01*
X273641Y396178D01*
X273212Y397212D01*
X272531Y398099D01*
X271643Y398780D01*
X270609Y399209D01*
X269500Y399355D01*
D02*
G37*
G36*
X279500Y393948D02*
X278391Y393802D01*
X277357Y393374D01*
X276469Y392692D01*
X275788Y391805D01*
X275359Y390771D01*
X275213Y389661D01*
X275359Y388552D01*
X275788Y387518D01*
X276469Y386630D01*
X277357Y385949D01*
X278391Y385521D01*
X279500Y385375D01*
X280609Y385521D01*
X281643Y385949D01*
X282531Y386630D01*
X283212Y387518D01*
X283641Y388552D01*
X283787Y389661D01*
X283641Y390771D01*
X283212Y391805D01*
X282531Y392692D01*
X281643Y393374D01*
X280609Y393802D01*
X279500Y393948D01*
D02*
G37*
G36*
X259500D02*
X258390Y393802D01*
X257357Y393374D01*
X256469Y392692D01*
X255788Y391805D01*
X255359Y390771D01*
X255213Y389661D01*
X255359Y388552D01*
X255788Y387518D01*
X256469Y386630D01*
X257357Y385949D01*
X258390Y385521D01*
X259500Y385375D01*
X260610Y385521D01*
X261643Y385949D01*
X262531Y386630D01*
X263212Y387518D01*
X263641Y388552D01*
X263787Y389661D01*
X263641Y390771D01*
X263212Y391805D01*
X262531Y392692D01*
X261643Y393374D01*
X260610Y393802D01*
X259500Y393948D01*
D02*
G37*
G36*
X269500Y388491D02*
X268390Y388345D01*
X267357Y387917D01*
X266469Y387236D01*
X265788Y386348D01*
X265359Y385314D01*
X265213Y384205D01*
X265359Y383095D01*
X265788Y382061D01*
X266469Y381173D01*
X267357Y380492D01*
X268390Y380064D01*
X269500Y379918D01*
X270609Y380064D01*
X271643Y380492D01*
X272531Y381173D01*
X273212Y382061D01*
X273641Y383095D01*
X273787Y384205D01*
X273641Y385314D01*
X273212Y386348D01*
X272531Y387236D01*
X271643Y387917D01*
X270609Y388345D01*
X269500Y388491D01*
D02*
G37*
G36*
X279500Y383082D02*
X278391Y382936D01*
X277357Y382508D01*
X276469Y381826D01*
X275788Y380939D01*
X275359Y379905D01*
X275213Y378795D01*
X275359Y377686D01*
X275788Y376652D01*
X276469Y375764D01*
X277357Y375083D01*
X278391Y374655D01*
X279500Y374509D01*
X280609Y374655D01*
X281643Y375083D01*
X282531Y375764D01*
X283212Y376652D01*
X283641Y377686D01*
X283787Y378795D01*
X283641Y379905D01*
X283212Y380939D01*
X282531Y381826D01*
X281643Y382508D01*
X280609Y382936D01*
X279500Y383082D01*
D02*
G37*
G36*
X259500D02*
X258390Y382936D01*
X257357Y382508D01*
X256469Y381826D01*
X255788Y380939D01*
X255359Y379905D01*
X255213Y378795D01*
X255359Y377686D01*
X255788Y376652D01*
X256469Y375764D01*
X257357Y375083D01*
X258390Y374655D01*
X259500Y374509D01*
X260610Y374655D01*
X261643Y375083D01*
X262531Y375764D01*
X263212Y376652D01*
X263641Y377686D01*
X263787Y378795D01*
X263641Y379905D01*
X263212Y380939D01*
X262531Y381826D01*
X261643Y382508D01*
X260610Y382936D01*
X259500Y383082D01*
D02*
G37*
G36*
X269500Y377628D02*
X268390Y377482D01*
X267357Y377053D01*
X266469Y376372D01*
X265788Y375484D01*
X265359Y374451D01*
X265213Y373341D01*
X265359Y372232D01*
X265788Y371198D01*
X266469Y370310D01*
X267357Y369629D01*
X268390Y369200D01*
X269500Y369055D01*
X270609Y369200D01*
X271643Y369629D01*
X272531Y370310D01*
X273212Y371198D01*
X273641Y372232D01*
X273787Y373341D01*
X273641Y374451D01*
X273212Y375484D01*
X272531Y376372D01*
X271643Y377053D01*
X270609Y377482D01*
X269500Y377628D01*
D02*
G37*
G36*
X279500Y372216D02*
X278391Y372070D01*
X277357Y371641D01*
X276469Y370960D01*
X275788Y370073D01*
X275359Y369039D01*
X275213Y367929D01*
X275359Y366820D01*
X275788Y365786D01*
X276469Y364898D01*
X277357Y364217D01*
X278391Y363789D01*
X279500Y363643D01*
X280609Y363789D01*
X281643Y364217D01*
X282531Y364898D01*
X283212Y365786D01*
X283641Y366820D01*
X283787Y367929D01*
X283641Y369039D01*
X283212Y370073D01*
X282531Y370960D01*
X281643Y371641D01*
X280609Y372070D01*
X279500Y372216D01*
D02*
G37*
G36*
X259500D02*
X258390Y372070D01*
X257357Y371641D01*
X256469Y370960D01*
X255788Y370073D01*
X255359Y369039D01*
X255213Y367929D01*
X255359Y366820D01*
X255788Y365786D01*
X256469Y364898D01*
X257357Y364217D01*
X258390Y363789D01*
X259500Y363643D01*
X260610Y363789D01*
X261643Y364217D01*
X262531Y364898D01*
X263212Y365786D01*
X263641Y366820D01*
X263787Y367929D01*
X263641Y369039D01*
X263212Y370073D01*
X262531Y370960D01*
X261643Y371641D01*
X260610Y372070D01*
X259500Y372216D01*
D02*
G37*
G36*
X269500Y366764D02*
X268390Y366618D01*
X267357Y366190D01*
X266469Y365509D01*
X265788Y364621D01*
X265359Y363587D01*
X265213Y362478D01*
X265359Y361368D01*
X265788Y360334D01*
X266469Y359447D01*
X267357Y358765D01*
X268390Y358337D01*
X269500Y358191D01*
X270609Y358337D01*
X271643Y358765D01*
X272531Y359447D01*
X273212Y360334D01*
X273641Y361368D01*
X273787Y362478D01*
X273641Y363587D01*
X273212Y364621D01*
X272531Y365509D01*
X271643Y366190D01*
X270609Y366618D01*
X269500Y366764D01*
D02*
G37*
G36*
X279500Y361350D02*
X278391Y361204D01*
X277357Y360775D01*
X276469Y360094D01*
X275788Y359206D01*
X275359Y358172D01*
X275213Y357063D01*
X275359Y355954D01*
X275788Y354920D01*
X276469Y354032D01*
X277357Y353351D01*
X278391Y352922D01*
X279500Y352776D01*
X280609Y352922D01*
X281643Y353351D01*
X282531Y354032D01*
X283212Y354920D01*
X283641Y355954D01*
X283787Y357063D01*
X283641Y358172D01*
X283212Y359206D01*
X282531Y360094D01*
X281643Y360775D01*
X280609Y361204D01*
X279500Y361350D01*
D02*
G37*
G36*
X259500D02*
X258390Y361204D01*
X257357Y360775D01*
X256469Y360094D01*
X255788Y359206D01*
X255359Y358172D01*
X255213Y357063D01*
X255359Y355954D01*
X255788Y354920D01*
X256469Y354032D01*
X257357Y353351D01*
X258390Y352922D01*
X259500Y352776D01*
X260610Y352922D01*
X261643Y353351D01*
X262531Y354032D01*
X263212Y354920D01*
X263641Y355954D01*
X263787Y357063D01*
X263641Y358172D01*
X263212Y359206D01*
X262531Y360094D01*
X261643Y360775D01*
X260610Y361204D01*
X259500Y361350D01*
D02*
G37*
G36*
X269500Y355901D02*
X268390Y355755D01*
X267357Y355327D01*
X266469Y354645D01*
X265788Y353758D01*
X265359Y352724D01*
X265213Y351614D01*
X265359Y350505D01*
X265788Y349471D01*
X266469Y348583D01*
X267357Y347902D01*
X268390Y347474D01*
X269500Y347327D01*
X270609Y347474D01*
X271643Y347902D01*
X272531Y348583D01*
X273212Y349471D01*
X273641Y350505D01*
X273787Y351614D01*
X273641Y352724D01*
X273212Y353758D01*
X272531Y354645D01*
X271643Y355327D01*
X270609Y355755D01*
X269500Y355901D01*
D02*
G37*
G36*
X279500Y350483D02*
X278391Y350337D01*
X277357Y349909D01*
X276469Y349228D01*
X275788Y348340D01*
X275359Y347306D01*
X275213Y346197D01*
X275359Y345087D01*
X275788Y344054D01*
X276469Y343166D01*
X277357Y342484D01*
X278391Y342056D01*
X279500Y341910D01*
X280609Y342056D01*
X281643Y342484D01*
X282531Y343166D01*
X283212Y344054D01*
X283641Y345087D01*
X283787Y346197D01*
X283641Y347306D01*
X283212Y348340D01*
X282531Y349228D01*
X281643Y349909D01*
X280609Y350337D01*
X279500Y350483D01*
D02*
G37*
G36*
X259500D02*
X258390Y350337D01*
X257357Y349909D01*
X256469Y349228D01*
X255788Y348340D01*
X255359Y347306D01*
X255213Y346197D01*
X255359Y345087D01*
X255788Y344054D01*
X256469Y343166D01*
X257357Y342484D01*
X258390Y342056D01*
X259500Y341910D01*
X260610Y342056D01*
X261643Y342484D01*
X262531Y343166D01*
X263212Y344054D01*
X263641Y345087D01*
X263787Y346197D01*
X263641Y347306D01*
X263212Y348340D01*
X262531Y349228D01*
X261643Y349909D01*
X260610Y350337D01*
X259500Y350483D01*
D02*
G37*
G36*
X269500Y345037D02*
X268390Y344891D01*
X267357Y344463D01*
X266469Y343782D01*
X265788Y342894D01*
X265359Y341860D01*
X265213Y340751D01*
X265359Y339641D01*
X265788Y338607D01*
X266469Y337719D01*
X267357Y337038D01*
X268390Y336610D01*
X269500Y336464D01*
X270609Y336610D01*
X271643Y337038D01*
X272531Y337719D01*
X273212Y338607D01*
X273641Y339641D01*
X273787Y340751D01*
X273641Y341860D01*
X273212Y342894D01*
X272531Y343782D01*
X271643Y344463D01*
X270609Y344891D01*
X269500Y345037D01*
D02*
G37*
G36*
X279500Y339617D02*
X278391Y339471D01*
X277357Y339043D01*
X276469Y338362D01*
X275788Y337474D01*
X275359Y336440D01*
X275213Y335331D01*
X275359Y334221D01*
X275788Y333187D01*
X276469Y332300D01*
X277357Y331618D01*
X278391Y331190D01*
X279500Y331044D01*
X280609Y331190D01*
X281643Y331618D01*
X282531Y332300D01*
X283212Y333187D01*
X283641Y334221D01*
X283787Y335331D01*
X283641Y336440D01*
X283212Y337474D01*
X282531Y338362D01*
X281643Y339043D01*
X280609Y339471D01*
X279500Y339617D01*
D02*
G37*
G36*
X259500D02*
X258390Y339471D01*
X257357Y339043D01*
X256469Y338362D01*
X255788Y337474D01*
X255359Y336440D01*
X255213Y335331D01*
X255359Y334221D01*
X255788Y333187D01*
X256469Y332300D01*
X257357Y331618D01*
X258390Y331190D01*
X259500Y331044D01*
X260610Y331190D01*
X261643Y331618D01*
X262531Y332300D01*
X263212Y333187D01*
X263641Y334221D01*
X263787Y335331D01*
X263641Y336440D01*
X263212Y337474D01*
X262531Y338362D01*
X261643Y339043D01*
X260610Y339471D01*
X259500Y339617D01*
D02*
G37*
G36*
X269500Y334174D02*
X268390Y334028D01*
X267357Y333599D01*
X266469Y332918D01*
X265788Y332030D01*
X265359Y330997D01*
X265213Y329887D01*
X265359Y328778D01*
X265788Y327744D01*
X266469Y326856D01*
X267357Y326175D01*
X268390Y325746D01*
X269500Y325600D01*
X270609Y325746D01*
X271643Y326175D01*
X272531Y326856D01*
X273212Y327744D01*
X273641Y328778D01*
X273787Y329887D01*
X273641Y330997D01*
X273212Y332030D01*
X272531Y332918D01*
X271643Y333599D01*
X270609Y334028D01*
X269500Y334174D01*
D02*
G37*
G36*
X279500Y328751D02*
X278391Y328605D01*
X277357Y328177D01*
X276469Y327496D01*
X275788Y326608D01*
X275359Y325574D01*
X275213Y324465D01*
X275359Y323355D01*
X275788Y322321D01*
X276469Y321433D01*
X277357Y320752D01*
X278391Y320324D01*
X279500Y320178D01*
X280609Y320324D01*
X281643Y320752D01*
X282531Y321433D01*
X283212Y322321D01*
X283641Y323355D01*
X283787Y324465D01*
X283641Y325574D01*
X283212Y326608D01*
X282531Y327496D01*
X281643Y328177D01*
X280609Y328605D01*
X279500Y328751D01*
D02*
G37*
G36*
X259500D02*
X258390Y328605D01*
X257357Y328177D01*
X256469Y327496D01*
X255788Y326608D01*
X255359Y325574D01*
X255213Y324465D01*
X255359Y323355D01*
X255788Y322321D01*
X256469Y321433D01*
X257357Y320752D01*
X258390Y320324D01*
X259500Y320178D01*
X260610Y320324D01*
X261643Y320752D01*
X262531Y321433D01*
X263212Y322321D01*
X263641Y323355D01*
X263787Y324465D01*
X263641Y325574D01*
X263212Y326608D01*
X262531Y327496D01*
X261643Y328177D01*
X260610Y328605D01*
X259500Y328751D01*
D02*
G37*
G36*
X269500Y323310D02*
X268390Y323164D01*
X267357Y322736D01*
X266469Y322055D01*
X265788Y321167D01*
X265359Y320133D01*
X265213Y319024D01*
X265359Y317914D01*
X265788Y316880D01*
X266469Y315992D01*
X267357Y315311D01*
X268390Y314883D01*
X269500Y314737D01*
X270609Y314883D01*
X271643Y315311D01*
X272531Y315992D01*
X273212Y316880D01*
X273641Y317914D01*
X273787Y319024D01*
X273641Y320133D01*
X273212Y321167D01*
X272531Y322055D01*
X271643Y322736D01*
X270609Y323164D01*
X269500Y323310D01*
D02*
G37*
G36*
X259500Y317885D02*
X258390Y317739D01*
X257357Y317311D01*
X256469Y316630D01*
X255788Y315742D01*
X255359Y314708D01*
X255213Y313598D01*
X255359Y312489D01*
X255788Y311455D01*
X256469Y310567D01*
X257357Y309886D01*
X258390Y309458D01*
X259500Y309312D01*
X260610Y309458D01*
X261643Y309886D01*
X262531Y310567D01*
X263212Y311455D01*
X263641Y312489D01*
X263787Y313598D01*
X263641Y314708D01*
X263212Y315742D01*
X262531Y316630D01*
X261643Y317311D01*
X260610Y317739D01*
X259500Y317885D01*
D02*
G37*
G36*
X269500Y312447D02*
X268390Y312301D01*
X267357Y311873D01*
X266469Y311191D01*
X265788Y310303D01*
X265359Y309270D01*
X265213Y308160D01*
X265359Y307051D01*
X265788Y306017D01*
X266469Y305129D01*
X267357Y304448D01*
X268390Y304019D01*
X269500Y303873D01*
X270609Y304019D01*
X271643Y304448D01*
X272531Y305129D01*
X273212Y306017D01*
X273641Y307051D01*
X273787Y308160D01*
X273641Y309270D01*
X273212Y310303D01*
X272531Y311191D01*
X271643Y311873D01*
X270609Y312301D01*
X269500Y312447D01*
D02*
G37*
G36*
X279500Y307019D02*
X278391Y306873D01*
X277357Y306445D01*
X276469Y305763D01*
X275788Y304876D01*
X275359Y303842D01*
X275213Y302732D01*
X275359Y301623D01*
X275788Y300589D01*
X276469Y299701D01*
X277357Y299020D01*
X278391Y298592D01*
X279500Y298446D01*
X280609Y298592D01*
X281643Y299020D01*
X282531Y299701D01*
X283212Y300589D01*
X283641Y301623D01*
X283787Y302732D01*
X283641Y303842D01*
X283212Y304876D01*
X282531Y305763D01*
X281643Y306445D01*
X280609Y306873D01*
X279500Y307019D01*
D02*
G37*
G36*
X259500D02*
X258390Y306873D01*
X257357Y306445D01*
X256469Y305763D01*
X255788Y304876D01*
X255359Y303842D01*
X255213Y302732D01*
X255359Y301623D01*
X255788Y300589D01*
X256469Y299701D01*
X257357Y299020D01*
X258390Y298592D01*
X259500Y298446D01*
X260610Y298592D01*
X261643Y299020D01*
X262531Y299701D01*
X263212Y300589D01*
X263641Y301623D01*
X263787Y302732D01*
X263641Y303842D01*
X263212Y304876D01*
X262531Y305763D01*
X261643Y306445D01*
X260610Y306873D01*
X259500Y307019D01*
D02*
G37*
G36*
X269500Y301583D02*
X268390Y301437D01*
X267357Y301009D01*
X266469Y300328D01*
X265788Y299440D01*
X265359Y298406D01*
X265213Y297297D01*
X265359Y296187D01*
X265788Y295153D01*
X266469Y294266D01*
X267357Y293584D01*
X268390Y293156D01*
X269500Y293010D01*
X270609Y293156D01*
X271643Y293584D01*
X272531Y294266D01*
X273212Y295153D01*
X273641Y296187D01*
X273787Y297297D01*
X273641Y298406D01*
X273212Y299440D01*
X272531Y300328D01*
X271643Y301009D01*
X270609Y301437D01*
X269500Y301583D01*
D02*
G37*
G36*
X279500Y296153D02*
X278391Y296007D01*
X277357Y295579D01*
X276469Y294897D01*
X275788Y294009D01*
X275359Y292976D01*
X275213Y291866D01*
X275359Y290757D01*
X275788Y289723D01*
X276469Y288835D01*
X277357Y288154D01*
X278391Y287725D01*
X279500Y287579D01*
X280609Y287725D01*
X281643Y288154D01*
X282531Y288835D01*
X283212Y289723D01*
X283641Y290757D01*
X283787Y291866D01*
X283641Y292976D01*
X283212Y294009D01*
X282531Y294897D01*
X281643Y295579D01*
X280609Y296007D01*
X279500Y296153D01*
D02*
G37*
G36*
X259500D02*
X258390Y296007D01*
X257357Y295579D01*
X256469Y294897D01*
X255788Y294009D01*
X255359Y292976D01*
X255213Y291866D01*
X255359Y290757D01*
X255788Y289723D01*
X256469Y288835D01*
X257357Y288154D01*
X258390Y287725D01*
X259500Y287579D01*
X260610Y287725D01*
X261643Y288154D01*
X262531Y288835D01*
X263212Y289723D01*
X263641Y290757D01*
X263787Y291866D01*
X263641Y292976D01*
X263212Y294009D01*
X262531Y294897D01*
X261643Y295579D01*
X260610Y296007D01*
X259500Y296153D01*
D02*
G37*
G36*
X269500Y290720D02*
X268390Y290574D01*
X267357Y290145D01*
X266469Y289464D01*
X265788Y288576D01*
X265359Y287543D01*
X265213Y286433D01*
X265359Y285324D01*
X265788Y284290D01*
X266469Y283402D01*
X267357Y282721D01*
X268390Y282293D01*
X269500Y282146D01*
X270609Y282293D01*
X271643Y282721D01*
X272531Y283402D01*
X273212Y284290D01*
X273641Y285324D01*
X273787Y286433D01*
X273641Y287543D01*
X273212Y288576D01*
X272531Y289464D01*
X271643Y290145D01*
X270609Y290574D01*
X269500Y290720D01*
D02*
G37*
G36*
X279500Y285287D02*
X278391Y285141D01*
X277357Y284712D01*
X276469Y284031D01*
X275788Y283143D01*
X275359Y282109D01*
X275213Y281000D01*
X275359Y279890D01*
X275788Y278857D01*
X276469Y277969D01*
X277357Y277288D01*
X278391Y276859D01*
X279500Y276713D01*
X280609Y276859D01*
X281643Y277288D01*
X282531Y277969D01*
X283212Y278857D01*
X283641Y279890D01*
X283787Y281000D01*
X283641Y282109D01*
X283212Y283143D01*
X282531Y284031D01*
X281643Y284712D01*
X280609Y285141D01*
X279500Y285287D01*
D02*
G37*
G36*
X259500D02*
X258390Y285141D01*
X257357Y284712D01*
X256469Y284031D01*
X255788Y283143D01*
X255359Y282109D01*
X255213Y281000D01*
X255359Y279890D01*
X255788Y278857D01*
X256469Y277969D01*
X257357Y277288D01*
X258390Y276859D01*
X259500Y276713D01*
X260610Y276859D01*
X261643Y277288D01*
X262531Y277969D01*
X263212Y278857D01*
X263641Y279890D01*
X263787Y281000D01*
X263641Y282109D01*
X263212Y283143D01*
X262531Y284031D01*
X261643Y284712D01*
X260610Y285141D01*
X259500Y285287D01*
D02*
G37*
G36*
X532643Y254270D02*
X531200Y254080D01*
X529855Y253523D01*
X528700Y252637D01*
X527814Y251483D01*
X527257Y250138D01*
X527068Y248695D01*
X527257Y247252D01*
X527814Y245907D01*
X528700Y244753D01*
X529855Y243867D01*
X531200Y243310D01*
X532643Y243120D01*
X534086Y243310D01*
X535430Y243867D01*
X536585Y244753D01*
X537471Y245907D01*
X538028Y247252D01*
X538218Y248695D01*
X538028Y250138D01*
X537471Y251483D01*
X536585Y252637D01*
X535430Y253523D01*
X534086Y254080D01*
X532643Y254270D01*
D02*
G37*
G36*
X503115D02*
X501672Y254080D01*
X500328Y253523D01*
X499173Y252637D01*
X498287Y251483D01*
X497730Y250138D01*
X497540Y248695D01*
X497730Y247252D01*
X498287Y245907D01*
X499173Y244753D01*
X500328Y243867D01*
X501672Y243310D01*
X503115Y243120D01*
X504558Y243310D01*
X505903Y243867D01*
X507058Y244753D01*
X507944Y245907D01*
X508501Y247252D01*
X508691Y248695D01*
X508501Y250138D01*
X507944Y251483D01*
X507058Y252637D01*
X505903Y253523D01*
X504558Y254080D01*
X503115Y254270D01*
D02*
G37*
G36*
X478429D02*
X476986Y254080D01*
X475641Y253523D01*
X474486Y252637D01*
X473600Y251483D01*
X473043Y250138D01*
X472853Y248695D01*
X473043Y247252D01*
X473600Y245907D01*
X474486Y244753D01*
X475641Y243867D01*
X476986Y243310D01*
X478429Y243120D01*
X479872Y243310D01*
X481216Y243867D01*
X482371Y244753D01*
X483257Y245907D01*
X483814Y247252D01*
X484004Y248695D01*
X483814Y250138D01*
X483257Y251483D01*
X482371Y252637D01*
X481216Y253523D01*
X479872Y254080D01*
X478429Y254270D01*
D02*
G37*
G36*
X448901D02*
X447458Y254080D01*
X446113Y253523D01*
X444959Y252637D01*
X444073Y251483D01*
X443516Y250138D01*
X443326Y248695D01*
X443516Y247252D01*
X444073Y245907D01*
X444959Y244753D01*
X446113Y243867D01*
X447458Y243310D01*
X448901Y243120D01*
X450344Y243310D01*
X451689Y243867D01*
X452843Y244753D01*
X453729Y245907D01*
X454286Y247252D01*
X454476Y248695D01*
X454286Y250138D01*
X453729Y251483D01*
X452843Y252637D01*
X451689Y253523D01*
X450344Y254080D01*
X448901Y254270D01*
D02*
G37*
G36*
X424214D02*
X422771Y254080D01*
X421427Y253523D01*
X420272Y252637D01*
X419386Y251483D01*
X418829Y250138D01*
X418639Y248695D01*
X418829Y247252D01*
X419386Y245907D01*
X420272Y244753D01*
X421427Y243867D01*
X422771Y243310D01*
X424214Y243120D01*
X425657Y243310D01*
X427002Y243867D01*
X428157Y244753D01*
X429043Y245907D01*
X429600Y247252D01*
X429789Y248695D01*
X429600Y250138D01*
X429043Y251483D01*
X428157Y252637D01*
X427002Y253523D01*
X425657Y254080D01*
X424214Y254270D01*
D02*
G37*
G36*
X394687D02*
X393244Y254080D01*
X391899Y253523D01*
X390744Y252637D01*
X389858Y251483D01*
X389301Y250138D01*
X389111Y248695D01*
X389301Y247252D01*
X389858Y245907D01*
X390744Y244753D01*
X391899Y243867D01*
X393244Y243310D01*
X394687Y243120D01*
X396130Y243310D01*
X397474Y243867D01*
X398629Y244753D01*
X399515Y245907D01*
X400072Y247252D01*
X400262Y248695D01*
X400072Y250138D01*
X399515Y251483D01*
X398629Y252637D01*
X397474Y253523D01*
X396130Y254080D01*
X394687Y254270D01*
D02*
G37*
G36*
X370000D02*
X368557Y254080D01*
X367212Y253523D01*
X366058Y252637D01*
X365172Y251483D01*
X364615Y250138D01*
X364425Y248695D01*
X364615Y247252D01*
X365172Y245907D01*
X366058Y244753D01*
X367212Y243867D01*
X368557Y243310D01*
X370000Y243120D01*
X371443Y243310D01*
X372788Y243867D01*
X373942Y244753D01*
X374828Y245907D01*
X375385Y247252D01*
X375575Y248695D01*
X375385Y250138D01*
X374828Y251483D01*
X373942Y252637D01*
X372788Y253523D01*
X371443Y254080D01*
X370000Y254270D01*
D02*
G37*
G36*
X340472D02*
X339030Y254080D01*
X337685Y253523D01*
X336530Y252637D01*
X335644Y251483D01*
X335087Y250138D01*
X334897Y248695D01*
X335087Y247252D01*
X335644Y245907D01*
X336530Y244753D01*
X337685Y243867D01*
X339030Y243310D01*
X340472Y243120D01*
X341915Y243310D01*
X343260Y243867D01*
X344415Y244753D01*
X345301Y245907D01*
X345858Y247252D01*
X346048Y248695D01*
X345858Y250138D01*
X345301Y251483D01*
X344415Y252637D01*
X343260Y253523D01*
X341915Y254080D01*
X340472Y254270D01*
D02*
G37*
G36*
X269500Y255592D02*
X267951Y255439D01*
X266462Y254988D01*
X265090Y254254D01*
X263887Y253267D01*
X262900Y252064D01*
X262166Y250691D01*
X261714Y249202D01*
X261562Y247654D01*
X261714Y246105D01*
X262166Y244616D01*
X262900Y243243D01*
X263887Y242040D01*
X265090Y241053D01*
X266462Y240320D01*
X267951Y239868D01*
X269500Y239715D01*
X271049Y239868D01*
X272538Y240320D01*
X273910Y241053D01*
X275113Y242040D01*
X276100Y243243D01*
X276834Y244616D01*
X277286Y246105D01*
X277438Y247654D01*
X277286Y249202D01*
X276834Y250691D01*
X276100Y252064D01*
X275113Y253267D01*
X273910Y254254D01*
X272538Y254988D01*
X271049Y255439D01*
X269500Y255592D01*
D02*
G37*
G36*
X543250Y244030D02*
X542336Y243910D01*
X541485Y243557D01*
X540754Y242996D01*
X540193Y242265D01*
X539840Y241414D01*
X539720Y240500D01*
X539840Y239586D01*
X540193Y238735D01*
X540754Y238004D01*
X541485Y237443D01*
X542336Y237090D01*
X543250Y236970D01*
X544164Y237090D01*
X545015Y237443D01*
X545746Y238004D01*
X546307Y238735D01*
X546660Y239586D01*
X546780Y240500D01*
X546660Y241414D01*
X546307Y242265D01*
X545746Y242996D01*
X545015Y243557D01*
X544164Y243910D01*
X543250Y244030D01*
D02*
G37*
%LPD*%
D11*
X495200Y518437D02*
Y531600D01*
X488804Y537996D02*
X495200Y531600D01*
X296996Y537996D02*
X488804D01*
X582861Y489500D02*
X638149D01*
X580850Y487489D02*
X582861Y489500D01*
X580850Y479100D02*
Y487489D01*
X654854Y467318D02*
Y483700D01*
X648536Y461000D02*
X654854Y467318D01*
X527000Y461000D02*
X648536D01*
X393920Y467920D02*
X437750D01*
X458000Y447834D02*
Y452500D01*
Y447834D02*
X462750Y443084D01*
X384250Y458250D02*
X393920Y467920D01*
X462750Y413285D02*
Y443084D01*
X495300Y376558D02*
Y391700D01*
X462750Y413285D02*
X475893Y400143D01*
X486857D01*
X495300Y391700D01*
X576750Y505000D02*
X578125Y506375D01*
X449056Y482348D02*
X458405Y473000D01*
X451257Y482977D02*
X459033Y475200D01*
X449056Y482348D02*
Y499443D01*
X451257Y482977D02*
Y500355D01*
X459033Y475200D02*
X467371D01*
X458405Y473000D02*
X473575D01*
X384250Y405250D02*
Y458250D01*
X373000Y394000D02*
X384250Y405250D01*
X642199Y502102D02*
X649402Y494900D01*
X621405Y502102D02*
X642199D01*
X589195Y500102D02*
X633294D01*
X578850Y489757D02*
X589195Y500102D01*
X578850Y480022D02*
Y489757D01*
X446955Y504657D02*
X451257Y500355D01*
X334043Y504657D02*
X446955D01*
X578125Y522244D02*
X583250Y527369D01*
X578125Y506375D02*
Y522244D01*
X588564Y502300D02*
X621207D01*
X576850Y490586D02*
X588564Y502300D01*
X576850Y480850D02*
Y490586D01*
X577199Y504551D02*
X578051D01*
X576750Y505000D02*
X577199Y504551D01*
X574000Y472250D02*
X580850Y479100D01*
X495763Y472250D02*
X574000D01*
X496874Y474250D02*
X573078D01*
X578850Y480022D01*
X572250Y476250D02*
X576850Y480850D01*
X524000Y476250D02*
X572250D01*
X505350Y494900D02*
X524000Y476250D01*
X500653Y494900D02*
X505350D01*
X484294Y483719D02*
X495763Y472250D01*
X489747Y481377D02*
X496874Y474250D01*
X446043Y502457D02*
X449056Y499443D01*
X333132Y502457D02*
X446043D01*
X331919Y503670D02*
X333132Y502457D01*
X300414Y503670D02*
X331919D01*
X297400Y500657D02*
X300414Y503670D01*
X332830Y505870D02*
X334043Y504657D01*
X467371Y475200D02*
X468462Y476291D01*
X776050Y297297D02*
Y323700D01*
Y297297D02*
X784847Y288500D01*
X850000D01*
X861000Y277500D01*
Y250647D02*
Y277500D01*
X742000Y337980D02*
Y415000D01*
X758882Y431882D01*
X896159D01*
X741981Y332016D02*
Y337959D01*
X737401Y327435D02*
X741981Y332016D01*
X489747Y481377D02*
Y494900D01*
X468462Y476291D02*
Y486970D01*
X470992Y489500D01*
X484347D01*
X489747Y494900D01*
X473575Y473000D02*
X484294Y483719D01*
X621207Y502300D02*
X621405Y502102D01*
X633294Y500102D02*
X638496Y494900D01*
X638149Y489500D02*
X643949Y483700D01*
X568000Y435124D02*
X583626Y450750D01*
X568000Y356750D02*
Y435124D01*
X290000Y531000D02*
X296996Y537996D01*
X495300Y376558D02*
X520500Y351358D01*
Y339578D02*
Y351358D01*
X263250Y502750D02*
Y511000D01*
Y502750D02*
X265330Y500670D01*
X741981Y337959D02*
X742000Y337980D01*
X727830Y327435D02*
X737401D01*
X757357D02*
X772315D01*
X776050Y323700D01*
X495200Y518437D02*
X500653Y512984D01*
Y494900D02*
Y512984D01*
X271739Y500657D02*
X297400D01*
X271726Y500670D02*
X271739Y500657D01*
X265330Y500670D02*
X271726D01*
X271393Y508357D02*
X273893Y505857D01*
X295260Y505870D02*
X332830D01*
X295247Y505857D02*
X295260Y505870D01*
X273893Y505857D02*
X295247D01*
X271393Y508357D02*
Y522857D01*
X263250Y531000D02*
X271393Y522857D01*
X583250Y527369D02*
X641750Y527369D01*
X643949Y510319D02*
Y525170D01*
X641750Y527369D02*
X643949Y525170D01*
X568000Y356750D02*
X569000Y355750D01*
X520500Y339578D02*
X532643Y327435D01*
X373000Y385000D02*
Y394000D01*
X320250Y403000D02*
X343750D01*
X921000Y225000D02*
G03*
X927229Y230989I120J6109D01*
G01*
X230500Y238216D02*
G03*
X243750Y225000I13233J17D01*
G01*
X243310Y541500D02*
G03*
X230500Y528500I95J-12905D01*
G01*
X927250D02*
G03*
X914750Y541500I-12750J250D01*
G01*
X243750Y225000D02*
X921000Y225000D01*
X927250Y230989D02*
X927250Y528500D01*
X230500Y238216D02*
X230500Y528500D01*
X243310Y541500D02*
X914750Y541500D01*
D15*
X301217Y477000D02*
X305867Y472350D01*
X265530Y477000D02*
X301217D01*
X258250Y484280D02*
X265530Y477000D01*
X258250Y484280D02*
Y502250D01*
X252750Y478781D02*
X258250Y484280D01*
X252750Y470000D02*
Y478781D01*
X252495Y509495D02*
X257250Y514250D01*
X252495Y491814D02*
Y509495D01*
X261500Y470550D02*
X347050D01*
X261200Y470250D02*
X261500Y470550D01*
X259499Y537250D02*
X270375D01*
X257250Y535001D02*
X259499Y537250D01*
X257250Y514250D02*
Y535001D01*
X289750Y364200D02*
X296750Y371200D01*
X289750Y352750D02*
Y364200D01*
X451157Y474450D02*
X503607Y422000D01*
X450411Y472650D02*
X501000Y422061D01*
X383885Y472650D02*
X450411D01*
X383139Y474450D02*
X451157D01*
X347450Y473700D02*
X382389D01*
X383139Y474450D01*
X383135Y471900D02*
X383885Y472650D01*
X348400Y471900D02*
X383135D01*
X505500Y412500D02*
X511500D01*
X505250Y412250D02*
X505500Y412500D01*
X567885Y531600D02*
X659900D01*
X565735Y533750D02*
X567885Y531600D01*
X501000Y416500D02*
Y422061D01*
X503607Y422000D02*
X512327D01*
X346100Y472350D02*
X347450Y473700D01*
X305867Y472350D02*
X346100D01*
X347050Y470550D02*
X348400Y471900D01*
X659900Y531600D02*
X669000Y522500D01*
X501000Y416500D02*
X505250Y412250D01*
X287500Y350500D02*
X289750Y352750D01*
X287500Y321598D02*
Y350500D01*
X279500Y313598D02*
X287500Y321598D01*
X252750Y470000D02*
X258152Y464598D01*
X281000D01*
X288500Y457098D01*
Y447746D02*
Y457098D01*
Y447746D02*
X296750Y439496D01*
Y371200D02*
Y439496D01*
X506105Y520755D02*
X512550Y527200D01*
X506105Y510319D02*
Y520755D01*
X512550Y527200D02*
X517500D01*
X270375Y537250D02*
X276625Y531000D01*
X732000Y465750D02*
X748000D01*
X504750Y533750D02*
X565735D01*
X500653Y529653D02*
X504750Y533750D01*
X500653Y521500D02*
Y529653D01*
X716979Y503500D02*
X737500D01*
X669000Y518000D02*
Y522500D01*
D69*
X370278Y347398D02*
X383425Y334250D01*
X522706Y317498D02*
X532643Y327435D01*
X471748Y317498D02*
X522706D01*
X451000Y296750D02*
X471748Y317498D01*
X554500Y398973D02*
Y446140D01*
X543500Y387973D02*
X554500Y398973D01*
X543500Y358000D02*
Y387973D01*
X355450Y446750D02*
X357000D01*
X439500Y447500D02*
Y451750D01*
Y447500D02*
X456846Y430154D01*
X422154Y451750D02*
X450346Y423558D01*
X419000Y451750D02*
X422154D01*
X344250Y435550D02*
X355450Y446750D01*
X297750Y289888D02*
X298174Y289464D01*
X297750Y289888D02*
Y291968D01*
X294968Y294750D02*
X297750Y291968D01*
X292888Y294750D02*
X294968D01*
X291888Y295750D02*
X292888Y294750D01*
X394825Y396575D02*
X403000Y404750D01*
X394825Y371945D02*
Y396575D01*
X554500Y446140D02*
X554610Y446250D01*
X543500Y358000D02*
X544026Y357474D01*
Y301250D02*
Y357474D01*
X527276Y284500D02*
X544026Y301250D01*
X417937Y284500D02*
X527276D01*
X394687Y307750D02*
X417937Y284500D01*
X298174Y289464D02*
X375313D01*
X376778Y290929D01*
Y310028D01*
X382250Y315500D01*
X396750D01*
X415500Y296750D01*
X451000D01*
X362500Y334935D02*
X370000Y327435D01*
X310750Y297500D02*
X348750D01*
X456846Y368703D02*
Y430154D01*
X450346Y365096D02*
Y423558D01*
X456846Y368703D02*
X478429Y347120D01*
X432370D02*
X450346Y365096D01*
X383425Y321500D02*
Y334250D01*
X384925Y320000D02*
X403520D01*
X383425Y321500D02*
X384925Y320000D01*
X370278Y347398D02*
X394825Y371945D01*
X337316Y367000D02*
X349250Y378934D01*
Y405175D01*
X344250Y410175D02*
X349250Y405175D01*
X344250Y410175D02*
Y435550D01*
X307000Y367000D02*
X337316D01*
X424214Y347120D02*
X432370D01*
X370000D02*
X370278Y347398D01*
X362500Y391000D02*
X370000Y398500D01*
X362500Y334935D02*
Y391000D01*
X353000Y301750D02*
Y310435D01*
X370000Y327435D01*
X291888Y332638D02*
X294500Y335250D01*
X291888Y295750D02*
Y332638D01*
X305000Y335250D02*
X310750Y341000D01*
Y341750D01*
X294500Y335250D02*
X305000D01*
X403520Y320000D02*
X411510Y327990D01*
X348750Y297500D02*
X353000Y301750D01*
X411510Y327990D02*
X424176D01*
D70*
X489747Y521500D02*
Y531353D01*
X485850Y535250D02*
X489747Y531353D01*
X304250Y535250D02*
X485850D01*
X649402Y487367D02*
X654728Y492694D01*
X649402Y478895D02*
Y487367D01*
X646500Y475993D02*
X649402Y478895D01*
X524727Y466091D02*
X644091D01*
X519386Y460750D02*
X524727Y466091D01*
X644091D02*
X646500Y468500D01*
X504886Y463500D02*
X519500Y448886D01*
X524750Y394250D02*
Y443495D01*
X519429Y448815D02*
X524750Y443495D01*
X519429Y448815D02*
X519500Y448886D01*
X385000Y468750D02*
X385500D01*
X363928Y447678D02*
X385000Y468750D01*
X422250Y456250D02*
X453596Y424904D01*
X389000Y435500D02*
X409750Y456250D01*
X422250D01*
X522000Y391500D02*
X524750Y394250D01*
X501594Y391500D02*
X522000D01*
X324888Y374500D02*
X334750D01*
X324638Y374250D02*
X324888Y374500D01*
X641071Y347120D02*
Y424680D01*
X671250Y454858D01*
X582000Y233750D02*
X742412D01*
X570000Y245750D02*
X582000Y233750D01*
X742412D02*
X757357Y248695D01*
X662250Y535750D02*
X675500Y522500D01*
X580774Y535750D02*
X662250D01*
X389000Y420750D02*
Y435500D01*
X448750Y446742D02*
Y466000D01*
X472500Y337250D02*
X482294D01*
X462483Y327233D02*
X472500Y337250D01*
X462483Y321332D02*
Y327233D01*
X453596Y363749D02*
X458084Y359261D01*
Y336618D02*
Y359261D01*
X448901Y327435D02*
X458084Y336618D01*
X492800Y375523D02*
Y390665D01*
X485822Y397643D02*
X492800Y390665D01*
X474857Y397643D02*
X485822D01*
X460250Y412250D02*
X474857Y397643D01*
X460250Y412250D02*
Y435242D01*
X492800Y375523D02*
X494247Y374076D01*
Y349203D02*
Y374076D01*
X482294Y337250D02*
X494247Y349203D01*
X340472Y307750D02*
Y314778D01*
X453596Y363749D02*
Y424904D01*
X448750Y446742D02*
X460250Y435242D01*
X331250Y324000D02*
Y335750D01*
X333250Y337750D01*
X347500D01*
X353500Y343750D01*
X359250Y331500D02*
Y401750D01*
X355185Y327435D02*
X359250Y331500D01*
X340472Y327435D02*
X355185D01*
X448901Y307750D02*
X462483Y321332D01*
X681250Y395375D02*
Y458250D01*
X654250Y368375D02*
X681250Y395375D01*
X414500Y364500D02*
X440000Y390000D01*
X414500Y347248D02*
Y364500D01*
X363928Y412324D02*
Y447678D01*
X646500Y470954D02*
Y475993D01*
X622138Y474405D02*
Y483700D01*
X616823Y469091D02*
X622138Y474405D01*
X510477Y469091D02*
X616823D01*
X504886Y463500D02*
X510477Y469091D01*
X518414Y460750D02*
X519386D01*
X498750Y463500D02*
X504886D01*
X660307Y458057D02*
Y494900D01*
X649250Y447000D02*
X660307Y458057D01*
X587500Y447000D02*
X649250D01*
X652088Y504602D02*
X654728Y501962D01*
X628898Y504602D02*
X652088D01*
X627717Y505783D02*
X628898Y504602D01*
X621598Y483160D02*
X622138Y483700D01*
X654728Y492694D02*
Y501962D01*
X290000Y521000D02*
X304250Y535250D01*
X675500Y475500D02*
Y522500D01*
X671500Y471500D02*
X675500Y475500D01*
X627717Y505783D02*
Y521374D01*
X627591Y521500D02*
X627717Y521374D01*
X317388Y381500D02*
X324638Y374250D01*
X307500Y391388D02*
X317388Y381500D01*
X307500Y391388D02*
Y409750D01*
X353500Y343750D02*
Y401896D01*
X363928Y412324D01*
X331250Y324000D02*
X340472Y314778D01*
X654250Y307556D02*
Y368375D01*
X641071Y294377D02*
X654250Y307556D01*
X667750Y462750D02*
X676750D01*
X665760Y464740D02*
Y483700D01*
X676750Y462750D02*
X681250Y458250D01*
X665760Y464740D02*
X667750Y462750D01*
X641071Y248695D02*
Y294377D01*
X575500Y435000D02*
X587500Y447000D01*
X575500Y307750D02*
Y435000D01*
Y307750D02*
X586750Y296500D01*
Y248695D02*
Y296500D01*
X394687Y327435D02*
X414500Y347248D01*
X557222Y307750D02*
X570000Y294972D01*
Y245750D02*
Y294972D01*
X365906Y408406D02*
X366374D01*
X359250Y401750D02*
X365906Y408406D01*
D71*
X492500Y455000D02*
X493031D01*
X596698Y387448D02*
X614133D01*
X585000Y375750D02*
X596698Y387448D01*
X281000Y271500D02*
X288750D01*
X293000Y275750D01*
X632250Y351500D02*
X637500Y356750D01*
X627250Y351500D02*
X632250D01*
X622500Y356250D02*
X627250Y351500D01*
X622500Y356250D02*
Y364389D01*
X616797Y370092D02*
X622500Y364389D01*
X637500Y356750D02*
Y393240D01*
X630887Y357750D02*
Y390413D01*
X451985Y476450D02*
X472935Y455500D01*
X382311Y476450D02*
X451985D01*
X327078Y475700D02*
X381561D01*
X382311Y476450D01*
X293000Y275750D02*
Y290000D01*
X613750Y407550D02*
X630887Y390413D01*
X501933Y408150D02*
X514026D01*
X497400Y403617D02*
X501933Y408150D01*
X497400Y378185D02*
Y403617D01*
X516427Y410552D02*
Y431604D01*
X514026Y408150D02*
X516427Y410552D01*
X518122Y357462D02*
X522301D01*
X497400Y378185D02*
X518122Y357462D01*
X472935Y455500D02*
X492500D01*
X451250Y511000D02*
X451253D01*
X451250D02*
X462483Y499767D01*
Y483719D02*
Y499767D01*
X326528Y476250D02*
X327078Y475700D01*
X579773Y499000D02*
X585173Y504400D01*
X572952Y499000D02*
X579773D01*
X567460Y504492D02*
X572952Y499000D01*
X495200Y492300D02*
X502738Y484762D01*
X495200Y492300D02*
Y497500D01*
X610500Y370092D02*
X616797D01*
X479500Y532500D02*
X484200Y527800D01*
X343146Y532500D02*
X479500D01*
X318896Y508250D02*
X343146Y532500D01*
X290500Y448575D02*
Y461750D01*
Y448575D02*
X313250Y425825D01*
X325500Y476250D02*
X326528D01*
X493031Y455000D02*
X516427Y431604D01*
X522301Y357462D02*
X532643Y347120D01*
X547750Y509500D02*
Y528250D01*
Y509500D02*
X552758Y504492D01*
X567460D01*
X585173Y504400D02*
X605313D01*
X611232Y510319D01*
X313250Y397550D02*
Y425825D01*
Y397550D02*
X319300Y391500D01*
X344250D01*
X290000Y511000D02*
X298750D01*
X299500Y510250D01*
Y510000D02*
Y510250D01*
Y510000D02*
X301250Y508250D01*
X318896D01*
X484200Y517800D02*
Y527800D01*
Y517800D02*
X489747Y512253D01*
Y502953D02*
Y512253D01*
Y502953D02*
X495200Y497500D01*
X502738Y484762D02*
X505062D01*
X506105Y483719D01*
X614133Y387448D02*
X614435Y387750D01*
X631500Y399240D02*
X637500Y393240D01*
X534000Y413000D02*
Y436299D01*
X534500Y436799D01*
X534150Y437150D02*
X534500Y436799D01*
D73*
X269500Y247654D02*
D03*
Y488205D02*
D03*
D74*
X259500Y454858D02*
D03*
X279500D02*
D03*
X259500Y433126D02*
D03*
Y422260D02*
D03*
Y411394D02*
D03*
Y400527D02*
D03*
Y389661D02*
D03*
Y378795D02*
D03*
Y367929D02*
D03*
Y357063D02*
D03*
Y346197D02*
D03*
Y335331D02*
D03*
Y324465D02*
D03*
Y313598D02*
D03*
Y302732D02*
D03*
Y291866D02*
D03*
Y281000D02*
D03*
X269500Y449386D02*
D03*
Y438522D02*
D03*
Y427659D02*
D03*
Y416795D02*
D03*
Y405932D02*
D03*
Y395068D02*
D03*
Y384205D02*
D03*
Y373341D02*
D03*
Y362478D02*
D03*
Y351614D02*
D03*
Y340751D02*
D03*
Y329887D02*
D03*
Y319024D02*
D03*
Y308160D02*
D03*
Y297297D02*
D03*
Y286433D02*
D03*
X279500Y443992D02*
D03*
Y433126D02*
D03*
Y422260D02*
D03*
Y411394D02*
D03*
Y400527D02*
D03*
Y389661D02*
D03*
Y378795D02*
D03*
Y367929D02*
D03*
Y357063D02*
D03*
Y346197D02*
D03*
Y335331D02*
D03*
Y324465D02*
D03*
Y313598D02*
D03*
Y302732D02*
D03*
X259500Y443992D02*
D03*
X279500Y291866D02*
D03*
Y281000D02*
D03*
D75*
X896159Y431882D02*
D03*
X907341Y437335D02*
D03*
X896159Y442787D02*
D03*
X907341Y448240D02*
D03*
X896159Y453693D02*
D03*
X907341Y459146D02*
D03*
X896159Y464598D02*
D03*
X907341Y470051D02*
D03*
X342750Y494900D02*
D03*
X348203Y483719D02*
D03*
X353656Y494900D02*
D03*
X359108Y483719D02*
D03*
X364561Y494900D02*
D03*
X370014Y483719D02*
D03*
X375466Y494900D02*
D03*
X380919Y483719D02*
D03*
Y510319D02*
D03*
X375466Y521500D02*
D03*
X370014Y510319D02*
D03*
X364561Y521500D02*
D03*
X359108Y510319D02*
D03*
X353656Y521500D02*
D03*
X348203Y510319D02*
D03*
X342750Y521500D02*
D03*
X467936Y494900D02*
D03*
X473389Y483719D02*
D03*
X478841Y494900D02*
D03*
X484294Y483719D02*
D03*
X489747Y494900D02*
D03*
X495200Y483719D02*
D03*
X500653Y494900D02*
D03*
X506105Y483719D02*
D03*
Y510319D02*
D03*
X500653Y521500D02*
D03*
X495200Y510319D02*
D03*
X489747Y521500D02*
D03*
X484294Y510319D02*
D03*
X478841Y521500D02*
D03*
X473389Y510319D02*
D03*
X467936Y521500D02*
D03*
X907091Y345051D02*
D03*
X895909Y339598D02*
D03*
X907091Y334146D02*
D03*
X895909Y328693D02*
D03*
X907091Y323240D02*
D03*
X895909Y317787D02*
D03*
X907091Y312335D02*
D03*
X895909Y306882D02*
D03*
D76*
X896159Y475504D02*
D03*
X895909Y350504D02*
D03*
D77*
X901750Y502886D02*
D03*
Y404500D02*
D03*
X408301Y489700D02*
D03*
X309915D02*
D03*
Y521500D02*
D03*
X408301D02*
D03*
X533487Y489700D02*
D03*
X435101D02*
D03*
Y521500D02*
D03*
X533487D02*
D03*
X901500Y279500D02*
D03*
Y377886D02*
D03*
D78*
X841250Y324250D02*
D03*
X830384D02*
D03*
X852077D02*
D03*
X757357Y248695D02*
D03*
X727830D02*
D03*
Y307750D02*
D03*
X757357D02*
D03*
X727830Y327435D02*
D03*
X757357D02*
D03*
X727830Y347120D02*
D03*
X757357D02*
D03*
X641071Y248695D02*
D03*
X611544D02*
D03*
Y307750D02*
D03*
X641071D02*
D03*
X611544Y327435D02*
D03*
X641071D02*
D03*
X611544Y347120D02*
D03*
X641071D02*
D03*
X532643Y248695D02*
D03*
X503115D02*
D03*
Y307750D02*
D03*
X532643D02*
D03*
X503115Y327435D02*
D03*
X532643D02*
D03*
X503115Y347120D02*
D03*
X532643D02*
D03*
X478429Y248695D02*
D03*
X448901D02*
D03*
Y307750D02*
D03*
X478429D02*
D03*
X448901Y327435D02*
D03*
X478429D02*
D03*
X448901Y347120D02*
D03*
X478429D02*
D03*
X424214Y248695D02*
D03*
X394687D02*
D03*
Y307750D02*
D03*
X424214D02*
D03*
X394687Y327435D02*
D03*
X424214D02*
D03*
X394687Y347120D02*
D03*
X424214D02*
D03*
X703286Y248695D02*
D03*
X673758D02*
D03*
Y307750D02*
D03*
X703286D02*
D03*
X673758Y327435D02*
D03*
X703286D02*
D03*
X673758Y347120D02*
D03*
X703286D02*
D03*
X586750Y248945D02*
D03*
X557222D02*
D03*
Y308000D02*
D03*
X586750D02*
D03*
X557222Y327685D02*
D03*
X586750D02*
D03*
X557222Y347370D02*
D03*
X586750D02*
D03*
X370000Y248695D02*
D03*
X340472D02*
D03*
Y307750D02*
D03*
X370000D02*
D03*
X340472Y327435D02*
D03*
X370000D02*
D03*
X340472Y347120D02*
D03*
X370000D02*
D03*
D79*
X867313Y324250D02*
D03*
X804321D02*
D03*
X824990Y506848D02*
D03*
X803337D02*
D03*
X846644D02*
D03*
X868297D02*
D03*
X877000Y250647D02*
D03*
X861000D02*
D03*
X833750Y250895D02*
D03*
X817750D02*
D03*
D80*
X308000Y240250D02*
D03*
X244750Y527750D02*
D03*
X911750Y239613D02*
D03*
X911250Y527250D02*
D03*
D81*
X693181Y490000D02*
D03*
X562000D02*
D03*
Y521500D02*
D03*
X693181D02*
D03*
D82*
X665760Y483700D02*
D03*
X660307Y494900D02*
D03*
X654854Y483700D02*
D03*
X649402Y494900D02*
D03*
X643949Y483700D02*
D03*
X638496Y494900D02*
D03*
X633043Y483700D02*
D03*
X627591Y494900D02*
D03*
X622138Y483700D02*
D03*
X616685Y494900D02*
D03*
X611232Y483700D02*
D03*
X605780Y494900D02*
D03*
X600327Y483700D02*
D03*
X594874Y494900D02*
D03*
Y521500D02*
D03*
X600327Y510319D02*
D03*
X605780Y521500D02*
D03*
X611232Y510319D02*
D03*
X616685Y521500D02*
D03*
X622138Y510319D02*
D03*
X627591Y521500D02*
D03*
X633043Y510319D02*
D03*
X638496Y521500D02*
D03*
X643949Y510319D02*
D03*
X649402Y521500D02*
D03*
X654854Y510319D02*
D03*
X660307Y521500D02*
D03*
X665760Y510319D02*
D03*
D83*
X589421Y483700D02*
D03*
Y510319D02*
D03*
X337297Y483719D02*
D03*
Y510319D02*
D03*
X462483Y483719D02*
D03*
Y510319D02*
D03*
D84*
X290000Y531000D02*
D03*
Y521000D02*
D03*
Y511000D02*
D03*
X276625Y531000D02*
D03*
Y521000D02*
D03*
Y511000D02*
D03*
X263250Y531000D02*
D03*
Y521000D02*
D03*
Y511000D02*
D03*
X310750Y356500D02*
D03*
X300750D02*
D03*
X310750Y341750D02*
D03*
X300750D02*
D03*
X310750Y327000D02*
D03*
X300750D02*
D03*
Y312250D02*
D03*
X310750D02*
D03*
Y297500D02*
D03*
X300750D02*
D03*
Y282750D02*
D03*
X310750D02*
D03*
Y268000D02*
D03*
X300750D02*
D03*
D85*
X543250Y240500D02*
D03*
X325583Y247252D02*
D03*
X252495Y491814D02*
D03*
X261200Y470250D02*
D03*
X527000Y461000D02*
D03*
X275500Y233000D02*
D03*
X290250D02*
D03*
X281000Y271500D02*
D03*
X290250Y461750D02*
D03*
X289750Y364200D02*
D03*
X433750Y425333D02*
D03*
X630887Y357750D02*
D03*
X519429Y448815D02*
D03*
X448750Y468429D02*
D03*
X357000Y446750D02*
D03*
X385500Y468750D02*
D03*
X437750Y467920D02*
D03*
X458000Y452500D02*
D03*
X439500Y451750D02*
D03*
X419000D02*
D03*
X358750Y421250D02*
D03*
X396862Y409500D02*
D03*
X581614Y368642D02*
D03*
X585000Y375750D02*
D03*
X581436Y383500D02*
D03*
X501594Y391500D02*
D03*
X334750Y374500D02*
D03*
X346665Y363840D02*
D03*
X511500Y412500D02*
D03*
X293000Y290000D02*
D03*
X693500Y439750D02*
D03*
X580774Y535750D02*
D03*
X403000Y404750D02*
D03*
X488500Y368750D02*
D03*
X554610Y446250D02*
D03*
X469500Y425250D02*
D03*
X440000Y390000D02*
D03*
X451253Y511000D02*
D03*
X646500Y468500D02*
D03*
X578051Y504551D02*
D03*
X518414Y460750D02*
D03*
X498750Y463500D02*
D03*
X764500Y384250D02*
D03*
X517500Y527200D02*
D03*
X583626Y450750D02*
D03*
X610500Y370092D02*
D03*
X512327Y422000D02*
D03*
X492500Y455500D02*
D03*
X258250Y502250D02*
D03*
X650914Y387000D02*
D03*
X719000Y417000D02*
D03*
X732000Y465750D02*
D03*
X748000D02*
D03*
X713000Y457250D02*
D03*
X792300Y447500D02*
D03*
X737500Y503500D02*
D03*
X547750Y528670D02*
D03*
X344250Y391500D02*
D03*
X325500Y476250D02*
D03*
X716979Y503500D02*
D03*
X669000Y518000D02*
D03*
X516500Y398500D02*
D03*
X614435Y387750D02*
D03*
X650700Y396000D02*
D03*
X693028Y403500D02*
D03*
X720500Y510319D02*
D03*
X631500Y399240D02*
D03*
X613750Y407550D02*
D03*
X568000Y356750D02*
D03*
X307500Y409750D02*
D03*
X317388Y381500D02*
D03*
X313250Y445750D02*
D03*
X671500Y471500D02*
D03*
X671250Y454858D02*
D03*
X544950Y404250D02*
D03*
X614250Y396000D02*
D03*
X665876Y430126D02*
D03*
X373000Y385000D02*
D03*
X320250Y403000D02*
D03*
X343750D02*
D03*
X436401Y366821D02*
D03*
X441401Y403321D02*
D03*
X389000Y420750D02*
D03*
X307000Y367000D02*
D03*
X534000Y413000D02*
D03*
X534150Y437150D02*
D03*
X505000Y456250D02*
D03*
X370000Y398500D02*
D03*
X366374Y408406D02*
D03*
X470000Y391750D02*
D03*
X418000Y424250D02*
D03*
X373500Y426000D02*
D03*
X351142Y411250D02*
D03*
X481250Y406675D02*
D03*
X410375Y410793D02*
D03*
X380250Y410500D02*
D03*
X405875Y367043D02*
D03*
X375000Y367000D02*
D03*
D86*
X896159Y431882D02*
X901888D01*
X907341Y437335D01*
M02*
