G04*
G04 #@! TF.GenerationSoftware,Altium Limited,Altium Designer,19.0.10 (269)*
G04*
G04 Layer_Color=255*
%FSLAX25Y25*%
%MOIN*%
G70*
G01*
G75*
%ADD18R,0.02165X0.02165*%
%ADD19R,0.09000X0.02400*%
%ADD20C,0.03000*%
%ADD21R,0.09449X0.20276*%
%ADD22R,0.24606X0.28347*%
%ADD23R,0.04724X0.11811*%
%ADD24R,0.03543X0.02559*%
%ADD25R,0.04921X0.06299*%
%ADD26R,0.03543X0.03740*%
%ADD27R,0.01181X0.05512*%
%ADD28R,0.05906X0.04331*%
%ADD29R,0.23622X0.10236*%
%ADD30R,0.08268X0.17126*%
%ADD31R,0.04600X0.02000*%
%ADD32R,0.02165X0.02165*%
%ADD33R,0.03740X0.03543*%
%ADD34R,0.06000X0.08000*%
%ADD35R,0.06000X0.04000*%
%ADD36R,0.04000X0.06000*%
%ADD37R,0.08000X0.06000*%
%ADD73C,0.13800*%
%ADD74C,0.06500*%
%ADD75C,0.06653*%
%ADD76R,0.06653X0.06653*%
%ADD77C,0.18740*%
%ADD78C,0.09055*%
%ADD79C,0.11811*%
%ADD80C,0.16929*%
%ADD81C,0.18898*%
%ADD82C,0.06653*%
%ADD83R,0.06653X0.06653*%
%ADD84C,0.07087*%
D18*
X289000Y405100D02*
D03*
Y400500D02*
D03*
X591750Y230450D02*
D03*
Y235050D02*
D03*
X616685Y365050D02*
D03*
Y360450D02*
D03*
X616797Y379621D02*
D03*
Y375021D02*
D03*
X645250Y363840D02*
D03*
Y368440D02*
D03*
X636047Y363354D02*
D03*
Y367954D02*
D03*
X625797Y379525D02*
D03*
Y374925D02*
D03*
Y368025D02*
D03*
Y363425D02*
D03*
X645047Y379800D02*
D03*
Y375200D02*
D03*
X319750Y369950D02*
D03*
Y374550D02*
D03*
X329250Y369950D02*
D03*
Y374550D02*
D03*
X340222Y369700D02*
D03*
Y374300D02*
D03*
X294250Y368700D02*
D03*
Y373300D02*
D03*
X300750Y368700D02*
D03*
Y373300D02*
D03*
X319750Y360950D02*
D03*
Y365550D02*
D03*
X329250Y360950D02*
D03*
Y365550D02*
D03*
X340222Y360700D02*
D03*
Y365300D02*
D03*
X469250Y407550D02*
D03*
Y402950D02*
D03*
Y418800D02*
D03*
Y414200D02*
D03*
X362500Y447300D02*
D03*
Y442700D02*
D03*
X384500Y447300D02*
D03*
Y442700D02*
D03*
X404500Y447550D02*
D03*
Y442950D02*
D03*
X394500Y447550D02*
D03*
Y442950D02*
D03*
X351000Y447300D02*
D03*
Y442700D02*
D03*
Y436850D02*
D03*
Y432250D02*
D03*
X374000Y447300D02*
D03*
Y442700D02*
D03*
Y436850D02*
D03*
Y432250D02*
D03*
X324500Y289950D02*
D03*
Y294550D02*
D03*
X423750Y447550D02*
D03*
Y442950D02*
D03*
X444000Y447550D02*
D03*
Y442950D02*
D03*
X463250Y447550D02*
D03*
Y442950D02*
D03*
X414250Y447550D02*
D03*
Y442950D02*
D03*
Y436850D02*
D03*
Y432250D02*
D03*
X434000Y447550D02*
D03*
Y442950D02*
D03*
Y436850D02*
D03*
Y432250D02*
D03*
X453000Y447550D02*
D03*
Y442950D02*
D03*
Y437050D02*
D03*
Y432450D02*
D03*
X472500Y447550D02*
D03*
Y442950D02*
D03*
Y436550D02*
D03*
Y431950D02*
D03*
X482500Y447550D02*
D03*
Y442950D02*
D03*
X394500Y436850D02*
D03*
Y432250D02*
D03*
D19*
X333250Y446000D02*
D03*
Y441000D02*
D03*
Y436000D02*
D03*
Y431000D02*
D03*
Y426000D02*
D03*
Y421000D02*
D03*
Y416000D02*
D03*
Y411000D02*
D03*
Y406000D02*
D03*
Y401000D02*
D03*
Y396000D02*
D03*
Y391000D02*
D03*
Y386000D02*
D03*
Y381000D02*
D03*
X297250D02*
D03*
Y386000D02*
D03*
Y391000D02*
D03*
Y396000D02*
D03*
Y401000D02*
D03*
Y406000D02*
D03*
Y411000D02*
D03*
Y416000D02*
D03*
Y421000D02*
D03*
Y426000D02*
D03*
Y431000D02*
D03*
Y436000D02*
D03*
Y441000D02*
D03*
Y446000D02*
D03*
D20*
X693028Y394031D02*
D03*
X543250Y232848D02*
D03*
X652500Y375250D02*
D03*
X885750Y432000D02*
D03*
X596047Y471250D02*
D03*
X755312Y446500D02*
D03*
X864061Y309000D02*
D03*
X872750Y286250D02*
D03*
X282250Y229250D02*
D03*
X264750D02*
D03*
X558696Y375750D02*
D03*
X535523Y376905D02*
D03*
X731250Y457000D02*
D03*
X774000Y474500D02*
D03*
D21*
X846713Y527500D02*
D03*
X873287D02*
D03*
X798213Y527750D02*
D03*
X824787D02*
D03*
X842791Y304549D02*
D03*
X816216D02*
D03*
D22*
X630726Y419819D02*
D03*
X596774Y419069D02*
D03*
X517774Y374931D02*
D03*
X563024Y418819D02*
D03*
D23*
X639703Y396000D02*
D03*
X621750D02*
D03*
X605750Y395250D02*
D03*
X587797D02*
D03*
X508797Y398750D02*
D03*
X526750D02*
D03*
X572000Y395000D02*
D03*
X554047D02*
D03*
D24*
X683972Y233500D02*
D03*
X693028D02*
D03*
X576514Y233000D02*
D03*
X567459D02*
D03*
X629514Y233250D02*
D03*
X620459D02*
D03*
X745964Y233750D02*
D03*
X736909D02*
D03*
X512359Y233250D02*
D03*
X521414D02*
D03*
X458309Y232250D02*
D03*
X467364D02*
D03*
X404259Y231500D02*
D03*
X413314D02*
D03*
X350209D02*
D03*
X359264D02*
D03*
D25*
X441365Y419846D02*
D03*
X457113D02*
D03*
Y379295D02*
D03*
X441365D02*
D03*
X410251Y420069D02*
D03*
X425999D02*
D03*
Y379518D02*
D03*
X410251D02*
D03*
X350626Y420276D02*
D03*
X366374D02*
D03*
Y379724D02*
D03*
X350626D02*
D03*
X380051Y419776D02*
D03*
X395799D02*
D03*
Y379224D02*
D03*
X380051D02*
D03*
X764374Y432276D02*
D03*
X748626D02*
D03*
Y391724D02*
D03*
X764374D02*
D03*
X665876Y401024D02*
D03*
X681624D02*
D03*
Y441576D02*
D03*
X665876D02*
D03*
D26*
X599449Y232750D02*
D03*
X605551D02*
D03*
X603548Y363500D02*
D03*
X597446D02*
D03*
X527949Y430500D02*
D03*
X534051D02*
D03*
X527949Y420047D02*
D03*
X534051D02*
D03*
X777449Y447250D02*
D03*
X783551D02*
D03*
X740199Y472750D02*
D03*
X746301D02*
D03*
D27*
X476293Y398386D02*
D03*
X478852D02*
D03*
X481411D02*
D03*
X483970D02*
D03*
X486529D02*
D03*
X489089D02*
D03*
X491648D02*
D03*
X494207D02*
D03*
X476293Y421614D02*
D03*
X478852D02*
D03*
X481411D02*
D03*
X483970D02*
D03*
X486529D02*
D03*
X489089D02*
D03*
X491648D02*
D03*
X494207D02*
D03*
D28*
X553724Y382750D02*
D03*
X544276D02*
D03*
X544026Y370250D02*
D03*
X553474D02*
D03*
X573474Y382500D02*
D03*
X564026D02*
D03*
X564276Y370250D02*
D03*
X573724D02*
D03*
D29*
X762082Y534205D02*
D03*
Y484795D02*
D03*
D30*
X803984Y305000D02*
D03*
X792763D02*
D03*
D31*
X545200Y391760D02*
D03*
Y395500D02*
D03*
Y399240D02*
D03*
X536800D02*
D03*
Y391760D02*
D03*
X600497Y371735D02*
D03*
Y375475D02*
D03*
Y379215D02*
D03*
X592097D02*
D03*
Y371735D02*
D03*
D32*
X605747Y382548D02*
D03*
X610347D02*
D03*
X724551Y518958D02*
D03*
X719951D02*
D03*
X724551Y525729D02*
D03*
X719951D02*
D03*
X724551Y532500D02*
D03*
X719951D02*
D03*
X522301Y424250D02*
D03*
X517701D02*
D03*
X545550Y428000D02*
D03*
X540950D02*
D03*
X545550Y419250D02*
D03*
X540950D02*
D03*
X541200Y410500D02*
D03*
X545800D02*
D03*
X522300Y430500D02*
D03*
X517700D02*
D03*
X545300Y437250D02*
D03*
X540700D02*
D03*
X516950Y416750D02*
D03*
X521550D02*
D03*
Y410500D02*
D03*
X516950D02*
D03*
X482300Y388750D02*
D03*
X477700D02*
D03*
X501200Y412500D02*
D03*
X505800D02*
D03*
X501200Y422000D02*
D03*
X505800D02*
D03*
X489200Y388750D02*
D03*
X493800D02*
D03*
D33*
X635797Y381276D02*
D03*
Y375174D02*
D03*
X482500Y431199D02*
D03*
Y437301D02*
D03*
X463250Y431199D02*
D03*
Y437301D02*
D03*
X444000Y430949D02*
D03*
Y437051D02*
D03*
X423750Y430949D02*
D03*
Y437051D02*
D03*
X404500D02*
D03*
Y430949D02*
D03*
X384500Y436801D02*
D03*
Y430699D02*
D03*
X362500Y437301D02*
D03*
Y431199D02*
D03*
D34*
X707500Y435000D02*
D03*
X718500D02*
D03*
X796250Y261500D02*
D03*
X785250D02*
D03*
X699250Y370000D02*
D03*
X710250D02*
D03*
X816250Y285500D02*
D03*
X805250D02*
D03*
X425250Y366793D02*
D03*
X414250D02*
D03*
X456364Y366821D02*
D03*
X445364D02*
D03*
X395050Y366750D02*
D03*
X384050D02*
D03*
X365500D02*
D03*
X354500D02*
D03*
D35*
X778900Y419475D02*
D03*
Y411475D02*
D03*
Y402250D02*
D03*
Y394250D02*
D03*
X739750Y416069D02*
D03*
Y424069D02*
D03*
X778900Y428700D02*
D03*
Y436700D02*
D03*
D36*
X755250Y457250D02*
D03*
X763250D02*
D03*
X739833Y446500D02*
D03*
X747833D02*
D03*
X748100Y458388D02*
D03*
X740100D02*
D03*
X841000Y286250D02*
D03*
X833000D02*
D03*
X755146Y469720D02*
D03*
X763146D02*
D03*
X474500Y376500D02*
D03*
X482500D02*
D03*
X496500D02*
D03*
X488500D02*
D03*
X313250Y456000D02*
D03*
X305250D02*
D03*
D37*
X692750Y414000D02*
D03*
Y425000D02*
D03*
X653750Y416000D02*
D03*
Y427000D02*
D03*
X505000Y445543D02*
D03*
Y434543D02*
D03*
X492500Y434494D02*
D03*
Y445494D02*
D03*
D73*
X269500Y247654D02*
D03*
Y488205D02*
D03*
D74*
X259500Y454858D02*
D03*
X279500D02*
D03*
X259500Y433126D02*
D03*
Y422260D02*
D03*
Y411394D02*
D03*
Y400527D02*
D03*
Y389661D02*
D03*
Y378795D02*
D03*
Y367929D02*
D03*
Y357063D02*
D03*
Y346197D02*
D03*
Y335331D02*
D03*
Y324465D02*
D03*
Y313598D02*
D03*
Y302732D02*
D03*
Y291866D02*
D03*
Y281000D02*
D03*
X269500Y449386D02*
D03*
Y438522D02*
D03*
Y427659D02*
D03*
Y416795D02*
D03*
Y405932D02*
D03*
Y395068D02*
D03*
Y384205D02*
D03*
Y373341D02*
D03*
Y362478D02*
D03*
Y351614D02*
D03*
Y340751D02*
D03*
Y329887D02*
D03*
Y319024D02*
D03*
Y308160D02*
D03*
Y297297D02*
D03*
Y286433D02*
D03*
X279500Y443992D02*
D03*
Y433126D02*
D03*
Y422260D02*
D03*
Y411394D02*
D03*
Y400527D02*
D03*
Y389661D02*
D03*
Y378795D02*
D03*
Y367929D02*
D03*
Y357063D02*
D03*
Y346197D02*
D03*
Y335331D02*
D03*
Y324465D02*
D03*
Y313598D02*
D03*
Y302732D02*
D03*
X259500Y443992D02*
D03*
X279500Y291866D02*
D03*
Y281000D02*
D03*
D75*
X896159Y431882D02*
D03*
X907341Y437335D02*
D03*
X896159Y442787D02*
D03*
X907341Y448240D02*
D03*
X896159Y453693D02*
D03*
X907341Y459146D02*
D03*
X896159Y464598D02*
D03*
X907341Y470051D02*
D03*
X342750Y494900D02*
D03*
X348203Y483719D02*
D03*
X353656Y494900D02*
D03*
X359108Y483719D02*
D03*
X364561Y494900D02*
D03*
X370014Y483719D02*
D03*
X375466Y494900D02*
D03*
X380919Y483719D02*
D03*
Y510319D02*
D03*
X375466Y521500D02*
D03*
X370014Y510319D02*
D03*
X364561Y521500D02*
D03*
X359108Y510319D02*
D03*
X353656Y521500D02*
D03*
X348203Y510319D02*
D03*
X342750Y521500D02*
D03*
X467936Y494900D02*
D03*
X473389Y483719D02*
D03*
X478841Y494900D02*
D03*
X484294Y483719D02*
D03*
X489747Y494900D02*
D03*
X495200Y483719D02*
D03*
X500653Y494900D02*
D03*
X506105Y483719D02*
D03*
Y510319D02*
D03*
X500653Y521500D02*
D03*
X495200Y510319D02*
D03*
X489747Y521500D02*
D03*
X484294Y510319D02*
D03*
X478841Y521500D02*
D03*
X473389Y510319D02*
D03*
X467936Y521500D02*
D03*
X907091Y345051D02*
D03*
X895909Y339598D02*
D03*
X907091Y334146D02*
D03*
X895909Y328693D02*
D03*
X907091Y323240D02*
D03*
X895909Y317787D02*
D03*
X907091Y312335D02*
D03*
X895909Y306882D02*
D03*
D76*
X896159Y475504D02*
D03*
X895909Y350504D02*
D03*
D77*
X901750Y502886D02*
D03*
Y404500D02*
D03*
X408301Y489700D02*
D03*
X309915D02*
D03*
Y521500D02*
D03*
X408301D02*
D03*
X533487Y489700D02*
D03*
X435101D02*
D03*
Y521500D02*
D03*
X533487D02*
D03*
X901500Y279500D02*
D03*
Y377886D02*
D03*
D78*
X841250Y324250D02*
D03*
X830384D02*
D03*
X852077D02*
D03*
X757357Y248695D02*
D03*
X727830D02*
D03*
Y307750D02*
D03*
X757357D02*
D03*
X727830Y327435D02*
D03*
X757357D02*
D03*
X727830Y347120D02*
D03*
X757357D02*
D03*
X641071Y248695D02*
D03*
X611544D02*
D03*
Y307750D02*
D03*
X641071D02*
D03*
X611544Y327435D02*
D03*
X641071D02*
D03*
X611544Y347120D02*
D03*
X641071D02*
D03*
X532643Y248695D02*
D03*
X503115D02*
D03*
Y307750D02*
D03*
X532643D02*
D03*
X503115Y327435D02*
D03*
X532643D02*
D03*
X503115Y347120D02*
D03*
X532643D02*
D03*
X478429Y248695D02*
D03*
X448901D02*
D03*
Y307750D02*
D03*
X478429D02*
D03*
X448901Y327435D02*
D03*
X478429D02*
D03*
X448901Y347120D02*
D03*
X478429D02*
D03*
X424214Y248695D02*
D03*
X394687D02*
D03*
Y307750D02*
D03*
X424214D02*
D03*
X394687Y327435D02*
D03*
X424214D02*
D03*
X394687Y347120D02*
D03*
X424214D02*
D03*
X703286Y248695D02*
D03*
X673758D02*
D03*
Y307750D02*
D03*
X703286D02*
D03*
X673758Y327435D02*
D03*
X703286D02*
D03*
X673758Y347120D02*
D03*
X703286D02*
D03*
X586750Y248695D02*
D03*
X557222D02*
D03*
Y307750D02*
D03*
X586750D02*
D03*
X557222Y327435D02*
D03*
X586750D02*
D03*
X557222Y347120D02*
D03*
X586750D02*
D03*
X370000Y248695D02*
D03*
X340472D02*
D03*
Y307750D02*
D03*
X370000D02*
D03*
X340472Y327435D02*
D03*
X370000D02*
D03*
X340472Y347120D02*
D03*
X370000D02*
D03*
D79*
X867313Y324250D02*
D03*
X804321D02*
D03*
X824990Y506848D02*
D03*
X803337D02*
D03*
X846644D02*
D03*
X868297D02*
D03*
X877000Y250647D02*
D03*
X861000D02*
D03*
X833750Y250895D02*
D03*
X817750D02*
D03*
D80*
X308000Y240250D02*
D03*
X244750Y527750D02*
D03*
X911750Y239613D02*
D03*
X911250Y527250D02*
D03*
D81*
X693181Y490000D02*
D03*
X562000D02*
D03*
Y521500D02*
D03*
X693181D02*
D03*
D82*
X665760Y483700D02*
D03*
X660307Y494900D02*
D03*
X654854Y483700D02*
D03*
X649402Y494900D02*
D03*
X643949Y483700D02*
D03*
X638496Y494900D02*
D03*
X633043Y483700D02*
D03*
X627591Y494900D02*
D03*
X622138Y483700D02*
D03*
X616685Y494900D02*
D03*
X611232Y483700D02*
D03*
X605780Y494900D02*
D03*
X600327Y483700D02*
D03*
X594874Y494900D02*
D03*
Y521500D02*
D03*
X600327Y510319D02*
D03*
X605780Y521500D02*
D03*
X611232Y510319D02*
D03*
X616685Y521500D02*
D03*
X622138Y510319D02*
D03*
X627591Y521500D02*
D03*
X633043Y510319D02*
D03*
X638496Y521500D02*
D03*
X643949Y510319D02*
D03*
X649402Y521500D02*
D03*
X654854Y510319D02*
D03*
X660307Y521500D02*
D03*
X665760Y510319D02*
D03*
D83*
X589421Y483700D02*
D03*
Y510319D02*
D03*
X337297Y483719D02*
D03*
Y510319D02*
D03*
X462483Y483719D02*
D03*
Y510319D02*
D03*
D84*
X290000Y531000D02*
D03*
Y521000D02*
D03*
Y511000D02*
D03*
X276625Y531000D02*
D03*
Y521000D02*
D03*
Y511000D02*
D03*
X263250Y531000D02*
D03*
Y521000D02*
D03*
Y511000D02*
D03*
X310750Y356500D02*
D03*
X300750D02*
D03*
X310750Y341750D02*
D03*
X300750D02*
D03*
X310750Y327000D02*
D03*
X300750D02*
D03*
Y312250D02*
D03*
X310750D02*
D03*
Y297500D02*
D03*
X300750D02*
D03*
Y282750D02*
D03*
X310750D02*
D03*
Y268000D02*
D03*
X300750D02*
D03*
M02*
