G04*
G04 #@! TF.GenerationSoftware,Altium Limited,Altium Designer,18.1.9 (240)*
G04*
G04 Layer_Color=8421504*
%FSLAX25Y25*%
%MOIN*%
G70*
G01*
G75*
%ADD20R,0.02400X0.09000*%
%ADD21R,0.02165X0.02165*%
%ADD22R,0.01181X0.05512*%
%ADD23R,0.02165X0.02165*%
%ADD24R,0.03347X0.03347*%
%ADD25R,0.06299X0.04921*%
%ADD26R,0.03740X0.03543*%
%ADD27R,0.03347X0.03347*%
%ADD28R,0.06693X0.06063*%
%ADD29R,0.00787X0.03150*%
%ADD30R,0.03150X0.00787*%
%ADD31R,0.05906X0.04331*%
%ADD32C,0.03000*%
%ADD33R,0.05709X0.02362*%
%ADD34R,0.06000X0.04000*%
%ADD35R,0.04000X0.06000*%
%ADD36R,0.04724X0.11811*%
%ADD37R,0.24606X0.28347*%
D20*
X222750Y284499D02*
D03*
X217750D02*
D03*
X212750D02*
D03*
X207750D02*
D03*
X202750D02*
D03*
X197750D02*
D03*
X192750D02*
D03*
X187750D02*
D03*
X182750D02*
D03*
X177750D02*
D03*
X172750D02*
D03*
X167750D02*
D03*
X162750D02*
D03*
X157750D02*
D03*
Y320499D02*
D03*
X162750D02*
D03*
X167750D02*
D03*
X172750D02*
D03*
X177750D02*
D03*
X182750D02*
D03*
X187750D02*
D03*
X192750D02*
D03*
X197750D02*
D03*
X202750D02*
D03*
X207750D02*
D03*
X212750D02*
D03*
X217750D02*
D03*
X222750D02*
D03*
D21*
X517111Y271450D02*
D03*
Y266850D02*
D03*
X501868Y302950D02*
D03*
Y307550D02*
D03*
X495029Y302950D02*
D03*
Y307550D02*
D03*
X509611Y290450D02*
D03*
Y285850D02*
D03*
X501611Y290450D02*
D03*
Y285850D02*
D03*
X509611Y246850D02*
D03*
Y251450D02*
D03*
X502611Y246850D02*
D03*
Y251450D02*
D03*
X501868Y346050D02*
D03*
Y341450D02*
D03*
X494750Y346050D02*
D03*
Y341450D02*
D03*
X486368Y321950D02*
D03*
Y326550D02*
D03*
X321250Y286152D02*
D03*
Y281552D02*
D03*
X402556Y286152D02*
D03*
Y281552D02*
D03*
X403156Y313101D02*
D03*
Y308501D02*
D03*
X321250Y313101D02*
D03*
Y308501D02*
D03*
X502250Y387920D02*
D03*
Y383320D02*
D03*
X490650Y372364D02*
D03*
Y376964D02*
D03*
X455750Y356450D02*
D03*
Y361050D02*
D03*
X441750Y367950D02*
D03*
Y372550D02*
D03*
Y378269D02*
D03*
Y382869D02*
D03*
Y389450D02*
D03*
Y394050D02*
D03*
Y400950D02*
D03*
Y405550D02*
D03*
X483250Y400450D02*
D03*
Y395850D02*
D03*
X625317Y405750D02*
D03*
Y401150D02*
D03*
X618950D02*
D03*
Y405750D02*
D03*
X612583D02*
D03*
Y401150D02*
D03*
X606217D02*
D03*
Y405750D02*
D03*
X599850D02*
D03*
Y401150D02*
D03*
X593483D02*
D03*
Y405750D02*
D03*
X587117D02*
D03*
Y401150D02*
D03*
X580750D02*
D03*
Y405750D02*
D03*
X434750Y405550D02*
D03*
Y400950D02*
D03*
X489699Y395950D02*
D03*
Y400550D02*
D03*
X508750Y387920D02*
D03*
Y383320D02*
D03*
X503650Y376964D02*
D03*
Y372364D02*
D03*
X420750Y405550D02*
D03*
Y400950D02*
D03*
X502750Y395950D02*
D03*
Y400550D02*
D03*
X516750Y377050D02*
D03*
Y372450D02*
D03*
X510150Y372364D02*
D03*
Y376964D02*
D03*
X427750Y400950D02*
D03*
Y405550D02*
D03*
X496250Y400550D02*
D03*
Y395950D02*
D03*
X515250Y383120D02*
D03*
Y387720D02*
D03*
X497150Y372364D02*
D03*
Y376964D02*
D03*
X676250Y405750D02*
D03*
Y401150D02*
D03*
X669883D02*
D03*
Y405750D02*
D03*
X663517D02*
D03*
Y401150D02*
D03*
X657150D02*
D03*
Y405750D02*
D03*
X650783D02*
D03*
Y401150D02*
D03*
X644417D02*
D03*
Y405750D02*
D03*
X638050D02*
D03*
Y401150D02*
D03*
X631683D02*
D03*
Y405750D02*
D03*
X448750Y361050D02*
D03*
Y356450D02*
D03*
X434750Y372550D02*
D03*
Y367950D02*
D03*
Y382869D02*
D03*
Y378269D02*
D03*
Y394050D02*
D03*
Y389450D02*
D03*
Y361050D02*
D03*
Y356450D02*
D03*
X420750Y372550D02*
D03*
Y367950D02*
D03*
Y382869D02*
D03*
Y378269D02*
D03*
Y394050D02*
D03*
Y389450D02*
D03*
X441750Y356450D02*
D03*
Y361050D02*
D03*
X427750Y367950D02*
D03*
Y372550D02*
D03*
Y378450D02*
D03*
Y383050D02*
D03*
X427931Y389450D02*
D03*
Y394050D02*
D03*
X459150Y346550D02*
D03*
Y341950D02*
D03*
X465300Y346550D02*
D03*
Y341950D02*
D03*
X420750Y356450D02*
D03*
Y361050D02*
D03*
X427750Y356450D02*
D03*
Y361050D02*
D03*
X484293Y341645D02*
D03*
Y346245D02*
D03*
X477895Y341747D02*
D03*
Y346347D02*
D03*
X452650Y341950D02*
D03*
Y346550D02*
D03*
X471650Y341950D02*
D03*
Y346550D02*
D03*
X368250Y254950D02*
D03*
Y259550D02*
D03*
X375750Y259688D02*
D03*
Y255088D02*
D03*
X128250Y460550D02*
D03*
Y455950D02*
D03*
X120250Y460345D02*
D03*
Y455745D02*
D03*
X238750Y309950D02*
D03*
Y314550D02*
D03*
X238656Y278052D02*
D03*
Y282652D02*
D03*
X246750Y266765D02*
D03*
Y271365D02*
D03*
X226331Y266765D02*
D03*
Y271365D02*
D03*
X246835Y257450D02*
D03*
Y262050D02*
D03*
X226335Y257350D02*
D03*
Y261950D02*
D03*
X205835Y266025D02*
D03*
Y270625D02*
D03*
X205835Y256950D02*
D03*
Y261550D02*
D03*
X185215Y265950D02*
D03*
Y270550D02*
D03*
X185215Y256750D02*
D03*
Y261350D02*
D03*
X153335Y256360D02*
D03*
Y260960D02*
D03*
X160335Y256450D02*
D03*
Y261050D02*
D03*
X167250Y256450D02*
D03*
Y261050D02*
D03*
X153250Y268150D02*
D03*
Y272750D02*
D03*
X160250Y268150D02*
D03*
Y272750D02*
D03*
X167250Y268150D02*
D03*
Y272750D02*
D03*
X401250Y341950D02*
D03*
Y346550D02*
D03*
X408561D02*
D03*
Y341950D02*
D03*
X394250D02*
D03*
Y346550D02*
D03*
X367750Y341950D02*
D03*
Y346550D02*
D03*
X374250D02*
D03*
Y341950D02*
D03*
X361250Y341993D02*
D03*
Y346593D02*
D03*
X336750Y341993D02*
D03*
Y346593D02*
D03*
X343250Y346550D02*
D03*
Y341950D02*
D03*
X329750Y341993D02*
D03*
Y346593D02*
D03*
X301250Y341993D02*
D03*
Y346593D02*
D03*
X308250Y346550D02*
D03*
Y341950D02*
D03*
X269750Y341993D02*
D03*
Y346593D02*
D03*
X276250Y346550D02*
D03*
Y341950D02*
D03*
X294750Y341993D02*
D03*
Y346593D02*
D03*
X263250Y341993D02*
D03*
Y346593D02*
D03*
X236185Y341993D02*
D03*
Y346593D02*
D03*
X242750Y346550D02*
D03*
Y341950D02*
D03*
X229750Y341993D02*
D03*
Y346593D02*
D03*
X196750Y341993D02*
D03*
Y346593D02*
D03*
X203685Y341993D02*
D03*
Y346593D02*
D03*
X210750Y346550D02*
D03*
Y341950D02*
D03*
X170250D02*
D03*
Y346550D02*
D03*
X177250D02*
D03*
Y341950D02*
D03*
X163250D02*
D03*
Y346550D02*
D03*
D22*
X495029Y315089D02*
D03*
X497589D02*
D03*
X500148D02*
D03*
X502707D02*
D03*
X495029Y332411D02*
D03*
X497589D02*
D03*
X500148D02*
D03*
X502707D02*
D03*
X509611Y277973D02*
D03*
X507052D02*
D03*
X504493D02*
D03*
X501934D02*
D03*
X509611Y260650D02*
D03*
X507052D02*
D03*
X504493D02*
D03*
X501934D02*
D03*
X482607Y379364D02*
D03*
X480048D02*
D03*
X477489D02*
D03*
X474930D02*
D03*
X472370D02*
D03*
X469811D02*
D03*
X467252D02*
D03*
X464693D02*
D03*
X482607Y356136D02*
D03*
X480048D02*
D03*
X477489D02*
D03*
X474930D02*
D03*
X472370D02*
D03*
X469811D02*
D03*
X467252D02*
D03*
X464693D02*
D03*
D23*
X509450Y315250D02*
D03*
X514050D02*
D03*
X509450Y329750D02*
D03*
X514050D02*
D03*
X509450Y322750D02*
D03*
X514050D02*
D03*
Y336750D02*
D03*
X509450D02*
D03*
X495750Y271650D02*
D03*
X491150D02*
D03*
X495911Y264650D02*
D03*
X491311D02*
D03*
X495750Y278650D02*
D03*
X491150D02*
D03*
X491311Y258150D02*
D03*
X495911D02*
D03*
X422600Y273006D02*
D03*
X427200D02*
D03*
X312869Y233262D02*
D03*
X317469D02*
D03*
X299950D02*
D03*
X304550D02*
D03*
X288969Y233849D02*
D03*
X284369D02*
D03*
X271450D02*
D03*
X276050D02*
D03*
X269450Y270750D02*
D03*
X274050D02*
D03*
X285413Y270750D02*
D03*
X280813D02*
D03*
X315750Y270750D02*
D03*
X311150D02*
D03*
X300242Y270750D02*
D03*
X304842D02*
D03*
X427050Y264250D02*
D03*
X422450D02*
D03*
X642950Y295250D02*
D03*
X647550D02*
D03*
X642950Y316750D02*
D03*
X647550D02*
D03*
X643031Y323620D02*
D03*
X647631D02*
D03*
X643031Y302204D02*
D03*
X647631D02*
D03*
X643250Y309750D02*
D03*
X647850D02*
D03*
X324450Y258188D02*
D03*
X329050D02*
D03*
X324450Y251688D02*
D03*
X329050D02*
D03*
X367001Y249250D02*
D03*
X371601D02*
D03*
X324450Y245188D02*
D03*
X329050D02*
D03*
X366950Y242750D02*
D03*
X371550D02*
D03*
X153650Y337540D02*
D03*
X158250D02*
D03*
X153650Y331060D02*
D03*
X158250D02*
D03*
D24*
X321250Y291852D02*
D03*
Y297955D02*
D03*
X463750Y319250D02*
D03*
Y325352D02*
D03*
Y312771D02*
D03*
Y306669D02*
D03*
X463250Y291852D02*
D03*
Y297955D02*
D03*
Y285822D02*
D03*
Y279720D02*
D03*
X402556Y291852D02*
D03*
Y297955D02*
D03*
X403156Y319250D02*
D03*
Y325352D02*
D03*
X381750Y319250D02*
D03*
Y325352D02*
D03*
Y312771D02*
D03*
Y306669D02*
D03*
Y285822D02*
D03*
Y279720D02*
D03*
Y291852D02*
D03*
Y297955D02*
D03*
X294750Y258813D02*
D03*
Y252711D02*
D03*
X266250Y259400D02*
D03*
Y253298D02*
D03*
X321250Y319250D02*
D03*
Y325352D02*
D03*
X299093Y319199D02*
D03*
Y325301D02*
D03*
X299250Y312720D02*
D03*
Y306618D02*
D03*
X694250Y275852D02*
D03*
Y269750D02*
D03*
X476750Y394199D02*
D03*
Y400301D02*
D03*
X456120Y373801D02*
D03*
Y367699D02*
D03*
X449120Y373801D02*
D03*
Y367699D02*
D03*
X658750Y283301D02*
D03*
Y277199D02*
D03*
X238750Y326801D02*
D03*
Y320699D02*
D03*
X299093Y297904D02*
D03*
Y291801D02*
D03*
X299250Y279669D02*
D03*
Y285771D02*
D03*
X238656Y294455D02*
D03*
Y288352D02*
D03*
D25*
X412974Y294226D02*
D03*
Y278478D02*
D03*
X453526D02*
D03*
Y294226D02*
D03*
X413474Y324726D02*
D03*
Y308978D02*
D03*
X454026D02*
D03*
Y324726D02*
D03*
X248250Y325998D02*
D03*
Y310250D02*
D03*
X288801D02*
D03*
Y325998D02*
D03*
X248974Y294175D02*
D03*
Y278427D02*
D03*
X289526D02*
D03*
Y294175D02*
D03*
X331474Y294226D02*
D03*
Y278478D02*
D03*
X372026D02*
D03*
Y294226D02*
D03*
X332474Y324726D02*
D03*
Y308978D02*
D03*
X373026D02*
D03*
Y324726D02*
D03*
D26*
X472750Y317801D02*
D03*
Y311699D02*
D03*
X472150Y290852D02*
D03*
Y284750D02*
D03*
X390250Y317801D02*
D03*
Y311699D02*
D03*
Y290852D02*
D03*
Y284750D02*
D03*
X308250Y317801D02*
D03*
Y311699D02*
D03*
X128250Y472801D02*
D03*
Y466699D02*
D03*
X120250Y472801D02*
D03*
Y466699D02*
D03*
X308250Y284750D02*
D03*
Y290852D02*
D03*
D27*
X313199Y240762D02*
D03*
X319301D02*
D03*
X304301D02*
D03*
X298199D02*
D03*
X284699Y241349D02*
D03*
X290801D02*
D03*
X275801D02*
D03*
X269699D02*
D03*
X489699Y383250D02*
D03*
X495801D02*
D03*
X489699Y389750D02*
D03*
X495801D02*
D03*
X457301Y396750D02*
D03*
X451199D02*
D03*
X457301Y389199D02*
D03*
X451199D02*
D03*
X458529Y382077D02*
D03*
X452427D02*
D03*
D28*
X280750Y255649D02*
D03*
X309250Y255062D02*
D03*
D29*
X276813Y262358D02*
D03*
X278388D02*
D03*
X279963D02*
D03*
X281538D02*
D03*
X283113D02*
D03*
X284687D02*
D03*
Y248941D02*
D03*
X283113D02*
D03*
X281538D02*
D03*
X279963D02*
D03*
X278388D02*
D03*
X276813D02*
D03*
X305313Y261770D02*
D03*
X306888D02*
D03*
X308463D02*
D03*
X310038D02*
D03*
X311613D02*
D03*
X313187D02*
D03*
Y248353D02*
D03*
X311613D02*
D03*
X310038D02*
D03*
X308463D02*
D03*
X306888D02*
D03*
X305313D02*
D03*
D30*
X287459Y259586D02*
D03*
Y258011D02*
D03*
Y256437D02*
D03*
Y254862D02*
D03*
Y253287D02*
D03*
Y251712D02*
D03*
X274042D02*
D03*
Y253287D02*
D03*
Y254862D02*
D03*
Y256437D02*
D03*
Y258011D02*
D03*
Y259586D02*
D03*
X315959Y258999D02*
D03*
Y257424D02*
D03*
Y255849D02*
D03*
Y254274D02*
D03*
Y252700D02*
D03*
Y251125D02*
D03*
X302542D02*
D03*
Y252700D02*
D03*
Y254274D02*
D03*
Y255849D02*
D03*
Y257424D02*
D03*
Y258999D02*
D03*
D31*
X392250Y401750D02*
D03*
X402750D02*
D03*
X359247D02*
D03*
X369747D02*
D03*
X326243D02*
D03*
X336743D02*
D03*
X293240D02*
D03*
X303740D02*
D03*
X259750Y402250D02*
D03*
X270250D02*
D03*
X227233Y401750D02*
D03*
X237733D02*
D03*
X194750D02*
D03*
X205250D02*
D03*
X161226D02*
D03*
X171726D02*
D03*
D32*
X647631Y358250D02*
D03*
Y351111D02*
D03*
X647550Y343750D02*
D03*
X647631Y336834D02*
D03*
X647550Y330250D02*
D03*
X128250Y449250D02*
D03*
X120250D02*
D03*
D33*
X359478Y243188D02*
D03*
Y248188D02*
D03*
Y253188D02*
D03*
Y258188D02*
D03*
X338022Y243188D02*
D03*
Y248188D02*
D03*
Y253188D02*
D03*
Y258188D02*
D03*
D34*
X491650Y362750D02*
D03*
Y354750D02*
D03*
X238335Y257550D02*
D03*
Y265550D02*
D03*
X217835Y257450D02*
D03*
Y265450D02*
D03*
X197335Y257050D02*
D03*
Y265050D02*
D03*
X176705Y257050D02*
D03*
Y265050D02*
D03*
D35*
X344750Y268188D02*
D03*
X352750D02*
D03*
X174750Y333250D02*
D03*
X182750D02*
D03*
D36*
X289277Y356750D02*
D03*
X307230D02*
D03*
X322284D02*
D03*
X340236D02*
D03*
X355290D02*
D03*
X373243D02*
D03*
X388297Y357250D02*
D03*
X406250D02*
D03*
X157250Y356750D02*
D03*
X175203D02*
D03*
X190257D02*
D03*
X208210D02*
D03*
X223263D02*
D03*
X241216D02*
D03*
X256270D02*
D03*
X274223D02*
D03*
D37*
X298253Y380569D02*
D03*
X331260D02*
D03*
X364267D02*
D03*
X397274Y381069D02*
D03*
X166226Y380569D02*
D03*
X199233D02*
D03*
X232240D02*
D03*
X265247D02*
D03*
M02*
