G04*
G04 #@! TF.GenerationSoftware,Altium Limited,Altium Designer,19.0.10 (269)*
G04*
G04 Layer_Color=16711935*
%FSLAX25Y25*%
%MOIN*%
G70*
G01*
G75*
%ADD11C,0.00394*%
%ADD18C,0.00300*%
%ADD96C,0.00000*%
%ADD97C,0.00100*%
D11*
X498474Y321388D02*
G03*
X498474Y321388I-1969J0D01*
G01*
X510104Y271674D02*
G03*
X510104Y271674I-1969J0D01*
G01*
X280160Y258208D02*
G03*
X280160Y258208I-1969J0D01*
G01*
X482115Y373065D02*
G03*
X482115Y373065I-1969J0D01*
G01*
X346388Y256987D02*
G03*
X346388Y256987I-1969J0D01*
G01*
X308660Y257621D02*
G03*
X308660Y257621I-1969J0D01*
G01*
X492963Y317845D02*
X504774D01*
X492963Y329656D02*
X504774D01*
X492963Y317845D02*
Y329656D01*
X504774Y317845D02*
Y329656D01*
X499867Y275217D02*
X511678D01*
X499867Y263406D02*
X511678D01*
Y275217D01*
X499867Y263406D02*
Y275217D01*
X420258Y277100D02*
Y295604D01*
X446242Y277100D02*
Y295604D01*
X420258D02*
X446242D01*
X420258Y277100D02*
X446242D01*
X420758Y307600D02*
Y326104D01*
X446742Y307600D02*
Y326104D01*
X420758D02*
X446742D01*
X420758Y307600D02*
X446742D01*
X471175Y317900D02*
X474325D01*
X471175Y311600D02*
X474325D01*
Y317900D01*
X471175Y311600D02*
Y317900D01*
X470575Y290951D02*
X473725D01*
X470575Y284652D02*
X473725D01*
Y290951D01*
X470575Y284652D02*
Y290951D01*
X388675Y317900D02*
X391825D01*
X388675Y311600D02*
X391825D01*
Y317900D01*
X388675Y311600D02*
Y317900D01*
Y290951D02*
X391825D01*
X388675Y284652D02*
X391825D01*
Y290951D01*
X388675Y284652D02*
Y290951D01*
X274648Y249547D02*
X286853D01*
X274648Y261752D02*
X286853D01*
Y249547D02*
Y261752D01*
X274648Y249547D02*
Y261752D01*
X255533Y308872D02*
Y327376D01*
X281518Y308872D02*
Y327376D01*
X255533D02*
X281518D01*
X255533Y308872D02*
X281518D01*
X256258Y277049D02*
Y295553D01*
X282242Y277049D02*
Y295553D01*
X256258D02*
X282242D01*
X256258Y277049D02*
X282242D01*
X338758Y277100D02*
Y295604D01*
X364742Y277100D02*
Y295604D01*
X338758D02*
X364742D01*
X338758Y277100D02*
X364742D01*
X339758Y307600D02*
Y326104D01*
X365742Y307600D02*
Y326104D01*
X339758D02*
X365742D01*
X339758Y307600D02*
X365742D01*
X306675Y317900D02*
X309825D01*
X306675Y311600D02*
X309825D01*
Y317900D01*
X306675Y311600D02*
Y317900D01*
X391541Y405293D02*
X402959D01*
X391541Y398207D02*
X402959D01*
X391541D02*
Y405293D01*
X402959Y398207D02*
Y405293D01*
X358538D02*
X369955D01*
X358538Y398207D02*
X369955D01*
X358538D02*
Y405293D01*
X369955Y398207D02*
Y405293D01*
X325535D02*
X336952D01*
X325535Y398207D02*
X336952D01*
X325535D02*
Y405293D01*
X336952Y398207D02*
Y405293D01*
X292531D02*
X303949D01*
X292531Y398207D02*
X303949D01*
X292531D02*
Y405293D01*
X303949Y398207D02*
Y405293D01*
X259041Y405793D02*
X270459D01*
X259041Y398707D02*
X270459D01*
X259041D02*
Y405793D01*
X270459Y398707D02*
Y405793D01*
X226524Y405293D02*
X237942D01*
X226524Y398207D02*
X237942D01*
X226524D02*
Y405293D01*
X237942Y398207D02*
Y405293D01*
X194041D02*
X205459D01*
X194041Y398207D02*
X205459D01*
X194041D02*
Y405293D01*
X205459Y398207D02*
Y405293D01*
X160518D02*
X171935D01*
X160518Y398207D02*
X171935D01*
X160518D02*
Y405293D01*
X171935Y398207D02*
Y405293D01*
X463611Y376608D02*
X483689D01*
X463611Y358892D02*
X483689D01*
Y376608D01*
X463611Y358892D02*
Y376608D01*
X340876Y240845D02*
X356624D01*
X340876Y260530D02*
X356624D01*
Y240845D02*
Y260530D01*
X340876Y240845D02*
Y260530D01*
X129825Y466600D02*
Y472900D01*
X126675Y466600D02*
Y472900D01*
X129825D01*
X126675Y466600D02*
X129825D01*
X121825D02*
Y472900D01*
X118675Y466600D02*
Y472900D01*
X121825D01*
X118675Y466600D02*
X121825D01*
X303148Y248959D02*
X315353D01*
X303148Y261164D02*
X315353D01*
Y248959D02*
Y261164D01*
X303148Y248959D02*
Y261164D01*
X306675Y284652D02*
Y290951D01*
X309825Y284652D02*
Y290951D01*
X306675Y284652D02*
X309825D01*
X306675Y290951D02*
X309825D01*
X285753Y364427D02*
X310753D01*
X285753Y388915D02*
X310753D01*
X285753Y364427D02*
Y388915D01*
X310753Y364427D02*
Y388915D01*
X318760Y364427D02*
X343760D01*
X318760Y388915D02*
X343760D01*
X318760Y364427D02*
Y388915D01*
X343760Y364427D02*
Y388915D01*
X351767Y364427D02*
X376767D01*
X351767Y388915D02*
X376767D01*
X351767Y364427D02*
Y388915D01*
X376767Y364427D02*
Y388915D01*
X384774Y364927D02*
X409774D01*
X384774Y389415D02*
X409774D01*
X384774Y364927D02*
Y389415D01*
X409774Y364927D02*
Y389415D01*
X153726Y364427D02*
X178726D01*
X153726Y388915D02*
X178726D01*
X153726Y364427D02*
Y388915D01*
X178726Y364427D02*
Y388915D01*
X186733Y364427D02*
X211733D01*
X186733Y388915D02*
X211733D01*
X186733Y364427D02*
Y388915D01*
X211733Y364427D02*
Y388915D01*
X219740Y364427D02*
X244740D01*
X219740Y388915D02*
X244740D01*
X219740Y364427D02*
Y388915D01*
X244740Y364427D02*
Y388915D01*
X252747Y364427D02*
X277747D01*
X252747Y388915D02*
X277747D01*
X252747Y364427D02*
Y388915D01*
X277747Y364427D02*
Y388915D01*
D18*
X224365Y316999D02*
X221033Y313667D01*
Y316999D02*
X224365Y313667D01*
X222699Y316999D02*
Y313667D01*
X221033Y315333D02*
X224365D01*
D96*
X225500Y303699D02*
G03*
X225500Y301299I0J-1200D01*
G01*
D97*
X221750Y317249D02*
X223750D01*
Y322799D01*
X221750D02*
X223750D01*
X221750Y317249D02*
Y322799D01*
X216750Y317249D02*
X218750D01*
Y322799D01*
X216750D02*
X218750D01*
X216750Y317249D02*
Y322799D01*
X211750Y317249D02*
X213750D01*
Y322799D01*
X211750D02*
X213750D01*
X211750Y317249D02*
Y322799D01*
X206750Y317249D02*
X208750D01*
Y322799D01*
X206750D02*
X208750D01*
X206750Y317249D02*
Y322799D01*
X201750Y317249D02*
X203750D01*
Y322799D01*
X201750D02*
X203750D01*
X201750Y317249D02*
Y322799D01*
X196750Y317249D02*
X198750D01*
Y322799D01*
X196750D02*
X198750D01*
X196750Y317249D02*
Y322799D01*
X191750Y317249D02*
X193750D01*
Y322799D01*
X191750D02*
X193750D01*
X191750Y317249D02*
Y322799D01*
X186750Y317249D02*
X188750D01*
Y322799D01*
X186750D02*
X188750D01*
X186750Y317249D02*
Y322799D01*
X181750Y317249D02*
X183750D01*
Y322799D01*
X181750D02*
X183750D01*
X181750Y317249D02*
Y322799D01*
X176750Y317249D02*
X178750D01*
Y322799D01*
X176750D02*
X178750D01*
X176750Y317249D02*
Y322799D01*
X171750Y317249D02*
X173750D01*
Y322799D01*
X171750D02*
X173750D01*
X171750Y317249D02*
Y322799D01*
X166750Y317249D02*
X168750D01*
Y322799D01*
X166750D02*
X168750D01*
X166750Y317249D02*
Y322799D01*
X161750Y317249D02*
X163750D01*
Y322799D01*
X161750D02*
X163750D01*
X161750Y317249D02*
Y322799D01*
X156750Y317249D02*
X158750D01*
Y322799D01*
X156750D02*
X158750D01*
X156750Y317249D02*
Y322799D01*
Y287749D02*
X158750D01*
X156750Y282199D02*
Y287749D01*
Y282199D02*
X158750D01*
Y287749D01*
X161750D02*
X163750D01*
X161750Y282199D02*
Y287749D01*
Y282199D02*
X163750D01*
Y287749D01*
X166750D02*
X168750D01*
X166750Y282199D02*
Y287749D01*
Y282199D02*
X168750D01*
Y287749D01*
X171750D02*
X173750D01*
X171750Y282199D02*
Y287749D01*
Y282199D02*
X173750D01*
Y287749D01*
X176750D02*
X178750D01*
X176750Y282199D02*
Y287749D01*
Y282199D02*
X178750D01*
Y287749D01*
X181750D02*
X183750D01*
X181750Y282199D02*
Y287749D01*
Y282199D02*
X183750D01*
Y287749D01*
X186750D02*
X188750D01*
X186750Y282199D02*
Y287749D01*
Y282199D02*
X188750D01*
Y287749D01*
X191750D02*
X193750D01*
X191750Y282199D02*
Y287749D01*
Y282199D02*
X193750D01*
Y287749D01*
X196750D02*
X198750D01*
X196750Y282199D02*
Y287749D01*
Y282199D02*
X198750D01*
Y287749D01*
X201750D02*
X203750D01*
X201750Y282199D02*
Y287749D01*
Y282199D02*
X203750D01*
Y287749D01*
X206750D02*
X208750D01*
X206750Y282199D02*
Y287749D01*
Y282199D02*
X208750D01*
Y287749D01*
X211750D02*
X213750D01*
X211750Y282199D02*
Y287749D01*
Y282199D02*
X213750D01*
Y287749D01*
X216750D02*
X218750D01*
X216750Y282199D02*
Y287749D01*
Y282199D02*
X218750D01*
Y287749D01*
X221750D02*
X223750D01*
X221750Y282199D02*
Y287749D01*
Y282199D02*
X223750D01*
Y287749D01*
X155000D02*
Y317249D01*
Y287749D02*
X225500D01*
Y317249D01*
X155000D02*
X225500D01*
M02*
