G04*
G04 #@! TF.GenerationSoftware,Altium Limited,Altium Designer,18.1.9 (240)*
G04*
G04 Layer_Color=16711935*
%FSLAX25Y25*%
%MOIN*%
G70*
G01*
G75*
%ADD49C,0.03800*%
%ADD55C,0.17729*%
%ADD56C,0.07887*%
%ADD57C,0.19540*%
%ADD58R,0.07453X0.07453*%
%ADD59C,0.07453*%
%ADD60C,0.10642*%
%ADD61C,0.07300*%
%ADD62C,0.14600*%
%ADD63C,0.05800*%
D49*
X399659Y356750D02*
D03*
X416013Y362750D02*
D03*
X682226Y405750D02*
D03*
X508750Y301750D02*
D03*
X496250Y295250D02*
D03*
X508250Y306750D02*
D03*
X517414Y277350D02*
D03*
X516914Y260850D02*
D03*
X491311Y246850D02*
D03*
X496311Y288350D02*
D03*
X491311Y286850D02*
D03*
X486550Y332450D02*
D03*
X486050Y316950D02*
D03*
X514050Y346050D02*
D03*
Y309750D02*
D03*
X447250Y379250D02*
D03*
X316701Y277250D02*
D03*
X499071Y362750D02*
D03*
X195250Y336950D02*
D03*
X163130Y264534D02*
D03*
X185215Y401750D02*
D03*
X150750Y402250D02*
D03*
X283750Y401250D02*
D03*
X250250Y402250D02*
D03*
X317750Y401750D02*
D03*
X351250D02*
D03*
X385250Y401250D02*
D03*
X292371Y265050D02*
D03*
X223250Y343250D02*
D03*
X471750Y336656D02*
D03*
X380250Y260250D02*
D03*
X469995Y400164D02*
D03*
X508150Y392664D02*
D03*
X344720Y248908D02*
D03*
X635661Y323661D02*
D03*
X461250Y364042D02*
D03*
X452750Y336829D02*
D03*
Y351904D02*
D03*
X445384Y364404D02*
D03*
X446239Y386404D02*
D03*
Y397404D02*
D03*
X153750Y232250D02*
D03*
X170250Y243951D02*
D03*
X164250Y239974D02*
D03*
X158750Y236250D02*
D03*
X386314Y261885D02*
D03*
X401250Y275750D02*
D03*
X393881Y279250D02*
D03*
X322421Y233312D02*
D03*
X326921Y240312D02*
D03*
X259992Y254329D02*
D03*
X295250Y233216D02*
D03*
X266492Y233730D02*
D03*
X300392Y261829D02*
D03*
X351392Y259470D02*
D03*
X153835Y344404D02*
D03*
X153250Y325404D02*
D03*
X259173Y261312D02*
D03*
X484324Y336776D02*
D03*
X258752Y341950D02*
D03*
X289301D02*
D03*
X324184D02*
D03*
X355801D02*
D03*
X388669D02*
D03*
X417415Y351750D02*
D03*
X379915Y347245D02*
D03*
X348915Y347250D02*
D03*
X314203Y347363D02*
D03*
X281415Y346863D02*
D03*
X248415Y347245D02*
D03*
X216415Y347250D02*
D03*
X89750Y280457D02*
D03*
X233311Y310427D02*
D03*
X256201Y275675D02*
D03*
X326243Y272750D02*
D03*
X396750Y288250D02*
D03*
X396779Y314675D02*
D03*
X249133Y286478D02*
D03*
X331453Y287175D02*
D03*
X332050Y317175D02*
D03*
X249133Y318026D02*
D03*
X178750Y271750D02*
D03*
X277750Y324675D02*
D03*
X482739Y363904D02*
D03*
X467239D02*
D03*
X462239Y336404D02*
D03*
X472739Y325404D02*
D03*
X472187Y297404D02*
D03*
X390152Y297955D02*
D03*
X308463Y297750D02*
D03*
X390187Y324249D02*
D03*
X308463Y325352D02*
D03*
X153250Y277957D02*
D03*
X174750Y311250D02*
D03*
X182687Y311408D02*
D03*
X220893Y401750D02*
D03*
X294421Y247312D02*
D03*
X265884Y247812D02*
D03*
X238350Y251750D02*
D03*
X599850Y394250D02*
D03*
X676250D02*
D03*
X592250Y394383D02*
D03*
X612583Y394250D02*
D03*
X625317D02*
D03*
X638050D02*
D03*
X650783D02*
D03*
X663517Y394383D02*
D03*
X593483Y412117D02*
D03*
X606217Y412250D02*
D03*
X619180D02*
D03*
X631750D02*
D03*
X644250D02*
D03*
X657150Y412117D02*
D03*
X665250D02*
D03*
X580750Y412250D02*
D03*
X163687Y276856D02*
D03*
X217250Y251750D02*
D03*
X197250Y251486D02*
D03*
X176750Y251750D02*
D03*
X238750Y273301D02*
D03*
X219250Y271250D02*
D03*
X199250Y270750D02*
D03*
X160250Y251250D02*
D03*
X277852Y294175D02*
D03*
X360250D02*
D03*
X441750D02*
D03*
X440250Y324175D02*
D03*
X361250D02*
D03*
X367250Y356750D02*
D03*
X334250D02*
D03*
X301250D02*
D03*
X267750D02*
D03*
X235250D02*
D03*
X201750D02*
D03*
X168750D02*
D03*
D55*
X626750Y375750D02*
D03*
X164250Y218750D02*
D03*
X95250Y468750D02*
D03*
X693250Y238750D02*
D03*
X397750D02*
D03*
X465250Y425750D02*
D03*
D56*
X439250Y267514D02*
D03*
X449250D02*
D03*
X459250D02*
D03*
X420750Y343750D02*
D03*
X430750D02*
D03*
X440750D02*
D03*
X372779Y429750D02*
D03*
Y419750D02*
D03*
X671750Y317750D02*
D03*
Y307750D02*
D03*
Y297750D02*
D03*
Y287750D02*
D03*
Y277750D02*
D03*
Y267750D02*
D03*
Y367750D02*
D03*
Y377750D02*
D03*
Y357750D02*
D03*
Y347750D02*
D03*
Y337750D02*
D03*
Y327750D02*
D03*
X681750D02*
D03*
Y337750D02*
D03*
Y347750D02*
D03*
Y357750D02*
D03*
Y377750D02*
D03*
Y367750D02*
D03*
Y267750D02*
D03*
Y277750D02*
D03*
Y287750D02*
D03*
Y297750D02*
D03*
Y307750D02*
D03*
Y317750D02*
D03*
D57*
X679593Y455841D02*
D03*
X494348D02*
D03*
Y423675D02*
D03*
X679593D02*
D03*
X340994Y423585D02*
D03*
X155750D02*
D03*
Y455750D02*
D03*
X340994D02*
D03*
X466443Y455659D02*
D03*
X368057D02*
D03*
D58*
X521750Y450250D02*
D03*
Y423675D02*
D03*
X183152Y423585D02*
D03*
Y450159D02*
D03*
X395439Y450069D02*
D03*
D59*
X527185Y461431D02*
D03*
X532620Y450250D02*
D03*
X538055Y461431D02*
D03*
X543490Y450250D02*
D03*
X548925Y461431D02*
D03*
X554360Y450250D02*
D03*
X559795Y461431D02*
D03*
X565230Y450250D02*
D03*
X570665Y461431D02*
D03*
X576100Y450250D02*
D03*
X581535Y461431D02*
D03*
X586970Y450250D02*
D03*
X592406Y461431D02*
D03*
X597841Y450250D02*
D03*
X603276Y461431D02*
D03*
X608711Y450250D02*
D03*
X614146Y461431D02*
D03*
X619581Y450250D02*
D03*
X625016Y461431D02*
D03*
X630451Y450250D02*
D03*
X635886Y461431D02*
D03*
X641321Y450250D02*
D03*
X646756Y461431D02*
D03*
X652191Y450250D02*
D03*
Y423675D02*
D03*
X646756Y434856D02*
D03*
X641321Y423675D02*
D03*
X635886Y434856D02*
D03*
X630451Y423675D02*
D03*
X625016Y434856D02*
D03*
X619581Y423675D02*
D03*
X614146Y434856D02*
D03*
X608711Y423675D02*
D03*
X603276Y434856D02*
D03*
X597841Y423675D02*
D03*
X592406Y434856D02*
D03*
X586970Y423675D02*
D03*
X581535Y434856D02*
D03*
X576100Y423675D02*
D03*
X570665Y434856D02*
D03*
X565230Y423675D02*
D03*
X559795Y434856D02*
D03*
X554360Y423675D02*
D03*
X548925Y434856D02*
D03*
X543490Y423675D02*
D03*
X538055Y434856D02*
D03*
X532620Y423675D02*
D03*
X527185Y434856D02*
D03*
X188587Y434766D02*
D03*
X194022Y423585D02*
D03*
X199457Y434766D02*
D03*
X204892Y423585D02*
D03*
X210327Y434766D02*
D03*
X215762Y423585D02*
D03*
X221197Y434766D02*
D03*
X226632Y423585D02*
D03*
X232067Y434766D02*
D03*
X237502Y423585D02*
D03*
X242937Y434766D02*
D03*
X248372Y423585D02*
D03*
X253807Y434766D02*
D03*
X259242Y423585D02*
D03*
X264677Y434766D02*
D03*
X270112Y423585D02*
D03*
X275547Y434766D02*
D03*
X280982Y423585D02*
D03*
X286417Y434766D02*
D03*
X291852Y423585D02*
D03*
X297287Y434766D02*
D03*
X302722Y423585D02*
D03*
X308157Y434766D02*
D03*
X313593Y423585D02*
D03*
Y450159D02*
D03*
X308157Y461341D02*
D03*
X302722Y450159D02*
D03*
X297287Y461341D02*
D03*
X291852Y450159D02*
D03*
X286417Y461341D02*
D03*
X280982Y450159D02*
D03*
X275547Y461341D02*
D03*
X270112Y450159D02*
D03*
X264677Y461341D02*
D03*
X259242Y450159D02*
D03*
X253807Y461341D02*
D03*
X248372Y450159D02*
D03*
X242937Y461341D02*
D03*
X237502Y450159D02*
D03*
X232067Y461341D02*
D03*
X226632Y450159D02*
D03*
X221197Y461341D02*
D03*
X215762Y450159D02*
D03*
X210327Y461341D02*
D03*
X204892Y450159D02*
D03*
X199457Y461341D02*
D03*
X194022Y450159D02*
D03*
X188587Y461341D02*
D03*
X400892Y461250D02*
D03*
X406344Y450069D02*
D03*
X411797Y461250D02*
D03*
X417250Y450069D02*
D03*
X422703Y461250D02*
D03*
X428156Y450069D02*
D03*
X433608Y461250D02*
D03*
X439061Y450069D02*
D03*
D60*
X651266Y267514D02*
D03*
X560715D02*
D03*
X651266Y377750D02*
D03*
X560715D02*
D03*
D61*
X131750Y394750D02*
D03*
Y383884D02*
D03*
X111750Y231758D02*
D03*
X131750Y373018D02*
D03*
Y362152D02*
D03*
Y351285D02*
D03*
Y340419D02*
D03*
Y329553D02*
D03*
Y318687D02*
D03*
Y307821D02*
D03*
Y296955D02*
D03*
Y286089D02*
D03*
Y275222D02*
D03*
Y264356D02*
D03*
Y253490D02*
D03*
Y242624D02*
D03*
Y231758D02*
D03*
X121750Y389317D02*
D03*
Y378453D02*
D03*
Y367590D02*
D03*
Y356726D02*
D03*
Y345863D02*
D03*
Y334999D02*
D03*
Y324136D02*
D03*
Y313272D02*
D03*
Y302409D02*
D03*
Y291545D02*
D03*
Y280682D02*
D03*
Y269818D02*
D03*
Y258955D02*
D03*
Y248091D02*
D03*
Y237228D02*
D03*
Y226364D02*
D03*
X111750Y394750D02*
D03*
Y383884D02*
D03*
Y373018D02*
D03*
Y362152D02*
D03*
Y351285D02*
D03*
Y340419D02*
D03*
Y329553D02*
D03*
Y318687D02*
D03*
Y307821D02*
D03*
Y296955D02*
D03*
Y286089D02*
D03*
Y275222D02*
D03*
Y264356D02*
D03*
Y253490D02*
D03*
Y242624D02*
D03*
X131750Y220892D02*
D03*
X111750D02*
D03*
D62*
X121750Y428096D02*
D03*
Y187545D02*
D03*
D63*
X635886Y295250D02*
D03*
X113250Y457250D02*
D03*
X136750Y472750D02*
D03*
M02*
