G04*
G04 #@! TF.GenerationSoftware,Altium Limited,Altium Designer,19.0.10 (269)*
G04*
G04 Layer_Color=32768*
%FSLAX25Y25*%
%MOIN*%
G70*
G01*
G75*
%ADD11C,0.00394*%
%ADD14C,0.01000*%
%ADD98C,0.00197*%
D11*
X498868Y321781D02*
Y325718D01*
X496900Y323750D02*
X500837D01*
X505773Y267343D02*
Y271280D01*
X503804Y269311D02*
X507741D01*
X431282Y286352D02*
X435219D01*
X433250Y284384D02*
Y288321D01*
X431782Y316852D02*
X435719D01*
X433750Y314884D02*
Y318821D01*
X472750Y313175D02*
Y316325D01*
X471175Y314750D02*
X474325D01*
X472150Y286226D02*
Y289376D01*
X470575Y287801D02*
X473725D01*
X390250Y313175D02*
Y316325D01*
X388675Y314750D02*
X391825D01*
X390250Y286226D02*
Y289376D01*
X388675Y287801D02*
X391825D01*
X280750Y253681D02*
Y257618D01*
X278782Y255649D02*
X282719D01*
X266557Y318124D02*
X270494D01*
X268526Y316155D02*
Y320092D01*
X267282Y286301D02*
X271219D01*
X269250Y284333D02*
Y288270D01*
X349782Y286352D02*
X353719D01*
X351750Y284384D02*
Y288321D01*
X350782Y316852D02*
X354719D01*
X352750Y314884D02*
Y318821D01*
X308250Y313175D02*
Y316325D01*
X306675Y314750D02*
X309825D01*
X397250Y399782D02*
Y403719D01*
X395281Y401750D02*
X399218D01*
X364247Y399782D02*
Y403719D01*
X362278Y401750D02*
X366215D01*
X331243Y399782D02*
Y403719D01*
X329275Y401750D02*
X333212D01*
X298240Y399782D02*
Y403719D01*
X296271Y401750D02*
X300208D01*
X264750Y400282D02*
Y404219D01*
X262782Y402250D02*
X266719D01*
X232233Y399782D02*
Y403719D01*
X230265Y401750D02*
X234202D01*
X199750Y399782D02*
Y403719D01*
X197782Y401750D02*
X201719D01*
X166226Y399782D02*
Y403719D01*
X164258Y401750D02*
X168195D01*
X473650Y365781D02*
Y369719D01*
X471681Y367750D02*
X475619D01*
X348750Y248719D02*
Y252656D01*
X346781Y250688D02*
X350719D01*
X126675Y469750D02*
X129825D01*
X128250Y468175D02*
Y471325D01*
X118675Y469750D02*
X121825D01*
X120250Y468175D02*
Y471325D01*
X309250Y253093D02*
Y257030D01*
X307282Y255062D02*
X311219D01*
X306675Y287801D02*
X309825D01*
X308250Y286226D02*
Y289376D01*
X298253Y370923D02*
Y374860D01*
X296285Y372892D02*
X300222D01*
X331260Y370923D02*
Y374860D01*
X329292Y372892D02*
X333229D01*
X364267Y370923D02*
Y374860D01*
X362298Y372892D02*
X366235D01*
X397274Y371423D02*
Y375360D01*
X395305Y373392D02*
X399242D01*
X166226Y370923D02*
Y374860D01*
X164258Y372892D02*
X168195D01*
X199233Y370923D02*
Y374860D01*
X197265Y372892D02*
X201202D01*
X232240Y370923D02*
Y374860D01*
X230271Y372892D02*
X234208D01*
X265247Y370923D02*
Y374860D01*
X263278Y372892D02*
X267215D01*
D14*
X95750Y481250D02*
G03*
X82750Y468750I-250J-12750D01*
G01*
X706250Y468250D02*
G03*
X693750Y481250I-12750J250D01*
G01*
X693250Y225750D02*
G03*
X706250Y238250I250J12750D01*
G01*
X82750Y178750D02*
G03*
X95250Y165750I12750J-250D01*
G01*
X140250D01*
X200250Y225750D01*
X693250D01*
X95750Y481250D02*
X693750D01*
X82750Y178750D02*
X82750Y468750D01*
X706250D02*
X706250Y238250D01*
D98*
X491978Y311447D02*
X505758D01*
X491978Y336053D02*
X505758D01*
X491978Y311447D02*
Y336053D01*
X505758Y311447D02*
Y336053D01*
X498883Y281615D02*
X512663D01*
X498883Y257008D02*
X512663D01*
Y281615D01*
X498883Y257008D02*
Y281615D01*
X410612Y276116D02*
Y296589D01*
X455888Y276116D02*
Y296589D01*
X410612D02*
X455888D01*
X410612Y276116D02*
X455888D01*
X411112Y306616D02*
Y327089D01*
X456388Y306616D02*
Y327089D01*
X411112D02*
X456388D01*
X411112Y306616D02*
X456388D01*
X469797Y320656D02*
X475703D01*
X469797Y308844D02*
X475703D01*
Y320656D01*
X469797Y308844D02*
Y320656D01*
X469197Y293707D02*
X475103D01*
X469197Y281896D02*
X475103D01*
Y293707D01*
X469197Y281896D02*
Y293707D01*
X387297Y320656D02*
X393203D01*
X387297Y308844D02*
X393203D01*
Y320656D01*
X387297Y308844D02*
Y320656D01*
Y293707D02*
X393203D01*
X387297Y281896D02*
X393203D01*
Y293707D01*
X387297Y281896D02*
Y293707D01*
X272483Y247381D02*
X289018D01*
X272483Y263917D02*
X289018D01*
Y247381D02*
Y263917D01*
X272483Y247381D02*
Y263917D01*
X245888Y307888D02*
Y328360D01*
X291163Y307888D02*
Y328360D01*
X245888D02*
X291163D01*
X245888Y307888D02*
X291163D01*
X246612Y276065D02*
Y296537D01*
X291888Y276065D02*
Y296537D01*
X246612D02*
X291888D01*
X246612Y276065D02*
X291888D01*
X329112Y276116D02*
Y296589D01*
X374388Y276116D02*
Y296589D01*
X329112D02*
X374388D01*
X329112Y276116D02*
X374388D01*
X330112Y306616D02*
Y327089D01*
X375388Y306616D02*
Y327089D01*
X330112D02*
X375388D01*
X330112Y306616D02*
X375388D01*
X305297Y320656D02*
X311203D01*
X305297Y308844D02*
X311203D01*
Y320656D01*
X305297Y308844D02*
Y320656D01*
X388392Y405884D02*
X406108D01*
X388392Y397616D02*
X406108D01*
X388392D02*
Y405884D01*
X406108Y397616D02*
Y405884D01*
X355388D02*
X373105D01*
X355388Y397616D02*
X373105D01*
X355388D02*
Y405884D01*
X373105Y397616D02*
Y405884D01*
X322385D02*
X340102D01*
X322385Y397616D02*
X340102D01*
X322385D02*
Y405884D01*
X340102Y397616D02*
Y405884D01*
X289382D02*
X307098D01*
X289382Y397616D02*
X307098D01*
X289382D02*
Y405884D01*
X307098Y397616D02*
Y405884D01*
X255892Y406384D02*
X273608D01*
X255892Y398116D02*
X273608D01*
X255892D02*
Y406384D01*
X273608Y398116D02*
Y406384D01*
X223375Y405884D02*
X241091D01*
X223375Y397616D02*
X241091D01*
X223375D02*
Y405884D01*
X241091Y397616D02*
Y405884D01*
X190892D02*
X208608D01*
X190892Y397616D02*
X208608D01*
X190892D02*
Y405884D01*
X208608Y397616D02*
Y405884D01*
X157368D02*
X175085D01*
X157368Y397616D02*
X175085D01*
X157368D02*
Y405884D01*
X175085Y397616D02*
Y405884D01*
X462626Y383006D02*
X484674D01*
X462626Y352494D02*
X484674D01*
Y383006D01*
X462626Y352494D02*
Y383006D01*
X334183Y239861D02*
X363317D01*
X334183Y261515D02*
X363317D01*
Y239861D02*
Y261515D01*
X334183Y239861D02*
Y261515D01*
X131203Y463844D02*
Y475656D01*
X125297Y463844D02*
Y475656D01*
X131203D01*
X125297Y463844D02*
X131203D01*
X123203D02*
Y475656D01*
X117297Y463844D02*
Y475656D01*
X123203D01*
X117297Y463844D02*
X123203D01*
X300983Y246794D02*
X317518D01*
X300983Y263330D02*
X317518D01*
Y246794D02*
Y263330D01*
X300983Y246794D02*
Y263330D01*
X305297Y281896D02*
Y293707D01*
X311203Y281896D02*
Y293707D01*
X305297Y281896D02*
X311203D01*
X305297Y293707D02*
X311203D01*
X284769Y350057D02*
X311738D01*
X284769Y395726D02*
X311738D01*
X284769Y350057D02*
Y395726D01*
X311738Y350057D02*
Y395726D01*
X317776Y350057D02*
X344744D01*
X317776Y395726D02*
X344744D01*
X317776Y350057D02*
Y395726D01*
X344744Y350057D02*
Y395726D01*
X350783Y350057D02*
X377751D01*
X350783Y395726D02*
X377751D01*
X350783Y350057D02*
Y395726D01*
X377751Y350057D02*
Y395726D01*
X383789Y350557D02*
X410758D01*
X383789Y396226D02*
X410758D01*
X383789Y350557D02*
Y396226D01*
X410758Y350557D02*
Y396226D01*
X152742Y350057D02*
X179711D01*
X152742Y395726D02*
X179711D01*
X152742Y350057D02*
Y395726D01*
X179711Y350057D02*
Y395726D01*
X185749Y350057D02*
X212717D01*
X185749Y395726D02*
X212717D01*
X185749Y350057D02*
Y395726D01*
X212717Y350057D02*
Y395726D01*
X218756Y350057D02*
X245724D01*
X218756Y395726D02*
X245724D01*
X218756Y350057D02*
Y395726D01*
X245724Y350057D02*
Y395726D01*
X251762Y350057D02*
X278731D01*
X251762Y395726D02*
X278731D01*
X251762Y350057D02*
Y395726D01*
X278731Y350057D02*
Y395726D01*
M02*
