G04*
G04 #@! TF.GenerationSoftware,Altium Limited,Altium Designer,19.0.10 (269)*
G04*
G04 Layer_Physical_Order=1*
G04 Layer_Color=255*
%FSLAX25Y25*%
%MOIN*%
G70*
G01*
G75*
%ADD12C,0.01000*%
%ADD14C,0.00800*%
%ADD17R,0.06000X0.04000*%
%ADD18R,0.03543X0.03150*%
%ADD19R,0.08000X0.06000*%
%ADD20O,0.05709X0.02362*%
%ADD21R,0.04000X0.06000*%
%ADD22R,0.01600X0.04800*%
%ADD23C,0.03000*%
%ADD24R,0.05300X0.02000*%
%ADD25R,0.03347X0.03347*%
%ADD26R,0.03347X0.03347*%
%ADD27R,0.02165X0.02165*%
%ADD28R,0.02165X0.02165*%
%ADD29R,0.02756X0.00984*%
%ADD30R,0.01476X0.01476*%
%ADD31R,0.00984X0.02756*%
%ADD32R,0.04331X0.05236*%
%ADD33R,0.07795X0.19843*%
%ADD34R,0.03740X0.03543*%
%ADD35R,0.03150X0.03543*%
%ADD36R,0.07087X0.02756*%
%ADD37R,0.05906X0.04331*%
%ADD38R,0.03543X0.03740*%
%ADD68C,0.02000*%
%ADD69C,0.01200*%
%ADD70C,0.02500*%
%ADD71C,0.01500*%
%ADD72C,0.03500*%
%ADD73C,0.16929*%
%ADD74C,0.06653*%
%ADD75R,0.06653X0.06653*%
%ADD76C,0.18740*%
%ADD77R,0.06653X0.06653*%
%ADD78C,0.06653*%
%ADD79C,0.18898*%
%ADD80C,0.07087*%
%ADD81C,0.02700*%
G36*
X79151Y141008D02*
X78422Y140706D01*
X77581Y140061D01*
X76935Y139220D01*
X76530Y138240D01*
X76391Y137189D01*
X76530Y136138D01*
X76935Y135158D01*
X77581Y134317D01*
X78422Y133672D01*
X79151Y133370D01*
Y120500D01*
X65028Y109000D01*
X54921D01*
X53142Y107221D01*
Y104042D01*
X49622D01*
Y107000D01*
X49536Y107429D01*
X49293Y107793D01*
X48929Y108036D01*
X48500Y108122D01*
X48071Y108036D01*
X47707Y107793D01*
X47464Y107429D01*
X47378Y107000D01*
Y104042D01*
X42099D01*
X42072Y104070D01*
Y108221D01*
X41979Y108689D01*
X41714Y109086D01*
X41142Y109658D01*
Y147000D01*
X79151D01*
Y141008D01*
D02*
G37*
G36*
X55509Y96000D02*
X59896D01*
X60881Y95014D01*
Y87973D01*
X60881Y86522D01*
X52044Y86522D01*
X50000Y84478D01*
X50000Y73784D01*
X47716Y71500D01*
X41162D01*
X40748Y71085D01*
Y63085D01*
X30000Y63085D01*
X30000Y80822D01*
X38132D01*
X41979Y84669D01*
Y94454D01*
X42072Y94922D01*
Y99000D01*
X47378Y99000D01*
Y96000D01*
X47464Y95571D01*
X47707Y95207D01*
X48071Y94964D01*
X48500Y94878D01*
X48929Y94964D01*
X49293Y95207D01*
X49536Y95571D01*
X49622Y96000D01*
Y99000D01*
X52509Y99000D01*
X55509Y96000D01*
D02*
G37*
G36*
X154618Y112590D02*
X154624Y112588D01*
Y101571D01*
X152500Y99447D01*
Y87854D01*
X152146Y87501D01*
X134101Y87563D01*
Y99147D01*
X131500Y101748D01*
Y112590D01*
X154618D01*
D02*
G37*
G36*
X174661Y102987D02*
X174766Y102831D01*
X174851Y102484D01*
X174042Y101676D01*
X173666Y101113D01*
X173534Y100450D01*
X173666Y99787D01*
X174042Y99224D01*
X174604Y98849D01*
X175268Y98717D01*
X175931Y98849D01*
X176493Y99224D01*
X176884Y99615D01*
X184430D01*
X185094Y99747D01*
X185656Y100122D01*
X188344Y102811D01*
X198799Y102676D01*
X199319Y102608D01*
X199746Y102664D01*
X217000Y102442D01*
X217000Y70897D01*
X213737D01*
X213372Y71372D01*
X212531Y72017D01*
X211551Y72423D01*
X210500Y72562D01*
X209449Y72423D01*
X208469Y72017D01*
X207628Y71372D01*
X207263Y70897D01*
X202680D01*
X202433Y71397D01*
X202836Y71922D01*
X203242Y72901D01*
X203380Y73953D01*
X203242Y75004D01*
X202836Y75984D01*
X202191Y76825D01*
X201350Y77470D01*
X200370Y77876D01*
X199319Y78014D01*
X198268Y77876D01*
X197288Y77470D01*
X196447Y76825D01*
X195801Y75984D01*
X195396Y75004D01*
X195257Y73953D01*
X195396Y72901D01*
X195801Y71922D01*
X196204Y71397D01*
X195958Y70897D01*
X187008D01*
X136024Y70897D01*
X130244Y65117D01*
X119748D01*
Y86000D01*
X122524D01*
Y75147D01*
X122617Y74679D01*
X122882Y74282D01*
X123279Y74016D01*
X123748Y73923D01*
X124216Y74016D01*
X124613Y74282D01*
X124878Y74679D01*
X124971Y75147D01*
Y86000D01*
X155758D01*
X162209Y92451D01*
Y102791D01*
X162565Y103142D01*
X174661Y102987D01*
D02*
G37*
G36*
X113748Y64647D02*
X97586D01*
X95637Y66596D01*
X90840D01*
Y69647D01*
X104248D01*
X105748Y71147D01*
Y85147D01*
X113748D01*
Y64647D01*
D02*
G37*
G36*
X67000Y84820D02*
X67000Y78647D01*
X70686Y78647D01*
X72236Y75659D01*
X74376Y73507D01*
X79159Y73500D01*
X80278Y75005D01*
X89490Y75005D01*
Y57289D01*
X79151D01*
X78509Y56647D01*
X75009D01*
X70509Y52147D01*
X63035D01*
X60509Y49621D01*
Y47647D01*
X52509D01*
Y53647D01*
X60509D01*
X65585Y59147D01*
X79247Y59147D01*
X79885Y59785D01*
X79885Y70771D01*
X78486Y72171D01*
X66486Y72171D01*
X60509Y78147D01*
X52509D01*
X52509Y84820D01*
X67000Y84820D01*
D02*
G37*
G36*
X158748Y58718D02*
X135873Y58718D01*
Y68647D01*
X158748D01*
X158748Y58718D01*
D02*
G37*
G36*
X197586Y64111D02*
Y63047D01*
X197717Y62384D01*
X198093Y61822D01*
X198656Y61446D01*
X199319Y61314D01*
X205047D01*
X205711Y61446D01*
X206273Y61822D01*
X208539Y64087D01*
X217000Y64069D01*
X217000Y28651D01*
X200397D01*
X200206Y29112D01*
X200307Y29214D01*
X200595Y29644D01*
X200695Y30151D01*
Y37448D01*
X201350Y37719D01*
X202191Y38364D01*
X202836Y39206D01*
X203242Y40185D01*
X203380Y41236D01*
X203242Y42287D01*
X202836Y43267D01*
X202191Y44108D01*
X201350Y44754D01*
X200370Y45159D01*
X199319Y45298D01*
X198268Y45159D01*
X197288Y44754D01*
X196447Y44108D01*
X195801Y43267D01*
X195396Y42287D01*
X195257Y41236D01*
X195396Y40185D01*
X195801Y39206D01*
X196447Y38364D01*
X197288Y37719D01*
X198045Y37405D01*
Y30700D01*
X196170Y28826D01*
X173500D01*
X172993Y28725D01*
X172882Y28651D01*
X172000D01*
Y33500D01*
X162500Y41500D01*
X126724Y41918D01*
Y50394D01*
X126630Y50863D01*
X126365Y51260D01*
X124613Y53012D01*
X124216Y53277D01*
X123748Y53370D01*
X123279Y53277D01*
X122882Y53012D01*
X122617Y52615D01*
X122524Y52147D01*
X122617Y51679D01*
X122882Y51282D01*
X124276Y49888D01*
Y42303D01*
X123921Y41951D01*
X119748Y42000D01*
Y62981D01*
X130244D01*
X136024Y57200D01*
X163000D01*
X163000Y63830D01*
X163354Y64183D01*
X197586Y64111D01*
D02*
G37*
G36*
X63498Y71311D02*
Y70897D01*
X77689Y70897D01*
X78764Y69822D01*
X78748Y60647D01*
X64748D01*
X62486Y58385D01*
X51311D01*
X47248Y54322D01*
X22748D01*
Y58822D01*
X39748D01*
Y60822D01*
X41748Y62822D01*
Y70159D01*
X50248D01*
X52748Y72659D01*
Y73322D01*
X61487D01*
X63498Y71311D01*
D02*
G37*
G36*
X96023Y63578D02*
X100840D01*
X104781Y62593D01*
X108840Y62578D01*
X113340D01*
X113340Y42078D01*
X105340D01*
X103340Y44078D01*
X103340Y57054D01*
X100679Y59716D01*
X97179D01*
X96316Y60578D01*
X90840D01*
Y64078D01*
X95523D01*
X96023Y63578D01*
D02*
G37*
G36*
X161516Y39706D02*
X168500Y33544D01*
X168500Y24374D01*
X162626Y18500D01*
X133500D01*
Y39645D01*
X133855Y39996D01*
X161516Y39706D01*
D02*
G37*
%LPC*%
G36*
X210500Y50750D02*
X209449Y50612D01*
X208469Y50206D01*
X207628Y49561D01*
X206983Y48720D01*
X206577Y47740D01*
X206438Y46689D01*
X206577Y45638D01*
X206983Y44658D01*
X207628Y43817D01*
X208469Y43172D01*
X209449Y42766D01*
X210500Y42628D01*
X211551Y42766D01*
X212531Y43172D01*
X213372Y43817D01*
X214017Y44658D01*
X214423Y45638D01*
X214562Y46689D01*
X214423Y47740D01*
X214017Y48720D01*
X213372Y49561D01*
X212531Y50206D01*
X211551Y50612D01*
X210500Y50750D01*
D02*
G37*
%LPD*%
D12*
X44623Y23500D02*
X54000D01*
X43500Y24623D02*
X44623Y23500D01*
X43500Y24623D02*
Y36000D01*
X16248Y84395D02*
Y89053D01*
X35503Y22873D02*
Y24950D01*
X16830Y43623D02*
X35503Y24950D01*
X-3554Y43623D02*
X16830D01*
X144272Y127500D02*
X165728D01*
X155500Y139500D02*
X190111D01*
X148500Y132500D02*
X155500Y139500D01*
X144272Y132500D02*
X148500D01*
X190111Y139500D02*
X199370Y130241D01*
Y116079D02*
Y130241D01*
X171000Y123500D02*
X173437Y121063D01*
Y119831D02*
Y121063D01*
Y119831D02*
X174268Y119000D01*
X171000Y123500D02*
Y126500D01*
X165728Y127500D02*
X170000D01*
X171000Y126500D01*
X174268Y119000D02*
X174563Y119295D01*
Y127760D01*
X64348Y42500D02*
X65471Y43623D01*
X25754Y48453D02*
X26248Y47959D01*
X10702Y48408D02*
X10748Y48453D01*
X35748Y113322D02*
X40849Y108221D01*
Y94922D02*
Y108221D01*
X35115Y94922D02*
X40849D01*
X22248Y104322D02*
X34748D01*
X35527Y103542D01*
X125500Y39207D02*
X126500Y38207D01*
Y30219D02*
Y38207D01*
X125500Y39207D02*
Y50394D01*
X123748Y52147D02*
X125500Y50394D01*
X19748Y79956D02*
X22282Y82490D01*
X19748Y76459D02*
Y79956D01*
X16095Y81405D02*
X20381Y85690D01*
X16095Y81405D02*
Y81459D01*
X10930D02*
X16095D01*
X22282Y82490D02*
X24110D01*
X15500Y84500D02*
X16142D01*
X16248Y84395D01*
X21150Y85690D02*
X21248Y85788D01*
X20381Y85690D02*
X21150D01*
X21248Y85788D02*
Y89159D01*
X24322Y82278D02*
X34522D01*
X24110Y82490D02*
X24322Y82278D01*
X34522D02*
X38086Y85842D01*
X2799Y109648D02*
X19967D01*
X26486Y85842D02*
X32288D01*
X26000Y86328D02*
X26486Y85842D01*
X26148Y109648D02*
X34220D01*
X22522Y106022D02*
X26148Y109648D01*
X16448Y106022D02*
X22522D01*
X38086Y98710D02*
Y105781D01*
X34220Y109648D02*
X38086Y105781D01*
X124748Y21500D02*
X126500D01*
X120895Y17647D02*
X124748Y21500D01*
X119748Y17647D02*
X120895D01*
X83900Y29833D02*
Y31830D01*
X79567Y25500D02*
X83900Y29833D01*
X54000Y23500D02*
X60248Y17252D01*
X43500Y36000D02*
X46500Y39000D01*
X82500Y14000D02*
Y22567D01*
X79567Y25500D02*
X82500Y22567D01*
X83900Y31830D02*
X85507Y33437D01*
X80048Y103147D02*
X80299Y102896D01*
Y97647D02*
Y102896D01*
X74196Y97647D02*
X75048Y96796D01*
Y92147D02*
Y96796D01*
X111248Y17198D02*
Y21062D01*
X106747Y25563D02*
X111248Y21062D01*
X97921Y28352D02*
X103007Y33437D01*
X97500Y28352D02*
X97921D01*
X60248Y32147D02*
X60531D01*
X78574Y31647D02*
X83091Y36164D01*
X79151Y38500D02*
Y39110D01*
X80148Y40106D01*
Y43347D01*
X74427Y27500D02*
X78574Y31647D01*
X65178Y27500D02*
X74427D01*
X60531Y32147D02*
X65178Y27500D01*
X80148Y47209D02*
X83091Y44266D01*
X80148Y47209D02*
Y47947D01*
X83091Y36164D02*
Y44266D01*
X80148Y47947D02*
X80248D01*
X75248D02*
X80148D01*
X57533Y42500D02*
X64348D01*
X50248Y35215D02*
X57533Y42500D01*
X50248Y32322D02*
Y35215D01*
X57500Y46000D02*
X63801D01*
X50500Y39000D02*
X57500Y46000D01*
X46500Y39000D02*
X50500D01*
X60248Y15647D02*
Y17252D01*
X63801Y46000D02*
X65748Y47947D01*
X107748Y89647D02*
X108101Y90000D01*
X115000Y30899D02*
X117557Y33456D01*
X115000Y21395D02*
Y30899D01*
Y21395D02*
X118748Y17647D01*
X130123Y11507D02*
Y24691D01*
X128358Y26456D02*
X130123Y24691D01*
X119748Y26456D02*
X128358D01*
X124262Y5647D02*
X130123Y11507D01*
X99390Y99447D02*
X101200Y101257D01*
Y105000D01*
X119000Y91500D02*
X123748Y86752D01*
Y75147D02*
Y86752D01*
X93299Y97647D02*
X97000Y101348D01*
Y103500D01*
X1548Y83259D02*
X6330Y88042D01*
X1548Y81459D02*
Y83259D01*
X6330Y88042D02*
X8748D01*
X65471Y43623D02*
X65748Y43347D01*
X92287Y75005D02*
X93150D01*
X93968Y75823D01*
Y89726D01*
X91548Y92147D02*
X93968Y89726D01*
X35503Y20500D02*
Y22873D01*
X2799Y108403D02*
Y109648D01*
X32288Y85842D02*
X32968Y86522D01*
Y89710D01*
X-2095Y101364D02*
Y107194D01*
X-3304Y108403D02*
X-2095Y107194D01*
Y101364D02*
X-752D01*
X15936Y99459D02*
X16448Y98947D01*
X8748Y99459D02*
X15936D01*
X16448Y98947D02*
Y106022D01*
X35527Y98710D02*
Y103542D01*
X21048Y103122D02*
X22248Y104322D01*
X21048Y98947D02*
Y103122D01*
X-5389Y113322D02*
X35748D01*
X32968Y95179D02*
Y98710D01*
X32799Y95010D02*
X32968Y95179D01*
X27099Y95010D02*
X32799D01*
X30409Y93310D02*
X33503D01*
X35115Y94922D01*
X-8252Y48322D02*
X-3554Y43623D01*
X-8252Y110459D02*
X-5389Y113322D01*
X-8252Y48322D02*
Y110459D01*
X30409Y89710D02*
Y93310D01*
X21248Y89159D02*
X27099Y95010D01*
X107548Y5647D02*
X124262D01*
X102142Y11052D02*
X107548Y5647D01*
X96248Y11052D02*
X102142D01*
X75048Y92147D02*
X75748Y91447D01*
Y86328D02*
Y91447D01*
X26448Y98710D02*
X30409D01*
X35268Y98969D02*
X35527Y98710D01*
X16248Y98747D02*
X16448Y98947D01*
X16248Y93653D02*
Y98747D01*
X21048Y93959D02*
X21248Y93759D01*
X21048Y93959D02*
Y98947D01*
X81830Y80202D02*
X81854D01*
X79648Y92147D02*
X80148Y91647D01*
X38086Y85842D02*
Y89710D01*
X-3052Y81459D02*
Y87253D01*
X-752Y89553D01*
X-3052Y75164D02*
Y81459D01*
Y75164D02*
X-1252Y73364D01*
X-1304Y48459D02*
X-1252Y48408D01*
X79846Y92854D02*
Y97606D01*
X19748Y76459D02*
X22248Y73959D01*
X24098D01*
X19248Y70959D02*
X22248Y73959D01*
X19248Y66897D02*
Y70959D01*
Y66897D02*
X22186Y63959D01*
X24098D01*
Y78959D02*
X25748D01*
X28248Y76459D01*
Y70959D02*
Y76459D01*
X26248Y68959D02*
X28248Y70959D01*
X24098Y68959D02*
X26248D01*
X117557Y33456D02*
X118748D01*
X119748Y34456D01*
X118748Y17647D02*
X119748D01*
X68548Y87563D02*
Y92481D01*
X73748Y75910D02*
Y79030D01*
X70130Y82647D02*
X73748Y79030D01*
X118299Y11096D02*
X119748Y9647D01*
X111248Y11096D02*
X118299D01*
X91548Y92147D02*
Y95896D01*
X93299Y97647D01*
X92287Y73037D02*
X94688D01*
X97618Y71068D02*
X99248Y72698D01*
X92287Y71068D02*
X97618D01*
X95586Y59257D02*
X99248Y55596D01*
X92287Y59257D02*
X95586D01*
X92287Y57289D02*
X95110D01*
X96074Y56324D01*
Y53264D02*
Y56324D01*
X96287Y41147D02*
X99248Y44107D01*
Y48713D01*
X96112Y51849D02*
X99248Y48713D01*
X96112Y51849D02*
Y53226D01*
X96074Y53264D02*
X96112Y53226D01*
X89759Y51999D02*
Y53647D01*
Y51999D02*
X96112Y45647D01*
X111248Y17198D02*
X111622Y17572D01*
X95931Y17472D02*
X96248Y17155D01*
X91542Y11052D02*
X96248D01*
X88248Y14347D02*
X91542Y11052D01*
X106999Y11096D02*
X111248D01*
X103748Y14347D02*
X106999Y11096D01*
X63948Y92481D02*
Y97481D01*
X74652Y75005D02*
X77326D01*
X73748Y75910D02*
X74652Y75005D01*
X87448Y103147D02*
X87696Y102898D01*
Y97647D02*
Y102898D01*
X86948Y96898D02*
X87696Y97647D01*
X86948Y92147D02*
Y96898D01*
X80299Y102898D02*
X80548Y103147D01*
X80248Y47947D02*
X81854Y49553D01*
Y54729D01*
X79885Y51522D02*
Y54729D01*
X65748Y47947D02*
X70248D01*
X73448Y51147D01*
X79510D01*
X79885Y51522D01*
X75326Y23147D02*
X78826Y19647D01*
X67748Y23147D02*
X75326D01*
X60248Y15647D02*
X67748Y23147D01*
D14*
X40623Y19822D02*
Y41500D01*
X18500Y30500D02*
X24322D01*
X26000Y28822D01*
Y20046D02*
Y28822D01*
Y20046D02*
X28046Y18000D01*
X38801D01*
X40623Y19822D01*
X159921Y117500D02*
X165728D01*
X158500Y116079D02*
X159921Y117500D01*
X144272D02*
X150000D01*
X151500Y116000D01*
X48500Y100507D02*
X55943D01*
X57450Y99000D01*
X57500D01*
X55670Y102007D02*
X57662Y104000D01*
X48720Y102007D02*
X55670D01*
X48500Y102228D02*
X48720Y102007D01*
X48500Y96000D02*
Y100507D01*
Y102228D02*
Y107000D01*
X57500Y98500D02*
Y99000D01*
X156000Y132500D02*
X165728D01*
X144272Y122500D02*
X154750D01*
X165728D01*
X177740Y127760D02*
X178500Y128520D01*
X174563Y127760D02*
X177740D01*
X177632Y131500D02*
X178500Y130632D01*
Y128520D02*
Y130632D01*
X174563Y131500D02*
X177632D01*
X186457D02*
X188228Y129729D01*
X182437Y131500D02*
X186457D01*
X186258Y127760D02*
X188228Y129729D01*
X182437Y127760D02*
X186258D01*
X93299Y110500D02*
X100748D01*
X105748Y102581D02*
Y106499D01*
X68500Y101769D02*
X69877Y103147D01*
X93299Y108647D02*
Y110500D01*
X71008Y87481D02*
X79862Y78626D01*
X68630Y87481D02*
X71008D01*
X68500Y97647D02*
Y101769D01*
X27015Y83878D02*
X27379Y84242D01*
X24985Y83878D02*
X27015D01*
X24773Y84090D02*
X24985Y83878D01*
X21043Y84090D02*
X24773D01*
X17450Y67800D02*
Y80497D01*
X14248Y64597D02*
X17450Y67800D01*
Y80497D02*
X21043Y84090D01*
X27379Y84242D02*
X32951D01*
X35527Y86818D01*
Y89710D01*
X40623Y41500D02*
X46500D01*
X50248Y45248D01*
X104390Y101223D02*
X105748Y102581D01*
X104390Y99447D02*
Y101223D01*
X101747Y110500D02*
X105748Y106499D01*
X83822Y46178D02*
X87000Y43000D01*
X83822Y46178D02*
Y54729D01*
X95931Y17472D02*
Y23221D01*
X93589Y25563D02*
X95931Y23221D01*
X89248Y25563D02*
X93589D01*
X109768Y29500D02*
X110487Y30219D01*
X103311Y29500D02*
X109768D01*
X102000Y28189D02*
X103311Y29500D01*
X102000Y20695D02*
Y28189D01*
Y20695D02*
X103748Y18947D01*
X110487Y30219D02*
Y33437D01*
X85500Y21695D02*
X88248Y18947D01*
X85500Y21695D02*
Y28500D01*
X86500Y29500D01*
X88990D01*
X92927Y33437D01*
X92988D01*
X93487Y38702D02*
Y43660D01*
X87759Y49387D02*
X93487Y43660D01*
X87759Y49387D02*
Y54729D01*
X110487Y33437D02*
Y36513D01*
X109500Y37500D02*
X110487Y36513D01*
X94688Y37500D02*
X109500D01*
X93487Y38702D02*
X94688Y37500D01*
X91987Y34438D02*
Y43013D01*
X85791Y49209D02*
X91987Y43013D01*
Y34438D02*
X92988Y33437D01*
X85791Y49209D02*
Y54729D01*
X50248Y45248D02*
Y51000D01*
X44789Y56459D02*
X50248Y51000D01*
X44248Y56459D02*
X44789D01*
X66901Y40000D02*
X70248Y43347D01*
X63122Y40000D02*
X66901D01*
X62522Y39400D02*
X63122Y40000D01*
X70248Y43347D02*
X75248D01*
X109172Y105397D02*
X111622Y107847D01*
X109172Y99629D02*
Y105397D01*
X104390Y94847D02*
X109172Y99629D01*
X111622Y97122D02*
Y100507D01*
X106747Y92247D02*
X111622Y97122D01*
X102443Y92247D02*
X106747D01*
X100748Y110500D02*
X101747D01*
X99390Y94847D02*
X104390D01*
X99248Y89051D02*
X102443Y92247D01*
X15000Y75785D02*
Y77822D01*
X14175Y78647D02*
X15000Y77822D01*
X9142Y78647D02*
X14175D01*
X6330Y81459D02*
X9142Y78647D01*
X91528Y103147D02*
X93299Y104918D01*
Y108647D01*
X83248Y112596D02*
Y113147D01*
Y112596D02*
X87196Y108647D01*
X70548D02*
X73696D01*
X69748Y107847D02*
X70548Y108647D01*
X69748Y103277D02*
Y107847D01*
Y103277D02*
X69877Y103147D01*
X75448D01*
X83748Y89573D02*
Y107647D01*
X79799Y108647D02*
X82748D01*
X83748Y107647D01*
Y89573D02*
X85791Y87529D01*
Y77564D02*
Y87529D01*
X82748Y83178D02*
Y83912D01*
X82732Y83162D02*
X82748Y83178D01*
X91248Y84147D02*
Y86328D01*
X89728Y82627D02*
X91248Y84147D01*
X89728Y77564D02*
Y82627D01*
X86948Y92147D02*
X87759Y91335D01*
Y77564D02*
Y91335D01*
X82732Y83162D02*
X83822Y82072D01*
X79648Y82385D02*
X81830Y80202D01*
X81854Y77564D02*
Y80202D01*
X79648Y82385D02*
Y92147D01*
X83822Y77564D02*
Y82072D01*
D17*
X18500Y22500D02*
D03*
Y30500D02*
D03*
Y6500D02*
D03*
Y14500D02*
D03*
X175268Y108450D02*
D03*
Y100450D02*
D03*
X165768Y108450D02*
D03*
Y100450D02*
D03*
X67248Y62647D02*
D03*
Y54647D02*
D03*
Y76647D02*
D03*
Y68647D02*
D03*
X26248Y56459D02*
D03*
Y48459D02*
D03*
X35248D02*
D03*
Y56459D02*
D03*
X44248D02*
D03*
Y48459D02*
D03*
X119748Y17647D02*
D03*
Y9647D02*
D03*
Y34456D02*
D03*
Y26456D02*
D03*
D18*
X182437Y127760D02*
D03*
Y131500D02*
D03*
Y135240D02*
D03*
X174563D02*
D03*
Y131500D02*
D03*
Y127760D02*
D03*
D19*
X48500Y96000D02*
D03*
Y107000D02*
D03*
X57748Y61647D02*
D03*
Y50647D02*
D03*
Y70159D02*
D03*
Y81159D02*
D03*
X138248Y79647D02*
D03*
Y90647D02*
D03*
X148248Y79647D02*
D03*
Y90647D02*
D03*
X137748Y47647D02*
D03*
Y36647D02*
D03*
X147748Y47647D02*
D03*
Y36647D02*
D03*
D20*
X165728Y117500D02*
D03*
Y122500D02*
D03*
Y127500D02*
D03*
Y132500D02*
D03*
X144272Y117500D02*
D03*
Y122500D02*
D03*
Y127500D02*
D03*
Y132500D02*
D03*
D21*
X182268Y119000D02*
D03*
X174268D02*
D03*
D22*
X38086Y89710D02*
D03*
X35527D02*
D03*
X32968D02*
D03*
X30409D02*
D03*
Y98710D02*
D03*
X32968D02*
D03*
X35527D02*
D03*
X38086D02*
D03*
D23*
X156248Y63647D02*
D03*
Y54647D02*
D03*
Y72647D02*
D03*
X16448Y106022D02*
D03*
X16095Y56459D02*
D03*
X82500Y14000D02*
D03*
X112500Y92998D02*
D03*
X78826Y19647D02*
D03*
X96287Y41147D02*
D03*
X87000Y43000D02*
D03*
X96112Y45647D02*
D03*
X78574Y31647D02*
D03*
D24*
X24098Y78959D02*
D03*
Y73959D02*
D03*
Y68959D02*
D03*
Y63959D02*
D03*
X44398D02*
D03*
Y68959D02*
D03*
Y73959D02*
D03*
Y78959D02*
D03*
D25*
X99248Y82949D02*
D03*
Y89051D02*
D03*
Y72698D02*
D03*
Y66596D02*
D03*
Y55596D02*
D03*
Y61698D02*
D03*
X137748Y72698D02*
D03*
Y66596D02*
D03*
X147748Y72698D02*
D03*
Y66596D02*
D03*
X137748Y54596D02*
D03*
Y60698D02*
D03*
X147748Y54596D02*
D03*
Y60698D02*
D03*
D26*
X93299Y97647D02*
D03*
X87196D02*
D03*
X74196D02*
D03*
X80299D02*
D03*
X79799Y108647D02*
D03*
X73696D02*
D03*
X87196D02*
D03*
X93299D02*
D03*
D27*
X63948Y92481D02*
D03*
X68548D02*
D03*
X64030Y87481D02*
D03*
X68630D02*
D03*
X79648Y92147D02*
D03*
X75048D02*
D03*
X86948D02*
D03*
X91548D02*
D03*
X75448Y103147D02*
D03*
X80048D02*
D03*
X91528D02*
D03*
X86928D02*
D03*
X68448Y97481D02*
D03*
X63848D02*
D03*
X105800Y105000D02*
D03*
X101200D02*
D03*
X21048Y98947D02*
D03*
X16448D02*
D03*
X-3052Y81459D02*
D03*
X1548D02*
D03*
X6330D02*
D03*
X10930D02*
D03*
X65530Y82647D02*
D03*
X70130D02*
D03*
D28*
X99390Y99447D02*
D03*
Y94847D02*
D03*
X104390Y99447D02*
D03*
Y94847D02*
D03*
X75248Y47947D02*
D03*
Y43347D02*
D03*
X70248Y47947D02*
D03*
Y43347D02*
D03*
X65748D02*
D03*
Y47947D02*
D03*
X80148Y43347D02*
D03*
Y47947D02*
D03*
X103748Y14347D02*
D03*
Y18947D02*
D03*
X88248Y14347D02*
D03*
Y18947D02*
D03*
X21248Y89159D02*
D03*
Y93759D02*
D03*
X14248Y69197D02*
D03*
Y64597D02*
D03*
X16248Y89053D02*
D03*
Y93653D02*
D03*
D29*
X77326Y75005D02*
D03*
Y73037D02*
D03*
Y69100D02*
D03*
Y67131D02*
D03*
Y63194D02*
D03*
Y61226D02*
D03*
Y57289D02*
D03*
X92287D02*
D03*
Y59257D02*
D03*
Y61226D02*
D03*
Y63194D02*
D03*
Y67131D02*
D03*
Y69100D02*
D03*
Y71068D02*
D03*
Y73037D02*
D03*
Y75005D02*
D03*
D30*
X77671Y77220D02*
D03*
X91943D02*
D03*
Y55074D02*
D03*
X77671D02*
D03*
D31*
X79885Y54729D02*
D03*
X81854D02*
D03*
X83822D02*
D03*
X85791D02*
D03*
X87759D02*
D03*
X89728D02*
D03*
Y77564D02*
D03*
X87759D02*
D03*
X85791D02*
D03*
X83822D02*
D03*
X81854D02*
D03*
X79885D02*
D03*
D32*
X82248Y66147D02*
D03*
X87366D02*
D03*
X82248Y72171D02*
D03*
X87366D02*
D03*
X82248Y60123D02*
D03*
X87366D02*
D03*
D33*
X123748Y52147D02*
D03*
X109748D02*
D03*
Y75147D02*
D03*
X123748D02*
D03*
D34*
X111248Y11096D02*
D03*
Y17198D02*
D03*
X96248Y11052D02*
D03*
Y17155D02*
D03*
X4748Y54510D02*
D03*
Y48408D02*
D03*
X-2500Y54551D02*
D03*
Y48449D02*
D03*
D35*
X110487Y33437D02*
D03*
X103007D02*
D03*
X106747Y25563D02*
D03*
X92988Y33437D02*
D03*
X85507D02*
D03*
X89248Y25563D02*
D03*
D36*
X8748Y99459D02*
D03*
Y88042D02*
D03*
D37*
X7500Y73405D02*
D03*
Y61594D02*
D03*
X-1252Y73364D02*
D03*
Y61553D02*
D03*
X-752Y89553D02*
D03*
Y101364D02*
D03*
D38*
X-3304Y108403D02*
D03*
X2799D02*
D03*
D68*
X205047Y63047D02*
X210500Y68500D01*
X199319Y63047D02*
X205047D01*
X199319D02*
Y73953D01*
X184430Y101348D02*
X189500Y106418D01*
X176166Y101348D02*
X184430D01*
X175268Y100450D02*
X176166Y101348D01*
X189500Y106418D02*
Y122500D01*
X193625Y126625D01*
Y132875D01*
X191260Y135240D02*
X193625Y132875D01*
X182437Y135240D02*
X191260D01*
X174563D02*
X182437D01*
X182268Y119000D02*
X182450Y118818D01*
Y108450D02*
Y118818D01*
X175268Y108450D02*
X182450D01*
X165768D02*
X175268D01*
D69*
X196719Y27500D02*
X199370Y30151D01*
Y39740D01*
X173500Y27500D02*
X196719D01*
X149200Y3200D02*
X173500Y27500D01*
X12800Y3200D02*
X149200D01*
X10702Y5298D02*
X12800Y3200D01*
X10702Y5298D02*
Y12656D01*
X12547Y14500D01*
X18500D01*
Y22500D01*
X112500Y90000D02*
Y92998D01*
X112500Y90000D02*
X112500Y90000D01*
X108101Y90000D02*
X112500D01*
X105946Y89647D02*
X107748D01*
X99248Y82949D02*
X105946Y89647D01*
X16095Y56459D02*
X26248D01*
X14248Y58307D02*
X16095Y56459D01*
X14248Y58307D02*
Y64597D01*
Y69197D02*
Y70899D01*
X12231Y72916D02*
X14248Y70899D01*
X7248Y72916D02*
X12231D01*
X99248Y79500D02*
Y82949D01*
X96274Y76527D02*
X99248Y79500D01*
X96274Y74622D02*
Y76527D01*
X94688Y73037D02*
X96274Y74622D01*
D70*
X29130Y6500D02*
X35503Y12873D01*
X18500Y6500D02*
X29130D01*
D71*
X64061Y82475D02*
Y87475D01*
D72*
X35748Y48453D02*
X44254D01*
X26748D02*
X35254D01*
X7248Y57010D02*
Y61105D01*
X4748Y54510D02*
X7248Y57010D01*
X-2252Y54510D02*
Y61553D01*
X17248Y48453D02*
X25754D01*
X4748Y48408D02*
X10702D01*
X-1252D02*
X4748D01*
D73*
X180000Y14347D02*
D03*
X162000Y152000D02*
D03*
X0D02*
D03*
X-752Y17793D02*
D03*
D74*
X96811Y126008D02*
D03*
X91358Y137189D02*
D03*
X85905Y126008D02*
D03*
X80453Y137189D02*
D03*
X75000Y126008D02*
D03*
X69547Y137189D02*
D03*
X64095Y126008D02*
D03*
X58642Y137189D02*
D03*
D75*
X53189Y126008D02*
D03*
D76*
X25807Y131598D02*
D03*
X124193D02*
D03*
D77*
X199319Y117575D02*
D03*
D78*
X210500Y112122D02*
D03*
X199319Y106669D02*
D03*
X210500Y101216D02*
D03*
X199319Y95764D02*
D03*
X210500Y90311D02*
D03*
X199319Y84858D02*
D03*
X210500Y79405D02*
D03*
X199319Y73953D02*
D03*
X210500Y68500D02*
D03*
X199319Y63047D02*
D03*
X210500Y57595D02*
D03*
X199319Y52142D02*
D03*
X210500Y46689D02*
D03*
X199319Y41236D02*
D03*
D79*
X204909Y144996D02*
D03*
Y13815D02*
D03*
D80*
X70248Y15647D02*
D03*
X60248D02*
D03*
X50248D02*
D03*
X70248Y32322D02*
D03*
X60248D02*
D03*
X50248D02*
D03*
X35503Y32873D02*
D03*
Y22873D02*
D03*
Y12873D02*
D03*
D81*
X57268Y50766D02*
D03*
X67268Y55266D02*
D03*
Y76266D02*
D03*
X57536Y81172D02*
D03*
X67268Y68266D02*
D03*
Y62766D02*
D03*
X57768Y69766D02*
D03*
Y61266D02*
D03*
X44268Y56266D02*
D03*
X35268D02*
D03*
X26268D02*
D03*
X44768Y61766D02*
D03*
Y67266D02*
D03*
X43600Y118122D02*
D03*
X49848D02*
D03*
X56100D02*
D03*
X61848Y118043D02*
D03*
X58248Y89159D02*
D03*
X44398D02*
D03*
X51500D02*
D03*
X61848Y113043D02*
D03*
X56100Y113122D02*
D03*
X49848D02*
D03*
X43600D02*
D03*
X158500Y116079D02*
D03*
X151500Y116000D02*
D03*
X57500Y99000D02*
D03*
X57662Y104000D02*
D03*
X156000Y132500D02*
D03*
X154750Y122500D02*
D03*
X188228Y129729D02*
D03*
X181980Y108403D02*
D03*
X15500Y84500D02*
D03*
X26000Y86328D02*
D03*
X34220Y109648D02*
D03*
X40623Y41500D02*
D03*
X79567Y25500D02*
D03*
X79151Y38500D02*
D03*
X62150Y39706D02*
D03*
X111622Y100507D02*
D03*
Y107847D02*
D03*
X108101Y90000D02*
D03*
X126500Y30219D02*
D03*
Y21500D02*
D03*
X119000Y91500D02*
D03*
X97000Y103500D02*
D03*
X157748Y28352D02*
D03*
X165248D02*
D03*
X157748Y22176D02*
D03*
X100748Y110500D02*
D03*
X15000Y75433D02*
D03*
X19967Y109648D02*
D03*
X97500Y28352D02*
D03*
X135748Y108403D02*
D03*
X143248D02*
D03*
X150748D02*
D03*
X135748Y102228D02*
D03*
X143248D02*
D03*
X150748D02*
D03*
X150248Y22403D02*
D03*
X142748D02*
D03*
X135248D02*
D03*
X150248Y28578D02*
D03*
X142748D02*
D03*
X135248D02*
D03*
X137748Y64084D02*
D03*
X147748D02*
D03*
X38268Y67266D02*
D03*
X32268D02*
D03*
Y79110D02*
D03*
Y73360D02*
D03*
X38548D02*
D03*
Y79110D02*
D03*
X83248Y113147D02*
D03*
X69748Y103277D02*
D03*
X82748Y83912D02*
D03*
X75748Y86328D02*
D03*
X91248D02*
D03*
X25748Y98597D02*
D03*
X17248Y48453D02*
D03*
X10748Y48409D02*
D03*
X82248Y64147D02*
D03*
X87448D02*
D03*
X87366Y60123D02*
D03*
X82248D02*
D03*
X82311Y68828D02*
D03*
X87311D02*
D03*
Y72328D02*
D03*
X82311D02*
D03*
X142748Y64078D02*
D03*
M02*
