G04*
G04 #@! TF.GenerationSoftware,Altium Limited,Altium Designer,19.0.10 (269)*
G04*
G04 Layer_Physical_Order=2*
G04 Layer_Color=32768*
%FSLAX25Y25*%
%MOIN*%
G70*
G01*
G75*
%ADD82C,0.04000*%
%ADD83C,0.15600*%
G04:AMPARAMS|DCode=84|XSize=102.913mil|YSize=102.913mil|CornerRadius=0mil|HoleSize=0mil|Usage=FLASHONLY|Rotation=0.000|XOffset=0mil|YOffset=0mil|HoleType=Round|Shape=Relief|Width=10mil|Gap=10mil|Entries=4|*
%AMTHD84*
7,0,0,0.10291,0.08291,0.01000,45*
%
%ADD84THD84*%
%ADD85C,0.08291*%
%ADD86C,0.16835*%
G04:AMPARAMS|DCode=87|XSize=102.913mil|YSize=102.913mil|CornerRadius=0mil|HoleSize=0mil|Usage=FLASHONLY|Rotation=0.000|XOffset=0mil|YOffset=0mil|HoleType=Round|Shape=Relief|Width=10mil|Gap=10mil|Entries=4|*
%AMTHD87*
7,0,0,0.10291,0.08291,0.01000,45*
%
%ADD87THD87*%
%ADD88C,0.08291*%
%ADD89C,0.16520*%
%ADD90C,0.07937*%
G04:AMPARAMS|DCode=91|XSize=99.37mil|YSize=99.37mil|CornerRadius=0mil|HoleSize=0mil|Usage=FLASHONLY|Rotation=0.000|XOffset=0mil|YOffset=0mil|HoleType=Round|Shape=Relief|Width=10mil|Gap=10mil|Entries=4|*
%AMTHD91*
7,0,0,0.09937,0.07937,0.01000,45*
%
%ADD91THD91*%
G04:AMPARAMS|DCode=92|XSize=70mil|YSize=70mil|CornerRadius=0mil|HoleSize=0mil|Usage=FLASHONLY|Rotation=0.000|XOffset=0mil|YOffset=0mil|HoleType=Round|Shape=Relief|Width=10mil|Gap=10mil|Entries=4|*
%AMTHD92*
7,0,0,0.07000,0.05000,0.01000,45*
%
%ADD92THD92*%
%ADD93C,0.05000*%
D82*
X-18000Y-3500D02*
X-18000Y170000D01*
X231500Y170000D01*
Y-3500D02*
Y170000D01*
X-18000Y-3500D02*
X231500D01*
D83*
X180000Y14347D02*
D03*
X162000Y152000D02*
D03*
X0D02*
D03*
X-752Y17793D02*
D03*
D84*
X96811Y126008D02*
D03*
X91358Y137189D02*
D03*
X85905Y126008D02*
D03*
X80453Y137189D02*
D03*
D85*
X75000Y126008D02*
D03*
X69547Y137189D02*
D03*
X64095Y126008D02*
D03*
X58642Y137189D02*
D03*
X53189Y126008D02*
D03*
X199319Y117575D02*
D03*
D86*
X25807Y131598D02*
D03*
X124193D02*
D03*
D87*
X210500Y112122D02*
D03*
X199319Y106669D02*
D03*
X210500Y46689D02*
D03*
D88*
Y101216D02*
D03*
X199319Y95764D02*
D03*
X210500Y90311D02*
D03*
X199319Y84858D02*
D03*
X210500Y79405D02*
D03*
X199319Y73953D02*
D03*
X210500Y68500D02*
D03*
X199319Y63047D02*
D03*
X210500Y57595D02*
D03*
X199319Y52142D02*
D03*
X199319Y41236D02*
D03*
D89*
X204909Y144996D02*
D03*
Y13815D02*
D03*
D90*
X70248Y15647D02*
D03*
X60248D02*
D03*
X70248Y32322D02*
D03*
X60248D02*
D03*
X35503Y32873D02*
D03*
Y22873D02*
D03*
D91*
X50248Y15647D02*
D03*
Y32322D02*
D03*
X35503Y12873D02*
D03*
D92*
X57268Y50766D02*
D03*
X67268Y55266D02*
D03*
Y76266D02*
D03*
X57536Y81172D02*
D03*
X156000Y132500D02*
D03*
X154750Y122500D02*
D03*
X188228Y129729D02*
D03*
X181980Y108403D02*
D03*
X79567Y25500D02*
D03*
X79151Y38500D02*
D03*
X111622Y100507D02*
D03*
X157748Y28352D02*
D03*
X165248D02*
D03*
X157748Y22176D02*
D03*
X100748Y110500D02*
D03*
X15000Y75433D02*
D03*
X97500Y28352D02*
D03*
X135748Y108403D02*
D03*
X143248D02*
D03*
X150748D02*
D03*
X135748Y102228D02*
D03*
X143248D02*
D03*
X150748D02*
D03*
X150248Y22403D02*
D03*
X142748D02*
D03*
X135248D02*
D03*
X150248Y28578D02*
D03*
X142748D02*
D03*
X135248D02*
D03*
X137748Y64084D02*
D03*
X147748D02*
D03*
X69748Y103277D02*
D03*
X25748Y98597D02*
D03*
X17248Y48453D02*
D03*
X10748Y48409D02*
D03*
X82248Y64147D02*
D03*
X87448D02*
D03*
X87366Y60123D02*
D03*
X82248D02*
D03*
X82311Y68828D02*
D03*
X87311D02*
D03*
Y72328D02*
D03*
X82311D02*
D03*
X142748Y64078D02*
D03*
D93*
X67268Y68266D02*
D03*
Y62766D02*
D03*
X57768Y69766D02*
D03*
Y61266D02*
D03*
X44268Y56266D02*
D03*
X35268D02*
D03*
X26268D02*
D03*
X44768Y61766D02*
D03*
Y67266D02*
D03*
X43600Y118122D02*
D03*
X49848D02*
D03*
X56100D02*
D03*
X61848Y118043D02*
D03*
X58248Y89159D02*
D03*
X44398D02*
D03*
X51500D02*
D03*
X61848Y113043D02*
D03*
X56100Y113122D02*
D03*
X49848D02*
D03*
X43600D02*
D03*
X158500Y116079D02*
D03*
X151500Y116000D02*
D03*
X57500Y99000D02*
D03*
X57662Y104000D02*
D03*
X15500Y84500D02*
D03*
X26000Y86328D02*
D03*
X34220Y109648D02*
D03*
X40623Y41500D02*
D03*
X62150Y39706D02*
D03*
X111622Y107847D02*
D03*
X108101Y90000D02*
D03*
X126500Y30219D02*
D03*
Y21500D02*
D03*
X119000Y91500D02*
D03*
X97000Y103500D02*
D03*
X19967Y109648D02*
D03*
X38268Y67266D02*
D03*
X32268D02*
D03*
Y79110D02*
D03*
Y73360D02*
D03*
X38548D02*
D03*
Y79110D02*
D03*
X83248Y113147D02*
D03*
X82748Y83912D02*
D03*
X75748Y86328D02*
D03*
X91248D02*
D03*
M02*
