G04*
G04 #@! TF.GenerationSoftware,Altium Limited,Altium Designer,18.1.9 (240)*
G04*
G04 Layer_Color=2752767*
%FSLAX25Y25*%
%MOIN*%
G70*
G01*
G75*
%ADD10C,0.01000*%
%ADD23C,0.01500*%
%ADD26C,0.00200*%
%ADD27C,0.01600*%
D10*
X-2604Y654583D02*
G03*
X-2604Y654583I-3333J0D01*
G01*
X-9271Y696250D02*
X-2604D01*
Y702917D01*
X-9271D02*
X-2604D01*
X-9271Y696250D02*
Y702917D01*
Y681250D02*
X-5937Y682917D01*
X-2604Y681250D01*
X-4271Y684583D02*
X-2604Y681250D01*
X-4271Y684583D02*
X-2604Y687917D01*
X-5937Y686250D02*
X-2604Y687917D01*
X-9271D02*
X-5937Y686250D01*
X-9271Y687917D02*
X-7604Y684583D01*
X-9271Y681250D02*
X-7604Y684583D01*
X-5937Y666250D02*
X-2604Y672917D01*
X-9271D02*
X-2604D01*
X-9271D02*
X-5937Y666250D01*
X-7604Y637917D02*
X-5937Y636250D01*
X-9271Y637917D02*
X-7604D01*
X-9271D02*
X-7604Y639583D01*
X-9271Y641250D02*
X-7604Y639583D01*
X-9271Y641250D02*
X-7604D01*
X-5937Y642917D01*
X-4271Y641250D01*
X-2604D01*
X-4271Y639583D02*
X-2604Y641250D01*
X-4271Y639583D02*
X-2604Y637917D01*
X-4271D02*
X-2604D01*
X-5937Y636250D02*
X-4271Y637917D01*
X624776Y700249D02*
X621777D01*
X620778Y699249D01*
Y697250D01*
X621777Y696250D01*
X624776D01*
X626776D02*
X628775D01*
X627775D01*
Y702248D01*
X626776Y701248D01*
X634773Y696250D02*
Y702248D01*
X631774Y699249D01*
X635773D01*
X641771Y696250D02*
X637772D01*
X641771Y700249D01*
Y701248D01*
X640771Y702248D01*
X638772D01*
X637772Y701248D01*
X643770Y702248D02*
Y696250D01*
Y699249D01*
X644770Y700249D01*
X646769D01*
X647769Y699249D01*
Y696250D01*
X649768Y701248D02*
X650768Y702248D01*
X652767D01*
X653767Y701248D01*
Y700249D01*
X652767Y699249D01*
X653767Y698249D01*
Y697250D01*
X652767Y696250D01*
X650768D01*
X649768Y697250D01*
Y698249D01*
X650768Y699249D01*
X649768Y700249D01*
Y701248D01*
X650768Y699249D02*
X652767D01*
X658765Y696250D02*
Y702248D01*
X655766Y699249D01*
X659765D01*
X624776Y685249D02*
X621777D01*
X620778Y684249D01*
Y682250D01*
X621777Y681250D01*
X624776D01*
X626776D02*
X628775D01*
X627775D01*
Y687248D01*
X626776Y686248D01*
X631774D02*
X632774Y687248D01*
X634773D01*
X635773Y686248D01*
Y685249D01*
X634773Y684249D01*
X635773Y683249D01*
Y682250D01*
X634773Y681250D01*
X632774D01*
X631774Y682250D01*
Y683249D01*
X632774Y684249D01*
X631774Y685249D01*
Y686248D01*
X632774Y684249D02*
X634773D01*
X637772Y686248D02*
X638772Y687248D01*
X640771D01*
X641771Y686248D01*
Y682250D01*
X640771Y681250D01*
X638772D01*
X637772Y682250D01*
Y686248D01*
X643770Y687248D02*
Y681250D01*
Y684249D01*
X644770Y685249D01*
X646769D01*
X647769Y684249D01*
Y681250D01*
X649768D02*
X651767D01*
X650768D01*
Y687248D01*
X649768Y686248D01*
X654767D02*
X655766Y687248D01*
X657765D01*
X658765Y686248D01*
Y682250D01*
X657765Y681250D01*
X655766D01*
X654767Y682250D01*
Y686248D01*
X660765D02*
X661764Y687248D01*
X663764D01*
X664763Y686248D01*
Y682250D01*
X663764Y681250D01*
X661764D01*
X660765Y682250D01*
Y686248D01*
X624776Y670249D02*
X621777D01*
X620778Y669249D01*
Y667250D01*
X621777Y666250D01*
X624776D01*
X626776D02*
X628775D01*
X627775D01*
Y672248D01*
X626776Y671248D01*
X635773Y672248D02*
X633773Y671248D01*
X631774Y669249D01*
Y667250D01*
X632774Y666250D01*
X634773D01*
X635773Y667250D01*
Y668249D01*
X634773Y669249D01*
X631774D01*
X637772Y667250D02*
X638772Y666250D01*
X640771D01*
X641771Y667250D01*
Y671248D01*
X640771Y672248D01*
X638772D01*
X637772Y671248D01*
Y670249D01*
X638772Y669249D01*
X641771D01*
X643770Y672248D02*
Y666250D01*
Y669249D01*
X644770Y670249D01*
X646769D01*
X647769Y669249D01*
Y666250D01*
X649768D02*
X651767D01*
X650768D01*
Y672248D01*
X649768Y671248D01*
X654767D02*
X655766Y672248D01*
X657765D01*
X658765Y671248D01*
Y667250D01*
X657765Y666250D01*
X655766D01*
X654767Y667250D01*
Y671248D01*
X660765Y667250D02*
X661764Y666250D01*
X663764D01*
X664763Y667250D01*
Y671248D01*
X663764Y672248D01*
X661764D01*
X660765Y671248D01*
Y670249D01*
X661764Y669249D01*
X664763D01*
X624776Y655249D02*
X621777D01*
X620778Y654249D01*
Y652250D01*
X621777Y651250D01*
X624776D01*
X629775D02*
Y657248D01*
X626776Y654249D01*
X630774D01*
X632774Y656248D02*
X633773Y657248D01*
X635773D01*
X636772Y656248D01*
Y655249D01*
X635773Y654249D01*
X634773D01*
X635773D01*
X636772Y653249D01*
Y652250D01*
X635773Y651250D01*
X633773D01*
X632774Y652250D01*
X638772Y656248D02*
X639771Y657248D01*
X641771D01*
X642770Y656248D01*
Y652250D01*
X641771Y651250D01*
X639771D01*
X638772Y652250D01*
Y656248D01*
X644770Y657248D02*
Y651250D01*
Y654249D01*
X645769Y655249D01*
X647769D01*
X648769Y654249D01*
Y651250D01*
X654767D02*
X650768D01*
X654767Y655249D01*
Y656248D01*
X653767Y657248D01*
X651767D01*
X650768Y656248D01*
X656766Y652250D02*
X657765Y651250D01*
X659765D01*
X660765Y652250D01*
Y656248D01*
X659765Y657248D01*
X657765D01*
X656766Y656248D01*
Y655249D01*
X657765Y654249D01*
X660765D01*
X666763Y657248D02*
X662764D01*
Y654249D01*
X664763Y655249D01*
X665763D01*
X666763Y654249D01*
Y652250D01*
X665763Y651250D01*
X663764D01*
X662764Y652250D01*
X624776Y640249D02*
X621777D01*
X620778Y639249D01*
Y637250D01*
X621777Y636250D01*
X624776D01*
X629775D02*
Y642248D01*
X626776Y639249D01*
X630774D01*
X632774Y642248D02*
X636772D01*
Y641248D01*
X632774Y637250D01*
Y636250D01*
X642770Y642248D02*
X640771Y641248D01*
X638772Y639249D01*
Y637250D01*
X639771Y636250D01*
X641771D01*
X642770Y637250D01*
Y638249D01*
X641771Y639249D01*
X638772D01*
X644770Y642248D02*
Y636250D01*
Y639249D01*
X645769Y640249D01*
X647769D01*
X648769Y639249D01*
Y636250D01*
X650768Y641248D02*
X651767Y642248D01*
X653767D01*
X654767Y641248D01*
Y640249D01*
X653767Y639249D01*
X652767D01*
X653767D01*
X654767Y638249D01*
Y637250D01*
X653767Y636250D01*
X651767D01*
X650768Y637250D01*
X660765Y636250D02*
X656766D01*
X660765Y640249D01*
Y641248D01*
X659765Y642248D01*
X657765D01*
X656766Y641248D01*
X666763Y642248D02*
X664763Y641248D01*
X662764Y639249D01*
Y637250D01*
X663764Y636250D01*
X665763D01*
X666763Y637250D01*
Y638249D01*
X665763Y639249D01*
X662764D01*
X546198Y696250D02*
Y702248D01*
X549197D01*
X550196Y701248D01*
Y699249D01*
X549197Y698249D01*
X546198D01*
X548197D02*
X550196Y696250D01*
X553195D02*
X555195D01*
X556194Y697250D01*
Y699249D01*
X555195Y700249D01*
X553195D01*
X552196Y699249D01*
Y697250D01*
X553195Y696250D01*
X558194Y700249D02*
Y697250D01*
X559194Y696250D01*
X562192D01*
Y700249D01*
X564192Y696250D02*
Y700249D01*
X567191D01*
X568191Y699249D01*
Y696250D01*
X574189Y702248D02*
Y696250D01*
X571190D01*
X570190Y697250D01*
Y699249D01*
X571190Y700249D01*
X574189D01*
X579187Y696250D02*
X577188D01*
X576188Y697250D01*
Y699249D01*
X577188Y700249D01*
X579187D01*
X580187Y699249D01*
Y698249D01*
X576188D01*
X586185Y702248D02*
Y696250D01*
X583186D01*
X582186Y697250D01*
Y699249D01*
X583186Y700249D01*
X586185D01*
X546198Y681250D02*
Y687248D01*
X549197D01*
X550196Y686248D01*
Y684249D01*
X549197Y683249D01*
X546198D01*
X548197D02*
X550196Y681250D01*
X553195D02*
X555195D01*
X556194Y682250D01*
Y684249D01*
X555195Y685249D01*
X553195D01*
X552196Y684249D01*
Y682250D01*
X553195Y681250D01*
X558194Y685249D02*
Y682250D01*
X559194Y681250D01*
X562192D01*
Y685249D01*
X564192Y681250D02*
Y685249D01*
X567191D01*
X568191Y684249D01*
Y681250D01*
X574189Y687248D02*
Y681250D01*
X571190D01*
X570190Y682250D01*
Y684249D01*
X571190Y685249D01*
X574189D01*
X579187Y681250D02*
X577188D01*
X576188Y682250D01*
Y684249D01*
X577188Y685249D01*
X579187D01*
X580187Y684249D01*
Y683249D01*
X576188D01*
X586185Y687248D02*
Y681250D01*
X583186D01*
X582186Y682250D01*
Y684249D01*
X583186Y685249D01*
X586185D01*
X546198Y666250D02*
Y672248D01*
X549197D01*
X550196Y671248D01*
Y669249D01*
X549197Y668249D01*
X546198D01*
X548197D02*
X550196Y666250D01*
X553195D02*
X555195D01*
X556194Y667250D01*
Y669249D01*
X555195Y670249D01*
X553195D01*
X552196Y669249D01*
Y667250D01*
X553195Y666250D01*
X558194Y670249D02*
Y667250D01*
X559194Y666250D01*
X562192D01*
Y670249D01*
X564192Y666250D02*
Y670249D01*
X567191D01*
X568191Y669249D01*
Y666250D01*
X574189Y672248D02*
Y666250D01*
X571190D01*
X570190Y667250D01*
Y669249D01*
X571190Y670249D01*
X574189D01*
X579187Y666250D02*
X577188D01*
X576188Y667250D01*
Y669249D01*
X577188Y670249D01*
X579187D01*
X580187Y669249D01*
Y668249D01*
X576188D01*
X586185Y672248D02*
Y666250D01*
X583186D01*
X582186Y667250D01*
Y669249D01*
X583186Y670249D01*
X586185D01*
X546198Y651250D02*
Y657248D01*
X549197D01*
X550196Y656248D01*
Y654249D01*
X549197Y653249D01*
X546198D01*
X548197D02*
X550196Y651250D01*
X553195D02*
X555195D01*
X556194Y652250D01*
Y654249D01*
X555195Y655249D01*
X553195D01*
X552196Y654249D01*
Y652250D01*
X553195Y651250D01*
X558194Y655249D02*
Y652250D01*
X559194Y651250D01*
X562192D01*
Y655249D01*
X564192Y651250D02*
Y655249D01*
X567191D01*
X568191Y654249D01*
Y651250D01*
X574189Y657248D02*
Y651250D01*
X571190D01*
X570190Y652250D01*
Y654249D01*
X571190Y655249D01*
X574189D01*
X579187Y651250D02*
X577188D01*
X576188Y652250D01*
Y654249D01*
X577188Y655249D01*
X579187D01*
X580187Y654249D01*
Y653249D01*
X576188D01*
X586185Y657248D02*
Y651250D01*
X583186D01*
X582186Y652250D01*
Y654249D01*
X583186Y655249D01*
X586185D01*
X546198Y636250D02*
Y642248D01*
X549197D01*
X550196Y641248D01*
Y639249D01*
X549197Y638249D01*
X546198D01*
X548197D02*
X550196Y636250D01*
X553195D02*
X555195D01*
X556194Y637250D01*
Y639249D01*
X555195Y640249D01*
X553195D01*
X552196Y639249D01*
Y637250D01*
X553195Y636250D01*
X558194Y640249D02*
Y637250D01*
X559194Y636250D01*
X562192D01*
Y640249D01*
X564192Y636250D02*
Y640249D01*
X567191D01*
X568191Y639249D01*
Y636250D01*
X574189Y642248D02*
Y636250D01*
X571190D01*
X570190Y637250D01*
Y639249D01*
X571190Y640249D01*
X574189D01*
X579187Y636250D02*
X577188D01*
X576188Y637250D01*
Y639249D01*
X577188Y640249D01*
X579187D01*
X580187Y639249D01*
Y638249D01*
X576188D01*
X586185Y642248D02*
Y636250D01*
X583186D01*
X582186Y637250D01*
Y639249D01*
X583186Y640249D01*
X586185D01*
X487213Y696250D02*
Y702248D01*
X490212D01*
X491212Y701248D01*
Y699249D01*
X490212Y698249D01*
X487213D01*
X494211Y700249D02*
X496210D01*
X497210Y699249D01*
Y696250D01*
X494211D01*
X493211Y697250D01*
X494211Y698249D01*
X497210D01*
X503208Y702248D02*
Y696250D01*
X500209D01*
X499209Y697250D01*
Y699249D01*
X500209Y700249D01*
X503208D01*
X487213Y681250D02*
Y687248D01*
X490212D01*
X491212Y686248D01*
Y684249D01*
X490212Y683249D01*
X487213D01*
X494211Y685249D02*
X496210D01*
X497210Y684249D01*
Y681250D01*
X494211D01*
X493211Y682250D01*
X494211Y683249D01*
X497210D01*
X503208Y687248D02*
Y681250D01*
X500209D01*
X499209Y682250D01*
Y684249D01*
X500209Y685249D01*
X503208D01*
X487213Y666250D02*
Y672248D01*
X490212D01*
X491212Y671248D01*
Y669249D01*
X490212Y668249D01*
X487213D01*
X494211Y670249D02*
X496210D01*
X497210Y669249D01*
Y666250D01*
X494211D01*
X493211Y667250D01*
X494211Y668249D01*
X497210D01*
X503208Y672248D02*
Y666250D01*
X500209D01*
X499209Y667250D01*
Y669249D01*
X500209Y670249D01*
X503208D01*
X487213Y651250D02*
Y657248D01*
X490212D01*
X491212Y656248D01*
Y654249D01*
X490212Y653249D01*
X487213D01*
X494211Y655249D02*
X496210D01*
X497210Y654249D01*
Y651250D01*
X494211D01*
X493211Y652250D01*
X494211Y653249D01*
X497210D01*
X503208Y657248D02*
Y651250D01*
X500209D01*
X499209Y652250D01*
Y654249D01*
X500209Y655249D01*
X503208D01*
X487213Y636250D02*
Y642248D01*
X490212D01*
X491212Y641248D01*
Y639249D01*
X490212Y638249D01*
X487213D01*
X494211Y640249D02*
X496210D01*
X497210Y639249D01*
Y636250D01*
X494211D01*
X493211Y637250D01*
X494211Y638249D01*
X497210D01*
X503208Y642248D02*
Y636250D01*
X500209D01*
X499209Y637250D01*
Y639249D01*
X500209Y640249D01*
X503208D01*
X337258Y702248D02*
X341256D01*
X339257D01*
Y696250D01*
X344255D02*
X346255D01*
X347255Y697250D01*
Y699249D01*
X346255Y700249D01*
X344255D01*
X343256Y699249D01*
Y697250D01*
X344255Y696250D01*
X349254Y694251D02*
Y700249D01*
X352253D01*
X353253Y699249D01*
Y697250D01*
X352253Y696250D01*
X349254D01*
X361250Y702248D02*
Y696250D01*
X365249D01*
X368248Y700249D02*
X370247D01*
X371247Y699249D01*
Y696250D01*
X368248D01*
X367248Y697250D01*
X368248Y698249D01*
X371247D01*
X373246Y700249D02*
Y697250D01*
X374246Y696250D01*
X377245D01*
Y695250D01*
X376245Y694251D01*
X375245D01*
X377245Y696250D02*
Y700249D01*
X382243Y696250D02*
X380244D01*
X379244Y697250D01*
Y699249D01*
X380244Y700249D01*
X382243D01*
X383243Y699249D01*
Y698249D01*
X379244D01*
X385242Y700249D02*
Y696250D01*
Y698249D01*
X386242Y699249D01*
X387242Y700249D01*
X388241D01*
X397238Y699249D02*
X401237D01*
X409235Y702248D02*
Y696250D01*
X412233D01*
X413233Y697250D01*
Y698249D01*
X412233Y699249D01*
X409235D01*
X412233D01*
X413233Y700249D01*
Y701248D01*
X412233Y702248D01*
X409235D01*
X416232Y696250D02*
X418232D01*
X419231Y697250D01*
Y699249D01*
X418232Y700249D01*
X416232D01*
X415233Y699249D01*
Y697250D01*
X416232Y696250D01*
X422230Y701248D02*
Y700249D01*
X421231D01*
X423230D01*
X422230D01*
Y697250D01*
X423230Y696250D01*
X427229Y701248D02*
Y700249D01*
X426229D01*
X428228D01*
X427229D01*
Y697250D01*
X428228Y696250D01*
X432227D02*
X434226D01*
X435226Y697250D01*
Y699249D01*
X434226Y700249D01*
X432227D01*
X431227Y699249D01*
Y697250D01*
X432227Y696250D01*
X437225D02*
Y700249D01*
X438225D01*
X439225Y699249D01*
Y696250D01*
Y699249D01*
X440225Y700249D01*
X441224Y699249D01*
Y696250D01*
X449222Y702248D02*
Y696250D01*
X453220D01*
X456219Y700249D02*
X458219D01*
X459218Y699249D01*
Y696250D01*
X456219D01*
X455220Y697250D01*
X456219Y698249D01*
X459218D01*
X461218Y700249D02*
Y697250D01*
X462217Y696250D01*
X465216D01*
Y695250D01*
X464217Y694251D01*
X463217D01*
X465216Y696250D02*
Y700249D01*
X470215Y696250D02*
X468215D01*
X467216Y697250D01*
Y699249D01*
X468215Y700249D01*
X470215D01*
X471214Y699249D01*
Y698249D01*
X467216D01*
X473214Y700249D02*
Y696250D01*
Y698249D01*
X474214Y699249D01*
X475213Y700249D01*
X476213D01*
X337258Y687248D02*
X341256D01*
X339257D01*
Y681250D01*
X344255D02*
X346255D01*
X347255Y682250D01*
Y684249D01*
X346255Y685249D01*
X344255D01*
X343256Y684249D01*
Y682250D01*
X344255Y681250D01*
X349254Y679251D02*
Y685249D01*
X352253D01*
X353253Y684249D01*
Y682250D01*
X352253Y681250D01*
X349254D01*
X361250Y687248D02*
Y681250D01*
X365249D01*
X368248Y685249D02*
X370247D01*
X371247Y684249D01*
Y681250D01*
X368248D01*
X367248Y682250D01*
X368248Y683249D01*
X371247D01*
X373246Y685249D02*
Y682250D01*
X374246Y681250D01*
X377245D01*
Y680250D01*
X376245Y679251D01*
X375245D01*
X377245Y681250D02*
Y685249D01*
X382243Y681250D02*
X380244D01*
X379244Y682250D01*
Y684249D01*
X380244Y685249D01*
X382243D01*
X383243Y684249D01*
Y683249D01*
X379244D01*
X385242Y685249D02*
Y681250D01*
Y683249D01*
X386242Y684249D01*
X387242Y685249D01*
X388241D01*
X397238Y684249D02*
X401237D01*
X409235Y687248D02*
Y681250D01*
X412233D01*
X413233Y682250D01*
Y683249D01*
X412233Y684249D01*
X409235D01*
X412233D01*
X413233Y685249D01*
Y686248D01*
X412233Y687248D01*
X409235D01*
X416232Y681250D02*
X418232D01*
X419231Y682250D01*
Y684249D01*
X418232Y685249D01*
X416232D01*
X415233Y684249D01*
Y682250D01*
X416232Y681250D01*
X422230Y686248D02*
Y685249D01*
X421231D01*
X423230D01*
X422230D01*
Y682250D01*
X423230Y681250D01*
X427229Y686248D02*
Y685249D01*
X426229D01*
X428228D01*
X427229D01*
Y682250D01*
X428228Y681250D01*
X432227D02*
X434226D01*
X435226Y682250D01*
Y684249D01*
X434226Y685249D01*
X432227D01*
X431227Y684249D01*
Y682250D01*
X432227Y681250D01*
X437225D02*
Y685249D01*
X438225D01*
X439225Y684249D01*
Y681250D01*
Y684249D01*
X440225Y685249D01*
X441224Y684249D01*
Y681250D01*
X449222Y687248D02*
Y681250D01*
X453220D01*
X456219Y685249D02*
X458219D01*
X459218Y684249D01*
Y681250D01*
X456219D01*
X455220Y682250D01*
X456219Y683249D01*
X459218D01*
X461218Y685249D02*
Y682250D01*
X462217Y681250D01*
X465216D01*
Y680250D01*
X464217Y679251D01*
X463217D01*
X465216Y681250D02*
Y685249D01*
X470215Y681250D02*
X468215D01*
X467216Y682250D01*
Y684249D01*
X468215Y685249D01*
X470215D01*
X471214Y684249D01*
Y683249D01*
X467216D01*
X473214Y685249D02*
Y681250D01*
Y683249D01*
X474214Y684249D01*
X475213Y685249D01*
X476213D01*
X337258Y672248D02*
X341256D01*
X339257D01*
Y666250D01*
X344255D02*
X346255D01*
X347255Y667250D01*
Y669249D01*
X346255Y670249D01*
X344255D01*
X343256Y669249D01*
Y667250D01*
X344255Y666250D01*
X349254Y664251D02*
Y670249D01*
X352253D01*
X353253Y669249D01*
Y667250D01*
X352253Y666250D01*
X349254D01*
X361250Y672248D02*
Y666250D01*
X365249D01*
X368248Y670249D02*
X370247D01*
X371247Y669249D01*
Y666250D01*
X368248D01*
X367248Y667250D01*
X368248Y668249D01*
X371247D01*
X373246Y670249D02*
Y667250D01*
X374246Y666250D01*
X377245D01*
Y665250D01*
X376245Y664251D01*
X375245D01*
X377245Y666250D02*
Y670249D01*
X382243Y666250D02*
X380244D01*
X379244Y667250D01*
Y669249D01*
X380244Y670249D01*
X382243D01*
X383243Y669249D01*
Y668249D01*
X379244D01*
X385242Y670249D02*
Y666250D01*
Y668249D01*
X386242Y669249D01*
X387242Y670249D01*
X388241D01*
X397238Y669249D02*
X401237D01*
X409235Y672248D02*
Y666250D01*
X412233D01*
X413233Y667250D01*
Y668249D01*
X412233Y669249D01*
X409235D01*
X412233D01*
X413233Y670249D01*
Y671248D01*
X412233Y672248D01*
X409235D01*
X416232Y666250D02*
X418232D01*
X419231Y667250D01*
Y669249D01*
X418232Y670249D01*
X416232D01*
X415233Y669249D01*
Y667250D01*
X416232Y666250D01*
X422230Y671248D02*
Y670249D01*
X421231D01*
X423230D01*
X422230D01*
Y667250D01*
X423230Y666250D01*
X427229Y671248D02*
Y670249D01*
X426229D01*
X428228D01*
X427229D01*
Y667250D01*
X428228Y666250D01*
X432227D02*
X434226D01*
X435226Y667250D01*
Y669249D01*
X434226Y670249D01*
X432227D01*
X431227Y669249D01*
Y667250D01*
X432227Y666250D01*
X437225D02*
Y670249D01*
X438225D01*
X439225Y669249D01*
Y666250D01*
Y669249D01*
X440225Y670249D01*
X441224Y669249D01*
Y666250D01*
X449222Y672248D02*
Y666250D01*
X453220D01*
X456219Y670249D02*
X458219D01*
X459218Y669249D01*
Y666250D01*
X456219D01*
X455220Y667250D01*
X456219Y668249D01*
X459218D01*
X461218Y670249D02*
Y667250D01*
X462217Y666250D01*
X465216D01*
Y665250D01*
X464217Y664251D01*
X463217D01*
X465216Y666250D02*
Y670249D01*
X470215Y666250D02*
X468215D01*
X467216Y667250D01*
Y669249D01*
X468215Y670249D01*
X470215D01*
X471214Y669249D01*
Y668249D01*
X467216D01*
X473214Y670249D02*
Y666250D01*
Y668249D01*
X474214Y669249D01*
X475213Y670249D01*
X476213D01*
X337258Y657248D02*
X341256D01*
X339257D01*
Y651250D01*
X344255D02*
X346255D01*
X347255Y652250D01*
Y654249D01*
X346255Y655249D01*
X344255D01*
X343256Y654249D01*
Y652250D01*
X344255Y651250D01*
X349254Y649251D02*
Y655249D01*
X352253D01*
X353253Y654249D01*
Y652250D01*
X352253Y651250D01*
X349254D01*
X361250Y657248D02*
Y651250D01*
X365249D01*
X368248Y655249D02*
X370247D01*
X371247Y654249D01*
Y651250D01*
X368248D01*
X367248Y652250D01*
X368248Y653249D01*
X371247D01*
X373246Y655249D02*
Y652250D01*
X374246Y651250D01*
X377245D01*
Y650250D01*
X376245Y649251D01*
X375245D01*
X377245Y651250D02*
Y655249D01*
X382243Y651250D02*
X380244D01*
X379244Y652250D01*
Y654249D01*
X380244Y655249D01*
X382243D01*
X383243Y654249D01*
Y653249D01*
X379244D01*
X385242Y655249D02*
Y651250D01*
Y653249D01*
X386242Y654249D01*
X387242Y655249D01*
X388241D01*
X397238Y654249D02*
X401237D01*
X409235Y657248D02*
Y651250D01*
X412233D01*
X413233Y652250D01*
Y653249D01*
X412233Y654249D01*
X409235D01*
X412233D01*
X413233Y655249D01*
Y656248D01*
X412233Y657248D01*
X409235D01*
X416232Y651250D02*
X418232D01*
X419231Y652250D01*
Y654249D01*
X418232Y655249D01*
X416232D01*
X415233Y654249D01*
Y652250D01*
X416232Y651250D01*
X422230Y656248D02*
Y655249D01*
X421231D01*
X423230D01*
X422230D01*
Y652250D01*
X423230Y651250D01*
X427229Y656248D02*
Y655249D01*
X426229D01*
X428228D01*
X427229D01*
Y652250D01*
X428228Y651250D01*
X432227D02*
X434226D01*
X435226Y652250D01*
Y654249D01*
X434226Y655249D01*
X432227D01*
X431227Y654249D01*
Y652250D01*
X432227Y651250D01*
X437225D02*
Y655249D01*
X438225D01*
X439225Y654249D01*
Y651250D01*
Y654249D01*
X440225Y655249D01*
X441224Y654249D01*
Y651250D01*
X449222Y657248D02*
Y651250D01*
X453220D01*
X456219Y655249D02*
X458219D01*
X459218Y654249D01*
Y651250D01*
X456219D01*
X455220Y652250D01*
X456219Y653249D01*
X459218D01*
X461218Y655249D02*
Y652250D01*
X462217Y651250D01*
X465216D01*
Y650250D01*
X464217Y649251D01*
X463217D01*
X465216Y651250D02*
Y655249D01*
X470215Y651250D02*
X468215D01*
X467216Y652250D01*
Y654249D01*
X468215Y655249D01*
X470215D01*
X471214Y654249D01*
Y653249D01*
X467216D01*
X473214Y655249D02*
Y651250D01*
Y653249D01*
X474214Y654249D01*
X475213Y655249D01*
X476213D01*
X337258Y642248D02*
X341256D01*
X339257D01*
Y636250D01*
X344255D02*
X346255D01*
X347255Y637250D01*
Y639249D01*
X346255Y640249D01*
X344255D01*
X343256Y639249D01*
Y637250D01*
X344255Y636250D01*
X349254Y634251D02*
Y640249D01*
X352253D01*
X353253Y639249D01*
Y637250D01*
X352253Y636250D01*
X349254D01*
X361250Y642248D02*
Y636250D01*
X365249D01*
X368248Y640249D02*
X370247D01*
X371247Y639249D01*
Y636250D01*
X368248D01*
X367248Y637250D01*
X368248Y638249D01*
X371247D01*
X373246Y640249D02*
Y637250D01*
X374246Y636250D01*
X377245D01*
Y635250D01*
X376245Y634251D01*
X375245D01*
X377245Y636250D02*
Y640249D01*
X382243Y636250D02*
X380244D01*
X379244Y637250D01*
Y639249D01*
X380244Y640249D01*
X382243D01*
X383243Y639249D01*
Y638249D01*
X379244D01*
X385242Y640249D02*
Y636250D01*
Y638249D01*
X386242Y639249D01*
X387242Y640249D01*
X388241D01*
X397238Y639249D02*
X401237D01*
X409235Y642248D02*
Y636250D01*
X412233D01*
X413233Y637250D01*
Y638249D01*
X412233Y639249D01*
X409235D01*
X412233D01*
X413233Y640249D01*
Y641248D01*
X412233Y642248D01*
X409235D01*
X416232Y636250D02*
X418232D01*
X419231Y637250D01*
Y639249D01*
X418232Y640249D01*
X416232D01*
X415233Y639249D01*
Y637250D01*
X416232Y636250D01*
X422230Y641248D02*
Y640249D01*
X421231D01*
X423230D01*
X422230D01*
Y637250D01*
X423230Y636250D01*
X427229Y641248D02*
Y640249D01*
X426229D01*
X428228D01*
X427229D01*
Y637250D01*
X428228Y636250D01*
X432227D02*
X434226D01*
X435226Y637250D01*
Y639249D01*
X434226Y640249D01*
X432227D01*
X431227Y639249D01*
Y637250D01*
X432227Y636250D01*
X437225D02*
Y640249D01*
X438225D01*
X439225Y639249D01*
Y636250D01*
Y639249D01*
X440225Y640249D01*
X441224Y639249D01*
Y636250D01*
X449222Y642248D02*
Y636250D01*
X453220D01*
X456219Y640249D02*
X458219D01*
X459218Y639249D01*
Y636250D01*
X456219D01*
X455220Y637250D01*
X456219Y638249D01*
X459218D01*
X461218Y640249D02*
Y637250D01*
X462217Y636250D01*
X465216D01*
Y635250D01*
X464217Y634251D01*
X463217D01*
X465216Y636250D02*
Y640249D01*
X470215Y636250D02*
X468215D01*
X467216Y637250D01*
Y639249D01*
X468215Y640249D01*
X470215D01*
X471214Y639249D01*
Y638249D01*
X467216D01*
X473214Y640249D02*
Y636250D01*
Y638249D01*
X474214Y639249D01*
X475213Y640249D01*
X476213D01*
X263878Y696250D02*
Y702248D01*
X266877D01*
X267876Y701248D01*
Y699249D01*
X266877Y698249D01*
X263878D01*
X265877D02*
X267876Y696250D01*
X270875D02*
X272875D01*
X273874Y697250D01*
Y699249D01*
X272875Y700249D01*
X270875D01*
X269876Y699249D01*
Y697250D01*
X270875Y696250D01*
X275874Y700249D02*
Y697250D01*
X276873Y696250D01*
X279872D01*
Y700249D01*
X281872Y696250D02*
Y700249D01*
X284871D01*
X285871Y699249D01*
Y696250D01*
X291868Y702248D02*
Y696250D01*
X288870D01*
X287870Y697250D01*
Y699249D01*
X288870Y700249D01*
X291868D01*
X263878Y681250D02*
Y687248D01*
X266877D01*
X267876Y686248D01*
Y684249D01*
X266877Y683249D01*
X263878D01*
X265877D02*
X267876Y681250D01*
X270875D02*
X272875D01*
X273874Y682250D01*
Y684249D01*
X272875Y685249D01*
X270875D01*
X269876Y684249D01*
Y682250D01*
X270875Y681250D01*
X275874Y685249D02*
Y682250D01*
X276873Y681250D01*
X279872D01*
Y685249D01*
X281872Y681250D02*
Y685249D01*
X284871D01*
X285871Y684249D01*
Y681250D01*
X291868Y687248D02*
Y681250D01*
X288870D01*
X287870Y682250D01*
Y684249D01*
X288870Y685249D01*
X291868D01*
X263878Y666250D02*
Y672248D01*
X266877D01*
X267876Y671248D01*
Y669249D01*
X266877Y668249D01*
X263878D01*
X265877D02*
X267876Y666250D01*
X270875D02*
X272875D01*
X273874Y667250D01*
Y669249D01*
X272875Y670249D01*
X270875D01*
X269876Y669249D01*
Y667250D01*
X270875Y666250D01*
X275874Y670249D02*
Y667250D01*
X276873Y666250D01*
X279872D01*
Y670249D01*
X281872Y666250D02*
Y670249D01*
X284871D01*
X285871Y669249D01*
Y666250D01*
X291868Y672248D02*
Y666250D01*
X288870D01*
X287870Y667250D01*
Y669249D01*
X288870Y670249D01*
X291868D01*
X263878Y651250D02*
Y657248D01*
X266877D01*
X267876Y656248D01*
Y654249D01*
X266877Y653249D01*
X263878D01*
X265877D02*
X267876Y651250D01*
X270875D02*
X272875D01*
X273874Y652250D01*
Y654249D01*
X272875Y655249D01*
X270875D01*
X269876Y654249D01*
Y652250D01*
X270875Y651250D01*
X275874Y655249D02*
Y652250D01*
X276873Y651250D01*
X279872D01*
Y655249D01*
X281872Y651250D02*
Y655249D01*
X284871D01*
X285871Y654249D01*
Y651250D01*
X291868Y657248D02*
Y651250D01*
X288870D01*
X287870Y652250D01*
Y654249D01*
X288870Y655249D01*
X291868D01*
X263878Y636250D02*
Y642248D01*
X266877D01*
X267876Y641248D01*
Y639249D01*
X266877Y638249D01*
X263878D01*
X265877D02*
X267876Y636250D01*
X270875D02*
X272875D01*
X273874Y637250D01*
Y639249D01*
X272875Y640249D01*
X270875D01*
X269876Y639249D01*
Y637250D01*
X270875Y636250D01*
X275874Y640249D02*
Y637250D01*
X276873Y636250D01*
X279872D01*
Y640249D01*
X281872Y636250D02*
Y640249D01*
X284871D01*
X285871Y639249D01*
Y636250D01*
X291868Y642248D02*
Y636250D01*
X288870D01*
X287870Y637250D01*
Y639249D01*
X288870Y640249D01*
X291868D01*
X213290Y696250D02*
Y702248D01*
X216289D01*
X217289Y701248D01*
Y699249D01*
X216289Y698249D01*
X213290D01*
X219288Y702248D02*
X223287D01*
X221287D01*
Y696250D01*
X225286Y702248D02*
Y696250D01*
Y699249D01*
X229285D01*
Y702248D01*
Y696250D01*
X213290Y681250D02*
Y687248D01*
X216289D01*
X217289Y686248D01*
Y684249D01*
X216289Y683249D01*
X213290D01*
X219288Y687248D02*
X223287D01*
X221287D01*
Y681250D01*
X225286Y687248D02*
Y681250D01*
Y684249D01*
X229285D01*
Y687248D01*
Y681250D01*
X213290Y666250D02*
Y672248D01*
X216289D01*
X217289Y671248D01*
Y669249D01*
X216289Y668249D01*
X213290D01*
X219288Y672248D02*
X223287D01*
X221287D01*
Y666250D01*
X225286Y672248D02*
Y666250D01*
Y669249D01*
X229285D01*
Y672248D01*
Y666250D01*
X213290Y651250D02*
Y657248D01*
X216289D01*
X217289Y656248D01*
Y654249D01*
X216289Y653249D01*
X213290D01*
X219288Y657248D02*
X223287D01*
X221287D01*
Y651250D01*
X225286Y657248D02*
Y651250D01*
Y654249D01*
X229285D01*
Y657248D01*
Y651250D01*
X213290Y636250D02*
Y642248D01*
X216289D01*
X217289Y641248D01*
Y639249D01*
X216289Y638249D01*
X213290D01*
X219288Y642248D02*
X223287D01*
X221287D01*
Y636250D01*
X225286Y642248D02*
Y636250D01*
Y639249D01*
X229285D01*
Y642248D01*
Y636250D01*
X98324Y701248D02*
X99323Y702248D01*
X101323D01*
X102322Y701248D01*
Y700249D01*
X101323Y699249D01*
X100323D01*
X101323D01*
X102322Y698249D01*
Y697250D01*
X101323Y696250D01*
X99323D01*
X98324Y697250D01*
X104322Y701248D02*
X105321Y702248D01*
X107321D01*
X108320Y701248D01*
Y700249D01*
X107321Y699249D01*
X106321D01*
X107321D01*
X108320Y698249D01*
Y697250D01*
X107321Y696250D01*
X105321D01*
X104322Y697250D01*
X110320Y696250D02*
Y697250D01*
X111319D01*
Y696250D01*
X110320D01*
X115318Y701248D02*
X116318Y702248D01*
X118317D01*
X119317Y701248D01*
Y697250D01*
X118317Y696250D01*
X116318D01*
X115318Y697250D01*
Y701248D01*
X121316D02*
X122316Y702248D01*
X124315D01*
X125315Y701248D01*
Y697250D01*
X124315Y696250D01*
X122316D01*
X121316Y697250D01*
Y701248D01*
X127314Y696250D02*
Y700249D01*
X128314D01*
X129314Y699249D01*
Y696250D01*
Y699249D01*
X130313Y700249D01*
X131313Y699249D01*
Y696250D01*
X133312D02*
X135312D01*
X134312D01*
Y700249D01*
X133312D01*
X138311Y696250D02*
X140310D01*
X139310D01*
Y702248D01*
X138311D01*
X151306Y696250D02*
X149307Y698249D01*
Y700249D01*
X151306Y702248D01*
X154306Y701248D02*
X155305Y702248D01*
X157305D01*
X158304Y701248D01*
Y697250D01*
X157305Y696250D01*
X155305D01*
X154306Y697250D01*
Y701248D01*
X160304Y696250D02*
Y697250D01*
X161303D01*
Y696250D01*
X160304D01*
X165302Y701248D02*
X166302Y702248D01*
X168301D01*
X169301Y701248D01*
Y700249D01*
X168301Y699249D01*
X169301Y698249D01*
Y697250D01*
X168301Y696250D01*
X166302D01*
X165302Y697250D01*
Y698249D01*
X166302Y699249D01*
X165302Y700249D01*
Y701248D01*
X166302Y699249D02*
X168301D01*
X171300Y701248D02*
X172300Y702248D01*
X174299D01*
X175299Y701248D01*
Y700249D01*
X174299Y699249D01*
X173299D01*
X174299D01*
X175299Y698249D01*
Y697250D01*
X174299Y696250D01*
X172300D01*
X171300Y697250D01*
X177298Y701248D02*
X178298Y702248D01*
X180297D01*
X181297Y701248D01*
Y700249D01*
X180297Y699249D01*
X181297Y698249D01*
Y697250D01*
X180297Y696250D01*
X178298D01*
X177298Y697250D01*
Y698249D01*
X178298Y699249D01*
X177298Y700249D01*
Y701248D01*
X178298Y699249D02*
X180297D01*
X183296Y696250D02*
Y700249D01*
X184296D01*
X185295Y699249D01*
Y696250D01*
Y699249D01*
X186295Y700249D01*
X187295Y699249D01*
Y696250D01*
X189294D02*
Y700249D01*
X190294D01*
X191294Y699249D01*
Y696250D01*
Y699249D01*
X192293Y700249D01*
X193293Y699249D01*
Y696250D01*
X195292D02*
X197292Y698249D01*
Y700249D01*
X195292Y702248D01*
X98324Y686248D02*
X99323Y687248D01*
X101323D01*
X102322Y686248D01*
Y685249D01*
X101323Y684249D01*
X100323D01*
X101323D01*
X102322Y683249D01*
Y682250D01*
X101323Y681250D01*
X99323D01*
X98324Y682250D01*
X104322D02*
X105321Y681250D01*
X107321D01*
X108320Y682250D01*
Y686248D01*
X107321Y687248D01*
X105321D01*
X104322Y686248D01*
Y685249D01*
X105321Y684249D01*
X108320D01*
X110320Y681250D02*
Y682250D01*
X111319D01*
Y681250D01*
X110320D01*
X115318Y686248D02*
X116318Y687248D01*
X118317D01*
X119317Y686248D01*
Y685249D01*
X118317Y684249D01*
X117317D01*
X118317D01*
X119317Y683249D01*
Y682250D01*
X118317Y681250D01*
X116318D01*
X115318Y682250D01*
X121316Y687248D02*
X125315D01*
Y686248D01*
X121316Y682250D01*
Y681250D01*
X127314D02*
Y685249D01*
X128314D01*
X129314Y684249D01*
Y681250D01*
Y684249D01*
X130313Y685249D01*
X131313Y684249D01*
Y681250D01*
X133312D02*
X135312D01*
X134312D01*
Y685249D01*
X133312D01*
X138311Y681250D02*
X140310D01*
X139310D01*
Y687248D01*
X138311D01*
X151306Y681250D02*
X149307Y683249D01*
Y685249D01*
X151306Y687248D01*
X154306Y681250D02*
X156305D01*
X155305D01*
Y687248D01*
X154306Y686248D01*
X159304Y681250D02*
Y682250D01*
X160304D01*
Y681250D01*
X159304D01*
X164302Y686248D02*
X165302Y687248D01*
X167301D01*
X168301Y686248D01*
Y682250D01*
X167301Y681250D01*
X165302D01*
X164302Y682250D01*
Y686248D01*
X170300D02*
X171300Y687248D01*
X173299D01*
X174299Y686248D01*
Y682250D01*
X173299Y681250D01*
X171300D01*
X170300Y682250D01*
Y686248D01*
X176298D02*
X177298Y687248D01*
X179297D01*
X180297Y686248D01*
Y682250D01*
X179297Y681250D01*
X177298D01*
X176298Y682250D01*
Y686248D01*
X182297Y681250D02*
Y685249D01*
X183296D01*
X184296Y684249D01*
Y681250D01*
Y684249D01*
X185295Y685249D01*
X186295Y684249D01*
Y681250D01*
X188294D02*
Y685249D01*
X189294D01*
X190294Y684249D01*
Y681250D01*
Y684249D01*
X191294Y685249D01*
X192293Y684249D01*
Y681250D01*
X194293D02*
X196292Y683249D01*
Y685249D01*
X194293Y687248D01*
X101323Y666250D02*
Y672248D01*
X98324Y669249D01*
X102322D01*
X108320Y666250D02*
X104322D01*
X108320Y670249D01*
Y671248D01*
X107321Y672248D01*
X105321D01*
X104322Y671248D01*
X110320Y666250D02*
Y667250D01*
X111319D01*
Y666250D01*
X110320D01*
X115318Y667250D02*
X116318Y666250D01*
X118317D01*
X119317Y667250D01*
Y671248D01*
X118317Y672248D01*
X116318D01*
X115318Y671248D01*
Y670249D01*
X116318Y669249D01*
X119317D01*
X121316Y666250D02*
X123316D01*
X122316D01*
Y672248D01*
X121316Y671248D01*
X126315Y666250D02*
Y670249D01*
X127314D01*
X128314Y669249D01*
Y666250D01*
Y669249D01*
X129314Y670249D01*
X130313Y669249D01*
Y666250D01*
X132313D02*
X134312D01*
X133312D01*
Y670249D01*
X132313D01*
X137311Y666250D02*
X139310D01*
X138311D01*
Y672248D01*
X137311D01*
X150307Y666250D02*
X148308Y668249D01*
Y670249D01*
X150307Y672248D01*
X153306Y666250D02*
X155305D01*
X154306D01*
Y672248D01*
X153306Y671248D01*
X158304Y666250D02*
Y667250D01*
X159304D01*
Y666250D01*
X158304D01*
X163303Y671248D02*
X164302Y672248D01*
X166302D01*
X167301Y671248D01*
Y667250D01*
X166302Y666250D01*
X164302D01*
X163303Y667250D01*
Y671248D01*
X169301Y667250D02*
X170300Y666250D01*
X172300D01*
X173299Y667250D01*
Y671248D01*
X172300Y672248D01*
X170300D01*
X169301Y671248D01*
Y670249D01*
X170300Y669249D01*
X173299D01*
X175299Y671248D02*
X176298Y672248D01*
X178298D01*
X179297Y671248D01*
Y667250D01*
X178298Y666250D01*
X176298D01*
X175299Y667250D01*
Y671248D01*
X181297Y666250D02*
Y670249D01*
X182297D01*
X183296Y669249D01*
Y666250D01*
Y669249D01*
X184296Y670249D01*
X185295Y669249D01*
Y666250D01*
X187295D02*
Y670249D01*
X188294D01*
X189294Y669249D01*
Y666250D01*
Y669249D01*
X190294Y670249D01*
X191294Y669249D01*
Y666250D01*
X193293D02*
X195292Y668249D01*
Y670249D01*
X193293Y672248D01*
X98324Y651250D02*
X100323D01*
X99323D01*
Y657248D01*
X98324Y656248D01*
X103322Y651250D02*
X105321D01*
X104322D01*
Y657248D01*
X103322Y656248D01*
X112319Y657248D02*
X110320Y656248D01*
X108320Y654249D01*
Y652250D01*
X109320Y651250D01*
X111319D01*
X112319Y652250D01*
Y653249D01*
X111319Y654249D01*
X108320D01*
X114319Y651250D02*
Y652250D01*
X115318D01*
Y651250D01*
X114319D01*
X119317Y656248D02*
X120317Y657248D01*
X122316D01*
X123316Y656248D01*
Y652250D01*
X122316Y651250D01*
X120317D01*
X119317Y652250D01*
Y656248D01*
X125315D02*
X126315Y657248D01*
X128314D01*
X129314Y656248D01*
Y652250D01*
X128314Y651250D01*
X126315D01*
X125315Y652250D01*
Y656248D01*
X131313Y651250D02*
Y655249D01*
X132313D01*
X133312Y654249D01*
Y651250D01*
Y654249D01*
X134312Y655249D01*
X135312Y654249D01*
Y651250D01*
X137311D02*
X139310D01*
X138311D01*
Y655249D01*
X137311D01*
X142309Y651250D02*
X144309D01*
X143309D01*
Y657248D01*
X142309D01*
X155305Y651250D02*
X153306Y653249D01*
Y655249D01*
X155305Y657248D01*
X162303Y651250D02*
X158304D01*
X162303Y655249D01*
Y656248D01*
X161303Y657248D01*
X159304D01*
X158304Y656248D01*
X164302Y651250D02*
Y652250D01*
X165302D01*
Y651250D01*
X164302D01*
X169301Y652250D02*
X170300Y651250D01*
X172300D01*
X173299Y652250D01*
Y656248D01*
X172300Y657248D01*
X170300D01*
X169301Y656248D01*
Y655249D01*
X170300Y654249D01*
X173299D01*
X178298Y651250D02*
Y657248D01*
X175299Y654249D01*
X179297D01*
X185295Y657248D02*
X183296Y656248D01*
X181297Y654249D01*
Y652250D01*
X182297Y651250D01*
X184296D01*
X185295Y652250D01*
Y653249D01*
X184296Y654249D01*
X181297D01*
X187295Y651250D02*
Y655249D01*
X188294D01*
X189294Y654249D01*
Y651250D01*
Y654249D01*
X190294Y655249D01*
X191294Y654249D01*
Y651250D01*
X193293D02*
Y655249D01*
X194293D01*
X195292Y654249D01*
Y651250D01*
Y654249D01*
X196292Y655249D01*
X197292Y654249D01*
Y651250D01*
X199291D02*
X201290Y653249D01*
Y655249D01*
X199291Y657248D01*
X98324Y636250D02*
X100323D01*
X99323D01*
Y642248D01*
X98324Y641248D01*
X107321Y636250D02*
X103322D01*
X107321Y640249D01*
Y641248D01*
X106321Y642248D01*
X104322D01*
X103322Y641248D01*
X109320D02*
X110320Y642248D01*
X112319D01*
X113319Y641248D01*
Y640249D01*
X112319Y639249D01*
X113319Y638249D01*
Y637250D01*
X112319Y636250D01*
X110320D01*
X109320Y637250D01*
Y638249D01*
X110320Y639249D01*
X109320Y640249D01*
Y641248D01*
X110320Y639249D02*
X112319D01*
X115318Y636250D02*
Y637250D01*
X116318D01*
Y636250D01*
X115318D01*
X120317Y641248D02*
X121316Y642248D01*
X123316D01*
X124315Y641248D01*
Y640249D01*
X123316Y639249D01*
X122316D01*
X123316D01*
X124315Y638249D01*
Y637250D01*
X123316Y636250D01*
X121316D01*
X120317Y637250D01*
X130313Y642248D02*
X126315D01*
Y639249D01*
X128314Y640249D01*
X129314D01*
X130313Y639249D01*
Y637250D01*
X129314Y636250D01*
X127314D01*
X126315Y637250D01*
X132313Y636250D02*
Y640249D01*
X133312D01*
X134312Y639249D01*
Y636250D01*
Y639249D01*
X135312Y640249D01*
X136311Y639249D01*
Y636250D01*
X138311D02*
X140310D01*
X139310D01*
Y640249D01*
X138311D01*
X143309Y636250D02*
X145308D01*
X144309D01*
Y642248D01*
X143309D01*
X156305Y636250D02*
X154306Y638249D01*
Y640249D01*
X156305Y642248D01*
X159304Y641248D02*
X160304Y642248D01*
X162303D01*
X163303Y641248D01*
Y640249D01*
X162303Y639249D01*
X161303D01*
X162303D01*
X163303Y638249D01*
Y637250D01*
X162303Y636250D01*
X160304D01*
X159304Y637250D01*
X165302Y636250D02*
Y637250D01*
X166302D01*
Y636250D01*
X165302D01*
X174299D02*
X170300D01*
X174299Y640249D01*
Y641248D01*
X173299Y642248D01*
X171300D01*
X170300Y641248D01*
X180297Y642248D02*
X178298Y641248D01*
X176298Y639249D01*
Y637250D01*
X177298Y636250D01*
X179297D01*
X180297Y637250D01*
Y638249D01*
X179297Y639249D01*
X176298D01*
X182297Y641248D02*
X183296Y642248D01*
X185295D01*
X186295Y641248D01*
Y637250D01*
X185295Y636250D01*
X183296D01*
X182297Y637250D01*
Y641248D01*
X188294Y636250D02*
Y640249D01*
X189294D01*
X190294Y639249D01*
Y636250D01*
Y639249D01*
X191294Y640249D01*
X192293Y639249D01*
Y636250D01*
X194293D02*
Y640249D01*
X195292D01*
X196292Y639249D01*
Y636250D01*
Y639249D01*
X197292Y640249D01*
X198291Y639249D01*
Y636250D01*
X200291D02*
X202290Y638249D01*
Y640249D01*
X200291Y642248D01*
X48336Y627248D02*
X44338D01*
Y624249D01*
X46337Y625249D01*
X47337D01*
X48336Y624249D01*
Y622250D01*
X47337Y621250D01*
X45337D01*
X44338Y622250D01*
X54334Y627248D02*
X50336D01*
Y624249D01*
X52335Y625249D01*
X53335D01*
X54334Y624249D01*
Y622250D01*
X53335Y621250D01*
X51335D01*
X50336Y622250D01*
X62332Y627248D02*
X66330D01*
X64331D01*
Y621250D01*
X69330D02*
X71329D01*
X72329Y622250D01*
Y624249D01*
X71329Y625249D01*
X69330D01*
X68330Y624249D01*
Y622250D01*
X69330Y621250D01*
X75327Y626248D02*
Y625249D01*
X74328D01*
X76327D01*
X75327D01*
Y622250D01*
X76327Y621250D01*
X80326Y625249D02*
X82325D01*
X83325Y624249D01*
Y621250D01*
X80326D01*
X79326Y622250D01*
X80326Y623249D01*
X83325D01*
X85324Y621250D02*
X87324D01*
X86324D01*
Y627248D01*
X85324D01*
X44338Y696250D02*
X46337D01*
X45337D01*
Y702248D01*
X44338Y701248D01*
X53335Y702248D02*
X51335Y701248D01*
X49336Y699249D01*
Y697250D01*
X50336Y696250D01*
X52335D01*
X53335Y697250D01*
Y698249D01*
X52335Y699249D01*
X49336D01*
X44338Y686248D02*
X45337Y687248D01*
X47337D01*
X48336Y686248D01*
Y685249D01*
X47337Y684249D01*
X48336Y683249D01*
Y682250D01*
X47337Y681250D01*
X45337D01*
X44338Y682250D01*
Y683249D01*
X45337Y684249D01*
X44338Y685249D01*
Y686248D01*
X45337Y684249D02*
X47337D01*
X48336Y666250D02*
X44338D01*
X48336Y670249D01*
Y671248D01*
X47337Y672248D01*
X45337D01*
X44338Y671248D01*
X54334Y672248D02*
X50336D01*
Y669249D01*
X52335Y670249D01*
X53335D01*
X54334Y669249D01*
Y667250D01*
X53335Y666250D01*
X51335D01*
X50336Y667250D01*
X47337Y651250D02*
Y657248D01*
X44338Y654249D01*
X48336D01*
Y636250D02*
X44338D01*
X48336Y640249D01*
Y641248D01*
X47337Y642248D01*
X45337D01*
X44338Y641248D01*
D23*
X-15250Y706750D02*
X685760D01*
X-15250Y631750D02*
X685760D01*
X-15250Y616750D02*
X685760D01*
Y721750D01*
X-15250D02*
X685760D01*
X-15250Y616750D02*
Y721750D01*
X616278Y616750D02*
Y721750D01*
X541698Y616750D02*
Y721750D01*
X482713Y616750D02*
Y721750D01*
X332758Y616750D02*
Y721750D01*
X259378Y616750D02*
Y721750D01*
X208790Y616750D02*
Y721750D01*
X93824Y616750D02*
Y721750D01*
X39838Y616750D02*
Y721750D01*
D26*
X294500Y68500D02*
G03*
X294500Y68500I-1000J0D01*
G01*
Y19000D02*
G03*
X294500Y19000I-1000J0D01*
G01*
X32500Y68500D02*
G03*
X32500Y68500I-1000J0D01*
G01*
Y18500D02*
G03*
X32500Y18500I-1000J0D01*
G01*
X270500Y76500D02*
X271500Y77000D01*
X272500Y76500D01*
X272000Y77500D02*
X272500Y76500D01*
X272000Y77500D02*
X272500Y78500D01*
X271500Y78000D02*
X272500Y78500D01*
X270500D02*
X271500Y78000D01*
X270500Y78500D02*
X271000Y77500D01*
X270500Y76500D02*
X271000Y77500D01*
X270500Y66500D02*
X271500Y67000D01*
X272500Y66500D01*
X272000Y67500D02*
X272500Y66500D01*
X272000Y67500D02*
X272500Y68500D01*
X271500Y68000D02*
X272500Y68500D01*
X270500D02*
X271500Y68000D01*
X270500Y68500D02*
X271000Y67500D01*
X270500Y66500D02*
X271000Y67500D01*
X270500Y56500D02*
X271500Y57000D01*
X272500Y56500D01*
X272000Y57500D02*
X272500Y56500D01*
X272000Y57500D02*
X272500Y58500D01*
X271500Y58000D02*
X272500Y58500D01*
X270500D02*
X271500Y58000D01*
X270500Y58500D02*
X271000Y57500D01*
X270500Y56500D02*
X271000Y57500D01*
X270500Y46500D02*
X271500Y47000D01*
X272500Y46500D01*
X272000Y47500D02*
X272500Y46500D01*
X272000Y47500D02*
X272500Y48500D01*
X271500Y48000D02*
X272500Y48500D01*
X270500D02*
X271500Y48000D01*
X270500Y48500D02*
X271000Y47500D01*
X270500Y46500D02*
X271000Y47500D01*
X270500Y36500D02*
X271500Y37000D01*
X272500Y36500D01*
X272000Y37500D02*
X272500Y36500D01*
X272000Y37500D02*
X272500Y38500D01*
X271500Y38000D02*
X272500Y38500D01*
X270500D02*
X271500Y38000D01*
X270500Y38500D02*
X271000Y37500D01*
X270500Y36500D02*
X271000Y37500D01*
X270500Y26500D02*
X271500Y27000D01*
X272500Y26500D01*
X272000Y27500D02*
X272500Y26500D01*
X272000Y27500D02*
X272500Y28500D01*
X271500Y28000D02*
X272500Y28500D01*
X270500D02*
X271500Y28000D01*
X270500Y28500D02*
X271000Y27500D01*
X270500Y26500D02*
X271000Y27500D01*
X270500Y6500D02*
X271500Y7000D01*
X272500Y6500D01*
X272000Y7500D02*
X272500Y6500D01*
X272000Y7500D02*
X272500Y8500D01*
X271500Y8000D02*
X272500Y8500D01*
X270500D02*
X271500Y8000D01*
X270500Y8500D02*
X271000Y7500D01*
X270500Y6500D02*
X271000Y7500D01*
X270500Y16500D02*
X271500Y17000D01*
X272500Y16500D01*
X272000Y17500D02*
X272500Y16500D01*
X272000Y17500D02*
X272500Y18500D01*
X271500Y18000D02*
X272500Y18500D01*
X270500D02*
X271500Y18000D01*
X270500Y18500D02*
X271000Y17500D01*
X270500Y16500D02*
X271000Y17500D01*
X217843Y41591D02*
X218843Y43591D01*
X216843D02*
X218843D01*
X216843D02*
X217843Y41591D01*
X212407Y30409D02*
X213407Y32409D01*
X211407D02*
X213407D01*
X211407D02*
X212407Y30409D01*
X206972Y41591D02*
X207972Y43591D01*
X205972D02*
X207972D01*
X205972D02*
X206972Y41591D01*
X201537Y30409D02*
X202537Y32409D01*
X200537D02*
X202537D01*
X200537D02*
X201537Y30409D01*
X196102Y41591D02*
X197102Y43591D01*
X195102D02*
X197102D01*
X195102D02*
X196102Y41591D01*
X190667Y30409D02*
X191667Y32409D01*
X189667D02*
X191667D01*
X189667D02*
X190667Y30409D01*
X185232Y41591D02*
X186232Y43591D01*
X184232D02*
X186232D01*
X184232D02*
X185232Y41591D01*
X179797Y30409D02*
X180797Y32409D01*
X178797D02*
X180797D01*
X178797D02*
X179797Y30409D01*
X174362Y41591D02*
X175362Y43591D01*
X173362D02*
X175362D01*
X173362D02*
X174362Y41591D01*
X168927Y30409D02*
X169927Y32409D01*
X167927D02*
X169927D01*
X167927D02*
X168927Y30409D01*
X163492Y41591D02*
X164492Y43591D01*
X162492D02*
X164492D01*
X162492D02*
X163492Y41591D01*
X158057Y30409D02*
X159057Y32409D01*
X157057D02*
X159057D01*
X157057D02*
X158057Y30409D01*
X152622Y41591D02*
X153622Y43591D01*
X151622D02*
X153622D01*
X151622D02*
X152622Y41591D01*
X147187Y30409D02*
X148187Y32409D01*
X146187D02*
X148187D01*
X146187D02*
X147187Y30409D01*
X141752Y41591D02*
X142752Y43591D01*
X140752D02*
X142752D01*
X140752D02*
X141752Y41591D01*
X136317Y30409D02*
X137317Y32409D01*
X135317D02*
X137317D01*
X135317D02*
X136317Y30409D01*
X130882Y41591D02*
X131882Y43591D01*
X129882D02*
X131882D01*
X129882D02*
X130882Y41591D01*
X125447Y30409D02*
X126447Y32409D01*
X124447D02*
X126447D01*
X124447D02*
X125447Y30409D01*
X120012Y41591D02*
X121012Y43591D01*
X119012D02*
X121012D01*
X119012D02*
X120012Y41591D01*
X114577Y30409D02*
X115577Y32409D01*
X113577D02*
X115577D01*
X113577D02*
X114577Y30409D01*
X109142Y41591D02*
X110142Y43591D01*
X108142D02*
X110142D01*
X108142D02*
X109142Y41591D01*
X103707Y30409D02*
X104707Y32409D01*
X102707D02*
X104707D01*
X102707D02*
X103707Y30409D01*
X98272Y41591D02*
X99272Y43591D01*
X97272D02*
X99272D01*
X97272D02*
X98272Y41591D01*
X92837Y30409D02*
X93837Y32409D01*
X91837D02*
X93837D01*
X91837D02*
X92837Y30409D01*
X87402Y41591D02*
X88402Y43591D01*
X86402D02*
X88402D01*
X86402D02*
X87402Y41591D01*
X59500Y36500D02*
X60000Y36000D01*
X59000Y36500D02*
X59500D01*
X59000D02*
X59500Y37000D01*
X59000Y37500D02*
X59500Y37000D01*
X59000Y37500D02*
X59500D01*
X60000Y38000D01*
X60500Y37500D01*
X61000D01*
X60500Y37000D02*
X61000Y37500D01*
X60500Y37000D02*
X61000Y36500D01*
X60500D02*
X61000D01*
X60000Y36000D02*
X60500Y36500D01*
X244744D02*
X245244Y36000D01*
X244244Y36500D02*
X244744D01*
X244244D02*
X244744Y37000D01*
X244244Y37500D02*
X244744Y37000D01*
X244244Y37500D02*
X244744D01*
X245244Y38000D01*
X245744Y37500D01*
X246244D01*
X245744Y37000D02*
X246244Y37500D01*
X245744Y37000D02*
X246244Y36500D01*
X245744D02*
X246244D01*
X245244Y36000D02*
X245744Y36500D01*
X88500Y70000D02*
X90500D01*
Y72000D01*
X88500D02*
X90500D01*
X88500Y70000D02*
Y72000D01*
X78658Y70000D02*
X80658D01*
Y72000D01*
X78658D02*
X80658D01*
X78658Y70000D02*
Y72000D01*
X68816Y70000D02*
X70816D01*
Y72000D01*
X68816D02*
X70816D01*
X68816Y70000D02*
Y72000D01*
X58974Y70000D02*
X60974D01*
Y72000D01*
X58974D02*
X60974D01*
X58974Y70000D02*
Y72000D01*
X218316Y70000D02*
X220316D01*
Y72000D01*
X218316D02*
X220316D01*
X218316Y70000D02*
Y72000D01*
X228158Y70000D02*
X230158D01*
Y72000D01*
X228158D02*
X230158D01*
X228158Y70000D02*
Y72000D01*
X238000Y70000D02*
X240000D01*
Y72000D01*
X238000D02*
X240000D01*
X238000Y70000D02*
Y72000D01*
X247842Y70000D02*
X249842D01*
Y72000D01*
X247842D02*
X249842D01*
X247842Y70000D02*
Y72000D01*
X141000Y70000D02*
X143000D01*
Y72000D01*
X141000D02*
X143000D01*
X141000Y70000D02*
Y72000D01*
X131158Y70000D02*
X133158D01*
Y72000D01*
X131158D02*
X133158D01*
X131158Y70000D02*
Y72000D01*
X121316Y70000D02*
X123316D01*
Y72000D01*
X121316D02*
X123316D01*
X121316Y70000D02*
Y72000D01*
X111474Y70000D02*
X113474D01*
Y72000D01*
X111474D02*
X113474D01*
X111474Y70000D02*
Y72000D01*
X165158Y70000D02*
X167158D01*
Y72000D01*
X165158D02*
X167158D01*
X165158Y70000D02*
Y72000D01*
X175000Y70000D02*
X177000D01*
Y72000D01*
X175000D02*
X177000D01*
X175000Y70000D02*
Y72000D01*
X184842Y70000D02*
X186842D01*
Y72000D01*
X184842D02*
X186842D01*
X184842Y70000D02*
Y72000D01*
X194684Y70000D02*
X196684D01*
Y72000D01*
X194684D02*
X196684D01*
X194684Y70000D02*
Y72000D01*
D27*
X620778Y718448D02*
X625576D01*
X623177D01*
Y711250D01*
X631574D02*
X629175D01*
X627975Y712450D01*
Y714849D01*
X629175Y716048D01*
X631574D01*
X632774Y714849D01*
Y713649D01*
X627975D01*
X635173Y711250D02*
Y716048D01*
X636373D01*
X637572Y714849D01*
Y711250D01*
Y714849D01*
X638772Y716048D01*
X639971Y714849D01*
Y711250D01*
X642371Y708851D02*
Y716048D01*
X645969D01*
X647169Y714849D01*
Y712450D01*
X645969Y711250D01*
X642371D01*
X649568D02*
X651967D01*
X650768D01*
Y718448D01*
X649568D01*
X656766Y716048D02*
X659165D01*
X660365Y714849D01*
Y711250D01*
X656766D01*
X655566Y712450D01*
X656766Y713649D01*
X660365D01*
X663964Y717248D02*
Y716048D01*
X662764D01*
X665163D01*
X663964D01*
Y712450D01*
X665163Y711250D01*
X672361D02*
X669962D01*
X668762Y712450D01*
Y714849D01*
X669962Y716048D01*
X672361D01*
X673560Y714849D01*
Y713649D01*
X668762D01*
X546198Y711250D02*
Y718448D01*
X549796D01*
X550996Y717248D01*
Y714849D01*
X549796Y713649D01*
X546198D01*
X554595Y716048D02*
X556994D01*
X558194Y714849D01*
Y711250D01*
X554595D01*
X553395Y712450D01*
X554595Y713649D01*
X558194D01*
X565391Y718448D02*
Y711250D01*
X561793D01*
X560593Y712450D01*
Y714849D01*
X561793Y716048D01*
X565391D01*
X579787Y717248D02*
X578587Y718448D01*
X576188D01*
X574988Y717248D01*
Y716048D01*
X576188Y714849D01*
X578587D01*
X579787Y713649D01*
Y712450D01*
X578587Y711250D01*
X576188D01*
X574988Y712450D01*
X582186Y718448D02*
Y711250D01*
Y714849D01*
X583386Y716048D01*
X585785D01*
X586984Y714849D01*
Y711250D01*
X590583Y716048D02*
X592983D01*
X594182Y714849D01*
Y711250D01*
X590583D01*
X589384Y712450D01*
X590583Y713649D01*
X594182D01*
X596581Y708851D02*
Y716048D01*
X600180D01*
X601380Y714849D01*
Y712450D01*
X600180Y711250D01*
X596581D01*
X607378D02*
X604979D01*
X603779Y712450D01*
Y714849D01*
X604979Y716048D01*
X607378D01*
X608577Y714849D01*
Y713649D01*
X603779D01*
X487213Y718448D02*
Y713649D01*
X489612Y711250D01*
X492011Y713649D01*
Y718448D01*
X494411Y711250D02*
X496810D01*
X495610D01*
Y716048D01*
X494411D01*
X501608D02*
X504007D01*
X505207Y714849D01*
Y711250D01*
X501608D01*
X500409Y712450D01*
X501608Y713649D01*
X505207D01*
X507606Y711250D02*
X512405Y716048D01*
X514804Y711250D02*
Y718448D01*
X518403D01*
X519602Y717248D01*
Y714849D01*
X518403Y713649D01*
X514804D01*
X523201Y716048D02*
X525600D01*
X526800Y714849D01*
Y711250D01*
X523201D01*
X522002Y712450D01*
X523201Y713649D01*
X526800D01*
X533998Y718448D02*
Y711250D01*
X530399D01*
X529199Y712450D01*
Y714849D01*
X530399Y716048D01*
X533998D01*
X337258Y718448D02*
Y711250D01*
X340857D01*
X342056Y712450D01*
Y717248D01*
X340857Y718448D01*
X337258D01*
X344456Y716048D02*
Y711250D01*
Y713649D01*
X345655Y714849D01*
X346855Y716048D01*
X348054D01*
X351653Y711250D02*
X354052D01*
X352853D01*
Y716048D01*
X351653D01*
X357651Y711250D02*
X360050D01*
X358851D01*
Y718448D01*
X357651D01*
X363649Y711250D02*
X366049D01*
X364849D01*
Y718448D01*
X363649D01*
X376845D02*
Y711250D01*
X381643D01*
X385242Y716048D02*
X387642D01*
X388841Y714849D01*
Y711250D01*
X385242D01*
X384043Y712450D01*
X385242Y713649D01*
X388841D01*
X391240Y716048D02*
Y712450D01*
X392440Y711250D01*
X396039D01*
Y710050D01*
X394839Y708851D01*
X393639D01*
X396039Y711250D02*
Y716048D01*
X402037Y711250D02*
X399638D01*
X398438Y712450D01*
Y714849D01*
X399638Y716048D01*
X402037D01*
X403236Y714849D01*
Y713649D01*
X398438D01*
X405636Y716048D02*
Y711250D01*
Y713649D01*
X406835Y714849D01*
X408035Y716048D01*
X409235D01*
X420031Y711250D02*
Y718448D01*
X423630D01*
X424829Y717248D01*
Y714849D01*
X423630Y713649D01*
X420031D01*
X428428Y716048D02*
X430828D01*
X432027Y714849D01*
Y711250D01*
X428428D01*
X427229Y712450D01*
X428428Y713649D01*
X432027D01*
X434426Y711250D02*
X436826D01*
X435626D01*
Y716048D01*
X434426D01*
X440424D02*
Y711250D01*
Y713649D01*
X441624Y714849D01*
X442824Y716048D01*
X444023D01*
X263878Y718448D02*
Y711250D01*
Y714849D01*
X268676D01*
Y718448D01*
Y711250D01*
X272275D02*
X274674D01*
X275874Y712450D01*
Y714849D01*
X274674Y716048D01*
X272275D01*
X271075Y714849D01*
Y712450D01*
X272275Y711250D01*
X278273D02*
X280672D01*
X279472D01*
Y718448D01*
X278273D01*
X287870Y711250D02*
X285471D01*
X284271Y712450D01*
Y714849D01*
X285471Y716048D01*
X287870D01*
X289069Y714849D01*
Y713649D01*
X284271D01*
X298666Y718448D02*
X303465D01*
X301065D01*
Y711250D01*
X305864Y716048D02*
Y712450D01*
X307064Y711250D01*
X310662D01*
Y710050D01*
X309463Y708851D01*
X308263D01*
X310662Y711250D02*
Y716048D01*
X313062Y708851D02*
Y716048D01*
X316660D01*
X317860Y714849D01*
Y712450D01*
X316660Y711250D01*
X313062D01*
X323858D02*
X321459D01*
X320259Y712450D01*
Y714849D01*
X321459Y716048D01*
X323858D01*
X325058Y714849D01*
Y713649D01*
X320259D01*
X213290Y711250D02*
Y718448D01*
X216889D01*
X218089Y717248D01*
Y714849D01*
X216889Y713649D01*
X213290D01*
X220488Y711250D02*
X222887D01*
X221687D01*
Y718448D01*
X220488D01*
X227685Y716048D02*
X230085D01*
X231284Y714849D01*
Y711250D01*
X227685D01*
X226486Y712450D01*
X227685Y713649D01*
X231284D01*
X234883Y717248D02*
Y716048D01*
X233683D01*
X236083D01*
X234883D01*
Y712450D01*
X236083Y711250D01*
X243280D02*
X240881D01*
X239682Y712450D01*
Y714849D01*
X240881Y716048D01*
X243280D01*
X244480Y714849D01*
Y713649D01*
X239682D01*
X251678Y718448D02*
Y711250D01*
X248079D01*
X246879Y712450D01*
Y714849D01*
X248079Y716048D01*
X251678D01*
X98324Y718448D02*
Y711250D01*
Y714849D01*
X103122D01*
Y718448D01*
Y711250D01*
X106721D02*
X109120D01*
X110320Y712450D01*
Y714849D01*
X109120Y716048D01*
X106721D01*
X105521Y714849D01*
Y712450D01*
X106721Y711250D01*
X112719D02*
X115118D01*
X113919D01*
Y718448D01*
X112719D01*
X122316Y711250D02*
X119917D01*
X118717Y712450D01*
Y714849D01*
X119917Y716048D01*
X122316D01*
X123515Y714849D01*
Y713649D01*
X118717D01*
X137911Y717248D02*
X136711Y718448D01*
X134312D01*
X133112Y717248D01*
Y716048D01*
X134312Y714849D01*
X136711D01*
X137911Y713649D01*
Y712450D01*
X136711Y711250D01*
X134312D01*
X133112Y712450D01*
X140310Y711250D02*
X142709D01*
X141510D01*
Y716048D01*
X140310D01*
X146308D02*
X151107D01*
X146308Y711250D01*
X151107D01*
X157105D02*
X154705D01*
X153506Y712450D01*
Y714849D01*
X154705Y716048D01*
X157105D01*
X158304Y714849D01*
Y713649D01*
X153506D01*
X49136Y717248D02*
X47936Y718448D01*
X45537D01*
X44338Y717248D01*
Y712450D01*
X45537Y711250D01*
X47936D01*
X49136Y712450D01*
X52735Y711250D02*
X55134D01*
X56334Y712450D01*
Y714849D01*
X55134Y716048D01*
X52735D01*
X51535Y714849D01*
Y712450D01*
X52735Y711250D01*
X58733Y716048D02*
Y712450D01*
X59933Y711250D01*
X63531D01*
Y716048D01*
X65931Y711250D02*
Y716048D01*
X69529D01*
X70729Y714849D01*
Y711250D01*
X74328Y717248D02*
Y716048D01*
X73128D01*
X75528D01*
X74328D01*
Y712450D01*
X75528Y711250D01*
X-1452Y717248D02*
X-2651Y718448D01*
X-5050D01*
X-6250Y717248D01*
Y716048D01*
X-5050Y714849D01*
X-2651D01*
X-1452Y713649D01*
Y712450D01*
X-2651Y711250D01*
X-5050D01*
X-6250Y712450D01*
X948Y716048D02*
Y712450D01*
X2147Y711250D01*
X5746D01*
Y710050D01*
X4546Y708851D01*
X3347D01*
X5746Y711250D02*
Y716048D01*
X8145Y711250D02*
Y716048D01*
X9345D01*
X10545Y714849D01*
Y711250D01*
Y714849D01*
X11744Y716048D01*
X12944Y714849D01*
Y711250D01*
X15343Y718448D02*
Y711250D01*
X18942D01*
X20142Y712450D01*
Y713649D01*
Y714849D01*
X18942Y716048D01*
X15343D01*
X23740Y711250D02*
X26140D01*
X27339Y712450D01*
Y714849D01*
X26140Y716048D01*
X23740D01*
X22541Y714849D01*
Y712450D01*
X23740Y711250D01*
X29738D02*
X32138D01*
X30938D01*
Y718448D01*
X29738D01*
M02*
