G04*
G04 #@! TF.GenerationSoftware,Altium Limited,Altium Designer,19.0.10 (269)*
G04*
G04 Layer_Color=32896*
%FSLAX25Y25*%
%MOIN*%
G70*
G01*
G75*
%ADD21C,0.00787*%
G36*
X214282Y26380D02*
X214375Y26372D01*
X214463Y26358D01*
X214545Y26339D01*
X214621Y26317D01*
X214692Y26292D01*
X214755Y26268D01*
X214815Y26243D01*
X214867Y26216D01*
X214913Y26191D01*
X214951Y26167D01*
X214984Y26145D01*
X215009Y26129D01*
X215028Y26112D01*
X215039Y26104D01*
X215041Y26101D01*
X215099Y26047D01*
X215148Y25987D01*
X215194Y25924D01*
X215232Y25858D01*
X215268Y25790D01*
X215298Y25722D01*
X215323Y25656D01*
X215344Y25591D01*
X215361Y25531D01*
X215374Y25473D01*
X215385Y25422D01*
X215393Y25378D01*
X215402Y25342D01*
X215404Y25315D01*
Y25304D01*
X215407Y25296D01*
Y25293D01*
Y25291D01*
X214929Y25241D01*
X214927Y25307D01*
X214921Y25367D01*
X214910Y25424D01*
X214899Y25479D01*
X214883Y25528D01*
X214867Y25572D01*
X214847Y25615D01*
X214828Y25651D01*
X214812Y25684D01*
X214793Y25714D01*
X214776Y25738D01*
X214760Y25760D01*
X214749Y25774D01*
X214738Y25787D01*
X214733Y25793D01*
X214730Y25796D01*
X214692Y25831D01*
X214648Y25861D01*
X214605Y25888D01*
X214561Y25913D01*
X214514Y25932D01*
X214471Y25948D01*
X214427Y25962D01*
X214386Y25973D01*
X214345Y25981D01*
X214310Y25987D01*
X214277Y25992D01*
X214247Y25995D01*
X214225Y25998D01*
X214192D01*
X214135Y25995D01*
X214080Y25989D01*
X214029Y25981D01*
X213979Y25967D01*
X213936Y25954D01*
X213892Y25938D01*
X213854Y25921D01*
X213818Y25902D01*
X213788Y25886D01*
X213761Y25866D01*
X213736Y25850D01*
X213717Y25837D01*
X213701Y25823D01*
X213690Y25815D01*
X213685Y25809D01*
X213682Y25806D01*
X213646Y25771D01*
X213616Y25733D01*
X213589Y25695D01*
X213567Y25654D01*
X213548Y25615D01*
X213532Y25577D01*
X213518Y25539D01*
X213507Y25503D01*
X213499Y25471D01*
X213493Y25441D01*
X213488Y25413D01*
X213485Y25389D01*
X213482Y25370D01*
Y25356D01*
Y25345D01*
Y25342D01*
X213485Y25293D01*
X213491Y25244D01*
X213502Y25195D01*
X213515Y25146D01*
X213551Y25050D01*
X213573Y25007D01*
X213592Y24966D01*
X213611Y24927D01*
X213633Y24892D01*
X213649Y24862D01*
X213665Y24835D01*
X213682Y24815D01*
X213693Y24799D01*
X213698Y24788D01*
X213701Y24785D01*
X213745Y24728D01*
X213799Y24665D01*
X213857Y24602D01*
X213922Y24537D01*
X213988Y24469D01*
X214059Y24403D01*
X214127Y24338D01*
X214198Y24275D01*
X214263Y24215D01*
X214326Y24160D01*
X214381Y24108D01*
X214433Y24068D01*
X214474Y24032D01*
X214490Y24018D01*
X214504Y24005D01*
X214514Y23997D01*
X214523Y23988D01*
X214528Y23986D01*
X214531Y23983D01*
X214602Y23923D01*
X214670Y23865D01*
X214733Y23811D01*
X214793Y23759D01*
X214847Y23707D01*
X214897Y23661D01*
X214940Y23617D01*
X214981Y23576D01*
X215019Y23541D01*
X215050Y23508D01*
X215077Y23481D01*
X215099Y23456D01*
X215115Y23437D01*
X215126Y23423D01*
X215134Y23415D01*
X215137Y23412D01*
X215211Y23319D01*
X215273Y23229D01*
X215325Y23145D01*
X215350Y23107D01*
X215369Y23068D01*
X215385Y23035D01*
X215402Y23006D01*
X215415Y22978D01*
X215424Y22954D01*
X215432Y22934D01*
X215437Y22921D01*
X215443Y22913D01*
Y22910D01*
X215462Y22853D01*
X215475Y22795D01*
X215484Y22741D01*
X215489Y22694D01*
X215492Y22651D01*
X215494Y22634D01*
Y22618D01*
Y22607D01*
Y22599D01*
Y22593D01*
Y22591D01*
X212999D01*
Y23035D01*
X214850D01*
X214820Y23082D01*
X214788Y23128D01*
X214755Y23169D01*
X214725Y23208D01*
X214697Y23237D01*
X214675Y23262D01*
X214662Y23279D01*
X214656Y23284D01*
X214632Y23311D01*
X214599Y23341D01*
X214564Y23374D01*
X214523Y23412D01*
X214479Y23450D01*
X214435Y23491D01*
X214342Y23571D01*
X214299Y23609D01*
X214258Y23644D01*
X214222Y23677D01*
X214187Y23704D01*
X214160Y23729D01*
X214141Y23745D01*
X214127Y23759D01*
X214121Y23762D01*
X214031Y23838D01*
X213947Y23912D01*
X213870Y23980D01*
X213799Y24043D01*
X213734Y24103D01*
X213676Y24158D01*
X213622Y24207D01*
X213575Y24250D01*
X213534Y24291D01*
X213502Y24327D01*
X213472Y24357D01*
X213447Y24381D01*
X213428Y24400D01*
X213417Y24414D01*
X213409Y24422D01*
X213406Y24425D01*
X213368Y24472D01*
X213330Y24515D01*
X213297Y24559D01*
X213267Y24600D01*
X213212Y24679D01*
X213190Y24714D01*
X213171Y24747D01*
X213152Y24777D01*
X213139Y24805D01*
X213125Y24829D01*
X213117Y24848D01*
X213108Y24865D01*
X213103Y24875D01*
X213098Y24884D01*
Y24886D01*
X213068Y24968D01*
X213043Y25047D01*
X213027Y25124D01*
X213016Y25192D01*
X213013Y25222D01*
X213010Y25249D01*
X213007Y25271D01*
X213005Y25293D01*
Y25310D01*
Y25321D01*
Y25329D01*
Y25332D01*
X213007Y25413D01*
X213018Y25493D01*
X213035Y25566D01*
X213054Y25637D01*
X213078Y25703D01*
X213106Y25765D01*
X213136Y25823D01*
X213163Y25875D01*
X213193Y25921D01*
X213223Y25962D01*
X213250Y25998D01*
X213275Y26025D01*
X213294Y26049D01*
X213311Y26066D01*
X213321Y26077D01*
X213324Y26079D01*
X213387Y26134D01*
X213453Y26180D01*
X213521Y26219D01*
X213592Y26254D01*
X213663Y26284D01*
X213736Y26309D01*
X213805Y26328D01*
X213873Y26344D01*
X213936Y26358D01*
X213996Y26366D01*
X214048Y26374D01*
X214094Y26377D01*
X214132Y26380D01*
X214160Y26382D01*
X214184D01*
X214282Y26380D01*
D02*
G37*
G36*
X212421Y24379D02*
X211984Y24321D01*
X211943Y24379D01*
X211896Y24430D01*
X211850Y24474D01*
X211806Y24512D01*
X211765Y24543D01*
X211733Y24564D01*
X211719Y24573D01*
X211711Y24578D01*
X211705Y24583D01*
X211703D01*
X211634Y24619D01*
X211563Y24644D01*
X211495Y24663D01*
X211432Y24674D01*
X211402Y24679D01*
X211378Y24682D01*
X211353Y24684D01*
X211334D01*
X211318Y24687D01*
X211296D01*
X211230Y24684D01*
X211168Y24676D01*
X211107Y24665D01*
X211050Y24652D01*
X210998Y24635D01*
X210952Y24613D01*
X210908Y24594D01*
X210867Y24573D01*
X210832Y24551D01*
X210802Y24532D01*
X210774Y24512D01*
X210753Y24493D01*
X210733Y24480D01*
X210722Y24469D01*
X210714Y24461D01*
X210712Y24458D01*
X210673Y24414D01*
X210638Y24365D01*
X210608Y24316D01*
X210583Y24264D01*
X210561Y24209D01*
X210542Y24158D01*
X210529Y24108D01*
X210515Y24059D01*
X210507Y24010D01*
X210499Y23969D01*
X210493Y23928D01*
X210490Y23896D01*
Y23868D01*
X210488Y23846D01*
Y23835D01*
Y23830D01*
X210490Y23753D01*
X210499Y23683D01*
X210510Y23614D01*
X210523Y23549D01*
X210542Y23489D01*
X210561Y23434D01*
X210583Y23385D01*
X210602Y23339D01*
X210624Y23298D01*
X210646Y23262D01*
X210665Y23232D01*
X210684Y23208D01*
X210698Y23188D01*
X210709Y23172D01*
X210717Y23164D01*
X210720Y23161D01*
X210764Y23117D01*
X210810Y23079D01*
X210859Y23044D01*
X210905Y23016D01*
X210955Y22992D01*
X211001Y22970D01*
X211047Y22954D01*
X211091Y22943D01*
X211132Y22932D01*
X211170Y22924D01*
X211206Y22918D01*
X211233Y22913D01*
X211258D01*
X211274Y22910D01*
X211290D01*
X211342Y22913D01*
X211391Y22918D01*
X211438Y22926D01*
X211481Y22937D01*
X211525Y22951D01*
X211563Y22967D01*
X211602Y22981D01*
X211634Y23000D01*
X211664Y23016D01*
X211689Y23030D01*
X211714Y23046D01*
X211733Y23060D01*
X211749Y23071D01*
X211760Y23079D01*
X211765Y23085D01*
X211768Y23087D01*
X211804Y23123D01*
X211836Y23161D01*
X211864Y23202D01*
X211891Y23246D01*
X211913Y23289D01*
X211932Y23336D01*
X211965Y23420D01*
X211978Y23461D01*
X211989Y23500D01*
X211997Y23535D01*
X212006Y23565D01*
X212011Y23590D01*
X212014Y23606D01*
X212017Y23620D01*
Y23622D01*
X212503Y23582D01*
X212491Y23494D01*
X212472Y23412D01*
X212451Y23333D01*
X212426Y23259D01*
X212396Y23191D01*
X212363Y23128D01*
X212333Y23071D01*
X212300Y23019D01*
X212268Y22973D01*
X212238Y22932D01*
X212208Y22896D01*
X212183Y22866D01*
X212161Y22844D01*
X212145Y22828D01*
X212134Y22817D01*
X212131Y22814D01*
X212068Y22765D01*
X212003Y22719D01*
X211932Y22681D01*
X211864Y22648D01*
X211793Y22621D01*
X211722Y22599D01*
X211653Y22580D01*
X211588Y22563D01*
X211528Y22552D01*
X211471Y22544D01*
X211419Y22536D01*
X211375Y22533D01*
X211339Y22531D01*
X211312Y22528D01*
X211290D01*
X211176Y22533D01*
X211067Y22547D01*
X210965Y22571D01*
X210870Y22599D01*
X210780Y22634D01*
X210698Y22672D01*
X210624Y22713D01*
X210556Y22757D01*
X210496Y22801D01*
X210444Y22842D01*
X210400Y22880D01*
X210362Y22915D01*
X210335Y22945D01*
X210313Y22967D01*
X210302Y22981D01*
X210297Y22986D01*
X210245Y23057D01*
X210198Y23131D01*
X210157Y23205D01*
X210122Y23281D01*
X210095Y23355D01*
X210070Y23429D01*
X210051Y23500D01*
X210034Y23568D01*
X210021Y23631D01*
X210013Y23688D01*
X210004Y23740D01*
X210002Y23786D01*
X209999Y23822D01*
X209996Y23849D01*
Y23857D01*
Y23865D01*
Y23868D01*
Y23871D01*
X209999Y23969D01*
X210010Y24062D01*
X210029Y24152D01*
X210048Y24237D01*
X210075Y24313D01*
X210105Y24387D01*
X210136Y24452D01*
X210166Y24512D01*
X210198Y24567D01*
X210228Y24616D01*
X210258Y24657D01*
X210283Y24690D01*
X210305Y24717D01*
X210324Y24736D01*
X210335Y24750D01*
X210338Y24753D01*
X210403Y24813D01*
X210471Y24867D01*
X210542Y24911D01*
X210613Y24952D01*
X210684Y24985D01*
X210753Y25012D01*
X210821Y25037D01*
X210884Y25053D01*
X210944Y25067D01*
X211001Y25078D01*
X211050Y25086D01*
X211094Y25091D01*
X211126Y25094D01*
X211154Y25097D01*
X211176D01*
X211244Y25094D01*
X211315Y25086D01*
X211380Y25075D01*
X211446Y25058D01*
X211506Y25042D01*
X211566Y25023D01*
X211621Y25001D01*
X211672Y24979D01*
X211719Y24955D01*
X211763Y24936D01*
X211798Y24914D01*
X211828Y24897D01*
X211856Y24881D01*
X211872Y24870D01*
X211885Y24862D01*
X211888Y24859D01*
X211686Y25877D01*
X210174D01*
Y26320D01*
X212055D01*
X212421Y24379D01*
D02*
G37*
G36*
X93933Y26311D02*
X93960Y26264D01*
X94023Y26174D01*
X94091Y26090D01*
X94126Y26049D01*
X94159Y26010D01*
X94192Y25978D01*
X94222Y25945D01*
X94249Y25918D01*
X94274Y25893D01*
X94293Y25874D01*
X94307Y25860D01*
X94318Y25852D01*
X94320Y25849D01*
X94432Y25756D01*
X94550Y25672D01*
X94664Y25595D01*
X94719Y25563D01*
X94771Y25530D01*
X94817Y25502D01*
X94861Y25478D01*
X94902Y25456D01*
X94934Y25440D01*
X94962Y25426D01*
X94984Y25415D01*
X94994Y25410D01*
X95000Y25407D01*
Y24959D01*
X94918Y24992D01*
X94833Y25030D01*
X94752Y25069D01*
X94675Y25107D01*
X94642Y25126D01*
X94610Y25142D01*
X94582Y25159D01*
X94560Y25172D01*
X94541Y25180D01*
X94525Y25189D01*
X94517Y25194D01*
X94514Y25197D01*
X94416Y25257D01*
X94372Y25287D01*
X94328Y25314D01*
X94290Y25344D01*
X94255Y25369D01*
X94222Y25396D01*
X94189Y25418D01*
X94165Y25440D01*
X94140Y25459D01*
X94118Y25478D01*
X94102Y25492D01*
X94088Y25502D01*
X94080Y25511D01*
X94074Y25516D01*
X94072Y25519D01*
Y22565D01*
X93608D01*
Y26357D01*
X93908D01*
X93933Y26311D01*
D02*
G37*
G36*
X92570Y23895D02*
Y23469D01*
X90932D01*
Y22565D01*
X90468D01*
Y23469D01*
X89958D01*
Y23895D01*
X90468D01*
Y26343D01*
X90848D01*
X92570Y23895D01*
D02*
G37*
G36*
X216817Y53789D02*
X216896Y53781D01*
X216973Y53767D01*
X217044Y53751D01*
X217109Y53732D01*
X217169Y53710D01*
X217227Y53688D01*
X217279Y53664D01*
X217325Y53639D01*
X217366Y53617D01*
X217402Y53595D01*
X217431Y53576D01*
X217456Y53560D01*
X217472Y53546D01*
X217483Y53538D01*
X217486Y53535D01*
X217541Y53486D01*
X217590Y53432D01*
X217634Y53374D01*
X217672Y53314D01*
X217707Y53254D01*
X217740Y53194D01*
X217767Y53134D01*
X217792Y53077D01*
X217811Y53022D01*
X217827Y52973D01*
X217841Y52929D01*
X217852Y52888D01*
X217860Y52856D01*
X217865Y52834D01*
X217871Y52817D01*
Y52815D01*
Y52812D01*
X217407Y52730D01*
X217396Y52793D01*
X217382Y52850D01*
X217369Y52902D01*
X217350Y52951D01*
X217333Y52997D01*
X217311Y53039D01*
X217292Y53077D01*
X217273Y53112D01*
X217254Y53140D01*
X217238Y53167D01*
X217221Y53189D01*
X217208Y53205D01*
X217194Y53219D01*
X217186Y53230D01*
X217180Y53235D01*
X217178Y53238D01*
X217142Y53268D01*
X217107Y53295D01*
X217068Y53317D01*
X217030Y53336D01*
X216992Y53355D01*
X216956Y53369D01*
X216885Y53388D01*
X216853Y53396D01*
X216823Y53402D01*
X216795Y53404D01*
X216771Y53407D01*
X216754Y53410D01*
X216727D01*
X216678Y53407D01*
X216629Y53402D01*
X216585Y53393D01*
X216542Y53382D01*
X216503Y53372D01*
X216465Y53355D01*
X216432Y53342D01*
X216402Y53325D01*
X216375Y53309D01*
X216350Y53295D01*
X216331Y53279D01*
X216312Y53268D01*
X216299Y53257D01*
X216290Y53249D01*
X216285Y53243D01*
X216282Y53241D01*
X216252Y53208D01*
X216225Y53175D01*
X216200Y53140D01*
X216181Y53104D01*
X216165Y53069D01*
X216151Y53033D01*
X216129Y52968D01*
X216121Y52938D01*
X216116Y52910D01*
X216113Y52883D01*
X216110Y52864D01*
X216107Y52845D01*
Y52831D01*
Y52823D01*
Y52820D01*
X216110Y52763D01*
X216118Y52708D01*
X216129Y52656D01*
X216146Y52610D01*
X216162Y52566D01*
X216181Y52528D01*
X216203Y52492D01*
X216225Y52460D01*
X216249Y52432D01*
X216268Y52408D01*
X216290Y52389D01*
X216307Y52372D01*
X216323Y52359D01*
X216334Y52350D01*
X216342Y52345D01*
X216345Y52342D01*
X216389Y52315D01*
X216435Y52293D01*
X216481Y52271D01*
X216528Y52255D01*
X216618Y52228D01*
X216659Y52217D01*
X216700Y52209D01*
X216738Y52203D01*
X216771Y52198D01*
X216801Y52195D01*
X216828Y52192D01*
X216847Y52189D01*
X216899D01*
X216924Y52192D01*
X216935D01*
X216943Y52195D01*
X216951D01*
X217003Y51788D01*
X216932Y51805D01*
X216869Y51815D01*
X216814Y51826D01*
X216765Y51832D01*
X216727Y51835D01*
X216700Y51837D01*
X216675D01*
X216615Y51835D01*
X216561Y51829D01*
X216506Y51818D01*
X216457Y51805D01*
X216410Y51788D01*
X216367Y51772D01*
X216326Y51753D01*
X216290Y51734D01*
X216258Y51714D01*
X216228Y51695D01*
X216203Y51679D01*
X216184Y51663D01*
X216167Y51649D01*
X216154Y51638D01*
X216148Y51632D01*
X216146Y51630D01*
X216107Y51589D01*
X216077Y51548D01*
X216047Y51504D01*
X216023Y51461D01*
X216004Y51417D01*
X215987Y51373D01*
X215974Y51329D01*
X215963Y51289D01*
X215952Y51250D01*
X215946Y51215D01*
X215941Y51182D01*
X215938Y51157D01*
X215935Y51133D01*
Y51117D01*
Y51106D01*
Y51103D01*
X215938Y51043D01*
X215946Y50983D01*
X215957Y50928D01*
X215971Y50876D01*
X215987Y50824D01*
X216006Y50781D01*
X216028Y50737D01*
X216047Y50699D01*
X216069Y50663D01*
X216091Y50633D01*
X216110Y50606D01*
X216126Y50584D01*
X216140Y50565D01*
X216151Y50554D01*
X216159Y50546D01*
X216162Y50543D01*
X216206Y50502D01*
X216249Y50470D01*
X216296Y50440D01*
X216342Y50412D01*
X216389Y50390D01*
X216435Y50371D01*
X216481Y50358D01*
X216522Y50344D01*
X216563Y50336D01*
X216599Y50328D01*
X216632Y50325D01*
X216662Y50319D01*
X216684D01*
X216703Y50317D01*
X216716D01*
X216768Y50319D01*
X216814Y50325D01*
X216861Y50333D01*
X216905Y50344D01*
X216946Y50358D01*
X216984Y50371D01*
X217019Y50388D01*
X217052Y50404D01*
X217082Y50418D01*
X217107Y50434D01*
X217131Y50448D01*
X217148Y50461D01*
X217164Y50472D01*
X217175Y50481D01*
X217180Y50486D01*
X217183Y50489D01*
X217218Y50524D01*
X217249Y50562D01*
X217279Y50606D01*
X217306Y50652D01*
X217352Y50745D01*
X217390Y50841D01*
X217404Y50884D01*
X217418Y50925D01*
X217429Y50961D01*
X217437Y50994D01*
X217445Y51021D01*
X217451Y51043D01*
X217453Y51054D01*
Y51059D01*
X217917Y50996D01*
X217906Y50909D01*
X217890Y50827D01*
X217865Y50751D01*
X217841Y50677D01*
X217811Y50609D01*
X217781Y50546D01*
X217748Y50486D01*
X217715Y50434D01*
X217683Y50388D01*
X217653Y50347D01*
X217623Y50311D01*
X217598Y50281D01*
X217576Y50257D01*
X217560Y50240D01*
X217549Y50229D01*
X217546Y50227D01*
X217483Y50175D01*
X217415Y50128D01*
X217347Y50090D01*
X217279Y50057D01*
X217208Y50027D01*
X217139Y50003D01*
X217071Y49984D01*
X217008Y49970D01*
X216948Y49956D01*
X216894Y49948D01*
X216845Y49940D01*
X216801Y49937D01*
X216768Y49935D01*
X216741Y49932D01*
X216719D01*
X216618Y49935D01*
X216522Y49945D01*
X216430Y49964D01*
X216345Y49986D01*
X216263Y50011D01*
X216189Y50041D01*
X216118Y50071D01*
X216056Y50104D01*
X216001Y50137D01*
X215949Y50166D01*
X215908Y50197D01*
X215873Y50221D01*
X215843Y50243D01*
X215824Y50262D01*
X215813Y50273D01*
X215807Y50276D01*
X215744Y50341D01*
X215687Y50410D01*
X215638Y50481D01*
X215597Y50551D01*
X215561Y50622D01*
X215531Y50693D01*
X215510Y50759D01*
X215491Y50824D01*
X215474Y50884D01*
X215463Y50939D01*
X215455Y50988D01*
X215450Y51032D01*
X215447Y51065D01*
X215444Y51092D01*
Y51108D01*
Y51114D01*
X215447Y51182D01*
X215452Y51245D01*
X215460Y51305D01*
X215474Y51362D01*
X215488Y51417D01*
X215501Y51466D01*
X215521Y51512D01*
X215537Y51556D01*
X215553Y51594D01*
X215570Y51627D01*
X215586Y51654D01*
X215600Y51679D01*
X215613Y51698D01*
X215621Y51712D01*
X215627Y51720D01*
X215630Y51723D01*
X215665Y51766D01*
X215706Y51807D01*
X215747Y51843D01*
X215788Y51876D01*
X215832Y51906D01*
X215875Y51930D01*
X215919Y51955D01*
X215960Y51974D01*
X215998Y51993D01*
X216034Y52007D01*
X216067Y52020D01*
X216096Y52028D01*
X216118Y52037D01*
X216138Y52042D01*
X216148Y52045D01*
X216151D01*
X216105Y52067D01*
X216061Y52091D01*
X216020Y52118D01*
X215982Y52143D01*
X215946Y52170D01*
X215916Y52198D01*
X215886Y52222D01*
X215862Y52247D01*
X215837Y52271D01*
X215818Y52293D01*
X215802Y52312D01*
X215788Y52329D01*
X215777Y52342D01*
X215769Y52353D01*
X215766Y52359D01*
X215763Y52362D01*
X215739Y52400D01*
X215720Y52438D01*
X215701Y52479D01*
X215687Y52517D01*
X215662Y52591D01*
X215646Y52662D01*
X215641Y52692D01*
X215638Y52722D01*
X215632Y52746D01*
Y52768D01*
X215630Y52785D01*
Y52798D01*
Y52806D01*
Y52809D01*
X215632Y52858D01*
X215635Y52905D01*
X215651Y52995D01*
X215673Y53077D01*
X215687Y53112D01*
X215698Y53148D01*
X215712Y53180D01*
X215725Y53208D01*
X215736Y53235D01*
X215747Y53254D01*
X215755Y53273D01*
X215763Y53284D01*
X215766Y53292D01*
X215769Y53295D01*
X215796Y53336D01*
X215826Y53377D01*
X215889Y53448D01*
X215955Y53511D01*
X216020Y53563D01*
X216050Y53584D01*
X216077Y53604D01*
X216102Y53620D01*
X216124Y53634D01*
X216143Y53645D01*
X216157Y53653D01*
X216165Y53655D01*
X216167Y53658D01*
X216217Y53683D01*
X216266Y53702D01*
X216315Y53721D01*
X216367Y53735D01*
X216462Y53759D01*
X216506Y53767D01*
X216550Y53776D01*
X216588Y53781D01*
X216623Y53784D01*
X216656Y53789D01*
X216684D01*
X216705Y53792D01*
X216735D01*
X216817Y53789D01*
D02*
G37*
G36*
X219433Y53746D02*
X219460Y53699D01*
X219523Y53609D01*
X219591Y53524D01*
X219626Y53483D01*
X219659Y53445D01*
X219692Y53412D01*
X219722Y53380D01*
X219749Y53352D01*
X219774Y53328D01*
X219793Y53309D01*
X219807Y53295D01*
X219817Y53287D01*
X219820Y53284D01*
X219932Y53191D01*
X220050Y53107D01*
X220164Y53030D01*
X220219Y52997D01*
X220271Y52965D01*
X220317Y52938D01*
X220361Y52913D01*
X220402Y52891D01*
X220434Y52875D01*
X220462Y52861D01*
X220484Y52850D01*
X220495Y52845D01*
X220500Y52842D01*
Y52394D01*
X220418Y52427D01*
X220334Y52465D01*
X220252Y52503D01*
X220175Y52542D01*
X220142Y52561D01*
X220110Y52577D01*
X220082Y52593D01*
X220060Y52607D01*
X220041Y52615D01*
X220025Y52623D01*
X220017Y52629D01*
X220014Y52632D01*
X219916Y52692D01*
X219872Y52722D01*
X219828Y52749D01*
X219790Y52779D01*
X219755Y52804D01*
X219722Y52831D01*
X219689Y52853D01*
X219665Y52875D01*
X219640Y52894D01*
X219618Y52913D01*
X219602Y52927D01*
X219588Y52938D01*
X219580Y52946D01*
X219574Y52951D01*
X219572Y52954D01*
Y50000D01*
X219108D01*
Y53792D01*
X219408D01*
X219433Y53746D01*
D02*
G37*
G36*
X86933D02*
X86960Y53699D01*
X87023Y53609D01*
X87091Y53524D01*
X87126Y53483D01*
X87159Y53445D01*
X87192Y53412D01*
X87222Y53380D01*
X87249Y53352D01*
X87274Y53328D01*
X87293Y53309D01*
X87307Y53295D01*
X87318Y53287D01*
X87320Y53284D01*
X87432Y53191D01*
X87550Y53107D01*
X87664Y53030D01*
X87719Y52997D01*
X87771Y52965D01*
X87817Y52938D01*
X87861Y52913D01*
X87902Y52891D01*
X87934Y52875D01*
X87962Y52861D01*
X87984Y52850D01*
X87994Y52845D01*
X88000Y52842D01*
Y52394D01*
X87918Y52427D01*
X87833Y52465D01*
X87752Y52503D01*
X87675Y52542D01*
X87642Y52561D01*
X87610Y52577D01*
X87582Y52593D01*
X87560Y52607D01*
X87541Y52615D01*
X87525Y52623D01*
X87517Y52629D01*
X87514Y52632D01*
X87416Y52692D01*
X87372Y52722D01*
X87328Y52749D01*
X87290Y52779D01*
X87255Y52804D01*
X87222Y52831D01*
X87189Y52853D01*
X87165Y52875D01*
X87140Y52894D01*
X87118Y52913D01*
X87102Y52927D01*
X87088Y52938D01*
X87080Y52946D01*
X87075Y52951D01*
X87072Y52954D01*
Y50000D01*
X86608D01*
Y53792D01*
X86908D01*
X86933Y53746D01*
D02*
G37*
G36*
X254695Y52538D02*
X254714Y52507D01*
X254756Y52446D01*
X254803Y52388D01*
X254827Y52361D01*
X254849Y52335D01*
X254871Y52312D01*
X254891Y52290D01*
X254910Y52272D01*
X254927Y52255D01*
X254940Y52242D01*
X254949Y52233D01*
X254956Y52227D01*
X254958Y52226D01*
X255034Y52163D01*
X255114Y52105D01*
X255191Y52053D01*
X255228Y52031D01*
X255263Y52009D01*
X255295Y51991D01*
X255324Y51974D01*
X255352Y51959D01*
X255374Y51948D01*
X255393Y51939D01*
X255408Y51931D01*
X255415Y51928D01*
X255419Y51926D01*
Y51622D01*
X255363Y51645D01*
X255306Y51671D01*
X255250Y51696D01*
X255199Y51722D01*
X255176Y51735D01*
X255154Y51746D01*
X255136Y51758D01*
X255121Y51767D01*
X255108Y51772D01*
X255097Y51778D01*
X255091Y51782D01*
X255089Y51783D01*
X255023Y51824D01*
X254993Y51844D01*
X254964Y51863D01*
X254938Y51883D01*
X254914Y51900D01*
X254891Y51918D01*
X254869Y51933D01*
X254853Y51948D01*
X254836Y51961D01*
X254821Y51974D01*
X254810Y51983D01*
X254801Y51991D01*
X254795Y51996D01*
X254792Y52000D01*
X254790Y52002D01*
Y50000D01*
X254475D01*
Y52570D01*
X254679D01*
X254695Y52538D01*
D02*
G37*
G36*
X256423Y50796D02*
Y50755D01*
X256425Y50718D01*
X256427Y50684D01*
X256429Y50653D01*
X256431Y50624D01*
X256434Y50598D01*
X256438Y50573D01*
X256440Y50553D01*
X256444Y50535D01*
X256447Y50518D01*
X256451Y50505D01*
X256453Y50494D01*
X256455Y50486D01*
X256457Y50481D01*
X256458Y50477D01*
Y50476D01*
X256473Y50440D01*
X256494Y50409D01*
X256514Y50381D01*
X256536Y50359D01*
X256555Y50340D01*
X256571Y50327D01*
X256582Y50320D01*
X256584Y50316D01*
X256586D01*
X256621Y50298D01*
X256660Y50283D01*
X256697Y50274D01*
X256730Y50266D01*
X256760Y50263D01*
X256773Y50261D01*
X256784D01*
X256793Y50259D01*
X256806D01*
X256838Y50261D01*
X256867Y50265D01*
X256895Y50268D01*
X256923Y50276D01*
X256947Y50283D01*
X256969Y50292D01*
X256989Y50303D01*
X257008Y50313D01*
X257025Y50322D01*
X257037Y50333D01*
X257050Y50342D01*
X257060Y50350D01*
X257067Y50357D01*
X257074Y50363D01*
X257076Y50364D01*
X257078Y50366D01*
X257095Y50388D01*
X257112Y50414D01*
X257124Y50444D01*
X257137Y50474D01*
X257156Y50540D01*
X257169Y50607D01*
X257174Y50640D01*
X257178Y50670D01*
X257182Y50696D01*
X257184Y50720D01*
X257186Y50740D01*
X257187Y50755D01*
Y50764D01*
Y50768D01*
X257493Y50725D01*
Y50657D01*
X257487Y50592D01*
X257480Y50531D01*
X257469Y50476D01*
X257456Y50424D01*
X257443Y50375D01*
X257426Y50333D01*
X257409Y50294D01*
X257395Y50261D01*
X257378Y50231D01*
X257363Y50207D01*
X257350Y50187D01*
X257339Y50170D01*
X257330Y50159D01*
X257324Y50152D01*
X257322Y50150D01*
X257287Y50117D01*
X257248Y50087D01*
X257208Y50061D01*
X257165Y50039D01*
X257123Y50020D01*
X257080Y50004D01*
X257037Y49993D01*
X256997Y49981D01*
X256958Y49974D01*
X256921Y49968D01*
X256888Y49963D01*
X256860Y49961D01*
X256836Y49959D01*
X256819Y49957D01*
X256804D01*
X256762Y49959D01*
X256723Y49961D01*
X256684Y49967D01*
X256647Y49972D01*
X256614Y49980D01*
X256580Y49987D01*
X256551Y49995D01*
X256523Y50004D01*
X256497Y50013D01*
X256475Y50020D01*
X256457Y50028D01*
X256440Y50035D01*
X256427Y50041D01*
X256418Y50046D01*
X256412Y50048D01*
X256410Y50050D01*
X256379Y50068D01*
X256351Y50089D01*
X256325Y50109D01*
X256301Y50131D01*
X256279Y50154D01*
X256259Y50176D01*
X256240Y50198D01*
X256224Y50218D01*
X256211Y50239D01*
X256198Y50257D01*
X256187Y50274D01*
X256179Y50289D01*
X256172Y50301D01*
X256168Y50311D01*
X256164Y50316D01*
Y50318D01*
X256150Y50353D01*
X256138Y50390D01*
X256127Y50429D01*
X256118Y50470D01*
X256103Y50553D01*
X256100Y50594D01*
X256094Y50633D01*
X256092Y50670D01*
X256088Y50705D01*
X256087Y50736D01*
Y50762D01*
X256085Y50784D01*
Y50801D01*
Y50812D01*
Y50816D01*
Y52560D01*
X256423D01*
Y50796D01*
D02*
G37*
%LPC*%
G36*
X90932Y25598D02*
Y23895D01*
X92117D01*
X90932Y25598D01*
D02*
G37*
%LPD*%
D21*
X228425Y-24024D02*
G03*
X231161Y-21287I0J2736D01*
G01*
X74488Y-3158D02*
G03*
X71752Y-421I-2736J0D01*
G01*
X233917D02*
G03*
X231181Y-3158I0J-2736D01*
G01*
X74508Y-21287D02*
G03*
X77244Y-24024I2736J0D01*
G01*
X257362Y-402D02*
Y48811D01*
X48307Y-402D02*
Y48811D01*
X257362D01*
X223701Y11409D02*
Y48811D01*
X48307Y-402D02*
X257362D01*
X81968Y11409D02*
Y48811D01*
X77244Y-24024D02*
X228425D01*
X231181Y-21268D02*
Y-3158D01*
X74488Y-21268D02*
Y-3158D01*
X48307Y11409D02*
X257362D01*
M02*
