G04*
G04 #@! TF.GenerationSoftware,Altium Limited,Altium Designer,18.1.9 (240)*
G04*
G04 Layer_Color=65535*
%FSLAX25Y25*%
%MOIN*%
G70*
G01*
G75*
%ADD10C,0.01000*%
G36*
X264833Y81727D02*
X263808D01*
X263671Y81036D01*
X263675Y81039D01*
X263683Y81043D01*
X263694Y81050D01*
X263712Y81061D01*
X263734Y81072D01*
X263760Y81087D01*
X263819Y81117D01*
X263893Y81147D01*
X263975Y81172D01*
X264064Y81191D01*
X264108Y81198D01*
X264189D01*
X264212Y81195D01*
X264241Y81191D01*
X264275Y81187D01*
X264312Y81180D01*
X264352Y81169D01*
X264441Y81143D01*
X264489Y81124D01*
X264537Y81098D01*
X264585Y81072D01*
X264633Y81043D01*
X264678Y81006D01*
X264722Y80965D01*
X264726Y80962D01*
X264733Y80954D01*
X264744Y80943D01*
X264759Y80924D01*
X264778Y80899D01*
X264796Y80873D01*
X264818Y80839D01*
X264841Y80802D01*
X264859Y80762D01*
X264881Y80717D01*
X264900Y80665D01*
X264918Y80614D01*
X264933Y80558D01*
X264944Y80495D01*
X264952Y80432D01*
X264955Y80366D01*
Y80362D01*
Y80351D01*
Y80332D01*
X264952Y80307D01*
X264948Y80277D01*
X264944Y80244D01*
X264937Y80203D01*
X264929Y80162D01*
X264907Y80066D01*
X264870Y79966D01*
X264848Y79914D01*
X264818Y79866D01*
X264789Y79814D01*
X264752Y79766D01*
X264748Y79763D01*
X264741Y79752D01*
X264726Y79737D01*
X264707Y79718D01*
X264682Y79696D01*
X264652Y79667D01*
X264615Y79641D01*
X264574Y79611D01*
X264530Y79581D01*
X264478Y79555D01*
X264422Y79530D01*
X264363Y79504D01*
X264300Y79485D01*
X264230Y79470D01*
X264156Y79459D01*
X264078Y79456D01*
X264045D01*
X264019Y79459D01*
X263990Y79463D01*
X263956Y79467D01*
X263916Y79470D01*
X263875Y79482D01*
X263782Y79504D01*
X263690Y79537D01*
X263642Y79559D01*
X263594Y79585D01*
X263549Y79615D01*
X263505Y79648D01*
X263501Y79652D01*
X263494Y79655D01*
X263486Y79670D01*
X263472Y79685D01*
X263453Y79703D01*
X263435Y79726D01*
X263412Y79755D01*
X263394Y79789D01*
X263372Y79822D01*
X263350Y79863D01*
X263309Y79951D01*
X263276Y80055D01*
X263264Y80111D01*
X263257Y80170D01*
X263586Y80196D01*
Y80192D01*
Y80185D01*
X263590Y80173D01*
X263594Y80155D01*
X263605Y80114D01*
X263620Y80059D01*
X263642Y80003D01*
X263671Y79940D01*
X263708Y79885D01*
X263753Y79833D01*
X263760Y79829D01*
X263775Y79814D01*
X263805Y79796D01*
X263845Y79774D01*
X263890Y79752D01*
X263945Y79733D01*
X264008Y79718D01*
X264078Y79715D01*
X264101D01*
X264115Y79718D01*
X264160Y79722D01*
X264212Y79737D01*
X264275Y79755D01*
X264337Y79785D01*
X264404Y79829D01*
X264434Y79855D01*
X264463Y79885D01*
X264467Y79888D01*
X264471Y79892D01*
X264478Y79903D01*
X264489Y79914D01*
X264515Y79955D01*
X264545Y80007D01*
X264570Y80070D01*
X264596Y80147D01*
X264615Y80240D01*
X264622Y80288D01*
Y80340D01*
Y80344D01*
Y80351D01*
Y80366D01*
X264619Y80384D01*
Y80406D01*
X264615Y80432D01*
X264604Y80492D01*
X264585Y80562D01*
X264559Y80632D01*
X264522Y80699D01*
X264471Y80762D01*
Y80765D01*
X264463Y80769D01*
X264445Y80788D01*
X264411Y80813D01*
X264367Y80843D01*
X264308Y80869D01*
X264241Y80895D01*
X264163Y80913D01*
X264119Y80921D01*
X264049D01*
X264019Y80917D01*
X263982Y80913D01*
X263938Y80902D01*
X263893Y80891D01*
X263845Y80873D01*
X263797Y80850D01*
X263793Y80847D01*
X263779Y80839D01*
X263756Y80821D01*
X263727Y80802D01*
X263697Y80777D01*
X263668Y80743D01*
X263634Y80710D01*
X263609Y80669D01*
X263313Y80710D01*
X263560Y82027D01*
X264833D01*
Y81727D01*
D02*
G37*
G36*
X262106Y82057D02*
X262169Y82053D01*
X262236Y82049D01*
X262299Y82042D01*
X262354Y82034D01*
X262362D01*
X262387Y82027D01*
X262421Y82020D01*
X262465Y82009D01*
X262513Y81990D01*
X262565Y81968D01*
X262621Y81942D01*
X262669Y81912D01*
X262676Y81909D01*
X262691Y81898D01*
X262713Y81875D01*
X262743Y81849D01*
X262776Y81816D01*
X262809Y81772D01*
X262846Y81724D01*
X262876Y81668D01*
X262880Y81661D01*
X262887Y81642D01*
X262902Y81609D01*
X262917Y81565D01*
X262928Y81513D01*
X262943Y81454D01*
X262950Y81387D01*
X262954Y81317D01*
Y81313D01*
Y81302D01*
Y81287D01*
X262950Y81261D01*
X262946Y81235D01*
X262943Y81202D01*
X262935Y81165D01*
X262928Y81124D01*
X262902Y81039D01*
X262887Y80995D01*
X262865Y80947D01*
X262839Y80899D01*
X262813Y80854D01*
X262780Y80810D01*
X262743Y80765D01*
X262739Y80762D01*
X262732Y80754D01*
X262720Y80743D01*
X262702Y80732D01*
X262680Y80714D01*
X262650Y80695D01*
X262613Y80673D01*
X262573Y80654D01*
X262524Y80632D01*
X262469Y80610D01*
X262410Y80591D01*
X262339Y80577D01*
X262265Y80562D01*
X262184Y80551D01*
X262091Y80543D01*
X261995Y80540D01*
X261340D01*
Y79500D01*
X261000D01*
Y82060D01*
X262051D01*
X262106Y82057D01*
D02*
G37*
G36*
X53941Y56000D02*
X53627D01*
Y58002D01*
X53623Y57998D01*
X53604Y57983D01*
X53582Y57961D01*
X53545Y57935D01*
X53504Y57902D01*
X53453Y57865D01*
X53393Y57824D01*
X53327Y57783D01*
X53323D01*
X53319Y57780D01*
X53297Y57765D01*
X53260Y57746D01*
X53216Y57724D01*
X53164Y57698D01*
X53109Y57672D01*
X53053Y57647D01*
X52997Y57624D01*
Y57928D01*
X53001D01*
X53009Y57935D01*
X53023Y57939D01*
X53042Y57950D01*
X53064Y57961D01*
X53090Y57976D01*
X53153Y58013D01*
X53227Y58053D01*
X53301Y58105D01*
X53379Y58165D01*
X53456Y58227D01*
X53460Y58231D01*
X53464Y58235D01*
X53475Y58246D01*
X53490Y58257D01*
X53523Y58294D01*
X53567Y58338D01*
X53612Y58390D01*
X53660Y58449D01*
X53701Y58509D01*
X53737Y58571D01*
X53941D01*
Y56000D01*
D02*
G37*
G36*
X51606Y58557D02*
X51669Y58553D01*
X51736Y58549D01*
X51799Y58542D01*
X51854Y58534D01*
X51862D01*
X51888Y58527D01*
X51921Y58520D01*
X51965Y58509D01*
X52013Y58490D01*
X52065Y58468D01*
X52121Y58442D01*
X52169Y58412D01*
X52176Y58409D01*
X52191Y58398D01*
X52213Y58375D01*
X52243Y58350D01*
X52276Y58316D01*
X52309Y58272D01*
X52346Y58224D01*
X52376Y58168D01*
X52380Y58161D01*
X52387Y58142D01*
X52402Y58109D01*
X52417Y58065D01*
X52428Y58013D01*
X52443Y57954D01*
X52450Y57887D01*
X52454Y57817D01*
Y57813D01*
Y57802D01*
Y57787D01*
X52450Y57761D01*
X52446Y57735D01*
X52443Y57702D01*
X52435Y57665D01*
X52428Y57624D01*
X52402Y57539D01*
X52387Y57495D01*
X52365Y57447D01*
X52339Y57399D01*
X52313Y57354D01*
X52280Y57310D01*
X52243Y57265D01*
X52239Y57262D01*
X52232Y57254D01*
X52220Y57243D01*
X52202Y57232D01*
X52180Y57214D01*
X52150Y57195D01*
X52113Y57173D01*
X52073Y57154D01*
X52024Y57132D01*
X51969Y57110D01*
X51910Y57091D01*
X51839Y57077D01*
X51765Y57062D01*
X51684Y57051D01*
X51591Y57043D01*
X51495Y57040D01*
X50840D01*
Y56000D01*
X50500D01*
Y58560D01*
X51551D01*
X51606Y58557D01*
D02*
G37*
G36*
X212667Y58568D02*
X212697Y58564D01*
X212734Y58560D01*
X212774Y58553D01*
X212815Y58546D01*
X212911Y58520D01*
X213008Y58483D01*
X213056Y58460D01*
X213104Y58435D01*
X213148Y58401D01*
X213189Y58364D01*
X213193Y58361D01*
X213200Y58357D01*
X213207Y58342D01*
X213222Y58327D01*
X213241Y58309D01*
X213259Y58283D01*
X213278Y58257D01*
X213300Y58224D01*
X213337Y58153D01*
X213374Y58065D01*
X213389Y58020D01*
X213396Y57968D01*
X213404Y57917D01*
X213407Y57861D01*
Y57854D01*
Y57835D01*
X213404Y57806D01*
X213400Y57765D01*
X213392Y57721D01*
X213378Y57669D01*
X213363Y57613D01*
X213341Y57558D01*
X213337Y57550D01*
X213330Y57532D01*
X213315Y57502D01*
X213293Y57462D01*
X213263Y57417D01*
X213226Y57362D01*
X213181Y57306D01*
X213130Y57243D01*
X213122Y57236D01*
X213104Y57214D01*
X213085Y57195D01*
X213067Y57177D01*
X213045Y57154D01*
X213015Y57125D01*
X212985Y57095D01*
X212948Y57062D01*
X212911Y57025D01*
X212867Y56984D01*
X212819Y56944D01*
X212767Y56895D01*
X212708Y56847D01*
X212649Y56796D01*
X212645Y56792D01*
X212638Y56784D01*
X212623Y56773D01*
X212604Y56758D01*
X212582Y56736D01*
X212556Y56714D01*
X212497Y56666D01*
X212434Y56611D01*
X212375Y56555D01*
X212323Y56507D01*
X212301Y56488D01*
X212282Y56470D01*
X212279Y56466D01*
X212268Y56455D01*
X212253Y56440D01*
X212234Y56418D01*
X212216Y56392D01*
X212194Y56366D01*
X212149Y56303D01*
X213411D01*
Y56000D01*
X211713D01*
Y56004D01*
Y56019D01*
Y56041D01*
X211716Y56070D01*
X211720Y56104D01*
X211727Y56141D01*
X211735Y56178D01*
X211750Y56218D01*
Y56222D01*
X211753Y56226D01*
X211761Y56248D01*
X211775Y56281D01*
X211798Y56326D01*
X211827Y56377D01*
X211864Y56437D01*
X211905Y56496D01*
X211957Y56559D01*
Y56562D01*
X211964Y56566D01*
X211983Y56588D01*
X212016Y56622D01*
X212064Y56670D01*
X212120Y56725D01*
X212190Y56792D01*
X212275Y56866D01*
X212368Y56944D01*
X212371Y56947D01*
X212386Y56958D01*
X212408Y56977D01*
X212434Y56999D01*
X212467Y57029D01*
X212508Y57062D01*
X212549Y57099D01*
X212597Y57140D01*
X212689Y57228D01*
X212782Y57317D01*
X212826Y57362D01*
X212867Y57406D01*
X212904Y57447D01*
X212934Y57487D01*
Y57491D01*
X212941Y57495D01*
X212948Y57506D01*
X212956Y57521D01*
X212982Y57561D01*
X213011Y57609D01*
X213037Y57669D01*
X213063Y57732D01*
X213078Y57802D01*
X213085Y57868D01*
Y57872D01*
Y57876D01*
X213082Y57898D01*
X213078Y57935D01*
X213067Y57976D01*
X213052Y58028D01*
X213026Y58079D01*
X212993Y58131D01*
X212948Y58183D01*
X212941Y58190D01*
X212923Y58205D01*
X212897Y58224D01*
X212856Y58250D01*
X212804Y58272D01*
X212745Y58294D01*
X212675Y58309D01*
X212597Y58312D01*
X212575D01*
X212560Y58309D01*
X212515Y58305D01*
X212464Y58294D01*
X212408Y58279D01*
X212345Y58253D01*
X212286Y58220D01*
X212231Y58176D01*
X212223Y58168D01*
X212208Y58150D01*
X212186Y58120D01*
X212164Y58076D01*
X212138Y58024D01*
X212116Y57957D01*
X212101Y57883D01*
X212094Y57798D01*
X211772Y57832D01*
Y57835D01*
X211775Y57846D01*
Y57865D01*
X211779Y57891D01*
X211787Y57920D01*
X211794Y57954D01*
X211805Y57994D01*
X211816Y58035D01*
X211846Y58124D01*
X211890Y58213D01*
X211916Y58257D01*
X211949Y58301D01*
X211983Y58342D01*
X212020Y58379D01*
X212023Y58383D01*
X212031Y58386D01*
X212042Y58398D01*
X212060Y58409D01*
X212083Y58424D01*
X212108Y58438D01*
X212138Y58457D01*
X212175Y58475D01*
X212216Y58494D01*
X212260Y58512D01*
X212308Y58527D01*
X212360Y58542D01*
X212416Y58553D01*
X212475Y58564D01*
X212538Y58568D01*
X212604Y58571D01*
X212641D01*
X212667Y58568D01*
D02*
G37*
G36*
X210606Y58557D02*
X210669Y58553D01*
X210736Y58549D01*
X210799Y58542D01*
X210854Y58534D01*
X210862D01*
X210888Y58527D01*
X210921Y58520D01*
X210965Y58509D01*
X211013Y58490D01*
X211065Y58468D01*
X211121Y58442D01*
X211169Y58412D01*
X211176Y58409D01*
X211191Y58398D01*
X211213Y58375D01*
X211243Y58350D01*
X211276Y58316D01*
X211309Y58272D01*
X211346Y58224D01*
X211376Y58168D01*
X211380Y58161D01*
X211387Y58142D01*
X211402Y58109D01*
X211417Y58065D01*
X211428Y58013D01*
X211442Y57954D01*
X211450Y57887D01*
X211454Y57817D01*
Y57813D01*
Y57802D01*
Y57787D01*
X211450Y57761D01*
X211446Y57735D01*
X211442Y57702D01*
X211435Y57665D01*
X211428Y57624D01*
X211402Y57539D01*
X211387Y57495D01*
X211365Y57447D01*
X211339Y57399D01*
X211313Y57354D01*
X211280Y57310D01*
X211243Y57265D01*
X211239Y57262D01*
X211232Y57254D01*
X211221Y57243D01*
X211202Y57232D01*
X211180Y57214D01*
X211150Y57195D01*
X211113Y57173D01*
X211072Y57154D01*
X211024Y57132D01*
X210969Y57110D01*
X210910Y57091D01*
X210839Y57077D01*
X210765Y57062D01*
X210684Y57051D01*
X210592Y57043D01*
X210495Y57040D01*
X209840D01*
Y56000D01*
X209500D01*
Y58560D01*
X210551D01*
X210606Y58557D01*
D02*
G37*
G36*
X106578Y56903D02*
X106926D01*
Y56614D01*
X106578D01*
Y56000D01*
X106263D01*
Y56614D01*
X105150D01*
Y56903D01*
X106323Y58560D01*
X106578D01*
Y56903D01*
D02*
G37*
G36*
X104106Y58557D02*
X104169Y58553D01*
X104236Y58549D01*
X104299Y58542D01*
X104354Y58534D01*
X104362D01*
X104387Y58527D01*
X104421Y58520D01*
X104465Y58509D01*
X104513Y58490D01*
X104565Y58468D01*
X104621Y58442D01*
X104669Y58412D01*
X104676Y58409D01*
X104691Y58398D01*
X104713Y58375D01*
X104743Y58350D01*
X104776Y58316D01*
X104809Y58272D01*
X104846Y58224D01*
X104876Y58168D01*
X104880Y58161D01*
X104887Y58142D01*
X104902Y58109D01*
X104917Y58065D01*
X104928Y58013D01*
X104943Y57954D01*
X104950Y57887D01*
X104954Y57817D01*
Y57813D01*
Y57802D01*
Y57787D01*
X104950Y57761D01*
X104946Y57735D01*
X104943Y57702D01*
X104935Y57665D01*
X104928Y57624D01*
X104902Y57539D01*
X104887Y57495D01*
X104865Y57447D01*
X104839Y57399D01*
X104813Y57354D01*
X104780Y57310D01*
X104743Y57265D01*
X104739Y57262D01*
X104732Y57254D01*
X104720Y57243D01*
X104702Y57232D01*
X104680Y57214D01*
X104650Y57195D01*
X104613Y57173D01*
X104572Y57154D01*
X104524Y57132D01*
X104469Y57110D01*
X104410Y57091D01*
X104339Y57077D01*
X104265Y57062D01*
X104184Y57051D01*
X104092Y57043D01*
X103995Y57040D01*
X103340D01*
Y56000D01*
X103000D01*
Y58560D01*
X104051D01*
X104106Y58557D01*
D02*
G37*
G36*
X159638Y58726D02*
X159686Y58718D01*
X159745Y58707D01*
X159811Y58689D01*
X159878Y58667D01*
X159945Y58637D01*
X159948D01*
X159952Y58633D01*
X159974Y58622D01*
X160008Y58600D01*
X160045Y58574D01*
X160089Y58537D01*
X160133Y58496D01*
X160178Y58448D01*
X160215Y58393D01*
X160219Y58385D01*
X160230Y58367D01*
X160244Y58334D01*
X160263Y58293D01*
X160281Y58245D01*
X160296Y58189D01*
X160307Y58126D01*
X160311Y58064D01*
Y58056D01*
Y58034D01*
X160307Y58004D01*
X160300Y57964D01*
X160289Y57916D01*
X160270Y57864D01*
X160248Y57812D01*
X160219Y57760D01*
X160215Y57753D01*
X160204Y57738D01*
X160181Y57712D01*
X160152Y57682D01*
X160115Y57649D01*
X160071Y57612D01*
X160019Y57579D01*
X159956Y57546D01*
X159959D01*
X159967Y57542D01*
X159978Y57538D01*
X159993Y57534D01*
X160034Y57520D01*
X160085Y57497D01*
X160144Y57468D01*
X160204Y57431D01*
X160259Y57383D01*
X160311Y57327D01*
X160315Y57320D01*
X160329Y57298D01*
X160352Y57261D01*
X160374Y57213D01*
X160396Y57153D01*
X160418Y57083D01*
X160433Y57002D01*
X160437Y56913D01*
Y56909D01*
Y56898D01*
Y56880D01*
X160433Y56857D01*
X160429Y56828D01*
X160422Y56794D01*
X160415Y56757D01*
X160407Y56717D01*
X160378Y56628D01*
X160355Y56580D01*
X160333Y56535D01*
X160304Y56487D01*
X160270Y56439D01*
X160233Y56391D01*
X160189Y56347D01*
X160185Y56343D01*
X160178Y56336D01*
X160163Y56324D01*
X160144Y56310D01*
X160122Y56291D01*
X160093Y56273D01*
X160059Y56251D01*
X160019Y56232D01*
X159978Y56210D01*
X159930Y56188D01*
X159882Y56169D01*
X159826Y56151D01*
X159767Y56136D01*
X159704Y56125D01*
X159641Y56117D01*
X159571Y56114D01*
X159538D01*
X159516Y56117D01*
X159486Y56121D01*
X159453Y56125D01*
X159416Y56132D01*
X159375Y56139D01*
X159286Y56162D01*
X159194Y56199D01*
X159145Y56221D01*
X159101Y56247D01*
X159057Y56280D01*
X159012Y56313D01*
X159009Y56317D01*
X159001Y56324D01*
X158990Y56336D01*
X158979Y56350D01*
X158960Y56369D01*
X158942Y56395D01*
X158920Y56421D01*
X158898Y56454D01*
X158875Y56491D01*
X158853Y56528D01*
X158812Y56617D01*
X158779Y56720D01*
X158768Y56776D01*
X158761Y56835D01*
X159075Y56876D01*
Y56872D01*
X159079Y56865D01*
X159083Y56850D01*
X159086Y56831D01*
X159090Y56809D01*
X159097Y56783D01*
X159116Y56728D01*
X159142Y56661D01*
X159175Y56598D01*
X159212Y56539D01*
X159256Y56487D01*
X159264Y56484D01*
X159279Y56469D01*
X159308Y56450D01*
X159345Y56432D01*
X159390Y56410D01*
X159445Y56391D01*
X159508Y56376D01*
X159575Y56373D01*
X159597D01*
X159612Y56376D01*
X159652Y56380D01*
X159704Y56391D01*
X159763Y56410D01*
X159826Y56436D01*
X159889Y56472D01*
X159948Y56524D01*
X159956Y56532D01*
X159974Y56554D01*
X159996Y56587D01*
X160026Y56632D01*
X160056Y56687D01*
X160078Y56750D01*
X160096Y56824D01*
X160104Y56905D01*
Y56909D01*
Y56916D01*
Y56928D01*
X160100Y56942D01*
X160096Y56983D01*
X160085Y57031D01*
X160071Y57090D01*
X160045Y57150D01*
X160008Y57209D01*
X159959Y57264D01*
X159952Y57272D01*
X159934Y57287D01*
X159904Y57309D01*
X159863Y57335D01*
X159811Y57361D01*
X159749Y57383D01*
X159678Y57398D01*
X159601Y57405D01*
X159567D01*
X159541Y57401D01*
X159508Y57398D01*
X159471Y57390D01*
X159427Y57383D01*
X159379Y57372D01*
X159416Y57649D01*
X159434D01*
X159449Y57645D01*
X159497D01*
X159538Y57653D01*
X159586Y57660D01*
X159641Y57671D01*
X159704Y57690D01*
X159763Y57716D01*
X159826Y57749D01*
X159830D01*
X159834Y57753D01*
X159852Y57767D01*
X159878Y57793D01*
X159908Y57827D01*
X159937Y57875D01*
X159963Y57930D01*
X159982Y57993D01*
X159989Y58030D01*
Y58071D01*
Y58075D01*
Y58078D01*
Y58100D01*
X159982Y58130D01*
X159974Y58171D01*
X159959Y58215D01*
X159941Y58263D01*
X159911Y58311D01*
X159871Y58356D01*
X159867Y58359D01*
X159848Y58374D01*
X159823Y58393D01*
X159789Y58415D01*
X159745Y58434D01*
X159693Y58452D01*
X159634Y58467D01*
X159567Y58470D01*
X159538D01*
X159504Y58463D01*
X159460Y58456D01*
X159412Y58441D01*
X159364Y58422D01*
X159312Y58393D01*
X159264Y58356D01*
X159260Y58352D01*
X159245Y58334D01*
X159223Y58308D01*
X159197Y58271D01*
X159171Y58223D01*
X159145Y58163D01*
X159123Y58093D01*
X159108Y58012D01*
X158794Y58067D01*
Y58071D01*
X158798Y58082D01*
X158801Y58097D01*
X158805Y58119D01*
X158812Y58145D01*
X158824Y58175D01*
X158846Y58245D01*
X158883Y58326D01*
X158927Y58408D01*
X158983Y58485D01*
X159053Y58556D01*
X159057Y58559D01*
X159064Y58563D01*
X159075Y58570D01*
X159090Y58582D01*
X159108Y58596D01*
X159134Y58611D01*
X159160Y58626D01*
X159194Y58644D01*
X159268Y58674D01*
X159353Y58704D01*
X159453Y58722D01*
X159504Y58729D01*
X159597D01*
X159638Y58726D01*
D02*
G37*
G36*
X157606Y58715D02*
X157669Y58711D01*
X157736Y58707D01*
X157799Y58700D01*
X157854Y58693D01*
X157862D01*
X157887Y58685D01*
X157921Y58678D01*
X157965Y58667D01*
X158013Y58648D01*
X158065Y58626D01*
X158121Y58600D01*
X158169Y58570D01*
X158176Y58567D01*
X158191Y58556D01*
X158213Y58533D01*
X158243Y58508D01*
X158276Y58474D01*
X158309Y58430D01*
X158346Y58382D01*
X158376Y58326D01*
X158380Y58319D01*
X158387Y58300D01*
X158402Y58267D01*
X158417Y58223D01*
X158428Y58171D01*
X158442Y58112D01*
X158450Y58045D01*
X158454Y57975D01*
Y57971D01*
Y57960D01*
Y57945D01*
X158450Y57919D01*
X158446Y57893D01*
X158442Y57860D01*
X158435Y57823D01*
X158428Y57782D01*
X158402Y57697D01*
X158387Y57653D01*
X158365Y57605D01*
X158339Y57557D01*
X158313Y57512D01*
X158280Y57468D01*
X158243Y57423D01*
X158239Y57420D01*
X158232Y57412D01*
X158221Y57401D01*
X158202Y57390D01*
X158180Y57372D01*
X158150Y57353D01*
X158113Y57331D01*
X158072Y57312D01*
X158024Y57290D01*
X157969Y57268D01*
X157910Y57249D01*
X157839Y57235D01*
X157765Y57220D01*
X157684Y57209D01*
X157591Y57201D01*
X157495Y57198D01*
X156840D01*
Y56158D01*
X156500D01*
Y58718D01*
X157551D01*
X157606Y58715D01*
D02*
G37*
%LPC*%
G36*
X262073Y81757D02*
X261340D01*
Y80843D01*
X262029D01*
X262054Y80847D01*
X262080D01*
X262110Y80850D01*
X262180Y80858D01*
X262258Y80873D01*
X262336Y80895D01*
X262406Y80924D01*
X262439Y80943D01*
X262465Y80965D01*
X262473Y80973D01*
X262487Y80987D01*
X262510Y81017D01*
X262536Y81054D01*
X262561Y81102D01*
X262584Y81161D01*
X262598Y81228D01*
X262606Y81306D01*
Y81309D01*
Y81313D01*
Y81331D01*
X262602Y81365D01*
X262595Y81402D01*
X262587Y81442D01*
X262573Y81491D01*
X262550Y81535D01*
X262524Y81579D01*
X262521Y81583D01*
X262510Y81598D01*
X262491Y81616D01*
X262469Y81642D01*
X262436Y81668D01*
X262399Y81690D01*
X262358Y81713D01*
X262310Y81731D01*
X262306D01*
X262291Y81735D01*
X262269Y81739D01*
X262240Y81746D01*
X262195Y81750D01*
X262140Y81753D01*
X262073Y81757D01*
D02*
G37*
G36*
X51573Y58257D02*
X50840D01*
Y57343D01*
X51529D01*
X51555Y57347D01*
X51580D01*
X51610Y57350D01*
X51680Y57358D01*
X51758Y57373D01*
X51836Y57395D01*
X51906Y57424D01*
X51939Y57443D01*
X51965Y57465D01*
X51973Y57473D01*
X51987Y57487D01*
X52010Y57517D01*
X52035Y57554D01*
X52061Y57602D01*
X52084Y57661D01*
X52098Y57728D01*
X52106Y57806D01*
Y57809D01*
Y57813D01*
Y57832D01*
X52102Y57865D01*
X52095Y57902D01*
X52087Y57942D01*
X52073Y57991D01*
X52050Y58035D01*
X52024Y58079D01*
X52021Y58083D01*
X52010Y58098D01*
X51991Y58116D01*
X51969Y58142D01*
X51936Y58168D01*
X51899Y58190D01*
X51858Y58213D01*
X51810Y58231D01*
X51806D01*
X51791Y58235D01*
X51769Y58239D01*
X51740Y58246D01*
X51695Y58250D01*
X51640Y58253D01*
X51573Y58257D01*
D02*
G37*
G36*
X210573D02*
X209840D01*
Y57343D01*
X210529D01*
X210555Y57347D01*
X210580D01*
X210610Y57350D01*
X210680Y57358D01*
X210758Y57373D01*
X210836Y57395D01*
X210906Y57424D01*
X210939Y57443D01*
X210965Y57465D01*
X210973Y57473D01*
X210987Y57487D01*
X211010Y57517D01*
X211035Y57554D01*
X211061Y57602D01*
X211084Y57661D01*
X211098Y57728D01*
X211106Y57806D01*
Y57809D01*
Y57813D01*
Y57832D01*
X211102Y57865D01*
X211095Y57902D01*
X211087Y57942D01*
X211072Y57991D01*
X211050Y58035D01*
X211024Y58079D01*
X211021Y58083D01*
X211010Y58098D01*
X210991Y58116D01*
X210969Y58142D01*
X210936Y58168D01*
X210899Y58190D01*
X210858Y58213D01*
X210810Y58231D01*
X210806D01*
X210791Y58235D01*
X210769Y58239D01*
X210739Y58246D01*
X210695Y58250D01*
X210640Y58253D01*
X210573Y58257D01*
D02*
G37*
G36*
X106263Y58050D02*
X105457Y56903D01*
X106263D01*
Y58050D01*
D02*
G37*
G36*
X104073Y58257D02*
X103340D01*
Y57343D01*
X104029D01*
X104054Y57347D01*
X104080D01*
X104110Y57350D01*
X104180Y57358D01*
X104258Y57373D01*
X104336Y57395D01*
X104406Y57424D01*
X104439Y57443D01*
X104465Y57465D01*
X104473Y57473D01*
X104487Y57487D01*
X104510Y57517D01*
X104535Y57554D01*
X104561Y57602D01*
X104584Y57661D01*
X104598Y57728D01*
X104606Y57806D01*
Y57809D01*
Y57813D01*
Y57832D01*
X104602Y57865D01*
X104595Y57902D01*
X104587Y57942D01*
X104572Y57991D01*
X104550Y58035D01*
X104524Y58079D01*
X104521Y58083D01*
X104510Y58098D01*
X104491Y58116D01*
X104469Y58142D01*
X104436Y58168D01*
X104399Y58190D01*
X104358Y58213D01*
X104310Y58231D01*
X104306D01*
X104291Y58235D01*
X104269Y58239D01*
X104239Y58246D01*
X104195Y58250D01*
X104140Y58253D01*
X104073Y58257D01*
D02*
G37*
G36*
X157573Y58415D02*
X156840D01*
Y57501D01*
X157529D01*
X157554Y57505D01*
X157580D01*
X157610Y57508D01*
X157680Y57516D01*
X157758Y57531D01*
X157836Y57553D01*
X157906Y57582D01*
X157939Y57601D01*
X157965Y57623D01*
X157973Y57631D01*
X157987Y57645D01*
X158010Y57675D01*
X158036Y57712D01*
X158061Y57760D01*
X158084Y57819D01*
X158098Y57886D01*
X158106Y57964D01*
Y57967D01*
Y57971D01*
Y57990D01*
X158102Y58023D01*
X158095Y58060D01*
X158087Y58100D01*
X158072Y58149D01*
X158050Y58193D01*
X158024Y58237D01*
X158021Y58241D01*
X158010Y58256D01*
X157991Y58274D01*
X157969Y58300D01*
X157936Y58326D01*
X157899Y58348D01*
X157858Y58371D01*
X157810Y58389D01*
X157806D01*
X157791Y58393D01*
X157769Y58397D01*
X157739Y58404D01*
X157695Y58408D01*
X157640Y58411D01*
X157573Y58415D01*
D02*
G37*
%LPD*%
D10*
X156658Y59500D02*
Y82100D01*
Y59500D02*
X205458D01*
X205658D02*
Y82100D01*
X156658D02*
X205458D01*
X102974D02*
X151774D01*
X151974Y59500D02*
Y82100D01*
X102974Y59500D02*
X151774D01*
X102974D02*
Y82100D01*
X209816Y59500D02*
Y82100D01*
Y59500D02*
X258616D01*
X258816D02*
Y82100D01*
X209816D02*
X258616D01*
X50474D02*
X99274D01*
X99474Y59500D02*
Y82100D01*
X50474Y59500D02*
X99274D01*
X50474D02*
Y82100D01*
X266500Y72500D02*
X276500D01*
Y82500D01*
X266500D02*
X276500D01*
Y2500D02*
Y82500D01*
X266500Y2500D02*
X276500D01*
X266500D02*
Y82500D01*
M02*
