G04*
G04 #@! TF.GenerationSoftware,Altium Limited,Altium Designer,18.1.9 (240)*
G04*
G04 Layer_Color=255*
%FSLAX25Y25*%
%MOIN*%
G70*
G01*
G75*
%ADD16C,0.16929*%
%ADD17C,0.05600*%
%ADD18C,0.18740*%
%ADD19C,0.06653*%
%ADD20C,0.07087*%
D16*
X31500Y18500D02*
D03*
Y68500D02*
D03*
X293500Y19000D02*
D03*
Y68500D02*
D03*
D17*
X195684Y71000D02*
D03*
X185842D02*
D03*
X176000D02*
D03*
X166158D02*
D03*
X112474D02*
D03*
X122316D02*
D03*
X132158D02*
D03*
X142000D02*
D03*
X248842D02*
D03*
X239000D02*
D03*
X229158D02*
D03*
X219316D02*
D03*
X59974D02*
D03*
X69816D02*
D03*
X79658D02*
D03*
X89500D02*
D03*
D18*
X245244Y37000D02*
D03*
X60000D02*
D03*
D19*
X87402Y42591D02*
D03*
X92837Y31409D02*
D03*
X98272Y42591D02*
D03*
X103707Y31409D02*
D03*
X109142Y42591D02*
D03*
X114577Y31409D02*
D03*
X120012Y42591D02*
D03*
X125447Y31409D02*
D03*
X130882Y42591D02*
D03*
X136317Y31409D02*
D03*
X141752Y42591D02*
D03*
X147187Y31409D02*
D03*
X152622Y42591D02*
D03*
X158057Y31409D02*
D03*
X163492Y42591D02*
D03*
X168927Y31409D02*
D03*
X174362Y42591D02*
D03*
X179797Y31409D02*
D03*
X185232Y42591D02*
D03*
X190667Y31409D02*
D03*
X196102Y42591D02*
D03*
X201537Y31409D02*
D03*
X206972Y42591D02*
D03*
X212407Y31409D02*
D03*
X217843Y42591D02*
D03*
D20*
X271500Y17500D02*
D03*
Y7500D02*
D03*
Y27500D02*
D03*
Y37500D02*
D03*
Y47500D02*
D03*
Y57500D02*
D03*
Y67500D02*
D03*
Y77500D02*
D03*
M02*
