G04*
G04 #@! TF.GenerationSoftware,Altium Limited,Altium Designer,18.1.9 (240)*
G04*
G04 Layer_Physical_Order=1*
G04 Layer_Color=255*
%FSLAX25Y25*%
%MOIN*%
G70*
G01*
G75*
%ADD10C,0.01000*%
%ADD16C,0.16929*%
%ADD17C,0.05600*%
%ADD18C,0.18740*%
%ADD19C,0.06653*%
%ADD20C,0.07087*%
D10*
X174362Y40868D02*
X176175Y42681D01*
X183175Y7500D02*
X271500D01*
X174362Y16313D02*
X183175Y7500D01*
X260000Y56000D02*
X269512Y65512D01*
X260000Y29500D02*
Y56000D01*
X269512Y65512D02*
Y67988D01*
X196102Y24500D02*
Y40868D01*
Y24500D02*
X199102Y21500D01*
X259000D01*
X263500Y26000D01*
Y39500D01*
X271500Y47500D01*
X207000Y40896D02*
X208785Y42681D01*
X255500Y25000D02*
X260000Y29500D01*
X210000Y25000D02*
X255500D01*
X185232Y24268D02*
X192500Y17000D01*
X261000D01*
X271500Y27500D01*
X269500Y68000D02*
X269512Y67988D01*
X196102Y40868D02*
X197915Y42681D01*
X245244Y37000D02*
Y44744D01*
X185232Y40868D02*
X187045Y42681D01*
X120500Y44006D02*
X121825Y42681D01*
X60000Y33000D02*
Y37000D01*
X181610Y31500D02*
X182500Y30610D01*
X100085Y42681D02*
Y44915D01*
X174362Y16313D02*
Y40868D01*
X185232Y24268D02*
Y40868D01*
X207000Y28000D02*
X210000Y25000D01*
X207000Y28000D02*
Y40896D01*
X239000Y58000D02*
Y71000D01*
X232500Y51500D02*
X239000Y58000D01*
X171992Y51500D02*
X232500D01*
X219316Y57816D02*
Y71000D01*
X217810Y56310D02*
X219316Y57816D01*
X167482Y56310D02*
X217810D01*
X185842Y62152D02*
Y71000D01*
X184000Y60310D02*
X185842Y62152D01*
X159471Y60310D02*
X184000D01*
X165305Y44813D02*
X171992Y51500D01*
X141752Y42591D02*
X159471Y60310D01*
X132158Y60009D02*
Y71000D01*
X122500Y57500D02*
X129649D01*
X132158Y60009D01*
X120500Y55500D02*
X122500Y57500D01*
X120500Y44006D02*
Y55500D01*
X98272Y42591D02*
Y57728D01*
X95500Y60500D02*
X98272Y57728D01*
X83157Y60500D02*
X95500D01*
X87402Y44494D02*
X89215Y42681D01*
X86480Y44494D02*
X87402D01*
X59974Y71000D02*
X86480Y44494D01*
X153762Y42591D02*
X167482Y56310D01*
X152622Y42591D02*
X153762D01*
X165305Y42681D02*
Y44813D01*
X131649Y46649D02*
X156000Y71000D01*
X166158D01*
X131649Y43358D02*
Y46649D01*
X130882Y42591D02*
X131649Y43358D01*
X109142Y55300D02*
X112474Y58632D01*
Y71000D01*
X109142Y42591D02*
Y55300D01*
X79658Y63999D02*
X83157Y60500D01*
X79658Y63999D02*
Y71000D01*
X59974D02*
X62500D01*
D16*
X31500Y18500D02*
D03*
Y68500D02*
D03*
X293500Y19000D02*
D03*
Y68500D02*
D03*
D17*
X195684Y71000D02*
D03*
X185842D02*
D03*
X176000D02*
D03*
X166158D02*
D03*
X112474D02*
D03*
X122316D02*
D03*
X132158D02*
D03*
X142000D02*
D03*
X248842D02*
D03*
X239000D02*
D03*
X229158D02*
D03*
X219316D02*
D03*
X59974D02*
D03*
X69816D02*
D03*
X79658D02*
D03*
X89500D02*
D03*
D18*
X245244Y37000D02*
D03*
X60000D02*
D03*
D19*
X87402Y42591D02*
D03*
X92837Y31409D02*
D03*
X98272Y42591D02*
D03*
X103707Y31409D02*
D03*
X109142Y42591D02*
D03*
X114577Y31409D02*
D03*
X120012Y42591D02*
D03*
X125447Y31409D02*
D03*
X130882Y42591D02*
D03*
X136317Y31409D02*
D03*
X141752Y42591D02*
D03*
X147187Y31409D02*
D03*
X152622Y42591D02*
D03*
X158057Y31409D02*
D03*
X163492Y42591D02*
D03*
X168927Y31409D02*
D03*
X174362Y42591D02*
D03*
X179797Y31409D02*
D03*
X185232Y42591D02*
D03*
X190667Y31409D02*
D03*
X196102Y42591D02*
D03*
X201537Y31409D02*
D03*
X206972Y42591D02*
D03*
X212407Y31409D02*
D03*
X217843Y42591D02*
D03*
D20*
X271500Y17500D02*
D03*
Y7500D02*
D03*
Y27500D02*
D03*
Y37500D02*
D03*
Y47500D02*
D03*
Y57500D02*
D03*
Y67500D02*
D03*
Y77500D02*
D03*
M02*
