G04*
G04 #@! TF.GenerationSoftware,Altium Limited,Altium Designer,19.0.10 (269)*
G04*
G04 Layer_Color=65535*
%FSLAX25Y25*%
%MOIN*%
G70*
G01*
G75*
%ADD10C,0.01000*%
G36*
X264835Y81727D02*
X263810D01*
X263673Y81037D01*
X263675Y81039D01*
X263684Y81045D01*
X263695Y81052D01*
X263714Y81063D01*
X263734Y81074D01*
X263758Y81089D01*
X263788Y81102D01*
X263819Y81119D01*
X263855Y81134D01*
X263892Y81148D01*
X263932Y81161D01*
X263973Y81172D01*
X264017Y81183D01*
X264062Y81191D01*
X264110Y81196D01*
X264156Y81198D01*
X264171D01*
X264189Y81196D01*
X264212Y81195D01*
X264241Y81191D01*
X264275Y81185D01*
X264313Y81178D01*
X264354Y81169D01*
X264397Y81158D01*
X264443Y81141D01*
X264489Y81122D01*
X264537Y81100D01*
X264585Y81072D01*
X264633Y81043D01*
X264680Y81006D01*
X264724Y80965D01*
X264726Y80963D01*
X264733Y80954D01*
X264746Y80941D01*
X264761Y80923D01*
X264778Y80901D01*
X264798Y80873D01*
X264818Y80839D01*
X264841Y80802D01*
X264861Y80762D01*
X264881Y80717D01*
X264902Y80667D01*
X264920Y80616D01*
X264933Y80558D01*
X264946Y80497D01*
X264953Y80434D01*
X264955Y80368D01*
Y80366D01*
Y80364D01*
Y80358D01*
Y80353D01*
X264953Y80334D01*
X264952Y80310D01*
X264950Y80279D01*
X264944Y80244D01*
X264939Y80205D01*
X264929Y80162D01*
X264918Y80116D01*
X264905Y80068D01*
X264889Y80018D01*
X264870Y79968D01*
X264846Y79916D01*
X264818Y79866D01*
X264787Y79816D01*
X264752Y79768D01*
X264748Y79764D01*
X264741Y79755D01*
X264726Y79741D01*
X264707Y79720D01*
X264682Y79696D01*
X264652Y79670D01*
X264617Y79642D01*
X264576Y79613D01*
X264530Y79583D01*
X264480Y79555D01*
X264424Y79530D01*
X264363Y79506D01*
X264299Y79487D01*
X264230Y79470D01*
X264156Y79461D01*
X264078Y79457D01*
X264064D01*
X264045Y79459D01*
X264021Y79461D01*
X263991Y79463D01*
X263956Y79469D01*
X263917Y79474D01*
X263877Y79482D01*
X263832Y79493D01*
X263786Y79506D01*
X263738Y79520D01*
X263690Y79539D01*
X263644Y79561D01*
X263596Y79587D01*
X263551Y79618D01*
X263509Y79652D01*
X263507Y79654D01*
X263499Y79661D01*
X263488Y79672D01*
X263474Y79687D01*
X263457Y79707D01*
X263437Y79731D01*
X263416Y79759D01*
X263394Y79790D01*
X263372Y79826D01*
X263351Y79864D01*
X263329Y79907D01*
X263309Y79953D01*
X263292Y80003D01*
X263277Y80057D01*
X263264Y80112D01*
X263257Y80172D01*
X263586Y80199D01*
Y80198D01*
X263588Y80188D01*
X263590Y80177D01*
X263594Y80160D01*
X263599Y80140D01*
X263605Y80116D01*
X263612Y80090D01*
X263621Y80062D01*
X263644Y80005D01*
X263657Y79974D01*
X263671Y79944D01*
X263690Y79914D01*
X263708Y79887D01*
X263731Y79861D01*
X263755Y79837D01*
X263756Y79835D01*
X263760Y79831D01*
X263768Y79826D01*
X263779Y79818D01*
X263792Y79809D01*
X263808Y79798D01*
X263825Y79789D01*
X263845Y79777D01*
X263867Y79764D01*
X263893Y79755D01*
X263919Y79744D01*
X263949Y79735D01*
X263979Y79728D01*
X264010Y79722D01*
X264043Y79718D01*
X264078Y79716D01*
X264089D01*
X264101Y79718D01*
X264117D01*
X264136Y79722D01*
X264160Y79726D01*
X264186Y79731D01*
X264213Y79739D01*
X264243Y79746D01*
X264275Y79757D01*
X264306Y79772D01*
X264339Y79789D01*
X264371Y79807D01*
X264404Y79831D01*
X264435Y79857D01*
X264465Y79887D01*
X264467Y79888D01*
X264472Y79894D01*
X264480Y79905D01*
X264489Y79918D01*
X264502Y79935D01*
X264515Y79955D01*
X264530Y79979D01*
X264545Y80007D01*
X264558Y80038D01*
X264572Y80072D01*
X264585Y80109D01*
X264598Y80149D01*
X264608Y80194D01*
X264615Y80240D01*
X264620Y80288D01*
X264622Y80340D01*
Y80344D01*
Y80351D01*
X264620Y80366D01*
Y80384D01*
X264619Y80406D01*
X264615Y80434D01*
X264609Y80462D01*
X264604Y80495D01*
X264595Y80529D01*
X264585Y80562D01*
X264572Y80597D01*
X264558Y80634D01*
X264541Y80669D01*
X264521Y80703D01*
X264496Y80736D01*
X264471Y80765D01*
X264469Y80767D01*
X264463Y80773D01*
X264456Y80780D01*
X264443Y80789D01*
X264428Y80802D01*
X264409Y80815D01*
X264389Y80828D01*
X264365Y80843D01*
X264337Y80858D01*
X264308Y80871D01*
X264276Y80886D01*
X264241Y80897D01*
X264202Y80906D01*
X264162Y80913D01*
X264119Y80919D01*
X264075Y80921D01*
X264060D01*
X264049Y80919D01*
X264036D01*
X264019Y80917D01*
X264003Y80915D01*
X263982Y80911D01*
X263940Y80904D01*
X263893Y80891D01*
X263845Y80875D01*
X263799Y80850D01*
X263797D01*
X263793Y80847D01*
X263788Y80843D01*
X263779Y80838D01*
X263756Y80823D01*
X263729Y80802D01*
X263699Y80777D01*
X263668Y80747D01*
X263636Y80712D01*
X263609Y80673D01*
X263313Y80712D01*
X263560Y82027D01*
X264835D01*
Y81727D01*
D02*
G37*
G36*
X262053Y82059D02*
X262078D01*
X262108Y82057D01*
X262171Y82055D01*
X262236Y82049D01*
X262299Y82044D01*
X262328Y82038D01*
X262354Y82034D01*
X262356D01*
X262364Y82033D01*
X262373Y82031D01*
X262386Y82029D01*
X262402Y82025D01*
X262421Y82020D01*
X262441Y82014D01*
X262465Y82009D01*
X262515Y81992D01*
X262567Y81970D01*
X262621Y81946D01*
X262671Y81914D01*
X262672Y81912D01*
X262676Y81911D01*
X262684Y81905D01*
X262691Y81898D01*
X262702Y81890D01*
X262715Y81879D01*
X262730Y81866D01*
X262744Y81851D01*
X262759Y81835D01*
X262776Y81816D01*
X262811Y81774D01*
X262844Y81724D01*
X262876Y81668D01*
X262878Y81666D01*
X262880Y81661D01*
X262883Y81652D01*
X262889Y81640D01*
X262894Y81626D01*
X262900Y81607D01*
X262907Y81587D01*
X262915Y81565D01*
X262922Y81541D01*
X262930Y81513D01*
X262935Y81485D01*
X262941Y81454D01*
X262950Y81389D01*
X262954Y81319D01*
Y81315D01*
Y81304D01*
X262952Y81287D01*
X262950Y81265D01*
X262948Y81235D01*
X262943Y81204D01*
X262937Y81167D01*
X262928Y81128D01*
X262917Y81085D01*
X262902Y81041D01*
X262885Y80995D01*
X262865Y80949D01*
X262841Y80902D01*
X262813Y80856D01*
X262782Y80810D01*
X262744Y80767D01*
X262743Y80765D01*
X262735Y80758D01*
X262722Y80747D01*
X262704Y80732D01*
X262680Y80715D01*
X262650Y80695D01*
X262615Y80675D01*
X262573Y80654D01*
X262524Y80634D01*
X262471Y80614D01*
X262408Y80593D01*
X262341Y80577D01*
X262265Y80562D01*
X262225Y80556D01*
X262182Y80551D01*
X262138Y80547D01*
X262091Y80543D01*
X262043Y80541D01*
X261338D01*
Y79500D01*
X261000D01*
Y82060D01*
X262027D01*
X262053Y82059D01*
D02*
G37*
G36*
X53941Y56000D02*
X53627D01*
Y58002D01*
X53625Y58000D01*
X53621Y57996D01*
X53615Y57991D01*
X53606Y57983D01*
X53595Y57974D01*
X53580Y57961D01*
X53564Y57948D01*
X53547Y57933D01*
X53525Y57918D01*
X53503Y57900D01*
X53478Y57883D01*
X53453Y57863D01*
X53423Y57844D01*
X53393Y57824D01*
X53327Y57783D01*
X53325Y57782D01*
X53319Y57778D01*
X53308Y57772D01*
X53295Y57767D01*
X53281Y57758D01*
X53262Y57746D01*
X53240Y57735D01*
X53218Y57722D01*
X53166Y57696D01*
X53110Y57671D01*
X53053Y57645D01*
X52997Y57622D01*
Y57926D01*
X53001Y57928D01*
X53009Y57931D01*
X53023Y57939D01*
X53042Y57948D01*
X53064Y57959D01*
X53092Y57974D01*
X53122Y57991D01*
X53153Y58009D01*
X53188Y58031D01*
X53225Y58053D01*
X53303Y58105D01*
X53382Y58163D01*
X53458Y58226D01*
X53460Y58227D01*
X53467Y58233D01*
X53477Y58242D01*
X53490Y58255D01*
X53506Y58272D01*
X53525Y58290D01*
X53545Y58312D01*
X53567Y58335D01*
X53589Y58361D01*
X53614Y58388D01*
X53660Y58446D01*
X53702Y58507D01*
X53721Y58538D01*
X53737Y58570D01*
X53941D01*
Y56000D01*
D02*
G37*
G36*
X51553Y58559D02*
X51578D01*
X51608Y58557D01*
X51671Y58555D01*
X51736Y58549D01*
X51799Y58544D01*
X51828Y58538D01*
X51854Y58534D01*
X51856D01*
X51863Y58533D01*
X51873Y58531D01*
X51886Y58529D01*
X51902Y58525D01*
X51921Y58520D01*
X51941Y58514D01*
X51965Y58509D01*
X52015Y58492D01*
X52067Y58470D01*
X52121Y58446D01*
X52171Y58414D01*
X52172Y58412D01*
X52176Y58411D01*
X52184Y58405D01*
X52191Y58398D01*
X52202Y58390D01*
X52215Y58379D01*
X52230Y58366D01*
X52245Y58351D01*
X52259Y58335D01*
X52276Y58316D01*
X52311Y58274D01*
X52344Y58224D01*
X52376Y58168D01*
X52378Y58166D01*
X52380Y58161D01*
X52383Y58152D01*
X52389Y58140D01*
X52394Y58126D01*
X52400Y58107D01*
X52407Y58087D01*
X52415Y58065D01*
X52422Y58040D01*
X52429Y58013D01*
X52435Y57985D01*
X52441Y57954D01*
X52450Y57889D01*
X52454Y57819D01*
Y57815D01*
Y57804D01*
X52452Y57787D01*
X52450Y57765D01*
X52448Y57735D01*
X52443Y57704D01*
X52437Y57667D01*
X52428Y57628D01*
X52417Y57586D01*
X52402Y57541D01*
X52385Y57495D01*
X52365Y57449D01*
X52341Y57402D01*
X52313Y57356D01*
X52282Y57310D01*
X52245Y57267D01*
X52243Y57265D01*
X52235Y57258D01*
X52222Y57247D01*
X52204Y57232D01*
X52180Y57215D01*
X52150Y57195D01*
X52115Y57175D01*
X52073Y57154D01*
X52024Y57134D01*
X51971Y57114D01*
X51908Y57093D01*
X51841Y57077D01*
X51765Y57062D01*
X51725Y57056D01*
X51682Y57051D01*
X51638Y57047D01*
X51591Y57043D01*
X51543Y57042D01*
X50839D01*
Y56000D01*
X50500D01*
Y58560D01*
X51527D01*
X51553Y58559D01*
D02*
G37*
G36*
X212641Y58568D02*
X212667Y58566D01*
X212699Y58564D01*
X212734Y58559D01*
X212774Y58553D01*
X212817Y58544D01*
X212863Y58533D01*
X212910Y58520D01*
X212960Y58503D01*
X213008Y58483D01*
X213056Y58459D01*
X213102Y58433D01*
X213146Y58401D01*
X213189Y58364D01*
X213191Y58363D01*
X213198Y58355D01*
X213209Y58344D01*
X213222Y58327D01*
X213239Y58309D01*
X213257Y58285D01*
X213278Y58257D01*
X213298Y58226D01*
X213317Y58190D01*
X213337Y58152D01*
X213355Y58109D01*
X213372Y58065D01*
X213385Y58017D01*
X213396Y57967D01*
X213404Y57913D01*
X213405Y57857D01*
Y57856D01*
Y57850D01*
Y57843D01*
Y57832D01*
X213404Y57817D01*
X213402Y57802D01*
X213400Y57783D01*
X213398Y57763D01*
X213390Y57717D01*
X213379Y57665D01*
X213363Y57611D01*
X213342Y57556D01*
Y57554D01*
X213339Y57548D01*
X213335Y57541D01*
X213330Y57530D01*
X213324Y57517D01*
X213315Y57500D01*
X213305Y57482D01*
X213293Y57462D01*
X213280Y57439D01*
X213265Y57415D01*
X213228Y57362D01*
X213207Y57334D01*
X213185Y57304D01*
X213159Y57275D01*
X213133Y57243D01*
X213132Y57241D01*
X213126Y57236D01*
X213119Y57227D01*
X213106Y57214D01*
X213089Y57197D01*
X213069Y57177D01*
X213047Y57152D01*
X213019Y57125D01*
X212987Y57095D01*
X212950Y57062D01*
X212911Y57025D01*
X212867Y56984D01*
X212819Y56942D01*
X212767Y56895D01*
X212710Y56845D01*
X212649Y56794D01*
X212645Y56792D01*
X212636Y56783D01*
X212623Y56771D01*
X212604Y56755D01*
X212580Y56736D01*
X212556Y56714D01*
X212528Y56690D01*
X212499Y56664D01*
X212436Y56611D01*
X212406Y56583D01*
X212377Y56557D01*
X212349Y56531D01*
X212325Y56509D01*
X212303Y56488D01*
X212286Y56470D01*
X212282Y56466D01*
X212273Y56455D01*
X212258Y56438D01*
X212240Y56418D01*
X212220Y56392D01*
X212197Y56364D01*
X212175Y56333D01*
X212155Y56301D01*
X213409D01*
Y56000D01*
X211718D01*
Y56002D01*
Y56006D01*
Y56011D01*
Y56019D01*
Y56030D01*
X211720Y56041D01*
X211722Y56070D01*
X211726Y56102D01*
X211731Y56139D01*
X211740Y56178D01*
X211753Y56216D01*
Y56218D01*
X211757Y56224D01*
X211761Y56233D01*
X211766Y56246D01*
X211772Y56263D01*
X211781Y56281D01*
X211792Y56301D01*
X211803Y56324D01*
X211816Y56350D01*
X211833Y56375D01*
X211868Y56433D01*
X211911Y56494D01*
X211961Y56557D01*
X211962Y56559D01*
X211968Y56564D01*
X211975Y56573D01*
X211986Y56586D01*
X212001Y56603D01*
X212020Y56622D01*
X212040Y56644D01*
X212066Y56668D01*
X212094Y56696D01*
X212123Y56725D01*
X212157Y56757D01*
X212194Y56792D01*
X212234Y56827D01*
X212277Y56864D01*
X212323Y56903D01*
X212371Y56944D01*
X212373Y56945D01*
X212377Y56947D01*
X212382Y56953D01*
X212390Y56958D01*
X212399Y56968D01*
X212410Y56977D01*
X212438Y57001D01*
X212473Y57029D01*
X212510Y57064D01*
X212552Y57101D01*
X212597Y57141D01*
X212645Y57184D01*
X212691Y57228D01*
X212739Y57273D01*
X212784Y57319D01*
X212828Y57363D01*
X212867Y57406D01*
X212904Y57449D01*
X212934Y57487D01*
X212935Y57489D01*
X212939Y57497D01*
X212947Y57508D01*
X212958Y57521D01*
X212969Y57539D01*
X212980Y57560D01*
X212995Y57584D01*
X213008Y57609D01*
X213021Y57637D01*
X213035Y57667D01*
X213059Y57732D01*
X213069Y57765D01*
X213076Y57798D01*
X213080Y57832D01*
X213082Y57865D01*
Y57867D01*
Y57874D01*
Y57883D01*
X213080Y57896D01*
X213078Y57913D01*
X213074Y57931D01*
X213071Y57952D01*
X213065Y57974D01*
X213057Y57998D01*
X213048Y58024D01*
X213037Y58050D01*
X213024Y58076D01*
X213010Y58103D01*
X212991Y58129D01*
X212971Y58155D01*
X212947Y58179D01*
X212945Y58181D01*
X212941Y58185D01*
X212934Y58190D01*
X212923Y58200D01*
X212910Y58209D01*
X212893Y58220D01*
X212874Y58233D01*
X212854Y58244D01*
X212830Y58257D01*
X212804Y58268D01*
X212774Y58279D01*
X212745Y58289D01*
X212712Y58298D01*
X212677Y58303D01*
X212639Y58307D01*
X212601Y58309D01*
X212578D01*
X212564Y58307D01*
X212543Y58305D01*
X212521Y58301D01*
X212497Y58298D01*
X212469Y58292D01*
X212441Y58285D01*
X212412Y58276D01*
X212382Y58264D01*
X212351Y58251D01*
X212321Y58235D01*
X212292Y58216D01*
X212262Y58196D01*
X212236Y58172D01*
X212234Y58170D01*
X212231Y58166D01*
X212223Y58157D01*
X212216Y58148D01*
X212205Y58133D01*
X212194Y58116D01*
X212181Y58096D01*
X212170Y58074D01*
X212157Y58050D01*
X212144Y58020D01*
X212133Y57991D01*
X212122Y57957D01*
X212114Y57920D01*
X212107Y57881D01*
X212103Y57841D01*
X212101Y57796D01*
X211777Y57830D01*
Y57832D01*
Y57833D01*
X211779Y57839D01*
Y57846D01*
X211781Y57865D01*
X211787Y57889D01*
X211792Y57918D01*
X211800Y57954D01*
X211809Y57992D01*
X211820Y58033D01*
X211835Y58078D01*
X211851Y58122D01*
X211872Y58168D01*
X211896Y58214D01*
X211922Y58259D01*
X211953Y58301D01*
X211986Y58342D01*
X212025Y58379D01*
X212027Y58381D01*
X212035Y58386D01*
X212047Y58398D01*
X212064Y58409D01*
X212086Y58424D01*
X212112Y58440D01*
X212144Y58457D01*
X212179Y58475D01*
X212220Y58492D01*
X212262Y58509D01*
X212310Y58525D01*
X212362Y58540D01*
X212418Y58553D01*
X212477Y58562D01*
X212540Y58568D01*
X212606Y58570D01*
X212623D01*
X212641Y58568D01*
D02*
G37*
G36*
X210553Y58559D02*
X210578D01*
X210608Y58557D01*
X210671Y58555D01*
X210736Y58549D01*
X210799Y58544D01*
X210828Y58538D01*
X210854Y58534D01*
X210856D01*
X210863Y58533D01*
X210873Y58531D01*
X210886Y58529D01*
X210902Y58525D01*
X210921Y58520D01*
X210941Y58514D01*
X210965Y58509D01*
X211015Y58492D01*
X211067Y58470D01*
X211121Y58446D01*
X211171Y58414D01*
X211172Y58412D01*
X211176Y58411D01*
X211184Y58405D01*
X211191Y58398D01*
X211202Y58390D01*
X211215Y58379D01*
X211230Y58366D01*
X211245Y58351D01*
X211259Y58335D01*
X211276Y58316D01*
X211311Y58274D01*
X211345Y58224D01*
X211376Y58168D01*
X211378Y58166D01*
X211380Y58161D01*
X211383Y58152D01*
X211389Y58140D01*
X211394Y58126D01*
X211400Y58107D01*
X211407Y58087D01*
X211415Y58065D01*
X211422Y58040D01*
X211430Y58013D01*
X211435Y57985D01*
X211441Y57954D01*
X211450Y57889D01*
X211454Y57819D01*
Y57815D01*
Y57804D01*
X211452Y57787D01*
X211450Y57765D01*
X211448Y57735D01*
X211442Y57704D01*
X211437Y57667D01*
X211428Y57628D01*
X211417Y57586D01*
X211402Y57541D01*
X211385Y57495D01*
X211365Y57449D01*
X211341Y57402D01*
X211313Y57356D01*
X211282Y57310D01*
X211245Y57267D01*
X211243Y57265D01*
X211235Y57258D01*
X211222Y57247D01*
X211204Y57232D01*
X211180Y57215D01*
X211150Y57195D01*
X211115Y57175D01*
X211072Y57154D01*
X211024Y57134D01*
X210971Y57114D01*
X210908Y57093D01*
X210841Y57077D01*
X210765Y57062D01*
X210725Y57056D01*
X210682Y57051D01*
X210638Y57047D01*
X210592Y57043D01*
X210543Y57042D01*
X209839D01*
Y56000D01*
X209500D01*
Y58560D01*
X210527D01*
X210553Y58559D01*
D02*
G37*
G36*
X106580Y56901D02*
X106926D01*
Y56612D01*
X106580D01*
Y56000D01*
X106265D01*
Y56612D01*
X105155D01*
Y56901D01*
X106323Y58560D01*
X106580D01*
Y56901D01*
D02*
G37*
G36*
X104053Y58559D02*
X104078D01*
X104108Y58557D01*
X104171Y58555D01*
X104236Y58549D01*
X104299Y58544D01*
X104328Y58538D01*
X104354Y58534D01*
X104356D01*
X104363Y58533D01*
X104373Y58531D01*
X104386Y58529D01*
X104402Y58525D01*
X104421Y58520D01*
X104441Y58514D01*
X104465Y58509D01*
X104515Y58492D01*
X104567Y58470D01*
X104621Y58446D01*
X104671Y58414D01*
X104672Y58412D01*
X104676Y58411D01*
X104683Y58405D01*
X104691Y58398D01*
X104702Y58390D01*
X104715Y58379D01*
X104730Y58366D01*
X104745Y58351D01*
X104759Y58335D01*
X104776Y58316D01*
X104811Y58274D01*
X104844Y58224D01*
X104876Y58168D01*
X104878Y58166D01*
X104880Y58161D01*
X104883Y58152D01*
X104889Y58140D01*
X104894Y58126D01*
X104900Y58107D01*
X104907Y58087D01*
X104915Y58065D01*
X104922Y58040D01*
X104929Y58013D01*
X104935Y57985D01*
X104941Y57954D01*
X104950Y57889D01*
X104954Y57819D01*
Y57815D01*
Y57804D01*
X104952Y57787D01*
X104950Y57765D01*
X104948Y57735D01*
X104943Y57704D01*
X104937Y57667D01*
X104928Y57628D01*
X104917Y57586D01*
X104902Y57541D01*
X104885Y57495D01*
X104865Y57449D01*
X104841Y57402D01*
X104813Y57356D01*
X104781Y57310D01*
X104745Y57267D01*
X104743Y57265D01*
X104735Y57258D01*
X104722Y57247D01*
X104704Y57232D01*
X104680Y57215D01*
X104650Y57195D01*
X104615Y57175D01*
X104572Y57154D01*
X104524Y57134D01*
X104471Y57114D01*
X104408Y57093D01*
X104341Y57077D01*
X104265Y57062D01*
X104225Y57056D01*
X104182Y57051D01*
X104138Y57047D01*
X104092Y57043D01*
X104043Y57042D01*
X103339D01*
Y56000D01*
X103000D01*
Y58560D01*
X104027D01*
X104053Y58559D01*
D02*
G37*
G36*
X159595Y58726D02*
X159614D01*
X159636Y58722D01*
X159660Y58720D01*
X159686Y58716D01*
X159715Y58711D01*
X159745Y58705D01*
X159810Y58689D01*
X159845Y58679D01*
X159878Y58667D01*
X159911Y58654D01*
X159945Y58637D01*
X159947Y58635D01*
X159952Y58633D01*
X159961Y58628D01*
X159974Y58620D01*
X159989Y58611D01*
X160006Y58600D01*
X160024Y58587D01*
X160045Y58572D01*
X160089Y58537D01*
X160133Y58495D01*
X160176Y58447D01*
X160196Y58419D01*
X160215Y58391D01*
X160217Y58389D01*
X160219Y58384D01*
X160224Y58376D01*
X160230Y58363D01*
X160237Y58350D01*
X160244Y58332D01*
X160254Y58313D01*
X160263Y58291D01*
X160270Y58267D01*
X160280Y58243D01*
X160294Y58188D01*
X160305Y58126D01*
X160307Y58095D01*
X160309Y58062D01*
Y58060D01*
Y58054D01*
Y58045D01*
X160307Y58034D01*
Y58019D01*
X160304Y58002D01*
X160302Y57982D01*
X160298Y57962D01*
X160287Y57914D01*
X160270Y57864D01*
X160261Y57838D01*
X160248Y57810D01*
X160235Y57784D01*
X160219Y57758D01*
X160217Y57756D01*
X160215Y57753D01*
X160209Y57745D01*
X160202Y57736D01*
X160193Y57725D01*
X160181Y57712D01*
X160169Y57697D01*
X160152Y57681D01*
X160135Y57664D01*
X160115Y57647D01*
X160095Y57629D01*
X160071Y57610D01*
X160045Y57594D01*
X160017Y57575D01*
X159987Y57559D01*
X159956Y57544D01*
X159958D01*
X159965Y57542D01*
X159978Y57538D01*
X159993Y57533D01*
X160013Y57527D01*
X160035Y57518D01*
X160059Y57508D01*
X160085Y57496D01*
X160113Y57483D01*
X160143Y57466D01*
X160172Y57449D01*
X160202Y57429D01*
X160230Y57407D01*
X160257Y57383D01*
X160285Y57355D01*
X160309Y57325D01*
X160311Y57323D01*
X160315Y57318D01*
X160320Y57309D01*
X160329Y57296D01*
X160339Y57279D01*
X160350Y57261D01*
X160361Y57238D01*
X160372Y57213D01*
X160383Y57183D01*
X160396Y57151D01*
X160405Y57118D01*
X160415Y57081D01*
X160424Y57042D01*
X160429Y57002D01*
X160433Y56959D01*
X160435Y56913D01*
Y56909D01*
Y56898D01*
X160433Y56880D01*
X160431Y56857D01*
X160427Y56828D01*
X160422Y56794D01*
X160415Y56757D01*
X160404Y56717D01*
X160391Y56672D01*
X160376Y56628D01*
X160355Y56580D01*
X160331Y56532D01*
X160304Y56484D01*
X160270Y56436D01*
X160231Y56389D01*
X160189Y56345D01*
X160185Y56343D01*
X160178Y56336D01*
X160165Y56323D01*
X160144Y56308D01*
X160120Y56291D01*
X160093Y56271D01*
X160057Y56251D01*
X160021Y56228D01*
X159978Y56206D01*
X159930Y56186D01*
X159880Y56165D01*
X159825Y56149D01*
X159767Y56134D01*
X159704Y56121D01*
X159640Y56114D01*
X159571Y56112D01*
X159556D01*
X159538Y56114D01*
X159516Y56115D01*
X159486Y56117D01*
X159453Y56123D01*
X159416Y56128D01*
X159375Y56138D01*
X159332Y56147D01*
X159286Y56160D01*
X159240Y56177D01*
X159192Y56197D01*
X159145Y56219D01*
X159099Y56245D01*
X159053Y56276D01*
X159010Y56312D01*
X159009Y56313D01*
X159001Y56321D01*
X158990Y56332D01*
X158975Y56349D01*
X158959Y56369D01*
X158938Y56393D01*
X158918Y56421D01*
X158896Y56452D01*
X158874Y56487D01*
X158851Y56528D01*
X158831Y56571D01*
X158811Y56617D01*
X158794Y56667D01*
X158777Y56719D01*
X158766Y56774D01*
X158759Y56833D01*
X159073Y56876D01*
Y56872D01*
X159075Y56865D01*
X159079Y56850D01*
X159084Y56831D01*
X159090Y56809D01*
X159097Y56785D01*
X159107Y56757D01*
X159116Y56728D01*
X159142Y56663D01*
X159173Y56600D01*
X159192Y56569D01*
X159212Y56539D01*
X159232Y56513D01*
X159256Y56489D01*
X159258Y56487D01*
X159262Y56484D01*
X159269Y56478D01*
X159281Y56471D01*
X159292Y56461D01*
X159308Y56452D01*
X159325Y56441D01*
X159345Y56432D01*
X159368Y56421D01*
X159392Y56410D01*
X159417Y56400D01*
X159445Y56391D01*
X159475Y56384D01*
X159506Y56378D01*
X159538Y56375D01*
X159573Y56373D01*
X159582D01*
X159595Y56375D01*
X159610D01*
X159630Y56378D01*
X159652Y56380D01*
X159676Y56386D01*
X159704Y56391D01*
X159732Y56400D01*
X159763Y56410D01*
X159795Y56423D01*
X159826Y56437D01*
X159858Y56456D01*
X159889Y56476D01*
X159919Y56498D01*
X159948Y56526D01*
X159950Y56528D01*
X159956Y56534D01*
X159963Y56541D01*
X159973Y56554D01*
X159984Y56569D01*
X159996Y56587D01*
X160011Y56608D01*
X160026Y56632D01*
X160039Y56657D01*
X160054Y56687D01*
X160067Y56717D01*
X160078Y56752D01*
X160087Y56787D01*
X160095Y56824D01*
X160100Y56865D01*
X160102Y56905D01*
Y56907D01*
Y56915D01*
Y56926D01*
X160100Y56942D01*
X160098Y56959D01*
X160095Y56981D01*
X160091Y57005D01*
X160083Y57031D01*
X160076Y57059D01*
X160067Y57089D01*
X160056Y57118D01*
X160043Y57148D01*
X160026Y57177D01*
X160006Y57207D01*
X159985Y57235D01*
X159959Y57262D01*
X159958Y57264D01*
X159954Y57268D01*
X159945Y57275D01*
X159934Y57285D01*
X159921Y57296D01*
X159904Y57307D01*
X159884Y57320D01*
X159861Y57333D01*
X159837Y57346D01*
X159810Y57359D01*
X159780Y57370D01*
X159749Y57381D01*
X159715Y57390D01*
X159678Y57398D01*
X159641Y57401D01*
X159601Y57403D01*
X159584D01*
X159565Y57401D01*
X159540Y57399D01*
X159506Y57396D01*
X159469Y57388D01*
X159427Y57381D01*
X159379Y57370D01*
X159414Y57645D01*
X159419D01*
X159425Y57644D01*
X159432D01*
X159449Y57642D01*
X159484D01*
X159497Y57644D01*
X159516Y57645D01*
X159536Y57647D01*
X159558Y57651D01*
X159584Y57655D01*
X159612Y57660D01*
X159640Y57668D01*
X159701Y57686D01*
X159732Y57697D01*
X159763Y57712D01*
X159795Y57727D01*
X159825Y57745D01*
X159826Y57747D01*
X159832Y57751D01*
X159839Y57756D01*
X159850Y57766D01*
X159861Y57777D01*
X159876Y57790D01*
X159889Y57806D01*
X159906Y57825D01*
X159921Y57847D01*
X159935Y57871D01*
X159948Y57897D01*
X159959Y57927D01*
X159971Y57958D01*
X159978Y57993D01*
X159984Y58030D01*
X159985Y58069D01*
Y58071D01*
Y58076D01*
Y58086D01*
X159984Y58099D01*
X159982Y58112D01*
X159980Y58130D01*
X159976Y58149D01*
X159971Y58169D01*
X159956Y58213D01*
X159947Y58237D01*
X159935Y58262D01*
X159923Y58285D01*
X159906Y58310D01*
X159887Y58332D01*
X159867Y58354D01*
X159865Y58356D01*
X159861Y58359D01*
X159856Y58365D01*
X159847Y58372D01*
X159834Y58380D01*
X159821Y58391D01*
X159804Y58400D01*
X159786Y58411D01*
X159765Y58422D01*
X159743Y58432D01*
X159717Y58443D01*
X159691Y58450D01*
X159662Y58458D01*
X159632Y58463D01*
X159599Y58467D01*
X159565Y58469D01*
X159547D01*
X159536Y58467D01*
X159519Y58465D01*
X159501Y58463D01*
X159480Y58459D01*
X159458Y58454D01*
X159410Y58441D01*
X159386Y58432D01*
X159360Y58419D01*
X159334Y58406D01*
X159308Y58391D01*
X159284Y58372D01*
X159260Y58352D01*
X159258Y58350D01*
X159255Y58347D01*
X159249Y58339D01*
X159240Y58330D01*
X159231Y58319D01*
X159220Y58304D01*
X159208Y58285D01*
X159195Y58267D01*
X159183Y58243D01*
X159170Y58217D01*
X159155Y58189D01*
X159144Y58158D01*
X159131Y58125D01*
X159122Y58089D01*
X159112Y58051D01*
X159105Y58008D01*
X158790Y58064D01*
Y58065D01*
Y58067D01*
X158794Y58078D01*
X158798Y58093D01*
X158803Y58115D01*
X158811Y58143D01*
X158820Y58173D01*
X158831Y58206D01*
X158844Y58243D01*
X158861Y58282D01*
X158879Y58323D01*
X158901Y58363D01*
X158925Y58404D01*
X158951Y58445D01*
X158981Y58483D01*
X159014Y58521D01*
X159051Y58554D01*
X159053Y58556D01*
X159060Y58561D01*
X159072Y58570D01*
X159088Y58582D01*
X159108Y58594D01*
X159133Y58609D01*
X159160Y58624D01*
X159192Y58641D01*
X159227Y58657D01*
X159266Y58672D01*
X159306Y58687D01*
X159351Y58700D01*
X159399Y58711D01*
X159451Y58720D01*
X159504Y58726D01*
X159560Y58728D01*
X159580D01*
X159595Y58726D01*
D02*
G37*
G36*
X157553Y58716D02*
X157579D01*
X157608Y58715D01*
X157671Y58713D01*
X157736Y58707D01*
X157799Y58702D01*
X157828Y58696D01*
X157854Y58693D01*
X157856D01*
X157863Y58691D01*
X157873Y58689D01*
X157886Y58687D01*
X157902Y58683D01*
X157921Y58678D01*
X157941Y58672D01*
X157965Y58667D01*
X158015Y58650D01*
X158067Y58628D01*
X158121Y58604D01*
X158171Y58572D01*
X158172Y58570D01*
X158176Y58569D01*
X158184Y58563D01*
X158191Y58556D01*
X158202Y58548D01*
X158215Y58537D01*
X158230Y58524D01*
X158245Y58509D01*
X158259Y58493D01*
X158276Y58474D01*
X158311Y58432D01*
X158344Y58382D01*
X158376Y58326D01*
X158378Y58324D01*
X158380Y58319D01*
X158383Y58310D01*
X158389Y58298D01*
X158394Y58284D01*
X158400Y58265D01*
X158407Y58245D01*
X158415Y58223D01*
X158422Y58199D01*
X158430Y58171D01*
X158435Y58143D01*
X158441Y58112D01*
X158450Y58047D01*
X158454Y57977D01*
Y57973D01*
Y57962D01*
X158452Y57945D01*
X158450Y57923D01*
X158448Y57893D01*
X158442Y57862D01*
X158437Y57825D01*
X158428Y57786D01*
X158417Y57743D01*
X158402Y57699D01*
X158385Y57653D01*
X158365Y57607D01*
X158341Y57560D01*
X158313Y57514D01*
X158282Y57468D01*
X158245Y57425D01*
X158243Y57423D01*
X158235Y57416D01*
X158222Y57405D01*
X158204Y57390D01*
X158180Y57373D01*
X158150Y57353D01*
X158115Y57333D01*
X158072Y57312D01*
X158024Y57292D01*
X157971Y57272D01*
X157908Y57251D01*
X157841Y57235D01*
X157765Y57220D01*
X157725Y57214D01*
X157682Y57209D01*
X157638Y57205D01*
X157591Y57201D01*
X157543Y57200D01*
X156839D01*
Y56158D01*
X156500D01*
Y58718D01*
X157527D01*
X157553Y58716D01*
D02*
G37*
%LPC*%
G36*
X262034Y81759D02*
X261338D01*
Y80843D01*
X262031D01*
X262053Y80845D01*
X262078Y80847D01*
X262110Y80850D01*
X262143Y80854D01*
X262180Y80858D01*
X262256Y80873D01*
X262295Y80882D01*
X262334Y80895D01*
X262371Y80908D01*
X262406Y80924D01*
X262437Y80943D01*
X262465Y80965D01*
X262467Y80967D01*
X262471Y80971D01*
X262478Y80978D01*
X262487Y80987D01*
X262497Y81000D01*
X262510Y81015D01*
X262523Y81034D01*
X262536Y81054D01*
X262548Y81078D01*
X262560Y81102D01*
X262573Y81132D01*
X262582Y81161D01*
X262591Y81195D01*
X262598Y81232D01*
X262602Y81269D01*
X262604Y81309D01*
Y81311D01*
Y81317D01*
Y81324D01*
X262602Y81337D01*
Y81350D01*
X262600Y81367D01*
X262597Y81385D01*
X262595Y81404D01*
X262584Y81446D01*
X262569Y81492D01*
X262550Y81539D01*
X262537Y81561D01*
X262523Y81583D01*
Y81585D01*
X262519Y81589D01*
X262513Y81594D01*
X262508Y81602D01*
X262489Y81622D01*
X262465Y81646D01*
X262434Y81670D01*
X262399Y81696D01*
X262356Y81718D01*
X262308Y81735D01*
X262306D01*
X262304Y81737D01*
X262299D01*
X262291Y81739D01*
X262282Y81740D01*
X262269Y81742D01*
X262254Y81744D01*
X262236Y81748D01*
X262215Y81750D01*
X262193Y81751D01*
X262167Y81753D01*
X262138Y81755D01*
X262106Y81757D01*
X262071D01*
X262034Y81759D01*
D02*
G37*
G36*
X51534Y58259D02*
X50839D01*
Y57343D01*
X51530D01*
X51553Y57345D01*
X51578Y57347D01*
X51610Y57350D01*
X51643Y57354D01*
X51680Y57358D01*
X51756Y57373D01*
X51795Y57382D01*
X51834Y57395D01*
X51871Y57408D01*
X51906Y57424D01*
X51938Y57443D01*
X51965Y57465D01*
X51967Y57467D01*
X51971Y57471D01*
X51978Y57478D01*
X51987Y57487D01*
X51997Y57500D01*
X52010Y57515D01*
X52023Y57534D01*
X52035Y57554D01*
X52048Y57578D01*
X52060Y57602D01*
X52073Y57632D01*
X52082Y57661D01*
X52091Y57695D01*
X52098Y57732D01*
X52102Y57769D01*
X52104Y57809D01*
Y57811D01*
Y57817D01*
Y57824D01*
X52102Y57837D01*
Y57850D01*
X52100Y57867D01*
X52097Y57885D01*
X52095Y57904D01*
X52084Y57946D01*
X52069Y57992D01*
X52050Y58039D01*
X52037Y58061D01*
X52023Y58083D01*
Y58085D01*
X52019Y58089D01*
X52013Y58094D01*
X52008Y58102D01*
X51989Y58122D01*
X51965Y58146D01*
X51934Y58170D01*
X51899Y58196D01*
X51856Y58218D01*
X51808Y58235D01*
X51806D01*
X51804Y58237D01*
X51799D01*
X51791Y58239D01*
X51782Y58240D01*
X51769Y58242D01*
X51754Y58244D01*
X51736Y58248D01*
X51715Y58250D01*
X51693Y58251D01*
X51667Y58253D01*
X51638Y58255D01*
X51606Y58257D01*
X51571D01*
X51534Y58259D01*
D02*
G37*
G36*
X210534D02*
X209839D01*
Y57343D01*
X210530D01*
X210553Y57345D01*
X210578Y57347D01*
X210610Y57350D01*
X210643Y57354D01*
X210680Y57358D01*
X210756Y57373D01*
X210795Y57382D01*
X210834Y57395D01*
X210871Y57408D01*
X210906Y57424D01*
X210937Y57443D01*
X210965Y57465D01*
X210967Y57467D01*
X210971Y57471D01*
X210978Y57478D01*
X210987Y57487D01*
X210997Y57500D01*
X211010Y57515D01*
X211023Y57534D01*
X211035Y57554D01*
X211049Y57578D01*
X211059Y57602D01*
X211072Y57632D01*
X211082Y57661D01*
X211091Y57695D01*
X211098Y57732D01*
X211102Y57769D01*
X211104Y57809D01*
Y57811D01*
Y57817D01*
Y57824D01*
X211102Y57837D01*
Y57850D01*
X211100Y57867D01*
X211097Y57885D01*
X211095Y57904D01*
X211084Y57946D01*
X211069Y57992D01*
X211050Y58039D01*
X211037Y58061D01*
X211023Y58083D01*
Y58085D01*
X211019Y58089D01*
X211013Y58094D01*
X211008Y58102D01*
X210989Y58122D01*
X210965Y58146D01*
X210934Y58170D01*
X210899Y58196D01*
X210856Y58218D01*
X210808Y58235D01*
X210806D01*
X210804Y58237D01*
X210799D01*
X210791Y58239D01*
X210782Y58240D01*
X210769Y58242D01*
X210754Y58244D01*
X210736Y58248D01*
X210716Y58250D01*
X210693Y58251D01*
X210667Y58253D01*
X210638Y58255D01*
X210606Y58257D01*
X210571D01*
X210534Y58259D01*
D02*
G37*
G36*
X106265Y58055D02*
X105462Y56901D01*
X106265D01*
Y58055D01*
D02*
G37*
G36*
X104034Y58259D02*
X103339D01*
Y57343D01*
X104030D01*
X104053Y57345D01*
X104078Y57347D01*
X104110Y57350D01*
X104143Y57354D01*
X104180Y57358D01*
X104256Y57373D01*
X104295Y57382D01*
X104334Y57395D01*
X104371Y57408D01*
X104406Y57424D01*
X104437Y57443D01*
X104465Y57465D01*
X104467Y57467D01*
X104471Y57471D01*
X104478Y57478D01*
X104487Y57487D01*
X104497Y57500D01*
X104510Y57515D01*
X104523Y57534D01*
X104535Y57554D01*
X104549Y57578D01*
X104560Y57602D01*
X104572Y57632D01*
X104582Y57661D01*
X104591Y57695D01*
X104598Y57732D01*
X104602Y57769D01*
X104604Y57809D01*
Y57811D01*
Y57817D01*
Y57824D01*
X104602Y57837D01*
Y57850D01*
X104600Y57867D01*
X104597Y57885D01*
X104595Y57904D01*
X104584Y57946D01*
X104569Y57992D01*
X104550Y58039D01*
X104537Y58061D01*
X104523Y58083D01*
Y58085D01*
X104519Y58089D01*
X104513Y58094D01*
X104508Y58102D01*
X104489Y58122D01*
X104465Y58146D01*
X104434Y58170D01*
X104399Y58196D01*
X104356Y58218D01*
X104308Y58235D01*
X104306D01*
X104304Y58237D01*
X104299D01*
X104291Y58239D01*
X104282Y58240D01*
X104269Y58242D01*
X104254Y58244D01*
X104236Y58248D01*
X104216Y58250D01*
X104193Y58251D01*
X104167Y58253D01*
X104138Y58255D01*
X104106Y58257D01*
X104071D01*
X104034Y58259D01*
D02*
G37*
G36*
X157534Y58417D02*
X156839D01*
Y57501D01*
X157530D01*
X157553Y57503D01*
X157579Y57505D01*
X157610Y57508D01*
X157643Y57512D01*
X157680Y57516D01*
X157756Y57531D01*
X157795Y57540D01*
X157834Y57553D01*
X157871Y57566D01*
X157906Y57582D01*
X157937Y57601D01*
X157965Y57623D01*
X157967Y57625D01*
X157971Y57629D01*
X157978Y57636D01*
X157987Y57645D01*
X157997Y57658D01*
X158010Y57673D01*
X158023Y57692D01*
X158036Y57712D01*
X158048Y57736D01*
X158060Y57760D01*
X158072Y57790D01*
X158082Y57819D01*
X158091Y57853D01*
X158098Y57890D01*
X158102Y57927D01*
X158104Y57967D01*
Y57969D01*
Y57975D01*
Y57982D01*
X158102Y57995D01*
Y58008D01*
X158100Y58025D01*
X158097Y58043D01*
X158095Y58062D01*
X158084Y58104D01*
X158069Y58151D01*
X158050Y58197D01*
X158037Y58219D01*
X158023Y58241D01*
Y58243D01*
X158019Y58247D01*
X158013Y58252D01*
X158008Y58260D01*
X157989Y58280D01*
X157965Y58304D01*
X157934Y58328D01*
X157899Y58354D01*
X157856Y58376D01*
X157808Y58393D01*
X157806D01*
X157804Y58395D01*
X157799D01*
X157791Y58397D01*
X157782Y58398D01*
X157769Y58400D01*
X157754Y58402D01*
X157736Y58406D01*
X157715Y58408D01*
X157693Y58410D01*
X157667Y58411D01*
X157638Y58413D01*
X157606Y58415D01*
X157571D01*
X157534Y58417D01*
D02*
G37*
%LPD*%
D10*
X156658Y59500D02*
Y82100D01*
Y59500D02*
X205458D01*
X205658D02*
Y82100D01*
X156658D02*
X205458D01*
X102974D02*
X151774D01*
X151974Y59500D02*
Y82100D01*
X102974Y59500D02*
X151774D01*
X102974D02*
Y82100D01*
X209816Y59500D02*
Y82100D01*
Y59500D02*
X258616D01*
X258816D02*
Y82100D01*
X209816D02*
X258616D01*
X50474D02*
X99274D01*
X99474Y59500D02*
Y82100D01*
X50474Y59500D02*
X99274D01*
X50474D02*
Y82100D01*
X266500Y72500D02*
X276500D01*
Y82500D01*
X266500D02*
X276500D01*
Y2500D02*
Y82500D01*
X266500Y2500D02*
X276500D01*
X266500D02*
Y82500D01*
M02*
