G04*
G04 #@! TF.GenerationSoftware,Altium Limited,Altium Designer,18.1.9 (240)*
G04*
G04 Layer_Color=128*
%FSLAX25Y25*%
%MOIN*%
G70*
G01*
G75*
%ADD26C,0.00200*%
D26*
X25700Y18500D02*
X37300D01*
X31500Y12700D02*
Y24300D01*
X25700Y68500D02*
X37300D01*
X31500Y62700D02*
Y74300D01*
X287700Y19000D02*
X299300D01*
X293500Y13200D02*
Y24800D01*
X287700Y68500D02*
X299300D01*
X293500Y62700D02*
Y74300D01*
X194034Y71000D02*
X197334D01*
X195684Y69350D02*
Y72650D01*
X184192Y71000D02*
X187492D01*
X185842Y69350D02*
Y72650D01*
X174350Y71000D02*
X177650D01*
X176000Y69350D02*
Y72650D01*
X164508Y71000D02*
X167808D01*
X166158Y69350D02*
Y72650D01*
X110824Y71000D02*
X114124D01*
X112474Y69350D02*
Y72650D01*
X120666Y71000D02*
X123966D01*
X122316Y69350D02*
Y72650D01*
X130508Y71000D02*
X133808D01*
X132158Y69350D02*
Y72650D01*
X140350Y71000D02*
X143650D01*
X142000Y69350D02*
Y72650D01*
X247192Y71000D02*
X250492D01*
X248842Y69350D02*
Y72650D01*
X237350Y71000D02*
X240650D01*
X239000Y69350D02*
Y72650D01*
X227508Y71000D02*
X230808D01*
X229158Y69350D02*
Y72650D01*
X217666Y71000D02*
X220966D01*
X219316Y69350D02*
Y72650D01*
X58324Y71000D02*
X61624D01*
X59974Y69350D02*
Y72650D01*
X68166Y71000D02*
X71466D01*
X69816Y69350D02*
Y72650D01*
X78008Y71000D02*
X81308D01*
X79658Y69350D02*
Y72650D01*
X87850Y71000D02*
X91150D01*
X89500Y69350D02*
Y72650D01*
X238827Y37000D02*
X251661D01*
X245244Y30583D02*
Y43417D01*
X53583Y37000D02*
X66417D01*
X60000Y30583D02*
Y43417D01*
X85256Y42591D02*
X89547D01*
X87402Y40445D02*
Y44736D01*
X90691Y31409D02*
X94982D01*
X92837Y29264D02*
Y33555D01*
X96126Y42591D02*
X100417D01*
X98272Y40445D02*
Y44736D01*
X101561Y31409D02*
X105852D01*
X103707Y29264D02*
Y33555D01*
X106996Y42591D02*
X111287D01*
X109142Y40445D02*
Y44736D01*
X112431Y31409D02*
X116722D01*
X114577Y29264D02*
Y33555D01*
X117866Y42591D02*
X122158D01*
X120012Y40445D02*
Y44736D01*
X123301Y31409D02*
X127593D01*
X125447Y29264D02*
Y33555D01*
X128736Y42591D02*
X133028D01*
X130882Y40445D02*
Y44736D01*
X134171Y31409D02*
X138463D01*
X136317Y29264D02*
Y33555D01*
X139606Y42591D02*
X143898D01*
X141752Y40445D02*
Y44736D01*
X145041Y31409D02*
X149333D01*
X147187Y29264D02*
Y33555D01*
X150476Y42591D02*
X154768D01*
X152622Y40445D02*
Y44736D01*
X155911Y31409D02*
X160203D01*
X158057Y29264D02*
Y33555D01*
X161346Y42591D02*
X165638D01*
X163492Y40445D02*
Y44736D01*
X166781Y31409D02*
X171073D01*
X168927Y29264D02*
Y33555D01*
X172216Y42591D02*
X176508D01*
X174362Y40445D02*
Y44736D01*
X177652Y31409D02*
X181943D01*
X179797Y29264D02*
Y33555D01*
X183087Y42591D02*
X187378D01*
X185232Y40445D02*
Y44736D01*
X188522Y31409D02*
X192813D01*
X190667Y29264D02*
Y33555D01*
X193957Y42591D02*
X198248D01*
X196102Y40445D02*
Y44736D01*
X199392Y31409D02*
X203683D01*
X201537Y29264D02*
Y33555D01*
X204827Y42591D02*
X209118D01*
X206972Y40445D02*
Y44736D01*
X210262Y31409D02*
X214553D01*
X212407Y29264D02*
Y33555D01*
X215697Y42591D02*
X219988D01*
X217843Y40445D02*
Y44736D01*
X269531Y17500D02*
X273468D01*
X271500Y15531D02*
Y19468D01*
X269531Y7500D02*
X273468D01*
X271500Y5531D02*
Y9469D01*
X269531Y27500D02*
X273468D01*
X271500Y25532D02*
Y29469D01*
X269531Y37500D02*
X273468D01*
X271500Y35531D02*
Y39469D01*
X269531Y47500D02*
X273468D01*
X271500Y45531D02*
Y49468D01*
X269531Y57500D02*
X273468D01*
X271500Y55532D02*
Y59469D01*
X269531Y67500D02*
X273468D01*
X271500Y65531D02*
Y69468D01*
X269531Y77500D02*
X273468D01*
X271500Y75532D02*
Y79469D01*
M02*
